<svg xmlns="http://www.w3.org/2000/svg" viewBox="0 0 512 512"><style><![CDATA[.A, .D{fill:#fff}.B{fill:#212124}.C{fill:#f9cd15;stroke-linejoin:round}.C, .D{stroke:#212124;stroke-width:6px}]]></style><path class="A" d="M256,507A251,251,0,0,1,78.516,78.516,251,251,0,1,1,433.483,433.483,249.348,249.348,0,0,1,256,507Z"/><path class="B" d="M256,10a246.067,246.067,0,0,1,95.751,472.672,246.066,246.066,0,0,1-191.5-453.344A244.448,244.448,0,0,1,256,10m0-10C114.615,0,0,114.615,0,256S114.615,512,256,512,512,397.385,512,256,397.385,0,256,0Z"/><path class="C" d="M70 171.9L430 97 146.7 242.9zm77 140.7v-69.8L430 97zM279.3 351L195 276.1 430 97z"/><path class="A" d="M144.3 469.318c-18.7-3.35-33.877-10.235-47.69-21.63A250.01 250.01 0 0 1 26.9 355.911a58.753 58.753 0 0 1 61.68 21.961 59.882 59.882 0 0 1 7.427 13.528l3.678 9.433 8.323-5.763a41.763 41.763 0 0 1 48.308 68.122 43.674 43.674 0 0 1-12.016 6.126z"/><path class="B" d="M41.6 357.1a55.39 55.39 0 0 1 44.548 22.529 56.935 56.935 0 0 1 7.062 12.85l5.06 12.978 11.425-7.91a38.763 38.763 0 0 1 44.878 63.2 41.024 41.024 0 0 1-10.5 5.482c-17.834-3.305-32.345-9.954-45.57-20.866a247 247 0 0 1-67.36-87.329A57.007 57.007 0 0 1 41.6 357.1m0-6a59.137 59.137 0 0 0-18.8 2.9 252.837 252.837 0 0 0 71.9 96c14.3 11.8 30.2 19 49.8 22.4a46.885 46.885 0 0 0 13.6-6.8 44.763 44.763 0 0 0-51.8-73l-5.2 3.6-2.3-5.9a63.26 63.26 0 0 0-7.8-14.2 61.432 61.432 0 0 0-49.4-25z"/><path class="D" d="M434.7 371.5a86.627 86.627 0 0 0-4.3 17.2l-.8 5.3-5.3-1.2a53.549 53.549 0 0 0-11.3-1.2 52.228 52.228 0 0 0-49.1 34.6 47.43 47.43 0 0 0-1.7 5.7l-1.6 7-6-4a48.634 48.634 0 0 0-10.2-5.1 47.227 47.227 0 0 0-60.2 28.6 48.875 48.875 0 0 0-2.7 16l12.5 1c14.3 1.1 27.8 2.2 41 2.2 28 0 47.8-5.2 64.3-16.7a250.406 250.406 0 0 0 98.8-145.8 88.049 88.049 0 0 0-63.4 56.4z" stroke-miterlimit="10"/><path class="A" d="M256 506a246.445 246.445 0 0 1-83.783-14.522 249.013 249.013 0 0 1-67.324-36.788c2.674-6.215 7.754-11.073 13.114-12.375l3.975-.955 1.587-3.805a69.908 69.908 0 0 1 114.109-23.434l5.622 5.62 5.62-5.62A63.2 63.2 0 0 1 294.1 395.3c33.285 0 60.9 21.138 65.665 50.262l.957 6.224 6.273.484a36.469 36.469 0 0 1 25.054 13.066A245.823 245.823 0 0 1 256 506z"/><path class="B" d="M188.4 396.8a66.207 66.207 0 0 1 47.157 19.443l7.743 7.742 7.76-7.76A60.208 60.208 0 0 1 294.1 398.3a69.476 69.476 0 0 1 41.1 13.065c11.85 8.75 19.318 20.735 21.6 34.657l1.32 8.573 8.654.665a33.657 33.657 0 0 1 20.7 9.471 245.346 245.346 0 0 1-214.238 23.925 246.157 246.157 0 0 1-64.569-34.863c2.426-4.356 6.16-7.62 10.03-8.56l2.5-.6 2.966-.71 2.196-5.274A66.645 66.645 0 0 1 188.4 396.8m0-6a72.683 72.683 0 0 0-67.6 45.6l-1 2.4-2.5.6c-7 1.7-13.3 8.2-16 16.3A250.354 250.354 0 0 0 256 509a248.481 248.481 0 0 0 140.3-42.9c-5.93-9.136-17.175-15.922-29.075-16.822l-3.9-.3-.6-3.9c-5.3-32.4-35.725-52.778-68.625-52.778a66.343 66.343 0 0 0-47.3 19.7l-3.5 3.5-3.5-3.5a72.228 72.228 0 0 0-51.4-21.2z"/></svg>