<svg xmlns="http://www.w3.org/2000/svg" viewBox="0 0 512 512"><style><![CDATA[.A, .C{fill:#fff}.B{fill:#212124}.C, .D, .E{stroke:#212124;stroke-miterlimit:10;stroke-width:6px}.E{fill:none;stroke-linecap:round}]]></style><path class="A" d="M256,507A251,251,0,0,1,78.516,78.516,251,251,0,1,1,433.483,433.483,249.348,249.348,0,0,1,256,507Z"/><path class="B" d="M256,10a246.067,246.067,0,0,1,95.751,472.672,246.066,246.066,0,0,1-191.5-453.344A244.448,244.448,0,0,1,256,10m0-10C114.615,0,0,114.615,0,256S114.615,512,256,512,512,397.385,512,256,397.385,0,256,0Z"/><path class="C" d="M304,466a10.8,10.8,0,0,1-10.1-7.9L246.3,264.8a7.845,7.845,0,0,1,7.7-9.9h46a10.8,10.8,0,0,1,10.1,7.9l47.6,193.3A7.845,7.845,0,0,1,350,466Z"/><path class="C" d="M162,466a7.824,7.824,0,0,1-6.3-3,8,8,0,0,1-1.4-6.9l47.6-193.3a10.8,10.8,0,0,1,10.1-7.9h46a7.824,7.824,0,0,1,6.3,3,8,8,0,0,1,1.4,6.9L218.1,458.1A10.8,10.8,0,0,1,208,466Z"/><path class="D" d="M91.098 104.693H421.22V347.51H91.098z" fill="#f9cd15"/><circle class="B" cx="132.564" cy="171.711" r="11.572"/><circle class="B" cx="152.815" cy="299.969" r="11.572"/><circle class="B" cx="164.388" cy="226.679" r="11.572"/><path class="B" d="M132.564 270.363a1.934 1.934 0 0 0-1.928 1.929v13.6c-18.7-20.347-26.423-41.95-23.048-64.514a68.427 68.427 0 0 1 11.09-28.352 1.929 1.929 0 1 0-3.086-2.314c-.386.482-8.97 11.958-11.765 29.894-2.507 16.3-.386 41.274 23.82 67.6l-13.02-2.6a1.967 1.967 0 1 0-.771 3.857l18.323 3.665h.385a1.935 1.935 0 0 0 1.929-1.929v-18.9a1.935 1.935 0 0 0-1.929-1.936zm118.42-81.97l8.294-8.293a2.053 2.053 0 0 0 0-2.7 1.863 1.863 0 0 0-2.7 0l-8.294 8.293-8.293-8.293a2.053 2.053 0 0 0-2.7 0 1.863 1.863 0 0 0 0 2.7l8.293 8.293-8.293 8.294a1.863 1.863 0 0 0 0 2.7 1.866 1.866 0 0 0 2.7 0l8.293-8.294 8.294 8.294a1.866 1.866 0 0 0 2.7 0 1.865 1.865 0 0 0 0-2.7zm57.862 66.54l8.293-8.293a2.054 2.054 0 0 0 0-2.7 1.865 1.865 0 0 0-2.7 0l-8.293 8.294-8.294-8.294a2.053 2.053 0 0 0-2.7 0 1.866 1.866 0 0 0 0 2.7l8.294 8.293-8.294 8.293a1.865 1.865 0 0 0 0 2.7 1.863 1.863 0 0 0 2.7 0l8.294-8.293 8.293 8.293a1.863 1.863 0 1 0 2.7-2.7zm56.896-53.034l8.293-8.293a2.053 2.053 0 0 0 0-2.7 1.863 1.863 0 0 0-2.7 0l-8.293 8.293-8.293-8.293a2.054 2.054 0 0 0-2.7 0 1.865 1.865 0 0 0 0 2.7l8.294 8.293-8.294 8.293a1.866 1.866 0 1 0 2.7 2.7l8.293-8.294 8.293 8.294a1.866 1.866 0 0 0 2.7 0 1.865 1.865 0 0 0 0-2.7z"/><circle class="B" cx="361.113" cy="302.862" r="11.572"/><path class="B" d="M359.28 240.662a2.045 2.045 0 0 0 2.507 1.157 1.968 1.968 0 0 0 1.158-2.507l-4.822-13.5c0-.1-.1-.193-.1-.3v-.1c-.1-.1-.1-.193-.192-.193l-.293-.293a.094.094 0 0 1-.1-.1c-.1-.1-.1-.1-.193-.1a.1.1 0 0 1-.1-.1.334.334 0 0 1-.192-.1h-.854a.354.354 0 0 0-.29.1l-14.465 4.34a1.922 1.922 0 0 0 1.157 3.665l11.38-3.376c-4.34 16.1-20.734 20.734-21.5 20.927a1.858 1.858 0 0 0-1.447 1.832 1.935 1.935 0 0 0 1.929 1.929.864.864 0 0 0 .482-.1c.772-.193 17.455-4.918 23.337-20.926zm49.28-73.002l-19.287-9.354a1.655 1.655 0 0 0-1.639 0 2.085 2.085 0 0 0-1.061 1.157l-5.786 18.612a1.951 1.951 0 0 0 1.253 2.411 1.23 1.23 0 0 0 .579.1 2.071 2.071 0 0 0 1.832-1.35l4.243-13.694c15.816 31.342 13.115 62.393 7.908 83.127a144.537 144.537 0 0 1-15.622 38.573 1.963 1.963 0 0 0 1.639 2.99 1.892 1.892 0 0 0 1.639-.868 146.024 146.024 0 0 0 16.105-39.538c5.3-21.312 8.2-53.328-8.1-85.73l14.56 7.04a1.933 1.933 0 0 0 1.736-3.476z"/><circle class="B" cx="300.36" cy="151.46" r="11.572"/><circle class="B" cx="222.248" cy="275.86" r="11.572"/><path class="B" d="M202.865 245.773a1.895 1.895 0 0 0-3.665.964l3.665 13.983-22.18-23.82a1.947 1.947 0 0 0-2.893 2.6l20.733 22.277-10.8-1.254a1.938 1.938 0 1 0-.386 3.857l18.322 2.122h.193a1.736 1.736 0 0 0 1.447-.675 1.91 1.91 0 0 0 .385-1.736z"/><path class="E" d="M82.817 104.693h346.366M82.817 347.5h346.366"/></svg>