<svg xmlns="http://www.w3.org/2000/svg" viewBox="0 0 512 512"><style><![CDATA[.A, .D, .G, .H{fill:#fff}.B{fill:#212124}.C, .F{fill:#f2c500}.C, .D, .E, .F, .G, .H{stroke:#212124}.C, .D, .E, .F, .G{stroke-linecap:round;stroke-linejoin:round}.C, .D, .E, .H{stroke-width:6px}.F, .G{stroke-width:4px}.H{stroke-miterlimit:10}]]></style><path class="A" d="M256,507A251,251,0,0,1,78.516,78.516,251,251,0,1,1,433.483,433.483,249.348,249.348,0,0,1,256,507Z"/><path class="B" d="M256,10a246.067,246.067,0,0,1,95.751,472.672,246.066,246.066,0,0,1-191.5-453.344A244.448,244.448,0,0,1,256,10m0-10C114.615,0,0,114.615,0,256S114.615,512,256,512,512,397.385,512,256,397.385,0,256,0Z"/><path class="C" d="M250.1 121c-35.1-60.3-95.4-23.7-95.4-23.7 46.5 12 34.5 34.5 34.5 34.5l60.9-10.8zm-60.9 259.3s12 22.5-34.5 34.5c0 0 60.2 36.6 95.4-23.7l-60.9-10.8zM36 220.7C68 225 65 262 65 262s3 37-29 41.3c0 0 67 23.7 69-41.3-2-65-69-41.3-69-41.3z"/><path class="D" d="M65,262s3,37-29,41.3c0,0,67,23.7,69-41.3Z"/><path class="E" d="M232 255.5l125.5-51.8a135.745 135.745 0 0 0-261.2 51.8l.1 4a135.755 135.755 0 0 0 261.2 47.8z" fill="#f9cd15"/><path class="F" d="M329.2,230.3l23.1,25.5-23.2,2.8Z"/><path class="G" d="M329.2,281.3,352.4,256H329.2Z"/><path class="F" d="M352.4,256s90.9-50.6,101.6.4Z"/><path class="G" d="M352.1,256s91,51,102,0Z"/><path class="D" d="M232,255.5a9.144,9.144,0,0,0-5.05-1.762c-9.1,0-7.55,6.762-16.65,6.762s-9.1-8-18.2-8-9.1,8-18.2,8-9.1-8-18.2-8-9.1,8-18.2,8-9.1-8-18.2-8-9.1,8-18.2,8a11.51,11.51,0,0,1-4.9-1,135.755,135.755,0,0,0,261.2,47.8Z"/><circle class="B" cx="303.3" cy="195.3" r="10.3"/><circle class="B" cx="436.7" cy="255.7" r="6.7"/><circle class="H" cx="384.5" cy="175.5" r="18.5"/><circle class="H" cx="403.3" cy="125.5" r="12.5"/><circle class="H" cx="366.1" cy="102.1" r="18.1"/></svg>