<svg xmlns="http://www.w3.org/2000/svg" viewBox="0 0 512 512"><style><![CDATA[.A, .D, .F, .I{fill:#fff}.B{fill:#212124}.C, .E, .G, .H{fill:#f9cd15}.C, .F, .G, .H, .I{stroke:#212124}.C, .F, .G{stroke-width:6px}.F, .G, .H, .I{stroke-linecap:round;stroke-linejoin:round}.H, .I{stroke-width:4px}]]></style><path class="A" d="M256,507A251,251,0,0,1,78.516,78.516,251,251,0,1,1,433.483,433.483,249.348,249.348,0,0,1,256,507Z"/><path class="B" d="M256,10a246.067,246.067,0,0,1,95.751,472.672,246.066,246.066,0,0,1-191.5-453.344A244.448,244.448,0,0,1,256,10m0-10C114.615,0,0,114.615,0,256S114.615,512,256,512,512,397.385,512,256,397.385,0,256,0Z"/><path class="A" d="M256 506a248.392 248.392 0 0 1-175.988-72.43l-4.494-4.593a77.713 77.713 0 0 1 9.982-.677 79.469 79.469 0 0 1 31.035 6.264l3.83 1.613 2.828-3.03a55.814 55.814 0 0 1 24.358-14.869l2.856-.817 1-2.8a54.323 54.323 0 0 1 46.213-33.965l5.173-.4.4-5.163a17.859 17.859 0 0 1 14.534-16.638l13.736-.35 1.117-3.8c5.19-16.2 8.86-23.345 22.12-23.345 14.74 0 19.477 9.5 23.06 27l.984 4.918 15.123-.12a12.175 12.175 0 0 0 1.774-.1A22.326 22.326 0 0 1 317.7 385a14.073 14.073 0 0 1-.07 1.773l-.018.157-.4 4.465 4.22 1.605a51.955 51.955 0 0 1 31.841 36.954l1.4 6.038 6-1.6A53.015 53.015 0 0 1 374 432.6a47.888 47.888 0 0 1 6.312.375l3.838.4 1.994-3.19A41.6 41.6 0 0 1 421.9 410.2a42.038 42.038 0 0 1 24.288 7.773A248.827 248.827 0 0 1 256 506z"/><path class="B" d="M254.7 334c11.56 0 16.263 5.748 20.116 24.577l1.473 7.362 17.51-.14a16.236 16.236 0 0 0 2.016-.1A19.324 19.324 0 0 1 314.7 385a13.388 13.388 0 0 1-.04 1.352l-.02.152-.014.153-.612 6.73 6.324 2.4a48.991 48.991 0 0 1 30.02 34.866l2.107 9.03 8.95-2.39A50.04 50.04 0 0 1 374 435.6a44.888 44.888 0 0 1 5.924.35l.074.01.074.008 5.63.593 3.017-4.828a38.912 38.912 0 0 1 52.955-13.114 246.728 246.728 0 0 1-359.53 12.839l-.07-.068q1.746-.09 3.426-.09a76.479 76.479 0 0 1 29.872 6.03l1.9.8 3.858 1.624 4.226-4.528a52.838 52.838 0 0 1 23.022-14.065l1.37-.392 2.965-.847 1.502-4.2a51.319 51.319 0 0 1 43.645-32.036l7.728-.594.594-7.728v-.1a14.877 14.877 0 0 1 11.882-13.785l15.652-.398 1.713-5.824C240.483 339.513 243.28 334 254.7 334m0-6c-16.1 0-20.1 10.2-25 25.5l-.5 1.7-11.8.3a20.956 20.956 0 0 0-17.2 19.4l-.2 2.6-2.6.2a57.291 57.291 0 0 0-48.8 35.9l-.5 1.4-1.4.4a58.6 58.6 0 0 0-25.7 15.7l-1.4 1.5-1.9-.8a82.338 82.338 0 0 0-32.2-6.5 86.8 86.8 0 0 0-16 1.6c2.7 3 5.5 5.9 8.4 8.8a252.727 252.727 0 0 0 372.6-18.2 44.928 44.928 0 0 0-66.9 11.1l-1 1.6-1.9-.2a51.209 51.209 0 0 0-6.7-.4 56.331 56.331 0 0 0-14.1 1.9l-3 .8-.7-3a54.948 54.948 0 0 0-33.7-39.1l-2.1-.8.2-2.2a16.2 16.2 0 0 0 .1-2.2 25.394 25.394 0 0 0-25.3-25.3 8.6 8.6 0 0 1-1.6.1l-12.6.1-.5-2.5c-3.5-17.1-8.6-29.4-26-29.4z"/><path class="C" d="M293.2,376.1c0,43.2-37.2,97.9-37.2,97.9s-37.2-50.7-37.2-97.9a37.2,37.2,0,1,1,74.4,0Z" stroke-miterlimit="10"/><path class="D" d="M280.7,363.6c0,28.7-24.7,65-24.7,65s-24.7-33.6-24.7-65a24.7,24.7,0,0,1,49.4,0Z" opacity=".3"/><path class="E" d="M271.9,357.9c0,17.5-15.1,39.6-15.1,39.6s-15.1-20.5-15.1-39.6a15.1,15.1,0,1,1,30.2,0Z"/><path class="F" d="M321.7,99.8c-1.4-3-64.7,19.1-64.7,19.1s-63.2-22.1-64.7-19l.3.2c-54.3,114.7,18.6,242.5,18.6,242.5a8.673,8.673,0,0,0,7.6,4.5h76.9a8.433,8.433,0,0,0,7.5-4.5s72.9-128,18.5-242.8c-.1.1,0,.1,0,0Z"/><path class="F" d="M321.6 99.9c54.4 114.7-18.5 242.6-18.5 242.6a8.433 8.433 0 0 1-7.5 4.5H257V118.9c33-2.1 53.5-11.2 64.6-19z"/><path class="G" d="M257 22.1c-24 0-51.6 50.1-64.7 77.7 11.1 7.8 31.7 16.9 64.7 19.1 33-2.1 53.5-11.3 64.7-19C308.6 72.2 281 22.1 257 22.1zm-64.4 234l26.2 73.5c.9 2.6-.6 4.7-3.3 4.6 0 0-48.9-5.1-49 40.8 0 0 .2 4-3.4 4h-18.9a8.3 8.3 0 0 1-7-4.6c.1 0-40.7-93.3 55.4-118.3zm128.8 0l-26.2 73.5c-.9 2.6.6 4.7 3.3 4.6 0 0 48.9-5.1 49 40.8 0 0-.2 4 3.4 4h18.9a8.3 8.3 0 0 0 7-4.6c-.1 0 40.7-93.3-55.4-118.3z"/><circle class="H" cx="256.7" cy="182.3" r="47.2"/><path class="I" d="M256.7 220.3a38 38 0 1 1 38-38 38.047 38.047 0 0 1-38 38z"/><path class="I" d="M255.7 220.3l39-39a37.848 37.848 0 0 0-10.2-24.8l-53.6 53.6a37.848 37.848 0 0 0 24.8 10.2zM222.2 198l50.3-50.3a36.038 36.038 0 0 0-11.1-3.1L219 186.9a39.232 39.232 0 0 0 3.2 11.1z"/><path class="G" d="M259 256h-5a4.951 4.951 0 0 0-5 5v113a4.951 4.951 0 0 0 5 5h5a4.951 4.951 0 0 0 5-5V261a4.951 4.951 0 0 0-5-5z"/><path class="H" d="M67.4 227.1c1.9-1.9 3.8-1.3 4.2 1.4l.5 3.5a10.852 10.852 0 0 0 5.1 7.2l3.2 1.6c2.4 1.2 2.4 3.2-.1 4.4l-3.2 1.5a10.625 10.625 0 0 0-5.3 7.1l-.6 3.5c-.4 2.7-2.3 3.3-4.2 1.3l-2.4-2.6a10.449 10.449 0 0 0-8.4-2.8l-3.5.6c-2.7.4-3.9-1.2-2.6-3.6l1.7-3.1a10.64 10.64 0 0 0 .1-8.9l-1.6-3.2c-1.2-2.4-.1-4 2.7-3.5l3.5.6a11 11 0 0 0 8.5-2.6l2.4-2.4zm39.6-127c.4-2.7 2.2-3.4 4.2-1.4l3.2 3.2a10.888 10.888 0 0 0 8.5 2.6l4.4-.8c2.7-.5 3.9 1.1 2.7 3.5l-2 4a10.791 10.791 0 0 0 .1 8.8l2.2 4c1.3 2.4.2 4-2.6 3.6l-4.4-.7a10.88 10.88 0 0 0-8.4 2.9l-3.1 3.3c-1.9 2-3.8 1.4-4.2-1.3l-.7-4.4a10.625 10.625 0 0 0-5.3-7.1l-4.1-1.9c-2.5-1.2-2.5-3.2-.1-4.4l4-2.1a11.087 11.087 0 0 0 5.1-7.2l.5-4.6zm339.6 167.5c.6-2.7 2.5-3.1 4.3-1l6.3 7.6a10.945 10.945 0 0 0 8.2 3.4l9.9-.9c2.7-.2 3.8 1.5 2.3 3.8l-5.3 8.4a10.451 10.451 0 0 0-.7 8.8l3.9 9.1c1.1 2.5-.2 4-2.9 3.4l-9.6-2.5a10.59 10.59 0 0 0-8.6 2l-7.5 6.5c-2.1 1.8-3.9 1-4.1-1.7l-.6-9.9a10.977 10.977 0 0 0-4.6-7.6l-8.5-5.1c-2.4-1.4-2.2-3.4.4-4.4l9.2-3.7a10.747 10.747 0 0 0 5.8-6.7l2.1-9.5zm-43.7-128.9c1.9-2 3.8-1.5 4.2 1.2l.6 3.7a10.654 10.654 0 0 0 5.4 7l3.4 1.6c2.5 1.1 2.6 3.1.1 4.4l-3.3 1.8a10.814 10.814 0 0 0-5 7.3l-.4 3.7c-.3 2.7-2.2 3.4-4.2 1.5l-2.7-2.6a10.935 10.935 0 0 0-8.5-2.5l-3.7.7c-2.7.5-3.9-1-2.7-3.5l1.6-3.4a10.407 10.407 0 0 0-.3-8.8l-1.8-3.3c-1.4-2.4-.2-4 2.5-3.7l3.7.5a10.61 10.61 0 0 0 8.3-3l2.8-2.6z"/></svg>