<svg xmlns="http://www.w3.org/2000/svg" viewBox="0 0 512 512"><style><![CDATA[.A, .C{fill:#fff}.C, .D{stroke:#212124;stroke-miterlimit:10;stroke-width:6px}.D{fill:#f9cd15}]]></style><path class="A" d="M256,507A251,251,0,0,1,78.516,78.516,251,251,0,1,1,433.483,433.483,249.348,249.348,0,0,1,256,507Z"/><path d="M256,10a246.067,246.067,0,0,1,95.751,472.672,246.066,246.066,0,0,1-191.5-453.344A244.448,244.448,0,0,1,256,10m0-10C114.615,0,0,114.615,0,256S114.615,512,256,512,512,397.385,512,256,397.385,0,256,0Z" fill="#212124"/><path class="C" d="M222.4,334.7s13.8-8.5,18.8-1.5,12.4,23.1,22,29.6c7.9,5.3-9.3,25.424-13.7,25.024S222.4,334.7,222.4,334.7Z"/><path class="D" d="M145.7 296.4c-.1-.4-.1-.8-.2-1.2L128 217.5a11.756 11.756 0 0 0-14.2-9l-58.5 13.1a12.128 12.128 0 0 0-9.3 14.3l17.5 77.7c1.5 6.5 8.1 11 14.6 9.5l58.5-13.1a12.2 12.2 0 0 0 9.1-13.6z"/><path class="C" d="M292.8 273.1l-11.9-53-9.9-43.7 100.2-85.2 48.5 215.6-126.9-33.7z"/><path class="D" d="M431.7 319.2l-55-244.9a12.49 12.49 0 0 0-14.9-9.1c-6.5 1.5-11 8.1-9.5 14.6l55 244.8a12.49 12.49 0 0 0 14.9 9.1 12.237 12.237 0 0 0 9.5-14.5zM206.3 446.9a8.317 8.317 0 0 1-7.7-6.2l-26.1-116.1a9.231 9.231 0 0 1 5.6-10.1l.2-.1c.3-.1 32.1-11.2 50.1-11.2 5.9 0 8.3 1.2 8.5 2.1 2 8.8 1.4 12.5 1.1 13.6a18.956 18.956 0 0 0-6.6 22.9l23.1 51.9a146.706 146.706 0 0 1 7.3 22.1L264 426c.9 4-1.6 8.4-5.2 9.2l-51.2 11.5a5.067 5.067 0 0 1-1.3.2z"/><path class="C" d="M208.8 353.3l-.9-3.9a7.265 7.265 0 0 0-7.2-5.4 9.852 9.852 0 0 0-1.7.2l-21 4.7 20.6 91.8a8.317 8.317 0 0 0 7.7 6.2c.5 0 .9-.1 1.4-.1l21-4.7zm-61.1-25.5a7.27 7.27 0 0 1-7-5.6L112 194.3a7.21 7.21 0 0 1 5.4-8.6l155.3-34.9a7.772 7.772 0 0 1 1.6-.2 7.27 7.27 0 0 1 7 5.6l28.7 128a7.21 7.21 0 0 1-5.4 8.6l-155.3 34.9a9.151 9.151 0 0 1-1.6.1z"/></svg>