<svg xmlns="http://www.w3.org/2000/svg" viewBox="0 0 512 512"><style><![CDATA[.A, .C, .D, .F, .H{fill:#fff}.C, .D, .E, .H{stroke:#212124;stroke-width:6px}.C{stroke-miterlimit:10}.D, .E{stroke-linecap:round}.D, .E, .H{stroke-linejoin:round}.E{fill:#f9cd15}.G{fill:#ecf0f1}]]></style><path class="A" d="M256,507A251,251,0,0,1,78.516,78.516,251,251,0,1,1,433.483,433.483,249.348,249.348,0,0,1,256,507Z"/><path d="M256,10a246.067,246.067,0,0,1,95.751,472.672,246.066,246.066,0,0,1-191.5-453.344A244.448,244.448,0,0,1,256,10m0-10C114.615,0,0,114.615,0,256S114.615,512,256,512,512,397.385,512,256,397.385,0,256,0Z" fill="#212124"/><path class="C" d="M155,281c6.1,0,6,4.5,6,4.5V320a5.068,5.068,0,0,0,1.5,3.3l13,18.4,4.5,4.4,8.2,6.4c.8.8,2-2.1,2.2-1.1l6.7,28.1a7,7,0,0,1-.3,3.8l-4.6-6.4c-.4,1-6.1,3.8-6.9,3l-16.2-6a8.627,8.627,0,0,1-1.6-3.5l-2.7-18.3a12.564,12.564,0,0,0-1.3-3.7L150,325.2a8.2,8.2,0,0,1-1-3.7V285s-.1-4,6-4Z"/><path class="C" d="M148 276c6.1 0 6 4.5 6 4.5V315a5.068 5.068 0 0 0 1.5 3.3l13 18.4 4.5 4.4 8.2 6.4c.8.8 2-2.1 2.2-1.1l6.7 28.1a7 7 0 0 1-.3 3.8l3.4 5.8c-.4 1-15.8-15.2-13.7-2.2l-17.4-13a8.627 8.627 0 0 1-1.6-3.5l-2.7-18.3a12.564 12.564 0 0 0-1.3-3.7L143 320.2a8.2 8.2 0 0 1-1-3.7V280s-.1-4 6-4z"/><path class="C" d="M138 269c6.1 0 6 4.5 6 4.5V308a5.068 5.068 0 0 0 1.5 3.3l13 18.4 4.5 4.4 8.2 6.4c.8.8 2-2.1 2.2-1.1l6.7 28.1a7 7 0 0 1-.3 3.8l.4 12.6c-.4 1-6.1 3.8-6.9 3l-21.2-25a8.627 8.627 0 0 1-1.6-3.5l-2.7-18.3a12.564 12.564 0 0 0-1.3-3.7L133 313.2a8.2 8.2 0 0 1-1-3.7V273s-.1-4 6-4z"/><path class="D" d="M358,281c-6.1,0-6,4.5-6,4.5V320a5.068,5.068,0,0,1-1.5,3.3l-13,18.4-4.5,4.4-8.2,6.4c-.8.8-2-2.1-2.2-1.1l-6.7,28.1a7,7,0,0,0,.3,3.8l4.6-6.4c.4,1,6.1,3.8,6.9,3l16.2-6a8.627,8.627,0,0,0,1.6-3.5l2.7-18.3a12.564,12.564,0,0,1,1.3-3.7l13.7-23.3a8.2,8.2,0,0,0,1-3.7V285c-.2,0-.1-4-6.2-4Z"/><path class="D" d="M365,276c-6.1,0-6,4.5-6,4.5V315a5.068,5.068,0,0,1-1.5,3.3l-13,18.4-4.5,4.4-8.2,6.4c-.8.8-2-2.1-2.2-1.1l-6.7,28.1a7,7,0,0,0,.3,3.8l-3.4,5.8c.4,1,15.8-15.2,13.7-2.2l17.4-13a8.627,8.627,0,0,0,1.6-3.5l2.7-18.3a12.564,12.564,0,0,1,1.3-3.7l13.7-23.3a8.2,8.2,0,0,0,1-3.7V280c-.2,0-.1-4-6.2-4Z"/><path class="D" d="M375,269c-6.1,0-6,4.5-6,4.5V308a5.068,5.068,0,0,1-1.5,3.3l-13,18.4-4.5,4.4-8.2,6.4c-.8.8-2-2.1-2.2-1.1l-6.7,28.1a7,7,0,0,0,.3,3.8l-.4,12.6c.4,1,6.1,3.8,6.9,3l21.2-25a8.627,8.627,0,0,0,1.6-3.5l2.7-18.3a12.564,12.564,0,0,1,1.3-3.7l13.7-23.3a8.2,8.2,0,0,0,1-3.7V273c-.2,0-.1-4-6.2-4Z"/><path class="E" d="M201.1 218.6c-37.8 0-65.9-22.3-81.3-64.4-11.3-30.7-11.8-60.8-11.8-62.1a7.028 7.028 0 0 1 2-5 7.119 7.119 0 0 1 5-2.1h65a7 7 0 0 1 0 14h-57.6c.8 10.4 3.3 30.7 10.7 50.7 13.5 36.4 36.4 54.9 68.1 54.9a6.957 6.957 0 0 1 7 7 7.042 7.042 0 0 1-7.1 7zm109.8 0a7 7 0 0 1 0-14c31.8 0 54.8-18.6 68.2-55.2A193.042 193.042 0 0 0 389.6 99H332a7 7 0 0 1 0-14h65a7.119 7.119 0 0 1 5 2.1 7.028 7.028 0 0 1 2 5c0 1.3-.5 31.4-11.8 62.1-15.4 42.1-43.6 64.4-81.3 64.4z"/><path class="E" d="M169,63s0,176,73,176v29.9l14,1.1,14-1.1V239c73,0,73-176,73-176Z"/><path class="E" d="M306 276h-12v-9h-76v9h-12s-26 5.7-26 11.4l76-.4 76 .4c0-5.7-26-11.4-26-11.4z"/><path class="C" d="M162,373.5a5.549,5.549,0,0,1-5.5-5.5V293a5.549,5.549,0,0,1,5.5-5.5H351a5.549,5.549,0,0,1,5.5,5.5v75a5.549,5.549,0,0,1-5.5,5.5Z"/><path class="F" d="M291.5 214a3.7 3.7 0 0 1-2.6-1 3.971 3.971 0 0 1-.4-5.6c13.2-15 20.1-37.9 23.5-54.5a3.981 3.981 0 1 1 7.8 1.6v.1c-3.7 17.5-11 41.8-25.4 58.1a3.935 3.935 0 0 1-2.9 1.3zm28-78.9h-.4a4.034 4.034 0 0 1-3.6-4.4l.5-5.9a4 4 0 1 1 8 .4l-.5 6.3a4.171 4.171 0 0 1-4 3.6z" opacity=".4"/><circle class="G" cx="351.7" cy="324.1" r="4"/><path class="C" d="M184.438 349.76c-2.287 0-4.194-1.118-4.194-2.46v-33.56c0-1.342 1.907-2.46 4.194-2.46H328.56c2.288 0 4.195 1.12 4.195 2.46v33.56c0 1.343-1.907 2.46-4.195 2.46z"/><path class="D" d="M384,273c-6.1,0-6,4.5-6,4.5V312a5.068,5.068,0,0,1-1.5,3.3l-13,18.4c-.8.7-3.4,6.3-4.2,7.1l-3.5,1.5,1-16.5s2.3-7-4.6-7-6.6,6.2-6.6,6.2l-3.9,19.4S312.5,347,324.3,376H297l15,15v26h37V391l20.9-25a8.472,8.472,0,0,0,1.5-3.5l2.7-18.3a11.637,11.637,0,0,1,1.3-3.7l13.7-23.3a8.2,8.2,0,0,0,1-3.7V277c-.1,0,0-4-6.1-4Z"/><circle class="G" cx="161.3" cy="324.1" r="4"/><path class="C" d="M129 273c6.1 0 6 4.5 6 4.5V312a5.068 5.068 0 0 0 1.5 3.3l13 18.4c.8.7 3.4 6.3 4.2 7.1l3.5 1.5-1-16.5s-2.3-7 4.6-7 6.6 6.2 6.6 6.2l3.9 19.4s29.2 2.6 17.4 31.6H216l-15 15v26h-37v-26l-20.9-25a8.472 8.472 0 0 1-1.5-3.5l-2.7-18.3a11.637 11.637 0 0 0-1.3-3.7L124 317.2a8.2 8.2 0 0 1-1-3.7V277s-.1-4 6-4z"/><path class="H" d="M154.7 415h54.5v13h-54.5z"/><path class="H" d="M212 503.2l-2.8-.5h-.1a248.107 248.107 0 0 1-57.1-18.1V427h60zm92-88.2h54v12.5h-54z"/><path class="H" d="M301 427h60v57a249.155 249.155 0 0 1-31.5 12l-.8.2-.9.3-2.1.6-2.2.6-2 .6-2.3.6-2 .5-2.5.6a10.622 10.622 0 0 1-1.9.4l-1.5.3-1.2.3c-.6.1-1.1.3-1.7.4a11.627 11.627 0 0 0-1.8.4l-2.6.5a20.024 20.024 0 0 1-2.4.4l-.6.3z"/></svg>