<svg xmlns="http://www.w3.org/2000/svg" xmlns:xlink="http://www.w3.org/1999/xlink" viewBox="0 0 512 512"><style><![CDATA[.A, .C, .E{fill:#fff}.B{fill:#212124}.C, .D, .E{stroke:#212124;stroke-width:6px}.C, .D{stroke-miterlimit:10}.D{fill:#f9cd15}.E{stroke-linecap:round;stroke-linejoin:round}]]></style><path class="A" d="M256,507A251,251,0,0,1,78.516,78.516,251,251,0,1,1,433.483,433.483,249.348,249.348,0,0,1,256,507Z"/><path class="B" d="M256,10a246.067,246.067,0,0,1,95.751,472.672,246.066,246.066,0,0,1-191.5-453.344A244.448,244.448,0,0,1,256,10m0-10C114.615,0,0,114.615,0,256S114.615,512,256,512,512,397.385,512,256,397.385,0,256,0Z"/><path class="C" d="M163.3 375.1s-15.7-2.5-15.7 13.5 17.7 12.4 17.7 12.4h131.2l11.5-26.2-144.7.3z"/><use xlink:href="#A" class="C"/><use xlink:href="#A" x="-22" y="9" class="C"/><use xlink:href="#A" x="-8" y="19" class="C"/><path class="D" d="M334.9 291H178.2a4.9 4.9 0 0 0-5 5.9l18.2 113.2a7.267 7.267 0 0 0 7 5.9h116.5a7.457 7.457 0 0 0 7-5.9L340 296.9a5.013 5.013 0 0 0-5.1-5.9z"/><path class="A" d="M229.87 291.834a3.936 3.936 0 0 1-3.324-1.712 4.164 4.164 0 0 1-.332-3.936 205.919 205.919 0 0 0 7.717-25.019c3.83-16.394 3.64-27.912-.535-32.43-11.7-12.672 1.21-44.912 5.56-54.736H191.9a6.556 6.556 0 0 1-5.583-3.458l-31.18-59.958a3.58 3.58 0 0 1-.207-3.72 3.017 3.017 0 0 1 2.56-1.427 3.564 3.564 0 0 1 3 2l34.11 51.71a1.77 1.77 0 0 0 .587.249l46.71-2a1.706 1.706 0 0 0 .621-.388l17.565-24.866c18.6-26.07 18.967-26.07 21.01-26.07a3.071 3.071 0 0 1 2.644 1.54c1.015 1.792.162 3.212-2.367 7.427-10.35 17.192-20.618 62.117-22.067 68.6l24.95 7.57a2.6 2.6 0 0 0 .277.016 2.129 2.129 0 0 0 .83-.149l47.918-30.813a3.958 3.958 0 0 1 2.3-.87 3.024 3.024 0 0 1 2.822 1.95c.75 2-.77 3.332-1.42 3.9L292.028 203a9.155 9.155 0 0 1-5.428 2l-27.8-.092 9.475 23.05a17.186 17.186 0 0 1 1.625 7.441l-1.3 45.785a5.424 5.424 0 0 1-4.462 5.167l-33.417 5.4a4.645 4.645 0 0 1-.851.082z"/><path class="B" d="M157.49 108.437a2.709 2.709 0 0 1 .509.663l34.1 51.7a4.135 4.135 0 0 0 3.1 1.6l46.7-2a4.24 4.24 0 0 0 3.1-1.7s34.7-49.63 36.1-49.624c.227 0-.44 1.33-2.3 4.424-11.5 19.1-22.6 70.3-22.6 70.3a2.2 2.2 0 0 0 1.5 2.5l25.7 7.8a4.352 4.352 0 0 0 1.13.138 4.7 4.7 0 0 0 2.47-.638l47.9-30.8a2.988 2.988 0 0 1 .675-.394c.068 0-.13.2-.575.594l-44.9 37.7a6.251 6.251 0 0 1-3.5 1.3l-30.2-.1a1.318 1.318 0 0 0-1.3 1.9l10.4 25.3a14.3 14.3 0 0 1 1.4 6.3l-1.3 45.7a2.446 2.446 0 0 1-2 2.3l-33.4 5.4a1.7 1.7 0 0 1-.33.034c-.8 0-1.224-.65-.87-1.534 0 0 18.7-47.5 6.6-60.6s7.2-53.9 7.2-53.9a1.14 1.14 0 0 0-1.1-1.8h-49.8a3.549 3.549 0 0 1-2.9-1.8l-31.2-60c-.257-.513-.355-.763-.31-.763m0-6a6.017 6.017 0 0 0-5.112 2.85 6.458 6.458 0 0 0 .054 6.6l.044.085 31.185 59.972A9.573 9.573 0 0 0 191.9 177h42.56a158.779 158.779 0 0 0-5.577 16.221c-4.995 17.85-4.218 30.484 2.308 37.55 1.268 1.372 5 7.574-.2 29.774a202.036 202.036 0 0 1-7.578 24.557 7.193 7.193 0 0 0 .645 6.7 6.983 6.983 0 0 0 5.808 3.03 7.635 7.635 0 0 0 1.36-.123l33.443-5.408a8.485 8.485 0 0 0 6.926-8.088l1.3-45.815a20.083 20.083 0 0 0-1.875-8.641l-7.743-18.836 23.3.077a12.162 12.162 0 0 0 7.413-2.734l44.96-37.743c3.087-2.7 2.93-5.414 2.253-7.214a6.022 6.022 0 0 0-5.629-3.9 6.9 6.9 0 0 0-3.962 1.374l-47.207 30.355-21.557-6.542c2.7-11.706 11.915-49.758 21.09-65 2.672-4.454 4.282-7.137 2.415-10.448a6.069 6.069 0 0 0-5.239-3.071h-.032c-3.487 0-4.946 1.968-11.033 10.178L257.644 130.4l-16.99 24.046-44.3 1.9L163.01 105.8a6.555 6.555 0 0 0-5.513-3.359z"/><circle class="D" cx="355.3" cy="158.6" r="30.5"/><path class="B" d="M353.1,143.7a2.2,2.2,0,0,1,4.4,0V149H364a2.2,2.2,0,0,1,0,4.4H348.9v3H364a2.22,2.22,0,0,1,2.2,2.2V166a2.22,2.22,0,0,1-2.2,2.2h-6.5v5.3a2.2,2.2,0,1,1-4.4,0v-5.3h-6.5a2.2,2.2,0,0,1,0-4.4h15.1v-3H346.6a2.22,2.22,0,0,1-2.2-2.2v-7.4a2.22,2.22,0,0,1,2.2-2.2h6.5v-5.3Z"/><circle class="D" cx="156.7" cy="103.7" r="30.5"/><path class="B" d="M154.5,88.8a2.2,2.2,0,0,1,4.4,0v5.3h6.4a2.2,2.2,0,0,1,0,4.4H150.2v3h15.1a2.22,2.22,0,0,1,2.2,2.2v7.4a2.22,2.22,0,0,1-2.2,2.2h-6.4v5.3a2.2,2.2,0,0,1-4.4,0v-5.3H148a2.2,2.2,0,1,1,0-4.4h15.1v-3H148a2.22,2.22,0,0,1-2.2-2.2V96.3a2.22,2.22,0,0,1,2.2-2.2h6.4l.1-5.3Z"/><circle class="D" cx="285.1" cy="86.2" r="30.5"/><path class="B" d="M282.9,71.3a2.2,2.2,0,0,1,4.4,0v5.3h6.5a2.2,2.2,0,0,1,0,4.4H278.7v3h15.1a2.22,2.22,0,0,1,2.2,2.2v7.4a2.22,2.22,0,0,1-2.2,2.2h-6.5v5.3a2.2,2.2,0,1,1-4.4,0V95.8h-6.4a2.2,2.2,0,1,1,0-4.4h15.1v-3H276.5a2.22,2.22,0,0,1-2.2-2.2V78.8a2.22,2.22,0,0,1,2.2-2.2h6.4Z"/><path class="E" d="M265.8,275.5s14.7-62,89.5-50.5Z"/><path class="E" d="M265.8 275.5s80.9 6.4 89.5-50.5zm-69.6-72.2s54.2-1.8 45.7 70.4z"/><path class="E" d="M196.2,203.3s-23.2,60.2,45.7,70.4Z"/><path class="D" d="M344 276H168a6.018 6.018 0 0 0-6 6v15a6.018 6.018 0 0 0 6 6h176a6.018 6.018 0 0 0 6-6v-15a6.018 6.018 0 0 0-6-6z"/><path class="C" d="M265.2,476.9,221.9,456h-43s-17,3.4-17-11.9,15-13,15-13l56-.3s27.5-45.7,91.5-19.5l5.4-33.3h14.1a7.725,7.725,0,0,1,6.9,2.3c2.8,2.8,9.1,8.5,9.1,8.5v81l-94.7,7.1Z"/><path class="E" d="M241.9 273.7s-62.3-40.8-91.4 17.3zm-91.4 17.4s29.3 22.5 57.5 7.7 33.9-25 33.9-25l-91.4 17.3z"/><path class="C" d="M361 386h26.55l-.55 82.628-26 1.472V386z"/><path class="C" d="M386,383h85.5A251.878,251.878,0,0,1,386,470.1Z"/><defs><path id="A" d="M145.3 384.1s-15.7-2.5-15.7 13.5 17.7 12.4 17.7 12.4h149.2l11.5-26.2-162.7.3z"/></defs></svg>