<svg xmlns="http://www.w3.org/2000/svg" viewBox="0 0 512 512"><style><![CDATA[.A, .C, .E, .F{fill:#fff}.B{fill:#212124}.C, .F, .G{stroke:#212124;stroke-width:6px}.C, .G{stroke-linejoin:round}.D, .G{fill:#f9cd15}.E{opacity:0.3;isolation:isolate}.F{stroke-miterlimit:10}]]></style><path class="A" d="M256,507A251,251,0,0,1,78.516,78.516,251,251,0,1,1,433.483,433.483,249.348,249.348,0,0,1,256,507Z"/><path class="B" d="M256,10a246.067,246.067,0,0,1,95.751,472.672,246.066,246.066,0,0,1-191.5-453.344A244.448,244.448,0,0,1,256,10m0-10C114.615,0,0,114.615,0,256S114.615,512,256,512,512,397.385,512,256,397.385,0,256,0Z"/><path class="C" d="M53.3 271l114.4-114.3 31.4 31L84.7 302l-31.4-31z"/><path class="A" d="M9.114,232.572a245.27,245.27,0,0,1,30.4-97.607A248.551,248.551,0,0,1,90.475,71.317L176.058,156.9,54.8,278.257Z"/><path class="B" d="M90.372,75.458,171.816,156.9,54.8,274.013,12.236,231.45a242.246,242.246,0,0,1,29.9-95.011A245.689,245.689,0,0,1,90.372,75.458M90.6,67.2a251.193,251.193,0,0,0-53.7,66.3A248.24,248.24,0,0,0,6,233.7l48.8,48.8L180.3,156.9,90.6,67.2Z"/><path class="D" d="M242.9 479.7a17.034 17.034 0 0 1-16.7-20.1l-8 8a20.636 20.636 0 0 1-14.8 6.1 20.827 20.827 0 0 1-20.9-20.9 22.2 22.2 0 0 1 .6-5.1l-.9.8a25.108 25.108 0 0 1-35.4 0l-.2-.2a25.113 25.113 0 0 1 .2-35.2l5.4-5.4a24.894 24.894 0 0 1-6.1.8 23.052 23.052 0 0 1-16.3-39.3l182.8-182.8a2.9 2.9 0 0 1 4.2 0l111 111a2.878 2.878 0 0 1 .9 2.1 2.723 2.723 0 0 1-.9 2.1L254.9 474.8a16.693 16.693 0 0 1-12 4.9z"/><path class="B" d="M314.7 188.7l111 111-172.8 172.8a14 14 0 0 1-19.8 0 14.125 14.125 0 0 1 0-19.8l59.8-59.8-2.1-2.1-74.6 74.6a17.853 17.853 0 0 1-12.7 5.2 17.95 17.95 0 0 1-12.7-30.7l74.6-74.6-2.1-2.1-83.3 83.3a22.212 22.212 0 0 1-31.2 0 21.969 21.969 0 0 1 0-31.1l83.1-83.1-2.1-2.1-69.7 69.7a20.039 20.039 0 0 1-28.2 0 20.038 20.038 0 0 1 0-28.3l71.4-71.4 111.4-111.5m0-6a5.756 5.756 0 0 0-4.2 1.8L199.1 295.8l-71.4 71.4a26.074 26.074 0 0 0 0 36.8 25.515 25.515 0 0 0 16.5 7.5 28.027 28.027 0 0 0 .2 38.8c.1.1.2.2.2.3a27.754 27.754 0 0 0 19.8 8.2 28.161 28.161 0 0 0 15-4.3 23.381 23.381 0 0 0 7 15.2 24.143 24.143 0 0 0 34 0l3-3a20.819 20.819 0 0 0 5.4 10.1l.1.1a20.041 20.041 0 0 0 28.1-.1L430 304a6.174 6.174 0 0 0 1.8-4.2 5.756 5.756 0 0 0-1.8-4.2l-111-111a5.859 5.859 0 0 0-4.3-1.9z"/><path class="D" d="M269.1 479.7a16.785 16.785 0 0 1-12-5L84.2 301.9a2.9 2.9 0 0 1 0-4.2l111-111a2.878 2.878 0 0 1 2.1-.9 2.723 2.723 0 0 1 2.1.9l182.8 182.8a23 23 0 0 1-16.3 39.3 24.272 24.272 0 0 1-6.1-.8l5.4 5.4a25.113 25.113 0 0 1 .2 35.2c0 .1-.1.1-.1.2a25.108 25.108 0 0 1-35.4 0l-.8-.8a21.57 21.57 0 0 1 .6 5.1 20.93 20.93 0 0 1-35.7 14.8l-8-8a16.927 16.927 0 0 1-4.7 15.1l-.1.1a18.59 18.59 0 0 1-12.1 4.6z"/><path class="B" d="M197.3 188.7l182.8 182.8a20.038 20.038 0 0 1 0 28.3 20.039 20.039 0 0 1-28.2 0l-69.7-69.7-2.1 2.1 83.1 83.1a21.969 21.969 0 0 1 0 31.1 22.213 22.213 0 0 1-31.2 0l-83.1-83.1-2.1 2.1 74.6 74.6a18.107 18.107 0 0 1 0 25.5 17.853 17.853 0 0 1-12.7 5.2 18.282 18.282 0 0 1-12.7-5.2L221.3 391l-2.1 2.1 59.8 59.8a14.125 14.125 0 0 1 0 19.8 14 14 0 0 1-19.8 0L86.4 299.9l110.9-111.2M313 295.8l-.1-.1-111.4-111.2a5.988 5.988 0 0 0-4.2-1.8 5.6 5.6 0 0 0-4.2 1.8l-111 111a6.1 6.1 0 0 0 0 8.5L255 476.9a20.041 20.041 0 0 0 28.1.1l.2-.2a19.294 19.294 0 0 0 5.4-10.1l3 3a24.143 24.143 0 0 0 34 0 24.106 24.106 0 0 0 7-15.2 28.131 28.131 0 0 0 34.8-3.9l.2-.2a27.849 27.849 0 0 0 7.9-19.6 27.56 27.56 0 0 0-7.7-19.3 26 26 0 0 0 16.5-44.3"/><path class="C" d="M312.92 187.682l34.8-34.8L462.047 267.23l-34.8 34.8z" stroke-width="6"/><circle class="E" cx="365.7" cy="385" r="15"/><circle class="E" cx="348.7" cy="431.7" r="15"/><circle class="E" cx="307.7" cy="451.5" r="13"/><circle class="E" cx="268.1" cy="461.4" r="10"/><circle class="F" cx="51.5" cy="224.2" r="15.5"/><path class="A" d="M335.942,156.9l85.584-85.583a247.685,247.685,0,0,1,81.36,161.354L457.3,278.258Z"/><path class="B" d="M421.628,75.457A244.69,244.69,0,0,1,499.765,231.55L457.3,274.015,340.185,156.9l81.443-81.443M421.4,67.2l-89.7,89.7L457.3,282.5,506,233.8A250.66,250.66,0,0,0,421.4,67.2Z"/><circle class="F" cx="460.5" cy="224.2" r="15.5"/><path class="G" d="M206.8 299.8a68.871 68.871 0 0 1-26.3-5.8l-3.4-1.6 74.4-91.9 61.1-14.3 1 2.3c.7 1.6-.1 2.7-1.1 3.9l-1.9 2.5c-1.7 2.1-4 5.2-7 9l-22.4 28.6c-22.8 28.9-38.4 47.8-46.4 56.1-7 7.4-16.5 11.2-28 11.2z"/></svg>