<svg fill="none" height="401" viewBox="0 0 602 401" width="602" xmlns="http://www.w3.org/2000/svg" xmlns:xlink="http://www.w3.org/1999/xlink"><clipPath id="a"><path d="m0 0h602v401h-602z"/></clipPath><g clip-path="url(#a)"><path d="m124 273.5c66.934-23 183.5-260.5 306.5-199.4998" stroke="#1969ff" stroke-dasharray="10 10" stroke-linecap="round" stroke-linejoin="round" stroke-width="5"/><path d="m135.566 319c109.934 31 254.434-149 353.434-88.5" stroke="#f0b90b" stroke-dasharray="10 10" stroke-linecap="round" stroke-linejoin="round" stroke-width="5"/><path d="m58.0659 242.5c0-91.5 116.5001-54.5 126.9991-129" stroke="#8347e5" stroke-dasharray="10 10" stroke-linecap="round" stroke-linejoin="round" stroke-width="5"/><path d="m159.205 28.2437c-1.024-.592-2.34-.592-3.509 0l-8.188 4.8839-5.556 3.1079-8.042 4.8839c-1.024.592-2.34.592-3.509 0l-6.288-3.8479c-1.023-.592-1.754-1.776-1.754-3.1079v-7.3999c0-1.184.585-2.3679 1.754-3.1079l6.288-3.6999c1.023-.592 2.339-.592 3.509 0l6.287 3.8479c1.023.592 1.755 1.7759 1.755 3.1079v4.8839l5.556-3.2559v-5.0319c0-1.184-.585-2.368-1.755-3.1079l-11.697-6.9559c-1.023-.592-2.339-.592-3.509 0l-11.99 7.1038c-1.169.592-1.754 1.776-1.754 2.96v13.9117c0 1.184.585 2.368 1.754 3.1079l11.844 6.9559c1.023.592 2.339.592 3.509 0l8.042-4.7359 5.556-3.2559 8.041-4.7359c1.024-.592 2.34-.592 3.51 0l6.287 3.6999c1.023.592 1.754 1.776 1.754 3.1079v7.3999c0 1.184-.584 2.3679-1.754 3.1079l-6.141 3.6999c-1.024.592-2.34.592-3.509 0l-6.288-3.6999c-1.023-.592-1.754-1.7759-1.754-3.1079v-4.7359l-5.556 3.2559v4.8839c0 1.184.585 2.368 1.754 3.1079l11.844 6.9559c1.023.592 2.339.592 3.509 0l11.843-6.9559c1.024-.5919 1.755-1.7759 1.755-3.1079v-14.0597c0-1.184-.585-2.368-1.755-3.1079z" fill="#8347e5"/><path d="m488.829 27.2791c1.012-1.192 2.966-1.9853 4.523-1.836l15.883 1.5229c.937.0899 1.606.5193 1.935 1.1097l.012-.0051 13.963 34.3964c.258.6845.103 1.5317-.56 2.3125l-10.327 12.1629c-1.012 1.192-2.966 1.9853-4.523 1.836l-15.883-1.5229c-1.015-.0973-1.692-.6122-1.986-1.2788-.029-.0657-.052-.121-.068-.1677l-13.806-34.0076c-.016-.0367-.032-.0739-.046-.1113l-.043-.1098.006-.0024c-.197-.6517-.03-1.4028.593-2.1358zm28.08 20.8185-9.716 11.4427c-1.012 1.192-2.966 1.9853-4.522 1.836l-14.91-1.4294 6.14 15.1244 14.896 1.3957c.843.0851 1.71.1501 2.433-.0906l.143-.0526c.735-.2958 1.299-.9541 1.88-1.5967l9.779-11.5457zm-27.478 27.9966c.535 1.3175 1.041 2.121 1.597 2.6065.46.4022.999.6333 1.889.8203l.051.0104c.194.04.407.0785.663.1205l.302.0485.925.1421-.359 2.1783-1.035-.1593-.175-.0281c-.301-.0495-.551-.0943-.788-.143-2.53-.5189-3.859-1.6638-5.096-4.6675l-.037-.0914zm8.113-30.8741c-.082.0712-.156.1449-.22.2206l-10.328 12.163c-.01.0128-.021.0252-.03.0373l-.009.0109.026.0032.036.0039 15.883 1.523c.099.0095.203.0106.312.0043zm2.064-.8376 5.669 13.9662c.083-.0711.157-.1449.221-.2206l10.327-12.163c.011-.0127.021-.0252.031-.0372l.008-.0109-.025-.0033-.036-.0039-15.883-1.523c-.099-.0095-.204-.0106-.312-.0043zm10.501-13.0344-9.264 10.9109 14.248 1.3663zm-29.147 11.8493 4.972 12.2485 9.242-10.8856zm12.158-15.56c-.826-.0792-2.059.4213-2.596 1.0539l-10.327 12.163c-.011.0127-.021.0251-.031.0372l-.008.0109.025.0033.037.0039 15.883 1.523c.826.0791 2.059-.4214 2.596-1.0539l10.327-12.163c.011-.0128.021-.0252.031-.0373l.008-.0109-.025-.0033-.037-.0038zm15.534-5.4318 1.035.1592.175.0281c.3.0492.551.0945.788.143 2.529.5187 3.859 1.664 5.095 4.6675l.038.0915-2.063.8373c-.535-1.3178-1.042-2.1211-1.597-2.6065-.46-.4023-1-.6335-1.889-.8203l-.051-.0105c-.195-.0399-.407-.0784-.664-.1208l-.302-.0483-.924-.1419z" fill="#1969ff"/><path d="m126 313.318c0-34.242-27.7583-62-62-62s-62 27.758-62 62 27.7583 62 62 62 62-27.758 62-62z" fill="#fbdd11" stroke="#333"/><path d="m118.25 313.318c0-29.962-24.2886-54.25-54.25-54.25s-54.25 24.288-54.25 54.25c0 29.961 24.2886 54.25 54.25 54.25s54.25-24.289 54.25-54.25z" fill="#333"/><path d="m80.1442 332.342c-23.201 2.921-33.8844-17.506-31.9895-19.499 1.2512-1.316 3.1966-1.395 4.8825-1.44 7.7573-.21 18.7372 8.846 20.9641 8.802 4.3129-.088 10.8013-6.943 15.0528-12.593 1.7794-2.364 12.8959-5.926 11.6629.284-3.9967 20.141-17.6163 24.074-20.5728 24.446zm-32.2884-38.114c23.201-2.921 33.8844 17.506 31.9886 19.499-1.2511 1.316-3.1957 1.395-4.8816 1.44-7.7573.21-18.7372-8.847-20.9641-8.802-4.3129.088-10.8013 6.943-15.0536 12.594-1.7786 2.363-12.8951 5.925-11.6624-.284 3.997-20.142 17.6166-24.075 20.5731-24.447z" fill="#fbdd11"/><path d="m272.553 42.126c-7.862-29.3406-38.021-46.75263-67.361-38.89083-29.341 7.86183-46.753 38.02033-38.891 67.36093 7.862 29.3407 38.02 46.7529 67.361 38.8909s46.753-38.0203 38.891-67.361z" fill="#fff" stroke="#333"/><path d="m265.912 43.9054c-6.879-25.6731-33.268-40.9086-58.941-34.02952-25.673 6.87912-40.908 33.26782-34.029 58.94082 6.879 25.6731 33.267 40.9083 58.94 34.0293 25.674-6.8788 40.909-33.2676 34.03-58.9406z" fill="#8347e5"/><path d="m237.628 68.9557c-19.209 7.8295-33.054-7.2207-31.888-9.3635.77-1.4147 2.419-1.9291 3.853-2.355 6.599-1.9611 18.087 3.2785 19.985 2.729 3.675-1.0658 7.661-8.429 10.007-14.2469.982-2.4338 9.689-8.0381 10.059-2.4338 1.199 18.1753-9.568 24.6725-12.016 25.6702zm-36.418-25.2453c19.21-7.8295 33.054 7.2207 31.887 9.3637-.77 1.4148-2.418 1.9289-3.852 2.3549-6.599 1.961-18.087-3.2792-19.984-2.7291-3.676 1.0659-7.662 8.4291-10.008 14.2471-.981 2.4337-9.689 8.0379-10.058 2.4344-1.2-18.176 9.567-24.6732 12.015-25.671z" fill="#fff"/><path clip-rule="evenodd" d="m581.767 210.127-15.918 4.265h.001l-2.482-9.262 25.179-6.746 6.749 25.186-9.262 2.482zm-24.939-3.245-9.262 2.483 2.482 9.26 9.262-2.482zm8.499 31.72-4.266-15.917-9.264 2.469.003.013 6.747 25.178 25.186-6.748.005-.001-2.487-9.261zm31.718-8.497-9.262 2.482 2.481 9.261 9.262-2.481zm-17.541-2.304-.002-.001.004.006-.005.001-9.398 2.519-2.515-9.391-.004-.013.013-.004 1.646-.441.798-.214 6.946-1.86z" fill="#f0b90b" fill-rule="evenodd"/><path d="m520.599 127.562c7.147-26.673-8.682-54.0902-35.355-61.2373-26.673-7.147-54.09 8.6821-61.237 35.3553-7.147 26.673 8.682 54.09 35.355 61.237s54.09-8.682 61.237-35.355z" fill="#fff" stroke="#333"/><path d="m514.562 125.945c6.254-23.34-7.596-47.3294-30.936-53.5831-23.339-6.2537-47.328 7.5968-53.582 30.9361-6.254 23.339 7.597 47.329 30.936 53.582 23.339 6.254 47.329-7.596 53.582-30.935z" fill="#1969ff"/><path d="m480.908 132.81c-18.682-2.568-22.741-20.709-20.849-21.866 1.249-.764 2.781-.42 4.104-.103 6.087 1.455 12.749 10.802 14.493 11.232 3.378.832 9.863-3.153 14.355-6.668 1.879-1.469 11.282-1.924 9.025 2.657-7.317 14.854-18.747 15.075-21.128 14.748zm-17.196-36.4291c18.682 2.5675 22.741 20.7091 20.848 21.8661-1.249.764-2.781.419-4.103.103-6.087-1.456-12.749-10.803-14.493-11.232-3.379-.832-9.864 3.153-14.355 6.667-1.879 1.47-11.282 1.924-9.026-2.655 7.318-14.8552 18.748-15.0763 21.129-14.7491z" fill="#fff"/><path d="m578.553 268.51c-7.862-29.341-38.021-46.753-67.361-38.891-29.341 7.862-46.753 38.02-38.891 67.361s38.02 46.753 67.361 38.891 46.753-38.021 38.891-67.361z" fill="#333" stroke="#333"/><path d="m570.252 270.734c-6.634-24.756-32.08-39.448-56.836-32.814-24.756 6.633-39.448 32.079-32.814 56.836 6.633 24.756 32.08 39.447 56.836 32.814 24.756-6.634 39.447-32.08 32.814-56.836z" fill="#f0b90b"/><path d="m543.628 295.34c-19.209 7.829-33.054-7.221-31.888-9.364.77-1.415 2.419-1.929 3.853-2.355 6.599-1.961 18.087 3.278 19.985 2.729 3.675-1.066 7.661-8.429 10.007-14.247.982-2.434 9.689-8.038 10.059-2.434 1.199 18.176-9.568 24.673-12.016 25.671zm-36.418-25.246c19.21-7.829 33.054 7.221 31.887 9.364-.77 1.415-2.418 1.929-3.852 2.355-6.599 1.961-18.087-3.279-19.984-2.729-3.676 1.066-7.662 8.429-10.008 14.247-.981 2.433-9.689 8.038-10.058 2.434-1.2-18.176 9.567-24.673 12.015-25.671z" fill="#333"/><rect fill="#000" fill-opacity=".1" height="3.9922" rx="1.9961" width="159.688" x="219.688" y="394.996"/><path d="m329.411 367.396c-5.415-.792-12.284-3.442-20.998-8.107-1.267-.677-1.778-2.331-1.094-3.609.678-1.267 2.331-1.778 3.61-1.094 8.048 4.306 14.526 6.84 19.253 7.531 3.086.451 5.307.106 6.601-1.028 1.452-1.272 1.321-3.52.942-7.722-.445-4.919-.999-11.043 2.11-18.081 4.692-10.637 16.386-20.75 28.702-18.848 7.823 1.211 15.318 7.06 17.038 14.996 1.465 6.758-.642 16.019-7.843 18.606-4.776 1.706-10.232-.252-13.956-3.422-1.114-.925-1.275-2.667-.326-3.78.939-1.103 2.682-1.242 3.784-.28.046.039 4.657 3.91 8.692 2.46 4.57-1.641 5.309-8.421 4.433-12.456-1.253-5.785-6.997-9.982-12.641-10.856-9.903-1.529-19.285 7.305-23.01 15.732-2.55 5.778-2.086 10.915-1.677 15.447.427 4.676.823 9.093-2.738 12.213-2.951 2.602-7.154 2.859-10.882 2.298z" fill="#fbdd11" stroke="#333" stroke-miterlimit="10" stroke-width=".535416"/><path d="m383.975 332.718c1.18 5.442.126 12.218-4.034 16.222 5.483-3.595 6.941-11.473 5.634-17.502-1.72-7.937-9.215-13.786-17.038-14.997-7.067-1.092-14.056 1.979-19.364 6.487 12.173-8.613 31.284-6.438 34.802 9.79z" fill="#000" fill-opacity=".25"/><path d="m376.612 344.721c-2.883 3.354-8.063 1.628-10.975-.878-.335-.286-.736-.484-1.166-.577-.431-.093-.878-.078-1.301.044.424-.779 1.241-1.305 2.125-1.376.705-.056 1.404.17 1.942.628 2.354 2.08 6.383 3.752 9.375 2.159z" fill="#000" fill-opacity=".25"/><path d="m307.906 354.901c.373-.32 1.653-.96 2.453-.586.745.347 1.636.787 2.638 1.282 5.272 2.605 13.597 6.718 19.602 6.718 5.334 0 5.814-2.667 5.067-9.707.091.407.205.856.327 1.334 1.026 4.027 2.569 10.079-5.394 10.079-8.693 0-22.27-7.528-24.693-9.12z" fill="#000" fill-opacity=".25"/><path d="m295.732 384.022c.534-9.288 2.923-16.472 5.032-22.059 2.109-5.588 4.524-15.435-4.54-17.709-12.96-3.252-20.086 27.106-20.618 36.367-.313 5.448 3.927 11.768 9.429 12.084 5.064.246 10.394-3.391 10.697-8.683z" fill="#fbdd11" stroke="#333" stroke-miterlimit="10" stroke-width=".535416"/><path d="m275.478 380.608c5.493-.746 15.787-.746 20.107 3.627.035-.329.153-1.274.177-1.604-4.497-3.943-14.737-4.209-20.056-3.463-.028.352-.199 1.081-.228 1.44z" fill="#000" fill-opacity=".15"/><path d="m277.185 371.061c5.094 4.724 11.613 7.374 18.986 8.373.062-.534.193-1.299.267-1.813-7.317-.947-13.675-4.011-18.773-8.64-.214.64-.387 1.628-.48 2.08z" fill="#000" fill-opacity=".15"/><path d="m304.399 384.022c-.533-9.288-2.922-16.472-5.031-22.059-2.109-5.588-4.524-15.435 4.54-17.709 12.96-3.252 20.086 27.106 20.618 36.367.313 5.448-3.927 11.768-9.429 12.084-5.064.246-10.394-3.391-10.698-8.683z" fill="#fbdd11" stroke="#333" stroke-miterlimit="10" stroke-width=".535416"/><path d="m324.655 380.608c-5.494-.746-15.787-.746-20.107 3.627-.035-.329-.154-1.274-.177-1.604 4.497-3.943 14.737-4.209 20.055-3.463.029.352.2 1.081.229 1.44z" fill="#000" fill-opacity=".15"/><path d="m322.948 371.061c-5.095 4.724-11.614 7.374-18.987 8.373-.062-.534-.193-1.299-.267-1.813 7.318-.947 13.675-4.011 18.774-8.64.213.64.386 1.628.48 2.08z" fill="#000" fill-opacity=".15"/><path d="m249.777 339.008c3.883.286 7.24-2.951 7.136-6.792-.079-6.8 3.017-13.916 8.57-20.587 5.053-6.072 10.221-9.222 6.75-13.642s-12.324-.488-16.997 5.112c-7.711 9.263-11.821 19.356-11.652 29.483.093 3.373 2.31 6.14 6.193 6.426z" fill="#fbdd11" stroke="#333" stroke-miterlimit="10" stroke-width=".535416"/><path d="m248.052 338.691c-5.771-11.893 7.351-36.379 21.958-42.278-4.173-1.443-10.906 2.05-14.774 6.686-7.711 9.263-11.821 19.356-11.652 29.483.078 2.836 1.658 5.244 4.468 6.109z" fill="#000" fill-opacity=".14"/><path d="m350.224 339.008c-3.882.286-7.24-2.951-7.136-6.792.079-6.8-3.016-13.916-8.57-20.587-5.053-6.072-10.221-9.222-6.75-13.642 3.472-4.42 12.325-.488 16.998 5.112 7.71 9.263 11.821 19.356 11.651 29.483-.093 3.373-2.31 6.14-6.193 6.426z" fill="#fbdd11" stroke="#333" stroke-miterlimit="10" stroke-width=".535416"/><path d="m351.95 338.691c5.771-11.893-7.352-36.379-21.959-42.278 4.173-1.443 10.906 2.05 14.775 6.686 7.71 9.263 11.821 19.356 11.651 29.483-.078 2.836-1.658 5.244-4.467 6.109z" fill="#000" fill-opacity=".14"/><path d="m420.939 211.823c11.851 10.88 7.074 32.991-.97 45.564-11.462 17.919-37.703 29.199-51.142 19.666-14.035-9.958-12.203-41.272 4.181-57.528 12.233-12.136 35.675-18.953 47.931-7.702z" fill="#f7c394" stroke="#333" stroke-miterlimit="10" stroke-width=".535416"/><path d="m407.104 224.631c7.04 7.274 3.211 20.98-2.309 28.574-7.867 10.822-24.765 16.927-32.847 10.439-8.442-6.777-6.122-26.37 4.773-35.966 8.134-7.164 23.108-10.569 30.383-3.047z" fill="#ffc9a1"/><path d="m419.969 257.385c-6.473 10.117-20.81 21.676-36.97 23.116 11.345-2.666 27.735-14.277 32.708-22.05 8.044-12.573 12.305-36.157.97-45.563-3.457-2.869-12.238-6.947-24.291-4.813 14.72-4.534 23.764-.654 28.557 3.746 11.847 10.879 7.07 32.991-.974 45.564z" fill="#000" fill-opacity=".1"/><path d="m179.194 211.822c-11.851 10.88-7.074 32.991.969 45.564 11.463 17.92 37.704 29.2 51.143 19.666 14.035-9.957 12.202-41.271-4.182-57.527-12.232-12.137-35.674-18.954-47.93-7.703z" fill="#f7c394" stroke="#333" stroke-miterlimit="10" stroke-width=".535416"/><path d="m193.028 224.631c-7.04 7.274-3.21 20.979 2.31 28.574 7.866 10.821 24.765 16.927 32.847 10.438 8.441-6.776 6.121-26.37-4.774-35.966-8.134-7.163-23.108-10.568-30.383-3.046z" fill="#ffc9a1"/><path d="m180.163 257.384c6.473 10.117 20.81 21.677 36.97 23.117-11.345-2.667-27.735-14.278-32.708-22.05-8.043-12.573-12.305-36.157-.969-45.564 3.457-2.869 12.237-6.946 24.291-4.813-14.72-4.533-23.764-.654-28.558 3.746-11.846 10.879-7.07 32.991.974 45.564z" fill="#000" fill-opacity=".1"/><path d="m300.066 288.181c16.426 0 23.466 14.4 27.733 26.24s6.187 23.467 6.187 31.147c0 16.213-14.793 32.582-33.92 32.746-18.724.161-33.92-16.533-33.92-32.746 0-7.68 1.888-19.361 6.186-31.147 4.267-11.84 11.307-26.24 27.734-26.24z" fill="#fbdd11" stroke="#333" stroke-miterlimit="10" stroke-width=".535416"/><path d="m300.066 378.314c-18.739.17-35.2-16.746-33.92-35.946 1.066 15.786 15.482 30.771 33.92 30.613 18.437-.158 32.853-14.827 33.919-30.613 1.28 19.2-15.181 35.776-33.919 35.946z" fill="#000" fill-opacity=".15"/><path d="m300.066 301.408c11.093 0 17.066 7.253 18.56 13.653 3.679 15.768 6.826 29.227.426 37.333-6.4 8.107-14.394 8.747-18.986 8.747-5.072 0-12.587-.64-18.987-8.747-6.4-8.106-3.46-20.675.427-37.333 1.493-6.4 7.467-13.653 18.56-13.653z" fill="#f7c394" stroke="#333" stroke-miterlimit="10" stroke-width=".535416"/><path d="m300.065 361.141c-14.507 0-23.893-10.027-22.72-23.04.427 12.267 10.24 20.267 22.72 20.267s22.293-8 22.72-20.267c1.173 13.013-8.213 23.04-22.72 23.04z" fill="#000" fill-opacity=".1"/><path d="m342.2 316.981c-12.304 4.823-28.907 8.427-42.133 8.427-13.227 0-27.663-2.82-42.134-8.427-.772 1.124-1.772 2.802-2.453 3.947 15.147 6.08 29.333 9.173 44.587 9.173 15.253 0 29.44-3.093 44.586-9.173-.656-1.142-1.699-2.812-2.453-3.947z" fill="#000" fill-opacity=".15"/><path d="m353.434 105.888c4.515-3.824-13.26-8.1066-15.628-14.8789-2.859-8.1611 42.196 13.5569 35.367 27.8489-.533 1.121-5.912 10.026-44.545-2.536 42.47 13.779 74.63 43 74.479 97.086-.116 41.466-37.341 105.686-103.086 106.259-63.426.554-103.108-63.597-102.994-106.259.141-52.1 46.094-105.7 103.04-109.707 34.07-2.394 49.631 5.344 53.367 2.187z" fill="#fbdd11" stroke="#333" stroke-linecap="round" stroke-linejoin="round" stroke-width=".535416"/><path d="m360.35 108.271c-3.163 6.95-22.593-4.267-56.663-1.871-69.703 4.9-120.207 82.261-92.222 144.968 7.269-7.507 16.122-9.641 18.943-10.577.847.914 1.878 1.885 2.246 2.323-8.679 2.704-18.766 8.577-23.108 16.73-8.135-15.744-12.48-32.273-12.436-46.435.141-52.102 46.104-105.707 103.05-109.714 34.07-2.395 49.553 5.344 53.289 2.182 4.499-3.813-13.276-8.096-15.642-14.8682-.915-2.6091 3.074-2.1621 8.698.1205-2.133-.3072-3.306.1952-2.725 1.6928 2.067 5.3749 19.232 9.6019 16.57 15.4489z" fill="#000" fill-opacity=".15"/><path d="m402.947 213.415c-.039 13.626-4.066 29.708-11.791 45.181-7.996-10.949-22.318-15.322-23.783-15.322.427-.533 1.707-2.101 2.134-2.613 2.506.586 13.719 2.977 19.976 11.328 6.326-14.096 9.229-27.217 9.263-39.559.157-55.918-37.719-83.716-70.118-96.108 42.47 13.779 74.47 43.006 74.319 97.093z" fill="#000" fill-opacity=".15"/><path d="m270.733 144.768c-31.68 0-70.933 67.04-38.773 97.973-61.387 19.2 0 83.093 68.107 83.093 68.106 0 129.493-63.893 68.106-83.093 32.16-30.933-7.093-97.973-38.773-97.973-13.494 0-20.854 6.24-29.333 12.427-8.48-6.187-15.84-12.427-29.334-12.427z" fill="#ffcd98" stroke="#333" stroke-width=".535416"/><path d="m379.971 210.208c-1.675-32.911-28.267-65.407-51.36-65.407-14.357 0-23.061 8.762-28.544 12.394-4.384-2.992-14.133-12.394-28.629-12.394-27.264 0-50.998 39.807-51.427 66.422-2.397-28.642 19.583-71.628 51.576-71.628 16.64 0 25.493 8 28.48 11.306 2.987-3.306 11.84-11.306 28.48-11.306 31.747 0 53.707 40.693 51.424 70.613z" fill="#000" fill-opacity=".15"/><path d="m220.107 209.182c-.759 12.528 2.562 24.535 11.888 33.505-1.112.348-2.184.818-3.216 1.194 2.381-.767 4.657-1.31 7.288-1.78-9.018-8.674-14.236-20.455-15.96-32.919z" fill="#000" fill-opacity=".1"/><path d="m209.251 258.172c-14.499 26.162 35.661 67.609 90.816 67.609s105.938-41.904 90.64-68.039c10.172 23.905-38.297 64.039-90.64 64.039-52.031 0-100.233-39.656-90.816-63.609z" fill="#000" fill-opacity=".1"/><path d="m371.587 243.914c-2.322-.684-4.757-1.319-7.52-1.813 9.101-8.754 14.332-20.673 16.007-33.265.841 12.653-2.454 24.798-11.866 33.851 1.207.378 2.265.816 3.379 1.227z" fill="#000" fill-opacity=".1"/><path d="m274.43 166.054c16.522 1.92 28.425 22.267 26.667 40.189-1.747 17.85-17.354 36.48-35.187 34.453-16.192-1.845-26.695-19.863-27.04-35.003-.46-20.284 17.156-41.778 35.56-39.639z" fill="#fff"/><path d="m282.562 168.608c-21.802-5.962-39.945 19.867-39.5 39.255.263 11.44 6.332 24.511 16.288 31.109-12.416-5.203-20.181-20.302-20.48-33.28-.462-20.278 17.154-41.77 35.558-39.632 2.845.34 5.603 1.204 8.134 2.548z" fill="#000" fill-opacity=".05"/><path d="m294.49 215.352c2.358-12.155-4.213-23.655-14.677-25.685s-20.858 6.178-23.217 18.333c-2.358 12.155 4.213 23.655 14.677 25.685s20.859-6.178 23.217-18.333z" fill="#616161" stroke="#333" stroke-miterlimit="10" stroke-width=".535416"/><path d="m276.727 230.961c6.241 0 11.3-5.657 11.3-12.635 0-6.979-5.059-12.636-11.3-12.636s-11.3 5.657-11.3 12.636c0 6.978 5.059 12.635 11.3 12.635z" fill="#000"/><path d="m286.721 209.494c.795-2.245-.471-4.741-2.827-5.575-2.355-.833-4.909.311-5.704 2.556s.471 4.741 2.827 5.575 4.91-.31 5.704-2.556z" fill="#fff" stroke="#333" stroke-miterlimit="10" stroke-width=".535416"/><path d="m285.519 191.92c-12.038-3.42-22.693 6.965-24.87 18.181-1.786 9.21 1.501 18.05 7.718 22.757-8.734-3.413-13.892-13.859-11.76-24.842 2.359-12.16 12.755-20.361 23.219-18.33 2.018.391 3.947 1.149 5.693 2.234z" fill="#000" fill-opacity=".15"/><path d="m325.026 165.612c-16.484 2.206-28.031 22.758-25.963 40.648 2.059 17.814 17.988 36.171 35.784 33.827 16.157-2.127 26.346-20.325 26.424-35.468.105-20.284-17.883-41.465-36.245-39.007z" fill="#fff"/><path d="m361.268 204.619c-.07 13.148-7.76 28.6-20.36 33.835 10.164-6.572 16.222-20.062 16.283-31.738.103-19.582-19.316-45.999-41.167-37.886 2.773-1.664 5.79-2.788 8.999-3.218 18.365-2.458 36.353 18.723 36.245 39.007z" fill="#000" fill-opacity=".05"/><path d="m329.265 233.216c10.427-2.212 16.796-13.825 14.226-25.937s-13.106-20.137-23.533-17.924c-10.427 2.212-16.797 13.825-14.227 25.937s13.107 20.137 23.534 17.924z" fill="#616161" stroke="#333" stroke-miterlimit="10" stroke-width=".535416"/><path d="m323.729 230.549c6.24-.109 11.2-5.853 11.078-12.831-.121-6.977-5.279-12.545-11.519-12.436s-11.199 5.853-11.078 12.831c.122 6.977 5.279 12.545 11.519 12.436z" fill="#000"/><path d="m330.823 212.063c2.341-.875 3.563-3.393 2.729-5.624-.833-2.231-3.407-3.331-5.748-2.456s-3.562 3.393-2.729 5.624c.834 2.231 3.407 3.33 5.748 2.456z" fill="#fff" stroke="#333" stroke-miterlimit="10" stroke-width=".535416"/><path d="m331.543 232.544c6.492-4.656 9.877-13.768 7.879-23.179-2.389-11.258-13.491-21.484-25.465-17.461 1.816-1.241 3.858-2.115 6.009-2.572 10.428-2.213 20.964 5.811 23.536 17.92 2.379 11.211-2.897 21.991-11.959 25.292z" fill="#000" fill-opacity=".15"/><path d="m290.467 395.701c3.414 0 6.73-2.517 7.114-5.988.973-8.77-10.063-9.566-16.07-9.698-6.091-.134-16.43 1.019-18.243 7.708-1.583 5.845 3.893 7.978 7.786 7.978s5.227-1.296 9.918-1.296c4.097 0 6.082 1.296 9.495 1.296z" fill="#f7c394" stroke="#333" stroke-miterlimit="10" stroke-width=".535416"/><path d="m290.36 393.354c-3.414 0-5.398-1.296-9.495-1.296-4.692 0-6.025 1.296-9.919 1.296-3.028 0-7.013-1.29-7.89-4.614-.717 5.077 4.338 6.961 7.997 6.961 3.893 0 5.227-1.296 9.918-1.296 4.097 0 6.082 1.296 9.495 1.296 4.572 0 7.787-3.643 7.03-8.561-.316 3.569-3.63 6.214-7.136 6.214z" fill="#000" fill-opacity=".1"/><path d="m309.667 395.701c-3.413 0-6.73-2.517-7.114-5.988-.972-8.77 10.063-9.566 16.07-9.698 6.091-.134 16.43 1.019 18.243 7.708 1.583 5.845-3.893 7.978-7.786 7.978s-5.227-1.296-9.918-1.296c-4.097 0-6.082 1.296-9.495 1.296z" fill="#f7c394" stroke="#333" stroke-miterlimit="10" stroke-width=".535416"/><path d="m309.772 393.354c3.414 0 5.398-1.296 9.496-1.296 4.691 0 6.024 1.296 9.918 1.296 3.028 0 7.013-1.29 7.89-4.614.717 5.077-4.338 6.961-7.997 6.961-3.893 0-5.227-1.296-9.918-1.296-4.097 0-6.082 1.296-9.495 1.296-4.572 0-7.787-3.643-7.03-8.561.316 3.569 3.63 6.214 7.136 6.214z" fill="#000" fill-opacity=".1"/><path d="m300.11 311.915c29.333 0 61.013-12 70.746-40.474 1.627-4.512-2.356-9.064-7.194-8.376-21.07 2.993-42.324 4.496-63.606 4.496-21.281-.001-42.536-1.503-63.606-4.496-4.834-.688-8.763 3.841-7.196 8.376 9.842 28.474 41.522 40.474 70.856 40.474z" fill="#3d0c0c"/><path d="m361.742 284.345c3.492-4.281 5.972-8.825 7.226-13.421.949-3.485-1.567-6.405-5.018-5.915-42.278 5.919-85.487 5.994-127.764.001-3.456-.486-5.971 2.429-5.022 5.914 1.252 4.597 3.73 9.14 7.226 13.421 40.862 5.597 82.491 5.647 123.352 0z" fill="#fff"/><path d="m300.11 309.941c21.179.036 44.182-7.01 59.086-22.713-39.196 5.156-79.066 5.151-118.262.003 15.016 15.823 37.826 22.674 59.176 22.71z" fill="#fff"/><g fill="#000"><path d="m368.967 270.925c-1.253 4.595-3.733 9.139-7.225 13.421-3.157.436-6.319.834-9.485 1.197 4.539-6.375 7.716-13.245 9.813-20.273l1.871-.26c3.459-.491 5.976 2.429 5.026 5.915z" fill-opacity=".1"/><path d="m238.386 284.346c3.181.431 6.366.833 9.554 1.206-4.555-6.369-7.735-13.243-9.825-20.272-.644-.089-1.288-.179-1.933-.27-3.456-.485-5.971 2.429-5.021 5.915 1.252 4.596 3.73 9.139 7.225 13.421z" fill-opacity=".1"/><path d="m240.931 287.227c8.357 8.806 19.454 15.118 30.966 18.533-9.22-4.84-16.446-10.859-22.039-17.452-2.979-.324-5.955-.691-8.927-1.081z" fill-opacity=".1"/><path d="m328.478 305.675c11.436-3.439 22.396-9.68 30.718-18.447-2.945.387-5.893.751-8.845 1.074-5.577 6.553-12.755 12.531-21.873 17.373z" fill-opacity=".1"/><path d="m277.134 240.288c0 8.144 10.544 18.027 23.067 17.92 11.544-.101 22.8-9.872 22.8-17.896 0-16.227-45.867-16.472-45.867-.024z" fill-opacity=".1"/></g><path d="m276.814 238.368c0 8.144 10.691 18.027 23.389 17.92 11.705-.101 23.118-9.872 23.118-17.896 0-6.457-13.466-12.136-23.118-12.054-8.962.083-23.389 4.391-23.389 12.03z" fill="#7a5d43"/><path d="m276.982 236.957c4.454 5.84 13.299 10.767 23.237 10.69 9.196-.073 18.231-5.026 22.837-10.832.173.518.264 1.045.264 1.576 0 8.025-11.413 17.796-23.117 17.897-12.698.107-23.39-9.776-23.39-17.92 0-.484.058-.954.169-1.411z" fill="#000" fill-opacity=".2"/><rect fill="#f8f4ff" height="45.4399" rx="1.71333" stroke="#333" stroke-width=".535416" width="10.4533" x="243" y="351.32"/><path clip-rule="evenodd" d="m243.125 395.693c.255.626.869 1.067 1.587 1.067h7.027c.946 0 1.713-.767 1.713-1.714v-42.013c0-.946-.767-1.713-1.713-1.713h-2.679c.081.199.126.418.126.646v42.013c0 .947-.767 1.714-1.713 1.714z" fill="#000" fill-opacity=".12" fill-rule="evenodd"/><rect fill="#f8f4ff" height="45.4399" rx="1.71333" stroke="#333" stroke-width=".535416" width="10.4533" x="346.572" y="351.32"/><path clip-rule="evenodd" d="m346.7 395.694c.255.625.869 1.066 1.587 1.066h7.026c.947 0 1.714-.767 1.714-1.713v-42.013c0-.947-.767-1.714-1.714-1.714h-2.68c.081.2.126.418.126.647v42.013c0 .947-.767 1.714-1.713 1.714z" fill="#000" fill-opacity=".12" fill-rule="evenodd"/><rect fill="#f8f4ff" height="15.1466" rx="2.24875" stroke="#333" stroke-width=".535416" width="213.333" x="193.4" y="338.2"/><path clip-rule="evenodd" d="m193.401 345.765v5.333c0 1.242 1.007 2.249 2.249 2.249h208.835c1.242 0 2.249-1.007 2.249-2.249v-5.333c0 1.242-1.007 2.248-2.249 2.248h-208.835c-1.242 0-2.249-1.006-2.249-2.248z" fill="#000" fill-opacity=".12" fill-rule="evenodd"/><path d="m246.979 276.682c-.133-1.86 1.34-3.442 3.204-3.442h99.767c1.864 0 3.337 1.582 3.204 3.442l-4.021 56.291h-98.133z" fill="#e6e6e6" stroke="#333" stroke-width=".535416"/><path d="m250.999 332.974h98.133l-.454 4.457c-.045.437-.413.769-.853.769h-95.519c-.439 0-.807-.332-.852-.769z" fill="#b3b3b3" stroke="#333" stroke-width=".535416"/><path clip-rule="evenodd" d="m305.735 312.057c-8.147 1.029-11.898-6.164-11.233-6.866.439-.463 1.122-.491 1.714-.507 2.724-.074 6.58 3.115 7.362 3.1 1.514-.031 3.793-2.445 5.286-4.435.625-.832 4.528-2.086 4.095.101-1.403 7.091-6.186 8.476-7.224 8.607zm-11.338-13.42c8.147-1.029 11.898 6.164 11.233 6.866-.44.463-1.122.491-1.714.507-2.724.074-6.58-3.116-7.362-3.1-1.514.031-3.793 2.445-5.286 4.435-.625.832-4.528 2.086-4.095-.1 1.403-7.092 6.186-8.477 7.224-8.608z" fill="#a4a4a4" fill-rule="evenodd"/><path d="m250.877 273.24 98.105 59.321c-.196.252-.501.412-.842.412h-96.147c-.56 0-1.024-.432-1.064-.99l-3.951-55.315c-.133-1.852 1.335-3.428 3.192-3.428z" fill="#000" fill-opacity=".1"/></g></svg>