<svg xmlns="http://www.w3.org/2000/svg" xmlns:xlink="http://www.w3.org/1999/xlink" width="3289" height="3985"><style><![CDATA[.M{stroke:#333}.N{fill:#000}.O{stroke-width:5}.P{opacity:.1}.Q{fill:#fff}.R{opacity:.05}.S{opacity:.08}.T{fill:#D84C6A}.U{fill:#F7C394}.V{opacity:.2}.W{stroke:#000}.X{stroke-linejoin:round}.Y{fill-rule:nonzero}]]></style><defs><radialGradient cx="50%" cy="50%" fx="50%" fy="50%" r="60.6060606%" gradientTransform="translate(0.500000,0.500000),scale(1.000000,0.825000),rotate(90.000000),scale(1.000000,0.824425),translate(-0.500000,-0.500000)" id="A"><stop stop-color="#fff" stop-opacity=".01" offset="0%"/><stop stop-color="#fff" stop-opacity="0" offset="100%"/></radialGradient><path id="B" d="M0 0h3300v4000H0z"/><path id="C" d="M1433.39 2081.096c0 75.28 98.57 166.65 215.68 165.63 107.93-.94 213.18-91.24 213.18-165.4 0-59.68-124.17-112.16-213.18-111.4-82.63.72-215.68 40.57-215.68 111.17z"/><path id="D" d="M1862.25 2101.316c0 74.17-105.25 164.47-213.18 165.4-117.1 1-215.68-90.35-215.68-165.63a54.14 54.14 0 0 1 .71-8.78c9 72.83 103.62 155.38 215 154.4 102.38-.9 202.34-82.18 212.35-153.85.54 2.78.807 5.607.8 8.44z"/><path id="E" d="M2293.67 2128.096c-12.95-5.65-34.48-16.28-34.45-19.77.16-18.9 121.63-90.8 139.95-254.23-2.45 199.63-111.6 244.95-111.4 268.37.02 1.98 2.12 3.8 5.9 5.63z"/><path id="F" d="M1862.25 2081.316c0 74.17-105.25 164.47-213.18 165.4-117.1 1-215.68-90.35-215.68-165.63-.001-3.12.263-6.235.8-9.3 42.18 52.17 123.35 95.66 214.4 94.95 85.1-.67 168.7-45.3 211.9-97.87a45.32 45.32 0 0 1 1.78 12.45z"/></defs><g transform="translate(-5 -9)" fill="none"><mask id="G" class="Q"><use xlink:href="#B"/></mask><use xlink:href="#B" fill="url(#A)"/><g mask="url(#G)"><path d="M-350.66-.284h4000v4000h-4000z"/><g class="M O"><path d="M1954 3292.636a204.8 204.8 0 0 1-29.56-2.28c-50.77-7.42-115.16-32.27-196.86-76-12.175-6.514-16.764-21.665-10.25-33.84s21.665-16.764 33.84-10.25c75.45 40.37 136.18 64.12 180.5 70.6 28.93 4.23 49.75 1 61.88-9.64 13.6-11.92 12.4-33 8.83-72.4-4.17-46.12-9.36-103.53 19.78-169.5 22.06-50 60.82-97.58 106.32-130.66 24.68-17.94 50.48-31.1 76.7-39.12 29.15-8.92 58.1-11.24 86.08-6.92 34.55 5.35 69.2 20.88 97.6 43.73 32.6 26.24 54.08 59.73 62.13 96.86 6.6 30.4 4.83 66.52-4.7 96.6-12.26 38.65-36.7 66.3-68.82 77.83a102.96 102.96 0 0 1-35 6c-49.4 0-90.4-33.45-95.84-38.08a25 25 0 0 1 7.696-42.819c8.497-2.983 17.94-1.165 24.724 4.76.43.36 43.66 36.65 81.5 23.06 21.92-7.87 32.8-29.3 38.06-45.9 6.9-21.8 8.25-49 3.5-70.9-7.07-32.63-28.16-55.26-44.6-68.5-21.34-17.18-48.27-29.3-73.9-33.27-28.1-4.34-72.73-1.44-125.72 37.07-38.58 28.05-71.38 68.3-90 110.42-23.9 54.16-19.56 102.32-15.72 144.8 4 43.84 7.7 85.25-25.67 114.5-18.03 15.9-42.34 23.82-72.46 23.82zm-724.62-138.46c-34.427 0-62.37-27.844-62.5-62.27-.35-95.35 34-193.1 99.3-282.65 56-76.83 132.08-142.1 208.64-179.1 31.085-15.02 68.46-1.996 83.48 29.1s1.995 68.46-29.1 83.48c-58.66 28.35-117.72 79.46-162 140.22-34.53 47.35-75.62 122-75.3 208.54a62.5 62.5 0 0 1-62.27 62.73l-.27-.03z" class="T"/><path d="M1250.34 3259.886a72.38 72.38 0 0 1-25.27-4.57c-21.18-7.88-38.24-24.2-50.7-48.5a150.31 150.31 0 0 1-15.12-48.05 115.39 115.39 0 0 1 2.11-43.78c5.57-22 17.94-40.42 35.76-53.2 25.532-18.27 59.92-18.028 85.195.595s35.7 51.397 25.805 81.195a72.53 72.53 0 0 1-57.78 116.29z" class="U"/><path d="M1513.84 3525.956c-1.28 0-2.56 0-3.86-.08-52.422-2.096-93.22-46.288-91.13-98.7 4.64-116.2 33.54-197 54.63-256 6.3-17.6 11.74-32.82 15.66-46.38 9.263-32.793 35.38-58.112 68.443-66.355a95 95 0 0 1 114.087 119.095c-5.55 19.23-12.22 37.88-19.28 57.62-18.85 52.7-40.2 112.44-43.7 199.6-2.028 50.93-43.89 91.185-94.86 91.22z" class="T"/><path d="M1559.34 3556.326c-7.226-.003-14.404-1.168-21.26-3.45-27.72-9.2-93.83-15.48-147.7.23-35.79 10.432-73.263-10.124-83.695-45.915s10.124-73.263 45.915-83.695c46.2-13.47 92.28-15.5 122.8-14.82 39.22.86 76.58 6.57 105.2 16.06 31.447 10.426 50.68 42.13 45.402 74.837s-33.512 56.75-66.642 56.753z" class="U"/><path d="M1784.71 3527.786c-50.322-.045-91.88-39.32-94.76-89.56-5-87.08-27.4-146.43-47.17-198.8-7.4-19.6-14.4-38.14-20.28-57.27-15.44-50.145 12.695-103.31 62.84-118.75s103.31 12.695 118.75 62.84c4.15 13.5 9.85 28.6 16.46 46.1 22.12 58.62 52.42 138.9 59.1 255a95 95 0 0 1-23.929 68.66c-16.766 18.81-40.317 30.186-65.47 31.63-1.85.1-3.7.16-5.53.16z" class="T"/><path d="M1739.34 3556.326c-33.156.032-61.428-24.017-66.712-56.75s13.98-64.457 45.462-74.86c28.62-9.5 66-15.2 105.2-16.06 30.5-.67 76.6 1.35 122.8 14.82 35.796 10.42 56.366 47.888 45.945 83.685s-47.89 56.366-83.685 45.945c-53.88-15.7-120-9.43-147.7-.23-6.866 2.285-14.054 3.45-21.3 3.45z" class="U"/><path d="M2060.76 3137.096a62.52 62.52 0 0 1-46.413-20.57c-11.866-13.112-17.624-30.636-15.847-48.23 5.42-53.52-18.62-122.2-65.95-188.4-44.74-62.6-107-117.4-162.44-143-20.51-9.216-34.487-28.738-36.605-51.123a62.5 62.5 0 0 1 89.025-62.347c37.53 17.33 76.84 43.5 113.66 75.63 36.7 32.183 69.608 68.47 98.05 108.15 65.7 91.92 97.2 189.1 88.63 273.68-3.235 31.885-30.06 56.158-62.1 56.2z" class="T"/><path d="M2046.14 3259.606c-27.297-.004-52.28-15.333-64.648-39.666a72.53 72.53 0 0 1 6.058-75.604c-10.432-29.635-.6-62.617 24.377-81.688s59.375-19.892 85.223-2.032c18 12.46 30.73 30.63 36.68 52.55a115.45 115.45 0 0 1 2.88 43.75c-4.06 35.05-23.3 81.66-64.13 97.67a72.47 72.47 0 0 1-26.44 5.02z" class="U"/><path d="M1674.89 2468.436c55.3 3.4 93.4 43.63 127.17 80.3 39.32 42.72 80.12 104.46 119 245.3 39.4 142.77 45.88 220.06 45.88 292 0 153.62-140.68 305.1-320 306.63-175.53 1.5-319-153-319-306.63 0-72.8 12.64-145.3 62.27-292.3 48.16-142.67 92.57-200.23 125.82-235.1 37.52-39.33 90.03-94.43 158.86-90.2z" class="T"/><path d="M1646.63 2512.486c41-.36 82.22 51.85 113.58 106.22 48.06 83.32 65.36 157.62 70.56 181.37 32.46 148.28 54.24 271.27-6 346.6-59.9 74.9-132.36 85.58-175.4 85.58-47.55 0-118.32-8.27-177.4-81.9-58.83-73.3-34.76-194.73 3.5-350.46 3.93-16 38.3-103.8 95.44-210.33 18.2-34 42.82-76.8 75.73-77.1zm-1133.5-676c-109.3 103.92-60.9 310.4 16.55 426.94 110.37 166.07 358.2 267.53 482.6 176 129.94-95.63 107.64-388.85-48.6-538.55-116.65-111.8-337.5-171.86-450.54-64.4z" class="U"/></g><path d="M644.91 1954.316c-64.75 69.33-26.65 197.17 26.33 267.46 75.5 100.15 234.9 154.6 309.6 92.47 78-64.9 53.06-248.18-50.63-336.34-77.4-65.83-218.33-95.3-285.3-23.6z" fill="#FFC9A1"/><path d="M2782.53 1831.836c111.1 102 66.32 309.3-9.1 427.16-107.46 168-353.47 273.75-479.46 184.37-131.58-93.35-114.4-386.92 39.2-539.32 114.68-113.78 334.45-177.7 449.35-72.2z" class="M O U"/><path d="M2652.83 1951.936c66 68.2 30.1 196.68-21.65 267.88-73.75 101.45-232.17 158.7-307.94 97.86-79.14-63.53-57.4-247.22 44.75-337.18 76.26-67.16 216.64-99.08 284.84-28.56z" fill="#FFC9A1"/><g class="M O"><path d="M2149.66 838.716c42.32-35.85-124.32-76-146.52-139.5-26.8-76.5 395.6 127.1 331.57 261.08-5 10.5-55.43 94-417.6-23.77 398.16 129.18 698.16 403.18 696.74 910.24-1.1 388.75-348.57 990.75-964.93 996.12-594.62 5.2-966-596.16-964.93-996.12 1.32-488.44 432.22-991 966.1-1028.56 319.4-22.45 464.56 50.1 499.6 20.5z" class="T X"/><path d="M1648.91 1320.266c19.15-.16 112.4-116.75 268-116.74 223.53 0 482 324.76 482.28 643.25.16 205.85-111.65 252-111.45 275.7.2 21.13 236.88 22.58 236.88 254.7 0 209.25-420.37 512-840.86 524.16-461.3 13.34-910.3-319.74-910.3-497.74 0-232.44 237-260.58 236.85-281.27s-111.76-76.15-111.93-275.55c-.26-318.5 259.27-643.25 482.47-643.25 172.43-.01 245.34 116.94 268.07 116.74z" fill="#FFCD98"/></g><g fill="#3D0C0C"><path d="M2247.8 2330.486c32.4-4.6 56 22.77 47.08 55.45-11.75 43.1-35 85.68-67.74 125.82-7.454 9.153-15.4 18.153-23.87 27-115.5 121.7-320.37 213.48-554.36 213.08-234 .4-438.88-91.4-554.37-213.08-8.447-8.86-16.403-17.86-23.87-27-32.77-40.14-56-82.73-67.74-125.83-8.9-32.67 14.68-60 47.08-55.44 397.27 56.43 800.52 56.43 1197.8 0z"/><path d="M1650.34 2770.286h-3c-112.73 0-225.78-21.46-327-62.1-95.65-38.4-178.38-92.6-239.24-156.73-8.78-9.2-17.13-18.66-24.8-28.07-34.94-42.8-58.9-87.4-71.24-132.62-6-21.92-1.43-43.5 12.46-59.24 13.5-15.3 33.55-22.34 55-19.3a4240.36 4240.36 0 0 0 596.31 42.15 4238.45 4238.45 0 0 0 596.3-42.15c21.45-3.05 41.5 4 55 19.3 13.88 15.73 18.42 37.32 12.45 59.24-12.32 45.2-36.3 89.82-71.25 132.63-7.7 9.47-16.06 18.92-24.8 28.1-60.83 64.1-143.56 118.3-239.2 156.7-101.1 40.63-214.15 62.1-326.98 62.1zm-1.5-36.85c108.65.2 217.5-20.37 314.78-59.43 90.77-36.45 169-87.6 226.25-147.9 8.1-8.5 15.82-17.24 22.95-26 31.68-38.8 53.3-78.85 64.25-119 2.65-9.73 1-18.9-4.53-25.17-5.23-5.92-13.1-8.47-22.18-7.18a4275.86 4275.86 0 0 1-1203 0c-9.08-1.3-17 1.26-22.18 7.18-5.53 6.27-7.18 15.44-4.53 25.17 11 40.2 32.57 80.24 64.24 119 7.07 8.68 14.78 17.4 22.93 26 57.27 60.34 135.5 111.5 226.27 147.93 96.85 38.9 205.16 59.44 313.3 59.44l1.46-.03z" class="Y"/></g><path d="M2294.88 2385.926c-11.75 43.1-35 85.7-67.74 125.83l-72.45 9.3-13.33 1.58a4258.44 4258.44 0 0 1-968 1.93l-17.87-2.06-84.78-10.74c-32.77-40.14-56-82.73-67.74-125.83-8.9-32.67 14.68-60 47.08-55.44l15.65 2.2 14.74 2c382.766 51.56 770.766 50.8 1153.33-2.23l10.13-1.4 3.94-.56c32.35-4.6 55.94 22.78 47.04 55.45zm-91.6 152.85c-48.1 50.68-111.7 96.17-186.44 132a795.14 795.14 0 0 1-90.22 36.51c-84.24 28.3-178.35 44.76-277.7 44.6a874.34 874.34 0 0 1-243.1-33.8 814.32 814.32 0 0 1-94.37-33.52c-88-37.57-162.38-88.32-216.88-145.75l81.2 9.87 15.55 1.7a4257.93 4257.93 0 0 0 932.16-1.87l11-1.25 68.8-8.48zm-795.65-1136c154.9 18 266.48 208.75 250 376.77-16.38 167.34-162.7 342-329.88 323-151.8-17.3-250.26-186.22-253.5-328.16-4.3-190.16 160.84-391.67 333.38-371.6z" class="Q"/><path d="M1378.036 1996.81c-98.035-19.02-159.7-126.918-137.595-240.796s119.624-190.9 217.66-171.87 159.7 126.917 137.596 240.795-119.625 190.9-217.66 171.87z" fill="#5BA652" class="M O"/><ellipse cx="1429.171" cy="1822.816" rx="105.94" ry="118.46" class="N"/><g class="Q"><path d="M1469.384 1763.982c-22.07-7.81-33.945-31.23-26.5-52.266s31.408-31.772 53.478-23.96 33.945 31.232 26.5 52.267-31.408 31.772-53.48 23.96z" class="M O"/><path d="M1883.34 1398.626c-154.54 20.68-262.8 213.36-243.4 381.08 19.3 167 168.63 339.1 335.47 317.13 151.47-19.94 247-190.55 247.73-332.52.98-190.16-167.66-388.73-339.8-365.7z"/></g><path d="M1702.453 1824.36c-24.078-113.475 35.684-222.43 133.372-243.16s196.548 54.57 220.626 168.045-35.683 222.43-133.372 243.16-196.547-54.57-220.626-168.045z" fill="#5BA652" class="M O"/><path d="M1763.19 1820.827c-1.14-65.37 45.396-119.27 103.857-120.29s106.85 51.224 107.99 116.593-45.395 119.27-103.856 120.29-106.85-51.223-107.992-116.593z" class="N"/><path d="M1883.792 1741.082c-7.81-20.903 3.653-44.526 25.584-52.72s46.078 2.12 53.89 23.023-3.653 44.526-25.584 52.72-46.078-2.12-53.89-23.023z" class="M O Q"/><use xlink:href="#C" fill="#775A42"/><g class="N"><path d="M783.85 2454.476c-97.43-32.35-195.32-102.5-254.16-191-77.46-116.54-125.85-323-16.55-426.94 45.17-42.94 107.55-59.13 173.62-56l-.8 10.6c-50.6 4.15-97.1 21.38-132.83 55.35-109.3 103.92-60.9 310.4 16.55 426.94 50.3 75.7 129.16 138 211.87 174.64.7 2.12 1.48 4.25 2.3 6.4zm1989.6-195.48c-60.7 94.85-165.55 169.87-268 201.12l2.26-5.3c88.2-36.93 173.43-104 225.78-185.82 75.4-117.87 120.2-325.17 9.1-427.16-35.38-32.48-80.7-48.9-129.86-52.74l-.5-10.44c64.45-3.4 125.42 11.93 170.36 53.18 111.06 102 66.28 309.3-9.13 427.16z" class="S"/><use xlink:href="#D" class="P"/><path d="M1160.25 2523.066l-4.8-.56-84.78-10.75c-32.77-40.14-56-82.73-67.74-125.82-8.9-32.68 14.68-60 47.08-55.45l18.12 2.53c19.6 65.9 49.4 130.34 92.1 190.05zm224.63 188.65c-25.38-8-49.867-17.066-73.46-27.2-88-37.57-162.38-88.32-216.88-145.75l83.7 10.14c52.43 61.8 120.22 117.44 206.65 162.8zm910-325.78c-11.75 43.08-35 85.68-67.74 125.82l-72.45 9.3-16.47 1.94c42.55-59.77 72.34-124.18 92-190.06l3.48-.47 10.12-1.4 3.94-.56c32.43-4.6 56.02 22.77 47.12 55.45zm-91.6 152.84c-48.1 50.68-111.7 96.17-186.44 132a795.26 795.26 0 0 1-90.22 36.52l-11.32 3.7c85.48-45.4 152.78-100.72 205.06-162.16l3.1-.34 11-1.26 68.8-8.47z" class="R"/><path d="M1982.9 956.766l1.8.5-11.62-3.74 9.8 3.23zm231.6-95.7c-53.4 62.4-211.8-40-531.22-17.54-533.87 37.53-942 531.82-943.3 1020.27-.3 106.94 28.6 233.52 78.72 353.8 58.8-73.84 151.53-99.67 178.6-114.16 7.94 8.57 13 14.5 13 18.9v.36c.005.086.005.173 0 .26a3.44 3.44 0 0 1-.44 1.09l-.17.28c-.47.666-1.03 1.264-1.66 1.78l-.32.26a37.95 37.95 0 0 1-6.52 4l-1.6.8c-3.74 1.83-8.36 3.82-13.67 6l-1.23.5-21.18 8.8-13 5.67-3.4 1.54-6.96 3.24-7.15 3.46-1.8.9-1.82.9-3.67 1.87-11.18 5.94-7.56 4.3-3.9 2.3-9.44 5.9-1.9 1.24-5.74 3.84-1.9 1.32a351.18 351.18 0 0 0-9.51 6.88c-2.533 1.914-5.047 3.87-7.54 5.87l-5.6 4.62c-.62.5-1.24 1-1.85 1.58l-1.84 1.6a129.29 129.29 0 0 0-3.66 3.27l-1.82 1.67-1.8 1.7-3.42 3.28-1.95 1.93-3.52 3.6-1.74 1.83c-2.32 2.447-4.603 4.963-6.85 7.55l-3.33 3.92-1.65 2a187.43 187.43 0 0 0-3.82 4.8 143.99 143.99 0 0 0-3.4 4.53l-.3.4-.95 1.32-.94 1.33-1.7 2.4-2.56 3.8a8.26 8.26 0 0 0-.36.53l-.57.85-.32.5-2 3.2a31.36 31.36 0 0 0-1 1.641l-3.08 5.13c-.15.25-.3.5-.43.75l-2.92 5.22c-.006.026-.006.053 0 .08l-1.44 2.7-1.43 2.75c-76.27-147.6-117-302.56-116.6-435.33 1.32-488.45 432.22-991 966.1-1028.57 319.4-22.45 464.56 50.1 499.6 20.46 42.18-35.75-124.46-75.9-146.65-139.4-8.57-24.46 28.82-20.27 81.55 1.13-20-2.88-31 1.83-25.55 15.87 19.38 50.4 194.5 99.08 155.35 144.83z" class="P"/><path d="M1040.16 2108.326c0 3.67-23.8 15.25-36.4 20.62 4.23-2.4 6.58-4.54 6.58-6.6-.18-20.6-111.76-76.15-111.93-275.54v-6.48a175.68 175.68 0 0 1 .1-5.95c10.27 177.4 141.5 254.34 141.66 273.95z" class="R"/><path d="M1287.18 3249.816c-18.81 11.124-41.64 13.145-62.1 5.5-21.18-7.88-38.24-24.2-50.7-48.5a150.31 150.31 0 0 1-15.12-48.05 115.39 115.39 0 0 1 2.11-43.78 98.24 98.24 0 0 1 5.88-16.76c-.22-2.103-.333-4.216-.34-6.33-.33-90.45 30.55-183 89.47-268.77l.85.32 30.5 11.32c-49.47 78.73-85.32 140.9-85 223.4-17 21.83-12.63 82.94.5 114.5 27.14 65.18 76.6 76.82 83.98 77.14z" class="S"/><use xlink:href="#E" class="R"/><path d="M1623.4 3510.056c-5.62 17.004-17.773 31.074-33.778 39.107a67.43 67.43 0 0 1-51.542 3.713c-27.72-9.2-93.83-15.48-147.7.23-22.1 6.437-45.96 1.172-63.297-13.97a67.52 67.52 0 0 1-22.363-60.84 69 69 0 0 0 2 8.89c10.44 35.788 47.907 56.345 83.7 45.92 53.88-15.7 120-9.43 147.7-.23 18.906 6.265 39.613 3.862 56.582-6.567a67.51 67.51 0 0 0 31.418-47.513 67.09 67.09 0 0 1-2.72 31.26zm368.6-2.87a67.45 67.45 0 0 1-83.7 45.92c-53.88-15.7-120-9.43-147.7-.23a67.51 67.51 0 0 1-88-74.08 67.45 67.45 0 0 0 88 54.08c27.72-9.2 93.83-15.48 147.7.23a67.45 67.45 0 0 0 83.7-45.92 69.12 69.12 0 0 0 2-8.89 67 67 0 0 1-2 28.89z" class="P"/><path d="M2136.71 3156.916c-4.06 35.05-23.3 81.66-64.13 97.67a72.32 72.32 0 0 1-61.24-3.87c10.47-1.34 56.85-14.72 82.77-77 13.12-31.56 17.35-93 .34-114.84.3-78.53-32-149-77.8-223.56l29.3-11c57.7 86.8 84.94 177.3 76.9 256.66-.2 1.87-.47 3.7-.8 5.5a96.51 96.51 0 0 1 11.77 26.77 115.43 115.43 0 0 1 2.89 43.66z" class="S"/><path d="M1608.78 3432.846l-.08 1.9-.58 7.4c-7.612-7.97-17.066-13.944-27.53-17.4-28.62-9.5-66-15.2-105.2-16.06a459.06 459.06 0 0 0-55.71 2.13l.68-10.07a462.92 462.92 0 0 1 55-2.06c39.22.86 76.58 6.57 105.2 16.06a67.23 67.23 0 0 1 28.22 18.1zm269.73-22.13c-18.334-1.765-36.757-2.433-55.17-2-39.22.86-76.58 6.57-105.2 16.06-10.592 3.496-20.146 9.576-27.8 17.7a82.97 82.97 0 0 1-.34-4.2l-.32-5.1c7.757-8.466 17.556-14.8 28.46-18.4 28.62-9.5 66-15.2 105.2-16.06a462.55 462.55 0 0 1 54.36 2l.8 10z" class="S"/><path d="M1433.06 3308.476c48.55 44.14 110.63 75 179.06 82.5a485.71 485.71 0 0 0-1.54 14.83c-69-7.92-131.44-39.58-180-84.6l2.48-12.73zm432.6 11.15c-47.76 44.3-109.47 75.84-178.6 85.2l-1.9-14.74c68.6-8.88 130-39.6 177.8-83l2.7 12.53z" class="S"/><path d="M1966.93 3086.096c0 153.62-140.68 305.1-320 306.63-175.53 1.5-319-153-319-306.63 0-10 .24-20.06.8-30.27 11.56 146.84 150.22 288.35 318.23 286.9 172.85-1.48 309.8-142.3 319.43-290.07.4 11.4.55 22.5.55 33.44z" class="P"/><path d="M1824.75 3146.716c-59.9 74.88-132.36 85.57-175.4 85.57-47.55 0-118.32-8.27-177.4-81.9-27.7-34.52-37-79.73-35.13-134.17 1.64 43 12 79.3 35.13 108.17 59.1 73.62 129.86 81.9 177.4 81.9 43 0 115.5-10.7 175.4-85.57 25.37-31.72 36.2-71.88 37.82-118.83 1.77 58.18-7.88 107.37-37.82 144.83z" class="S"/><path d="M2045.97 2824.236c-35 13.72-71 26-107.74 36.45l-16.56 4.6c-77.34 20.83-157.6 33.74-237.88 36.06-102.94 3-205.27-11.3-302.13-37.25l-13-3.57c-38.43-10.76-76-23.34-112.26-37.4-7.24 10.54-14.053 21.173-20.44 31.9 39.65 16.148 80.106 30.237 121.2 42.2l1.17-1.73-.53 1.92c103.84 30.14 214.56 47.13 326 43.9 88.47-2.56 176.94-18 261.5-42.7l1.36-.4a1195.37 1195.37 0 0 0 119.15-42c-6.153-10.7-12.767-21.37-19.84-32z" class="P"/><path d="M2001.94 3244.576c-21.27 18.38-65.08 13.14-91.57 9.3 3.507-4.893 6.863-9.873 10.07-14.94 3.86.76 7.607 1.407 11.24 1.94 26.64 3.9 46.4 1.46 58.83-7.25a71.16 71.16 0 0 0 11.43 10.94zm358.62-163.97a48.22 48.22 0 0 0 6.4-2.83 51.65 51.65 0 0 1-21.4 14.83c-37.83 13.6-81.06-22.7-81.5-23.06a25 25 0 0 0-23.13-5 24.16 24.16 0 0 1 2.9-4.2c8.953-10.5 24.73-11.77 35.24-2.82.43.38 43.66 36.66 81.5 23.07zm85.72-30.77c-9.47 29.84-26.2 53.12-48.1 67.5 14.6-14.05 25.94-32.88 33.1-55.5 9.54-30.08 11.3-66.18 4.7-96.6-8.05-37.13-29.53-70.63-62.13-96.87-28.4-22.85-63.05-38.38-97.6-43.73-28-4.32-56.93-2-86.08 6.92-26.2 8-52 21.2-76.7 39.12l-3.77 2.78c6.107-5.187 12.363-10.113 18.77-14.78 24.68-17.93 50.48-31.1 76.7-39.12 29.15-8.92 58.1-11.24 86.08-6.92 34.55 5.35 69.2 20.88 97.6 43.73 32.6 26.24 54.08 59.74 62.13 96.87 6.6 30.4 4.83 66.47-4.7 96.6z" class="V"/><use xlink:href="#F" class="V"/><path d="M1483.86 1426.716a214.37 214.37 0 0 0-31.9-6.17c-175.15-20.17-342.8 182.73-338.4 374.18 2.47 107.25 59.36 229.8 152.7 291.65-116.4-48.78-189.2-190.33-192-312-4.33-190.1 160.82-391.6 333.36-371.55 26.673 3.188 52.526 11.288 76.25 23.9zm739.25 337.6c-.66 123.27-72.75 268.13-190.88 317.2 95.3-61.62 152.08-188.08 152.66-297.55 1-190.6-168-389.6-340.57-366.52a211.78 211.78 0 0 0-45.38 11.34c26-15.6 54.3-26.14 84.37-30.17 172.17-23.04 340.8 175.53 339.8 365.7z" class="R"/><path d="M1511.6 1605.256c-4.34-1.233-8.757-2.287-13.25-3.16-99.1-19.24-197.56 58.5-219.9 173.6-16.75 86.35 14.07 169.22 72.35 213.35-81.88-32-130.23-129.93-110.25-232.9 22.12-114 119.58-190.9 217.68-171.85 18.918 3.672 37.005 10.772 53.37 20.95zm432.84 380.86c60.86-43.65 92.6-129.07 73.87-217.3-24.16-113.85-123.2-189.28-221.22-168.48a157.26 157.26 0 0 0-17.52 4.78 158.16 158.16 0 0 1 56.34-24.11c97.76-20.75 196.54 54.48 220.65 168 22.3 105.1-27.16 206.17-112.12 237.1zm454.3-188.34c0 6.467-.103 12.78-.3 18.94-15.7-308.54-265-613.2-481.5-613.2-155.64 0-248.88 116.58-268 116.74-22.73.2-95.64-116.74-268-116.74-215.85 0-465.7 303.73-481.65 611.8l-.18 3.62c0 1.22-.1 2.43-.16 3.65l-.14 3.63c-.52-9.14-.8-18.626-.8-28.46-.26-318.5 259.27-643.25 482.47-643.26 172.4 0 245.3 117 268 116.75 19.15-.17 112.4-116.75 268-116.75 223.53.01 482.04 324.77 482.28 643.26z" class="P"/><path d="M2524.65 2377.176c0 209.26-420.37 512-840.86 524.16-461.3 13.34-910.3-319.74-910.3-497.74a320.46 320.46 0 0 1 .3-14c38.6 182.8 468.4 486 909.44 473.26 406.2-11.75 812.27-294.1 841-502.25a312.79 312.79 0 0 1 .43 16.57z" class="S"/><path d="M2613.84 1846.786c-.36 127.74-38.12 278.5-110.54 423.57-58.2-126.52-215.38-130.67-215.53-147.9 0-3.44 2.3-7.34 6.3-12.14 29.88 12.38 135.9 21.8 193.55 102.1 59.3-132.15 86.52-259.16 86.84-374.86 1.43-510.1-312.88-784.54-713.42-914.5 35.1 11.4 34.68 6.38 56.06 13.48 398.16 129.18 698.16 403.18 696.74 910.25z" class="P"/></g><path d="M2287.74 2122.516c-.2-23.7 111.6-69.84 111.45-275.7-.25-318.5-258.75-643.25-482.28-643.25-155.64 0-248.88 116.58-268 116.74-22.73.2-95.64-116.75-268-116.74-223.2 0-482.73 324.76-482.47 643.25.17 199.4 111.75 254.94 111.93 275.55s-236.85 48.83-236.85 281.27c0 178 449 511.08 910.3 497.74 420.5-12.16 840.86-314.9 840.86-524.16-.07-232.13-236.76-233.58-236.95-254.7zm-689.76-296.93c-10.8 55.65-39.63 104.35-81.16 137.14-32.82 25.9-70.48 39.45-108.5 39.45-10.29-.02-20.553-1.025-30.65-3-99.16-19.2-161.67-128.4-139.35-243.4s121.16-192.88 220.32-173.63c48.1 9.34 89.08 39.84 115.4 85.9s34.76 101.9 23.96 157.55zm439.53 81c-25.5 46.5-65.95 77.73-113.88 87.9a160.82 160.82 0 0 1-33.39 3.52c-37.1 0-73.93-12.87-106.38-37.58-42.1-32.06-71.77-80.25-83.54-135.7s-4.24-111.53 21.2-157.93 66-77.73 113.88-87.9c98.8-21 199 55.18 223.3 169.76 11.77 55.42 4.23 111.5-21.2 157.9v.03z" fill="#FFCD98" class="M O Y"/><path d="M2524.64 2377.216c0 209.26-420.37 512-840.86 524.16-461.3 13.34-910.3-319.74-910.3-497.74a320.46 320.46 0 0 1 .3-14c38.6 182.8 468.4 486 909.44 473.26 406.2-11.75 812.27-294.1 841-502.25.287 5.407.43 10.93.43 16.57z" class="N S"/><path d="M1407.64 1402.816c-172.54-20-337.7 181.45-333.36 371.56 3.24 141.94 101.7 310.86 253.5 328.16 167.2 19 313.5-155.6 329.88-323 16.46-167.97-95.13-358.73-250.02-376.72zm190.38 422.76c-10.8 55.65-39.63 104.35-81.16 137.14-32.82 25.9-70.48 39.45-108.5 39.45a161.3 161.3 0 0 1-30.65-3c-99.16-19.2-161.67-128.4-139.35-243.4s121.16-192.88 220.32-173.63c48.1 9.34 89.08 39.84 115.4 85.9s34.76 101.9 23.96 157.55z" class="Q Y"/><path d="M1483.84 1426.716a214.28 214.28 0 0 0-31.9-6.17c-175.15-20.17-342.8 182.73-338.4 374.18 2.47 107.25 59.36 229.8 152.7 291.65-116.4-48.78-189.2-190.33-192-312-4.33-190.1 160.82-391.6 333.36-371.55 26.673 3.188 52.526 11.288 76.25 23.9z" class="N R"/><path d="M1883.34 1398.616c-154.54 20.68-262.8 213.36-243.4 381.08 19.3 167 168.63 339.1 335.47 317.13 151.47-19.94 247-190.55 247.73-332.52.98-190.16-167.66-388.73-339.8-365.7zm154.23 507.88c-25.5 46.5-65.95 77.73-113.88 87.9a160.82 160.82 0 0 1-33.39 3.52c-37.1 0-73.93-12.87-106.38-37.58-42.1-32.06-71.77-80.25-83.54-135.7s-4.24-111.53 21.2-157.93 66-77.73 113.88-87.9c98.8-21 199 55.18 223.3 169.76 11.74 55.45 4.2 111.54-21.24 157.94h.03z" class="Q Y"/><path d="M2223.14 1764.316c-.66 123.27-72.75 268.13-190.88 317.2 95.3-61.62 152.08-188.08 152.66-297.55 1-190.6-168-389.6-340.57-366.52-15.5 2.093-30.72 5.896-45.38 11.34 26-15.6 54.3-26.14 84.37-30.17 172.17-23.04 340.8 175.53 339.8 365.7z" class="N R"/><use xlink:href="#C" x="-0.05" y="0.02" fill="#7F6145"/><g class="N"><use xlink:href="#D" x="-0.01" class="P"/><use xlink:href="#F" x="-0.01" class="V"/></g><g fill="#634B37"><path d="M1120.84 2477.916l66-11 16.53-2.56 16.55-2.4 33.13-4.5 132.68-16.95 66.4-8.06 66.42-7.67 66.44-7.54 66.44-7.24 132.87-14.34 199.27-21.45 199.25-22.08a9.54 9.54 0 0 1 2.52 18.91l-264.88 37.55-33.16 4.36-33.17 4.28-33.17 4.24-33.2 4.05-66.4 8-66.42 7.62-66.42 7.53-132.84 14.63-66.43 7.2-33.2 3.65-33.2 3.57-66.43 7.2c-44.28 4.893-88.673 8.873-133.18 11.94a9.55 9.55 0 0 1-2.4-18.92l.03-.01z"/><path d="M2187.56 2317.496a65.38 65.38 0 0 1 13.18 20.46 76.02 76.02 0 0 1 5.66 24c.614 8.248-.1 16.542-2.08 24.57a67.5 67.5 0 0 1-9.9 22.21 9 9 0 0 1-16.26-7.06l.1-.4a165.17 165.17 0 0 0 3.07-18.93 105.07 105.07 0 0 0 .16-18.51c-.2-3.07-.62-6.1-1.12-9.15s-1.15-6.07-1.9-9.1a186.62 186.62 0 0 0-5.78-18.3l-.14-.4a9.06 9.06 0 0 1 15-9.41h.01zm-1063.92 136.46c-1.246 6.28-2.164 12.623-2.75 19-.24 3.1-.43 6.2-.4 9.28s.08 6.15.36 9.2a104.92 104.92 0 0 0 3.15 18.24 162.66 162.66 0 0 0 6.1 18.2l.15.37a9.05 9.05 0 0 1-14.9 9.61c-5.655-5.906-10.183-12.796-13.36-20.33a77.93 77.93 0 0 1-6-23.9 75.82 75.82 0 0 1 1.72-24.6 65.06 65.06 0 0 1 9.63-22.3 9.06 9.06 0 0 1 16.34 6.86l-.04.38z"/></g><path d="M1066.34 2472.056c-.2 5.2-.6 9.85-.64 14.4a104.68 104.68 0 0 0 .48 13.12 109.67 109.67 0 0 0 2.09 12.76c.95 4.33 2.26 8.66 3.6 13.6l.17.63a6.85 6.85 0 0 1-10.23 7.6 37.38 37.38 0 0 1-12.74-14 47.61 47.61 0 0 1-5.52-18.42 49.66 49.66 0 0 1 1.91-19 40.71 40.71 0 0 1 9.1-16.22 6.85 6.85 0 0 1 11.8 5l-.02.53zm1170.3-147.83c5.142 3.605 9.38 8.353 12.38 13.87 3.12 5.598 5.138 11.742 5.94 18.1a47.58 47.58 0 0 1-1.42 19.18 37.34 37.34 0 0 1-9.42 16.43 6.85 6.85 0 0 1-11.63-5.2v-.67c.25-5.1.6-9.62.6-14a104.36 104.36 0 0 0-3.06-25.84c-1-4.42-2.4-8.9-3.73-13.9l-.13-.5a6.85 6.85 0 0 1 10.45-7.42l.03-.05z" class="P" fill="#333"/><g class="N"><path d="M1040.14 2108.316c0 3.67-23.8 15.25-36.4 20.62 4.23-2.4 6.58-4.54 6.58-6.6-.18-20.6-111.76-76.15-111.93-275.54v-6.48a175.47 175.47 0 0 1 .1-5.95c10.27 177.4 141.5 254.34 141.66 273.95z" class="R"/><use xlink:href="#E" x="-0.03" y="0.02" class="R"/></g><g class="O"><g class="O"><path d="M1917.11 936.536c362.17 117.78 412.6 34.28 417.6 23.77 64-134-358.35-337.56-331.57-261.08 22.2 63.5 188.83 103.64 146.52 139.5-35 29.64-180.2-42.9-499.6-20.46-376.34 26.46-701.5 284-861.1 604.82a53.99 53.99 0 0 0 2.12.77 48.1 48.1 0 0 0 27.34 1 60.08 60.08 0 0 0 9.43-3.21c9.135-4.123 17.47-9.827 24.62-16.85.9.47 1.8.9 2.73 1.3 6.294 2.858 13.137 4.305 20.05 4.24 2.043-.016 4.084-.16 6.1-.43.9-.1 1.8-.27 2.7-.44.44-.1.88-.16 1.3-.26.076.01.153.01.23 0h.2c5.82-1.317 11.42-3.462 16.63-6.37a85.97 85.97 0 0 0 15.08-10.61l4.85-1a49.84 49.84 0 0 0 8.82 3.32l.37.1h.1a48.65 48.65 0 0 0 21.69.59c11-2.13 21.76-7.73 31.84-16.17l3.23-.58 1.64-.3c6.878 3.612 14.52 5.522 22.3 5.57a49.74 49.74 0 0 0 8.69-.7c5.55-.958 10.938-2.698 16-5.17a81.37 81.37 0 0 0 15.91-10.19l4.55-.7h.3c1.06.58 2.14 1.1 3.22 1.6 8.342 3.905 17.62 5.368 26.76 4.22.33 0 .66-.07 1-.12l.93-.15a64.24 64.24 0 0 0 25-10c2.07-1.34 4.1-2.8 6.13-4.37l4.87-.62c4.03 2.337 8.355 4.123 12.86 5.3h.32a48.41 48.41 0 0 0 13.16 1.47c1.53 0 3.07-.13 4.62-.3 11.1-1.27 21.92-6 32.15-13.75l3.66-.38 1.22-.12c4.036 2.46 8.38 4.373 12.92 5.7a49.39 49.39 0 0 0 18 1.68 58.19 58.19 0 0 0 3.94-.5 59.86 59.86 0 0 0 15.56-4.89 77.81 77.81 0 0 0 12.74-7.55l4.88-.37c.93.6 1.87 1.14 2.8 1.67a50.31 50.31 0 0 0 28.06 6.52c11.1-.7 22-4.93 32.3-12.13l4.88-.24c2.846 1.9 5.858 3.542 9 4.9 4.578 1.978 9.424 3.27 14.38 3.83 2.473.274 4.963.368 7.45.28 8.12-.375 16.073-2.454 23.34-6.1a76.75 76.75 0 0 0 9-5.21l2.57-.06 2.3-.06c1 .73 2.1 1.42 3.2 2.07 6.672 4.13 14.194 6.7 22 7.5a50.75 50.75 0 0 0 5.53.25c11.08-.12 22-3.8 32.4-10.5h4.9c6.597 4.92 14.226 8.278 22.3 9.82 2.755.506 5.548.78 8.35.82 11.08.17 22-3.24 32.43-9.68l4.07.12h.8a54.3 54.3 0 0 0 5.3 3.61c7.6 4.74 16.313 7.44 25.27 7.84h.57c10.46.3 20.78-2.57 30.7-8.18l1.2-.7 4.87.26c9.18 7.24 19.42 11.52 30.48 12.26 2.54.167 5.092.143 7.63-.07a60.24 60.24 0 0 0 24.83-8l4.85.4c1.233 1 2.477 1.947 3.73 2.84 2.62 1.887 5.39 3.56 8.28 5 5.74 2.87 11.96 4.654 18.35 5.26 11 1 22-1.56 32.47-7.22l1.77.2 3.08.32a63.99 63.99 0 0 0 12.86 8.6 52.61 52.61 0 0 0 17.37 5.26c11 1.3 22-1 32.46-6.4l4.84.64a60.31 60.31 0 0 0 22.92 13.07c2.35.696 4.745 1.224 7.17 1.58a52.2 52.2 0 0 0 21.13-1.33 61.57 61.57 0 0 0 11.29-4.25l3.68.6 1.14.18a61.48 61.48 0 0 0 22.94 13.71c6.543 2.106 13.445 2.868 20.3 2.24 5.036-.472 9.985-1.626 14.7-3.43a72.39 72.39 0 0 0 4.4-1.83l1.5.28 3.3.6c1.32 1.26 2.67 2.44 4 3.57a58.1 58.1 0 0 0 25.75 12.65c10.9 2.16 21.8.68 32.34-3.92l4.8 1.02a73.98 73.98 0 0 0 6.81 6c6.694 5.305 14.48 9.062 22.8 11a51 51 0 0 0 17.77.81l.5-.06h.08a56.09 56.09 0 0 0 10.7-2.62 56.3 56.3 0 0 0 3.2-1.21l4.77 1.14a69.01 69.01 0 0 0 18.05 13.49c3.623 1.85 7.444 3.286 11.4 4.28a50.58 50.58 0 0 0 13.33 1.54c6.46-.143 12.845-1.426 18.86-3.8l4.17 1.1.6.16c6.35 6.938 14.077 12.473 22.7 16.25a53.64 53.64 0 0 0 6.54 2.3c1.2.33 2.4.6 3.6.86a52.08 52.08 0 0 0 28.52-2.29l2.38.7 2.33.7c1.43 1.56 2.9 3 4.4 4.45 6.957 6.792 15.395 11.878 24.65 14.86.6.2 1.2.36 1.8.52h.3c5.866 1.55 11.964 2.03 18 1.4a52.81 52.81 0 0 0 7.92-1.42 53.56 53.56 0 0 0 4-1.18l4.7 1.5a83.85 83.85 0 0 0 3.71 3.94c5.847 5.994 12.762 10.844 20.4 14.3a52.24 52.24 0 0 0 4.72 1.84 53.65 53.65 0 0 0 3.81 1.11l.2.06h.17a50.48 50.48 0 0 0 10.49 1.44c5.837.164 11.66-.647 17.23-2.4l1.85.64 2.83 1c7.92 9.27 16.9 16.16 26.78 20.14.6.25 1.2.48 1.8.7 10.204 3.754 21.344 4.133 31.78 1.08l2.67 1 2 .74c1.34 1.63 2.72 3.17 4.12 4.66a79.88 79.88 0 0 0 7.8 7.24 73.2 73.2 0 0 0 3.21 2.45c2.24 1.587 4.58 3.033 7 4.33 2.033 1.095 4.13 2.067 6.28 2.9l.8.3.76.3a52.49 52.49 0 0 0 6.25 1.8c7.377 1.646 15.03 1.605 22.4-.12.63-.14 1.26-.3 1.9-.47.42.16.84.3 1.26.42.76.27 1.5.52 2.22.73l.28.35c7.77 9.86 16.7 17.38 26.53 22a26.81 26.81 0 0 0 1 .44c.33.14.64.3 1 .43 10.773 4.632 22.822 5.37 34.08 2.1a97.16 97.16 0 0 0 8.38 10.11 78.51 78.51 0 0 0 9.19 8.26 62.72 62.72 0 0 0 12.28 7.38 50.61 50.61 0 0 0 26 4.38c.4 0 .8-.08 1.2-.14-83.68-346.4-343.25-548.28-668.2-653.7z" class="N P W"/><path d="M1795.703 657.957c-97.633-34.996-147.86-144.424-112.1-244.213s144.073-152.393 241.706-117.398 147.86 144.425 112.1 244.214-144.073 152.392-241.706 117.397z" fill="#ccc" class="M"/><path d="M1087.24 1019.816c-4.233 2.163-8.27 4.693-12.06 7.56a80.08 80.08 0 0 1 12.06-7.56z" opacity=".15" class="N W"/></g><path d="M2047.44 497.456c-12.52 105.22-106.4 181.37-209.7 170.1-61.27-6.68-112.08-42.63-140.68-92.73 21.764 12.315 45.817 20.05 70.68 22.73 103.3 11.27 197.18-64.88 209.7-170.1 5.006-40.92-3.3-82.362-23.7-118.2 63.9 36.17 103.1 109.14 93.7 188.2z" class="N P W X"/><g class="M"><path d="M2553.69 1212.136l-3-1.43-.36-.15c-1-.45-2.1-.85-3.13-1.2-9.524-3.455-19.867-3.956-29.68-1.44-1.16-.6-2.3-1.16-3.48-1.7-8.5-10.7-18.4-18.63-29.37-23-10.307-4.236-21.716-4.987-32.5-2.14l-4.7-1.82c-8.54-10.22-18.37-17.74-29.27-21.8-10.453-3.96-21.91-4.405-32.64-1.27l-4.74-1.7c-8.63-10-18.54-17.23-29.52-21-10.588-3.683-22.086-3.823-32.76-.4l-4.77-1.57c-8.72-9.74-18.73-16.73-29.75-20.2a52.11 52.11 0 0 0-32.89.49l-4.78-1.44c-8.82-9.5-18.9-16.22-30-19.4a52.54 52.54 0 0 0-33 1.35l-4.82-1.3c-8.9-9.27-19-15.7-30.18-18.6-10.986-2.807-22.58-2.025-33.1 2.23l-4.84-1.18c-9-9-19.2-15.2-30.37-17.78a53.72 53.72 0 0 0-33.16 3.1l-4.87-1c-9-8.78-19.33-14.68-30.56-17s-22.45-.78-33.23 4l-4.9-1.02c-9.12-8.53-19.46-14.14-30.73-16.14s-22.5-.18-33.3 4.85l-4.9-.8c-9.2-8.28-19.6-13.62-30.9-15.3s-22.55.4-33.32 5.7l-4.9-.67c-9.27-8-19.7-13.1-31.05-14.48s-22.6 1-33.36 6.58l-4.92-.54c-9.33-7.77-19.83-12.55-31.2-13.64s-22.62 1.6-33.37 7.44l-4.93-.4c-9.4-7.52-19.93-12-31.3-12.8s-22.65 2.18-33.37 8.3l-4.94-.28c-9.45-7.26-20-11.47-31.43-12s-22.66 2.77-33.36 9.17l-5-.15c-9.5-7-20.1-10.92-31.53-11.1s-22.65 3.37-33.32 10h-5c-9.55-6.73-20.2-10.36-31.6-10.25s-22.66 4-33.3 10.9l-5 .1c-9.276-6.465-20.4-9.762-31.7-9.4-11.42.4-22.64 4.55-33.24 11.74l-5 .25c-9.378-6.22-20.527-9.218-31.76-8.54-11.42.7-22.6 5.14-33.17 12.6l-5 .37a51.13 51.13 0 0 0-31.8-7.67c-11.42 1-22.58 5.73-33.1 13.45l-5 .5a50.46 50.46 0 0 0-31.84-6.8c-11.4 1.32-22.55 6.3-33 14.3l-5 .64c-9.667-5.46-20.876-7.545-31.86-5.93-11.4 1.62-22.5 6.9-32.9 15.15l-4.93.77a49.54 49.54 0 0 0-31.88-5.06c-11.38 1.93-22.44 7.5-32.8 16l-4.94.9a49.11 49.11 0 0 0-31.87-4.17c-11.35 2.22-22.37 8.08-32.67 16.84l-4.92 1a48.75 48.75 0 0 0-31.86-3.3 46.85 46.85 0 0 0-3 .76 52.06 52.06 0 0 0-5 1.64c-.36.13-.7.27-1.07.42 231.4-462.55 568.56-535.88 914.1-506.8 475.75 40.1 640.43 272.93 751.55 664.27z" fill="#999"/><path d="M2616.19 1240.076c-10.84-5.176-23.16-6.345-34.78-3.3-8.8-12-19.13-21-30.77-26.06l-.35-.15c-1-.45-2.1-.85-3.13-1.2-9.523-3.453-19.866-3.958-29.68-1.45-1.16-.6-2.32-1.16-3.5-1.7-8.5-10.7-18.38-18.63-29.36-23-10.307-4.236-21.716-4.987-32.5-2.14l-4.7-1.82c-8.54-10.22-18.38-17.75-29.27-21.8-10.453-3.96-21.91-4.405-32.64-1.27l-4.74-1.7c-8.63-10-18.55-17.23-29.52-21-10.593-3.675-22.093-3.812-32.77-.4l-4.77-1.57c-8.7-9.74-18.72-16.73-29.75-20.2a52.11 52.11 0 0 0-32.89.49l-4.78-1.44c-8.8-9.5-18.88-16.23-30-19.4a52.61 52.61 0 0 0-33 1.36l-4.82-1.3c-8.9-9.27-19-15.7-30.18-18.6-10.986-2.807-22.58-2.025-33.1 2.23l-4.85-1.18c-9-9-19.18-15.2-30.36-17.78-11.106-2.505-22.72-1.42-33.17 3.1l-4.86-1c-9-8.78-19.33-14.68-30.56-17s-22.45-.78-33.24 4l-4.84-1.03c-9.13-8.53-19.46-14.15-30.74-16.14s-22.5-.18-33.28 4.84l-4.9-.8c-9.2-8.3-19.6-13.62-30.9-15.3s-22.56.4-33.32 5.7l-4.92-.67c-9.26-8-19.7-13.1-31-14.48s-22.6 1-33.35 6.58l-4.92-.54c-9.33-7.78-19.83-12.55-31.2-13.64s-22.62 1.6-33.37 7.44l-4.94-.4c-9.38-7.52-19.92-12-31.3-12.8s-22.64 2.18-33.36 8.3l-5-.28c-9.44-7.26-20-11.47-31.42-12s-22.66 2.77-33.36 9.17l-5-.15c-9.5-7-20.1-10.92-31.53-11.1s-22.66 3.37-33.33 10h-5a53.29 53.29 0 0 0-31.61-10.25c-11.4.1-22.65 4-33.3 10.88l-5 .12c-9.28-6.465-20.397-9.762-31.7-9.4-11.4.4-22.64 4.54-33.24 11.74l-5 .25a51.7 51.7 0 0 0-31.75-8.54c-11.42.7-22.62 5.14-33.18 12.6l-4.94.37a51.15 51.15 0 0 0-31.8-7.67c-11.42 1-22.6 5.73-33.1 13.45l-5 .5a50.53 50.53 0 0 0-31.84-6.81c-11.4 1.32-22.55 6.32-33 14.3l-5 .64c-9.67-5.465-20.882-7.555-31.87-5.94-11.4 1.63-22.5 6.9-32.9 15.16l-4.92.77c-9.764-5.197-20.987-6.978-31.88-5.06-11.38 1.93-22.44 7.5-32.8 16l-4.94.9c-9.854-4.928-21.08-6.4-31.87-4.18-11.35 2.23-22.37 8.1-32.67 16.85l-4.92 1a48.81 48.81 0 0 0-31.86-3.29 47.18 47.18 0 0 0-3 .76 53.12 53.12 0 0 0-5 1.64c-9.43 3.53-18.53 9.54-27.08 17.58-10.593-5.317-22.765-6.573-34.22-3.53-51.3 12.88-94.2 99.1-96.1 190.44v.26c-1.82 91.38 36.77 153.9 86.42 141.7 11.9-2.94 23.38-9.9 34-20.06 8.86 4.69 18.968 6.48 28.9 5.12a46.48 46.48 0 0 0 4-.7c.14-.013.282-.036.42-.07 11-2.42 21.68-8.3 31.7-17l4.85-1c9.605 4.73 20.51 6.136 31 4 11-2.14 21.75-7.73 31.84-16.18l4.86-.87c9.512 5 20.412 6.713 31 4.87 11-1.84 21.8-7.17 32-15.36l4.87-.75a49.13 49.13 0 0 0 31 5.71c11.08-1.56 21.86-6.6 32.06-14.56l4.87-.62c9.344 5.5 20.23 7.796 31 6.54 11.1-1.27 21.92-6 32.15-13.76l4.88-.5a50.17 50.17 0 0 0 30.92 7.37c11.08-1 22-5.5 32.24-12.94l4.88-.37c9.137 5.98 19.96 8.853 30.86 8.2 11.1-.7 22-4.93 32.3-12.13l4.9-.24a51.37 51.37 0 0 0 30.82 9c11.1-.4 22-4.37 32.36-11.3l4.88-.12a52.17 52.17 0 0 0 30.75 9.83c11.08-.12 22-3.8 32.4-10.5h4.9a52.87 52.87 0 0 0 30.65 10.64c11.1.17 22-3.24 32.44-9.68l4.88.14c9.23 7 19.5 11 30.57 11.45s22-2.7 32.47-8.86l4.86.26c9.18 7.23 19.42 11.52 30.48 12.25s22-2.12 32.45-8l4.86.4c9.13 7.48 19.34 12 30.36 13.06s22-1.57 32.47-7.22l4.85.5c9.07 7.73 19.22 12.55 30.23 13.86s22-1 32.46-6.4l4.84.64c9 8 19.1 13 30.1 14.65s21.9-.44 32.4-5.58l4.83.77c8.94 8.2 19 13.56 29.94 15.43s21.86.12 32.4-4.74l4.8.9c8.88 8.45 18.87 14.06 29.8 16.22s21.8.68 32.33-3.92l4.8 1c8.8 8.68 18.74 14.55 29.6 17 10.812 2.363 22.093 1.283 32.26-3.1l4.77 1.14c8.74 8.92 18.6 15 29.43 17.77 10.702 2.658 21.97 1.87 32.2-2.25l4.76 1.26c8.64 9.15 18.45 15.54 29.23 18.55a51.91 51.91 0 0 0 32.12-1.43l4.7 1.38c8.57 9.38 18.3 16 29 19.32 10.458 3.21 21.667 3.003 32-.6l4.7 1.5c8.48 9.6 18.16 16.5 28.82 20.08a51.1 51.1 0 0 0 31.9.24l4.68 1.63c8.4 9.83 18 17 28.6 20.84a50.76 50.76 0 0 0 31.78 1.07l4.63 1.75c8.3 10.06 17.8 17.46 28.36 21.6.52.2 1.05.4 1.57.6a50.49 50.49 0 0 0 30.53 1.21 10.21 10.21 0 0 0 1.28.42c.76.28 1.5.53 2.22.74l.28.34c7.77 9.87 16.7 17.38 26.53 22a36.64 36.64 0 0 0 2 .87c10.773 4.632 22.822 5.37 34.08 2.1 8.56 11.8 18.6 20.68 29.85 25.75 47 21.1 98.3-31.77 115-120s-8.27-179.3-56.7-201.78z" fill="#666"/></g><g class="N W"><path d="M2553.69 1212.136l-3-1.43-.36-.15c-1-.45-2.1-.85-3.13-1.2-9.524-3.455-19.867-3.956-29.68-1.44a102.06 102.06 0 0 0-3.48-1.71c-8.5-10.7-18.4-18.63-29.37-23-10.307-4.236-21.716-4.987-32.5-2.14l-4.7-1.82c-8.54-10.22-18.37-17.74-29.27-21.8-10.453-3.96-21.91-4.405-32.64-1.27l-4.74-1.7c-8.63-10-18.54-17.23-29.52-21-10.588-3.683-22.086-3.823-32.76-.4l-4.77-1.57c-8.72-9.74-18.73-16.73-29.75-20.2l-1.65-.5c-111.74-330-286.93-526.2-719.4-562.74 78.56-8 158.82-6.83 239.53 0 475.37 39.9 640.05 272.75 751.17 664.1z" class="R X"/><path d="M2675.14 1429.916c-.58 4-1.247 8.023-2 12.07-16.74 88.2-68 141-115 120-11.26-5.07-21.3-14-29.85-25.75-11.255 3.28-23.3 2.542-34.07-2.1l-2-.87c-9.84-4.57-18.76-12.1-26.53-22l-.28-.35c-.73-.2-1.46-.46-2.22-.73a11.86 11.86 0 0 1-1.28-.43c-10.058 2.76-20.723 2.337-30.53-1.2l-1.57-.6c-5.38-2.136-10.43-5.02-15-8.57a81.75 81.75 0 0 1-13.34-13l-4.63-1.74c-10.436 3.053-21.576 2.674-31.78-1.08-10.6-3.85-20.2-11-28.6-20.84l-4.68-1.63a51.1 51.1 0 0 1-31.9-.24c-10.66-3.57-20.34-10.48-28.82-20.08l-4.7-1.5c-10.333 3.593-21.542 3.8-32 .6-10.72-3.3-20.46-9.94-29-19.3l-4.7-1.4a51.92 51.92 0 0 1-32.12 1.43c-10.78-3-20.6-9.4-29.23-18.55l-4.76-1.26c-10.23 4.12-21.498 4.908-32.2 2.25-10.83-2.72-20.7-8.85-29.43-17.77l-4.77-1.14a53 53 0 0 1-32.26 3.09c-10.87-2.44-20.82-8.32-29.6-17l-4.8-1c-10.52 4.6-21.43 6.08-32.33 3.92s-20.9-7.77-29.8-16.22l-4.8-.9c-10.53 4.87-21.43 6.62-32.4 4.74s-21-7.22-29.94-15.43l-4.83-.77c-10.5 5.14-21.43 7.17-32.4 5.58s-21.1-6.68-30.1-14.65l-4.84-.64c-10.5 5.4-21.44 7.7-32.46 6.4s-21.16-6.13-30.23-13.86l-4.85-.5c-10.5 5.66-21.43 8.24-32.47 7.22s-21.23-5.58-30.36-13.06l-4.86-.4c-10.45 5.92-21.4 8.78-32.45 8s-21.3-5-30.48-12.26l-4.87-.26c-10.45 6.17-21.38 9.3-32.46 8.86s-21.34-4.46-30.57-11.45l-4.88-.14c-10.43 6.44-21.35 9.85-32.44 9.68s-21.4-3.9-30.66-10.64h-4.9c-10.38 6.7-21.3 10.38-32.4 10.5a52.08 52.08 0 0 1-30.75-9.83l-4.88.12c-10.37 6.94-21.26 10.9-32.36 11.3-10.97.37-21.772-2.784-30.82-9l-4.9.24c-10.32 7.2-21.2 11.44-32.3 12.13-10.9.662-21.723-2.2-30.86-8.2l-4.88.37c-10.3 7.45-21.16 12-32.24 12.94a50.17 50.17 0 0 1-30.92-7.37l-4.88.5c-10.23 7.7-21.06 12.48-32.15 13.75-10.77 1.26-21.658-1.035-31-6.54l-4.87.62c-10.2 8-21 13-32.06 14.56-10.68 1.55-21.574-.457-31-5.7l-4.86.75c-10.15 8.2-20.9 13.52-32 15.36-10.588 1.845-21.488.133-31-4.87l-4.86.88c-10.08 8.44-20.8 14-31.84 16.17a48.32 48.32 0 0 1-31-4l-4.85 1c-10 8.7-20.7 14.56-31.7 17-.138.033-.28.056-.42.07-1.35.3-2.68.53-4 .7a47.88 47.88 0 0 1-28.9-5.12c-10.66 10.15-22.15 17.12-34 20.06-49.65 12.2-88.24-50.33-86.42-141.7-.005-.033-.005-.067 0-.1-.005-.053-.005-.107 0-.16.85-40.43 9.73-79.87 23.8-112.38-2.234 14.023-3.507 28.183-3.8 42.38-.005.053-.005.107 0 .16-.005.033-.005.067 0 .1-1.82 91.38 36.77 153.9 86.42 141.7 11.9-2.94 23.38-9.9 34-20.06a47.88 47.88 0 0 0 28.9 5.12 47.36 47.36 0 0 0 4-.7c.14-.014.282-.037.42-.07 11-2.42 21.68-8.3 31.7-17l4.85-1a48.32 48.32 0 0 0 31 4c11-2.13 21.76-7.73 31.84-16.17l4.86-.88c9.512 5.003 20.412 6.715 31 4.87 11-1.84 21.8-7.16 32-15.36l4.86-.75c9.426 5.253 20.32 7.26 31 5.7 11.08-1.56 21.86-6.6 32.06-14.56l4.87-.62c9.342 5.505 20.23 7.8 31 6.54 11.1-1.27 21.92-6 32.15-13.75l4.88-.5a50.17 50.17 0 0 0 30.92 7.37c11.08-1 22-5.5 32.24-12.94l4.88-.37c9.137 5.98 19.96 8.852 30.86 8.2 11.1-.7 22-4.93 32.3-12.13l4.9-.24c9.048 6.216 19.85 9.37 30.82 9 11.1-.4 22-4.37 32.36-11.3l4.88-.12a52.08 52.08 0 0 0 30.75 9.83c11.08-.12 22-3.8 32.4-10.5h4.9c9.27 6.74 19.6 10.48 30.66 10.64s22-3.24 32.44-9.68l4.88.14c9.23 7 19.5 11 30.57 11.45s22-2.7 32.46-8.86l4.87.26c9.18 7.24 19.42 11.52 30.48 12.26s22-2.13 32.45-8l4.86.4c9.13 7.48 19.34 12 30.36 13.06s22-1.56 32.47-7.22l4.85.5c9.07 7.73 19.22 12.55 30.23 13.86s22-1 32.46-6.4l4.84.64c9 8 19.1 13 30.1 14.65s21.9-.44 32.4-5.58l4.83.77c8.94 8.2 19 13.56 29.94 15.43s21.86.13 32.4-4.74l4.8.9c8.88 8.45 18.87 14.06 29.8 16.22s21.8.68 32.33-3.92l4.8 1c8.8 8.68 18.74 14.56 29.6 17a53 53 0 0 0 32.26-3.09l4.77 1.14c8.74 8.92 18.6 15 29.43 17.77 10.702 2.658 21.97 1.87 32.2-2.25l4.76 1.26c8.64 9.15 18.45 15.54 29.23 18.55a51.92 51.92 0 0 0 32.12-1.43l4.7 1.4c8.57 9.37 18.3 16 29 19.3 10.458 3.21 21.667 3.003 32-.6l4.7 1.5c8.48 9.6 18.16 16.5 28.82 20.08a51.1 51.1 0 0 0 31.9.24l4.68 1.63c8.4 9.83 18 17 28.6 20.84 10.204 3.754 21.344 4.133 31.78 1.08l4.63 1.74a81.75 81.75 0 0 0 13.34 13c4.57 3.55 9.62 6.434 15 8.57.52.2 1.05.4 1.57.6 9.807 3.547 20.472 3.97 30.53 1.2a11.86 11.86 0 0 0 1.28.43c.76.27 1.5.52 2.22.73l.28.35c7.77 9.86 16.7 17.38 26.53 22 .66.3 1.3.6 2 .87 10.77 4.632 22.815 5.37 34.07 2.1 8.56 11.8 18.6 20.68 29.85 25.75 35.46 15.88 73.36-10.33 97-62.07z" class="V"/></g><path d="M2122.14 3082.616c9.2-3 14.84-7.1 15.26-12 1.07-12.66-32.6-25.84-75.2-29.43s-78 3.77-79.07 16.43c-.42 5 4.65 10.14 13.56 14.7-.92 1.18-1.82 2.38-2.68 3.63a74 74 0 0 0-8.73 67.29c-19.752 26.538-19.517 62.955.576 89.236s55.175 36.057 85.964 23.954c41.9-16.43 61.67-64.38 65.85-100.46 3.23-27.93-2.37-53.24-15.52-73.35z" class="M Q"/></g><path d="M2137.74 3155.916c-4.2 36.07-24 84-65.86 100.47a73.94 73.94 0 0 1-65.52-5.67h.75c9.24-.008 18.4-1.748 27-5.13 41.9-16.43 61.67-64.4 65.86-100.47 3.22-27.9-2.34-53.24-15.53-73.3 9.2-3 14.85-7.12 15.26-12 .45-5.5-5.6-11.07-16.1-15.94 32 5.48 54.77 16.28 53.9 26.74-.4 4.93-6.05 9.05-15.26 12.05 13.12 20.05 18.72 45.36 15.5 73.25z" fill="#333" class="V"/><path d="M1318.84 3215.436a73.77 73.77 0 0 1-30.5 36.28l-1 .63-.12.07-4.08 2.2-2.7 1.3-1.92.84-1.4.57a66.47 66.47 0 0 1-2.36.89l-1.2.4-1.28.42a47.01 47.01 0 0 1-2.07.63l-1.5.4-2.46.6-2.48.52-1.24.23-1.3.22-1.2.17-1 .13-1.7.2-1.13.1a68.09 68.09 0 0 1-6.39.28 73.58 73.58 0 0 1-18.63-2.4c-2.848-.75-5.65-1.664-8.4-2.74a83.37 83.37 0 0 1-20.78-11.88l-1.7-1.34a92.63 92.63 0 0 1-3.25-2.79l-3.1-2.93c-3.078-3.035-5.96-6.26-8.63-9.66-.47-.6-.93-1.2-1.4-1.8s-.7-.92-1-1.38c-.63-.85-1.24-1.7-1.84-2.58l-1.13-1.67c-.75-1.1-1.47-2.24-2.18-3.38a138.41 138.41 0 0 1-10.21-20.09c-.42-1-.84-2.1-1.24-3.14-.713-1.84-1.38-3.683-2-5.53a158.03 158.03 0 0 1-4.13-14.23l-.2-.86a154.23 154.23 0 0 1-3-17.19c-3.24-27.9-3.25-51.23 10-71.3-5.1-1.74-13.28-4.3-13.6-13.38v-.46c0-3.53 2-6.82 5.48-9.82 9.1-7.84 28.64-13.76 52-17.3 6.9-1.05 14.16-1.9 21.58-2.52 42.6-3.6 78 3.77 79.08 16.43.42 5-4.65 10.14-13.57 14.7a69.61 69.61 0 0 1 2.69 3.63 74 74 0 0 1 8.73 67.29c15.226 20.52 18.805 47.435 9.47 71.22z" class="M O Q"/><path d="M1288.34 3251.716l-1 .63-.12.07-4.08 2.2-2.7 1.3-1.92.84-1.4.57-2.36.9-1.2.4-1.28.42-2.07.63-1.5.4-2.46.6-2.48.52-1.24.23-1.3.22-1.2.17-1 .13-1.7.2-1.13.1-6.4.28c-9.24-.017-18.397-1.757-27-5.13-7.463-2.935-14.46-6.94-20.77-11.9-.57-.43-1.13-.88-1.7-1.34a92.63 92.63 0 0 1-3.25-2.79l-3.1-2.93a102.43 102.43 0 0 1-8.63-9.66 85.51 85.51 0 0 1-1.39-1.8 28.56 28.56 0 0 1-1-1.38c-.63-.85-1.24-1.7-1.84-2.58l-1.13-1.67a108.32 108.32 0 0 1-2.18-3.38c-3.944-6.408-7.358-13.127-10.2-20.1-.42-1-.84-2.1-1.24-3.14-.713-1.84-1.38-3.683-2-5.53a158.03 158.03 0 0 1-4.13-14.23l-.2-.86a154.23 154.23 0 0 1-3-17.19c-3.24-27.9-3.25-51.23 10-71.3-5.1-1.74-13.28-4.3-13.6-13.38v-.46c0-3.53 2-6.82 5.48-9.82 9.1-7.84 28.64-13.76 52-17.3l.27.17c-10.5 4.87-16.55 10.45-16.1 15.94.4 4.93 6 9 15.26 12-13.2 20.06-18.76 45.4-15.53 73.3 4.2 36.07 23.95 84 65.85 100.47 8.6 3.38 17.758 5.12 27 5.13.2.02.47.02.7.02z" fill="#333" class="V"/><g class="O X"><path d="M1668.34 3458.516a30.87 30.87 0 0 1-.26-3.49l-.93-51.66c-.37-20 18.1-36.6 41.27-37l95.87-1.63c31.08-.53 58.46 13.67 73.28 35.2h27.6c67.74.27 123.43 50.93 124.48 109.43l.53 29.24c.28 15.7-14.2 27.66-32.34 27-88.783-3.428-177.68-2.393-266.36 3.1-33.88 2.1-61.7-19.27-62.24-48.63l-1-57.42c-.1-1.43-.05-2.8.1-4.14zm-40.1.2a31.07 31.07 0 0 0 .2-3.49v-51.68c0-20-18.75-36.28-41.9-36.27l-95.9.05c-31.08 0-58.2 14.7-72.65 36.47l-27.6.46c-67.72 1.46-122.52 53.08-122.55 111.6v29.24c0 15.7 14.67 27.4 32.8 26.4a2655.81 2655.81 0 0 1 266.37-1.55c33.9 1.5 61.37-20.34 61.4-49.7v-57.43c.04-1.33-.08-2.7-.16-4.08z" class="M Q"/><path d="M2030.15 3538.546c.3 15.7-14.2 27.66-32.34 27-88.783-3.428-177.68-2.393-266.36 3.1-33.88 2.08-61.7-19.27-62.24-48.63l-1-57.42c0-1.37 0-2.73.13-4.08a31.1 31.1 0 0 1-.26-3.49l-.93-51.66a31.51 31.51 0 0 1 .55-6.48l.38 20.64a31.1 31.1 0 0 0 .26 3.49 46.09 46.09 0 0 0-.13 4.08l1 57.42c.53 29.36 28.36 50.7 62.24 48.63 88.68-5.493 177.577-6.528 266.36-3.1 15.8.62 28.83-8.38 31.74-21.08 0 .8.06 1.58.07 2.38l.53 29.2zm-401.7-77.03v58.75c0 29.37-27.47 51.2-61.38 49.72a2650.01 2650.01 0 0 0-266.37 1.55c-18.13 1-32.82-10.7-32.8-26.4v-29.25c0-1.8 0-3.56.15-5.33 1.7 14.2 15.67 24.42 32.65 23.47a2650.01 2650.01 0 0 1 266.37-1.55c33.9 1.48 61.37-20.35 61.38-49.72l.01-21.25z" class="N P W"/></g></g></g></svg>