<svg xmlns="http://www.w3.org/2000/svg" xmlns:xlink="http://www.w3.org/1999/xlink" width="3289" height="3985"><style><![CDATA[.a{fill-rule:nonzero}.b{opacity:.08}.c{stroke-width:5}.d{opacity:.1}.e{stroke:#333}.f{fill:#fff}.g{fill:#F7C394}.h{opacity:.05}.i{fill:#FFC237}.j{fill:#000}.k{opacity:.2}.l{stroke-linejoin:round}]]></style><defs><radialGradient cx="50%" cy="50%" fx="50%" fy="50%" r="60.6060606%" gradientTransform="translate(0.500000,0.500000),scale(1.000000,0.825000),rotate(90.000000),scale(1.000000,0.824425),translate(-0.500000,-0.500000)" id="A"><stop stop-color="#fff" stop-opacity=".01" offset="0%"/><stop stop-color="#fff" stop-opacity="0" offset="100%"/></radialGradient><path id="B" d="M0 0h3300v4000H0z"/><path id="C" d="M978.2 792.3l18.4 38.56-25.44 4.55 7-43.1h.04zm-2.4-16.56l-10.76 65.83 38.86-6.94-28.1-58.9z"/><path id="D" d="M1229.4 679.07l34.9 22.6-17.2 14.5-17.7-37.1zm-12.13-13.8l28.1 58.9 27.3-23-55.4-35.9z"/></defs><g transform="translate(-5 -9)" fill="none"><mask id="E" class="f"><use xlink:href="#B"/></mask><use xlink:href="#B" fill="url(#A)"/><g mask="url(#E)"><path d="M-350 0h4000v4000H-350z"/><g class="c e"><path d="M1954.67 3292.92c-9.895-.045-19.775-.807-29.56-2.28-50.77-7.42-115.16-32.27-196.86-76-12.175-6.514-16.764-21.665-10.25-33.84s21.665-16.764 33.84-10.25c75.45 40.37 136.18 64.12 180.5 70.6 28.93 4.23 49.75 1 61.88-9.64 13.6-11.92 12.4-33 8.83-72.4-4.17-46.12-9.36-103.53 19.78-169.5 22.06-50 60.82-97.58 106.32-130.66 24.68-17.94 50.48-31.1 76.7-39.12 29.15-8.92 58.1-11.24 86.08-6.92 34.55 5.35 69.2 20.88 97.6 43.73 32.6 26.24 54.08 59.73 62.13 96.86 6.6 30.4 4.83 66.52-4.7 96.6-12.26 38.65-36.7 66.3-68.82 77.83-11.23 4.012-23.074 6.043-35 6-49.4 0-90.4-33.45-95.84-38.08a25 25 0 1 1 32.42-38.06c.43.36 43.66 36.65 81.5 23.06 21.92-7.87 32.8-29.3 38.06-45.9 6.9-21.8 8.25-49 3.5-70.9-7.07-32.63-28.16-55.26-44.6-68.5-21.34-17.18-48.27-29.3-73.9-33.27-28.1-4.34-72.73-1.44-125.72 37.07-38.58 28.05-71.38 68.3-90 110.42-23.9 54.16-19.56 102.32-15.72 144.8 4 43.84 7.7 85.25-25.67 114.5-18.03 15.9-42.34 23.82-72.46 23.82zm-724.62-138.46c-34.427 0-62.37-27.844-62.5-62.27-.35-95.35 34-193.1 99.3-282.65 56-76.83 132.08-142.1 208.64-179.1 31.085-15.02 68.46-1.995 83.48 29.1s1.995 68.46-29.1 83.48c-58.66 28.35-117.72 79.46-162 140.22-34.53 47.35-75.62 122-75.3 208.54.06 16.576-6.465 32.497-18.143 44.262s-27.55 18.407-44.127 18.468l-.27-.03z" class="i"/><path d="M1251 3260.17c-8.628-.005-17.186-1.552-25.27-4.57-21.18-7.88-38.24-24.2-50.7-48.5a150.31 150.31 0 0 1-15.12-48.05c-2.1-14.594-1.384-29.455 2.1-43.78 5.57-22 17.94-40.42 35.76-53.2 25.532-18.27 59.92-18.028 85.195.595s35.7 51.398 25.805 81.195a72.53 72.53 0 0 1-57.78 116.29z" class="g"/><path d="M1514.5 3526.24c-1.28 0-2.56 0-3.86-.08-52.422-2.096-93.22-46.288-91.13-98.7 4.64-116.2 33.54-197 54.63-256 6.3-17.6 11.74-32.82 15.66-46.38 9.263-32.792 35.38-58.112 68.443-66.355s68 1.855 91.582 26.462 32.16 59.954 22.505 92.633c-5.55 19.23-12.22 37.88-19.28 57.62-18.85 52.7-40.2 112.44-43.7 199.6-2.028 50.93-43.89 91.185-94.86 91.22z" class="i"/><path d="M1560 3556.6c-7.226-.002-14.404-1.167-21.26-3.45-27.72-9.2-93.83-15.48-147.7.23-35.79 10.434-73.262-10.124-83.695-45.915s10.124-73.262 45.915-83.695c46.2-13.47 92.28-15.5 122.8-14.82 39.22.86 76.58 6.57 105.2 16.06 31.447 10.426 50.682 42.13 45.402 74.838s-33.512 56.75-66.642 56.752z" class="g"/><path d="M1785.37 3528.07c-50.32-.045-91.878-39.32-94.76-89.56-5-87.08-27.4-146.43-47.17-198.8-7.4-19.6-14.4-38.14-20.28-57.27-15.44-50.145 12.695-103.31 62.84-118.75s103.31 12.695 118.75 62.84c4.15 13.5 9.85 28.6 16.46 46.1 22.12 58.62 52.42 138.9 59.1 255 1.444 25.155-7.163 49.853-23.93 68.66s-40.316 30.185-65.47 31.63c-1.85.1-3.7.16-5.53.16z" class="i"/><path d="M1740 3556.6c-33.156.032-61.427-24.018-66.712-56.75s13.98-64.457 45.462-74.86c28.62-9.5 66-15.2 105.2-16.06 30.5-.67 76.6 1.35 122.8 14.82 35.796 10.422 56.367 47.89 45.945 83.686s-47.89 56.367-83.685 45.944c-53.88-15.7-120-9.43-147.7-.23-6.866 2.285-14.054 3.45-21.3 3.45z" class="g"/><path d="M2061.42 3137.38a62.52 62.52 0 0 1-46.413-20.57c-11.865-13.112-17.623-30.636-15.847-48.23 5.42-53.52-18.62-122.2-65.95-188.4-44.74-62.6-107-117.4-162.44-143a62.5 62.5 0 0 1-10.235-108.202 62.5 62.5 0 0 1 62.655-5.269c37.53 17.33 76.84 43.5 113.66 75.63 36.7 32.183 69.608 68.47 98.05 108.15 65.7 91.92 97.2 189.1 88.63 273.68-3.235 31.885-30.06 56.16-62.1 56.2z" class="i"/><path d="M2046.8 3259.9c-27.296-.004-52.28-15.332-64.648-39.666s-10.027-53.55 6.058-75.604c-10.432-29.635-.6-62.616 24.377-81.688s59.376-19.892 85.223-2.032c18 12.46 30.73 30.63 36.68 52.55a115.44 115.44 0 0 1 2.88 43.75c-4.06 35.05-23.3 81.66-64.13 97.67a72.44 72.44 0 0 1-26.44 5.02z" class="g"/><path d="M1675.55 2468.72c55.3 3.4 93.4 43.63 127.17 80.31 39.32 42.72 80.12 104.46 119 245.3 39.4 142.77 45.88 220.06 45.88 292 0 153.62-140.68 305.1-320 306.63-175.53 1.5-319-153-319-306.63 0-72.8 12.64-145.3 62.27-292.3 48.16-142.67 92.57-200.23 125.82-235.1 37.52-39.33 90.03-94.43 158.86-90.2z" class="i"/><path d="M1647.3 2512.77c41-.36 82.22 51.85 113.58 106.22 48.06 83.32 65.36 157.62 70.56 181.37 32.46 148.28 54.24 271.27-6 346.6-59.9 74.9-132.36 85.58-175.4 85.58-47.55 0-118.32-8.27-177.4-81.9-58.83-73.3-34.76-194.73 3.5-350.46 3.93-16 38.3-103.8 95.44-210.33 18.2-34 42.82-76.8 75.73-77.1zm-1133.5-676c-109.3 103.92-60.9 310.4 16.55 426.94 110.37 166.07 358.2 267.53 482.6 176 129.94-95.63 107.64-388.85-48.6-538.55-116.65-111.8-337.5-171.86-450.54-64.4z" class="g"/></g><path d="M645.57 1954.6c-64.75 69.33-26.65 197.17 26.33 267.46 75.5 100.15 234.9 154.6 309.6 92.47 78-64.9 53.06-248.18-50.63-336.34-77.4-65.83-218.33-95.3-285.3-23.6z" fill="#FFC9A1"/><path d="M2783.2 1832.12c111.1 102 66.32 309.3-9.1 427.16-107.46 168-353.47 273.75-479.46 184.37-131.58-93.35-114.4-386.92 39.2-539.32 114.68-113.78 334.45-177.7 449.35-72.2z" class="c e g"/><path d="M2653.5 1952.22c66 68.2 30.1 196.68-21.65 267.88-73.75 101.45-232.17 158.7-307.94 97.86-79.14-63.53-57.4-247.22 44.75-337.18 76.26-67.16 216.64-99.08 284.84-28.56z" fill="#FFC9A1"/><g class="c e"><path d="M2150.32 839c42.32-35.85-124.32-76-146.52-139.5-26.8-76.5 395.6 127.1 331.57 261.08-5 10.5-55.43 94-417.6-23.77C2315.92 1066 2615.92 1340 2614.5 1847.06c-1.1 388.75-348.57 990.75-964.93 996.12-594.62 5.2-966-596.16-964.93-996.12 1.32-488.44 432.22-991 966.1-1028.56 319.4-22.45 464.56 50.1 499.6 20.5z" class="i l"/><path d="M1649.57 1320.55c19.15-.16 112.4-116.75 268-116.74 223.53 0 482 324.76 482.28 643.25.16 205.85-111.65 252-111.45 275.7.2 21.13 236.88 22.58 236.88 254.7 0 209.25-420.37 512-840.86 524.16-461.3 13.34-910.3-319.74-910.3-497.74 0-232.44 237-260.58 236.85-281.27s-111.76-76.15-111.93-275.55c-.26-318.5 259.27-643.25 482.47-643.25 172.43-.01 245.34 116.94 268.07 116.74z" fill="#FFCD98"/></g><g fill="#3D0C0C"><path d="M2248.46 2330.77c32.4-4.6 56 22.77 47.08 55.45-11.75 43.1-35 85.68-67.74 125.82-7.453 9.153-15.4 18.153-23.87 27-115.5 121.7-320.37 213.48-554.36 213.08-234 .4-438.88-91.4-554.37-213.08-8.447-8.86-16.403-17.86-23.87-27-32.77-40.14-56-82.73-67.74-125.83-8.9-32.67 14.68-60 47.08-55.44 397.27 56.43 800.52 56.43 1197.8 0z"/><path d="M1651 2770.57h-3c-112.73 0-225.78-21.46-327-62.1-95.65-38.4-178.38-92.6-239.24-156.73-8.78-9.2-17.13-18.66-24.8-28.07-34.94-42.8-58.9-87.4-71.24-132.62-6-21.92-1.43-43.5 12.46-59.24 13.5-15.3 33.55-22.34 55-19.3 197.53 28.062 396.796 42.146 596.3 42.15a4238.45 4238.45 0 0 0 596.3-42.15c21.45-3.05 41.5 4 55 19.3 13.88 15.73 18.42 37.32 12.45 59.24-12.32 45.2-36.3 89.82-71.25 132.63-7.7 9.47-16.06 18.92-24.8 28.1-60.83 64.1-143.56 118.3-239.2 156.7-101.1 40.63-214.15 62.1-326.98 62.1zm-1.5-36.85c108.65.2 217.5-20.37 314.78-59.43 90.77-36.45 169-87.6 226.25-147.9 8.1-8.5 15.82-17.24 22.95-26 31.68-38.8 53.3-78.85 64.25-119 2.65-9.73 1-18.9-4.53-25.17-5.23-5.92-13.1-8.47-22.18-7.18a4275.86 4275.86 0 0 1-1203 0c-9.08-1.3-17 1.26-22.18 7.18-5.53 6.27-7.18 15.44-4.53 25.17 11 40.2 32.57 80.24 64.24 119 7.07 8.68 14.78 17.4 22.93 26 57.27 60.34 135.5 111.5 226.27 147.93 96.85 38.9 205.16 59.44 313.3 59.44l1.46-.03z" class="a"/></g><path d="M2295.54 2386.2c-11.75 43.1-35 85.7-67.74 125.83l-72.45 9.3-13.33 1.58a4258.44 4258.44 0 0 1-968 1.93l-17.87-2.06-84.78-10.74c-32.77-40.14-56-82.73-67.74-125.83-8.9-32.67 14.68-60 47.08-55.44l15.65 2.2 14.74 2a4258.53 4258.53 0 0 0 1153.33-2.23l10.13-1.4 3.94-.56c32.35-4.6 55.94 22.78 47.04 55.45zm-91.6 152.86c-48.1 50.68-111.7 96.17-186.44 132a794.96 794.96 0 0 1-90.22 36.51c-84.24 28.3-178.35 44.76-277.7 44.6a874.34 874.34 0 0 1-243.1-33.8 814.2 814.2 0 0 1-94.37-33.52c-88-37.57-162.38-88.32-216.88-145.75l81.2 9.87 15.55 1.7a4257.87 4257.87 0 0 0 932.16-1.87l11-1.25 68.8-8.48zm-795.64-1136c154.9 18 266.48 208.75 250 376.77-16.38 167.34-162.7 342-329.88 323-151.8-17.3-250.26-186.22-253.5-328.16-4.3-190.16 160.84-391.67 333.38-371.6z" class="f"/><path d="M1378.695 1997.093c-98.035-19.02-159.7-126.917-137.595-240.795s119.624-190.9 217.66-171.87 159.7 126.918 137.595 240.796-119.624 190.9-217.66 171.87z" fill="#54C394" class="c e"/><ellipse cx="1429.83" cy="1823.1" rx="105.94" ry="118.46" class="j"/><g class="f"><path d="M1470.043 1764.266c-22.07-7.81-33.945-31.23-26.5-52.266s31.408-31.772 53.48-23.96 33.945 31.23 26.5 52.266-31.408 31.772-53.48 23.96z" class="c e"/><path d="M1884 1398.9c-154.54 20.68-262.8 213.36-243.4 381.08 19.3 167 168.63 339.1 335.47 317.13 151.47-19.94 247-190.55 247.73-332.52.98-190.16-167.66-388.73-339.8-365.7z"/></g><path d="M1703.112 1824.644c-24.078-113.475 35.684-222.43 133.372-243.16s196.548 54.57 220.627 168.045-35.684 222.43-133.372 243.16-196.548-54.57-220.627-168.045z" fill="#54C394" class="c e"/><path d="M1763.85 1821.11c-1.142-65.37 45.395-119.27 103.856-120.3s106.85 51.223 107.99 116.593-45.395 119.27-103.856 120.29-106.85-51.224-107.99-116.594z" class="j"/><path d="M1884.45 1741.366c-7.8-20.902 3.653-44.526 25.584-52.72s46.078 2.12 53.89 23.023-3.653 44.526-25.584 52.72-46.078-2.12-53.89-23.023z" class="c e f"/><path d="M1434.05 2081.38c0 75.28 98.57 166.65 215.68 165.63 107.93-.94 213.18-91.24 213.18-165.4 0-59.68-124.17-112.16-213.18-111.4-82.63.72-215.68 40.57-215.68 111.17z" fill="#775A42"/><g class="j"><path d="M784.5 2454.76c-97.43-32.35-195.32-102.5-254.16-191-77.46-116.54-125.85-323-16.55-426.94 45.17-42.94 107.55-59.13 173.62-56l-.8 10.6c-50.6 4.15-97.1 21.38-132.83 55.35-109.3 103.92-60.9 310.4 16.55 426.94 50.3 75.7 129.16 138 211.87 174.64.7 2.12 1.48 4.25 2.3 6.4zm1989.6-195.48c-60.7 94.85-165.55 169.87-268 201.12l2.26-5.3c88.2-36.93 173.43-104 225.78-185.82 75.4-117.87 120.2-325.17 9.1-427.16-35.38-32.48-80.7-48.9-129.86-52.74l-.5-10.44c64.45-3.4 125.42 11.93 170.36 53.18 111.06 102 66.28 309.3-9.13 427.16z" class="b"/><path d="M1862.9 2101.6c0 74.17-105.25 164.47-213.18 165.4-117.1 1-215.68-90.35-215.68-165.63a54.13 54.13 0 0 1 .71-8.78c9 72.83 103.62 155.38 215 154.4 102.38-.9 202.34-82.18 212.35-153.85.54 2.78.808 5.607.8 8.44z" class="d"/><path d="M1160.9 2523.35l-4.8-.56-84.78-10.75c-32.77-40.14-56-82.73-67.74-125.82-8.9-32.68 14.68-60 47.08-55.45l18.12 2.53c19.6 65.9 49.4 130.34 92.1 190.05zM1385.54 2712c-25.38-8-49.867-17.067-73.46-27.2-88-37.57-162.38-88.32-216.88-145.75l83.7 10.14c52.43 61.8 120.22 117.44 206.65 162.8zm910-325.78c-11.75 43.08-35 85.68-67.74 125.82l-72.45 9.3-16.47 1.94c42.55-59.77 72.34-124.18 92-190.06l3.48-.47 10.12-1.4 3.94-.56c32.43-4.6 56.02 22.77 47.12 55.45zm-91.6 152.84c-48.1 50.68-111.7 96.17-186.44 132a795.27 795.27 0 0 1-90.22 36.52l-11.32 3.7c85.48-45.4 152.78-100.72 205.06-162.16l3.1-.34 11-1.26 68.8-8.47z" class="h"/><path d="M1983.57 957.05l1.8.5-11.62-3.74 9.8 3.23zm231.6-95.7c-53.4 62.4-211.8-40-531.22-17.54-533.87 37.53-942 531.82-943.3 1020.27-.3 106.94 28.6 233.52 78.72 353.8 58.8-73.84 151.53-99.67 178.6-114.16 7.94 8.57 13 14.5 13 18.9v.36a1.89 1.89 0 0 1 0 .26c-.083.386-.232.755-.44 1.1l-.17.28c-.47.666-1.03 1.265-1.66 1.78l-.32.26a37.88 37.88 0 0 1-6.52 4l-1.6.8c-3.74 1.83-8.36 3.82-13.67 6l-19.3 8-3.1 1.3-13 5.67-3.4 1.54-6.96 3.24-7.15 3.46-1.8.9-1.82.9-3.67 1.87-11.18 5.94-7.56 4.3-3.9 2.3-9.44 5.9-1.9 1.24-5.74 3.84-1.9 1.32c-3.18 2.22-6.35 4.514-9.5 6.88a326.67 326.67 0 0 0-7.54 5.87l-5.6 4.62c-.62.5-1.24 1-1.85 1.58l-1.84 1.6a128.45 128.45 0 0 0-3.66 3.27l-1.82 1.67-1.8 1.7-3.42 3.28-1.95 1.93-3.52 3.6-1.74 1.83c-2.32 2.447-4.603 4.964-6.85 7.55l-3.33 3.92-1.65 2a188.17 188.17 0 0 0-3.82 4.8c-1.16 1.486-2.297 2.997-3.4 4.53l-.3.4-.95 1.32-.94 1.33-1.7 2.4-2.56 3.8c-.13.18-.25.35-.36.53l-.57.85-.32.5-2 3.2a31.37 31.37 0 0 0-1 1.641l-3.08 5.13c-.15.25-.3.5-.43.75l-2.92 5.22c-.005.026-.005.054 0 .08l-1.44 2.7-1.43 2.75c-76.27-147.6-117-302.56-116.6-435.33 1.32-488.45 432.22-991 966.1-1028.57 319.4-22.45 464.56 50.1 499.6 20.46 42.18-35.75-124.46-75.9-146.65-139.4-8.57-24.46 28.82-20.27 81.55 1.13-20-2.88-31 1.83-25.55 15.87 19.38 50.4 194.5 99.08 155.35 144.83z" class="d"/><path d="M1040.82 2108.6c0 3.67-23.8 15.25-36.4 20.62 4.23-2.4 6.58-4.54 6.58-6.6-.18-20.6-111.76-76.15-111.93-275.54v-6.48a175.63 175.63 0 0 1 .1-5.95c10.27 177.4 141.5 254.34 141.66 273.95z" class="h"/><path d="M1287.84 3250.1a72.31 72.31 0 0 1-62.11 5.5c-21.18-7.88-38.24-24.2-50.7-48.5-7.707-15.052-12.82-31.297-15.12-48.05-2.1-14.594-1.384-29.455 2.1-43.78 1.45-5.753 3.418-11.362 5.88-16.76-.22-2.103-.333-4.216-.34-6.33-.33-90.45 30.55-183 89.47-268.77l.85.32 30.5 11.32c-49.47 78.73-85.32 140.9-85 223.4-17 21.83-12.63 82.94.5 114.5 27.14 65.18 76.6 76.82 83.98 77.14z" class="b"/><path d="M2294.33 2128.38c-12.95-5.65-34.48-16.28-34.45-19.77.16-18.9 121.63-90.8 139.95-254.23-2.45 199.63-111.6 244.95-111.4 268.37.02 1.98 2.12 3.8 5.9 5.63z" class="h"/><path d="M1624.07 3510.34a67.43 67.43 0 0 1-85.32 42.82c-27.72-9.2-93.83-15.48-147.7.23-22.1 6.437-45.958 1.172-63.297-13.97a67.52 67.52 0 0 1-22.363-60.84 69.49 69.49 0 0 0 2 8.9c10.44 35.8 47.907 56.345 83.7 45.92 53.88-15.7 120-9.43 147.7-.23a67.51 67.51 0 0 0 88-54.08 67.09 67.09 0 0 1-2.72 31.26zm368.6-2.87a67.45 67.45 0 0 1-83.7 45.92c-53.88-15.7-120-9.43-147.7-.23a67.51 67.51 0 0 1-88-74.08 67.45 67.45 0 0 0 88 54.08c27.72-9.2 93.83-15.48 147.7.23a67.45 67.45 0 0 0 83.7-45.92 69 69 0 0 0 2-8.89 67.06 67.06 0 0 1-2 28.9z" class="d"/><path d="M2137.37 3157.2c-4.06 35.05-23.3 81.66-64.13 97.67-19.976 7.863-42.413 6.445-61.24-3.87 10.47-1.34 56.85-14.72 82.77-77 13.12-31.56 17.35-93 .34-114.84.3-78.53-32-149-77.8-223.56l29.3-11c57.7 86.8 84.94 177.3 76.9 256.66-.2 1.87-.47 3.7-.8 5.5 5.26 8.274 9.23 17.3 11.77 26.77 3.738 14.236 4.72 29.056 2.9 43.66z" class="b"/><path d="M1609.44 3433.13l-.08 1.9-.58 7.4a67.23 67.23 0 0 0-27.53-17.4c-28.62-9.5-66-15.2-105.2-16.06a459.36 459.36 0 0 0-55.71 2.13l.68-10.07a462.92 462.92 0 0 1 55-2.06c39.22.86 76.58 6.57 105.2 16.06a67.16 67.16 0 0 1 28.22 18.11zm269.73-22.13c-18.334-1.765-36.757-2.433-55.17-2-39.22.86-76.58 6.57-105.2 16.06-10.592 3.497-20.146 9.576-27.8 17.7a82.85 82.85 0 0 1-.34-4.2l-.32-5.1c7.757-8.466 17.556-14.8 28.46-18.4 28.62-9.5 66-15.2 105.2-16.06a462.75 462.75 0 0 1 54.36 2l.8 10z" class="b"/><path d="M1433.72 3308.76c48.55 44.14 110.63 75 179.06 82.5a485.32 485.32 0 0 0-1.54 14.83c-69-7.92-131.44-39.58-180-84.6l2.48-12.73zm432.6 11.14c-47.76 44.3-109.47 75.84-178.6 85.2l-1.9-14.74c68.6-8.88 130-39.6 177.8-83l2.7 12.53z" class="b"/><path d="M1967.6 3086.38c0 153.62-140.68 305.1-320 306.63-175.53 1.5-319-153-319-306.63 0-10 .24-20.06.8-30.27 11.56 146.84 150.22 288.35 318.23 286.9 172.85-1.48 309.8-142.3 319.43-290.07.4 11.4.55 22.5.55 33.44z" class="d"/><path d="M1825.4 3147c-59.9 74.88-132.36 85.57-175.4 85.57-47.55 0-118.32-8.27-177.4-81.9-27.7-34.52-37-79.73-35.13-134.17 1.64 43 12 79.3 35.13 108.17 59.1 73.62 129.86 81.9 177.4 81.9 43 0 115.5-10.7 175.4-85.57 25.37-31.72 36.2-71.88 37.82-118.83 1.77 58.18-7.88 107.37-37.82 144.83z" class="b"/><path d="M2046.63 2824.52c-35 13.72-71 26-107.74 36.45l-16.56 4.6c-77.34 20.83-157.6 33.74-237.88 36.06-102.94 3-205.27-11.3-302.13-37.25l-13-3.57c-38.43-10.76-76-23.34-112.26-37.4-7.24 10.54-14.053 21.173-20.44 31.9 39.65 16.15 80.106 30.237 121.2 42.2l1.17-1.73-.53 1.92c103.84 30.14 214.56 47.13 326 43.9 88.47-2.56 176.94-18 261.5-42.7l1.36-.4a1194.8 1194.8 0 0 0 119.15-42c-6.153-10.7-12.767-21.37-19.84-32z" class="d"/><path d="M2002.6 3244.86c-21.27 18.38-65.08 13.14-91.57 9.3a312.91 312.91 0 0 0 10.07-14.94c3.86.76 7.607 1.407 11.24 1.94 26.64 3.9 46.4 1.46 58.83-7.25a71.2 71.2 0 0 0 11.43 10.94zm358.62-163.96a48.04 48.04 0 0 0 6.4-2.83 51.65 51.65 0 0 1-21.4 14.83c-37.83 13.6-81.06-22.7-81.5-23.06a25 25 0 0 0-23.13-5 24.24 24.24 0 0 1 2.9-4.2c8.953-10.5 24.73-11.77 35.24-2.82.43.38 43.66 36.66 81.5 23.07zm85.72-30.78c-9.47 29.84-26.2 53.12-48.1 67.5 14.6-14.05 25.94-32.88 33.1-55.5 9.54-30.08 11.3-66.18 4.7-96.6-8.05-37.13-29.53-70.63-62.13-96.87-28.4-22.85-63.05-38.38-97.6-43.73-28-4.32-56.93-2-86.08 6.92-26.2 8-52 21.2-76.7 39.12l-3.77 2.78a320.38 320.38 0 0 1 18.77-14.78c24.68-17.93 50.48-31.1 76.7-39.12 29.15-8.92 58.1-11.24 86.08-6.92 34.55 5.35 69.2 20.88 97.6 43.73 32.6 26.24 54.08 59.74 62.13 96.87 6.6 30.4 4.83 66.47-4.7 96.6z" class="k"/><path d="M1862.9 2081.6c0 74.17-105.25 164.47-213.18 165.4-117.1 1-215.68-90.35-215.68-165.63-.001-3.12.263-6.235.8-9.3 42.18 52.17 123.35 95.66 214.4 94.95 85.1-.67 168.7-45.3 211.9-97.87a45.33 45.33 0 0 1 1.78 12.45z" class="k"/><path d="M1484.52 1427a214.37 214.37 0 0 0-31.9-6.17c-175.15-20.17-342.8 182.73-338.4 374.18 2.47 107.25 59.36 229.8 152.7 291.65-116.4-48.78-189.2-190.33-192-312-4.33-190.1 160.82-391.6 333.36-371.55 26.673 3.188 52.526 11.288 76.25 23.9zm739.25 337.6c-.66 123.27-72.75 268.13-190.88 317.2 95.3-61.62 152.08-188.08 152.66-297.55 1-190.6-168-389.6-340.57-366.52a211.81 211.81 0 0 0-45.38 11.34c26-15.6 54.3-26.14 84.37-30.17 172.17-23.04 340.8 175.53 339.8 365.7z" class="h"/><path d="M1512.25 1605.54a160.45 160.45 0 0 0-13.25-3.16c-99.1-19.24-197.56 58.5-219.9 173.6-16.75 86.35 14.07 169.22 72.35 213.35-81.88-32-130.23-129.93-110.25-232.9 22.12-114 119.58-190.9 217.68-171.85 18.918 3.673 37.005 10.773 53.37 20.95zm432.85 380.86c60.86-43.65 92.6-129.07 73.87-217.3-24.16-113.85-123.2-189.28-221.22-168.48a157.2 157.2 0 0 0-17.52 4.78 157.99 157.99 0 0 1 56.34-24.1c97.76-20.75 196.54 54.48 220.65 168 22.3 105.1-27.16 206.17-112.12 237.1zm454.3-188.34c0 6.467-.104 12.78-.3 18.94-15.7-308.54-265-613.2-481.5-613.2-155.64 0-248.88 116.58-268 116.74-22.73.2-95.64-116.74-268-116.74-215.85 0-465.7 303.73-481.65 611.8l-.18 3.62c0 1.22-.1 2.43-.16 3.65l-.14 3.63c-.52-9.14-.8-18.626-.8-28.46-.26-318.5 259.27-643.25 482.47-643.26 172.4 0 245.3 117 268 116.75 19.15-.17 112.4-116.75 268-116.75 223.53.01 482.04 324.77 482.28 643.26z" class="d"/><path d="M2525.3 2377.46c0 209.26-420.37 512-840.86 524.16-461.3 13.34-910.3-319.74-910.3-497.74 0-4.76.1-9.427.3-14 38.6 182.8 468.4 486 909.44 473.26 406.2-11.75 812.27-294.1 841-502.25.287 5.407.43 10.93.43 16.57z" class="b"/><path d="M2614.5 1847.07c-.36 127.74-38.12 278.5-110.54 423.57-58.2-126.52-215.38-130.67-215.53-147.9 0-3.44 2.3-7.34 6.3-12.14 29.88 12.38 135.9 21.8 193.55 102.1 59.3-132.15 86.52-259.16 86.84-374.86 1.43-510.1-312.88-784.54-713.42-914.5 35.1 11.4 34.68 6.38 56.06 13.48C2315.92 1066 2615.92 1340 2614.5 1847.07z" class="d"/></g><g class="c"><g class="e"><path d="M740.7 932.83c53.75 66.75 147.1 174.85 218.67 240.53 24.85-89.7 186.7-206 286.85-247.77s486.93-141.1 519.5-139.24c-1.83-35.7-37-308.27-37-308.27s-131.56 22.1-269.2 66c-98.86 31.53-208.4 85.25-239.32 99.07-73.98 33.05-533.24 222.94-479.5 289.68z" fill="#FFDF8F"/><g fill="#F7CA4D"><path d="M1662.56 48.32a45.93 45.93 0 0 0-2.25 82.47c7.2 78.7 17.68 299.8-85.53 347-74.16 33.92-111 4.34-132.57-31.1 18.745-13.617 24.744-38.877 14.123-59.47s-34.68-30.347-56.642-22.97-35.25 29.683-31.285 52.5 24 39.34 47.164 38.878c-2.17 52.87-19.35 101.35-78 128.18-65.78 30.08-151.5-60.06-201.9-118 18.208-13.957 23.125-39.314 11.453-59.065s-36.257-27.674-57.265-18.455-31.823 32.676-25.2 54.638S1093.3 478.44 1115.9 474.5c16.65 77.17 20.24 197-40.58 224.86-57.93 26.5-121 3.14-159.92-23.1 16.368-16.497 17.647-42.686 2.965-60.7s-40.59-22.043-60.05-9.34-26.193 38.044-15.61 58.733 35.076 30.053 56.764 21.705c8.6 39.55 1.86 91.57-57.8 118.86-78 35.68-143.46-5.23-320.8-155.27 10.806-20.28 5.335-45.4-12.925-59.35s-43.937-12.622-60.66 3.137-19.573 41.31-6.733 60.368 37.594 26.008 58.48 16.425c1.878-.897 3.704-1.898 5.47-3 63.26 64.84 364.33 411.95 364.33 411.95s91.3-101.75 415.26-250c306.08-140 469-146.38 469-146.38l-64.76-547.8c17.878-2.51 32.636-15.243 37.735-32.56a46 46 0 0 0-63.425-54.749l-.05.04zm-641.28 829.13l-56.22-35.9 10.76-65.83 55.4 35.87-9.94 65.85zM1262.73 767l-56.2-35.9 10.72-65.84 55.44 35.88-9.96 65.86zM1505 656.16l-56.23-35.9 10.75-65.83 55.4 35.87-9.93 65.87z" class="a"/><path d="M959.4 1173.4c238.14-213.14 513.8-329.76 809.1-358.54l-10.8-106.16c-317.55 59.325-616.55 192.968-872.55 390l74.25 74.7z"/></g></g><path d="M1768.5 814.8c-295.3 28.8-571 145.4-809.1 358.55l-74.26-74.68 11.82-9 53.7 53C1188.8 929.48 1452.9 817 1748.2 788.17c-2.12-20.35-3.9-55.7-6-76.55l15.52-3 10.8 106.2z" stroke="#000" class="b j"/></g><g fill="#FFE8B6"><circle cx="870" cy="639.07" r="26.77"/><circle cx="1097.3" cy="420.76" r="26.77"/><circle cx="1402.2" cy="397.88" r="26.77"/><circle cx="1670.1" cy="80.17" r="26.77"/><circle cx="467.21" cy="617.53" r="26.77"/></g><g class="j"><g stroke="#000" class="c"><path d="M1688.2 135.63c-18.15 7.55 44.4 520.53 44.4 520.53s-153.9 2-460 142c-324 148.2-406.76 248.65-406.76 248.65s-325.05-385.4-361.46-379c63.26 64.84 364.33 411.95 364.33 411.95s91.3-101.75 415.26-250c306.08-140 469-146.4 469-146.4l-64.78-547.74z" class="b l"/><path d="M1660.9 137.22l.4 4.8c.84.57.26-2.02-.4-4.8zm.4 4.8c6.94 86.66 12.17 290.66-86.5 335.78-64.58 29.55-100.87 10.93-123.4-17.78-.06.05-.16 0-.3-.13 23.8 31.94 65.56 62.7 130.7 32.9 98.65-45.15 87-262.95 79.5-350.8v.02zm-1-11.24c-1.13-.6-.2 3.12.58 6.44l-.57-6.44h-.01zm-210.8 326.9c.46.775.993 1.505 1.6 2.18l-1.6-2.18zm-7.3-11a163.13 163.13 0 0 0 7.29 11c-2.5-3.92-6.75-11.4-7.3-11v.01zm-27 17.34l.4-8.4c-1.52.02-.9 4.43-.46 8.36l.05.03zm0 0l-.4 6.08c.93-.1.7-2.98.35-6.1l.05.03zm-.6 6.08c-4.68 47.14-23.75 89.35-77 113.7-61.4 28.08-140.17-48.57-191.37-106 52 59.22 137 149.12 198.42 121 53.37-24.4 66.6-79.2 70.18-128.7h-.23zm-273.32 2.06c2.18 3 4.3 5.94 4.9 5.63l-4.9-5.63zm-5.57-6.4l5.57 6.4c-2.47-3.37-4.98-6.9-5.62-6.4l.05.01zM1119 490c13.78 76.82 13.24 183.3-43.64 209.34-52 23.8-108.13 7.4-147.2-15.15-.044.077-.106.142-.18.2 40.23 25.1 102.24 53.83 154.4 30 56.88-26.12 51.25-145.9 36.64-224.38zm-1.25-6.57L1119 490c.5-.24-.3-3.28-1.25-6.62v.05zm-1.85-8.93c-.72.13.66 4.74 1.84 8.9l-1.84-8.95v.05zM922.74 681.06c2.24 2.13 4.32 4 5.2 3.3l-5.2-3.3zm-7.33-4.84l7.33 4.84c-2.94-2.77-6.15-6.06-7.33-4.84zm-13.18 26.55a.37.37 0 0 1-.22.3c3.3 36.58-8.65 78.77-60.34 102.4-75.57 34.57-139.37-2.77-304.55-141.53 165.6 139.68 236 191.1 311.55 156.53 52.14-23.85 58.5-78.03 53.56-117.7zm-.57-4.12c.2 1.35.4 2.72.57 4.12a13.01 13.01 0 0 0-.57-4.12zm-2.18-12c-1 .38 1.1 7.3 2.18 12-.65-4.23-1.36-8.26-2.18-12.04v.04zm-373.36-32c2.16 2.57 4.25 5 4.63 3.9l-4.63-3.9v-.01zm-5.27-4.45l5.27 4.45c-2.3-2.65-4.7-5.54-5.27-4.44v-.01z" class="a b"/></g><g class="h"><path d="M977 784l23.2 48.73-32.1 5.74z"/><use xlink:href="#C" class="a"/></g><g opacity="0"><path d="M981.9 782.64l45.1 29.22-22.2 18.76z"/><path d="M988 789.54l34.9 22.6-17.2 14.5-17.7-37.08zm-12.13-13.8l28.1 58.9 27.3-23-55.4-35.9z" class="a"/></g><g class="d"><path d="M971.8 842.9l30.6-5.46 13.6 33.68z"/><path d="M1000.8 840.25l10 24.55-32.22-20.57 22.27-4-.05.02zm3.16-5.65l-38.86 6.94 56.22 35.9-17.36-42.83z" class="a"/></g><g class="k"><path d="M1006.9 835.36l20.9-17.57-7.6 50.27z"/><path d="M1024.3 824l-5.24 34.68-9.15-22.56 14.4-12.12zm6.92-12.38l-27.3 23 17.36 42.83 9.94-65.83z" class="a"/></g><g class="h"><path d="M1218.5 673.54l23.2 48.73-32.1 5.74z"/><use xlink:href="#C" x="241.4" y="-110.48" class="a"/></g><g opacity="0"><path d="M1223.4 672.17l45.1 29.23-22.3 18.75z"/><use xlink:href="#D" class="a"/></g><g class="d"><path d="M1213.3 732.43l30.5-5.46 13.7 33.68z"/><path d="M1242.3 729.8l10 24.54-32.28-20.57 22.27-4V729.8zm3.1-5.67l-38.86 6.94 56.24 35.94-17.38-42.88z" class="a"/></g><g class="k"><path d="M1248.4 724.9l20.8-17.57-7.6 50.27z"/><path d="M1265.8 713.5l-5.24 34.68-9.14-22.55 14.38-12.13zm6.92-12.38l-27.3 23L1262.8 767l9.93-65.87z" class="a"/></g><g class="h"><path d="M1460.7 562.7l23.3 48.73-32.2 5.74z"/><path d="M1461.9 571l18.4 38.56-25.44 4.55 7-43.1h.04zm-2.4-16.56l-10.75 65.83 38.85-6.94-28.1-58.9z" class="a"/></g><g opacity="0"><path d="M1465.6 561.34l45.1 29.23-22.2 18.75z"/><use xlink:href="#D" x="242.3" y="-110.83" class="a"/></g><g class="d"><path d="M1455.5 621.6l30.6-5.46 13.6 33.7z"/><path d="M1484.5 619l10 24.54-32.23-20.57 22.27-4-.04.03zm3.15-5.67l-38.85 6.94 56.18 35.88-17.37-42.83.04.01z" class="a"/></g><g class="k"><path d="M1490.6 614.06l20.9-17.57-7.6 50.27z"/><path d="M1508 602.68l-5.23 34.68-9.15-22.56 14.38-12.12zm6.93-12.38l-27.3 23 17.38 42.85 9.93-65.85z" class="a"/></g></g><path d="M1815.7 3117.5c-49.217-.24-91.832-34.236-103-82.17a97 97 0 0 1 13.58-75.39l.46-.68c14.806-21.932 37.922-36.87 64-41.36 6.05-1.09 12.183-1.638 18.33-1.64 49.217.24 91.832 34.236 103 82.17a97 97 0 0 1-13.58 75.39l-.46.68a97.09 97.09 0 0 1-64 41.36 104.41 104.41 0 0 1-18.33 1.64z" fill="#C2C2C2"/><path d="M1809.1 2918.76c48.047.254 89.64 33.447 100.55 80.24a94.47 94.47 0 0 1-13.23 73.46c-.14.22-.3.44-.44.66a94.68 94.68 0 0 1-62.4 40.3 101.17 101.17 0 0 1-17.9 1.6c-48.04-.252-89.634-33.435-100.55-80.22a94.47 94.47 0 0 1 13.23-73.46l.44-.67a94.62 94.62 0 0 1 62.41-40.29c5.9-1.063 11.884-1.6 17.88-1.6v-.02zm0-4.98c-6.297.004-12.582.566-18.78 1.68a99.58 99.58 0 0 0-65.66 42.42l-.47.7c-15.062 22.764-20.103 50.72-13.94 77.3 12.7 56.268 67.415 92.592 124.2 82.45a99.62 99.62 0 0 0 65.66-42.42l.47-.7c15.062-22.764 20.103-50.72 13.94-77.3-11.423-49.07-55.04-83.877-105.42-84.13zm-79.34 47.5c29.38-43.57 89.88-54.5 135.54-24.3 45.9 30.34 59.4 90.7 30.2 134.83-.14.22-.3.44-.44.66-29.38 43.58-89.88 54.5-135.54 24.3-45.88-30.34-59.4-90.7-30.2-134.83l.44-.67zm-1.87-1.26l-.45.68A94.35 94.35 0 0 0 1713 2997c-2.167 12.626-1.827 25.555 1 38.05a102.01 102.01 0 0 0 15.4 35.36 105.92 105.92 0 0 0 65.91 43.67 101.92 101.92 0 0 0 38.41.45 97.6 97.6 0 0 0 35.33-13.7c11.044-7 20.514-16.218 27.8-27.07l.46-.68a94.4 94.4 0 0 0 14.4-36.28c2.167-12.626 1.827-25.555-1-38.05a101.66 101.66 0 0 0-15.41-35.36 105.92 105.92 0 0 0-65.91-43.67 101.92 101.92 0 0 0-38.41-.45c-12.558 2.217-24.56 6.87-35.33 13.7a94.42 94.42 0 0 0-27.81 27.07l.03-.02z" fill="#333" class="a"/><path d="M1865.3 2937c34.4 22.75 50.6 62.37 44.25 99.38-3.7-31.55-22.94-63.24-54.56-84.15-31.22-20.64-67.42-26.08-97.7-17.6 31.5-19.82 73.9-20.2 108 2.37z" fill="#A0A0A0"/><path d="M1874.1 3086.2c-33.718 23.244-78.373 22.92-111.75-.808s-48.355-65.8-37.48-105.282c-.75 34.47 17.6 70.2 51.14 92.37 31.1 20.5 67.83 24.5 98.1 13.72z" class="f"/><path d="M2186 3298.8c-.63 0-1.28 0-1.92-.08-3.84-.33-50.66-25.8-70.62-36.74l-2.35-1.28 37.38-58.2 2.16 1.64c5.76 4.4 56.47 43.44 60.9 59.9 1.44 5.35-1.28 17-7.5 25.07-4.84 6.34-11.06 9.7-18.06 9.7z" fill="#1A1A1A"/><path d="M2149.15 3206.08s55.67 42.45 60 58.57c1.9 7-5.36 31.6-23.13 31.6-.56 0-1.13 0-1.7-.07-3.73-.33-69.62-36.44-69.62-36.44l34.46-53.67zm-1.28-7.26l-2.92 4.56-37.37 58.18 4.7 2.58 33.46 18.12c34.8 18.62 36.57 18.77 38.14 18.9.72.06 1.44.1 2.14.1 7.77 0 14.7-3.7 20.05-10.67 6.75-8.8 9.54-21.2 7.9-27.24-.77-2.86-3.1-11.54-33.16-37.8-14.42-12.6-28.5-23.34-28.64-23.44l-4.3-3.3z" fill="#333" class="a"/><path d="M2122.3 3271.7c-.717.004-1.428-.135-2.1-.4-4.88-2-209.6-112.35-243.38-131.18a16.46 16.46 0 0 1-7.53-9l-3.37-9.7 61.5-94.13 14.2.8c3.515.2 6.875 1.518 9.6 3.76l208.85 176.05c3.5 4.3 2.35 12.2-3.15 23.76a136.35 136.35 0 0 1-16.95 26.4c-5.12 6.24-12.35 13.66-17.67 13.66z" fill="#1A1A1A"/><path d="M1928.76 3029.85l12.76.7a14 14 0 0 1 8.13 3.19l208.5 175.7c8.58 10.57-24.85 59.7-35.83 59.7-.39.005-.78-.07-1.14-.22-4.9-2-209-112-243.1-131.05-2.987-1.668-5.26-4.37-6.4-7.6l-3-8.54 60.07-91.9zm-2.67-5.15l-62.93 96.37.8 2.32 3 8.54c1.526 4.387 4.612 8.06 8.67 10.32l243.64 131.3a7.84 7.84 0 0 0 3 .6c1.9 0 7.62 0 19.6-14.55a138.84 138.84 0 0 0 17.26-26.9c6-12.68 7-21.32 2.84-26.4-3.85-4.74-194.5-164.22-209.2-176.4-3.113-2.576-6.966-4.093-11-4.33l-15.7-.87z" fill="#333" class="a"/><path d="M2140 3162l.26-1.37.32-1.9.44-2.88.26-1.84.26-2.25.37-4 .22-4a.58.58 0 0 1 0-.13l.07-3.9v-3.98l-.07-1.55v-.7c0-.56-.06-1.12-.1-1.7 0-.74-.1-1.47-.18-2.2 0-.45-.1-.88-.12-1.33l-.54-4.23-.3-1.92-.34-1.9-.37-1.88-.4-1.9-1.43-5.57-.36-1.23-1.38-4.24c-4.23-12.034-10.778-23.122-19.27-32.64-22.45-25.272-58.655-33.142-89.57-19.468s-49.448 45.757-45.85 79.368a77.74 77.74 0 0 0-27.925 53.912c-1.615 21.013 5.37 41.782 19.355 57.548a40.58 40.58 0 0 0 2 2.14l2.06 2.08 1 .94c1.34 1.25 2.72 2.46 4.16 3.62.5.4 1 .8 1.5 1.18 1 .8 2.07 1.56 3.13 2.3.5.35 1 .7 1.52 1l.1.06 1.1.73 2 1.22c.67.4 1.26.74 1.9 1.1a20.12 20.12 0 0 0 .81.45c.47.26 1 .5 1.45.76l.32.16 1 .5 1.7.8a28.46 28.46 0 0 0 1.14.51c.5.23 1 .46 1.54.67l.8.33c.64.26 1.3.52 1.93.75l.26.1c.6.24 1.2.45 1.83.66a44.24 44.24 0 0 0 1.94.62l1.6.47 1.2.32c.153.056.3.1.47.13.42.14.86.24 1.3.35a77.45 77.45 0 0 0 28.82 1.51 81.61 81.61 0 0 0 10.69-2.15 82.46 82.46 0 0 0 10.13-3.39c1.3-.52 2.6-1.08 3.9-1.67s2.54-1.2 3.8-1.86c1.25-.63 2.5-1.3 3.72-2 4.28-2.435 8.384-5.168 12.28-8.18 1.66-1.28 3.3-2.62 4.92-4 1.06-.9 2.12-1.84 3.14-2.8a137.79 137.79 0 0 0 7.47-7.44c.967-1.033 1.907-2.073 2.82-3.12l2.7-3.2a130.09 130.09 0 0 0 3.88-4.91l1.25-1.68 2.4-3.36a127.92 127.92 0 0 0 2.31-3.42l1.1-1.7c1.84-2.867 3.57-5.756 5.2-8.67 1-1.74 1.9-3.5 2.8-5.22.3-.58.6-1.17.88-1.74.593-1.167 1.153-2.327 1.68-3.48a134.93 134.93 0 0 0 2.32-5.16c1-2.3 1.9-4.56 2.7-6.8 2.126-5.698 3.87-11.53 5.22-17.46.2-1.4.5-2.8.8-4.13z" class="c e g"/><path d="M2139.32 3161.42c-1.05 5.987-2.5 11.9-4.3 17.7a176.76 176.76 0 0 1-2.34 6.92l-2 5.28-1.5 3.57-.8 1.78c-.8 1.78-1.64 3.56-2.52 5.36-1.467 2.987-3.04 5.963-4.72 8.93l-1 1.77-2.12 3.53-2.23 3.48-1.16 1.74c-1.173 1.727-2.38 3.43-3.62 5.1a172.06 172.06 0 0 1-2.54 3.35c-.85 1.1-1.75 2.18-2.65 3.26-2.247 2.7-4.6 5.3-7.06 7.83l-3 2.95c-1.54 1.46-3.107 2.876-4.7 4.25-3.742 3.197-7.695 6.14-11.83 8.8-1.2.76-2.4 1.48-3.6 2.2l-3.7 2.05a122.47 122.47 0 0 1-3.8 1.87 91.18 91.18 0 0 1-9.94 3.92c-3.462 1.122-6.993 2.02-10.57 2.7a77.37 77.37 0 0 1-28.86 0l-1.3-.26-.48-.1-1.2-.26-1.6-.4-2-.52c-.68-.18-1.25-.35-1.87-.56l-.26-.07c-.65-.2-1.32-.43-2-.65l-.82-.3c-.53-.18-1-.4-1.58-.6s-.78-.3-1.17-.45a61.98 61.98 0 0 1-1.72-.7l-1-.43-.33-.15-1.48-.7a7.98 7.98 0 0 1-.83-.4c-.67-.3-1.3-.64-2-1l-2.07-1.1-1.14-.67-.1-.06c-.53-.3-1.06-.62-1.58-.95-1.1-.68-2.18-1.4-3.24-2.13l-1.56-1.1c-1.5-1.08-2.94-2.22-4.35-3.4l-1-.9c-.73-.64-1.46-1.3-2.17-2s-1.4-1.33-2.1-2c.52.13 1.05.23 1.58.33 9.536 1.8 19.324 1.8 28.86 0 46.42-8.75 76.15-54.3 87.52-90.66 8.74-28 13.5-75.65 4-98.85 4.644 3.034 8.95 6.557 12.84 10.5 8.994 9.055 16.128 19.784 21 31.58.56 1.38 1.1 2.76 1.6 4.17l.43 1.2c.62 1.8 1.2 3.65 1.72 5.5l.5 1.87.47 1.86.43 1.88.4 1.9a79.75 79.75 0 0 1 .76 4.2c.06.44.14.87.2 1.32a72.59 72.59 0 0 1 .29 2.19c.08.56.13 1.12.2 1.68 0 .23 0 .45.07.7l.16 1.54.17 2.27c0 .57.06 1.13.1 1.7.07 1.3.1 2.6.13 3.9a.58.58 0 0 0 0 .13v4c0 1.33-.08 2.7-.15 4.07l-.15 2.26c0 .6-.1 1.22-.16 1.84-.08 1-.18 1.93-.3 2.9-.05.64-.13 1.3-.22 1.94l-.2 1.37c-.3 1.36-.52 2.74-.76 4.16z" class="b j"/><path d="M1759.2 3104.9c-1.857.02-3.68-.5-5.25-1.5l-8.5-5.64a6.48 6.48 0 0 1-3-5 6.67 6.67 0 0 1 2.51-5.43c49.92-42.294 86.754-97.936 106.2-160.4a6.41 6.41 0 0 1 6-4.8c1.332.017 2.63.428 3.73 1.18l8.48 5.6a10.1 10.1 0 0 1 3.84 11c-19.7 63.39-57.03 119.86-107.65 162.8-1.795 1.442-4.037 2.213-6.34 2.18z" class="f"/><path d="M1857.2 2924.6c.84.015 1.66.28 2.35.76l8.48 5.6a7.61 7.61 0 0 1 2.83 8.12c-19.555 62.926-56.607 118.99-106.83 161.65-1.338 1.07-3.007 1.64-4.72 1.6-1.368.026-2.713-.35-3.87-1.08l-8.5-5.64c-2.45-1.62-2.56-4.47-.3-6.4 50.28-42.614 87.39-98.657 107-161.58a3.9 3.9 0 0 1 3.64-3l-.08-.04zm.08-4.96a8.85 8.85 0 0 0-8.41 6.55c-19.3 62.025-55.87 117.268-105.43 159.26a9.12 9.12 0 0 0-3.39 7.48 9 9 0 0 0 4.14 6.9l6.5 4.3 2 1.34c1.975 1.272 4.28 1.936 6.63 1.9a12.26 12.26 0 0 0 8-2.8c50.988-43.253 88.593-100.142 108.4-164a12.53 12.53 0 0 0-4.85-13.78l-3.46-2.3-5-3.3c-1.5-1.02-3.288-1.573-5.1-1.6l-.02.04z" fill="#333" class="a"/><path d="M1855.72 3125.15a16.47 16.47 0 0 1-5.33-.84l-12.6-4.3c-3.5-1.2-5.72-3.38-6.13-6-.2-1.36-.1-4 3.1-6.38l.1-.07.1-.06c30.2-18.52 65.38-56 73.5-105.67v-.17l.05-.15c1.58-5.23 4.9-5.8 6.27-5.8 2.47 0 4.9 1.65 6.9 4.66l8.2 12.44c3.06 4.64 4.1 12.08 2.34 16.93-12.2 33.93-37.75 69.36-66.7 92.46-2.856 2.014-6.286 3.052-9.78 2.96z" class="f"/><path d="M1914.8 2998.17c1.53 0 3.25 1.17 4.8 3.53l8.2 12.44c2.64 4 3.56 10.6 2.08 14.7-12.7 35.37-39.2 70.05-65.9 91.35-2.417 1.678-5.31 2.537-8.25 2.45-1.53.014-3.055-.223-4.5-.7l-12.6-4.35c-4.92-1.7-6-5.3-2.35-8 32.46-19.9 66.6-58.17 74.65-107.4.8-2.67 2.24-4 3.88-4v-.03zm0-4.97c-4 0-7.23 2.83-8.67 7.57l-.1.32-.05.32c-3.62 22.12-12.78 43.16-27.24 62.52-12.335 16.48-27.624 30.525-45.1 41.42l-.2.13-.2.14c-3.08 2.32-4.56 5.52-4.05 8.77.56 3.55 3.4 6.45 7.78 8l1.15.4 11.44 4c1.982.664 4.06 1.002 6.15 1a18.5 18.5 0 0 0 11.37-3.54c29.28-23.37 55.14-59.22 67.5-93.57 2-5.6.9-13.83-2.6-19.15l-8.2-12.44c-3.32-5-7.05-5.78-9-5.78l.02-.1z" fill="#333" class="a"/></g></g></svg>