<svg fill="none" height="620" viewBox="0 0 512 620" width="512" xmlns="http://www.w3.org/2000/svg" xmlns:xlink="http://www.w3.org/1999/xlink"><clipPath id="a"><path d="m0 0h512v620h-512z"/></clipPath><g clip-path="url(#a)"><path d="m298.642 510.049c-7.869-1.15-17.85-5.002-30.513-11.78-1.841-.984-2.583-3.387-1.589-5.245.985-1.84 3.387-2.583 5.245-1.589 11.695 6.258 21.108 9.939 27.978 10.943 4.484.656 7.711.155 9.591-1.494 2.11-1.848 1.921-5.115 1.369-11.22-.647-7.149-1.451-16.048 3.066-26.274 6.819-15.457 23.812-30.153 41.709-27.389 11.366 1.76 22.257 10.259 24.758 21.792 2.128 9.82-.933 23.277-11.397 27.036-6.94 2.479-14.869-.366-20.281-4.972-1.618-1.345-1.852-3.875-.473-5.494 1.364-1.602 3.897-1.804 5.498-.406.067.056 6.768 5.681 12.631 3.575 6.641-2.384 7.715-12.238 6.442-18.101-1.821-8.405-10.168-14.504-18.369-15.774-14.39-2.222-28.024 10.615-33.436 22.86-3.706 8.395-3.032 15.86-2.437 22.446.62 6.795 1.195 13.214-3.979 17.748-4.288 3.781-10.396 4.154-15.813 3.338z" fill="#fbdd11" stroke="#333" stroke-miterlimit="10" stroke-width=".775"/><path d="m378.008 459.68c1.714 7.908.183 17.755-5.862 23.572 7.968-5.223 10.086-16.671 8.187-25.432-2.5-11.534-13.39-20.033-24.758-21.793-10.27-1.587-20.426 2.876-28.138 9.427 17.688-12.517 45.459-9.356 50.571 14.226z" fill="#000" fill-opacity=".24"/><path d="m367.309 477.122c-4.19 4.874-11.717 2.365-15.948-1.276-.487-.415-1.07-.703-1.695-.838-.626-.136-1.275-.114-1.89.063.616-1.131 1.803-1.896 3.088-1.999 1.024-.082 2.039.246 2.822.913 3.42 3.022 9.275 5.451 13.623 3.137z" fill="#000" fill-opacity=".24"/><path d="m267.47 491.915c.543-.465 2.403-1.395 3.565-.852 1.082.504 2.377 1.144 3.833 1.864 7.66 3.784 19.758 9.761 28.485 9.761 7.75 0 8.447-3.875 7.362-14.105.132.591.298 1.244.475 1.938 1.491 5.852 3.733 14.647-7.837 14.647-12.633 0-32.362-10.939-35.883-13.253z" fill="#000" fill-opacity=".24"/><path d="m191.985 487.785c5.657 0 10.177-5.049 9.616-10.605-.84-9.846 2.886-20.489 10.222-30.75 6.674-9.338 13.828-14.455 8.325-20.49-5.502-6.035-17.912.608-24.087 9.223-10.185 14.247-15.064 29.312-13.737 43.97.495 4.878 4.003 8.652 9.661 8.652z" fill="#fbdd11" stroke="#333" stroke-miterlimit="10" stroke-width=".775"/><path d="m186.728 474.171c-.064-17.403 13.89-43.038 30.243-50.245-20.15-3.255-37.975 36.192-34.521 54.525 1.118-1.825 3.056-3.608 4.278-4.28z" fill="#000" fill-opacity=".15"/><path d="m249.703 534.209c.775-13.498 4.247-23.937 7.311-32.056s6.574-22.428-6.597-25.733c-18.832-4.725-29.188 39.389-29.961 52.846-.455 7.917 5.707 17.101 13.702 17.56 7.359.358 15.104-4.928 15.545-12.617z" fill="#fbdd11" stroke="#333" stroke-miterlimit="10" stroke-width=".775"/><path d="m220.27 529.247c7.982-1.085 22.94-1.085 29.217 5.27.052-.478.223-1.851.258-2.331-6.535-5.729-21.415-6.116-29.144-5.032-.041.512-.289 1.571-.331 2.093z" fill="#000" fill-opacity=".14"/><path d="m222.75 515.375c7.402 6.865 16.876 10.715 27.59 12.167.09-.776.28-1.888.387-2.635-10.633-1.376-19.871-5.828-27.28-12.555-.31.93-.561 2.366-.697 3.023z" fill="#000" fill-opacity=".14"/><path d="m262.297 534.209c-.775-13.498-4.247-23.937-7.311-32.056s-6.574-22.428 6.597-25.733c18.832-4.725 29.188 39.389 29.961 52.846.455 7.917-5.707 17.101-13.702 17.56-7.359.358-15.104-4.928-15.545-12.617z" fill="#fbdd11" stroke="#333" stroke-miterlimit="10" stroke-width=".775"/><path d="m291.73 529.247c-7.982-1.085-22.94-1.085-29.217 5.27-.052-.478-.223-1.851-.258-2.331 6.535-5.729 21.415-6.116 29.144-5.032.041.512.289 1.571.331 2.093z" fill="#000" fill-opacity=".14"/><path d="m289.25 515.375c-7.402 6.865-16.876 10.715-27.59 12.167-.09-.776-.28-1.888-.387-2.635 10.633-1.376 19.871-5.828 27.28-12.555.31.93.561 2.366.697 3.023z" fill="#000" fill-opacity=".14"/><path d="m320.015 487.785c-5.658 0-10.177-5.049-9.617-10.605.841-9.845-2.886-20.489-10.222-30.75-6.674-9.338-13.827-14.455-8.325-20.49 5.503-6.035 17.912.608 24.087 9.223 10.185 14.247 15.065 29.312 13.738 43.97-.495 4.878-4.004 8.652-9.661 8.652z" fill="#fbdd11" stroke="#333" stroke-miterlimit="10" stroke-width=".775"/><path d="m325.271 474.171c.064-17.403-13.89-43.038-30.242-50.245 20.15-3.255 37.975 36.192 34.52 54.525-1.118-1.825-3.055-3.608-4.278-4.28z" fill="#000" fill-opacity=".15"/><path d="m431.644 283.979c17.22 15.81 10.279 47.94-1.409 66.21-16.656 26.04-54.788 42.431-74.316 28.577-20.395-14.469-17.732-59.972 6.076-83.594 17.775-17.636 51.839-27.542 69.649-11.193z" fill="#f7c394" stroke="#333" stroke-miterlimit="10" stroke-width=".775"/><path d="m411.54 302.594c10.23 10.57 4.666 30.486-3.355 41.522-11.432 15.725-35.987 24.597-47.731 15.168-12.267-9.847-8.896-38.319 6.936-52.263 11.82-10.41 33.579-15.357 44.15-4.427z" fill="#ffc9a1"/><path d="m430.235 350.189c-9.407 14.702-30.241 31.499-53.723 33.591 16.486-3.875 40.302-20.747 47.529-32.041 11.689-18.27 17.881-52.541 1.409-66.21-5.023-4.169-17.783-10.094-35.298-6.994 21.39-6.587 34.532-.95 41.498 5.444 17.214 15.809 10.273 47.94-1.415 66.21z" fill="#000" fill-opacity=".1"/><path d="m80.3569 283.979c-17.2205 15.81-10.2796 47.94 1.4089 66.21 16.6563 26.04 54.7882 42.431 74.3162 28.577 20.395-14.469 17.732-59.972-6.076-83.594-17.775-17.636-51.8396-27.542-69.6491-11.193z" fill="#f7c394" stroke="#333" stroke-miterlimit="10" stroke-width=".775"/><path d="m100.46 302.594c-10.2296 10.57-4.6651 30.486 3.356 41.522 11.431 15.725 35.987 24.597 47.731 15.168 12.267-9.847 8.895-38.319-6.936-52.263-11.821-10.41-33.58-15.357-44.151-4.427z" fill="#ffc9a1"/><path d="m81.7659 350.189c9.4069 14.702 30.2401 31.499 53.7231 33.591-16.486-3.875-40.3028-20.747-47.5293-32.041-11.6885-18.27-17.8809-52.541-1.4089-66.21 5.0232-4.169 17.7832-10.094 35.2982-6.994-21.39-6.587-34.5325-.95-41.4982 5.444-17.2143 15.809-10.2735 47.94 1.4151 66.21z" fill="#000" fill-opacity=".1"/><path d="m256 394.94c23.87 0 34.1 20.925 40.3 38.13s8.99 34.1 8.99 45.26c0 23.56-21.496 47.347-49.29 47.585-27.207.234-49.29-24.025-49.29-47.585 0-11.16 2.743-28.133 8.99-45.26 6.2-17.205 16.43-38.13 40.3-38.13z" fill="#fbdd11" stroke="#333" stroke-miterlimit="10" stroke-width=".775"/><path d="m256 525.915c-27.229.248-51.15-24.335-49.29-52.235 1.55 22.94 22.498 44.715 49.29 44.485 26.792-.229 47.74-21.545 49.29-44.485 1.86 27.9-22.061 51.988-49.29 52.235z" fill="#000" fill-opacity=".15"/><path d="m256 414.16c16.12 0 24.8 10.54 26.97 19.84 5.346 22.913 9.92 42.47.62 54.25s-20.918 12.71-27.59 12.71c-7.371 0-18.29-.93-27.59-12.71s-5.028-30.043.62-54.25c2.17-9.3 10.85-19.84 26.97-19.84z" fill="#f7c394" stroke="#333" stroke-miterlimit="10" stroke-width=".775"/><path d="m256 500.96c-21.08 0-34.72-14.57-33.015-33.48.62 17.825 14.88 29.45 33.015 29.45s32.395-11.625 33.015-29.45c1.705 18.91-11.935 33.48-33.015 33.48z" fill="#000" fill-opacity=".1"/><path d="m317.225 436.789c-17.878 7.009-42.005 12.245-61.225 12.245s-40.197-4.097-61.225-12.245c-1.122 1.634-2.575 4.073-3.565 5.735 22.01 8.835 42.625 13.33 64.79 13.33s42.78-4.495 64.79-13.33c-.954-1.658-2.468-4.085-3.565-5.735z" fill="#000" fill-opacity=".15"/><path d="m333.55 130.045c6.559-5.557-19.27-11.78-22.711-21.621-4.154-11.8595 61.317 19.7 51.394 40.467-.775 1.629-8.592 14.57-64.73-3.684 61.715 20.023 108.447 62.483 108.227 141.077-.169 60.257-54.261 153.576-149.796 154.408-92.167.805-149.83-92.414-149.664-154.408.205-75.708 66.98-153.595 149.73-159.417 49.509-3.48 72.12 7.766 77.55 3.178z" fill="#fbdd11" stroke="#333" stroke-linecap="round" stroke-linejoin="round" stroke-width=".775"/><path d="m343.6 133.507c-4.597 10.1-32.831-6.2-82.339-2.719-101.287 7.121-174.6758 119.536-134.01 210.658 10.562-10.909 23.427-14.009 27.526-15.37 1.231 1.328 2.729 2.739 3.263 3.376-12.611 3.929-27.269 12.463-33.577 24.31-11.822-22.878-18.135-46.897-18.072-67.476.205-75.71 66.994-153.605 149.744-159.428 49.509-3.48 72.007 7.765 77.437 3.171 6.537-5.541-19.292-11.765-22.731-21.606-1.329-3.791 4.467-3.141 12.64.176-3.1-.447-4.805.283-3.96 2.459 3.004 7.811 27.946 13.954 24.079 22.449z" fill="#000" fill-opacity=".14"/><path d="m405.498 286.295c-.056 19.8-5.909 43.169-17.134 65.654-11.619-15.91-32.431-22.265-34.559-22.265.62-.775 2.48-3.053 3.1-3.797 3.643.852 19.936 4.326 29.029 16.461 9.191-20.483 13.41-39.55 13.46-57.483.228-81.257-54.811-121.651-101.891-139.658 61.715 20.022 108.215 62.492 107.995 141.088z" fill="#000" fill-opacity=".14"/><path d="m213.375 186.542c-46.035 0-103.075 97.417-56.342 142.367-89.2028 27.9 0 120.745 98.967 120.745 98.968 0 188.17-92.845 98.968-120.745 46.732-44.95-10.308-142.367-56.343-142.367-19.607 0-30.303 9.067-42.625 18.057-12.322-8.99-23.017-18.057-42.625-18.057z" fill="#ffcd98" stroke="#333" stroke-width=".775"/><path d="m372.111 281.634c-2.434-47.823-41.075-95.044-74.633-95.044-20.863 0-33.511 12.732-41.478 18.009-6.37-4.347-20.537-18.009-41.602-18.009-39.618 0-74.105 57.844-74.73 96.52-3.483-41.621 28.458-104.086 74.947-104.086 24.18 0 37.045 11.625 41.385 16.43 4.34-4.805 17.205-16.43 41.385-16.43 46.132 0 78.043 59.133 74.726 102.61z" fill="#000" fill-opacity=".14"/><path d="m124.033 351.333c-21.068 38.016 51.819 98.244 131.967 98.244s153.942-60.892 131.712-98.868c14.78 34.736-55.651 93.055-131.712 93.055-75.607 0-145.651-57.625-131.967-92.431z" fill="#000" fill-opacity=".1"/><path d="m139.808 280.145c-1.103 18.204 3.723 35.652 17.275 48.687-1.616.506-3.174 1.187-4.674 1.735 3.461-1.115 6.768-1.904 10.591-2.587-13.104-12.604-20.687-29.724-23.192-47.835z" fill="#000" fill-opacity=".1"/><path d="m359.928 330.615c-3.374-.994-6.913-1.918-10.928-2.635 13.225-12.721 20.827-30.041 23.261-48.338 1.222 18.386-3.566 36.035-17.243 49.19 1.754.549 3.292 1.185 4.91 1.783z" fill="#000" fill-opacity=".1"/><path d="m218.748 217.474c24.008 2.79 41.304 32.357 38.75 58.4-2.539 25.937-25.217 53.01-51.132 50.065-23.529-2.682-38.79-28.864-39.292-50.865-.668-29.475 24.93-60.709 51.674-57.6z" fill="#fff"/><path d="m247.898 282.91c3.427-17.663-6.122-34.374-21.327-37.324-15.206-2.95-30.311 8.977-33.738 26.64s6.122 34.373 21.328 37.323c15.205 2.951 30.31-8.977 33.737-26.639z" fill="#54c394" stroke="#333" stroke-miterlimit="10" stroke-width=".775"/><path d="m222.087 300.942c9.068 0 16.42-8.221 16.42-18.361 0-10.141-7.352-18.362-16.42-18.362-9.069 0-16.421 8.221-16.421 18.362 0 10.14 7.352 18.361 16.421 18.361z" fill="#000"/><path d="m236.609 269.748c1.154-3.263-.685-6.89-4.108-8.102-3.423-1.211-7.134.452-8.289 3.714-1.155 3.263.684 6.89 4.108 8.101 3.423 1.212 7.134-.451 8.289-3.713z" fill="#fff" stroke="#333" stroke-miterlimit="10" stroke-width=".775"/><path d="m230.563 221.185c-31.679-8.664-58.044 28.869-57.398 57.042.383 16.623 9.201 35.617 23.669 45.205-18.042-7.561-29.326-29.501-29.76-48.36-.671-29.467 24.927-60.696 51.671-57.59 4.134.494 8.141 1.75 11.818 3.703z" fill="#000" fill-opacity=".05"/><path d="m234.862 248.859c-17.492-4.971-32.976 10.121-36.139 26.418-2.596 13.384 2.181 26.229 11.215 33.069-12.692-4.96-20.186-20.139-17.089-36.098 3.429-17.67 18.535-29.588 33.74-26.637 2.933.57 5.736 1.67 8.273 3.248z" fill="#000" fill-opacity=".15"/><path d="m292.27 216.832c-23.954 3.205-40.733 33.07-37.727 59.067 2.991 25.885 26.138 52.56 51.998 49.155 23.478-3.091 38.285-29.535 38.398-51.541.152-29.474-25.987-60.253-52.669-56.681z" fill="#fff"/><path d="m298.429 308.867c15.152-3.215 24.408-20.089 20.673-37.69-3.735-17.6-19.045-29.262-34.197-26.047-15.152 3.216-24.407 20.09-20.673 37.69 3.735 17.601 19.046 29.262 34.197 26.047z" fill="#54c394" stroke="#333" stroke-miterlimit="10" stroke-width=".775"/><path d="m290.385 300.345c9.068-.159 16.275-8.506 16.098-18.645s-7.671-18.231-16.739-18.072c-9.067.158-16.274 8.506-16.097 18.645.176 10.139 7.671 18.23 16.738 18.072z" fill="#000"/><path d="m300.693 273.481c3.401-1.271 5.177-4.93 3.965-8.172-1.211-3.242-4.951-4.84-8.353-3.569-3.401 1.272-5.177 4.93-3.965 8.172 1.211 3.242 4.951 4.84 8.353 3.569z" fill="#fff" stroke="#333" stroke-miterlimit="10" stroke-width=".775"/><path d="m344.934 273.513c-.102 19.107-11.276 41.561-29.586 49.168 14.77-9.551 23.572-29.152 23.662-46.12.149-28.456-28.069-66.843-59.822-55.053 4.03-2.418 8.415-4.052 13.077-4.676 26.687-3.572 52.826 27.207 52.669 56.681z" fill="#000" fill-opacity=".05"/><path d="m301.739 307.893c9.433-6.766 14.353-20.006 11.45-33.682-3.472-16.358-19.605-31.218-37.005-25.373 2.639-1.804 5.606-3.073 8.733-3.737 15.153-3.217 30.463 8.444 34.2 26.04 3.457 16.29-4.209 31.956-17.378 36.752z" fill="#000" fill-opacity=".15"/><path d="m242.05 551.18c4.96 0 9.779-3.657 10.338-8.701 1.412-12.744-14.624-13.902-23.353-14.093-8.851-.194-23.875 1.482-26.508 11.201-2.301 8.493 5.655 11.593 11.313 11.593 5.657 0 7.595-1.883 14.412-1.883 5.954 0 8.838 1.883 13.798 1.883z" fill="#f7c394" stroke="#333" stroke-miterlimit="10" stroke-width=".775"/><path d="m241.895 547.77c-4.96 0-7.844-1.883-13.798-1.883-6.817 0-8.755 1.883-14.412 1.883-4.4 0-10.192-1.875-11.466-6.705-1.042 7.378 6.305 10.115 11.621 10.115 5.657 0 7.595-1.883 14.412-1.883 5.954 0 8.838 1.883 13.798 1.883 6.644 0 11.315-5.293 10.216-12.44-.46 5.186-5.276 9.03-10.371 9.03z" fill="#000" fill-opacity=".1"/><path d="m269.95 551.18c-4.96 0-9.779-3.657-10.338-8.701-1.412-12.744 14.624-13.902 23.353-14.093 8.851-.194 23.875 1.482 26.508 11.201 2.301 8.493-5.656 11.593-11.313 11.593-5.658 0-7.595-1.883-14.413-1.883-5.953 0-8.837 1.883-13.797 1.883z" fill="#f7c394" stroke="#333" stroke-miterlimit="10" stroke-width=".775"/><path d="m270.105 547.77c4.96 0 7.844-1.883 13.797-1.883 6.818 0 8.755 1.883 14.413 1.883 4.4 0 10.191-1.875 11.465-6.705 1.043 7.378-6.304 10.115-11.62 10.115-5.658 0-7.595-1.883-14.413-1.883-5.953 0-8.837 1.883-13.797 1.883-6.644 0-11.315-5.293-10.216-12.44.46 5.186 5.275 9.03 10.371 9.03z" fill="#000" fill-opacity=".1"/><path d="m194.217 505.283c8.806.007 14.413-10.557 9.081-17.867 2.467-7.008-2.803-14.786-10.332-14.966-8.68-.207-13.697 9.068-12.788 16.916.85 7.333 5.817 15.91 14.039 15.917z" fill="#f7c394" stroke="#333" stroke-miterlimit="10" stroke-width=".775"/><path d="m180.178 489.366c1.052 9.077 8.428 19.654 19.433 14.539-10.668-1.365-18.135-19.453-12.883-29.735-.835.595-2.152 1.292-4.277 4.28-1.905 3.367-2.743 7.16-2.273 10.916z" fill="#000" fill-opacity=".1"/><path d="m222.675 325.346c0 11.834 15.322 26.195 33.52 26.04 16.774-.148 33.13-14.346 33.13-26.006 0-23.58-66.65-23.936-66.65-.034z" fill="#000" fill-opacity=".1"/><path d="m222.21 322.555c0 11.835 15.536 26.195 33.987 26.04 17.009-.147 33.593-14.345 33.593-26.005 0-9.383-19.567-17.635-33.593-17.515-13.023.12-33.987 6.379-33.987 17.48z" fill="#7a5d43"/><path d="m222.455 320.505c6.472 8.486 19.325 15.646 33.767 15.534 13.362-.106 26.492-7.304 33.184-15.74.251.753.384 1.518.384 2.29 0 11.661-16.584 25.859-33.593 26.006-18.451.155-33.987-14.205-33.987-26.04 0-.703.084-1.386.245-2.05z" fill="#000" fill-opacity=".2"/><path d="m115.065 144.588c8.331 10.347 22.802 27.102 33.894 37.282 3.851-13.905 28.94-31.93 44.461-38.404 15.522-6.474 75.474-21.872 80.523-21.582-.284-5.534-5.735-47.7819-5.735-47.7819s-20.392 3.4255-41.726 10.23c-15.323 4.8871-32.304 13.2137-37.095 15.3558-11.467 5.1231-82.652 34.5561-74.322 44.9001z" fill="#ffdf8f" stroke="#333" stroke-miterlimit="10" stroke-width=".775"/><path d="m257.868 7.48368c-1.212.55299-2.245 1.43494-2.981 2.54562-.735 1.1106-1.144 2.4054-1.181 3.737-.036 1.3317.302 2.6468.976 3.7959s1.657 2.0861 2.837 2.7043c1.116 12.1985 2.74 46.4675-13.257 53.785-11.495 5.2576-17.205.6727-20.549-4.822 1.406-1.0215 2.4-2.5126 2.802-4.2035.401-1.6908.184-3.4696-.613-5.0141-.796-1.5446-2.12-2.7528-3.73-3.4059-1.611-.6531-3.402-.7078-5.049-.1544-1.648.5535-3.042 1.6786-3.932 3.1716-.889 1.493-1.215 3.2552-.917 4.9674.297 1.7122 1.198 3.2613 2.539 4.3667 1.341 1.1055 3.033 1.6941 4.771 1.6594-.336 8.1949-2.999 15.7093-12.09 19.8679-10.196 4.6624-23.484-9.3093-31.294-18.29 1.363-1.0453 2.297-2.5539 2.624-4.2408.327-1.6868.025-3.435-.849-4.9143s-2.26-2.5871-3.896-3.1141c-1.635-.5271-3.407-.4369-4.98.2536-1.574.6905-2.84 1.9334-3.559 3.4938-.72 1.5604-.843 3.3303-.346 4.9752.497 1.6448 1.579 3.0508 3.042 3.9522s3.205 1.2357 4.898.9398c2.58 11.9614 3.137 30.535-6.29 34.853-8.979 4.109-18.755.487-24.788-3.58 1.225-1.235 1.95-2.879 2.035-4.616.085-1.7374-.476-3.4445-1.575-4.7926s-2.658-2.2419-4.376-2.5092c-1.719-.2673-3.476.1109-4.932 1.0617s-2.509 2.4068-2.956 4.0877-.256 3.4674.537 5.0164c.792 1.548 2.129 2.748 3.753 3.369 1.625.622 3.422.62 5.045-.005 1.331 6.13.288 14.193-8.961 18.423-12.09 5.531-22.236-.811-49.7251-24.067.811-1.5217 1.0547-3.2823.6878-4.9673-.367-1.6851-1.3208-3.1849-2.6912-4.2317-1.3705-1.0469-3.0683-1.5727-4.7906-1.4837-1.7222.0891-3.3567.7873-4.6118 1.97s-2.0491 2.7729-2.2403 4.4868c-.1911 1.7139.233 3.44 1.1967 4.8699.9637 1.43 2.4042 2.472 4.0645 2.938s3.4323.327 4.9997-.392c.2911-.139.5742-.294.8478-.465 9.8053 10.05 56.4715 63.852 56.4715 63.852s14.15-15.771 64.365-38.75c47.442-21.7 72.695-22.688 72.695-22.688l-10.038-84.9095c1.015-.1423 1.987-.5016 2.85-1.0534s1.597-1.2831 2.152-2.1441c.555-.8611.918-1.8316 1.064-2.8456.147-1.014.073-2.0475-.217-3.0303-.289-.9828-.786-1.8917-1.458-2.66492-.672-.77318-1.503-1.39246-2.436-1.81566s-1.946-.64039-2.971-.63677c-1.024.00361-2.036.22795-2.966.65773zm-99.399 128.51532-8.714-5.563 1.668-10.204 8.587 5.56zm37.425-17.12-8.711-5.564 1.661-10.206 8.594 5.562zm37.552-17.18-8.716-5.5662 1.666-10.2036 8.589 5.5598z" fill="#f7ca4d" stroke="#333" stroke-miterlimit="10" stroke-width=".775"/><path d="m148.959 181.871c36.911-33.037 79.64-51.113 125.412-55.574-.563-5.397-1.121-11.087-1.676-16.455-49.22 9.195-95.565 29.91-135.245 60.45 3.825 3.846 7.661 7.706 11.509 11.579z" fill="#f7ca4d" stroke="#333" stroke-miterlimit="10" stroke-width=".775"/><path d="m274.369 126.295c-45.77 4.463-88.505 22.539-125.41 55.575-3.848-3.875-7.684-7.733-11.511-11.575.609-.469 1.22-.934 1.832-1.395 2.189 2.201 6.129 5.999 8.325 8.215 36.912-33.046 77.846-50.48 123.616-54.949-.329-3.154-.606-8.634-.93-11.865.802-.156 1.604-.311 2.406-.465.553 5.374 1.111 11.064 1.672 16.459z" fill="#000" opacity=".08" stroke="#000" stroke-miterlimit="10" stroke-width=".775"/><path d="m135.1 103.205c2.292 0 4.149-1.858 4.149-4.1494 0-2.2916-1.857-4.1494-4.149-4.1494s-4.149 1.8578-4.149 4.1494c0 2.2914 1.857 4.1494 4.149 4.1494z" fill="#ffe8b6"/><path d="m170.336 69.3668c2.292 0 4.15-1.8577 4.15-4.1493 0-2.2917-1.858-4.1494-4.15-4.1494-2.291 0-4.149 1.8577-4.149 4.1494 0 2.2916 1.858 4.1493 4.149 4.1493z" fill="#ffe8b6"/><path d="m217.583 65.8204c2.292 0 4.15-1.8577 4.15-4.1493s-1.858-4.1494-4.15-4.1494c-2.291 0-4.149 1.8578-4.149 4.1494s1.858 4.1493 4.149 4.1493z" fill="#ffe8b6"/><path d="m259.116 16.5754c2.291 0 4.149-1.8577 4.149-4.1493s-1.858-4.14937-4.149-4.14937c-2.292 0-4.15 1.85777-4.15 4.14937s1.858 4.1493 4.15 4.1493z" fill="#ffe8b6"/><path d="m72.6676 99.8661c2.2916 0 4.1493-1.8577 4.1493-4.1494 0-2.2916-1.8577-4.1493-4.1493-4.1493-2.2917 0-4.1494 1.8577-4.1494 4.1493 0 2.2917 1.8577 4.1494 4.1494 4.1494z" fill="#ffe8b6"/><path d="m261.929 21.0222c-2.813 1.1703 6.883 80.6818 6.883 80.6818s-23.853.31-71.3 22.01c-50.22 22.973-63.047 38.541-63.047 38.541s-50.3832-59.735-56.0268-58.745c9.8053 10.05 56.4708 63.852 56.4708 63.852s14.15-15.771 64.366-38.75c47.442-21.7 72.695-22.69 72.695-22.69z" style="opacity:.08;fill:#000;stroke:#000;stroke-width:.775;stroke-linecap:round;stroke-linejoin:round"/><circle cx="280.955" cy="467.479" fill="#c4c4c4" r="15.5" stroke="#333" stroke-width=".775"/><path d="m296.23 470.638c-1.257-10.717-13.535-18.987-23.908-16.081 10.725-7.538 26.458 2.072 23.908 16.081z" fill="#000" fill-opacity=".3"/><path d="m290.734 478.362c-11.406 8.183-27.216-2.667-23.131-16.444-.249 11.461 12.445 20.254 23.131 16.444z" fill="#fff"/><g stroke="#333"><path d="m327.472 505.402 5.794-9.023c3.692 2.804 11.626 9.479 8.613 13.426s-11.057-2.578-14.407-4.403z" fill="#1a1a1a" stroke-width=".775"/><path d="m328.887 507.043c-.756-.31-32.486-17.414-37.724-20.333-.547-.305-.962-.802-1.167-1.395l-.522-1.503 9.532-14.59 2.201.122c.545.031 1.066.235 1.487.583 3.472 2.88 31.829 26.62 32.372 27.288 1.821 2.243-3.265 11.037-6.179 9.828z" fill="#1a1a1a" stroke-width=".775"/><path d="m272.117 481.025-1.319-.874c-.578-.366-.606-1.195-.076-1.617 7.737-6.556 13.447-15.18 16.459-24.864.172-.663.957-.938 1.508-.561l1.315.87c.533.381.776 1.075.595 1.705-3.052 9.825-8.84 18.578-16.686 25.234-.523.42-1.221.47-1.796.107z" fill="#fff" stroke-width=".775"/><path d="m287.887 484.398c-.91.007-3.545-.561-3.728-1.729-.033-.211-.014-.62.479-.989 5.708-3.91 10.273-9.374 11.42-16.399 0-.458.545-.948.98-.948 1.082 0 1.976 1.833 2.339 2.65.319.719.634 1.873.362 2.624-1.889 5.26-5.851 10.751-10.336 14.332-.443.312-.975.454-1.516.459z" fill="#fff" stroke-width=".775"/><path d="m313.347 506.266c-9.213-1.707-13.021-13.848-6.021-20.456-1.216-7.811 5.81-14.921 13.72-13.643 9.12 1.474 12.562 12.152 10.083 20.183-2.316 7.505-9.181 15.51-17.782 13.916z" fill="#f7c394" stroke-miterlimit="10" stroke-width=".775"/></g><path d="m331.129 492.351c-2.866 9.289-12.64 18.916-23.156 11.424 11.424.649 22.756-16.817 19.263-28.594.758.784 2 1.77 3.642 5.309 1.337 3.893 1.475 8.023.251 11.861z" fill="#000" fill-opacity=".1"/><path d="m256.064 429.427c42.625 0 88.66-17.438 102.803-58.813 2.364-6.557-3.424-13.172-10.454-12.172-30.617 4.35-61.503 6.533-92.427 6.533-30.925-.001-61.811-2.184-92.428-6.533-7.025-.999-12.734 5.582-10.456 12.172 14.302 41.375 60.337 58.813 102.962 58.813z" fill="#3d0c0c"/><path d="m345.623 389.366c5.074-6.222 8.678-12.825 10.499-19.504 1.38-5.064-2.277-9.306-7.291-8.595-61.436 8.602-124.223 8.711-185.657.002-5.022-.707-8.677 3.529-7.298 8.593 1.82 6.68 5.421 13.282 10.5 19.504 59.379 8.132 119.871 8.205 179.247 0z" fill="#fff"/><path d="m256.064 426.559c30.775.053 64.201-10.186 85.859-33.005-56.957 7.492-114.894 7.485-171.85.004 21.82 22.994 54.967 32.948 85.991 33.001z" fill="#fff"/><path d="m297.286 420.359c16.618-4.996 32.545-14.065 44.637-26.805-4.278.563-8.563 1.092-12.853 1.561-8.103 9.523-18.535 18.209-31.784 25.244z" fill="#000" fill-opacity=".1"/><path d="m356.122 369.863c-1.821 6.678-5.425 13.281-10.499 19.503-4.588.634-9.182 1.213-13.783 1.74 6.595-9.264 11.213-19.248 14.26-29.459l2.719-.378c5.026-.713 8.683 3.529 7.303 8.594z" fill="#000" fill-opacity=".1"/><path d="m170.07 393.552c12.144 12.797 28.269 21.969 44.996 26.931-13.396-7.032-23.898-15.779-32.024-25.359-4.33-.472-8.654-1.005-12.972-1.572z" fill="#000" fill-opacity=".1"/><path d="m166.371 389.366c4.623.627 9.251 1.211 13.884 1.753-6.62-9.255-11.241-19.244-14.277-29.458-.937-.129-1.873-.26-2.809-.392-5.022-.706-8.677 3.529-7.297 8.594 1.819 6.679 5.42 13.281 10.499 19.503z" fill="#000" fill-opacity=".1"/></g></svg>