<svg fill="none" height="620" viewBox="0 0 512 620" width="512" xmlns="http://www.w3.org/2000/svg" xmlns:xlink="http://www.w3.org/1999/xlink"><clipPath id="a"><path d="m0 0h512v620h-512z"/></clipPath><g clip-path="url(#a)"><path d="m298.642 510.049c-7.869-1.15-17.85-5.002-30.513-11.78-1.841-.984-2.583-3.387-1.589-5.245.985-1.84 3.387-2.583 5.245-1.589 11.695 6.258 21.108 9.939 27.978 10.943 4.484.656 7.711.155 9.591-1.494 2.11-1.848 1.921-5.115 1.369-11.22-.647-7.149-1.451-16.048 3.066-26.274 6.819-15.457 23.812-30.153 41.709-27.389 11.366 1.76 22.257 10.259 24.758 21.792 2.128 9.82-.933 23.277-11.397 27.036-6.94 2.479-14.869-.366-20.281-4.972-1.618-1.345-1.852-3.875-.473-5.494 1.364-1.602 3.897-1.804 5.498-.406.067.056 6.768 5.681 12.631 3.575 6.641-2.384 7.715-12.238 6.442-18.101-1.821-8.405-10.168-14.504-18.369-15.774-14.39-2.222-28.024 10.615-33.436 22.86-3.706 8.395-3.032 15.86-2.437 22.446.62 6.795 1.195 13.214-3.979 17.748-4.288 3.781-10.396 4.154-15.813 3.338z" fill="#6c9eff" stroke="#333" stroke-miterlimit="10" stroke-width=".775"/><path d="m378.008 459.68c1.714 7.908.183 17.755-5.862 23.572 7.968-5.223 10.086-16.671 8.187-25.432-2.5-11.534-13.39-20.033-24.758-21.793-10.27-1.587-20.426 2.876-28.138 9.427 17.688-12.517 45.459-9.356 50.571 14.226z" fill="#000" fill-opacity=".24"/><path d="m367.309 477.122c-4.19 4.874-11.717 2.365-15.948-1.276-.487-.415-1.07-.703-1.695-.838-.626-.136-1.275-.114-1.89.063.616-1.131 1.803-1.896 3.088-1.999 1.024-.082 2.039.246 2.822.913 3.42 3.022 9.275 5.451 13.623 3.137z" fill="#000" fill-opacity=".24"/><path d="m267.47 491.915c.543-.465 2.403-1.395 3.565-.852 1.082.504 2.377 1.144 3.833 1.864 7.66 3.784 19.758 9.761 28.485 9.761 7.75 0 8.447-3.875 7.362-14.105.132.591.298 1.244.475 1.938 1.491 5.852 3.733 14.647-7.837 14.647-12.633 0-32.362-10.939-35.883-13.253z" fill="#000" fill-opacity=".24"/><path d="m191.985 487.785c5.657 0 10.177-5.049 9.616-10.605-.84-9.846 2.886-20.489 10.222-30.75 6.674-9.338 13.828-14.455 8.325-20.49-5.502-6.035-17.912.608-24.087 9.223-10.185 14.247-15.064 29.312-13.737 43.97.495 4.878 4.003 8.652 9.661 8.652z" fill="#6c9eff" stroke="#333" stroke-miterlimit="10" stroke-width=".775"/><path d="m186.728 474.171c-.064-17.403 13.89-43.038 30.243-50.245-20.15-3.255-37.975 36.192-34.52 54.525 1.117-1.825 3.055-3.608 4.277-4.28z" fill="#000" fill-opacity=".15"/><path d="m249.703 534.209c.775-13.498 4.247-23.937 7.311-32.056s6.574-22.428-6.597-25.733c-18.832-4.725-29.188 39.389-29.961 52.846-.455 7.917 5.707 17.101 13.702 17.56 7.359.358 15.104-4.928 15.545-12.617z" fill="#6c9eff" stroke="#333" stroke-miterlimit="10" stroke-width=".775"/><path d="m220.27 529.247c7.982-1.085 22.94-1.085 29.217 5.27.052-.478.223-1.851.258-2.331-6.535-5.729-21.415-6.116-29.144-5.032-.041.512-.289 1.571-.331 2.093z" fill="#000" fill-opacity=".14"/><path d="m222.75 515.375c7.402 6.865 16.876 10.715 27.59 12.167.09-.776.28-1.888.387-2.635-10.633-1.376-19.871-5.828-27.28-12.555-.31.93-.561 2.366-.697 3.023z" fill="#000" fill-opacity=".14"/><path d="m262.297 534.209c-.775-13.498-4.247-23.937-7.311-32.056s-6.574-22.428 6.597-25.733c18.832-4.725 29.188 39.389 29.961 52.846.455 7.917-5.707 17.101-13.702 17.56-7.359.358-15.104-4.928-15.545-12.617z" fill="#6c9eff" stroke="#333" stroke-miterlimit="10" stroke-width=".775"/><path d="m291.73 529.247c-7.982-1.085-22.94-1.085-29.217 5.27-.052-.478-.223-1.851-.258-2.331 6.535-5.729 21.415-6.116 29.144-5.032.041.512.289 1.571.331 2.093z" fill="#000" fill-opacity=".14"/><path d="m289.25 515.375c-7.402 6.865-16.876 10.715-27.59 12.167-.09-.776-.28-1.888-.387-2.635 10.633-1.376 19.871-5.828 27.28-12.555.31.93.561 2.366.697 3.023z" fill="#000" fill-opacity=".14"/><path d="m320.015 487.785c-5.658 0-10.177-5.049-9.617-10.605.841-9.845-2.886-20.489-10.222-30.75-6.674-9.338-13.827-14.455-8.325-20.49 5.503-6.035 17.912.608 24.087 9.223 10.185 14.247 15.065 29.312 13.738 43.97-.495 4.878-4.004 8.652-9.661 8.652z" fill="#6c9eff" stroke="#333" stroke-miterlimit="10" stroke-width=".775"/><path d="m325.271 474.171c.064-17.403-13.89-43.038-30.242-50.245 20.15-3.255 37.975 36.192 34.52 54.525-1.118-1.825-3.055-3.608-4.278-4.28z" fill="#000" fill-opacity=".15"/><path d="m431.644 283.979c17.22 15.81 10.279 47.94-1.409 66.21-16.656 26.04-54.788 42.431-74.316 28.577-20.395-14.469-17.732-59.972 6.076-83.594 17.775-17.636 51.839-27.542 69.649-11.193z" fill="#f7c394" stroke="#333" stroke-miterlimit="10" stroke-width=".775"/><path d="m411.54 302.594c10.23 10.57 4.666 30.486-3.355 41.522-11.432 15.725-35.987 24.597-47.731 15.168-12.267-9.847-8.896-38.319 6.936-52.263 11.82-10.41 33.579-15.357 44.15-4.427z" fill="#ffc9a1"/><path d="m430.235 350.189c-9.407 14.702-30.241 31.499-53.723 33.591 16.486-3.875 40.302-20.747 47.529-32.041 11.688-18.27 17.881-52.541 1.409-66.21-5.023-4.169-17.783-10.094-35.298-6.994 21.39-6.587 34.532-.95 41.498 5.444 17.214 15.809 10.273 47.94-1.415 66.21z" fill="#000" fill-opacity=".1"/><path d="m80.3564 283.979c-17.2205 15.81-10.2796 47.94 1.4089 66.21 16.6563 26.04 54.7877 42.431 74.3167 28.577 20.395-14.469 17.732-59.972-6.076-83.594-17.776-17.636-51.8401-27.542-69.6496-11.193z" fill="#f7c394" stroke="#333" stroke-miterlimit="10" stroke-width=".775"/><path d="m100.46 302.594c-10.2301 10.57-4.6657 30.486 3.356 41.522 11.431 15.725 35.986 24.597 47.73 15.168 12.267-9.847 8.896-38.319-6.936-52.263-11.82-10.41-33.579-15.357-44.15-4.427z" fill="#ffc9a1"/><path d="m81.7655 350.189c9.4069 14.702 30.2405 31.499 53.7225 33.591-16.486-3.875-40.3022-20.747-47.5287-32.041-11.6886-18.27-17.8809-52.541-1.409-66.21 5.0233-4.169 17.7827-10.094 35.2977-6.994-21.39-6.587-34.532-.95-41.4977 5.444-17.2143 15.809-10.2734 47.94 1.4152 66.21z" fill="#000" fill-opacity=".1"/><path d="m256 394.94c23.87 0 34.1 20.925 40.3 38.13s8.99 34.1 8.99 45.26c0 23.56-21.496 47.347-49.29 47.585-27.207.234-49.29-24.025-49.29-47.585 0-11.16 2.743-28.133 8.99-45.26 6.2-17.205 16.43-38.13 40.3-38.13z" fill="#6c9eff" stroke="#333" stroke-miterlimit="10" stroke-width=".775"/><path d="m256 525.915c-27.229.248-51.15-24.335-49.29-52.235 1.55 22.94 22.498 44.715 49.29 44.485 26.792-.229 47.74-21.545 49.29-44.485 1.86 27.9-22.061 51.988-49.29 52.235z" fill="#000" fill-opacity=".15"/><path d="m256 414.16c16.12 0 24.8 10.54 26.97 19.84 5.346 22.913 9.92 42.47.62 54.25s-20.917 12.71-27.59 12.71c-7.37 0-18.29-.93-27.59-12.71s-5.028-30.043.62-54.25c2.17-9.3 10.85-19.84 26.97-19.84z" fill="#f7c394" stroke="#333" stroke-miterlimit="10" stroke-width=".775"/><path d="m256 500.96c-21.08 0-34.72-14.57-33.015-33.48.62 17.825 14.88 29.45 33.015 29.45s32.395-11.625 33.015-29.45c1.705 18.91-11.935 33.48-33.015 33.48z" fill="#000" fill-opacity=".1"/><path d="m317.225 436.789c-17.878 7.009-42.005 12.245-61.225 12.245s-40.197-4.097-61.225-12.245c-1.122 1.634-2.575 4.073-3.565 5.735 22.01 8.835 42.625 13.33 64.79 13.33s42.78-4.495 64.79-13.33c-.954-1.658-2.468-4.085-3.565-5.735z" fill="#000" fill-opacity=".15"/><path d="m333.55 130.045c6.559-5.557-19.27-11.78-22.711-21.621-4.154-11.8595 61.317 19.7 51.394 40.467-.775 1.629-8.592 14.57-64.73-3.684 61.715 20.023 108.447 62.483 108.227 141.077-.169 60.257-54.261 153.576-149.796 154.408-92.167.805-149.83-92.414-149.664-154.408.205-75.708 66.98-153.595 149.73-159.417 49.509-3.48 72.12 7.766 77.55 3.178z" fill="#6c9eff" stroke="#333" stroke-linecap="round" stroke-linejoin="round" stroke-width=".775"/><path d="m343.6 133.507c-4.597 10.1-32.83-6.2-82.339-2.719-101.287 7.121-174.6757 119.536-134.01 210.658 10.562-10.909 23.427-14.009 27.527-15.37 1.23 1.328 2.728 2.739 3.262 3.376-12.611 3.929-27.268 12.463-33.577 24.31-11.822-22.878-18.135-46.897-18.072-67.476.205-75.71 66.994-153.605 149.744-159.428 49.509-3.48 72.007 7.765 77.437 3.171 6.538-5.541-19.292-11.765-22.731-21.606-1.328-3.791 4.467-3.141 12.64.176-3.1-.447-4.805.283-3.96 2.459 3.004 7.811 27.946 13.954 24.079 22.449z" fill="#000" fill-opacity=".14"/><path d="m405.498 286.295c-.056 19.8-5.909 43.169-17.134 65.654-11.619-15.91-32.431-22.265-34.559-22.265.62-.775 2.48-3.053 3.1-3.797 3.643.852 19.936 4.326 29.029 16.461 9.191-20.483 13.41-39.55 13.46-57.483.228-81.257-54.811-121.651-101.891-139.658 61.715 20.022 108.215 62.492 107.995 141.088z" fill="#000" fill-opacity=".14"/><path d="m213.375 186.542c-46.035 0-103.075 97.417-56.342 142.367-89.2028 27.9 0 120.745 98.967 120.745 98.968 0 188.17-92.845 98.968-120.745 46.732-44.95-10.308-142.367-56.343-142.367-19.607 0-30.303 9.067-42.625 18.057-12.322-8.99-23.017-18.057-42.625-18.057z" fill="#ffcd98" stroke="#333" stroke-width=".775"/><path d="m372.111 281.634c-2.434-47.823-41.075-95.044-74.633-95.044-20.863 0-33.511 12.732-41.478 18.009-6.37-4.347-20.537-18.009-41.602-18.009-39.618 0-74.105 57.844-74.73 96.52-3.483-41.621 28.458-104.086 74.947-104.086 24.18 0 37.045 11.625 41.385 16.43 4.34-4.805 17.205-16.43 41.385-16.43 46.132 0 78.043 59.133 74.726 102.61z" fill="#000" fill-opacity=".14"/><path d="m124.033 351.333c-21.068 38.016 51.819 98.244 131.967 98.244s153.942-60.892 131.712-98.868c14.78 34.736-55.651 93.055-131.712 93.055-75.607 0-145.651-57.625-131.967-92.431z" fill="#000" fill-opacity=".1"/><path d="m139.808 280.145c-1.103 18.204 3.723 35.652 17.275 48.687-1.616.506-3.174 1.187-4.674 1.735 3.461-1.115 6.768-1.904 10.591-2.587-13.104-12.604-20.687-29.724-23.192-47.835z" fill="#000" fill-opacity=".1"/><path d="m359.928 330.615c-3.374-.994-6.913-1.918-10.928-2.635 13.225-12.721 20.827-30.041 23.261-48.338 1.222 18.386-3.566 36.035-17.243 49.19 1.755.549 3.292 1.185 4.91 1.783z" fill="#000" fill-opacity=".1"/><path d="m218.748 217.474c24.008 2.79 41.305 32.357 38.75 58.4-2.539 25.937-25.217 53.01-51.131 50.065-23.529-2.682-38.79-28.864-39.293-50.865-.668-29.475 24.931-60.709 51.674-57.6z" fill="#fff"/><path d="m247.898 282.91c3.427-17.663-6.121-34.374-21.327-37.324-15.205-2.95-30.31 8.977-33.737 26.64s6.122 34.373 21.327 37.323c15.206 2.951 30.311-8.977 33.737-26.639z" fill="#ac6edd" stroke="#333" stroke-miterlimit="10" stroke-width=".775"/><path d="m222.087 300.942c9.069 0 16.421-8.221 16.421-18.361 0-10.141-7.352-18.362-16.421-18.362s-16.421 8.221-16.421 18.362c0 10.14 7.352 18.361 16.421 18.361z" fill="#000"/><path d="m236.609 269.748c1.155-3.263-.684-6.89-4.107-8.102-3.423-1.211-7.135.452-8.289 3.714-1.155 3.263.684 6.89 4.107 8.101 3.423 1.212 7.135-.451 8.289-3.713z" fill="#fff" stroke="#333" stroke-miterlimit="10" stroke-width=".775"/><path d="m230.564 221.185c-31.68-8.664-58.044 28.869-57.398 57.042.383 16.623 9.201 35.617 23.668 45.205-18.042-7.561-29.326-29.501-29.76-48.36-.671-29.467 24.928-60.696 51.671-57.59 4.135.494 8.142 1.75 11.819 3.703z" fill="#000" fill-opacity=".05"/><path d="m234.862 248.859c-17.491-4.971-32.975 10.121-36.138 26.418-2.596 13.384 2.181 26.229 11.214 33.069-12.691-4.96-20.186-20.139-17.089-36.098 3.429-17.67 18.535-29.588 33.741-26.637 2.932.57 5.736 1.67 8.272 3.248z" fill="#000" fill-opacity=".15"/><path d="m292.27 216.832c-23.953 3.205-40.732 33.07-37.727 59.067 2.992 25.885 26.138 52.56 51.998 49.155 23.478-3.091 38.285-29.535 38.398-51.541.152-29.474-25.987-60.253-52.669-56.681z" fill="#fff"/><path d="m298.43 308.867c15.152-3.215 24.407-20.089 20.673-37.69-3.735-17.6-19.046-29.262-34.197-26.047-15.152 3.216-24.408 20.09-20.673 37.69 3.735 17.601 19.045 29.262 34.197 26.047z" fill="#ac6edd" stroke="#333" stroke-miterlimit="10" stroke-width=".775"/><path d="m290.386 300.345c9.067-.159 16.274-8.506 16.097-18.645-.176-10.139-7.671-18.231-16.738-18.072-9.068.158-16.275 8.506-16.098 18.645s7.671 18.23 16.739 18.072z" fill="#000"/><path d="m300.693 273.481c3.402-1.271 5.177-4.93 3.966-8.172-1.212-3.242-4.952-4.84-8.353-3.569-3.402 1.272-5.177 4.93-3.966 8.172 1.212 3.242 4.951 4.84 8.353 3.569z" fill="#fff" stroke="#333" stroke-miterlimit="10" stroke-width=".775"/><path d="m344.935 273.513c-.102 19.107-11.276 41.561-29.587 49.168 14.77-9.551 23.573-29.152 23.663-46.12.149-28.456-28.07-66.843-59.823-55.053 4.03-2.418 8.415-4.052 13.078-4.676 26.686-3.572 52.825 27.207 52.669 56.681z" fill="#000" fill-opacity=".05"/><path d="m301.739 307.893c9.434-6.766 14.353-20.006 11.45-33.682-3.471-16.358-19.605-31.218-37.004-25.373 2.639-1.804 5.606-3.073 8.732-3.737 15.153-3.217 30.464 8.444 34.201 26.04 3.457 16.29-4.21 31.956-17.379 36.752z" fill="#000" fill-opacity=".15"/><path d="m242.05 551.18c4.96 0 9.779-3.657 10.338-8.701 1.413-12.744-14.624-13.902-23.352-14.093-8.851-.194-23.876 1.482-26.509 11.201-2.301 8.493 5.656 11.593 11.313 11.593 5.658 0 7.595-1.883 14.413-1.883 5.954 0 8.838 1.883 13.797 1.883z" fill="#f7c394" stroke="#333" stroke-miterlimit="10" stroke-width=".775"/><path d="m241.895 547.77c-4.959 0-7.843-1.883-13.797-1.883-6.818 0-8.755 1.883-14.413 1.883-4.4 0-10.191-1.875-11.465-6.705-1.043 7.378 6.304 10.115 11.62 10.115 5.658 0 7.595-1.883 14.413-1.883 5.954 0 8.838 1.883 13.797 1.883 6.644 0 11.315-5.293 10.216-12.44-.46 5.186-5.275 9.03-10.371 9.03z" fill="#000" fill-opacity=".1"/><path d="m269.95 551.18c-4.959 0-9.778-3.657-10.337-8.701-1.413-12.744 14.624-13.902 23.352-14.093 8.851-.194 23.875 1.482 26.509 11.201 2.301 8.493-5.656 11.593-11.314 11.593-5.657 0-7.595-1.883-14.412-1.883-5.954 0-8.838 1.883-13.798 1.883z" fill="#f7c394" stroke="#333" stroke-miterlimit="10" stroke-width=".775"/><path d="m270.105 547.77c4.96 0 7.844-1.883 13.798-1.883 6.817 0 8.755 1.883 14.412 1.883 4.401 0 10.192-1.875 11.466-6.705 1.043 7.378-6.304 10.115-11.621 10.115-5.657 0-7.595-1.883-14.412-1.883-5.954 0-8.838 1.883-13.798 1.883-6.643 0-11.314-5.293-10.215-12.44.46 5.186 5.275 9.03 10.37 9.03z" fill="#000" fill-opacity=".1"/><path d="m194.217 505.283c8.806.007 14.413-10.557 9.081-17.867 2.467-7.008-2.803-14.786-10.332-14.966-8.68-.207-13.697 9.068-12.788 16.916.85 7.333 5.817 15.91 14.039 15.917z" fill="#f7c394" stroke="#333" stroke-miterlimit="10" stroke-width=".775"/><path d="m180.178 489.366c1.052 9.077 8.428 19.654 19.433 14.539-10.668-1.365-18.135-19.453-12.882-29.735-.836.595-2.153 1.292-4.278 4.28-1.905 3.367-2.743 7.16-2.273 10.916z" fill="#000" fill-opacity=".1"/><path d="m222.675 325.346c0 11.834 15.322 26.195 33.52 26.04 16.774-.148 33.13-14.346 33.13-26.006 0-23.58-66.65-23.936-66.65-.034z" fill="#000" fill-opacity=".1"/><path d="m222.21 322.555c0 11.835 15.536 26.195 33.987 26.04 17.009-.147 33.593-14.345 33.593-26.005 0-9.383-19.567-17.635-33.593-17.515-13.023.12-33.987 6.379-33.987 17.48z" fill="#7a5d43"/><path d="m222.455 320.505c6.472 8.486 19.325 15.646 33.767 15.534 13.362-.106 26.492-7.304 33.184-15.74.251.753.384 1.518.384 2.29 0 11.661-16.584 25.859-33.593 26.006-18.451.155-33.987-14.205-33.987-26.04 0-.703.084-1.386.245-2.05z" fill="#000" fill-opacity=".2"/><path d="m317.783 505.283c-8.807.007-14.413-10.557-9.082-17.867-2.467-7.008 2.803-14.786 10.332-14.966 8.681-.207 13.697 9.068 12.788 16.916-.849 7.333-5.816 15.91-14.038 15.917z" fill="#f7c394" stroke="#333" stroke-miterlimit="10" stroke-width=".775"/><path d="m331.821 489.366c-1.051 9.077-8.427 19.654-19.432 14.539 10.667-1.365 18.135-19.453 12.882-29.735.835.595 2.153 1.292 4.278 4.28 1.905 3.367 2.743 7.16 2.272 10.916z" fill="#000" fill-opacity=".1"/><path d="m347.185 360.299c3.227 2.263 3.989 7.597 1.159 10.475-.609.62-1.973.162-1.803-.806.492-2.795-.101-5.755-.961-8.435-.295-.921.741-1.804 1.6-1.226z" fill="#000" fill-opacity=".1"/><path d="m163.77 382.154c-2.736 2.838-2.466 8.219.861 10.504.716.492 1.967-.218 1.616-1.135-1.016-2.65-.999-5.668-.666-8.464.114-.959-1.071-1.629-1.805-.898z" fill="#000" fill-opacity=".1"/><path d="m339.424 359.256c3.517 3.704 3.937 9.945 1.063 14.142-.878 1.328-2.839.326-2.506-1.156.336-1.51.561-3.059.552-4.609-30.562 4.688-61.239 8.62-91.959 12.103-23.662 2.592-50.076 5.672-72.399 7.305.226 1.68.731 3.314 1.366 4.881.537 1.383-1.271 2.549-2.31 1.49-3.515-3.672-4.099-9.904-1.241-14.127.918-1.32 2.675-.297 2.526 1.122-.242 1.224-.42 2.468-.475 3.716 23.608-4.051 48.056-6.774 71.986-9.569 30.74-3.347 61.485-6.482 92.219-9.887-.256-1.356-.683-2.657-1.149-3.953-.498-1.381 1.299-2.508 2.325-1.458z" fill="#634b37"/><path clip-rule="evenodd" d="m273.06 423.991 23.056 2.654c.814.105 1.423.885 1.315 1.707l-2.668 22.37c-.288 2.225-2.739 2.735-4.616 2.523-4.688-.337-17.378-1.692-27.266-2.793l.232.216s25.202 2.806 46.418 5.171c.254 1.024.358 1.577.641 2.807.111.481.155 1.085.775 1.162.615.077.742-.08.853-.93.142-1.087.256-2.121.328-2.75.538.058 1.076.118 1.613.179.306 1.021.461 2.261.694 3.114.232.852 1.395 1.24 1.55.155.176-1.238.241-1.752.382-2.977l1.588.179c.355 1.248.379 2.086.742 3.418.233.852 1.438 1.007 1.55 0 .155-1.395.263-2.293.358-3.126l1.562.175c.095.285.625 2.892.793 3.648.155.698 1.315.735 1.395.233.232-1.473.394-2.791.484-3.581l1.542.171c.299.852.484 2.381.745 3.487.161.685.404.809.794.853.697.077.771-.746.852-1.395.081-.65.306-2.645.306-2.645l1.638.183c.304 1.377.571 2.514.769 3.702.155.93 1.481.811 1.534.257l.418-3.655c.536.059 1.035.114 1.489.168.201.827.593 2.477.821 3.617.233 1.163 1.418.942 1.473.388l.456-3.691c.784.048 1.506.193 1.791.978.211-.35.588-.489 1.019-.431l10.685 1.418c.851.114 1.516 1.318 1.687 2.07.973.17 5.933 3.313 9.638 7.068 3.276.187 9.16.62 12.937.572.86-3.205 2.009-5.311 3-5.183 12.379 1.607 24.76 3.201 37.14 4.803.838.11 1.568.682 1.877 1.469 2.282 5.942 1.724 13.394-2.354 18.456-.504.627-1.319.954-2.117.849-12.414-1.602-24.877-3.213-37.22-4.805 2.26.29 7.714.988-.009-.01-.669-.087-1.148-1.175-1.395-2.893l-3.098-.401c-.342-.051-.314-.574-.325-.843-1.608-.172-5.993-.881-7.467-1.322-.088.493-.08 1.012-.285 1.477-.424.956-.434 2.196-.434 3.025-.184 2.194-.625 5.603-1.424 7.851-.137.388-.775 1.008-2.022.923-.002.954-.039 1.898-.12 2.827-8.693-.82-17.358-2.031-26.018-3.151l-2.758 3.851c-9.764-1.857-19.188-2.957-29.022-4.166l-2.99-.368-.164-.635-3.343-.403c.067.257.121.466.16.618l-4.143-.512-.157-.606-3.35-.404.155.601-3.933-.48-.154-.595-3.353-.405.152.587-4.142-.506-.151-.58-3.346-.404c.061.236.111.43.148.571-4.986-.615-9.973-1.219-14.96-1.822l-.045-.006-.006-.001-1.043-.126-.143-.552-3.347-.404c.058.224.106.41.143.551l-4.14-.498-.143-.552-3.344-.404c.058.225.106.412.143.554-5.565-.664-9.054-1.066-9.119-1.036-1.126 2.384-5.579 3.401-8.551 4.079-2.126.486-4.517.751-6.341-.766-1.514-1.259-7.834-1.857-7.834-1.857-4.264 2.798-4.352 2.951-4.581 7.813-.421 1.439-2.306.987-3.444 1.821-1.036.744-7.107 7.87-7.339 8.719-.637 1.763-.732 3.354.098 5.085.561 3.249-1.696 3.332-4.274 3.415-.557-.07-15.012-7.716-15.511-8.221-.438-.541-.19-2.836.121-3.874 1.272-.981 1.739-1.204 1.936-1.571.409-.763.252-1.995.366-2.836.329-1.114 6.297-9.046 12.933-11.451 2.813-.978 5.379-6.228 4.775-9.913-.726-2.824-2.47-5.604-4.762-7.393-.782-.247-1.449-.127-1.832-.472-.744-.67-.849-1.977-1.667-3.302-.106-.173-1.244-.701-2.524-1.229-1.452.163-2.941-.252-4.096-1.151-2.846 1.174-21.479 9.49-22.527 10.299-1.122.867-16.899 15.71-17.209 15.796-1.704-.192-3.414-.321-5.114-.541-.223.445-2.052 1.9-2.353 2.061-.249.133-2.94-.388-4.277-.863-.571.846-1.539 1.402-2.637 1.401-2.43-.004-3.942-2.754-2.724-4.797-.631-.691-1.267-1.559-1.761-2.233-.934-1.274-1.825-1.146-3.317-1.614-.777-.243-1.173-.998-1.082-1.807l4.685-41.569c.131-1.164 1.156-2.01 2.321-1.89 2.997.307 7.726.852 11.603 1.308 1.938-7.104 4.193-20.85 55.159-12.502-.357-1.564.118-3.691 2.699-4.494 3.314-1.03 4.731 1.09 5.206 2.41.591 1.641.218 2.773-.775 3.72l1.329.194c.162-.705.372-1.388.627-2.027.22-.555.804-.899 1.396-.822l4.201.543c.663-2.264 1.725-4.335 3.208-5.957 1.071-1.172 2.683-1.76 4.257-1.555l44.994 5.179c.023-.117.067-.205.134-.261.526-.441 9.593.75 10.383 1.159.084.044.219.168.394.357zm-16.555 23.678-6.232-.744c.304.211.56.382.706.43.438.145 4.445.482 5.526.314zm-11.331-1.354-30.573-3.653c-1.576-.202-2.987-1.182-3.727-2.588-.884-1.693-1.485-3.674-1.789-5.763l-4.779-.62c-.905-.113-1.374-1.192-1.394-2.015l-5.967-.853c0 .155-.34.42-.747.378-8.74-.895-47.686-8.957-49.959 7.757.735.652 1.488 2.703 1.855 2.883 2.754.345 5.688.713 8.783 1.101-.314-.113-1.085-.261-1.085-.494 8.448-4.417 32.473.698 51.109 2.261l.53-.747.492.058h.001c13.891 1.611 27.78 3.223 41.682 4.73-.625-.447-1.888-1.485-2.213-1.612-.398-.156-1.641-.105-1.914-.158-.205-.04-.314-.403-.305-.665zm128.192 33.448-1.67-.216c-.29-.032-.382.308-.459.52-1.444-.22-4.053-.736-5.471-1.061.278-.21.525-.449.693-.72 2.3.503 4.622.907 6.907 1.477zm-153.368 5.823c-3.354-2.685-1.461-7.853 2.408-8.887.36-.051 2.167.108 4.18.316-.565 2.791-1.536 6.69-1.91 8.165-.09.351.118.722.464.827.7.207 2.645.356 2.873-.708l1.799-7.935c1.313.147 2.403.276 2.847.329 3.406.635 3.19 6.177 1.152 8.074-1.661 1.695-4.179 2.27-6.448 2.446-3.046.34-4.823-.345-7.365-2.627zm-85.901-2.525 4.136-21.299c.067-.288.402-.44.662-.309l17.966 9.497c.433.229.515.836.172 1.174l-12.917 12.69c-3.334-.617-6.689-1.117-10.019-1.753zm38.414-18.894c-11.061-2.344-18.501-3.119-29.138-4.831-.817-.108-1.094.995-.433 1.331l16.62 9.014c3.75-1.735 8.632-3.75 12.951-5.514z" fill="#ff6a6a" fill-rule="evenodd" stroke="#333" stroke-width="1.55"/><path d="m196.62 430.402 9.097 1.208.514-3.867-9.098-1.209z" fill="#695624"/><path d="m196.852 428.647-.273 2.114 6.579.85.273-2.113z" fill="#5b4920"/><path d="m139.836 438.09c1.371.15 4.865.697 6.394.939 2.171-16.808 41.215-8.725 49.968-7.828 1.635.166 1.933-5.128.853-5.314-53.056-9.072-55.248 5.018-57.215 12.203z" fill="#161719"/><path d="m146.23 439.029c2.173-16.808 41.214-8.723 49.968-7.828.746.076 1.214-.982 1.398-2.168-.15.123-.343.182-.536.164-9.187-.921-50.247-9.23-52.658 9.479.53.137 1.139.276 1.828.353z" fill="#09090a"/><path d="m230.324 475.104-2.311 10.194c-.228 1.065-2.173.916-2.873.709-.346-.105-.554-.476-.464-.827.523-2.065 2.216-8.877 2.33-10.756.128-2.22 3.318.68 3.318.68z" fill="#c1c1c1"/><path d="m225.007 485.956c.739.454 2.779.36 3.006-.658l2.309-10.192c-1.555-1.414-3.899-2.335-1.511-.195l-2.308 10.191c-.129.587-.995.807-1.496.854z" fill="#a5a5a5"/><path d="m325.428 495.695-82.312-9.93-3.055-15.193 83.249 10.09z" fill="#161719"/><path clip-rule="evenodd" d="m121.239 480.198c-.091.809.305 1.564 1.082 1.807 1.492.468 2.383.34 3.317 1.614.599.818 1.408 1.921 2.163 2.648-.635 3.891 2.659 4.033 4.381 2.855.589.131 4.734 1.038 5.035.877s1.95-1.504 2.173-1.948c1.44.185 3.694.38 5.114.54.31-.086 16.087-14.929 17.209-15.796 1.122-.866 22.41-10.341 22.883-10.436.473-.096 6.023 2.126 6.264 2.517s1.322 3.128 1.589 3.294c.266.166 1.058.211 1.91.48 2.292 1.789 4.036 4.569 4.762 7.393.604 3.685-1.962 8.935-4.775 9.913-6.636 2.405-12.604 10.337-12.933 11.451-.255 1.873-.153 2.439-.366 2.836-.197.367-.664.59-1.936 1.571-.311 1.038-.559 3.333-.121 3.874.499.505 14.954 8.151 15.511 8.221 2.578-.083 4.835-.166 4.274-3.415-.83-1.731-.735-3.322-.098-5.085.232-.849 6.303-7.975 7.339-8.719 1.138-.834 3.023-.382 3.444-1.821.229-4.862.317-5.015 4.581-7.813 0 0 6.32.598 7.834 1.857 1.824 1.517 4.215 1.252 6.341.766 2.972-.678 7.425-1.695 8.551-4.079.065-.03 3.554.372 9.119 1.036-.401-1.552-2.213-8.536-2.81-10.838-.554-2.134 2.383-3.33 2.947-1.148l3.207 12.388 4.14.499c-.426-1.647-2.416-9.326-2.883-11.131-.505-1.953 2.533-2.739 3.038-.786l3.192 12.321c5.352.648 10.704 1.295 16.054 1.955-.42-1.623-2.621-10.121-3.092-11.93-.506-1.957 2.535-2.743 3.04-.786l3.401 13.129 4.142.506-3.073-11.879c-.514-1.919 2.568-2.779 3.037-.787l3.391 13.079 3.933.48-3.061-11.83c-.498-1.921 2.571-2.778 3.04-.786l3.373 13.025 4.143.512c-.419-1.63-2.582-9.972-3.05-11.785-.506-1.953 2.532-2.739 3.037-.786l3.36 12.991c11.612 1.429 22.138 2.721 28.38 3.499l.545.635 3.087.4 2.758-3.851c8.899 1.15 17.357 2.334 26.018 3.151.801-9.19-2.628-19.749-4.009-28.684-50.179-6.615-157.629-20.161-207.077-26.358-.428-.21-1.383-2.97-2.22-3.078-2.358-.283-12.515-1.5-17.629-2.024-1.165-.12-2.19.726-2.321 1.89zm101.167-3.499c-3.869 1.034-5.762 6.202-2.408 8.887 2.542 2.282 4.319 2.967 7.365 2.627 2.269-.176 4.787-.751 6.448-2.446 2.038-1.897 2.254-7.439-1.152-8.074-1.42-.171-9.447-1.108-10.253-.994zm-84.173-14.937-4.136 21.299c1.985.379 7.045 1.203 10.019 1.753l12.917-12.69c.343-.338.261-.945-.172-1.174l-17.966-9.497c-.26-.131-.595.021-.662.309zm34.278 2.405c-1.761.679-10.441 4.321-12.951 5.514l-16.62-9.014c-.661-.336-.384-1.439.433-1.331l20.656 2.821c3.366.869 5.952 1.394 8.482 2.01z" fill="#292c31" fill-rule="evenodd"/><path d="m377.753 486.508 35.226 4.546c.798.105 1.613-.222 2.117-.849 1.123-1.394 2.939-4.246 3.509-8.657.44-3.311.042-6.68-1.156-9.799-.308-.787-1.038-1.359-1.876-1.469l-35.136-4.546s2.46.915 1.193 10.709-3.877 10.065-3.877 10.065z" fill="#262827"/><path d="m379.691 476.194c.741-5.733.178-10.531-1.258-10.717-1.435-.186-3.2 4.312-3.94 10.045-.741 5.733-.178 10.531 1.257 10.717 1.436.185 3.2-4.312 3.941-10.045z" fill="#b8a98a"/><path d="m360.454 470.004c2.296-.013 14.617 1.121 17.778.445.41 2.731-.665 9.308-1.593 10.448-2.45-1.517-12.737-2.679-13.17-3.603-.433-.925-3.015-7.29-3.015-7.29z" fill="#b8a98a"/><path d="m361.957 473.705c.65 1.582 1.302 3.162 1.504 3.587.44.931 10.728 2.088 13.179 3.604.398-.489.824-1.978 1.146-3.738-3.574-1.31-12.949-2.563-15.829-3.453z" fill="#a89a80"/><path d="m372.143 480.172c-.93-.012-6.8-1.192-7.322-1.413s-1.797 1.392-1.847 1.781 7.342 1.57 8.425 1.6c1.084.029.744-1.968.744-1.968z" fill="#252a28"/><path d="m362.974 480.54c-.05.386 7.343 1.57 8.425 1.599.704.02.807-.82.794-1.409-.109.296-.31.513-.676.503-.949-.025-6.73-.94-8.123-1.422-.233.312-.402.593-.42.729z" fill="#191c1b"/><path d="m339.877 464.12 10.684 1.419c.58.077 1.112-.33 1.189-.91l.331-2.49c.077-.579-.331-1.112-.91-1.189l-10.684-1.418c-.58-.077-1.112.33-1.189.91l-.331 2.49c-.077.579.331 1.111.91 1.188z" fill="#a5a5a5"/><path d="m339.179 460.568-.314 3.117c-.355 2.761 12.581 3.449 12.81 1.655l.314-3.116c-.072.566-.615.99-1.187.914l-10.704-1.383c-.573-.072-.992-.619-.919-1.187z" fill="#939393"/><path d="m342.59 464.544 1.078.139c.2.026.384-.116.41-.316l.438-3.391c.026-.201-.116-.384-.316-.41l-1.078-.139c-.2-.026-.383.115-.409.316l-.438 3.391c-.026.2.115.384.315.41z" fill="#292c31"/><path d="m283.119 468.124c.31.252 2.785 3.995 3.239 4.053s55.668 6.523 56.216 6.747 4.64 13.571 5.442 13.675l11.129 1.439c1.635.18 1.991-.501 2.194-.848.216-.367 1.448-6.672 1.407-7.912.003-.854-.347-1.994.27-2.737.491-.668.281-1.608.616-2.324.142-.294 2.968-1.04 3.057-2.631z" fill="#d8d8d8"/><path d="m354.149 484.143 8.603 1.14c.004-1.226.035-1.929.435-3.047l-8.717-.902c-1.779-.162-2.132 2.578-.321 2.809z" fill="#c4c4c4"/><path d="m155.923 442.602c6.042 2.134 10.615 4.06 14.288 9.675.383.724 1.413 1.377 1.921 1.442 9.535 1.235 13.468 1.718 21.101 3.773.88.237 89.567 10.381 89.875 10.632l83.577 9.474c.327-5.864-12.217-14.297-13.827-14.578-.194-.842-.18-1.013-1.158-1.019-.133-.017-.124 2.367-.425 2.411-2.27-.102-9.857-.333-11.653-1.762.239-3.554-.79-3.498-1.946-3.665l-.427 3.719c-.056.555-.696.829-1.057.782-1.001-.112-1.083-4.539-1.266-4.815-.454-.054-.953-.109-1.489-.168l-.418 3.655c-.053.554-.752.658-1.113.611-.693-.078-1.009-4.29-1.19-4.569l-1.638-.184-.41 3.58c-.055.553-.647.82-1.007.773-.77-.087-1.099-4.371-1.28-4.653l-1.542-.171-.4 3.504c-.054.554-.772.564-1.133.517-.77-.086-.958-4.036-1.139-4.321l-1.562-.175-.394 3.433c-.055.553-.771.556-1.132.509-.966-.421-.941-3.947-1.124-4.234l-1.588-.179-.385 3.357c-.055.555-.738.368-1.098.321-.758-.291-.96-3.68-1.143-3.97-.531-.06-1.071-.121-1.613-.179l-.375 3.281c-.054.555-.767.541-1.128.494-.821-.326-.915-3.774-1.094-4.064-21.216-2.365-46.418-5.17-46.418-5.17l-.592-.553c-18.382-1.892-36.734-4.024-55.09-6.154l-.53.747c-2.349.35-46.082-7.179-50.978-2.107z" fill="#e9e9e9"/><path d="m359.338 473.104c.892.002 1.616-.72 1.617-1.612.002-.892-.72-1.617-1.612-1.618s-1.616.721-1.618 1.613c-.001.892.721 1.616 1.613 1.617z" fill="#d6d6d6"/><path d="m354.846 472.217c.892.001 1.616-.721 1.617-1.613.002-.892-.72-1.616-1.612-1.617s-1.616.721-1.618 1.613c-.001.892.721 1.616 1.613 1.617z" fill="#d6d6d6"/><path d="m356.532 475.812c.892.002 1.616-.72 1.617-1.612s-.721-1.616-1.613-1.618c-.892-.001-1.616.721-1.617 1.613s.721 1.616 1.613 1.617z" fill="#d6d6d6"/><path d="m348.098 479.111c.727.001 1.317-.587 1.318-1.314s-.588-1.317-1.314-1.318c-.727-.001-1.317.587-1.318 1.314s.587 1.317 1.314 1.318z" fill="#252a28"/><path d="m293.442 472.504c.727.001 1.317-.587 1.318-1.314s-.587-1.317-1.314-1.318-1.317.587-1.318 1.314.587 1.317 1.314 1.318z" fill="#252a28"/><path d="m300.023 472.65 42.739 4.855 1.6-2.439-46.182-5.235z" fill="#a5a5a5"/><path d="m207.046 459.15 76.073 8.973-3.275-4.455-69.802-8.009z" fill="#bfbfbf"/><path d="m377.751 486.5 35.228 4.554c.799.104 1.613-.222 2.119-.849 1.034-1.282 2.66-3.813 3.353-7.656l-37.006-4.784c-1.321 8.507-3.694 8.735-3.694 8.735z" fill="#181919"/><path d="m326.912 496.776.396.401 3.087.4 2.758-3.851c3.048.394 6.105.79 9.176 1.188 5.486.71 11.017 1.426 16.622 2.148.186.024.351-.122.35-.31l-.016-1.833-26.902-3.467-2.583 3.603-3.085-.399-.545-.635c-9.481-1.181-19.019-2.349-28.525-3.517l.747 2.545c9.456 1.163 17.593 2.254 28.52 3.727z" fill="#191b1e"/><path d="m295.037 492.63-4.142-.511-.744-2.542c1.375.169 2.888.354 4.231.521z" fill="#191b1e"/><path d="m287.549 491.709-3.933-.48-.743-2.543 4.021.488z" fill="#191b1e"/><path d="m280.264 490.817-4.143-.507-.742-2.544 4.229.516z" fill="#191b1e"/><path d="m272.772 489.899c-5.67-.7-11.155-1.362-16.053-1.955l-.746-2.551c4.88.592 10.488 1.274 16.144 1.965v.009z" fill="#191b1e"/><path d="m253.376 487.538-4.139-.499-.747-2.551 4.231.508v.01z" fill="#191b1e"/><path d="m371.257 482.945 4.672.604c.112.015.228-.036.294-.128.619-.89.77-2.053.396-3.072-.039-.105-.139-.184-.251-.198l-4.672-.604c-.125-.014-.253.055-.31.167-.401.823-.565 2.091-.386 2.989.026.124.132.224.257.242z" fill="#252a28"/><path d="m370.989 482.703c.028.127.135.226.263.242l4.673.605c.112.015.228-.036.293-.128.425-.609.649-1.365.597-2.109-.102.318-.25.619-.44.893-.066.092-.182.142-.293.128l-4.673-.604c-.129-.017-.236-.116-.263-.243-.047-.301-.057-.607-.03-.91-.195.705-.239 1.093-.127 2.126z" fill="#191c1b"/><path d="m375.758 486.249 1.993.257s2.614-.257 3.879-10.052c1.265-9.796-1.195-10.709-1.195-10.709l-1.993-.259c1.437.186 1.998 4.984 1.259 10.718-.74 5.734-2.506 10.231-3.943 10.045z" fill="#9b8e78"/><path d="m156.973 442.983c-.468-.184-.833-.298-1.05-.381-1.061-.417 4.875-2.274 12.508-1.838s38.473 3.965 38.473 3.965l.53-.746c18.359 2.13 36.716 4.248 55.101 6.141l.591.552s25.202 2.805 46.418 5.171l.741 3.535c.099.481 1.252.662 1.452.151l-.126 1.092c-.065.592-1.366.528-1.481-.034l-.742-3.535-46.418-5.172-.592-.553c-18.384-1.89-36.738-4.018-55.096-6.147l-.529.745s-30.843-3.528-38.473-3.966c-4.981-.288-9.244.383-11.307 1.02z" fill="#bfbfbf"/><path d="m334.788 459.878c-.254-.025-.523-.053-.805-.083-.215-.024-.438-.048-.667-.074l.138-1.218c.496.055.993.109 1.489.168l.841 3.998c.106.514 1.243.685 1.452.151l-.126 1.093c-.07.615-1.36.552-1.483-.035z" fill="#bfbfbf"/><path d="m337.548 460.195.575.064c.414.054 1.714.477 1.353 3.6-.08.62 4.958 1.275 5.951 1.404.993.128 5.398.403 5.702.355.169-.024.343-1.454.288-1.445-1.606.265-10.202-.274-11.671-1.768.321-2.849-1.052-3.3-1.466-3.353l-.594-.067z" fill="#bfbfbf"/><path d="m352.314 463.281c.21.027.4.948.4.948 1.498.262 12.486 7.596 13.716 13.339l.265.031c.328-5.863-12.216-14.296-13.826-14.578 0 0-.185-.921-.399-.949-.252-.033-.507-.037-.759-.069-.075-.013-.136 1.04-.151 1.209.251.03.503.037.754.069z" fill="#bfbfbf"/><path d="m328.95 459.234 1.62.182.823 3.923c.124.597 1.407.706 1.482.034l.125-1.084c-.195.499-1.338.395-1.452-.15l-.822-3.924-1.638-.184z" fill="#bfbfbf"/><path d="m326.235 458.932-1.522-.169.137-1.205 1.542.172.805 3.845c.105.513 1.24.681 1.45.151l-.125 1.085c-.067.616-1.361.552-1.482-.035z" fill="#bfbfbf"/><path d="m320.478 458.288 1.549.173.792 3.769c.115.562 1.416.627 1.481.035l.126-1.093c-.209.534-1.346.363-1.452-.15l-.79-3.77-1.562-.174z" fill="#bfbfbf"/><path d="m317.811 457.993-1.572-.176.14-1.202 1.588.179.77 3.688c.098.481 1.251.663 1.45.151l-.125 1.085c-.072.645-1.375.482-1.482-.035z" fill="#bfbfbf"/><path d="m312 457.348c.533.056 1.065.115 1.597.174l.757 3.614c.115.564 1.418.629 1.482.035l.131-1.162c-.201.51-1.337.319-1.436-.161l-.776-3.526c-.538-.06-1.075-.121-1.613-.179z" fill="#bfbfbf"/><path d="m132.565 482.81c.454.129.916.181 1.532.25l4.133-21.298c.067-.288.402-.44.662-.309l-1.432-.799c-.266-.131-.605.032-.663.328z" fill="#191b1e"/><path d="m123.564 479.843 4.968-43.075c-1.599-.18-2.455.499-2.608 1.861l-4.685 41.569c-.091.81.305 1.564 1.082 1.808 1.484.465 2.384.35 3.317 1.623 2.607 3.556 4.697 5.793 11.477 6.557.301-.161 2.052-1.681 2.275-2.128.353.047 4.811.627 5.114.543.155-.044 4.38-3.967 8.611-7.898 4.023-3.735 8.052-7.477 8.598-7.898 1.122-.865 22.41-10.341 22.883-10.438s6.023 2.127 6.264 2.518 1.322 3.127 1.589 3.295c.266.167 1.058.21 1.91.48 2.477 2.004 4.554 5.142 4.875 8.377 2.83-6.105-5.398-10.308-8.062-14.563-.243-.388-5.795-2.613-6.264-2.517-.47.095-21.759 9.569-22.883 10.438-.539.417-4.448 4.049-8.405 7.725-4.294 3.989-8.643 8.029-8.803 8.071-.307.08-4.764-.497-5.114-.542-.218.444-1.863 1.789-2.173 1.949-5.52.141-8.938-2.783-11.57-6.371-.781-1.065-1.171-1.01-2.396-1.384z" fill="#191b1e"/><path d="m209.89 490.875c-.192-3.147 1.487-4.258 3.889-5.848.482-.319.566-.364 1.136-.31 1.126.105 3.683.345 5.248 1.021 2.57 2.172 4.184 2.812 7.195 2.475 3.366-.262 7.201-1.596 7.908-5.294.062-.02 4.962.592 9.962 1.187l.655 2.532c-5.565-.664-9.054-1.066-9.119-1.038-1.328 2.814-7.292 3.725-9.987 4.421-1.483.241-3.647-.059-4.905-1.107-1.514-1.258-7.833-1.856-7.833-1.856-1.334.971-3.849 2.345-4.149 3.817z" fill="#191b1e"/><path d="m198.465 506.13v.015h.003c-.001-.005-.002-.01-.003-.015z" fill="#191b1e"/><path d="m198.465 506.13c.084-1.468 6.216-8.291 7.548-9.438.715-.35 1.319-.523 1.815-.665 1.311-.375 1.877-.537 1.766-3.17-.916 1.262-3.262 1.429-4.488 2.693-2.768 2.854-7.165 7.389-6.641 10.58z" fill="#191b1e"/><path d="m194.498 513.911c-.557-.072-15.012-7.716-15.512-8.221h.004c-.431-.504-.17-2.727.078-3.751-.01.613.043 1.144.23 1.335.5.503 14.955 8.149 15.512 8.221 1.077-.014 3.495-.141 3.961-.999.566 3.236-1.702 3.341-4.273 3.415z" fill="#191b1e"/><path d="m142.723 460.514c-.007.004-3.578-2.558-3.578-2.558l.003-.007c-.65-.372-.315-1.404.43-1.324 0 0 35.744 5.276 36.597 5.742-1.318.541-2.403 1.161-3.632 1.78-10.163-2.091-18.923-3.254-29.178-4.798-.628-.082-1.046.676-.642 1.165z" fill="#191b1e"/><path d="m130.123 490.649c1.753.002 3.176-1.417 3.179-3.17s-1.417-3.177-3.17-3.179c-1.753-.003-3.176 1.416-3.179 3.17-.002 1.753 1.417 3.176 3.17 3.179z" fill="#000"/><path d="m130.317 487.121-.113.869 2.153 1.115c.262-.359.433-.776.5-1.215.067-.44.027-.889-.116-1.309z" fill="#414744"/><path d="m127.53 488.412 2.329-.521.111-.871-2.113-1.09c-.477.712-.63 1.634-.327 2.482z" fill="#414744"/><path d="m130.126 488.389c.505.001.915-.408.916-.913s-.408-.915-.913-.916-.915.408-.916.913.408.915.913.916z" fill="#121413"/><path d="m187.692 463.682c3.114.004 5.641-2.516 5.646-5.629.004-3.114-2.516-5.641-5.629-5.646-3.114-.004-5.641 2.516-5.646 5.629-.005 3.114 2.516 5.641 5.629 5.646z" fill="#000"/><path d="m188.038 457.414-.201 1.55 3.823 1.977c.936-1.282 1.194-2.979.68-4.481z" fill="#414744"/><path d="m183.091 459.712 4.132-.926.201-1.549-3.744-1.926c-.845 1.259-1.129 2.891-.589 4.401z" fill="#414744"/><path d="m187.698 459.668c.896.001 1.624-.725 1.625-1.621.002-.896-.724-1.624-1.62-1.625-.897-.001-1.624.724-1.625 1.62-.002.897.724 1.624 1.62 1.626z" fill="#121413"/><path d="m203.159 432.539c.071.594.552 1.078 1.147 1.152l4.831.627c.885-2.832 2.877-6.663.705-9.23l-4.353-.562c-.592-.077-1.176.267-1.396.822-.87 2.174-1.212 4.867-.934 7.191z" fill="#695624"/><path d="m202.761 423.259c-.476-1.32-1.741-3.238-5.055-2.208-2.847.885-3.131 3.382-2.564 4.958.954 2.648 3.679 3.306 6.105 1.681 1.424-.954 2.223-2.462 1.514-4.431z" fill="#292c31"/><path d="m199.622 426.383c1.67-.601 2.654-2.117 2.198-3.384-.457-1.268-2.181-1.808-3.852-1.206-1.67.601-2.654 2.117-2.197 3.384.456 1.268 2.18 1.808 3.851 1.206z" fill="#161719"/><path d="m195.31 426.396c1.191 4.658 10.293 1.394 7.263-3.549.676 1.792-.344 3.088-1.692 3.943-1.768 1.121-4.641 1.037-5.571-.394z" fill="#202226"/><path d="m204.306 433.69 5.387.722c-.129-1.024-.067-2.091-.038-3.124l-4.962-.616c-1.486-.185-1.26-2.211-1.189-3.277-.313 1.591-1.461 6.014.802 6.295z" fill="#5b4920"/><path d="m214.601 442.662 78.455 9.375c.823.107 1.601-.492 1.707-1.315l2.668-22.37c.107-.822-.501-1.602-1.315-1.707l-78.961-9.088c-1.574-.205-3.186.383-4.257 1.555-4.732 5.178-5.183 14.912-2.024 20.962.74 1.406 2.151 2.386 3.727 2.588z" fill="#252a28"/><path d="m214.601 442.662c-1.576-.201-2.987-1.181-3.727-2.588-2.391-4.578-2.617-10.365-1.106-15.266.051 3.687 1.173 10.01 5.76 10.606l78.455 9.372c.654.086 1.305-.274 1.581-.873l-.813 6.808c-.103.815-.885 1.424-1.707 1.315z" fill="#191c1b"/><path d="m245.479 446.98c.272.053 1.516.002 1.914.157.398.156 2.205 1.679 2.519 1.807.277.112 32.151 3.72 40.235 4.301 2.325.262 4.357-.462 4.591-2.542-.783-.144-4.439.141-5.286-.182-.848-.324-8.156-14.872-10.513-18.461-1.856-2.827-5.62-8.087-6.273-8.426-.79-.409-9.857-1.6-10.383-1.159-1.254 1.058 5.524 13.346 4.752 16.963-.585 2.746-9.467 8.046-10.5 8.226-1.032.18-5.114-.163-5.556-.309-.441-.146-1.878-1.405-2.643-1.544-.766-.14-2.989.094-3.112.291-.122.197-.018.825.255.878zm26.079-19.669-4.094-.381c-.268-.024-.514-.177-.654-.406l-1.277-2.075c-.207-.338.083-.777.466-.736l3.851.43c.42.047.809.245 1.092.559l1.238 1.361c.451.497.024 1.306-.622 1.248zm4.039 7.007-5.383-.342c-.311-.02-.595-.209-.731-.49l-1.401-2.88c-.398-.82.251-1.8 1.162-1.753l4.294.226c.695.039 1.341.425 1.704 1.018l1.458 2.383c.5.816-.148 1.895-1.103 1.838zm-12.252 13.201c6.749-4.313 7.079-8.65 6.965-9.461-.127-.896.494-1.704 1.398-1.654l5.169.331c1.252.091 2.367.923 2.81 2.098 1.654 4.29 5.131 9.01 6.42 10.681.178.233-.01.593-.311.567-3.036-.234-14.089-1.115-22.365-2.158-.2-.027-.252-.301-.086-.404z" fill="#000"/><g fill="#221f23"><path d="m277.181 458.396 2.157.243-.079.693-.693-.078-.269 2.387-.77-.086.269-2.388-.693-.078z"/><path d="m280.277 459.993.139-1.232-.77-.087-.347 3.08.77.087.138-1.232 1.233.139-.139 1.232.77.087.347-3.081-.77-.087-.139 1.233z"/><path d="m345.165 470.261-.449-.745-.924-.104.913 1.58-.156 1.391.77.087.16-1.425 1.214-1.306-.924-.104z"/><path d="m331.074 469.461-.388 1.36-.77-.087.775-2.72.77.086.437 1.654.795-1.515.77.087.15 2.825-.77-.087-.075-1.412-.695 1.325-.616-.069z"/><path clip-rule="evenodd" d="m338.7 468.916.766 2.894-.77-.087-.128-.482-1.181-.133-.232.442-.77-.087 1.391-2.651zm-.551.74-.453.863.702.079z" fill-rule="evenodd"/><path d="m340.852 471.966.178-1.575 1.208 1.732.77.086.313-2.772-.77-.087-.188 1.665-1.199-1.821-.77-.087-.312 2.773z"/><path d="m283.535 461.53.052-.462.963.108.078-.693-.963-.108.061-.54.963.109.078-.693-1.733-.195-.347 3.08 1.694.191.078-.693z"/><path clip-rule="evenodd" d="m336.679 469.546c.095-.839-.743-1.019-1.359-1.089l-.77-.086-.321 2.849.77.087.104-.925c.989.101 1.49-.065 1.576-.836zm-.77-.086c.029-.257-.149-.407-.611-.459-.026.231-.069.616-.087.77.462.052.658.048.698-.311z" fill-rule="evenodd"/><path clip-rule="evenodd" d="m327.666 470.636c.893.101 1.695-.507 1.79-1.358.096-.85-.55-1.621-1.443-1.722s-1.695.507-1.791 1.358.55 1.622 1.444 1.722zm.086-.77c.468.053.886-.249.934-.674.048-.426-.292-.813-.76-.866s-.886.249-.934.675c-.048.425.292.813.76.865z" fill-rule="evenodd"/><path d="m325.471 467.27c.189.021.367.069.53.14l-.09.802c-.136-.181-.343-.308-.586-.335-.468-.053-.89.284-.943.752-.052.467.284.889.752.942.243.028.473-.05.646-.196l-.073.651c-.018.154-.54.251-.728.23-.693-.078-1.471-.786-1.376-1.637.096-.851.933-1.455 1.868-1.349z"/><path d="m305.316 462.034 1.54.174-.66 5.853-1.54-.174z"/><path d="m309.782 462.538 2.349 4.075.424-3.763 1.54.174-.659 5.853-1.541-.174-2.348-4.075-.424 3.763-1.54-.174.659-5.853z"/><path clip-rule="evenodd" d="m301.157 461.566-1.54-.174-.66 5.853 1.541.174.24-2.133 1.3 2.306 1.54.174-1.477-2.62c.712-.095 1.357-.469 1.484-1.591.173-1.54-1.196-1.85-2.428-1.989zm-.23 1.144-.165 1.463c.011.001.026.003.044.006.262.035 1.185.159 1.271-.599.084-.753-.765-.833-1.088-.864-.024-.002-.045-.004-.062-.006z" fill-rule="evenodd"/><path d="m294.165 466.861c1.786.201 3.39-1.015 3.582-2.716s-1.101-3.244-2.888-3.445c-1.786-.201-3.39 1.015-3.581 2.716-.192 1.701 1.101 3.244 2.887 3.445z"/><path clip-rule="evenodd" d="m287.911 460.073-1.54-.173-.66 5.852 1.54.174c1.464.165 2.867.167 3.041-1.373.121-1.078-.691-1.482-.991-1.594.015-.012.031-.024.047-.036.019-.014.038-.028.058-.043.252-.184.576-.421.659-1.16.148-1.309-1.23-1.543-2.154-1.647zm-.161 1.152c.493.055.955.107.886.724-.063.555-.5.498-.89.447-.026-.004-.051-.007-.077-.01-.016-.002-.033-.004-.049-.006.043-.385.087-.77.13-1.155zm-.252 2.233c-.043.385-.086.77-.13 1.155.059.007.127.018.2.029.454.072 1.134.179 1.201-.417.071-.632-.636-.703-1.134-.753h-.006c-.046-.005-.089-.009-.131-.014z" fill-rule="evenodd"/><path d="m321.433 466.424c-.089 2.174-1.73 3.237-3.385 3.051-1.702-.192-2.934-1.65-2.742-3.351.191-1.701 1.726-2.925 3.427-2.733 1.176.132 2.124.906 2.534 1.934l-1.442.373c-.204-.583-.669-.934-1.239-.998-.851-.096-1.548.585-1.663 1.606s.417 1.802 1.268 1.898c.622.07 1.285-.206 1.355-.822l-1.247-.141.131-1.155z"/></g><path d="m194.216 505.284c8.807.007 14.413-10.557 9.082-17.867 2.467-7.008-2.803-14.786-10.332-14.965-8.68-.207-13.697 9.068-12.788 16.915.849 7.334 5.816 15.91 14.038 15.917z" fill="#f7c394" stroke="#333" stroke-miterlimit="10" stroke-width=".775"/><path d="m180.178 489.368c1.051 9.077 8.427 19.653 19.432 14.539-10.667-1.365-18.135-19.453-12.882-29.735-.835.594-2.152 1.292-4.278 4.279-1.904 3.368-2.742 7.161-2.272 10.917z" fill="#000" fill-opacity=".1"/><path d="m303.637 508.101c-4.45-7.599 1.84-17.77 10.842-16.857 4.805-5.666 14.18-5.042 18.134 1.368 4.559 7.389-.916 16.401-8.15 19.576-6.759 2.968-16.671 3.008-20.826-4.087z" fill="#f7c394" stroke="#333" stroke-miterlimit="10" stroke-width=".775"/><path d="m324.462 512.189c-8.367 3.673-21.22 2.643-22.358-9.439 6.562 8.52 25.946 5.839 32.172-3.885-.092 1.021-.029 2.511-1.536 5.853-1.946 3.344-4.798 5.982-8.278 7.471z" fill="#000" fill-opacity=".1"/><path d="m404.025 262.57c-84.63-59.907-219.635-53.833-291.555-16.352.62-2.79 2.635-8.138 3.487-11.005 45.671-24.71 98.518-33.816 149.653-32.55 56.342 1.395 110.15 27.126 137.02 49.522.31 3.023 1.395 7.983 1.395 10.385z" fill="#000" fill-opacity=".15"/><path d="m327.65 150.471c29.843-16.002 46.304-47.204 44.962-78.9106-.135-3.1821 4.064-4.4609 5.735-1.7499 25.349 41.2655 10.502 97.0985-32.311 120.0535-5.019-12.776-14.784-31.996-18.386-39.393z" fill="#bfbfbf" stroke="#333" stroke-miterlimit="10" stroke-width=".775"/><path d="m346.038 189.864c-7.268-1.539-14.708-5.569-19.323-9.281 44.864-16.018 68.145-67.492 50.687-111.7615 32.125 49.2885 0 109.3515-31.364 121.0425z" fill="#000" fill-opacity=".15"/><path d="m205.796 147.061c-29.844-16.002-46.305-47.2037-44.963-78.9105.135-3.1822-4.064-4.4609-5.735-1.75-25.349 41.2655-10.502 97.0985 32.311 120.0535 5.019-12.776 14.784-31.996 18.387-39.393z" fill="#bfbfbf" stroke="#333" stroke-miterlimit="10" stroke-width=".775"/><path d="m187.408 186.454c7.268-1.539 14.708-5.569 19.322-9.281-44.863-16.018-68.144-67.492-50.686-111.7614-32.126 49.2884 0 109.3514 31.364 121.0424z" fill="#000" fill-opacity=".15"/><path d="m404.451 249.907c-53.781-55.152-228.502-62.05-290.521-16.609-2.508-86.513 70.802-141.8138 147.527-142.4338 76.629-.62 151.702 61.7348 142.994 159.0428z" fill="#e2e2e2" stroke="#333" stroke-miterlimit="10" stroke-width=".775"/><path d="m258.644 90.9106c-1.288 16.1084-5.899 87.1074-8.129 98.3264-32.723 0-104.181 8.022-135.714 23.457.232-1.999.506-3.979.821-5.938 40.381-18.329 87.91-21.338 131.625-21.602.474.013.892-.348.948-.819l7.46-93.319c.996-.0454 1.992-.0806 2.989-.1054z" fill="#000" fill-opacity=".15"/><path d="m405.089 230.466c-31.23-24.839-98.633-36.092-131.962-38.731 2.251-32.468 8.026-84.534 9.223-99.4867.942.1312 1.883.2733 2.824.4262l-7.484 93.5985c-.02.5.386.935.887.947 51.444 3.295 97.997 16.944 126.28 37.68.107 1.841.185 3.696.232 5.566z" fill="#000" fill-opacity=".15"/><path d="m406.529 251.027c-.217 2.418-3.329 3.565-5.27 1.948-26.867-22.396-81.012-39.438-141.152-40.935-32.317-.805-98.037.036-143.494 24.609-2.082 1.126-4.698-.237-4.763-2.469-.201-6.662.058-13.331.775-19.958.036-.294.223-.556.489-.685 40.986-20.847 91.631-23.959 136.772-24.076.475.014.894-.347.951-.818l7.843-98.0936c.055-.4642.462-.8233.93-.82 7.336-.1448 14.68.2568 21.954 1.2261.472.0466.835.4671.814.9408l-7.788 97.3907c-.019.501.388.935.888.947 54.681 3.503 103.837 18.704 131.4 41.68.101.082.182.184.24.3.057.116.088.243.092.373.103 6.154-.124 12.31-.681 18.44z" fill="#bfbfbf" stroke="#333" stroke-miterlimit="10" stroke-width=".775"/><path d="m270.038 110.033c4.08 0 7.387-3.064 7.387-6.845 0-3.78-3.307-6.8445-7.387-6.8445s-7.387 3.0645-7.387 6.8445c0 3.781 3.307 6.845 7.387 6.845z" fill="#e2e2e2" stroke="#333" stroke-miterlimit="10" stroke-width=".775"/><path d="m267.981 131.073c4.08 0 7.388-3.065 7.388-6.845s-3.308-6.845-7.388-6.845-7.387 3.065-7.387 6.845 3.307 6.845 7.387 6.845z" fill="#e2e2e2" stroke="#333" stroke-miterlimit="10" stroke-width=".775"/><path d="m266.321 152.11c4.08 0 7.387-3.065 7.387-6.845 0-3.781-3.307-6.845-7.387-6.845s-7.387 3.064-7.387 6.845c0 3.78 3.307 6.845 7.387 6.845z" fill="#e2e2e2" stroke="#333" stroke-miterlimit="10" stroke-width=".775"/><path d="m264.88 171.055c4.08 0 7.387-3.065 7.387-6.845s-3.307-6.845-7.387-6.845-7.387 3.065-7.387 6.845 3.307 6.845 7.387 6.845z" fill="#e2e2e2" stroke="#333" stroke-miterlimit="10" stroke-width=".775"/><path d="m263.114 190.001c4.08 0 7.388-3.065 7.388-6.845s-3.308-6.845-7.388-6.845-7.387 3.065-7.387 6.845 3.307 6.845 7.387 6.845z" fill="#e2e2e2" stroke="#333" stroke-miterlimit="10" stroke-width=".775"/><path d="m406.53 251.027c-.217 2.418-3.33 3.565-5.27 1.949-26.868-22.396-77.293-37.991-135.495-40.704-39.347-1.833-102.76-.108-149.152 24.376-2.094 1.105-4.698-.237-4.763-2.468-.078-2.681-.084-5.333-.02-7.954 0 2.506 2.225 4.627 4.783 3.244 45.671-24.71 98.017-24.741 149.152-23.475 56.342 1.395 108.625 17.403 135.495 39.799 1.946 1.623 5.059.465 5.27-1.948.346-3.866.562-7.678.649-11.436.256 5.515-.151 13.106-.649 18.617z" fill="#000" fill-opacity=".15"/></g></svg>