<svg xmlns="http://www.w3.org/2000/svg" viewBox="0 0 4000 4000">
    <defs>
        <style>.cls-1{opacity:0.00;}.cls-2{opacity:0.0;}.cls-3{opacity:0.0;}.cls-4{opacity:0.0;}</style>
    </defs>
    <title>shader</title>
    <g id="shader">
        <g class="cls-1">
            <path d="M1134.51,2454.76c-97.43-32.35-195.32-102.51-254.16-191-77.46-116.54-125.85-323-16.55-426.94,45.17-42.94,107.55-59.13,173.62-56-.29,3.54-.55,7.07-.79,10.61-50.59,4.15-97.1,21.38-132.83,55.35-109.3,103.92-60.91,310.4,16.55,426.94,50.31,75.69,129.16,138,211.87,174.64C1132.93,2450.48,1133.7,2452.61,1134.51,2454.76Z" />
        </g>
        <g class="cls-1">
            <path d="M3124.1,2259.28c-60.69,94.85-165.55,169.87-268,201.12.78-1.77,1.53-3.53,2.26-5.3,88.21-36.93,173.43-104,225.78-185.82,75.41-117.87,120.19-325.17,9.09-427.16-35.38-32.48-80.71-48.9-129.86-52.74q-.23-5.24-.5-10.44c64.45-3.41,125.42,11.93,170.36,53.18C3244.29,1934.11,3199.51,2141.41,3124.1,2259.28Z" />
        </g>
        <g class="cls-2">
            <path d="M2212.91,2101.6c0,74.17-105.25,164.47-213.18,165.41-117.11,1-215.68-90.35-215.68-165.63a54.18,54.18,0,0,1,.71-8.78c9,72.83,103.62,155.38,215,154.41,102.38-.89,202.34-82.18,212.35-153.85A43.67,43.67,0,0,1,2212.91,2101.6Z" />
        </g>
        <path class="cls-3" d="M1510.91,2523.35l-4.79-.56h0q-42.43-5-84.78-10.75c-32.77-40.14-56-82.73-67.74-125.82-8.9-32.68,14.68-60,47.08-55.45,5.22.74,10.43,1.48,15.65,2.19l2.47.34C1438.39,2399.2,1468.2,2463.64,1510.91,2523.35Z" />
        <path class="cls-3" d="M1735.54,2712q-38.07-12-73.46-27.2c-88-37.57-162.38-88.32-216.88-145.75q40.58,5.33,81.21,9.87l2.48.27C1581.32,2611,1649.11,2666.63,1735.54,2712Z" />
        <path class="cls-3" d="M2645.54,2386.22c-11.75,43.08-35,85.68-67.74,125.82q-36.18,5-72.45,9.29-6.66.81-13.33,1.58l-3.14.36c42.55-59.77,72.34-124.18,92-190.06l3.48-.47,10.12-1.41,3.94-.56C2630.85,2326.17,2654.44,2353.54,2645.54,2386.22Z" />
        <path class="cls-3" d="M2553.93,2539.06c-48.1,50.68-111.69,96.17-186.44,132a795,795,0,0,1-90.22,36.52q-5.62,1.89-11.32,3.71c85.48-45.39,152.78-100.72,205.06-162.16l3.11-.34,11-1.26Q2519.57,2543.58,2553.93,2539.06Z" />
        <g class="cls-2">
            <path d="M2333.57,957.05l1.81.51q-5.76-1.83-11.62-3.74Q2328.68,955.41,2333.57,957.05Z" />
            <path d="M2565.16,861.34c-53.4,62.41-211.81-40-531.22-17.54-533.87,37.53-942,531.82-943.3,1020.27-.3,106.94,28.59,233.52,78.72,353.81,58.8-73.84,151.53-99.67,178.59-114.16,7.94,8.57,13,14.51,13,18.89,0,.12,0,.24,0,.36a2,2,0,0,1,0,.26,3.42,3.42,0,0,1-.44,1.09l-.17.28a9,9,0,0,1-1.66,1.78l-.32.26a37.91,37.91,0,0,1-6.52,4l-1.61.79c-3.74,1.83-8.36,3.82-13.67,6l-1.23.51c-5.39,2.24-11.47,4.71-18.08,7.49l-3.09,1.3c-4.16,1.77-8.51,3.65-13,5.67l-3.4,1.54-1.72.79c-1.73.79-3.48,1.61-5.24,2.44-2.35,1.12-4.74,2.27-7.15,3.46l-1.81.9-1.82.91c-1.21.6-2.44,1.23-3.67,1.87q-4.61,2.37-9.3,4.94c-.63.34-1.25.68-1.88,1q-3.77,2.08-7.56,4.31-1.9,1.1-3.81,2.25l-.11.06q-4.71,2.85-9.44,5.89l-1.91,1.24c-1.91,1.26-3.83,2.54-5.74,3.84-.64.43-1.27.87-1.91,1.32q-4.77,3.33-9.51,6.88-3.8,2.87-7.54,5.87-2.8,2.27-5.6,4.62c-.62.51-1.24,1-1.85,1.58l-1.84,1.6q-1.85,1.59-3.66,3.27l-1.82,1.67-1.81,1.69c-1.15,1.08-2.29,2.18-3.42,3.28l-1.95,1.93c-1.19,1.18-2.36,2.37-3.52,3.59l-1.74,1.83q-3.48,3.67-6.85,7.55-1.68,1.93-3.33,3.92l-1.65,2q-1.95,2.37-3.82,4.8-1.74,2.23-3.41,4.53l-.3.39-.54.75-.41.57c-.31.44-.62.89-.94,1.33-.57.8-1.14,1.59-1.7,2.39-.87,1.25-1.73,2.51-2.56,3.79-.13.18-.25.35-.36.53l-.57.85-.32.5-1,1.61-1,1.59c-.35.54-.69,1.09-1,1.64-1,1.69-2.07,3.4-3.08,5.13-.15.25-.29.5-.43.75q-1.49,2.58-2.92,5.22a.2.2,0,0,0,0,.08q-.74,1.35-1.44,2.7c-.46.86-.9,1.73-1.35,2.6l-.08.15c-76.27-147.6-117-302.56-116.59-435.33,1.32-488.45,432.22-991,966.09-1028.57,319.41-22.45,464.56,50.1,499.59,20.46C2542.64,803.15,2376,763,2353.81,699.51c-8.57-24.46,28.82-20.27,81.55,1.13-20-2.88-31,1.83-25.55,15.87C2429.19,766.9,2604.32,815.59,2565.16,861.34Z" />
        </g>
        <path class="cls-3" d="M1390.82,2108.61c0,3.67-23.81,15.25-36.41,20.62,4.23-2.41,6.58-4.54,6.58-6.6v0c-.18-20.61-111.76-76.15-111.93-275.54v-.48c0-1.83,0-3.66,0-5.48v-.52q0-3,.1-5.95C1259.43,2012.06,1390.65,2089,1390.82,2108.61Z" />
        <path class="cls-1" d="M1637.84,3250.1a72.31,72.31,0,0,1-62.11,5.5c-21.18-7.88-38.24-24.19-50.7-48.49a150.3,150.3,0,0,1-15.12-48.05,115.4,115.4,0,0,1,2.11-43.78,98.25,98.25,0,0,1,5.88-16.76,63,63,0,0,1-.34-6.33c-.33-90.45,30.55-183,89.47-268.77l.85.32q15.11,5.84,30.49,11.32c-49.47,78.73-85.32,140.89-85,223.4-17,21.83-12.63,82.94.49,114.5C1581,3238.14,1630.47,3249.78,1637.84,3250.1Z" />
        <path class="cls-3" d="M2644.33,2128.38c-12.95-5.65-34.48-16.28-34.45-19.77.16-18.89,121.63-90.8,139.95-254.23-2.45,199.63-111.6,244.95-111.4,268.37C2638.45,2124.73,2640.55,2126.54,2644.33,2128.38Z" />
        <g class="cls-2">
            <path d="M1974.07,3510.34a67.43,67.43,0,0,1-85.32,42.82c-27.72-9.2-93.83-15.48-147.71.23a67.52,67.52,0,0,1-85.66-74.81,69.07,69.07,0,0,0,2,8.89,67.52,67.52,0,0,0,83.7,45.92c53.88-15.71,120-9.43,147.71-.23a67.51,67.51,0,0,0,88-54.08A67.09,67.09,0,0,1,1974.07,3510.34Z" />
        </g>
        <g class="cls-2">
            <path d="M2342.66,3507.47a67.45,67.45,0,0,1-83.7,45.92c-53.88-15.71-120-9.43-147.71-.23a67.51,67.51,0,0,1-88-74.08,67.45,67.45,0,0,0,88,54.08c27.72-9.2,93.83-15.48,147.71.23a67.45,67.45,0,0,0,83.7-45.92,69.07,69.07,0,0,0,2-8.89A67,67,0,0,1,2342.66,3507.47Z" />
        </g>
        <path class="cls-1" d="M2487.37,3157.2c-4.06,35.05-23.3,81.66-64.13,97.67A72.32,72.32,0,0,1,2362,3251c10.47-1.34,56.85-14.72,82.77-77,13.12-31.56,17.35-93,.34-114.84.29-78.53-32-149-77.79-223.56q14.76-5.32,29.3-11c57.7,86.8,84.94,177.3,76.9,256.66-.19,1.87-.47,3.7-.81,5.51a96.49,96.49,0,0,1,11.77,26.77A115.44,115.44,0,0,1,2487.37,3157.2Z" />
        <g class="cls-1">
            <path d="M1959.44,3433.13c0,.63,0,1.27-.08,1.9q-.15,3.73-.58,7.39a67.23,67.23,0,0,0-27.53-17.4c-28.62-9.49-66-15.2-105.2-16.06a459.31,459.31,0,0,0-55.71,2.13c.2-3.39.43-6.74.68-10.07a462.82,462.82,0,0,1,55-2.06c39.22.86,76.58,6.57,105.2,16.06A67.16,67.16,0,0,1,1959.44,3433.13Z" />
            <path d="M2229.17,3411A462.3,462.3,0,0,0,2174,3409c-39.22.86-76.58,6.57-105.2,16.06a67.16,67.16,0,0,0-27.8,17.69c-.15-1.39-.26-2.79-.34-4.2-.1-1.71-.2-3.4-.32-5.09a67.14,67.14,0,0,1,28.46-18.4c28.62-9.49,66-15.2,105.2-16.06a462.57,462.57,0,0,1,54.36,2Q2228.76,3405.95,2229.17,3411Z" />
        </g>
        <g class="cls-1">
            <path d="M1783.72,3308.76c48.55,44.14,110.63,75,179.06,82.49q-.87,7.27-1.54,14.83c-69-7.92-131.44-39.58-180-84.59Q1782.44,3315,1783.72,3308.76Z" />
            <path d="M2216.32,3319.91c-47.76,44.29-109.47,75.84-178.59,85.21q-.87-7.51-1.91-14.74c68.6-8.88,130-39.6,177.8-83Q2215,3313.56,2216.32,3319.91Z" />
        </g>
        <g class="cls-2">
            <path d="M2317.59,3086.38c0,153.62-140.68,305.09-320,306.63-175.53,1.51-319-153-319-306.63,0-10,.24-20.06.79-30.27,11.56,146.84,150.22,288.35,318.23,286.9,172.85-1.48,309.81-142.31,319.43-290.07C2317.44,3064.35,2317.59,3075.43,2317.59,3086.38Z" />
        </g>
        <g class="cls-1">
            <path d="M2175.41,3147c-59.91,74.88-132.36,85.57-175.41,85.57-47.55,0-118.32-8.27-177.41-81.89-27.71-34.52-37-79.73-35.13-134.17,1.64,43,12,79.3,35.13,108.17,59.09,73.62,129.86,81.89,177.41,81.89,43,0,115.5-10.69,175.41-85.57,25.37-31.72,36.2-71.88,37.82-118.83C2215,3060.35,2205.35,3109.54,2175.41,3147Z" />
        </g>
        <path class="cls-2" d="M2396.63,2824.52c-35,13.72-71,26-107.74,36.45q-8.25,2.36-16.56,4.59c-77.34,20.83-157.6,33.74-237.88,36.06-102.94,3-205.27-11.3-302.13-37.25q-6.52-1.76-13-3.57c-38.43-10.76-76-23.34-112.26-37.39q-10.86,15.81-20.44,31.9a1242.57,1242.57,0,0,0,121.21,42.21l1.17-1.73c-.18.64-.36,1.28-.53,1.92,103.84,30.14,214.56,47.13,326,43.91,88.47-2.56,176.94-18,261.49-42.69l1.36-.4a1195,1195,0,0,0,119.15-42Q2407.24,2840.48,2396.63,2824.52Z" />
        <g class="cls-4">
            <path d="M2352.6,3244.86c-21.27,18.38-65.08,13.14-91.57,9.31q5.26-7.34,10.07-14.94,5.79,1.14,11.24,1.94c26.64,3.89,46.4,1.46,58.83-7.25A71.17,71.17,0,0,0,2352.6,3244.86Z" />
            <path d="M2711.22,3080.89a48.07,48.07,0,0,0,6.4-2.83,51.65,51.65,0,0,1-21.4,14.83c-37.83,13.59-81.06-22.69-81.49-23.06a25,25,0,0,0-23.13-5,24.27,24.27,0,0,1,2.89-4.19,25,25,0,0,1,35.24-2.82C2630.16,3058.2,2673.39,3094.48,2711.22,3080.89Z" />
            <path d="M2796.94,3050.12c-9.47,29.84-26.19,53.12-48.11,67.49,14.6-14.05,25.94-32.88,33.11-55.49,9.54-30.08,11.3-66.18,4.71-96.59-8.05-37.13-29.53-70.63-62.13-96.87-28.39-22.85-63.05-38.38-97.6-43.73-28-4.32-56.93-2-86.08,6.92-26.21,8-52,21.19-76.69,39.12-1.26.92-2.52,1.84-3.77,2.78q9.16-7.78,18.77-14.78c24.68-17.93,50.48-31.09,76.69-39.12,29.15-8.92,58.11-11.24,86.08-6.92,34.55,5.35,69.21,20.88,97.6,43.73,32.6,26.24,54.08,59.74,62.13,96.87C2808.24,2983.94,2806.48,3020,2796.94,3050.12Z" />
        </g>
        <path class="cls-4" d="M2212.91,2081.6c0,74.17-105.25,164.47-213.18,165.41-117.11,1-215.68-90.35-215.68-165.63a55.09,55.09,0,0,1,.79-9.31c42.18,52.17,123.35,95.66,214.39,94.95,85.09-.67,168.69-45.29,211.9-97.87A45.3,45.3,0,0,1,2212.91,2081.6Z" />
        <path class="cls-3" d="M1834.52,1427a214.27,214.27,0,0,0-31.9-6.17c-175.15-20.17-342.8,182.73-338.41,374.18,2.47,107.25,59.36,229.79,152.7,291.65-116.4-48.78-189.2-190.33-192-312-4.33-190.11,160.82-391.59,333.36-371.55A217.6,217.6,0,0,1,1834.52,1427Z" />
        <path class="cls-3" d="M2573.77,1764.6c-.66,123.27-72.75,268.13-190.88,317.21,95.29-61.62,152.08-188.08,152.66-297.55,1-190.6-168-389.61-340.57-366.52a211.81,211.81,0,0,0-45.38,11.34c26-15.6,54.29-26.14,84.37-30.17C2406.14,1375.87,2574.78,1574.44,2573.77,1764.6Z" />
        <path class="cls-2" d="M1862.25,1605.54q-6.51-1.85-13.25-3.16c-99.1-19.24-197.56,58.49-219.9,173.6-16.75,86.35,14.07,169.22,72.35,213.35-81.88-32-130.23-129.93-110.25-232.89,22.12-114,119.58-190.89,217.68-171.85A158.12,158.12,0,0,1,1862.25,1605.54Z" />
        <path class="cls-2" d="M2295.09,1986.4c60.86-43.65,92.6-129.07,73.87-217.3-24.16-113.85-123.21-189.28-221.22-168.48a157.39,157.39,0,0,0-17.52,4.78,158.17,158.17,0,0,1,56.34-24.11c97.76-20.75,196.54,54.48,220.65,168C2429.51,1854.39,2380.05,1955.46,2295.09,1986.4Z" />
        <path class="cls-2" d="M2749.41,1798.06q0,9.7-.31,18.94c-15.7-308.54-265-613.19-481.5-613.19-155.64,0-248.88,116.58-268,116.74-22.73.2-95.64-116.74-268-116.74-215.85,0-465.69,303.73-481.65,611.81l-.18,3.62c0,1.22-.11,2.43-.16,3.65s-.1,2.42-.14,3.63q-.78-13.71-.81-28.46c-.26-318.49,259.27-643.25,482.47-643.26,172.41,0,245.31,117,268,116.75,19.15-.17,112.39-116.75,268-116.75C2490.66,1154.81,2749.17,1479.57,2749.41,1798.06Z" />
        <path class="cls-1" d="M2875.31,2377.46c0,209.26-420.37,512-840.86,524.16-461.31,13.34-910.31-319.74-910.31-497.74q0-7.14.3-14c38.59,182.8,468.4,486,909.44,473.26,406.19-11.75,812.27-294.09,841-502.25Q2875.31,2369,2875.31,2377.46Z" />
        <path class="cls-2" d="M2964.5,1847.07c-.36,127.74-38.12,278.51-110.54,423.57-58.2-126.52-215.38-130.67-215.53-147.89,0-3.44,2.3-7.34,6.3-12.14,29.88,12.38,135.89,21.8,193.55,102.09,59.3-132.15,86.52-259.16,86.84-374.86,1.43-510.11-312.88-784.54-713.42-914.5,35.09,11.39,34.68,6.38,56.06,13.48C2665.92,1066,2965.92,1340,2964.5,1847.07Z" />
    </g>
</svg>