<svg fill="none" height="620" viewBox="0 0 512 620" width="512" xmlns="http://www.w3.org/2000/svg"><path d="m298.642 510.049c-7.869-1.15-17.85-5.002-30.513-11.78-1.841-.984-2.583-3.387-1.589-5.245.985-1.84 3.387-2.583 5.245-1.589 11.695 6.258 21.108 9.939 27.978 10.943 4.484.656 7.711.155 9.591-1.494 2.11-1.848 1.921-5.115 1.369-11.22-.647-7.149-1.451-16.048 3.066-26.274 6.819-15.457 23.812-30.153 41.709-27.389 11.366 1.76 22.257 10.259 24.758 21.792 2.128 9.82-.933 23.277-11.397 27.036-6.94 2.479-14.869-.366-20.281-4.972-1.618-1.345-1.852-3.875-.473-5.494 1.364-1.602 3.897-1.804 5.498-.406.067.056 6.768 5.681 12.631 3.575 6.641-2.384 7.715-12.238 6.442-18.101-1.821-8.405-10.168-14.504-18.369-15.774-14.39-2.222-28.024 10.615-33.436 22.86-3.706 8.395-3.032 15.86-2.437 22.446.62 6.795 1.195 13.214-3.979 17.748-4.288 3.781-10.396 4.154-15.813 3.338z" fill="#d84c6a" stroke="#333" stroke-miterlimit="10" stroke-width=".775"/><path d="m378.008 459.68c1.714 7.908.183 17.755-5.862 23.572 7.968-5.223 10.086-16.671 8.187-25.432-2.5-11.534-13.39-20.033-24.758-21.793-10.27-1.587-20.426 2.876-28.138 9.427 17.688-12.517 45.459-9.356 50.571 14.226z" fill="#000" fill-opacity=".24"/><path d="m367.309 477.122c-4.19 4.874-11.717 2.365-15.948-1.276-.487-.415-1.07-.703-1.695-.838-.626-.136-1.275-.114-1.89.063.616-1.131 1.803-1.896 3.088-1.999 1.024-.082 2.039.246 2.822.913 3.42 3.022 9.275 5.451 13.623 3.137z" fill="#000" fill-opacity=".24"/><path d="m267.47 491.915c.543-.465 2.403-1.395 3.565-.852 1.082.504 2.377 1.144 3.833 1.864 7.66 3.784 19.758 9.761 28.485 9.761 7.75 0 8.447-3.875 7.362-14.105.132.591.298 1.244.475 1.938 1.491 5.852 3.733 14.647-7.837 14.647-12.633 0-32.362-10.939-35.883-13.253z" fill="#000" fill-opacity=".24"/><path d="m191.985 487.785c5.657 0 10.177-5.049 9.616-10.605-.84-9.846 2.886-20.489 10.222-30.75 6.674-9.338 13.828-14.455 8.325-20.49-5.502-6.035-17.912.608-24.087 9.223-10.185 14.247-15.064 29.312-13.737 43.97.495 4.878 4.003 8.652 9.661 8.652z" fill="#d84c6a" stroke="#333" stroke-miterlimit="10" stroke-width=".775"/><path d="m186.728 474.171c-.064-17.403 13.89-43.038 30.243-50.245-20.15-3.255-37.975 36.192-34.52 54.525 1.117-1.825 3.055-3.608 4.277-4.28z" fill="#000" fill-opacity=".15"/><path d="m249.703 534.209c.775-13.498 4.247-23.937 7.311-32.056s6.574-22.428-6.597-25.733c-18.832-4.725-29.188 39.389-29.961 52.846-.455 7.917 5.707 17.101 13.702 17.56 7.359.358 15.104-4.928 15.545-12.617z" fill="#d84c6a" stroke="#333" stroke-miterlimit="10" stroke-width=".775"/><path d="m220.27 529.247c7.982-1.085 22.94-1.085 29.217 5.27.052-.478.223-1.851.258-2.331-6.535-5.729-21.415-6.116-29.144-5.032-.041.512-.289 1.571-.331 2.093z" fill="#000" fill-opacity=".14"/><path d="m222.75 515.375c7.402 6.865 16.876 10.715 27.59 12.167.09-.776.28-1.888.387-2.635-10.633-1.376-19.871-5.828-27.28-12.555-.31.93-.561 2.366-.697 3.023z" fill="#000" fill-opacity=".14"/><path d="m262.297 534.209c-.775-13.498-4.247-23.937-7.311-32.056s-6.574-22.428 6.597-25.733c18.832-4.725 29.188 39.389 29.961 52.846.455 7.917-5.707 17.101-13.702 17.56-7.359.358-15.104-4.928-15.545-12.617z" fill="#d84c6a" stroke="#333" stroke-miterlimit="10" stroke-width=".775"/><path d="m291.73 529.247c-7.982-1.085-22.94-1.085-29.217 5.27-.052-.478-.223-1.851-.258-2.331 6.535-5.729 21.415-6.116 29.144-5.032.041.512.289 1.571.331 2.093z" fill="#000" fill-opacity=".14"/><path d="m289.25 515.375c-7.402 6.865-16.876 10.715-27.59 12.167-.09-.776-.28-1.888-.387-2.635 10.633-1.376 19.871-5.828 27.28-12.555.31.93.561 2.366.697 3.023z" fill="#000" fill-opacity=".14"/><path d="m320.015 487.785c-5.658 0-10.177-5.049-9.617-10.605.841-9.845-2.886-20.489-10.222-30.75-6.674-9.338-13.827-14.455-8.325-20.49 5.503-6.035 17.912.608 24.087 9.223 10.185 14.247 15.065 29.312 13.738 43.97-.495 4.878-4.004 8.652-9.661 8.652z" fill="#d84c6a" stroke="#333" stroke-miterlimit="10" stroke-width=".775"/><path d="m325.271 474.171c.064-17.403-13.89-43.038-30.242-50.245 20.15-3.255 37.975 36.192 34.52 54.525-1.118-1.825-3.055-3.608-4.278-4.28z" fill="#000" fill-opacity=".15"/><path d="m431.644 283.979c17.22 15.81 10.279 47.94-1.409 66.21-16.656 26.04-54.788 42.431-74.316 28.577-20.395-14.469-17.732-59.972 6.076-83.594 17.775-17.636 51.839-27.542 69.649-11.193z" fill="#f7c394" stroke="#333" stroke-miterlimit="10" stroke-width=".775"/><path d="m411.54 302.594c10.23 10.57 4.666 30.486-3.355 41.522-11.432 15.725-35.987 24.597-47.731 15.168-12.267-9.847-8.896-38.319 6.936-52.263 11.82-10.41 33.579-15.357 44.15-4.427z" fill="#ffc9a1"/><path d="m430.235 350.189c-9.407 14.702-30.241 31.499-53.723 33.591 16.486-3.875 40.302-20.747 47.529-32.041 11.688-18.27 17.881-52.541 1.409-66.21-5.023-4.169-17.783-10.094-35.298-6.994 21.39-6.587 34.532-.95 41.498 5.444 17.214 15.809 10.273 47.94-1.415 66.21z" fill="#000" fill-opacity=".1"/><path d="m80.3564 283.979c-17.2205 15.81-10.2796 47.94 1.4089 66.21 16.6563 26.04 54.7877 42.431 74.3167 28.577 20.395-14.469 17.732-59.972-6.076-83.594-17.776-17.636-51.8401-27.542-69.6496-11.193z" fill="#f7c394" stroke="#333" stroke-miterlimit="10" stroke-width=".775"/><path d="m100.46 302.594c-10.2301 10.57-4.6656 30.486 3.356 41.522 11.431 15.725 35.986 24.597 47.73 15.168 12.267-9.847 8.896-38.319-6.936-52.263-11.82-10.41-33.579-15.357-44.15-4.427z" fill="#ffc9a1"/><path d="m81.7654 350.189c9.407 14.702 30.2406 31.499 53.7226 33.591-16.486-3.875-40.3023-20.747-47.5288-32.041-11.6885-18.27-17.8809-52.541-1.4089-66.21 5.0233-4.169 17.7827-10.094 35.2977-6.994-21.39-6.587-34.532-.95-41.4977 5.444-17.2143 15.809-10.2734 47.94 1.4151 66.21z" fill="#000" fill-opacity=".1"/><path d="m256 394.94c23.87 0 34.1 20.925 40.3 38.13s8.99 34.1 8.99 45.26c0 23.56-21.496 47.347-49.29 47.585-27.207.234-49.29-24.025-49.29-47.585 0-11.16 2.743-28.133 8.99-45.26 6.2-17.205 16.43-38.13 40.3-38.13z" fill="#d84c6a" stroke="#333" stroke-miterlimit="10" stroke-width=".775"/><path d="m256 525.915c-27.229.248-51.15-24.335-49.29-52.235 1.55 22.94 22.498 44.715 49.29 44.485 26.792-.229 47.74-21.545 49.29-44.485 1.86 27.9-22.061 51.988-49.29 52.235z" fill="#000" fill-opacity=".15"/><path d="m256 414.16c16.12 0 24.8 10.54 26.97 19.84 5.346 22.913 9.92 42.47.62 54.25s-20.918 12.71-27.59 12.71c-7.371 0-18.29-.93-27.59-12.71s-5.028-30.043.62-54.25c2.17-9.3 10.85-19.84 26.97-19.84z" fill="#f7c394" stroke="#333" stroke-miterlimit="10" stroke-width=".775"/><path d="m256 500.96c-21.08 0-34.72-14.57-33.015-33.48.62 17.825 14.88 29.45 33.015 29.45s32.395-11.625 33.015-29.45c1.705 18.91-11.935 33.48-33.015 33.48z" fill="#000" fill-opacity=".1"/><path d="m326.778 454.441c-1.74 1.402-13.816 7.458-19.451 6.491-1.728-4.923-3.355-7.558-5.138-10.038 3.72 11.935 6.898 33.868-.775 46.655-9.424 9.265-28.52 13.95-45.415 13.95s-35.991-4.685-45.415-13.95c-6.2-9.765-6.2-27.977-.775-46.655-1.55 1.86-2.678 3.547-5.138 10.038-6.797 0-14.737-2.361-19.761-5.871 3.199-9.979 8.159-16.412 9.743-18.117 20.469 7.966 39.104 12.265 61.346 12.265 22.243 0 44.094-4.65 61.781-11.625 1.104 1.685 6.884 8.893 8.998 16.857z" fill="#fff" stroke="#333" stroke-linecap="round" stroke-linejoin="round" stroke-width=".775"/><path d="m326.834 454.459c-5.193 3.1-12.788 6.665-19.453 6.51-1.007-3.41-4.362-9.18-5.115-10.385 2.692 1.75 3.971 4.625 5.264 7.426 6.386.395 14.886-3.628 18.296-6.728.31.62.853 2.325 1.008 3.177z" fill="#000" fill-opacity=".15"/><path d="m305.599 469.627c1.627 15.057-1.516 24.008-4.424 28.186-13.169 11.284-32.206 13.574-45.176 13.686-18.341.155-36.106-4.907-45.53-14.172-4.225-5.513-4.797-17.651-4.661-25.096.119 6.683 1.688 15.662 6.094 21.288 7.254 9.265 25.756 13.646 44.097 13.485 20.032-.173 38.07-3.931 45.158-14.432 4.325-6.408 4.331-15.616 4.442-22.945z" fill="#000" fill-opacity=".15"/><path d="m204.694 460.969c-6.665.155-14.493-2.79-19.685-5.89.077-.775 1.007-2.945 1.24-3.332 3.41 3.1 11.91 6.658 18.296 6.263.924-2.001 2.164-5.411 5.264-7.426-.753 1.205-4.108 6.975-5.115 10.385z" fill="#000" fill-opacity=".15"/><path d="m317.225 436.789c-17.878 7.009-42.005 12.245-61.225 12.245s-40.197-4.097-61.225-12.245c-1.122 1.634-2.575 4.073-3.565 5.735 22.01 8.835 42.625 13.33 64.79 13.33s42.78-4.495 64.79-13.33c-.954-1.658-2.468-4.085-3.565-5.735z" fill="#000" fill-opacity=".15"/><path d="m333.55 130.045c6.559-5.557-19.27-11.78-22.711-21.621-4.154-11.8595 61.317 19.7 51.394 40.467-.775 1.629-8.592 14.57-64.73-3.684 61.715 20.023 108.447 62.483 108.227 141.077-.169 60.257-54.261 153.576-149.796 154.408-92.167.805-149.83-92.414-149.664-154.408.205-75.708 66.98-153.595 149.73-159.417 49.509-3.48 72.12 7.766 77.55 3.178z" fill="#d84c6a" stroke="#333" stroke-linecap="round" stroke-linejoin="round" stroke-width=".775"/><path d="m343.6 133.507c-4.597 10.1-32.831-6.2-82.339-2.719-101.287 7.121-174.6757 119.536-134.01 210.658 10.562-10.909 23.427-14.009 27.526-15.37 1.231 1.328 2.729 2.739 3.263 3.376-12.611 3.929-27.269 12.463-33.577 24.31-11.822-22.878-18.135-46.897-18.072-67.476.205-75.71 66.994-153.605 149.744-159.428 49.509-3.48 72.007 7.765 77.437 3.171 6.537-5.541-19.292-11.765-22.731-21.606-1.329-3.791 4.467-3.141 12.64.176-3.1-.447-4.805.283-3.96 2.459 3.004 7.811 27.946 13.954 24.079 22.449z" fill="#000" fill-opacity=".14"/><path d="m405.498 286.295c-.056 19.8-5.909 43.169-17.134 65.654-11.619-15.91-32.431-22.265-34.559-22.265.62-.775 2.48-3.053 3.1-3.797 3.643.852 19.936 4.326 29.029 16.461 9.191-20.483 13.41-39.55 13.46-57.483.228-81.257-54.811-121.651-101.891-139.658 61.715 20.022 108.215 62.492 107.995 141.088z" fill="#000" fill-opacity=".14"/><path d="m213.375 186.542c-46.035 0-103.075 97.417-56.342 142.367-89.2028 27.9 0 120.745 98.967 120.745 98.968 0 188.17-92.845 98.968-120.745 46.732-44.95-10.308-142.367-56.343-142.367-19.607 0-30.303 9.067-42.625 18.057-12.322-8.99-23.017-18.057-42.625-18.057z" fill="#ffcd98" stroke="#333" stroke-width=".775"/><path d="m372.111 281.634c-2.434-47.823-41.075-95.044-74.633-95.044-20.863 0-33.511 12.732-41.478 18.009-6.37-4.347-20.537-18.009-41.602-18.009-39.618 0-74.105 57.844-74.73 96.52-3.483-41.621 28.458-104.086 74.947-104.086 24.18 0 37.045 11.625 41.385 16.43 4.34-4.805 17.205-16.43 41.385-16.43 46.132 0 78.043 59.133 74.726 102.61z" fill="#000" fill-opacity=".14"/><path d="m124.033 351.333c-21.068 38.016 51.82 98.244 131.967 98.244 80.148 0 153.942-60.892 131.712-98.868 14.78 34.736-55.65 93.055-131.712 93.055-75.607 0-145.651-57.625-131.967-92.431z" fill="#000" fill-opacity=".1"/><path d="m139.808 280.145c-1.103 18.204 3.723 35.652 17.275 48.687-1.616.506-3.174 1.187-4.674 1.735 3.461-1.115 6.768-1.904 10.591-2.587-13.104-12.604-20.687-29.724-23.192-47.835z" fill="#000" fill-opacity=".1"/><path d="m359.928 330.615c-3.374-.994-6.913-1.918-10.928-2.635 13.225-12.721 20.827-30.041 23.261-48.338 1.222 18.386-3.566 36.035-17.243 49.19 1.754.549 3.292 1.185 4.91 1.783z" fill="#000" fill-opacity=".1"/><path d="m218.748 217.474c24.008 2.79 41.305 32.357 38.75 58.4-2.539 25.937-25.217 53.01-51.131 50.065-23.529-2.682-38.79-28.864-39.293-50.865-.668-29.475 24.931-60.709 51.674-57.6z" fill="#fff"/><path d="m247.898 282.91c3.427-17.663-6.121-34.374-21.327-37.324s-30.31 8.977-33.737 26.64 6.121 34.373 21.327 37.323c15.206 2.951 30.31-8.977 33.737-26.639z" fill="#868686" stroke="#333" stroke-miterlimit="10" stroke-width=".775"/><path d="m222.087 300.942c9.069 0 16.421-8.221 16.421-18.361 0-10.141-7.352-18.362-16.421-18.362s-16.421 8.221-16.421 18.362c0 10.14 7.352 18.361 16.421 18.361z" fill="#000"/><path d="m236.609 269.748c1.155-3.263-.684-6.89-4.107-8.102-3.424-1.211-7.135.452-8.29 3.714-1.154 3.263.685 6.89 4.108 8.101 3.423 1.212 7.134-.451 8.289-3.713z" fill="#fff" stroke="#333" stroke-miterlimit="10" stroke-width=".775"/><path d="m230.564 221.185c-31.68-8.664-58.044 28.869-57.398 57.042.383 16.623 9.201 35.617 23.668 45.205-18.042-7.561-29.326-29.501-29.76-48.36-.671-29.467 24.928-60.696 51.671-57.59 4.135.494 8.142 1.75 11.819 3.703z" fill="#000" fill-opacity=".05"/><path d="m234.862 248.859c-17.491-4.971-32.975 10.121-36.138 26.418-2.596 13.384 2.181 26.229 11.214 33.069-12.691-4.96-20.185-20.139-17.089-36.098 3.429-17.67 18.535-29.588 33.741-26.637 2.932.57 5.736 1.67 8.272 3.248z" fill="#000" fill-opacity=".15"/><path d="m292.27 216.832c-23.953 3.205-40.732 33.07-37.727 59.067 2.992 25.885 26.138 52.56 51.998 49.155 23.478-3.091 38.285-29.535 38.398-51.541.152-29.474-25.987-60.253-52.669-56.681z" fill="#fff"/><path d="m298.43 308.867c15.152-3.215 24.407-20.089 20.673-37.69-3.735-17.6-19.046-29.262-34.197-26.047-15.152 3.216-24.408 20.09-20.673 37.69 3.735 17.601 19.045 29.262 34.197 26.047z" fill="#868686" stroke="#333" stroke-miterlimit="10" stroke-width=".775"/><path d="m290.386 300.345c9.067-.159 16.274-8.506 16.097-18.645-.176-10.139-7.671-18.231-16.738-18.072-9.068.158-16.275 8.506-16.098 18.645s7.671 18.23 16.739 18.072z" fill="#000"/><path d="m300.693 273.481c3.402-1.271 5.177-4.93 3.966-8.172-1.212-3.242-4.952-4.84-8.353-3.569-3.402 1.272-5.177 4.93-3.966 8.172 1.212 3.242 4.951 4.84 8.353 3.569z" fill="#fff" stroke="#333" stroke-miterlimit="10" stroke-width=".775"/><path d="m344.935 273.513c-.102 19.107-11.276 41.561-29.587 49.168 14.77-9.551 23.573-29.152 23.663-46.12.149-28.456-28.07-66.843-59.823-55.053 4.03-2.418 8.415-4.052 13.078-4.676 26.686-3.572 52.825 27.207 52.669 56.681z" fill="#000" fill-opacity=".05"/><path d="m301.739 307.893c9.434-6.766 14.353-20.006 11.45-33.682-3.471-16.358-19.605-31.218-37.004-25.373 2.639-1.804 5.606-3.073 8.732-3.737 15.153-3.217 30.464 8.444 34.201 26.04 3.457 16.29-4.21 31.956-17.379 36.752z" fill="#000" fill-opacity=".15"/><path d="m242.05 551.18c4.96 0 9.779-3.657 10.338-8.701 1.413-12.744-14.624-13.902-23.352-14.093-8.851-.194-23.876 1.482-26.509 11.201-2.301 8.493 5.656 11.593 11.313 11.593 5.658 0 7.595-1.883 14.413-1.883 5.954 0 8.838 1.883 13.797 1.883z" fill="#f7c394" stroke="#333" stroke-miterlimit="10" stroke-width=".775"/><path d="m241.895 547.77c-4.959 0-7.843-1.883-13.797-1.883-6.818 0-8.755 1.883-14.413 1.883-4.4 0-10.191-1.875-11.465-6.705-1.043 7.378 6.304 10.115 11.62 10.115 5.658 0 7.595-1.883 14.413-1.883 5.954 0 8.838 1.883 13.797 1.883 6.644 0 11.315-5.293 10.216-12.44-.46 5.186-5.275 9.03-10.371 9.03z" fill="#000" fill-opacity=".1"/><path d="m269.95 551.18c-4.959 0-9.778-3.657-10.337-8.701-1.413-12.744 14.624-13.902 23.352-14.093 8.851-.194 23.875 1.482 26.509 11.201 2.301 8.493-5.656 11.593-11.314 11.593-5.657 0-7.595-1.883-14.412-1.883-5.954 0-8.838 1.883-13.798 1.883z" fill="#f7c394" stroke="#333" stroke-miterlimit="10" stroke-width=".775"/><path d="m270.105 547.77c4.96 0 7.844-1.883 13.798-1.883 6.817 0 8.755 1.883 14.412 1.883 4.401 0 10.192-1.875 11.466-6.705 1.043 7.378-6.304 10.115-11.621 10.115-5.657 0-7.595-1.883-14.412-1.883-5.954 0-8.838 1.883-13.798 1.883-6.643 0-11.314-5.293-10.215-12.44.46 5.186 5.275 9.03 10.37 9.03z" fill="#000" fill-opacity=".1"/><path d="m194.217 505.283c8.806.007 14.413-10.557 9.081-17.867 2.467-7.008-2.803-14.786-10.332-14.966-8.68-.207-13.697 9.068-12.788 16.916.85 7.333 5.817 15.91 14.039 15.917z" fill="#f7c394" stroke="#333" stroke-miterlimit="10" stroke-width=".775"/><path d="m180.178 489.366c1.052 9.077 8.428 19.654 19.433 14.539-10.668-1.365-18.135-19.453-12.883-29.735-.835.595-2.152 1.292-4.278 4.28-1.904 3.367-2.742 7.16-2.272 10.916z" fill="#000" fill-opacity=".1"/><path d="m222.675 325.346c0 11.834 15.322 26.195 33.52 26.04 16.774-.148 33.13-14.346 33.13-26.006 0-23.58-66.65-23.936-66.65-.034z" fill="#000" fill-opacity=".1"/><path d="m222.21 322.555c0 11.835 15.536 26.195 33.987 26.04 17.009-.147 33.593-14.345 33.593-26.005 0-9.383-19.567-17.635-33.593-17.515-13.023.12-33.987 6.379-33.987 17.48z" fill="#7a5d43"/><path d="m222.455 320.505c6.472 8.486 19.325 15.646 33.767 15.534 13.362-.106 26.492-7.304 33.184-15.74.251.753.384 1.518.384 2.29 0 11.661-16.584 25.859-33.593 26.006-18.451.155-33.987-14.205-33.987-26.04 0-.703.084-1.386.245-2.05z" fill="#000" fill-opacity=".2"/><path d="m317.783 505.283c-8.807.007-14.413-10.557-9.082-17.867-2.467-7.008 2.803-14.786 10.332-14.966 8.681-.207 13.697 9.068 12.788 16.916-.849 7.333-5.816 15.91-14.038 15.917z" fill="#f7c394" stroke="#333" stroke-miterlimit="10" stroke-width=".775"/><path d="m331.821 489.366c-1.051 9.077-8.427 19.654-19.432 14.539 10.667-1.365 18.135-19.453 12.882-29.735.835.595 2.153 1.292 4.278 4.28 1.905 3.367 2.743 7.16 2.272 10.916z" fill="#000" fill-opacity=".1"/><path d="m258.79 528.239c0-3.595 2.914-6.51 6.509-6.51h14.416c8.603 0 11.47 5.193 11.47 5.193h4.65c5.784 0 19.925 3.816 19.505 21.452-.063 2.609-2.628 4.455-5.234 4.322-9.993-.512-30.395.131-42.243.585-4.948.19-9.073-3.763-9.073-8.715z" fill="#fff" stroke="#333" stroke-width=".775"/><path clip-rule="evenodd" d="m258.79 539.605v4.96c0 4.952 4.125 8.905 9.073 8.715 11.848-.454 32.25-1.097 42.243-.585 2.606.133 5.171-1.713 5.233-4.322.034-1.394-.024-2.702-.162-3.928-.608 2.048-2.824 3.405-5.071 3.29-9.993-.512-30.395.131-42.243.585-4.948.19-9.073-3.763-9.073-8.715z" fill="#000" fill-opacity=".1" fill-rule="evenodd"/><path d="m253.21 528.239c0-3.595-2.914-6.51-6.509-6.51-4.26 0-9.86 0-14.416 0-8.603 0-11.47 5.193-11.47 5.193s-3.255 0-4.65 0c-5.784 0-19.925 3.816-19.505 21.452.063 2.609 2.628 4.455 5.234 4.322 9.993-.512 30.395.131 42.243.585 4.948.19 9.073-3.763 9.073-8.715z" fill="#fff" stroke="#333" stroke-width=".775"/><path clip-rule="evenodd" d="m253.21 539.605v4.96c0 4.952-4.125 8.905-9.073 8.715-11.848-.454-32.25-1.097-42.243-.585-2.606.133-5.171-1.713-5.233-4.322-.034-1.394.024-2.702.162-3.928.608 2.048 2.824 3.405 5.071 3.29 9.993-.512 30.395.131 42.243.585 4.948.19 9.073-3.763 9.073-8.715z" fill="#000" fill-opacity=".1" fill-rule="evenodd"/><path d="m348.4 371.361c.162 1.418.27 2.831.629 4.217.354 1.363.925 2.623 1.494 3.905.385.872-.381 1.912-1.345 1.499-3.683-1.659-4.899-6.9-2.711-10.181.584-.837 1.838-.407 1.933.56z" fill="#000" fill-opacity=".1"/><path d="m341.637 377.037c-1.007-4.495-.346-9.463-.232-9.92.387-1.55-2.248-2.558-3.1-1.163-.294.482-1.938 4.108-1.628 9.61-9.687 6.433-27.047 7.75-43.71 6.433-19.762-.853-47.352-11.625-79.747-11.625-22.088 0-33.713 2.945-37.975 3.72.155-3.023-1.24-7.053-1.783-7.983-.984-1.688-3.41-.62-3.022 1.163.584 2.689.697 6.277-.155 10.075-1.097 4.887-3.71 8.721-4.03 9.842-.526 1.841 1.251 2.389 2.325 2.015 1.782-.62 6.122-7.672 6.432-11.857 6.898-1.008 12.943-3.023 38.208-2.635 26.889.412 54.405 10.075 79.747 11.702 27.702 1.779 41.695-6.277 44.253-7.595 1.705 6.355 5.192 9.765 5.967 10.153 1.86.93 3.643-.698 2.403-2.248-1.339-1.674-2.945-5.192-3.953-9.687z" fill="#634b37"/><path d="m165.37 370.828c2.245 3.245 1.11 8.505-2.542 10.23-.958.431-1.741-.597-1.372-1.476.548-1.291 1.095-2.565 1.429-3.932.333-1.394.418-2.808.555-4.229.096-.959 1.317-1.438 1.925-.597z" fill="#000" fill-opacity=".1"/><path d="m351.635 212.66c-50.143-15.965-115.088-15.19-137.408-15.19-1.24-1.937-2.092-4.34-2.48-7.362 8.835-3.023 133.998 7.44 139.888 12.4z" fill="#000" fill-opacity=".2"/><path d="m357.747 212.693c-2.69-1.666-7.158-3.387-12.782-5.059-28.981-8.619-60.445-12.096-90.555-13.151-18.479-.582-16.619-24.871-.155-24.395 27.881.88 56.195 3.434 83.322 10.253 12.268 3.085 22.405 6.82 27.648 10.892 14.866 11.552-7.472 21.427-7.478 21.46z" fill="#808080" stroke="#333" stroke-linecap="round" stroke-miterlimit="10" stroke-width=".775"/><path d="m314.857 191.607c2.292 0 4.151-1.859 4.151-4.151 0-2.293-1.859-4.151-4.151-4.151-2.293 0-4.151 1.858-4.151 4.151 0 2.292 1.858 4.151 4.151 4.151z" fill="#4d4d4d" stroke="#333" stroke-linecap="round" stroke-miterlimit="10" stroke-width=".775"/><path d="m333.302 194.701c2.292 0 4.151-1.859 4.151-4.151 0-2.293-1.859-4.151-4.151-4.151-2.293 0-4.151 1.858-4.151 4.151 0 2.292 1.858 4.151 4.151 4.151z" fill="#4d4d4d" stroke="#333" stroke-linecap="round" stroke-miterlimit="10" stroke-width=".775"/><path d="m314.856 190.175c1.516 0 2.745-1.229 2.745-2.745s-1.229-2.745-2.745-2.745-2.745 1.229-2.745 2.745 1.229 2.745 2.745 2.745z" fill="#333"/><path d="m333.301 193.32c1.516 0 2.745-1.229 2.745-2.745s-1.229-2.745-2.745-2.745-2.745 1.229-2.745 2.745 1.229 2.745 2.745 2.745z" fill="#333"/><g stroke="#333" stroke-miterlimit="10" stroke-width=".775"><path d="m127.462 212.394c-11.559 20.32-18.48 38.861-20.77 63.26-6.014-.334-11.8146.401-17.2938 2.485 8.5251-25.834 22.6068-45.949 37.5498-67.883.173.712.346 1.424.514 2.138z" fill="#808080" stroke-linecap="round"/><path d="m274.732 187.52c2.292 0 4.151-1.859 4.151-4.151 0-2.293-1.859-4.151-4.151-4.151-2.293 0-4.151 1.858-4.151 4.151 0 2.292 1.858 4.151 4.151 4.151z" fill="#4d4d4d" stroke-linecap="round"/><path d="m293.561 188.612c2.293 0 4.151-1.858 4.151-4.151 0-2.292-1.858-4.151-4.151-4.151-2.292 0-4.151 1.859-4.151 4.151 0 2.293 1.859 4.151 4.151 4.151z" fill="#4d4d4d" stroke-linecap="round"/><path d="m255.629 186.397c2.293 0 4.151-1.858 4.151-4.151 0-2.292-1.858-4.151-4.151-4.151-2.292 0-4.15 1.859-4.15 4.151 0 2.293 1.858 4.151 4.15 4.151z" fill="#4d4d4d" stroke-linecap="round"/></g><path d="m367.33 205.995c-3.72 4.082-9.58 6.679-9.584 6.699-2.689-1.666-7.157-3.386-12.781-5.059-10.262-3.052-24.374-5.941-38.551-8.035-21.938-3.37-44.036-4.836-52.005-5.115-15.19-.479-16.636-16.972-7.528-22.565-5.367 6.96-2.511 19.361 10.628 19.775 7.969.271 30.071 1.738 52.005 5.115 14.177 2.094 28.289 4.983 38.551 8.035 5.624 1.673 10.092 3.393 12.781 5.059 2.285-1.086 4.457-2.395 6.484-3.909z" fill="#000" fill-opacity=".15"/><path d="m296.409 173.046c-21.411-2.459-43.039-3.703-64.591-3.141-20.591.543-39.706 3.1-48.274 7.941-16.382 9.264 1.052 18.152 1.052 18.192 3.068-1.328 17.859-1.63 35.588-1.443 29.67.31 67.571 2.015 72.531 2.564 18.366 2.106 20.052-22.194 3.694-24.113zm-65.981 12.653c-1.382-.923-2.09-2.633-1.766-4.263.504-2.533 3.302-4.003 5.662-3.026 2.695 1.116 3.388 4.731 1.347 6.773-1.385 1.385-3.619 1.602-5.243.516zm22.894.001c-2.148-1.435-2.436-4.583-.631-6.389 1.175-1.176 2.99-1.537 4.526-.901 2.695 1.116 3.389 4.73 1.348 6.772-1.385 1.385-3.618 1.603-5.243.518zm19.102 1.122c-1.382-.923-2.09-2.633-1.767-4.263.498-2.505 3.275-4.015 5.662-3.027 2.649 1.097 3.41 4.71 1.348 6.772-1.385 1.385-3.618 1.603-5.243.518zm18.832 1.084c-1.381-.923-2.089-2.633-1.764-4.262.498-2.503 3.274-4.012 5.66-3.024 2.087.865 3.101 3.359 2.247 5.426-.983 2.381-3.996 3.296-6.143 1.86z" fill="#808080" stroke="#333" stroke-linecap="round" stroke-miterlimit="10" stroke-width=".775"/><path d="m399.55 240.74c-4.117-3.985-18.543-15.98-50.587-24.789-1.123-.31-1.996-1.253-2.218-2.396-6.267-32.104-12.315-58.194-56.54-61.878-44.224-3.684-62.868 15.927-72.106 47.802-.406 1.395-1.728 2.217-3.184 2.226-38.15.24-83.681 20.485-96.45 27.97 1.327-3.125 2.755-6.216 4.283-9.274 14.968-8.255 54.324-25.651 90.21-25.875 1.455-.01 2.777-.827 3.184-2.226 9.238-31.876 27.293-50.878 75.607-47.753 48.574 3.143 50.533 27.981 57.251 62.45.222 1.143 1.095 2.086 2.218 2.396 21.297 5.854 35.534 12.304 43.29 16.945 1.955 4.7 3.638 9.509 5.042 14.402z" fill="#000" fill-opacity=".2"/><path d="m255.629 184.992c1.516 0 2.745-1.229 2.745-2.745 0-1.517-1.229-2.746-2.745-2.746s-2.745 1.229-2.745 2.746c0 1.516 1.229 2.745 2.745 2.745z" fill="#333"/><path d="m274.732 186.114c1.516 0 2.745-1.229 2.745-2.745s-1.229-2.745-2.745-2.745-2.745 1.229-2.745 2.745 1.229 2.745 2.745 2.745z" fill="#333"/><path d="m293.561 187.206c1.516 0 2.745-1.229 2.745-2.745s-1.229-2.745-2.745-2.745-2.745 1.229-2.745 2.745 1.229 2.745 2.745 2.745z" fill="#333"/><path d="m303.67 176.122c4.216 7.668-.425 19.43-13.438 17.937-4.96-.557-42.861-2.248-72.531-2.564-17.729-.187-32.521.115-35.588 1.443-1.699-.937-3.279-2.074-4.709-3.385 2.092 3.855 7.189 6.464 7.189 6.485 3.067-1.328 17.859-1.63 35.588-1.443 29.67.31 67.571 2.015 72.531 2.564 14.954 1.714 18.851-14.071 10.958-21.037z" fill="#000" fill-opacity=".15"/><path d="m398.459 236.641s-8.254-12.659-47.229-23.373c-1.123-.31-1.995-1.253-2.218-2.396-6.266-32.104-12.392-58.713-57.257-62.45-48.248-4.019-66.369 15.877-75.607 47.753-.406 1.395-1.728 2.216-3.184 2.226-39.502.248-83.198 21.292-93.964 28.055-.883.555-2.069-.361-1.69-1.377 1.825-4.875 4.573-10.486 6.097-18.476 8.229-43.144 54.594-119.6815 151.325-117.0372 90.437 2.48 123.727 74.8202 123.727 147.0752z" fill="#f2f2f2" stroke="#333" stroke-linecap="round" stroke-miterlimit="10" stroke-width=".775"/><path d="m398.459 236.64s-4.819-6.232-14.911-11.2c-5.552-65.326-40.384-125.8599-122.76-128.1167-27.582-.7533-51.071 4.9307-70.745 14.4427 22.219-14.0443 50.266-23.1335 84.695-22.1927 90.432 2.4723 123.721 74.8137 123.721 147.0667z" fill="#000" fill-opacity=".1"/></svg>