<svg fill="none" height="620" viewBox="0 0 512 620" width="512" xmlns="http://www.w3.org/2000/svg"><clipPath id="a"><path d="M0 0h512v620H0z"/></clipPath><g clip-path="url(#a)"><path d="M298.6 510c-7.8-1.1-17.8-5-30.5-11.7a4 4 0 0 1-1.6-5.3 4 4 0 0 1 5.3-1.6 94.1 94.1 0 0 0 28 11c4.4.6 7.7.1 9.6-1.5 2-1.9 1.9-5.1 1.3-11.2-.6-7.2-1.4-16 3-26.3 7-15.5 23.9-30.2 41.8-27.4 11.4 1.8 22.3 10.3 24.8 21.8 2 9.8-1 23.3-11.4 27-7 2.5-15-.3-20.3-5a4 4 0 0 1-.5-5.4 4 4 0 0 1 5.5-.4s6.8 5.6 12.6 3.5c6.7-2.4 7.7-12.2 6.5-18-1.8-8.5-10.2-14.6-18.4-15.8-14.4-2.3-28 10.6-33.4 22.8-3.7 8.4-3 15.9-2.5 22.5.7 6.8 1.2 13.2-4 17.7-4.2 3.8-10.3 4.2-15.8 3.3z" fill="#fbdd11" stroke="#333" stroke-miterlimit="10" stroke-width=".8"/><path d="M378 459.7c1.7 7.9.2 17.7-5.9 23.6 8-5.3 10.1-16.7 8.2-25.5-2.5-11.5-13.4-20-24.7-21.8a36 36 0 0 0-28.2 9.5c17.7-12.6 45.5-9.4 50.6 14.2z" fill="#000" fill-opacity=".2"/><path d="M367.3 477.1c-4.2 4.9-11.7 2.4-16-1.3a3.9 3.9 0 0 0-3.5-.7 3.9 3.9 0 0 1 6-1c3.3 3 9.2 5.3 13.5 3zM267.5 492c.5-.5 2.4-1.5 3.5-1l3.9 2c7.6 3.7 19.7 9.7 28.5 9.7 7.7 0 8.4-3.9 7.3-14.1l.5 2c1.5 5.8 3.7 14.6-7.8 14.6-12.7 0-32.4-11-36-13.3z" fill="#000" fill-opacity=".2"/><path d="M192 487.8c5.6 0 10.2-5 9.6-10.6a47.1 47.1 0 0 1 10.2-30.8c6.7-9.3 13.9-14.4 8.3-20.5-5.5-6-17.9.6-24 9.3a65.6 65.6 0 0 0-13.8 44c.5 4.8 4 8.6 9.7 8.6z" fill="#fbdd11" stroke="#333" stroke-miterlimit="10" stroke-width=".8"/><path d="M186.7 474.2c0-17.4 14-43 30.3-50.3-20.2-3.2-38 36.2-34.5 54.6 1-1.9 3-3.7 4.2-4.3z" fill="#000" fill-opacity=".1"/><path d="M249.7 534.2c.8-13.5 4.3-24 7.3-32s6.6-22.5-6.6-25.8c-18.8-4.7-29.2 39.4-30 52.9-.4 7.9 5.8 17 13.8 17.5 7.3.4 15-4.9 15.5-12.6z" fill="#fbdd11" stroke="#333" stroke-miterlimit="10" stroke-width=".8"/><path d="M220.3 529.2c8-1 23-1 29.2 5.3l.2-2.3c-6.5-5.7-21.4-6.1-29.1-5l-.3 2zM222.8 515.4a49.3 49.3 0 0 0 27.5 12.1l.4-2.6a49.6 49.6 0 0 1-27.3-12.5l-.7 3z" fill="#000" fill-opacity=".1"/><path d="M262.3 534.2c-.8-13.5-4.2-24-7.3-32s-6.6-22.5 6.6-25.8c18.8-4.7 29.2 39.4 30 52.9.4 7.9-5.8 17-13.8 17.5-7.3.4-15-4.9-15.5-12.6z" fill="#fbdd11" stroke="#333" stroke-miterlimit="10" stroke-width=".8"/><path d="M291.7 529.2c-8-1-23-1-29.2 5.3l-.2-2.3c6.5-5.7 21.4-6.1 29.1-5l.3 2zM289.3 515.4a49.3 49.3 0 0 1-27.6 12.1l-.4-2.6a49.6 49.6 0 0 0 27.3-12.5c.3.9.5 2.3.6 3z" fill="#000" fill-opacity=".1"/><path d="M320 487.8c-5.6 0-10.2-5-9.6-10.6.8-9.9-2.9-20.5-10.2-30.8-6.7-9.3-13.9-14.4-8.3-20.5 5.5-6 17.9.6 24 9.3a65.6 65.6 0 0 1 13.8 44c-.5 4.8-4 8.6-9.7 8.6z" fill="#fbdd11" stroke="#333" stroke-miterlimit="10" stroke-width=".8"/><path d="M325.3 474.2c0-17.4-14-43-30.3-50.3 20.2-3.2 38 36.2 34.5 54.6-1-1.9-3-3.7-4.2-4.3z" fill="#000" fill-opacity=".1"/><path d="M431.6 284c17.3 15.8 10.3 48-1.4 66.2-16.6 26-54.8 42.4-74.3 28.6-20.4-14.5-17.7-60 6.1-83.6 17.8-17.7 51.8-27.6 69.6-11.2z" fill="#f7c394" stroke="#333" stroke-miterlimit="10" stroke-width=".8"/><path d="M411.5 302.6c10.3 10.6 4.7 30.5-3.3 41.5-11.4 15.7-36 24.6-47.7 15.2-12.3-9.9-9-38.3 6.9-52.3 11.8-10.4 33.6-15.3 44.1-4.4z" fill="#ffc9a1"/><path d="M430.2 350.2a76.9 76.9 0 0 1-53.7 33.6c16.5-3.9 40.3-20.8 47.5-32 11.7-18.3 18-52.6 1.4-66.3-5-4.1-17.7-10-35.2-7 21.3-6.6 34.5-1 41.4 5.5 17.3 15.8 10.3 48-1.4 66.2z" fill="#000" fill-opacity=".1"/><path d="M80.4 284C63 299.8 70 332 81.8 350.2c16.6 26 54.8 42.4 74.3 28.6 20.4-14.5 17.7-60-6-83.6-17.9-17.7-52-27.6-69.7-11.2z" fill="#f7c394" stroke="#333" stroke-miterlimit="10" stroke-width=".8"/><path d="M100.5 302.6c-10.3 10.6-4.7 30.5 3.3 41.5 11.4 15.7 36 24.6 47.7 15.2 12.3-9.9 9-38.3-6.9-52.3-11.8-10.4-33.6-15.3-44.1-4.4z" fill="#ffc9a1"/><path d="M81.8 350.2a76.9 76.9 0 0 0 53.7 33.6c-16.5-3.9-40.3-20.8-47.5-32-11.7-18.3-18-52.6-1.4-66.3 5-4.1 17.7-10 35.2-7-21.3-6.6-34.5-1-41.4 5.5-17.3 15.8-10.3 48 1.4 66.2z" fill="#000" fill-opacity=".1"/><path d="M256 395c23.9 0 34.1 20.9 40.3 38s9 34.2 9 45.3A50 50 0 0 1 256 526c-27.2.2-49.3-24-49.3-47.6a142 142 0 0 1 9-45.2c6.2-17.2 16.4-38.2 40.3-38.2z" fill="#fbdd11" stroke="#333" stroke-miterlimit="10" stroke-width=".8"/><path d="M256 526a50 50 0 0 1-49.3-52.3 49.4 49.4 0 0 0 49.3 44.5 49.8 49.8 0 0 0 49.3-44.5c1.9 27.9-22 52-49.3 52.2z" fill="#000" fill-opacity=".1"/><path d="M256 414.2a26.4 26.4 0 0 1 27 19.8c5.3 23 9.9 42.5.6 54.3S262.6 501 256 501c-7.4 0-18.3-1-27.6-12.8s-5-30 .6-54.2a26.4 26.4 0 0 1 27-19.8z" fill="#f7c394" stroke="#333" stroke-miterlimit="10" stroke-width=".8"/><path d="M256 501c-21 0-34.7-14.6-33-33.5.6 17.8 14.9 29.4 33 29.4s32.4-11.6 33-29.4c1.7 18.9-12 33.5-33 33.5zM317.2 436.8c-17.9 7-42 12.2-61.2 12.2s-40.2-4-61.2-12.2l-3.6 5.7c22 8.9 42.6 13.4 64.8 13.4s42.8-4.5 64.8-13.4l-3.6-5.7z" fill="#000" fill-opacity=".1"/><path d="M333.6 130c6.5-5.5-19.3-11.7-22.8-21.6-4.1-11.8 61.4 19.7 51.4 40.5-.7 1.6-8.6 14.6-64.7-3.7 61.7 20 108.4 62.5 108.2 141-.1 60.3-54.2 153.7-149.8 154.5-92.1.8-149.8-92.4-149.6-154.4.2-75.7 67-153.6 149.7-159.4 49.5-3.5 72.1 7.7 77.5 3.1z" fill="#fbdd11" stroke="#333" stroke-linecap="round" stroke-linejoin="round" stroke-width=".8"/><path d="M343.6 133.5c-4.6 10.1-32.8-6.2-82.3-2.7-101.3 7.1-174.7 119.5-134 210.6 10.5-10.9 23.4-14 27.5-15.3 1.2 1.3 2.7 2.7 3.2 3.4-12.6 3.9-27.2 12.4-33.5 24.3a151 151 0 0 1-18.1-67.5c.2-75.7 67-153.6 149.7-159.4 49.5-3.5 72 7.7 77.5 3.1 6.5-5.5-19.3-11.7-22.8-21.6-1.3-3.8 4.5-3.1 12.7.2-3.1-.4-4.8.3-4 2.5 3 7.8 28 14 24.1 22.4z" fill="#000" fill-opacity=".1"/><path d="M405.5 286.3c0 19.8-6 43.2-17.1 65.6a64 64 0 0 0-34.6-22.2l3.1-3.8c3.6.8 20 4.3 29 16.4a140.8 140.8 0 0 0 13.5-57.4c.2-81.3-54.8-121.7-101.9-139.7 61.7 20 108.2 62.5 108 141.1z" fill="#000" fill-opacity=".1"/><path d="M213.4 186.5c-46 0-103.1 97.5-56.4 142.4-89.2 28 0 120.8 99 120.8s188.2-92.9 99-120.8c46.7-45-10.3-142.4-56.4-142.4-19.6 0-30.3 9.1-42.6 18.1-12.3-9-23-18-42.6-18z" fill="#ffcd98" stroke="#333" stroke-width=".8"/><path d="M372.1 281.6c-2.4-47.8-41-95-74.6-95-20.9 0-33.5 12.7-41.5 18-6.4-4.3-20.5-18-41.6-18-39.6 0-74.1 57.8-74.7 96.5-3.5-41.6 28.4-104 75-104 24.1 0 37 11.5 41.3 16.4a54.2 54.2 0 0 1 41.4-16.5c46.1 0 78 59.2 74.7 102.6zM124 351.3c-21 38 51.9 98.3 132 98.3s154-61 131.7-98.9c14.8 34.7-55.6 93-131.7 93-75.6 0-145.7-57.6-132-92.4z" fill="#000" fill-opacity=".1"/><path d="M139.8 280.1a60.2 60.2 0 0 0 17.3 48.7c-1.6.5-3.2 1.2-4.7 1.8 3.5-1.1 6.8-2 10.6-2.6a81.1 81.1 0 0 1-23.2-47.9zM360 330.6c-3.4-1-7-1.9-11-2.6a81.3 81.3 0 0 0 23.3-48.4c1.2 18.4-3.6 36-17.3 49.2l5 1.8z" fill="#000" fill-opacity=".1"/><path d="M218.7 217.5c24 2.8 41.4 32.3 38.8 58.4-2.5 26-25.2 53-51.1 50-23.6-2.6-38.8-28.8-39.3-50.8-.7-29.5 24.9-60.7 51.6-57.6z" fill="#fff"/><path d="M247.9 283c3.4-17.8-6.1-34.5-21.3-37.4-15.2-3-30.3 9-33.8 26.6s6.2 34.4 21.4 37.3c15.2 3 30.3-9 33.7-26.6z" fill="#54c394" stroke="#333" stroke-miterlimit="10" stroke-width=".8"/><path d="M222 301c9.2 0 16.5-8.3 16.5-18.4 0-10.2-7.3-18.4-16.4-18.4-9 0-16.4 8.2-16.4 18.4 0 10.1 7.3 18.3 16.4 18.3z" fill="#000"/><path d="M236.6 269.7a6.4 6.4 0 0 0-4.1-8 6.4 6.4 0 0 0-8.3 3.7 6.4 6.4 0 0 0 4.1 8 6.4 6.4 0 0 0 8.3-3.7z" fill="#fff" stroke="#333" stroke-miterlimit="10" stroke-width=".8"/><path d="M230.6 221.2c-31.7-8.7-58 28.9-57.4 57a58 58 0 0 0 23.6 45.2c-18-7.5-29.3-29.5-29.7-48.3-.7-29.5 24.9-60.7 51.6-57.6 4.2.5 8.2 1.7 11.9 3.7z" fill="#000" fill-opacity=".1"/><path d="M234.9 248.9c-17.5-5-33 10-36.2 26.4a33.4 33.4 0 0 0 11.2 33c-12.7-5-20.1-20-17-36 3.4-17.7 18.5-29.6 33.7-26.7 3 .6 5.7 1.7 8.3 3.3z" fill="#000" fill-opacity=".1"/><path d="M292.3 216.8c-24 3.2-40.8 33.1-37.8 59.1 3 25.9 26.2 52.6 52 49.2 23.5-3.1 38.3-29.6 38.4-51.6.2-29.5-26-60.2-52.6-56.7z" fill="#fff"/><path d="M298.4 308.9c15.2-3.2 24.4-20.1 20.7-37.7-3.7-17.6-19-29.3-34.2-26-15.1 3.1-24.4 20-20.7 37.6 3.8 17.6 19 29.3 34.2 26z" fill="#54c394" stroke="#333" stroke-miterlimit="10" stroke-width=".8"/><path d="M290.4 300.3c9-.1 16.3-8.5 16-18.6s-7.6-18.2-16.7-18c-9 0-16.2 8.4-16 18.6.1 10.1 7.6 18.2 16.7 18z" fill="#000"/><path d="M300.7 273.5c3.4-1.3 5.2-5 4-8.2a6.4 6.4 0 0 0-8.4-3.6 6.4 6.4 0 0 0-4 8.2c1.3 3.3 5 4.9 8.4 3.6z" fill="#fff" stroke="#333" stroke-miterlimit="10" stroke-width=".8"/><path d="M345 273.5c-.2 19.1-11.3 41.6-29.7 49.2a57.5 57.5 0 0 0 23.7-46.1c.2-28.5-28-66.9-59.8-55 4-2.5 8.4-4.1 13-4.8 26.8-3.5 52.9 27.2 52.7 56.7z" fill="#000" fill-opacity=".1"/><path d="M301.7 307.9c9.5-6.8 14.4-20 11.5-33.7-3.5-16.3-19.6-31.2-37-25.4 2.6-1.8 5.6-3 8.7-3.7 15.2-3.2 30.5 8.4 34.2 26 3.5 16.3-4.2 32-17.4 36.8z" fill="#000" fill-opacity=".1"/><path d="M242 551.2c5 0 9.8-3.7 10.4-8.7 1.4-12.8-14.6-14-23.4-14.1-8.8-.2-23.8 1.5-26.5 11.2-2.3 8.5 5.7 11.6 11.3 11.6 5.7 0 7.6-1.9 14.5-1.9 6 0 8.8 1.9 13.7 1.9z" fill="#f7c394" stroke="#333" stroke-miterlimit="10" stroke-width=".8"/><path d="M241.9 547.8c-5 0-7.8-2-13.8-2-6.8 0-8.8 2-14.4 2-4.4 0-10.2-1.9-11.5-6.7-1 7.3 6.3 10 11.6 10 5.7 0 7.6-1.8 14.5-1.8 6 0 8.8 1.9 13.7 1.9 6.7 0 11.4-5.3 10.3-12.5-.5 5.2-5.3 9-10.4 9z" fill="#000" fill-opacity=".1"/><path d="M270 551.2c-5 0-9.8-3.7-10.4-8.7-1.4-12.8 14.6-14 23.4-14.1 8.8-.2 23.8 1.5 26.5 11.2 2.3 8.5-5.7 11.6-11.3 11.6-5.7 0-7.6-1.9-14.5-1.9-6 0-8.8 1.9-13.8 1.9z" fill="#f7c394" stroke="#333" stroke-miterlimit="10" stroke-width=".8"/><path d="M270.1 547.8c5 0 7.8-2 13.8-2 6.8 0 8.8 2 14.4 2 4.4 0 10.2-1.9 11.5-6.7 1 7.3-6.3 10-11.6 10-5.7 0-7.6-1.8-14.5-1.8-6 0-8.8 1.9-13.7 1.9-6.7 0-11.4-5.3-10.3-12.5.5 5.2 5.3 9 10.4 9z" fill="#000" fill-opacity=".1"/><path d="M194.2 505.3c8.8 0 14.4-10.6 9.1-17.9 2.5-7-2.8-14.8-10.3-15-8.7-.2-13.7 9.1-12.8 17 .8 7.3 5.8 15.9 14 15.9z" fill="#f7c394" stroke="#333" stroke-miterlimit="10" stroke-width=".8"/><path d="M180.2 489.4c1 9 8.4 19.6 19.4 14.5-10.7-1.4-18.1-19.4-12.9-29.7-.8.6-2.1 1.3-4.2 4.2-2 3.4-2.8 7.2-2.3 11zM222.7 325.3c0 11.9 15.3 26.2 33.5 26 16.8 0 33.1-14.3 33.1-26 0-23.5-66.6-23.9-66.6 0z" fill="#000" fill-opacity=".1"/><path d="M222.2 322.6c0 11.8 15.5 26.1 34 26 17-.2 33.6-14.3 33.6-26 0-9.4-19.6-17.6-33.6-17.5-13 .1-34 6.4-34 17.5z" fill="#7a5d43"/><path d="M222.5 320.5a43.2 43.2 0 0 0 33.7 15.5 45.1 45.1 0 0 0 33.2-15.7c.3.8.4 1.5.4 2.3 0 11.6-16.6 25.8-33.6 26-18.5.2-34-14.2-34-26 0-.7 0-1.4.3-2.1z" fill="#000" fill-opacity=".2"/><path d="M115 144.6a392.8 392.8 0 0 0 34 37.3c3.8-14 28.9-32 44.4-38.4a600 600 0 0 1 80.5-21.6c-.2-5.5-5.7-47.8-5.7-47.8s-20.4 3.4-41.7 10.2c-15.3 5-32.3 13.2-37.1 15.4-11.5 5.1-82.7 34.5-74.3 44.9z" fill="#ffdf8f" stroke="#333" stroke-miterlimit="10" stroke-width=".8"/><path d="M257.9 7.5a7.1 7.1 0 0 0-.4 12.8c1.1 12.2 2.8 46.4-13.2 53.8-11.5 5.2-17.2.6-20.6-4.9a7.3 7.3 0 1 0-4.1 1.4c-.4 8.2-3 15.7-12.1 19.9-10.2 4.6-23.5-9.3-31.3-18.3a7 7 0 1 0-3 1.3c2.5 12 3 30.6-6.4 34.9-9 4.1-18.7.5-24.7-3.6a7 7 0 1 0-2.5 1.6c1.3 6.2.3 14.2-9 18.4-12 5.6-22.2-.8-49.7-24a7.3 7.3 0 1 0-2.5 2.7c9.8 10 56.4 63.9 56.4 63.9s14.2-15.8 64.4-38.8c47.4-21.7 72.7-22.7 72.7-22.7l-10-84.9a7.1 7.1 0 1 0-4-13.5zM158.5 136l-8.7-5.6 1.6-10.2 8.6 5.6zm37.4-17.1-8.7-5.6 1.6-10.2 8.6 5.6zm37.5-17.2-8.7-5.6 1.7-10.2 8.6 5.6z" fill="#f7ca4d" stroke="#333" stroke-miterlimit="10" stroke-width=".8"/><path d="M149 181.9c36.9-33 79.6-51.1 125.4-55.6l-1.7-16.5c-49.2 9.2-95.6 30-135.3 60.5l11.6 11.6z" fill="#f7ca4d" stroke="#333" stroke-miterlimit="10" stroke-width=".8"/><path d="M274.4 126.3A216.6 216.6 0 0 0 149 181.9l-11.6-11.6 1.9-1.4 8.3 8.2c37-33 77.9-50.5 123.6-55-.3-3-.6-8.6-1-11.8l2.5-.5 1.7 16.5z" fill="#000" opacity=".1" stroke="#000" stroke-miterlimit="10" stroke-width=".8"/><path d="M135.1 103.2a4.1 4.1 0 1 0 0-8.3 4.1 4.1 0 0 0 0 8.3zM170.3 69.4a4.1 4.1 0 1 0 0-8.3 4.1 4.1 0 0 0 0 8.3zM217.6 65.8a4.1 4.1 0 1 0 0-8.3 4.1 4.1 0 0 0 0 8.3zM259.1 16.6a4.1 4.1 0 1 0 0-8.3 4.1 4.1 0 0 0 0 8.3zM72.7 99.9a4.1 4.1 0 1 0 0-8.3 4.1 4.1 0 0 0 0 8.3z" fill="#ffe8b6"/><path d="M262 21c-2.9 1.2 6.8 80.7 6.8 80.7s-23.8.3-71.3 22c-50.2 23-63 38.6-63 38.6s-50.4-59.8-56-58.8c9.7 10 56.4 63.9 56.4 63.9s14.2-15.8 64.4-38.8C246.7 107 272 106 272 106z" style="opacity:.08;fill:#000;stroke:#000;stroke-width:.775;stroke-linecap:round;stroke-linejoin:round"/><circle cx="281" cy="467.5" fill="#c4c4c4" r="15.5" stroke="#333" stroke-width=".8"/><path d="M296.2 470.6c-1.2-10.7-13.5-19-23.9-16 10.7-7.6 26.5 2 24 16z" fill="#000" fill-opacity=".3"/><path d="M290.7 478.4c-11.4 8.1-27.2-2.7-23.1-16.5-.2 11.5 12.4 20.3 23.1 16.5z" fill="#fff"/><g stroke="#333" stroke-width=".8"><path d="m327.5 505.4 5.8-9c3.7 2.8 11.6 9.5 8.6 13.4s-11-2.6-14.4-4.4z" fill="#1a1a1a"/><path d="M328.9 507c-.8-.3-32.5-17.4-37.7-20.3-.6-.3-1-.8-1.2-1.4l-.5-1.5 9.5-14.6 2.2.1c.6 0 1 .3 1.5.6a3028 3028 0 0 1 32.4 27.3c1.8 2.3-3.3 11-6.2 9.8z" fill="#1a1a1a"/><path d="m272.1 481-1.3-.8a1 1 0 0 1 0-1.7 53.4 53.4 0 0 0 16.4-24.8c.2-.7 1-1 1.5-.6l1.3.9c.5.4.8 1 .6 1.7-3 9.8-8.8 18.6-16.7 25.2-.5.4-1.2.5-1.8.1zM287.9 484.4c-1 0-3.6-.6-3.7-1.7 0-.2 0-.7.4-1 5.7-4 10.3-9.4 11.5-16.4 0-.5.5-1 1-1 1 0 2 1.9 2.3 2.7.3.7.6 1.9.3 2.6a34.3 34.3 0 0 1-10.3 14.3c-.4.4-1 .5-1.5.5z" fill="#fff"/><path d="M313.3 506.3c-9.2-1.7-13-13.9-6-20.5-1.2-7.8 5.8-15 13.7-13.6 9.2 1.4 12.6 12.1 10.1 20.2-2.3 7.5-9.2 15.5-17.8 13.9z" fill="#f7c394" stroke-miterlimit="10"/></g><path d="M331.1 492.4c-2.8 9.2-12.6 18.9-23.1 11.4 11.4.6 22.7-16.8 19.2-28.6.8.8 2 1.8 3.7 5.3 1.3 3.9 1.5 8 .2 11.9z" fill="#000" fill-opacity=".1"/><path d="M256 429.4c42.7 0 88.7-17.4 102.9-58.8 2.3-6.5-3.5-13.2-10.5-12.2a657 657 0 0 1-184.8 0c-7-1-12.8 5.6-10.5 12.2 14.3 41.4 60.3 58.8 103 58.8z" fill="#3d0c0c"/><path d="M345.6 389.4c5.1-6.3 8.7-12.9 10.5-19.5 1.4-5.1-2.3-9.3-7.3-8.6a667 667 0 0 1-185.6 0c-5-.7-8.7 3.5-7.3 8.6a53.5 53.5 0 0 0 10.5 19.5 658.6 658.6 0 0 0 179.2 0z" fill="#fff"/><path d="M256 426.6c30.8 0 64.3-10.2 86-33-57 7.4-115 7.4-172 0 21.9 23 55 33 86 33z" fill="#fff"/><path d="M297.3 420.4c16.6-5 32.5-14.1 44.6-26.8l-12.8 1.5a107.4 107.4 0 0 1-31.8 25.3zM356.1 369.9a53.6 53.6 0 0 1-10.5 19.5l-13.8 1.7a99.7 99.7 0 0 0 14.3-29.5l2.7-.3c5-.7 8.7 3.5 7.3 8.6zM170 393.6c12.2 12.7 28.3 22 45 26.9-13.3-7-23.8-15.8-32-25.4l-13-1.5zM166.4 389.4l13.9 1.7a98.7 98.7 0 0 1-14.3-29.4l-2.8-.4c-5-.7-8.7 3.5-7.3 8.6a53.5 53.5 0 0 0 10.5 19.5z" fill="#000" fill-opacity=".1"/></g></svg>