<svg fill="none" height="620" viewBox="0 0 512 620" width="512" xmlns="http://www.w3.org/2000/svg" xmlns:xlink="http://www.w3.org/1999/xlink"><clipPath id="a"><path d="m0 0h512v620h-512z"/></clipPath><g clip-path="url(#a)"><path d="m298.642 510.049c-7.869-1.15-17.85-5.002-30.513-11.78-1.841-.984-2.583-3.387-1.589-5.245.985-1.84 3.387-2.583 5.245-1.589 11.695 6.258 21.108 9.939 27.978 10.943 4.484.656 7.711.155 9.591-1.494 2.11-1.848 1.921-5.115 1.369-11.22-.647-7.149-1.451-16.048 3.066-26.274 6.819-15.457 23.812-30.153 41.709-27.389 11.366 1.76 22.257 10.259 24.758 21.792 2.128 9.82-.933 23.277-11.397 27.036-6.94 2.479-14.869-.366-20.281-4.972-1.618-1.345-1.852-3.875-.473-5.494 1.364-1.602 3.897-1.804 5.498-.406.067.056 6.768 5.681 12.631 3.575 6.641-2.384 7.715-12.238 6.442-18.101-1.821-8.405-10.168-14.504-18.369-15.774-14.39-2.222-28.024 10.615-33.436 22.86-3.706 8.395-3.032 15.86-2.437 22.446.62 6.795 1.195 13.214-3.979 17.748-4.288 3.781-10.396 4.154-15.813 3.338z" fill="#4cbf4b" stroke="#333" stroke-miterlimit="10" stroke-width=".775"/><path d="m378.008 459.68c1.714 7.908.183 17.755-5.862 23.572 7.968-5.223 10.086-16.671 8.187-25.432-2.5-11.534-13.39-20.033-24.758-21.793-10.27-1.587-20.426 2.876-28.138 9.427 17.688-12.517 45.459-9.356 50.571 14.226z" fill="#000" fill-opacity=".24"/><path d="m367.309 477.122c-4.19 4.874-11.717 2.365-15.948-1.276-.487-.415-1.07-.703-1.695-.838-.626-.136-1.275-.114-1.89.063.616-1.131 1.803-1.896 3.088-1.999 1.024-.082 2.039.246 2.822.913 3.42 3.022 9.275 5.451 13.623 3.137z" fill="#000" fill-opacity=".24"/><path d="m267.47 491.915c.543-.465 2.403-1.395 3.565-.852 1.082.504 2.377 1.144 3.833 1.864 7.66 3.784 19.758 9.761 28.485 9.761 7.75 0 8.447-3.875 7.362-14.105.132.591.298 1.244.475 1.938 1.491 5.852 3.733 14.647-7.837 14.647-12.633 0-32.362-10.939-35.883-13.253z" fill="#000" fill-opacity=".24"/><path d="m191.985 487.785c5.657 0 10.177-5.049 9.616-10.605-.84-9.846 2.886-20.489 10.222-30.75 6.674-9.338 13.828-14.455 8.325-20.49-5.502-6.035-17.912.608-24.087 9.223-10.185 14.247-15.064 29.312-13.737 43.97.495 4.878 4.003 8.652 9.661 8.652z" fill="#4cbf4b" stroke="#333" stroke-miterlimit="10" stroke-width=".775"/><path d="m186.728 474.171c-.064-17.403 13.89-43.038 30.243-50.245-20.15-3.255-37.975 36.192-34.521 54.525 1.118-1.825 3.056-3.608 4.278-4.28z" fill="#000" fill-opacity=".15"/><path d="m249.703 534.209c.775-13.498 4.247-23.937 7.311-32.056s6.574-22.428-6.597-25.733c-18.832-4.725-29.188 39.389-29.961 52.846-.455 7.917 5.707 17.101 13.702 17.56 7.359.358 15.104-4.928 15.545-12.617z" fill="#4cbf4b" stroke="#333" stroke-miterlimit="10" stroke-width=".775"/><path d="m220.27 529.247c7.982-1.085 22.94-1.085 29.217 5.27.052-.478.223-1.851.258-2.331-6.535-5.729-21.415-6.116-29.144-5.032-.041.512-.289 1.571-.331 2.093z" fill="#000" fill-opacity=".14"/><path d="m222.75 515.375c7.403 6.865 16.876 10.715 27.59 12.167.09-.776.28-1.888.387-2.635-10.633-1.376-19.871-5.828-27.28-12.555-.31.93-.561 2.366-.697 3.023z" fill="#000" fill-opacity=".14"/><path d="m262.297 534.209c-.775-13.498-4.247-23.937-7.311-32.056s-6.574-22.428 6.597-25.733c18.832-4.725 29.188 39.389 29.961 52.846.455 7.917-5.707 17.101-13.702 17.56-7.359.358-15.104-4.928-15.545-12.617z" fill="#4cbf4b" stroke="#333" stroke-miterlimit="10" stroke-width=".775"/><path d="m291.73 529.247c-7.982-1.085-22.94-1.085-29.217 5.27-.052-.478-.223-1.851-.258-2.331 6.535-5.729 21.415-6.116 29.144-5.032.041.512.289 1.571.331 2.093z" fill="#000" fill-opacity=".14"/><path d="m289.25 515.375c-7.403 6.865-16.876 10.715-27.59 12.167-.09-.776-.28-1.888-.387-2.635 10.633-1.376 19.871-5.828 27.28-12.555.31.93.561 2.366.697 3.023z" fill="#000" fill-opacity=".14"/><path d="m320.015 487.785c-5.658 0-10.177-5.049-9.617-10.605.841-9.845-2.886-20.489-10.222-30.75-6.674-9.338-13.827-14.455-8.325-20.49 5.503-6.035 17.912.608 24.087 9.223 10.185 14.247 15.065 29.312 13.738 43.97-.495 4.878-4.004 8.652-9.661 8.652z" fill="#4cbf4b" stroke="#333" stroke-miterlimit="10" stroke-width=".775"/><path d="m325.271 474.171c.064-17.403-13.89-43.038-30.242-50.245 20.15-3.255 37.975 36.192 34.52 54.525-1.118-1.825-3.055-3.608-4.278-4.28z" fill="#000" fill-opacity=".15"/><path d="m431.644 283.979c17.22 15.81 10.279 47.94-1.409 66.21-16.656 26.04-54.788 42.431-74.316 28.577-20.395-14.469-17.732-59.972 6.076-83.594 17.775-17.636 51.839-27.542 69.649-11.193z" fill="#f7c394" stroke="#333" stroke-miterlimit="10" stroke-width=".775"/><path d="m411.54 302.594c10.23 10.57 4.666 30.486-3.355 41.522-11.432 15.725-35.987 24.597-47.731 15.168-12.267-9.847-8.896-38.319 6.936-52.263 11.82-10.41 33.579-15.357 44.15-4.427z" fill="#ffc9a1"/><path d="m430.235 350.189c-9.407 14.702-30.241 31.499-53.723 33.591 16.486-3.875 40.303-20.747 47.529-32.041 11.689-18.27 17.881-52.541 1.409-66.21-5.023-4.169-17.783-10.094-35.298-6.994 21.39-6.587 34.532-.95 41.498 5.444 17.214 15.809 10.273 47.94-1.415 66.21z" fill="#000" fill-opacity=".1"/><path d="m80.3569 283.979c-17.2205 15.81-10.2796 47.94 1.4089 66.21 16.6563 26.04 54.7882 42.431 74.3162 28.577 20.395-14.469 17.732-59.972-6.076-83.594-17.775-17.636-51.8396-27.542-69.6491-11.193z" fill="#f7c394" stroke="#333" stroke-miterlimit="10" stroke-width=".775"/><path d="m100.46 302.594c-10.2296 10.57-4.6651 30.486 3.356 41.522 11.431 15.725 35.987 24.597 47.731 15.168 12.267-9.847 8.895-38.319-6.936-52.263-11.821-10.41-33.58-15.357-44.151-4.427z" fill="#ffc9a1"/><path d="m81.7659 350.189c9.4069 14.702 30.2401 31.499 53.7231 33.591-16.486-3.875-40.3028-20.747-47.5293-32.041-11.6885-18.27-17.8809-52.541-1.4089-66.21 5.0232-4.169 17.7832-10.094 35.2982-6.994-21.39-6.587-34.5325-.95-41.4982 5.444-17.2143 15.809-10.2735 47.94 1.4151 66.21z" fill="#000" fill-opacity=".1"/><path d="m256 394.94c23.87 0 34.1 20.925 40.3 38.13s8.99 34.1 8.99 45.26c0 23.56-21.496 47.347-49.29 47.585-27.207.234-49.29-24.025-49.29-47.585 0-11.16 2.743-28.133 8.99-45.26 6.2-17.205 16.43-38.13 40.3-38.13z" fill="#4cbf4b" stroke="#333" stroke-miterlimit="10" stroke-width=".775"/><path d="m256 525.915c-27.229.248-51.15-24.335-49.29-52.235 1.55 22.94 22.498 44.715 49.29 44.485 26.792-.229 47.74-21.545 49.29-44.485 1.86 27.9-22.061 51.988-49.29 52.235z" fill="#000" fill-opacity=".15"/><path d="m256 414.16c16.12 0 24.8 10.54 26.97 19.84 5.346 22.913 9.92 42.47.62 54.25s-20.918 12.71-27.59 12.71c-7.371 0-18.29-.93-27.59-12.71s-5.028-30.043.62-54.25c2.17-9.3 10.85-19.84 26.97-19.84z" fill="#f7c394" stroke="#333" stroke-miterlimit="10" stroke-width=".775"/><path d="m256 500.96c-21.08 0-34.72-14.57-33.015-33.48.62 17.825 14.88 29.45 33.015 29.45s32.395-11.625 33.015-29.45c1.705 18.91-11.935 33.48-33.015 33.48z" fill="#000" fill-opacity=".1"/><path d="m317.225 436.789c-17.878 7.009-42.005 12.245-61.225 12.245s-40.197-4.097-61.225-12.245c-1.122 1.634-2.575 4.073-3.565 5.735 22.01 8.835 42.625 13.33 64.79 13.33s42.78-4.495 64.79-13.33c-.954-1.658-2.468-4.085-3.565-5.735z" fill="#000" fill-opacity=".15"/><path d="m333.55 130.045c6.559-5.557-19.27-11.78-22.711-21.621-4.154-11.8595 61.317 19.7 51.394 40.467-.775 1.629-8.592 14.57-64.73-3.684 61.715 20.023 108.447 62.483 108.227 141.077-.169 60.257-54.261 153.576-149.796 154.408-92.167.805-149.83-92.414-149.664-154.408.205-75.708 66.98-153.595 149.73-159.417 49.509-3.48 72.12 7.766 77.55 3.178z" fill="#4cbf4b" stroke="#333" stroke-linecap="round" stroke-linejoin="round" stroke-width=".775"/><path d="m343.6 133.507c-4.597 10.1-32.831-6.2-82.339-2.719-101.287 7.121-174.6758 119.536-134.01 210.658 10.562-10.909 23.427-14.009 27.526-15.37 1.231 1.328 2.729 2.739 3.263 3.376-12.611 3.929-27.269 12.463-33.577 24.31-11.822-22.878-18.135-46.897-18.072-67.476.205-75.71 66.994-153.605 149.744-159.428 49.509-3.48 72.007 7.765 77.437 3.171 6.537-5.541-19.292-11.765-22.731-21.606-1.329-3.791 4.467-3.141 12.64.176-3.1-.447-4.805.283-3.96 2.459 3.004 7.811 27.946 13.954 24.079 22.449z" fill="#000" fill-opacity=".14"/><path d="m405.498 286.295c-.056 19.8-5.909 43.169-17.134 65.654-11.619-15.91-32.431-22.265-34.559-22.265.62-.775 2.48-3.053 3.1-3.797 3.643.852 19.936 4.326 29.029 16.461 9.191-20.483 13.41-39.55 13.46-57.483.228-81.257-54.811-121.651-101.891-139.658 61.715 20.022 108.215 62.492 107.995 141.088z" fill="#000" fill-opacity=".14"/><path d="m213.375 186.542c-46.035 0-103.075 97.417-56.342 142.367-89.2028 27.9 0 120.745 98.967 120.745 98.968 0 188.17-92.845 98.968-120.745 46.732-44.95-10.308-142.367-56.343-142.367-19.607 0-30.303 9.067-42.625 18.057-12.322-8.99-23.017-18.057-42.625-18.057z" fill="#ffcd98" stroke="#333" stroke-width=".775"/><path d="m372.111 281.634c-2.434-47.823-41.075-95.044-74.633-95.044-20.863 0-33.511 12.732-41.478 18.009-6.37-4.347-20.537-18.009-41.602-18.009-39.618 0-74.105 57.844-74.73 96.52-3.483-41.621 28.458-104.086 74.947-104.086 24.18 0 37.045 11.625 41.385 16.43 4.34-4.805 17.205-16.43 41.385-16.43 46.132 0 78.043 59.133 74.726 102.61z" fill="#000" fill-opacity=".14"/><path d="m124.033 351.333c-21.068 38.016 51.819 98.244 131.967 98.244s153.942-60.892 131.712-98.868c14.78 34.736-55.651 93.055-131.712 93.055-75.607 0-145.651-57.625-131.967-92.431z" fill="#000" fill-opacity=".1"/><path d="m139.808 280.145c-1.103 18.204 3.723 35.652 17.275 48.687-1.616.506-3.174 1.187-4.674 1.735 3.461-1.115 6.768-1.904 10.591-2.587-13.104-12.604-20.687-29.724-23.192-47.835z" fill="#000" fill-opacity=".1"/><path d="m359.928 330.615c-3.374-.994-6.913-1.918-10.928-2.635 13.225-12.721 20.827-30.041 23.261-48.338 1.222 18.386-3.566 36.035-17.243 49.19 1.754.549 3.292 1.185 4.91 1.783z" fill="#000" fill-opacity=".1"/><path d="m218.748 217.474c24.008 2.79 41.304 32.357 38.75 58.4-2.539 25.937-25.217 53.01-51.132 50.065-23.529-2.682-38.79-28.864-39.292-50.865-.668-29.475 24.93-60.709 51.674-57.6z" fill="#fff"/><path d="m247.898 282.91c3.427-17.663-6.122-34.374-21.327-37.324-15.206-2.95-30.311 8.977-33.738 26.64s6.122 34.373 21.328 37.323c15.205 2.951 30.31-8.977 33.737-26.639z" fill="#6e6efa" stroke="#333" stroke-miterlimit="10" stroke-width=".775"/><path d="m222.087 300.942c9.068 0 16.42-8.221 16.42-18.361 0-10.141-7.352-18.362-16.42-18.362-9.069 0-16.421 8.221-16.421 18.362 0 10.14 7.352 18.361 16.421 18.361z" fill="#000"/><path d="m236.609 269.748c1.154-3.263-.685-6.89-4.108-8.102-3.423-1.211-7.134.452-8.289 3.714-1.155 3.263.684 6.89 4.108 8.101 3.423 1.212 7.134-.451 8.289-3.713z" fill="#fff" stroke="#333" stroke-miterlimit="10" stroke-width=".775"/><path d="m230.563 221.185c-31.679-8.664-58.044 28.869-57.398 57.042.383 16.623 9.201 35.617 23.669 45.205-18.042-7.561-29.326-29.501-29.76-48.36-.671-29.467 24.927-60.696 51.671-57.59 4.134.494 8.141 1.75 11.818 3.703z" fill="#000" fill-opacity=".05"/><path d="m234.862 248.859c-17.492-4.971-32.976 10.121-36.139 26.418-2.596 13.384 2.181 26.229 11.215 33.069-12.692-4.96-20.186-20.139-17.089-36.098 3.429-17.67 18.535-29.588 33.74-26.637 2.933.57 5.736 1.67 8.273 3.248z" fill="#000" fill-opacity=".15"/><path d="m292.27 216.832c-23.954 3.205-40.733 33.07-37.727 59.067 2.991 25.885 26.138 52.56 51.998 49.155 23.478-3.091 38.285-29.535 38.398-51.541.152-29.474-25.987-60.253-52.669-56.681z" fill="#fff"/><path d="m298.429 308.867c15.152-3.215 24.408-20.089 20.673-37.69-3.735-17.6-19.045-29.262-34.197-26.047-15.152 3.216-24.407 20.09-20.673 37.69 3.735 17.601 19.046 29.262 34.197 26.047z" fill="#6e6efa" stroke="#333" stroke-miterlimit="10" stroke-width=".775"/><path d="m290.385 300.345c9.068-.159 16.275-8.506 16.098-18.645s-7.671-18.231-16.739-18.072c-9.067.158-16.274 8.506-16.097 18.645s7.671 18.23 16.738 18.072z" fill="#000"/><path d="m300.693 273.481c3.401-1.271 5.177-4.93 3.965-8.172-1.211-3.242-4.951-4.84-8.353-3.569-3.401 1.272-5.177 4.93-3.965 8.172 1.211 3.242 4.951 4.84 8.353 3.569z" fill="#fff" stroke="#333" stroke-miterlimit="10" stroke-width=".775"/><path d="m344.934 273.513c-.102 19.107-11.276 41.561-29.586 49.168 14.77-9.551 23.572-29.152 23.662-46.12.149-28.456-28.069-66.843-59.822-55.053 4.03-2.418 8.415-4.052 13.077-4.676 26.687-3.572 52.826 27.207 52.669 56.681z" fill="#000" fill-opacity=".05"/><path d="m301.739 307.893c9.433-6.766 14.353-20.006 11.45-33.682-3.472-16.358-19.605-31.218-37.005-25.373 2.639-1.804 5.606-3.073 8.733-3.737 15.153-3.217 30.463 8.444 34.2 26.04 3.457 16.29-4.209 31.956-17.378 36.752z" fill="#000" fill-opacity=".15"/><path d="m242.05 551.18c4.96 0 9.779-3.657 10.338-8.701 1.412-12.744-14.624-13.902-23.353-14.093-8.851-.194-23.875 1.482-26.508 11.201-2.301 8.493 5.655 11.593 11.313 11.593 5.657 0 7.595-1.883 14.412-1.883 5.954 0 8.838 1.883 13.798 1.883z" fill="#f7c394" stroke="#333" stroke-miterlimit="10" stroke-width=".775"/><path d="m241.895 547.77c-4.96 0-7.844-1.883-13.798-1.883-6.817 0-8.755 1.883-14.412 1.883-4.4 0-10.192-1.875-11.466-6.705-1.042 7.378 6.305 10.115 11.621 10.115 5.657 0 7.595-1.883 14.412-1.883 5.954 0 8.838 1.883 13.798 1.883 6.644 0 11.315-5.293 10.216-12.44-.46 5.186-5.276 9.03-10.371 9.03z" fill="#000" fill-opacity=".1"/><path d="m269.95 551.18c-4.96 0-9.779-3.657-10.338-8.701-1.412-12.744 14.624-13.902 23.353-14.093 8.851-.194 23.875 1.482 26.508 11.201 2.301 8.493-5.656 11.593-11.313 11.593-5.658 0-7.595-1.883-14.413-1.883-5.953 0-8.837 1.883-13.797 1.883z" fill="#f7c394" stroke="#333" stroke-miterlimit="10" stroke-width=".775"/><path d="m270.105 547.77c4.96 0 7.844-1.883 13.797-1.883 6.818 0 8.755 1.883 14.413 1.883 4.4 0 10.191-1.875 11.465-6.705 1.043 7.378-6.304 10.115-11.62 10.115-5.658 0-7.595-1.883-14.413-1.883-5.953 0-8.837 1.883-13.797 1.883-6.644 0-11.315-5.293-10.216-12.44.46 5.186 5.275 9.03 10.371 9.03z" fill="#000" fill-opacity=".1"/><path d="m194.217 505.283c8.806.007 14.413-10.557 9.081-17.867 2.467-7.008-2.803-14.786-10.332-14.966-8.68-.207-13.697 9.068-12.788 16.916.85 7.333 5.817 15.91 14.039 15.917z" fill="#f7c394" stroke="#333" stroke-miterlimit="10" stroke-width=".775"/><path d="m180.178 489.366c1.052 9.077 8.428 19.654 19.433 14.539-10.668-1.365-18.135-19.453-12.883-29.735-.835.595-2.152 1.292-4.277 4.28-1.905 3.367-2.743 7.16-2.273 10.916z" fill="#000" fill-opacity=".1"/><path d="m222.675 325.346c0 11.834 15.322 26.195 33.52 26.04 16.774-.148 33.13-14.346 33.13-26.006 0-23.58-66.65-23.936-66.65-.034z" fill="#000" fill-opacity=".1"/><path d="m222.21 322.555c0 11.835 15.536 26.195 33.987 26.04 17.009-.147 33.593-14.345 33.593-26.005 0-9.383-19.567-17.635-33.593-17.515-13.023.12-33.987 6.379-33.987 17.48z" fill="#7a5d43"/><path d="m222.455 320.505c6.472 8.486 19.325 15.646 33.767 15.534 13.362-.106 26.492-7.304 33.184-15.74.251.753.384 1.518.384 2.29 0 11.661-16.584 25.859-33.593 26.006-18.451.155-33.987-14.205-33.987-26.04 0-.703.084-1.386.245-2.05z" fill="#000" fill-opacity=".2"/><path d="m256.063 429.426c42.625 0 88.66-17.437 102.804-58.813 2.364-6.556-3.424-13.172-10.455-12.172-30.616 4.35-61.502 6.534-92.426 6.533-30.925 0-61.811-2.183-92.428-6.533-7.025-.999-12.734 5.582-10.456 12.172 14.301 41.376 60.336 58.813 102.961 58.813z" fill="#3d0c0c"/><path d="m256.063 426.559c23.271.04 48.057-5.805 68.125-18.523-41.683 2.713-97.948 3.565-136.078.22 20.026 12.608 44.592 18.263 67.953 18.303z" fill="#fff"/><path d="m297.286 420.359c9.435-2.837 18.584-7.051 26.902-12.323-2.922.19-5.914.371-8.967.542-5.306 4.277-11.263 8.238-17.935 11.781z" fill="#000" fill-opacity=".1"/><path d="m400.619 433.105c-27.207-5.306-69.212-16.621-90.29-31.3-5.969-4.156-6.001-16.366 6.152-17.372 40.656-3.367 74.136-1.429 99.401-.034 13.216 17.796 19.005 54.298-15.263 48.706z" fill="#b34a31"/><path d="m381.937 382.888-1.007-.039c-8.059 12.614-11.56 28.562-9.688 43.4.275.08.543.155.853.232-1.947-14.918 1.633-30.965 9.842-43.593z" fill="#933b2a"/><path d="m351.867 382.694c-7.412 9.442-11.628 21.619-11.857 33.635.155.077.518.215.775.31.174-12.147 4.57-24.484 12.167-33.945z" fill="#933b2a"/><path d="m328.806 383.588c-4.913 7.379-7.825 15.166-8.791 23.983.246.117.519.27.775.388.937-8.978 3.908-16.959 8.99-24.413z" fill="#933b2a"/><path d="m351.712 384.244c-13.892 1.574-29.449 3.132-43.4 4.03.465-.697 1.737-1.765 2.635-2.247 13.332-.894 28.642-3.828 42.005-3.333-.082.102-.979 1.163-1.24 1.55z" fill="#000" fill-opacity=".2"/><path d="m309.864 394.675c21.078 14.679 63.083 25.994 90.29 31.299 18.333 2.992 25.201-6.064 25.601-17.858 2.304 14.942-3.234 28.563-25.136 24.988-27.207-5.305-69.212-16.62-90.29-31.299-3.244-2.259-4.735-6.896-3.469-10.821.672 1.482 1.695 2.78 3.004 3.691z" fill="#000" fill-opacity=".2"/><path d="m401.39 433.766c-4.09-.69-10.737-1.209-11.271-6.182-.115-1.076.934-2.063.809-3.21-.288-2.665-3.866-2.426-4.501-4.956-.549-2.217 2.378-3.067 2.339-5.989-.047-3.52-4.162-4.583-3.843-7.672.22-2.149 2.267-2.195 2.763-4.742.618-3.171-1.528-4.365-.609-5.858 1.181-1.93 4.571-1.452 5.941-3.501 1.056-1.58 1.417-2.44 2.304-4.632 2.543-6.276 20.122-2.28 24.048-.998 2.048 17.134-13.509 31.976-17.98 47.74z" fill="#eaeaea"/><path d="m405.265 434.774c-3.953 0-14.183-.698-13.479-8.072.47-4.93-2.353-5.46-2.989-7.99-.549-2.217.726-2.127.688-5.048-.047-3.52-2.597-4.73-2.278-7.819.22-2.148 1.857-1.913 2.353-4.46.619-3.171-.868-4.486.05-5.98 1.181-1.929 3.576-.487 5.295-2.253 1.764-1.814 1.907-3.886 2.795-6.078.954-2.355 2.761-1.798 6.015-2.365 1.776-.31 3.623-1.418 5.502-1.395 2.635.032 7.66.19 10.148 1.002 2.048 17.134-9.629 34.693-14.1 50.458z" fill="#d6d6d6"/><path d="m408.52 436.092c-5.848-.988-15.481-1.597-15.113-9.068.148-2.99-2.185-5.316-2.821-7.846-.549-2.217.984-2.206.957-4.24-.047-3.519-2.547-4.827-2.229-7.916.221-2.148 1.711-2.109 2.207-4.656.618-3.171-.232-4.045.687-5.539 1.181-1.929 5.218-2.913 6.937-4.679 1.764-1.814.657-2.734 1.545-4.926.847-2.091 3.593-1.084 5.931-1.928 2.161-.78 5.391-1.722 7.789-1.67 2.792.061 8.931.487 10.695 1.86 2.048 17.134-12.114 34.843-16.585 50.608z" fill="#c1c1c1"/><path d="m442.93 421.134c6.975-19.453-4.805-37.355-23.328-37.355-2.325 0-2.6 1.073-4.495 1.411-2.434.431-3.952-1.024-5.657.681-1.859 1.859-4.046.782-6.034 2.346-1.004.797-1.036 2.853-2.345 4.632-1.16 1.577-3.025.681-3.69 1.791-.832 1.382.801 2.9-.515 3.851-3.703 2.674-4.267 4.414-3.067 8.017.464 1.392-.845 2.77-1.079 4.073-.289 1.632.585 2.888.913 4.924.421 2.611-1.349 3.163-.498 4.948.555 1.176 1.916 2.377 2.18 4.093.262 1.703-.668 2.943 0 4.415 5.4 11.902 40.64 11.625 47.615-7.827z" fill="#181818"/><path d="m403.337 435.253c-3.764-.708-7.309-1.783-10.592-3.767-26.9-5.802-63.281-16.355-82.416-29.681-5.969-4.156-6.001-16.366 6.152-17.372 33.679-2.789 62.434-1.938 85.674-.771 1.519-.116 3.17-.085 4.835.041 3.941-1.221 8.564.076 12.612.076 18.523 0 30.303 17.902 23.328 37.355-5.332 14.871-27.183 18.535-39.593 14.119z" stroke="#333" stroke-width=".775"/><path d="m350.356 382.771c2.625-4.214 4.576-8.545 5.766-12.91 1.38-5.063-2.277-9.306-7.291-8.594-61.436 8.601-124.223 8.71-185.658.001-5.022-.707-8.676 3.53-7.297 8.593 1.189 4.365 3.138 8.697 5.764 12.91 43.52 5.968 131.482 7.828 188.716 0z" fill="#fff"/><path d="m161.64 382.772c4.332.594 9.104 1.148 14.242 1.655-4.347-7.307-7.587-14.97-9.905-22.766-1.486-.204-3.029-.574-4.537-.441-4.089.365-6.779 4.183-5.564 8.642 1.189 4.365 3.138 8.697 5.764 12.91z" fill="#000" fill-opacity=".1"/><path d="m197.332 408.962c5.251 4.186 11.142 8.061 17.734 11.521-9.449-2.804-18.619-6.978-26.956-12.227 2.969.26 6.048.495 9.222.706z" fill="#000" fill-opacity=".1"/><path d="m336.17 384.457c4.898-.502 9.639-1.063 14.186-1.685 2.625-4.214 4.576-8.545 5.766-12.91 1.367-5.017-2.21-9.227-7.153-8.613-.958.119-1.913.265-2.869.398-2.331 7.81-5.58 15.487-9.93 22.81z" fill="#000" fill-opacity=".1"/><g fill="#b5482c"><path d="m415.751 430.12c1.095-.264 1.571-.023 1.789-.354.217-.33-.04-.997-.482-1.318-1.189-.874-5.474 1.476-4.505 2.539.376.481 2.674-.741 3.198-.867z"/><path d="m413.113 410.547c.85-.737 1.384-.743 1.425-1.136s-.495-.868-1.036-.949c-1.457-.229-4.178 3.828-2.829 4.326.556.254 2.032-1.888 2.44-2.241z"/><path d="m420.985 391.048c-1.088-.291-2.687-1.704-3.035-1.517-.349.187-.156 1.742.079 2.235.627 1.334 6.454 1.357 6.111-.039-.101-.602-2.634-.54-3.155-.679z"/><path d="m424.737 428.516c.573.967.484 1.494.864 1.604s1.933-2.077 2.11-2.594c.486-1.392-4.014-3.047-4.746-1.809-.349.501 1.497 2.335 1.772 2.799z"/><path d="m427.604 415.78c1.121-.096 1.556.213 1.821-.081.264-.294.041-1.571-.348-1.955-1.044-1.042-6.19.998-5.392 2.194.3.532 3.381-.112 3.919-.158z"/><path d="m424.451 407.479c3.896.557 11.026-3.075 4.334-3.837-1.465-.167-5.272-1.425-5.632 2.274-.093.962.764 1.487 1.298 1.563z"/><path d="m405.778 422.86c-2.07.498-4.869 1.912-1.847 4.104 1.189.873 5.997-3.575 5.029-4.638-.377-.481-2.657.408-3.182.534z"/><path d="m401.166 416.033c-.755-.835-.772-1.368-1.166-1.401-.394-.032-.858.512-.928 1.054-.199 1.461 3.916 4.096 4.387 2.738.243-.561-1.931-1.992-2.293-2.391z"/><path d="m403.2 401.102c.555.143 2.969-1.214 2.854-1.822-.187-1.006-3.298-.716-3.71.189-.267.597.228 1.467.856 1.633z"/><path d="m437.902 413.164c.555.143 2.969-1.215 2.854-1.823-.187-1.006-3.298-.715-3.71.19-.267.597.228 1.467.856 1.633z"/><path d="m430.457 394.862c.555.143 4.964.086 4.849-.522-.187-1.006-5.779-3.1-6.19-2.196-.267.597.713 2.552 1.341 2.718z"/><path d="m434.537 400.403c.168.547 5.212 5.446 5.67 5.029.761-.685-3.738-6.735-4.725-6.612-.648.085-1.132.961-.945 1.583z"/><path d="m412.319 403.387c.557.133 7.339-1.733 7.212-2.338-.207-1.002-7.706-.19-8.1.722-.255.602.257 1.462.888 1.616z"/><path d="m408.85 394.409c1.607-.943 4.276-.776 4.161-1.385-.187-1.005-5.687.092-5.903 1.062-.32 1.436 1.123.686 1.742.323z"/><path d="m405.807 409.989c.654-1.617.951-2.388.592-2.985-4.675-4.345-3.323 9.729-.592 2.985z"/><path d="m432.964 426.097c.384.798.775-1.592 1.205-2.613.269-.638 1.911-2.241 1.599-2.677-1.658-2.321-3.503 3.834-2.804 5.29z"/><path d="m415.175 420.624c.555.143 2.969-.292 2.854-.9-.187-1.006-2.854-3.229-3.709-.733-.267.597.228 1.467.855 1.633z"/><path d="m419.531 415.244c.554.143 1.569-4.089 1.454-4.697-.187-1.006-2.289 1.855-2.7 2.759-.267.597.618 1.772 1.246 1.938z"/></g><path d="m317.783 505.283c-8.807.007-14.413-10.557-9.082-17.867-2.467-7.008 2.803-14.786 10.332-14.966 8.681-.207 13.697 9.068 12.788 16.916-.849 7.333-5.816 15.91-14.038 15.917z" fill="#f7c394" stroke="#333" stroke-miterlimit="10" stroke-width=".775"/><path d="m331.821 489.366c-1.051 9.077-8.427 19.654-19.432 14.539 10.667-1.365 18.135-19.453 12.882-29.735.835.595 2.153 1.292 4.278 4.28 1.905 3.367 2.743 7.16 2.272 10.916z" fill="#000" fill-opacity=".1"/><path d="m258.247 541.027c-.232-4.882-.232-9.997 2.325-12.942-.62-.62.105-1.438.698-1.24 4.572 1.524 16.662 1.472 28.055-2.015 18.522 13.097 31.465 12.71 34.1 15.035 2.837 2.503-64.945 6.045-65.178 1.162z" fill="#5050d8" stroke="#333" stroke-width=".775"/><path d="m289.558 522.04c2.48-1.085 9.455 3.72 8.912 5.502-1.395 1.86-12.923.423-11.005-1.24 2.325-2.015 1.24-3.889 2.093-4.262z" fill="#3b3bbc" stroke="#333" stroke-width=".775"/><path d="m293.122 524.984c4.639 2.245 18.336 8.924 15.966 10.618-6.511 4.65-24.072-5.337-24.568-6.743-.465-1.317 1.504-2.284 2.868-3.022 1.504-.815 3.332-2.015 5.734-.853z" fill="#3b3bbc" stroke="#333" stroke-width=".775"/><path d="m257.971 549.176c-.111-1.965-.233-5.004-.033-6.599 14.802 2.48 56.885 2.093 66.65-2.402 1.395.852 2.635 4.262 1.782 6.974-8.394 7.632-56.47 4.706-66.46 4.008-1.065-.074-1.878-.915-1.939-1.981z" fill="#e6e6e6" stroke="#333" stroke-width=".775"/><path d="m258.147 542.612c.019 1.213.078 2.475.134 3.464.061 1.066.874 1.907 1.939 1.982 9.949.694 57.668 3.599 66.354-3.914.138.993.099 2.043-.204 3.006-8.394 7.631-56.47 4.705-66.46 4.008-1.065-.075-1.878-.916-1.939-1.982-.111-1.965-.233-5.003-.033-6.599.069.012.139.023.209.035z" fill="#000" fill-opacity=".15"/><path d="m258.325 541.259c-.542.078-.852.776-.387 1.318 14.802 2.48 56.885 2.093 66.65-2.402.232-.543-.388-1.346-1.008-1.163-16.507 4.883-52.777 3.41-65.255 2.247z" fill="#999" stroke="#333" stroke-width=".775"/><path d="m253.754 541.027c.232-4.882.232-9.997-2.325-12.942.62-.62-.105-1.438-.698-1.24-4.572 1.524-16.662 1.472-28.055-2.015-18.522 13.097-31.465 12.71-34.1 15.035-2.837 2.503 64.945 6.045 65.178 1.162z" fill="#5050d8" stroke="#333" stroke-width=".775"/><path d="m222.444 522.04c-2.48-1.085-9.455 3.72-8.913 5.502 1.395 1.86 12.923.423 11.005-1.24-2.325-2.015-1.24-3.889-2.092-4.262z" fill="#3b3bbc" stroke="#333" stroke-width=".775"/><path d="m218.879 524.984c-4.639 2.245-18.336 8.924-15.966 10.618 6.511 4.65 24.072-5.337 24.568-6.743.465-1.317-1.504-2.284-2.867-3.022-1.505-.815-3.333-2.015-5.735-.853z" fill="#3b3bbc" stroke="#333" stroke-width=".775"/><path d="m254.03 549.176c.112-1.965.233-5.004.034-6.599-14.803 2.48-56.885 2.093-66.65-2.402-1.395.852-2.635 4.262-1.783 6.974 8.394 7.632 56.47 4.706 66.46 4.008 1.065-.074 1.878-.915 1.939-1.981z" fill="#e6e6e6" stroke="#333" stroke-width=".775"/><path clip-rule="evenodd" d="m253.854 542.611c-.019 1.213-.078 2.475-.134 3.464-.061 1.066-.874 1.907-1.939 1.982-9.949.694-57.668 3.599-66.354-3.914-.138.993-.099 2.043.204 3.006 8.394 7.631 56.47 4.705 66.46 4.008 1.065-.075 1.878-.916 1.939-1.982.112-1.965.233-5.003.034-6.599-.07.012-.14.023-.21.035z" fill="#000" fill-opacity=".15" fill-rule="evenodd"/><path d="m253.676 541.259c.543.078.853.776.388 1.318-14.803 2.48-56.885 2.093-66.65-2.402-.233-.543.387-1.346 1.007-1.163 16.508 4.883 52.778 3.41 65.255 2.247z" fill="#999" stroke="#333" stroke-width=".775"/><path d="m384.805 207.234c-59.287 24.102-172.902 10.85-223.2-38.285 76.135-68.905 169.023-43.798 223.2 38.285z" fill="#000" fill-opacity=".15"/><path d="m287.31 141.902c75.493 11.016 128.298-10.444 128.298 19.207 0 53.734-88.385 53.643-132.852 49.41-44.466-4.233-132.863-31.727-132.863-79.061 0-44.5038 61.924-.572 137.417 10.444z" fill="#232323" stroke="#333" stroke-miterlimit="10" stroke-width=".775"/><path d="m391.935 69.749c5.004 29.3299-17.36 41.773-24.789 98.228-2.841 21.587-69.476 14.998-90.291 11.839-17.832-2.704-82.797-12.4-80.22-36.442 6.835-63.7824-6.292-73.6184 6.835-96.3945 10.06-17.453 49.275-15.9029 101.588-8.6179 52.312 7.285 84.087 15.0349 86.877 31.3874z" fill="#1a1a1a" stroke="#333" stroke-miterlimit="10" stroke-width=".775"/><path d="m372.607 140.513c-18.641 11.84-73.606 7.779-92.793 4.705-15.593-2.497-64.262-14.181-81.168-31.086-.213 8.297-.798 17.919-2.011 29.242-2.561 23.893 61.581 33.617 79.881 36.391l.339.051c20.815 3.159 87.45 9.748 90.291-11.839 1.39-10.562 3.303-19.584 5.461-27.464z" fill="#4d4d4d" stroke="#333" stroke-miterlimit="10" stroke-width=".775"/><path d="m362.538 66.3737c-1.672-10.9818-13.755-18.5012-34.429-24.521 38.509 6.4346 61.473 14.1068 63.826 27.8963 2.534 14.8526-1.95 25.3746-7.959 39.475-5.857 13.743-13.163 30.887-16.83 58.753-1.266 9.619-15.199 13.644-32.1 14.87 1.479-1.837 2.418-3.96 2.706-6.407 7.428-63.259 29.789-77.2016 24.786-110.0663z" fill="#000" fill-opacity=".3"/></g></svg>