<svg xmlns="http://www.w3.org/2000/svg" xmlns:xlink="http://www.w3.org/1999/xlink" width="4000" height="4000"><style><![CDATA[.B{fill-rule:nonzero}.C{stroke-width:5}.D{fill:#000}.E{stroke:#333}.F{opacity:.08}.G{fill:#333}.H{fill:#7F6145}.I{fill:#F7C394}.J{opacity:.05}.K{opacity:.1}.L{opacity:.2}.M{stroke-linejoin:round}.N{stroke:#E5C89E}.O{stroke-width:1.75}]]></style><g fill="none"><path d="M0 0h4000v4000H0z" fill="#FBDD11"/><g class="C E"><path d="M2304.7 3292.9c-9.9 0-19.8-.8-29.6-2.3-50.8-7.4-115.2-32.3-196.9-76-12.2-6.5-16.8-21.7-10.2-33.8s21.7-16.8 33.8-10.2c75.4 40.4 136.2 64.1 180.5 70.6 28.9 4.2 49.8 1 61.9-9.6 13.6-11.9 12.4-33 8.8-72.4-4.2-46.1-9.4-103.5 19.8-169.5 22.1-50 60.8-97.6 106.3-130.7 24.7-17.9 50.5-31.1 76.7-39.1 29.1-8.9 58.1-11.2 86.1-6.9 34.6 5.4 69.2 20.9 97.6 43.7 32.6 26.2 54.1 59.7 62.1 96.9 6.6 30.4 4.8 66.5-4.7 96.6-12.3 38.6-36.7 66.3-68.8 77.8-11.2 4-23.1 6-35 6-49.4 0-90.4-33.4-95.8-38.1-10.6-8.8-12.1-24.6-3.3-35.2s24.6-12.1 35.2-3.3c.2.1.3.3.5.4.4.4 43.7 36.6 81.5 23.1 21.9-7.9 32.8-29.3 38.1-45.9 6.9-21.8 8.2-49 3.5-70.9-7.1-32.6-28.2-55.3-44.6-68.5-21.3-17.2-48.3-29.3-73.9-33.3-28.1-4.3-72.7-1.4-125.7 37.1-38.6 28.1-71.4 68.3-90 110.4-23.9 54.2-19.6 102.3-15.7 144.8 4 43.8 7.7 85.2-25.7 114.5-18.1 15.9-42.4 23.8-72.5 23.8zM1580 3154.5c-34.4 0-62.4-27.8-62.5-62.3-.3-95.4 34-193.1 99.3-282.6 56-76.8 132.1-142.1 208.6-179.1 31.1-15 68.5-2 83.5 29.1s2 68.5-29.1 83.5c-58.7 28.4-117.7 79.5-162 140.2-34.5 47.4-75.6 122-75.3 208.5.1 16.6-6.5 32.5-18.1 44.3s-27.6 18.4-44.1 18.5l-.3-.1z" class="B H"/><path d="M1601 3260.2c-8.6 0-17.2-1.6-25.3-4.6-21.2-7.9-38.2-24.2-50.7-48.5a150.71 150.71 0 0 1-15.1-48.1c-2.1-14.6-1.4-29.5 2.1-43.8 5.6-22 17.9-40.4 35.8-53.2 25.5-18.3 59.9-18 85.2.6s35.7 51.4 25.8 81.2c24.2 31.9 17.9 77.4-14.1 101.6-12.6 9.6-27.9 14.7-43.7 14.8z" class="I"/><path d="M1864.5 3526.2c-1.3 0-2.6 0-3.9-.1-52.4-2.1-93.2-46.3-91.1-98.7 4.6-116.2 33.5-197 54.6-256 6.3-17.6 11.7-32.8 15.7-46.4a95.26 95.26 0 0 1 68.4-66.4c33-8.3 68 1.9 91.6 26.5s32.2 60 22.5 92.6c-5.6 19.2-12.2 37.9-19.3 57.6-18.8 52.7-40.2 112.4-43.7 199.6-2 51.1-43.8 91.3-94.8 91.3z" class="H"/><path d="M1910 3556.6c-7.2 0-14.4-1.2-21.3-3.4-27.7-9.2-93.8-15.5-147.7.2-35.8 10.4-73.3-10.1-83.7-45.9s10.1-73.3 45.9-83.7c46.2-13.5 92.3-15.5 122.8-14.8 39.2.9 76.6 6.6 105.2 16.1 31.4 10.4 50.7 42.1 45.4 74.8s-33.4 56.7-66.6 56.7z" class="I"/><path d="M2135.4 3528.1c-50.3 0-91.9-39.3-94.8-89.6-5-87.1-27.4-146.4-47.2-198.8-7.4-19.6-14.4-38.1-20.3-57.3-15.4-50.1 12.7-103.3 62.8-118.8s103.3 12.7 118.8 62.8c4.1 13.5 9.9 28.6 16.5 46.1 22.1 58.6 52.4 138.9 59.1 255 1.4 25.2-7.2 49.9-23.9 68.7-16.8 18.8-40.3 30.2-65.5 31.6a50.68 50.68 0 0 1-5.5.3z" class="H"/><path d="M2090 3556.6c-33.17.03-61.446-24.048-66.7-56.8-5.3-32.8 14-64.5 45.5-74.9 28.6-9.5 66-15.2 105.2-16.1 30.5-.7 76.6 1.4 122.8 14.8 35.8 10.4 56.4 47.9 45.9 83.7s-47.9 56.4-83.7 45.9c-53.9-15.7-120-9.4-147.7-.2-6.9 2.4-14 3.6-21.3 3.6z" class="I"/><path d="M2411.4 3137.4c-17.7 0-34.5-7.5-46.4-20.6s-17.6-30.6-15.8-48.2c5.4-53.5-18.6-122.2-65.9-188.4-44.7-62.6-107-117.4-162.4-143-31.5-14.1-45.5-51.1-31.4-82.6 4.6-10.3 11.9-19.1 21.2-25.6 18.4-12.9 42.3-14.9 62.7-5.3 37.5 17.3 76.8 43.5 113.7 75.6 36.7 32.2 69.6 68.5 98.1 108.1 65.7 91.9 97.2 189.1 88.6 273.7-3.5 32-30.3 56.2-62.4 56.3z" class="H"/><path d="M2396.8 3259.9c-27.3 0-52.3-15.3-64.6-39.7s-10-53.6 6.1-75.6c-10.413-29.644-.564-62.622 24.4-81.7 25-19.1 59.4-19.9 85.2-2 18 12.5 30.7 30.6 36.7 52.6 3.7 14.3 4.7 29.1 2.9 43.8-4.1 35.1-23.3 81.7-64.1 97.7-8.6 3.2-17.6 4.9-26.6 4.9z" class="I"/><path d="M2025.6 2468.7c55.3 3.4 93.4 43.6 127.2 80.3 39.3 42.7 80.1 104.5 119 245.3 39.4 142.8 45.9 220.1 45.9 292 0 153.6-140.7 305.1-320 306.6-175.5 1.5-319-153-319-306.6 0-72.8 12.6-145.3 62.3-292.3 48.2-142.7 92.6-200.2 125.8-235.1 37.4-39.3 89.9-94.4 158.8-90.2z" class="H"/><path d="M1997.3 2512.8c41-.4 82.2 51.9 113.6 106.2 48.1 83.3 65.4 157.6 70.6 181.4 32.5 148.3 54.2 271.3-6 346.6-59.9 74.9-132.4 85.6-175.4 85.6-47.6 0-118.3-8.3-177.4-81.9-58.8-73.3-34.8-194.7 3.5-350.5 3.9-16 38.3-103.8 95.4-210.3 18.2-34 42.8-76.8 75.7-77.1zm-1133.5-676c-109.3 103.9-60.9 310.4 16.5 426.9 110.4 166.1 358.2 267.5 482.6 176 129.9-95.6 107.6-388.9-48.6-538.6-116.6-111.7-337.4-171.8-450.5-64.3z" class="B I"/></g><path d="M995.6 1954.6c-64.8 69.3-26.7 197.2 26.3 267.5 75.5 100.1 234.9 154.6 309.6 92.5 78-64.9 53.1-248.2-50.6-336.3-77.4-65.9-218.4-95.4-285.3-23.7z" fill="#FFC9A1"/><path d="M3133.2 1832.1c111.1 102 66.3 309.3-9.1 427.2-107.5 168-353.5 273.8-479.5 184.4-131.6-93.4-114.4-386.9 39.2-539.3 114.7-113.9 334.5-177.8 449.4-72.3z" class="C E I"/><path d="M3003.5 1952.2c66 68.2 30.1 196.7-21.6 267.9-73.8 101.4-232.2 158.7-307.9 97.9-79.1-63.5-57.4-247.2 44.8-337.2 76.1-67.2 216.5-99.1 284.7-28.6z" fill="#FFC9A1"/><g class="C E"><path d="M2353.8 699.5c-26.8-76.5 395.6 127.1 331.6 261.1-5 10.5-55.4 94-417.6-23.8 398.1 129.2 698.1 403.2 696.7 910.3-1.1 388.8-348.6 990.8-964.9 996.1-594.6 5.2-966-596.2-964.9-996.1 1.3-488.4 432.2-991 966.1-1028.6 319.3-22.4 464.5 50.1 499.5 20.5 42.3-35.8-124.3-76-146.5-139.5z" class="H M"/><path d="M1999.6 1320.6c19.2-.2 112.4-116.8 268-116.7 223.5 0 482 324.8 482.3 643.2.2 205.9-111.6 252-111.4 275.7.2 21.1 236.9 22.6 236.9 254.7 0 209.2-420.4 512-840.9 524.2-461.3 13.3-910.3-319.7-910.3-497.7 0-232.4 237-260.6 236.8-281.3s-111.8-76.2-111.9-275.6c-.3-318.5 259.3-643.2 482.5-643.2 172.3-.1 245.2 116.8 268 116.7z" fill="#FFCD98"/></g><g fill="#3D0C0C"><path d="M2598.5 2330.8c32.4-4.6 56 22.8 47.1 55.4-11.8 43.1-35 85.7-67.7 125.8-7.5 9.2-15.4 18.2-23.9 27-115.5 121.7-320.4 213.5-554.4 213.1-234 .4-438.9-91.4-554.4-213.1-8.4-8.9-16.4-17.9-23.9-27-32.8-40.1-56-82.7-67.7-125.8-8.9-32.7 14.7-60 47.1-55.4 397.2 56.4 800.5 56.4 1197.8 0z"/><path d="M2001 2770.6h-3c-112.7 0-225.8-21.5-327-62.1-95.7-38.4-178.4-92.6-239.2-156.7-8.8-9.2-17.1-18.7-24.8-28.1-34.9-42.8-58.9-87.4-71.2-132.6-6-21.9-1.4-43.5 12.5-59.2 13.5-15.3 33.6-22.3 55-19.3 197.5 28.1 396.8 42.1 596.3 42.1s398.8-14.1 596.3-42.1c21.4-3.1 41.5 4 55 19.3 13.9 15.7 18.4 37.3 12.4 59.2-12.3 45.2-36.3 89.8-71.2 132.6-7.7 9.5-16.1 18.9-24.8 28.1-60.8 64.1-143.6 118.3-239.2 156.7-101.2 40.6-214.3 62.1-327.1 62.1zm-1.5-36.9c108.6.2 217.5-20.4 314.8-59.4 90.8-36.4 169-87.6 226.2-147.9 8.1-8.5 15.8-17.2 22.9-26 31.7-38.8 53.3-78.9 64.2-119 2.6-9.7 1-18.9-4.5-25.2-5.2-5.9-13.1-8.5-22.2-7.2-399 56.7-804 56.7-1203 0-9.1-1.3-17 1.3-22.2 7.2-5.5 6.3-7.2 15.4-4.5 25.2 11 40.2 32.6 80.2 64.2 119 7.1 8.7 14.8 17.4 22.9 26 57.3 60.3 135.5 111.5 226.3 147.9 96.8 38.9 205.2 59.4 313.3 59.4h1.6z" class="B"/></g><path d="M2645.5 2386.2c-11.8 43.1-35 85.7-67.7 125.8l-72.4 9.3-13.3 1.6c-321.5 37.4-646.3 38.1-968 1.9l-17.9-2.1-84.8-10.7c-32.8-40.1-56-82.7-67.7-125.8-8.9-32.7 14.7-60 47.1-55.4l15.7 2.2 14.7 2c382.8 51.6 770.8 50.8 1153.3-2.2l10.1-1.4 3.9-.6c32.3-4.6 55.9 22.8 47 55.4zm-91.6 152.9c-48.1 50.7-111.7 96.2-186.4 132-29.3 14-59.4 26.2-90.2 36.5-84.2 28.3-178.4 44.8-277.7 44.6-82.2.2-164.1-11.2-243.1-33.8-32.1-9.2-63.6-20.4-94.4-33.5-88-37.6-162.4-88.3-216.9-145.8l81.2 9.9 15.6 1.7c309.9 33.5 622.4 32.9 932.2-1.9l11-1.2 68.7-8.5zm-795.6-1136c154.9 18 266.5 208.8 250 376.8-16.4 167.3-162.7 342-329.9 323-151.8-17.3-250.3-186.2-253.5-328.2-4.3-190.2 160.9-391.7 333.4-371.6z" fill="#fff" class="B"/><path d="M1728.7 1997.1c-98-19-159.7-126.9-137.6-240.8s119.6-190.9 217.7-171.9 159.7 126.9 137.6 240.8-119.7 190.9-217.7 171.9z" fill="#4CBF4B" class="C E"/><ellipse cx="1779.8" cy="1823.1" rx="105.9" ry="118.5" class="D"/><g fill="#fff"><path d="M1820 1764.3c-22.1-7.8-33.9-31.2-26.5-52.3s31.4-31.8 53.5-24 33.9 31.2 26.5 52.3-31.4 31.8-53.5 24z" class="C E"/><path d="M2234 1398.9c-154.5 20.7-262.8 213.4-243.4 381.1 19.3 167 168.6 339.1 335.5 317.1 151.5-19.9 247-190.6 247.7-332.5 1-190.2-167.7-388.7-339.8-365.7z"/></g><path d="M2053.1 1824.6c-24.1-113.5 35.7-222.4 133.4-243.2s196.5 54.6 220.6 168-35.7 222.4-133.4 243.2-196.5-54.5-220.6-168z" fill="#4CBF4B" class="C E"/><path d="M2113.9 1821.1c-1.1-65.4 45.4-119.3 103.9-120.3s106.9 51.2 108 116.6-45.4 119.3-103.9 120.3-106.9-51.2-108-116.6z" class="D"/><path d="M2234.4 1741.4c-7.8-20.9 3.7-44.5 25.6-52.7s46.1 2.1 53.9 23-3.7 44.5-25.6 52.7-46-2.1-53.9-23z" fill="#fff" class="C E"/><use xlink:href="#A" fill="#775A42"/><g class="D"><path d="M1134.5 2454.8c-97.4-32.4-195.3-102.5-254.2-191-77.5-116.5-125.8-323-16.5-426.9 45.2-42.9 107.5-59.1 173.6-56l-.8 10.6c-50.6 4.2-97.1 21.4-132.8 55.3-109.3 103.9-60.9 310.4 16.5 426.9 50.3 75.7 129.2 138 211.9 174.6.7 2.2 1.5 4.3 2.3 6.5zm1989.6-195.5c-60.7 94.9-165.6 169.9-268 201.1l2.3-5.3c88.2-36.9 173.4-104 225.8-185.8 75.4-117.9 120.2-325.2 9.1-427.2-35.4-32.5-80.7-48.9-129.9-52.7l-.5-10.4c64.4-3.4 125.4 11.9 170.4 53.2 111 101.9 66.2 309.2-9.2 427.1z" class="B F"/><use xlink:href="#B"/><g class="B"><path d="M1510.9 2523.4l-4.8-.6-84.8-10.8c-32.8-40.1-56-82.7-67.7-125.8-8.9-32.7 14.7-60 47.1-55.4l18.1 2.5c19.6 65.9 49.4 130.3 92.1 190.1zm224.6 188.6c-25.4-8-49.9-17.1-73.5-27.2-88-37.6-162.4-88.3-216.9-145.8l83.7 10.1c52.5 61.9 120.3 117.5 206.7 162.9zm910-325.8c-11.8 43.1-35 85.7-67.7 125.8l-72.4 9.3-16.5 1.9c42.6-59.8 72.3-124.2 92-190.1l3.5-.5 10.1-1.4 3.9-.6c32.5-4.4 56 23 47.1 55.6zm-91.6 152.9c-48.1 50.7-111.7 96.2-186.4 132-29.3 14-59.4 26.2-90.2 36.5l-11.3 3.7c85.5-45.4 152.8-100.7 205.1-162.2l3.1-.3 11-1.3 68.7-8.4z" class="J"/><path d="M2333.6 957l1.8.5-11.6-3.7 9.8 3.2zm231.6-95.7c-53.4 62.4-211.8-40-531.2-17.5-533.9 37.5-942 531.8-943.3 1020.3-.3 106.9 28.6 233.5 78.7 353.8 58.8-73.8 151.5-99.7 178.6-114.2 7.9 8.6 13 14.5 13 18.9v.7c-.1.4-.2.8-.4 1.1l-.2.3c-.5.7-1 1.3-1.7 1.8l-.3.3c-2 1.6-4.2 2.9-6.5 4l-1.6.8c-3.7 1.8-8.4 3.8-13.7 6l-19.3 8-3.1 1.3-16.4 7.2-7 3.2-7.2 3.5-3.6 1.8-3.7 1.9-11.2 5.9-7.6 4.3-3.9 2.3-11.3 7.1-5.7 3.8-1.9 1.3c-3.2 2.2-6.4 4.5-9.5 6.9-2.5 1.9-5.1 3.9-7.5 5.9l-5.6 4.6c-.6.5-1.2 1-1.8 1.6l-1.8 1.6-3.7 3.3-3.6 3.4-3.4 3.3-1.9 1.9-3.5 3.6-1.7 1.8-6.8 7.6-3.3 3.9-1.7 2-3.8 4.8c-1.2 1.5-2.3 3-3.4 4.5l-.3.4-1.8 2.6-1.7 2.4-2.6 3.8c-.1.2-.2.3-.4.5l-.6.9-.3.5-2 3.2c-.4.5-.7 1.1-1 1.6l-3.1 5.1c-.2.2-.3.5-.4.8l-2.9 5.2v.1l-1.4 2.7-1.4 2.8c-76.3-147.6-117-302.6-116.6-435.3 1.3-488.5 432.2-991 966.1-1028.6 319.4-22.5 464.6 50.1 499.6 20.5 42.2-35.8-124.5-75.9-146.6-139.4-8.6-24.5 28.8-20.3 81.6 1.1-20-2.9-31 1.8-25.6 15.9 19.4 50.4 194.5 99.1 155.4 144.8l-.5-.2z" class="K"/></g><path d="M1390.8 2108.6c0 3.7-23.8 15.2-36.4 20.6 4.2-2.4 6.6-4.5 6.6-6.6-.2-20.6-111.8-76.2-111.9-275.5v-6.5c0-2 0-4 .1-5.9 10.2 177.4 141.5 254.3 141.6 273.9z" class="J"/><path d="M1637.8 3250.1c-18.8 11.1-41.6 13.1-62.1 5.5-21.2-7.9-38.2-24.2-50.7-48.5a150.71 150.71 0 0 1-15.1-48.1c-2.1-14.6-1.4-29.5 2.1-43.8 1.4-5.8 3.4-11.4 5.9-16.8-.2-2.1-.3-4.2-.3-6.3-.3-90.4 30.6-183 89.5-268.8l.8.3 30.5 11.3c-49.5 78.7-85.3 140.9-85 223.4-17 21.8-12.6 82.9.5 114.5 27.1 65.3 76.6 77 83.9 77.3z" class="F"/><path d="M2644.3 2128.4c-12.9-5.6-34.5-16.3-34.4-19.8.2-18.9 121.6-90.8 139.9-254.2-2.4 199.6-111.6 244.9-111.4 268.4.1 1.9 2.2 3.8 5.9 5.6z"/><g class="B"><path d="M1974.1 3510.3c-11.7 35.4-49.8 54.6-85.2 42.9h-.1c-27.7-9.2-93.8-15.5-147.7.2-35.8 10.4-73.3-10.1-83.7-45.9-2.7-9.4-3.4-19.2-2-28.9.5 3 1.1 6 2 8.9 10.4 35.8 47.9 56.3 83.7 45.9 53.9-15.7 120-9.4 147.7-.2 35.4 11.7 73.6-7.5 85.3-42.8 1.2-3.7 2.1-7.4 2.7-11.2 1.6 10.4.6 21.1-2.7 31.1zm368.6-2.8c-10.4 35.8-47.8 56.3-83.6 46h-.1c-53.9-15.7-120-9.4-147.7-.2-35.4 11.7-73.6-7.5-85.3-42.8-3.3-10.1-4.3-20.8-2.7-31.2 5.5 36.8 39.8 62.3 76.6 56.8 3.9-.6 7.7-1.5 11.4-2.7 27.7-9.2 93.8-15.5 147.7.2 17.2 5 35.7 3 51.4-5.6s27.3-23.1 32.3-40.3c.9-2.9 1.5-5.9 2-8.9 1.4 9.4.7 19.3-2 28.7z" class="K"/><path d="M2487.4 3157.2c-4.1 35.1-23.3 81.7-64.1 97.7-20 7.9-42.4 6.4-61.2-3.9 10.5-1.3 56.9-14.7 82.8-77 13.1-31.6 17.4-93 .3-114.8.3-78.5-32-149-77.8-223.6l29.3-11c57.7 86.8 84.9 177.3 76.9 256.7-.2 1.9-.5 3.7-.8 5.5 5.3 8.3 9.2 17.3 11.8 26.8 3.6 14.2 4.6 29 2.8 43.6zm-528 275.9l-.1 1.9-.6 7.4c-7.6-8-17.1-13.9-27.5-17.4-28.6-9.5-66-15.2-105.2-16.1a470.85 470.85 0 0 0-55.7 2.102l.7-10.1c18.3-1.798 36.6-2.498 55-2.1 39.2.9 76.6 6.6 105.2 16.1 10.8 3.7 20.5 9.9 28.2 18.2v-.002zm269.8-22.1c-18.3-1.8-36.8-2.4-55.2-2-39.2.9-76.6 6.6-105.2 16.1-10.6 3.5-20.1 9.6-27.8 17.7-.2-1.4-.3-2.8-.3-4.2l-.3-5.1c7.8-8.5 17.6-14.8 28.5-18.4 28.6-9.5 66-15.2 105.2-16.1 18.1-.4 36.3.3 54.4 2.002l.7 9.998zm-445.5-102.2c48.6 44.1 110.6 75 179.1 82.5-.6 4.9-1.1 9.9-1.5 14.8-69-7.9-131.4-39.6-180-84.6l2.4-12.7zm432.6 11.1c-47.8 44.302-109.5 75.8-178.6 85.2l-1.9-14.7c68.6-8.9 130-39.6 177.8-83l2.7 12.5z" class="F"/></g><path d="M2317.6 3086.4c0 153.6-140.7 305.1-320 306.6-175.5 1.5-319-153-319-306.6 0-10 .2-20.1.8-30.3 11.6 146.8 150.2 288.4 318.2 286.9 172.9-1.5 309.8-142.3 319.4-290.1.5 11.4.6 22.5.6 33.5z" class="K"/><g class="B"><path d="M2175.4 3147c-59.9 74.9-132.4 85.6-175.4 85.6-47.6 0-118.3-8.3-177.4-81.9-27.7-34.5-37-79.7-35.1-134.2 1.6 43 12 79.3 35.1 108.2 59.1 73.6 129.9 81.9 177.4 81.9 43 0 115.5-10.7 175.4-85.6 25.4-31.7 36.2-71.9 37.8-118.8 1.8 58.1-7.9 107.3-37.8 144.8zm221.2-322.5c-35 13.7-71 26-107.7 36.4l-16.6 4.6c-77.3 20.8-157.6 33.7-237.9 36.098-102.9 3-205.3-11.3-302.1-37.2l-13-3.6c-38.4-10.8-76-23.3-112.3-37.398-7.2 10.498-14.1 21.2-20.4 31.9 39.7 16.1 80.1 30.2 121.2 42.2l1.2-1.7-.5 1.898c103.8 30.1 214.6 47.1 326 43.9 88.5-2.6 176.9-18 261.5-42.7l1.4-.4c40.4-11.9 80.2-25.9 119.1-42-6.2-10.7-12.8-21.4-19.9-32v.002z" class="F"/><path d="M2352.6 3244.9c-21.3 18.4-65.1 13.1-91.6 9.3a354.83 354.83 0 0 0 10.1-14.9c3.9.8 7.6 1.4 11.2 1.9 26.6 3.9 46.4 1.5 58.8-7.2a84.75 84.75 0 0 0 11.5 10.9zm358.6-164a51.71 51.71 0 0 0 6.4-2.8c-5.7 6.7-13.1 11.8-21.4 14.8-37.8 13.6-81.1-22.7-81.5-23.1-6.4-5.4-15.1-7.3-23.1-5 .8-1.5 1.8-2.9 2.9-4.2 9-10.5 24.7-11.8 35.2-2.8.5.4 43.7 36.7 81.5 23.1zm85.7-30.8c-9.5 29.8-26.2 53.1-48.1 67.5 14.6-14.1 25.9-32.9 33.1-55.5 9.5-30.1 11.3-66.2 4.7-96.6-8.1-37.1-29.5-70.6-62.1-96.9-28.4-22.9-63.1-38.4-97.6-43.7-28-4.3-56.9-2-86.1 6.9-26.2 8-52 21.2-76.7 39.1l-3.8 2.8c6.066-5.183 12.338-10.12 18.8-14.8 24.7-17.9 50.5-31.1 76.7-39.1 29.1-8.9 58.1-11.2 86.1-6.9 34.6 5.4 69.2 20.9 97.6 43.7 32.6 26.2 54.1 59.7 62.1 96.9 6.6 30.4 4.9 66.5-4.7 96.6z" class="L"/></g><path d="M1834.5 1427c-10.5-2.9-21.1-4.9-31.9-6.2-175.2-20.2-342.8 182.7-338.4 374.2 2.5 107.2 59.4 229.8 152.7 291.6-116.4-48.8-189.2-190.3-192-312-4.3-190.1 160.8-391.6 333.4-371.6 26.7 3.3 52.5 11.4 76.2 24z"/><path d="M2573.8 1764.6c-.7 123.3-72.8 268.1-190.9 317.2 95.3-61.6 152.1-188.1 152.7-297.6 1-190.6-168-389.6-340.6-366.5-15.5 2.1-30.7 5.9-45.4 11.3 26-15.6 54.3-26.1 84.4-30.2 172.1-22.9 340.8 175.6 339.8 365.8z" class="J"/><path d="M1862.2 1605.5c-4.4-1.2-8.8-2.3-13.2-3.2-99.1-19.2-197.6 58.5-219.9 173.6-16.8 86.3 14.1 169.2 72.3 213.3-81.9-32-130.2-129.9-110.2-232.9 22.1-114 119.6-190.9 217.7-171.8 18.9 3.8 37 10.9 53.3 21zm432.9 380.9c60.9-43.7 92.6-129.1 73.9-217.3-24.2-113.8-123.2-189.3-221.2-168.5-5.9 1.3-11.8 2.9-17.5 4.8a159.12 159.12 0 0 1 56.3-24.1c97.8-20.8 196.5 54.5 220.6 168 22.3 105.1-27.1 206.2-112.1 237.1zm454.3-188.3c0 6.5-.1 12.8-.3 18.9-15.7-308.5-265-613.2-481.5-613.2-155.6 0-248.9 116.6-268 116.7-22.7.2-95.6-116.7-268-116.7-215.8 0-465.7 303.7-481.7 611.8l-.2 3.6c0 1.2-.1 2.4-.2 3.7l-.1 3.6c-.5-9.5-.8-19-.8-28.5-.3-318.5 259.3-643.2 482.5-643.3 172.4 0 245.3 117 268 116.8 19.2-.2 112.4-116.8 268-116.8 223.6.1 482.1 324.9 482.3 643.4z" class="B K"/><path d="M2875.3 2377.5c0 209.3-420.4 512-840.9 524.2-461.3 13.3-910.3-319.7-910.3-497.7 0-4.8.1-9.4.3-14 38.6 182.8 468.4 486 909.4 473.3 406.2-11.8 812.3-294.1 841-502.2.4 5.2.5 10.7.5 16.4z" class="F"/><path d="M2964.5 1847.1c-.4 127.7-38.1 278.5-110.5 423.6-58.2-126.5-215.4-130.7-215.5-147.9 0-3.4 2.3-7.3 6.3-12.1 29.9 12.4 135.9 21.8 193.6 102.1 59.3-132.1 86.5-259.2 86.8-374.9 1.4-510.1-312.9-784.5-713.4-914.5 35.1 11.4 34.7 6.4 56.1 13.5 398 129.1 698 403.1 696.6 910.2z" class="K"/></g><path d="M2638.4 2122.8c-.2-23.7 111.6-69.8 111.4-275.7-.2-318.5-258.8-643.2-482.3-643.2-155.6 0-248.9 116.6-268 116.7-22.7.2-95.6-116.8-268-116.7-223.2 0-482.7 324.8-482.5 643.2.2 199.4 111.8 254.9 111.9 275.6s-236.8 48.8-236.8 281.3c0 178 449 511.1 910.3 497.7 420.5-12.2 840.9-314.9 840.9-524.2 0-232.1-236.7-233.6-236.9-254.7zm-689.8-296.9c-10.8 55.7-39.6 104.3-81.2 137.1-32.8 25.9-70.5 39.4-108.5 39.4-10.3 0-20.6-1-30.7-3-99.2-19.2-161.7-128.4-139.3-243.4s121.2-192.9 220.3-173.6c48.1 9.3 89.1 39.8 115.4 85.9s34.9 101.9 24 157.6zm439.6 81c-25.5 46.5-65.9 77.7-113.9 87.9-11 2.3-22.2 3.5-33.4 3.5-37.1 0-73.9-12.9-106.4-37.6-42.1-32.1-71.8-80.2-83.5-135.7s-4.2-111.5 21.2-157.9 66-77.7 113.9-87.9c98.8-21 199 55.2 223.3 169.8 11.7 55.4 4.2 111.4-21.2 157.9z" fill="#FFCD98" class="B C E"/><path d="M2875.3 2377.5c0 209.3-420.4 512-840.9 524.2-461.3 13.3-910.3-319.7-910.3-497.7 0-4.668.1-9.336.3-14 38.6 182.8 468.4 486 909.4 473.3 406.2-11.8 812.3-294.1 841-502.2.4 5.2.5 10.8.5 16.4z" class="D F"/><path d="M1758.3 1403.1c-172.5-20-337.7 181.4-333.4 371.6 3.2 141.9 101.7 310.9 253.5 328.2 167.2 19 313.5-155.6 329.9-323 16.5-168.1-95.1-358.8-250-376.8zm190.4 422.8c-10.8 55.7-39.6 104.3-81.2 137.1-32.8 25.9-70.5 39.4-108.5 39.4-10.3 0-20.6-1-30.7-3-99.2-19.2-161.7-128.4-139.3-243.4s121.2-192.9 220.3-173.6c48.1 9.3 89.1 39.8 115.4 85.9s34.8 101.9 24 157.6z" fill="#fff" class="B"/><path d="M1834.5 1427c-10.5-2.9-21.1-4.9-31.9-6.2-175.2-20.2-342.8 182.7-338.4 374.2 2.5 107.2 59.4 229.8 152.7 291.6-116.4-48.8-189.2-190.3-192-312-4.3-190.1 160.8-391.6 333.4-371.6 26.6 3.3 52.5 11.4 76.2 24z" class="D J"/><path d="M2234 1398.9c-154.5 20.7-262.8 213.4-243.4 381.1 19.3 167 168.6 339.1 335.5 317.1 151.5-19.9 247-190.6 247.7-332.5 1-190.2-167.7-388.7-339.8-365.7zm154.2 507.9c-25.5 46.5-65.9 77.7-113.9 87.9-11 2.3-22.2 3.5-33.4 3.5-37.1 0-73.9-12.9-106.4-37.6-42.1-32.1-71.8-80.2-83.5-135.7s-4.2-111.5 21.2-157.9 66-77.7 113.9-87.9c98.8-21 199 55.2 223.3 169.8 11.8 55.4 4.2 111.5-21.2 157.9z" fill="#fff" class="B"/><path d="M2573.8 1764.6c-.7 123.3-72.8 268.1-190.9 317.2 95.3-61.6 152.1-188.1 152.7-297.6 1-190.6-168-389.6-340.6-366.5-15.5 2.1-30.7 5.9-45.4 11.3 26-15.6 54.3-26.1 84.4-30.2 172.2-22.9 340.8 175.6 339.8 365.8z" class="D J"/><use xlink:href="#A" x="-0.1" class="H"/><g class="D"><use xlink:href="#B" class="J"/><path d="M2212.9 2081.6c0 74.2-105.2 164.5-213.2 165.4-117.1 1-215.7-90.4-215.7-165.6 0-3.1.3-6.2.8-9.3 42.2 52.2 123.3 95.7 214.4 94.9 85.1-.7 168.7-45.3 211.9-97.9 1.2 4.1 1.8 8.3 1.8 12.5z" class="L"/></g><g fill="#634B37"><path d="M1466.3 2415.3c10.4-.6 21.1-2.6 32.1-4.9l33.4-6.8c11.3-2.1 22.7-4.1 34-5.7s22.8-2.9 34.3-4c22.9-2.2 45.8-3.3 68.7-3.8l30-.5h4.3l34.3.3 17.2.4 17.2.7a508.42 508.42 0 0 1 17.2.9l17.2 1.1c22.9 1.7 45.7 4 68.4 6.9s45.4 6.7 67.9 10.9l16.8 3.2 16.8 3.4 33.4 7.2 66.2 14.9c22 4.8 43.9 9.3 66 13l16.5 2.7 16.6 2.4 16.6 2.2 16.6 2c22.2 2.4 44.5 3.9 66.8 4.9l16.8.7 16.8.3 8.4.1 8.4-.1 16.7-.4c22.1-.7 44.2-2.7 66.1-6.2 21.7-3.4 43.1-8.7 63.9-15.9 10.3-3.6 20.4-7.8 30.3-12.5s19.4-10 28.7-15.9h.1c4.5-2.8 10.4-1.4 13.1 3.1 2.6 4.3 1.5 9.9-2.6 12.8-9.6 6.7-19.7 12.8-30.1 18.3-10.4 5.4-21.1 10.3-32 14.5-21.8 8.4-44.3 14.7-67.3 19-22.8 4.2-45.8 7-69 8.3-11.5.7-23.1 1-34.6 1.2l-17.2.3-17.2-.1c-23-.3-45.9-1.4-68.9-3.3l-17.2-1.6-17.1-2-17.1-2.2-17-2.5c-22.7-3.6-45.2-7.7-67.6-12.5l-99.6-21.7-16.5-3.4-16.5-3.3c-22-4.2-44.1-7.9-66.2-11.1-22.2-3.1-44.4-5.8-66.7-7.7s-44.7-3.6-67.1-4.5c-22.4-1-44.9-1.5-67.4-1.8-22.4 0-44.8.5-67.1 1.8s-44.4 3.7-66.5 7l-33.4 5.4c-11.3 1.8-23 3.6-35.3 3.6-5.1 0-9.3-4.1-9.5-9.3s3.7-9.4 8.9-9.8z"/><path d="M2551 2368.9c-1.5 11.1-2.3 22.2-2.2 33.4.1 5.5.4 10.9 1.1 16.4.6 5.4 1.4 10.8 2.6 16.1 2.3 10.7 5.6 21.1 10 31.2 4.5 10.2 9.8 20.1 15.9 29.5l.1.2c3.2 5 1.7 11.7-3.4 14.9-4 2.5-9.2 2.1-12.8-.9-5-4.4-9.6-9.2-13.7-14.4-4.2-5.2-7.9-10.7-11.2-16.5-6.6-11.7-11.4-24.3-14.3-37.5-1.5-6.6-2.4-13.3-2.8-20s-.4-13.4.2-20.1a132.81 132.81 0 0 1 3.3-19.7c1.6-6.4 3.8-12.7 6.6-18.7 2.5-5.4 9-7.7 14.4-5.2 4.3 2 6.8 6.5 6.1 11.2l.1.1z"/></g><path d="M2596.1 2395.9c.6 5.2.9 9.8 1.6 14.3.6 4.3 1.4 8.6 2.5 12.9 1.1 4.2 2.4 8.3 4 12.3 1.6 4.1 3.6 8.2 5.6 12.9l.3.6c1.5 3.4 0 7.5-3.4 9-1.7.8-3.7.8-5.5 0-5.9-2.6-10.9-6.7-14.7-11.9-3.9-5.2-6.7-11.1-8.3-17.4-1.5-6.2-1.9-12.7-1-19 .8-6.2 3-12.2 6.5-17.4 2.2-3.1 6.4-3.9 9.5-1.7 1.6 1.1 2.6 2.9 2.9 4.8v.6z" class="G K"/><path d="M1467.9 2362a104.01 104.01 0 0 1 6.9 18.6c3.5 12.9 4.9 26.3 4.3 39.7-.3 6.7-1.1 13.4-2.5 20a130.21 130.21 0 0 1-13.7 37.7c-3.2 5.9-6.8 11.4-10.9 16.7-4 5.3-8.5 10.2-13.4 14.6-4.5 4-11.3 3.6-15.2-.9-3.1-3.5-3.6-8.7-1.2-12.8l.1-.2c5.9-9.5 11-19.4 15.4-29.7 4.2-10.1 7.4-20.6 9.5-31.3 1.1-5.3 1.8-10.7 2.3-16.2s.8-10.9.8-16.4a233.81 233.81 0 0 0-2.7-33.4v-.2c-.9-5.9 3.2-11.4 9.1-12.3 4.6-.5 9.2 1.9 11.2 6.1z" fill="#634B37"/><path d="M1415.3 2392.4a40.55 40.55 0 0 1 6.8 17.3c1 6.3.8 12.8-.7 19.1-1.4 6.3-4.2 12.3-8 17.5-3.7 5.2-8.7 9.4-14.5 12.2-3.4 1.6-7.5 0-9-3.4-.8-1.7-.8-3.7-.1-5.5l.3-.6c2-4.7 3.9-8.8 5.4-13 1.5-4 2.8-8.2 3.8-12.4 1-4.3 1.8-8.6 2.3-12.9.6-4.5.8-9.2 1.3-14.4l.1-.5c.3-2.8 2.3-5.2 5-5.9 2.6-.8 5.6.2 7.3 2.5z" class="G K"/><path d="M1390.8 2108.6c0 3.7-23.8 15.2-36.4 20.6 4.2-2.4 6.6-4.5 6.6-6.6-.2-20.6-111.8-76.2-111.9-275.5v-6.5c0-2 0-4 .1-5.9 10.2 177.4 141.4 254.3 141.6 273.9zm1253.5 19.8c-12.9-5.6-34.5-16.3-34.4-19.8.2-18.9 121.6-90.8 139.9-254.2-2.4 199.6-111.6 244.9-111.4 268.4 0 2 2.1 3.798 5.9 5.6z" class="B D J"/><g class="E"><g class="C"><path d="M1170.7 1370.3c-74.6 131.1-120 273.1-131 413.1l-2.5-.1-15.8-.4c-35.4 0-67.8 5.9-96.3 17.6l1-3.1c67.4-210.3 202.2-369.2 241.3-440.8l2.4 10.2c.3 1 .6 2.2.9 3.5z" fill="gray"/><path d="M2926.1 1553.2c-26.6-25.7-119.6-103.1-326.4-159.9-7.3-2-12.9-8-14.3-15.5-40.4-207.1-75.3-361.1-364.8-385.2-311.3-25.9-405.6 88.8-465.2 294.4-2.6 9-11.2 14.3-20.5 14.4-246.1 1.6-539.9 132.2-622.3 180.4 8.6-20.2 17.8-40.1 27.6-59.8 96.6-53.3 350.5-165.5 582-166.9 9.4-.1 17.9-5.3 20.5-14.4 59.6-205.7 176.5-334 487.8-308.1 70.8 5.9 126.7 20.6 171.3 42.6 23.6 11.5 45.5 26.1 65.1 43.5 83.4 74.5 108.1 188.9 133 316.9 1.4 7.5 7 13.4 14.3 15.5 137.4 37.8 229.2 79.4 279.3 109.3 12.7 30.2 23.6 61.2 32.6 92.8z" opacity=".15" class="G"/><path d="M2656.4 1372.2c-17.4-10.8-46.2-21.8-82.5-32.6-66.2-19.7-157.2-38.3-248.7-51.8-141.5-21.7-284.1-31.2-335.5-33-119.2-3.8-107.2-160.5-1-157.4 81.1 2.6 233.1 11.2 378 34.4 55.6 8.6 110.3 19.4 159.6 31.8 79.1 19.9 144.6 44 178.4 70.3 95.9 74.4-48.2 138.1-48.3 138.3z" fill="gray"/><g fill="#4D4D4D"><circle cx="2120.8" cy="1183" r="26.8"/><circle cx="2242.3" cy="1190.1" r="26.8"/><circle cx="2379.7" cy="1209.4" r="26.8"/><circle cx="2498.7" cy="1229.4" r="26.8"/><circle cx="1997.6" cy="1175.8" r="26.8"/></g></g><g class="G"><g stroke-width="3.31"><circle cx="1997.6" cy="1175.8" r="17.7"/><circle cx="2120.8" cy="1183" r="17.7"/><circle cx="2242.3" cy="1190.1" r="17.7"/><circle cx="2379.7" cy="1209.2" r="17.7"/><circle cx="2498.7" cy="1229.5" r="17.7"/></g><path d="M2718.3 1329c-24 26.3-61.8 43.1-61.8 43.2-17.4-10.8-46.2-21.8-82.5-32.6-66.2-19.7-157.2-38.3-248.7-51.8-141.5-21.7-284.1-31.2-335.5-33-98-3.1-107.3-109.5-48.6-145.6-34.6 44.9-16.2 124.9 68.6 127.6 51.4 1.8 194 11.2 335.5 33 91.5 13.5 182.5 32.2 248.7 51.8 36.3 10.8 65.1 21.9 82.5 32.6 14.7-7 28.7-15.4 41.8-25.2z" class="C L M"/></g><g class="C"><path d="M2260.7 1116.4c-80.6-9.3-232.2-22.8-379-20.9l-37.7.6c-132.8 3.5-256.2 20-311.4 51.2-105.7 59.8 6.8 117.1 6.8 117.4 19.8-8.6 115.2-10.5 229.6-9.3 191.4 2 435.9 13 467.9 16.5 118.5 13.7 129.4-143.1 23.8-155.5zm-410.8 86.2c-14.8 0-26.8-12-26.8-26.8 0-7.1 2.8-13.9 7.8-18.9a26.74 26.74 0 0 1 37.9 0c5 5 7.8 11.8 7.8 18.9.1 14.8-11.9 26.8-26.7 26.8zm147.7 0c-14.8 0-26.8-12-26.8-26.8 0-7.1 2.8-13.9 7.8-19 7.7-7.7 19.2-10 29.2-5.8 10 4.1 16.5 13.9 16.5 24.8.1 14.8-11.9 26.7-26.7 26.8zm123.2 7.2c-10.8 0-20.6-6.5-24.8-16.5-5.7-13.7.8-29.3 14.5-35a26.95 26.95 0 0 1 20.5 0c10 4.1 16.5 13.9 16.5 24.8.1 14.7-11.9 26.7-26.7 26.7zm121.5 7c-14.8 0-26.8-12-26.8-26.8s12-26.8 26.8-26.8 26.8 12 26.8 26.8c0 7.1-2.8 13.9-7.8 19-5 5-11.9 7.8-19 7.8z" fill="gray" class="B"/><path d="M2307.6 1136.3c27.2 49.5-2.7 125.3-86.7 115.7-32-3.6-276.5-14.5-467.9-16.5-114.4-1.2-209.8.7-229.6 9.3-11-6-21.2-13.4-30.4-21.8 13.5 24.9 46.4 41.7 46.4 41.8 19.8-8.6 115.2-10.5 229.6-9.3 191.4 2 435.9 13 467.9 16.5 96.5 11.1 121.6-90.8 70.7-135.7z" class="G L M"/><path d="M1844 1096.2c-32.8 44.7-56.6 98.4-75.1 159.3-114.4-1.2-209.8.7-229.6 9.3 0-.3-112.5-57.6-6.8-117.4 55.3-31.2 178.6-47.7 311.5-51.2zm812.4 276c-17.4-10.8-46.2-21.8-82.5-32.6-12.6-63.6-26-123.4-47.6-176 79.1 19.9 144.6 44 178.4 70.3 95.9 74.4-48.3 138.1-48.3 138.3z" class="B G L"/><path d="M2918.1 1526.7s-52.2-81.7-303.7-150.8c-7.3-2-12.9-8-14.3-15.5-40.4-207.1-79.9-378.8-369.4-402.9-311.3-25.9-428.2 102.4-487.8 308.1-2.6 9-11.2 14.3-20.5 14.4-254.8 1.6-536.8 137.4-606.2 181-3.5 2.2-8 1.1-10.2-2.3-1.2-2-1.5-4.4-.7-6.5 11.8-31.4 29.5-67.7 39.3-119.2 53.1-278.3 352.2-772.1 976.3-755.1 583.4 15.9 797.2 482.6 797.2 948.8z" fill="#F2F2F2"/><path d="M2918.1 1526.7s-2.9-31.3-95.2-74.3c-35.8-421.5-260.5-810-792-824.6-177.9-4.9-329.5 31.8-456.4 93.2 143.3-90.6 324.3-149.2 546.4-143.2 583.4 16 797.2 482.7 797.2 948.9z" class="F G"/></g></g><path d="M1935.4 3242.4c-1.2 21.6-5.9 42.4-13.8 60.3-9.7 21.8-23.9 38.6-41.1 48.6-1.8 1-3.6 2-5.6 2.9-7.6 3.7-15.9 5.7-24.4 5.9-8.2.3-16.3-.8-25-2.1l-10.7-1.4a166.72 166.72 0 0 0-26.4-1.2l-2.4.1c-3.9.2-7.7.5-11.6 1-5.4.7-10.7 1.6-16 2.8-37.8 8.6-60.6 29-82.6 48.8-22.9 20.5-44.5 39.9-79.7 43.4l-6.9.5c-66.6 2.4-152.6-54.6-174.4-143.3l-1.1-4.8-.3-1.7-.3-1.4c-.1-.4-.2-.9-.3-1.4v-.2c-8.8-46.6 1.5-96 29-139.2 25-39.3 60.9-67.5 96.1-75.6 6.6-1.5 13.3-2.4 20-2.7 20.4-.8 37.3 5 53.7 10.5 17.1 5.8 34.7 11.7 57.4 10.9 11.3-.5 22.4-2.3 33.3-5.5 17.8-5 31.6-10.6 43.7-15.6 18-7.4 33.6-13.7 53.7-14.4 2.1-.1 4.2-.1 6.3-.1 37.1.7 75.9 27.4 102.3 69.9l374.2-87.5c2.5-11.6 11.3-20.8 22.7-23.9l1-.3c-.7-1.4-1.3-2.9-1.7-4.5-2.3-9.6 2.6-19.1 10.9-21.1.9-.2 1.8-.3 2.8-.4 7.6-.3 14.6 5.7 16.6 14.1a26.29 26.29 0 0 1 .6 3.9l36.5-9.9c-.7-1.4-1.3-2.9-1.6-4.4a19.42 19.42 0 0 1 1.1-12.8c1.8-4.1 5.5-7.2 9.8-8.4.9-.2 1.8-.4 2.8-.4 7.6-.3 14.6 5.7 16.6 14.1a26.29 26.29 0 0 1 .6 3.9l24.3-6.6c2.3-.6 4.7-1 7.2-1.1 14.1-.5 26.8 8.3 31.2 21.6.1.2.1.3.2.5.2.8.5 1.6.7 2.4l18.5 79.1c2 8.6.4 17.6-4.5 24.9s-12.6 12.3-21.2 13.7l-24.9 4.1.2.7a19.42 19.42 0 0 1-1.1 12.8c-1.8 4.1-5.4 7.2-9.8 8.4-.9.2-1.8.3-2.8.4-7.6.3-14.6-5.7-16.6-14.1-.2-1-.4-2-.5-3l-35.8 5.9c0 .1.1.3.1.4a19.42 19.42 0 0 1-1.1 12.8c-1.8 4.1-5.4 7.2-9.8 8.4-.9.2-1.8.3-2.8.4-7.6.3-14.6-5.7-16.6-14.1-.2-.9-.4-1.8-.5-2.7l-2.1.3c-1.3.2-2.7.4-4 .4-4.4.2-8.8-.6-12.9-2.2" class="G"/><path d="M1926.9 3203.7c8.5 50.1-6 116.7-49.7 141.9-32.3 18.6-51.7-1.9-103.6 4.5-93.6 11.5-107.5 87.9-178.2 95-66.6 6.6-153.1-51.4-174.4-137.9-24.8-101.1 49.3-200.6 118.2-216.3 61.9-14.1 85.9 35.3 164.7 13.1 47.1-13.3 66-30.6 101.8-29.9 55.1 1.1 110.1 63.8 121.2 129.6z" fill="#D39F52"/><path d="M1926.9 3203.7c8.4 50.1-6 116.7-49.7 141.9-32.3 18.6-51.7-1.9-103.6 4.5-93.6 11.5-107.5 87.9-178.2 95-66.6 6.6-153.1-51.4-174.4-137.9-.7-3-1.4-5.9-1.9-8.9 24.5 82 107.6 136.2 172.2 129.8 70.7-7 84.6-83.5 178.1-94.9 51.8-6.4 71.3 14.2 103.6-4.5 43.7-25.2 58.2-91.8 49.7-141.9l-.4-2.5c1.9 6.3 3.5 12.8 4.6 19.4z" fill="#C18F4D"/><path d="M2310.7 3019.8c-1.5-6.1 1.3-12.1 6.2-13.3s10.1 2.8 11.6 9-1.3 12.1-6.2 13.3-10.1-2.8-11.6-9zm65.8-17.8c-1.5-6.1 1.3-12.1 6.2-13.3s10.1 2.8 11.6 9-1.3 12.1-6.2 13.3-10.1-2.8-11.6-9z" fill="#444" class="B"/><path d="M1708.1 3237.8c-6.7-27.5 12.2-55.8 42.1-63s59.6 9.2 66.3 36.7-12.2 55.8-42.1 63-59.6-9.2-66.3-36.7z" fill="#55473B"/><path d="M1587.1 3311.3l-13.8 3.4c-4 1-8.1-1.5-9.1-5.5l-17.4-71.8c-1-4 1.5-8.1 5.5-9.1l13.8-3.4c4-1 8.1 1.5 9.1 5.5l17.4 71.8c1 4-1.5 8.1-5.5 9.1z" fill="#6B594B"/><path d="M1907.5 3153.3l419.6-98.1 19.7 84.3-419.6 98.1-3.3-42.8-16.4-41.5z" fill="#C18F4D"/><path d="M1887.1 3149.1l416.7-97.4 19.7 84.3-416.7 97.4c-1.7.4-3.5-.3-4.6-1.7l-23.6-33.4c-.6-.9-.9-2-.8-3.1l5.9-42.4c.3-1.8 1.7-3.3 3.4-3.7z" fill="#806A4A"/><path d="M2306.8 3032.3l120.3-32.6c13.5-3.7 27.4 4.3 31 17.8.1.3.1.6.2.8l18.5 79.1c1.6 6.8.3 14-3.6 19.8s-10 9.8-16.9 10.9l-124.3 20.6c-13.3 2.2-26-6.4-28.8-19.6l-14.5-67.1c-2.8-13.1 5.1-26.2 18.1-29.7z" fill="#D39F52"/><g fill="#E6E6E6"><circle cx="2328.1" cy="3054" r="5.5"/><circle cx="2393.7" cy="3035.9" r="5.5"/></g><path d="M2328 3053.9l-45.2 14.1-720 172m4.6 17.1l718-173.1 108.3-48.2" class="N O"/><g fill="#E6E6E6"><circle cx="2344.1" cy="3119.9" r="5.5"/><circle cx="2410.8" cy="3105.9" r="5.5"/></g><path d="M2344.1 3120l-48.7-.3-718.7 177.7m-4.4-20.3l718.1-172.7 120.4 1.5" class="N O"/><path d="M2458.3 3018.3l18.5 79.1c1.6 6.8.3 14-3.6 19.8s-10 9.8-16.9 10.9l-124.3 20.6c-13.3 2.2-26-6.4-28.8-19.6l-1.1-5.3c4.1 11.5 15.9 18.4 27.9 16.4l124.3-20.6c13.8-2.3 23.1-15.3 20.8-29-.1-.6-.2-1.1-.3-1.6l-16.9-72.5c.1.6.2 1.2.4 1.8z" class="D L"/><path d="M2353.9 3160.2l4.5-.8 1.9 11-4.5.8z" fill="#aaa"/><path d="M2342 3156c-1.5-6.1 1.3-12.1 6.2-13.3s10.1 2.8 11.6 9-1.3 12.1-6.2 13.3-10.1-2.8-11.6-9z" fill="#444"/><path d="M2420.8 3149.4l4.5-.8 1.9 11-4.5.8z" fill="#aaa"/><path d="M2408.6 3145.2c-1.5-6.1 1.3-12.1 6.2-13.3s10.1 2.8 11.6 9-1.3 12.1-6.2 13.3-10.1-2.8-11.6-9z" fill="#444"/><path d="M1915.6 3142.3l19.8 84.3m11.5-91.5l19.9 84.3m13.8-92l19.7 84.3m11.3-91.6l19.8 84.3m11.3-91.7l19.7 84.3m11.4-91.6l19.7 84.3m11.3-91.6l19.8 84.3m11.3-91.7l19.7 84.3m11.4-91.6l19.7 84.3m11.5-91.3l19.7 84.2m11.3-91.5l19.8 84.3m11.3-91.6l19.6 84.3" class="B D N O"/><path d="M1613.6 3252.6c-8.6.8-17.3.1-25.6-2.1-21.9-5.8-40.6-20.5-55.4-43.6-9.2-14.4-15.9-30.2-19.9-46.8-9.4-40 1-76.7 28.4-100.7 23.7-20.8 58.2-23.9 85.2-7.6s40.5 48.1 33.2 78.8a72.68 72.68 0 0 1 15 75.2c-9.8 26-33.4 44.1-60.9 46.8z" class="C E I"/><path d="M1654.3 3235l-4.4 3.6c-1 .8-1 .8 0 0l-2.2 1.6-2.2 1.5-2.8 1.7-1.9 1-.3.2-2.1 1.1-1.2.6-1.3.6-1.2.6-1.2.5-3.8 1.4-1.3.4-1.2.4-2.4.7-1.4.3-1.6.4c-2.7.6-5.4 1-8.1 1.3-8.6.8-17.3.1-25.6-2.1-21.9-5.8-40.6-20.5-55.4-43.6-1.3-2-2.6-4.1-3.8-6.3l-3.7-6.8-1.8-3.7a161.65 161.65 0 0 1-9.9-27l-.8-3c-1.3-5.6-2.2-11.2-2.8-16.9-.1-.9-.2-1.8-.2-2.6 0-.4-.1-.8-.1-1.2-.1-1-.1-1.9-.2-2.8 0-.7 0-1.5-.1-2.2v-6.5l.3-5.1c0-.5.1-.9.1-1.4.1-1.3.3-2.7.5-4 .1-.6.2-1.2.2-1.8.5-3.6 1.3-7.1 2.2-10.6l.4-1.4c.3-1.2.7-2.3 1-3.4.2-.6.4-1.1.6-1.6l.7-2c.3-.7.5-1.4.8-2.1.8-2 1.7-4 2.6-6 5.4-11.1 12.9-21 22.2-29.1 3.9-3.4 8.1-6.4 12.7-8.9v.2c-10.4 20.9-9.3 65.4-3 92 4 16.6 10.7 32.4 19.9 46.8 14.8 23.1 33.5 37.8 55.4 43.6 8.3 2.2 17 2.9 25.6 2.1 1-.3 1.9-.4 2.8-.5z" class="D F"/></g><defs><path id="A" d="M1784.1 2081.4c0 75.3 98.6 166.6 215.7 165.6 107.9-.9 213.2-91.2 213.2-165.4 0-59.7-124.2-112.2-213.2-111.4-82.7.7-215.7 40.6-215.7 111.2z"/><path id="B" d="M2212.9 2101.6c0 74.2-105.2 164.5-213.2 165.4-117.1 1-215.7-90.4-215.7-165.6 0-2.9.2-5.9.7-8.8 9 72.8 103.6 155.4 215 154.4 102.4-.9 202.3-82.2 212.4-153.9.5 2.8.8 5.6.8 8.5z"/></defs></svg>