<svg fill="none" height="620" viewBox="0 0 512 620" width="512" xmlns="http://www.w3.org/2000/svg"><clipPath id="a"><path d="M0 0h512v620H0z"/></clipPath><g clip-path="url(#a)"><path d="M298.6 510c-7.8-1.1-17.8-5-30.5-11.7a4 4 0 0 1-1.6-5.3 4 4 0 0 1 5.3-1.6 94.1 94.1 0 0 0 28 11c4.4.6 7.7.1 9.6-1.5 2-1.9 1.9-5.1 1.3-11.2-.6-7.2-1.4-16 3-26.3 7-15.5 23.9-30.2 41.8-27.4 11.4 1.8 22.3 10.3 24.8 21.8 2 9.8-1 23.3-11.4 27-7 2.5-15-.3-20.3-5a4 4 0 0 1-.5-5.4 4 4 0 0 1 5.5-.4s6.8 5.6 12.6 3.5c6.7-2.4 7.7-12.2 6.5-18-1.8-8.5-10.2-14.6-18.4-15.8-14.4-2.3-28 10.6-33.4 22.8-3.7 8.4-3 15.9-2.5 22.5.7 6.8 1.2 13.2-4 17.7-4.2 3.8-10.3 4.2-15.8 3.3z" fill="#6c9eff" stroke="#333" stroke-miterlimit="10" stroke-width=".8"/><path d="M378 459.7c1.7 7.9.2 17.7-5.9 23.6 8-5.3 10.1-16.7 8.2-25.5-2.5-11.5-13.4-20-24.7-21.8a36 36 0 0 0-28.2 9.5c17.7-12.6 45.5-9.4 50.6 14.2z" fill="#000" fill-opacity=".2"/><path d="M367.3 477.1c-4.2 4.9-11.7 2.4-16-1.3a3.9 3.9 0 0 0-3.5-.7 3.9 3.9 0 0 1 6-1c3.3 3 9.2 5.3 13.5 3zM267.5 492c.5-.5 2.4-1.5 3.5-1l3.9 2c7.6 3.7 19.7 9.7 28.5 9.7 7.7 0 8.4-3.9 7.3-14.1l.5 2c1.5 5.8 3.7 14.6-7.8 14.6-12.7 0-32.4-11-36-13.3z" fill="#000" fill-opacity=".2"/><path d="M192 487.8c5.6 0 10.2-5 9.6-10.6a47.1 47.1 0 0 1 10.2-30.8c6.7-9.3 13.9-14.4 8.3-20.5-5.5-6-17.9.6-24 9.3a65.6 65.6 0 0 0-13.8 44c.5 4.8 4 8.6 9.7 8.6z" fill="#6c9eff" stroke="#333" stroke-miterlimit="10" stroke-width=".8"/><path d="M186.7 474.2c0-17.4 14-43 30.3-50.3-20.2-3.2-38 36.2-34.5 54.6 1-1.9 3-3.7 4.2-4.3z" fill="#000" fill-opacity=".1"/><path d="M249.7 534.2c.8-13.5 4.3-24 7.3-32s6.6-22.5-6.6-25.8c-18.8-4.7-29.2 39.4-30 52.9-.4 7.9 5.8 17 13.8 17.5 7.3.4 15-4.9 15.5-12.6z" fill="#6c9eff" stroke="#333" stroke-miterlimit="10" stroke-width=".8"/><path d="M220.3 529.2c8-1 23-1 29.2 5.3l.2-2.3c-6.5-5.7-21.4-6.1-29.1-5l-.3 2zM222.8 515.4a49.3 49.3 0 0 0 27.5 12.1l.4-2.6a49.6 49.6 0 0 1-27.3-12.5l-.7 3z" fill="#000" fill-opacity=".1"/><path d="M262.3 534.2c-.8-13.5-4.2-24-7.3-32s-6.6-22.5 6.6-25.8c18.8-4.7 29.2 39.4 30 52.9.4 7.9-5.8 17-13.8 17.5-7.3.4-15-4.9-15.5-12.6z" fill="#6c9eff" stroke="#333" stroke-miterlimit="10" stroke-width=".8"/><path d="M291.7 529.2c-8-1-23-1-29.2 5.3l-.2-2.3c6.5-5.7 21.4-6.1 29.1-5l.3 2zM289.3 515.4a49.3 49.3 0 0 1-27.6 12.1l-.4-2.6a49.6 49.6 0 0 0 27.3-12.5c.3.9.5 2.3.6 3z" fill="#000" fill-opacity=".1"/><path d="M320 487.8c-5.6 0-10.2-5-9.6-10.6.8-9.9-2.9-20.5-10.2-30.8-6.7-9.3-13.9-14.4-8.3-20.5 5.5-6 17.9.6 24 9.3a65.6 65.6 0 0 1 13.8 44c-.5 4.8-4 8.6-9.7 8.6z" fill="#6c9eff" stroke="#333" stroke-miterlimit="10" stroke-width=".8"/><path d="M325.3 474.2c0-17.4-14-43-30.3-50.3 20.2-3.2 38 36.2 34.5 54.6-1-1.9-3-3.7-4.2-4.3z" fill="#000" fill-opacity=".1"/><path d="M431.6 284c17.3 15.8 10.3 48-1.4 66.2-16.6 26-54.8 42.4-74.3 28.6-20.4-14.5-17.7-60 6.1-83.6 17.8-17.7 51.8-27.6 69.6-11.2z" fill="#f7c394" stroke="#333" stroke-miterlimit="10" stroke-width=".8"/><path d="M411.5 302.6c10.3 10.6 4.7 30.5-3.3 41.5-11.4 15.7-36 24.6-47.7 15.2-12.3-9.9-9-38.3 6.9-52.3 11.8-10.4 33.6-15.3 44.1-4.4z" fill="#ffc9a1"/><path d="M430.2 350.2a76.9 76.9 0 0 1-53.7 33.6c16.5-3.9 40.3-20.8 47.5-32 11.7-18.3 18-52.6 1.4-66.3-5-4.1-17.7-10-35.2-7 21.3-6.6 34.5-1 41.4 5.5 17.3 15.8 10.3 48-1.4 66.2z" fill="#000" fill-opacity=".1"/><path d="M80.4 284C63 299.8 70 332 81.8 350.2c16.6 26 54.8 42.4 74.3 28.6 20.4-14.5 17.7-60-6-83.6-17.9-17.7-52-27.6-69.7-11.2z" fill="#f7c394" stroke="#333" stroke-miterlimit="10" stroke-width=".8"/><path d="M100.5 302.6c-10.3 10.6-4.7 30.5 3.3 41.5 11.4 15.7 36 24.6 47.7 15.2 12.3-9.9 9-38.3-6.9-52.3-11.8-10.4-33.6-15.3-44.1-4.4z" fill="#ffc9a1"/><path d="M81.8 350.2a76.9 76.9 0 0 0 53.7 33.6c-16.5-3.9-40.3-20.8-47.5-32-11.7-18.3-18-52.6-1.4-66.3 5-4.1 17.7-10 35.2-7-21.3-6.6-34.5-1-41.4 5.5-17.3 15.8-10.3 48 1.4 66.2z" fill="#000" fill-opacity=".1"/><path d="M256 395c23.9 0 34.1 20.9 40.3 38s9 34.2 9 45.3A50 50 0 0 1 256 526c-27.2.2-49.3-24-49.3-47.6a142 142 0 0 1 9-45.2c6.2-17.2 16.4-38.2 40.3-38.2z" fill="#6c9eff" stroke="#333" stroke-miterlimit="10" stroke-width=".8"/><path d="M256 526a50 50 0 0 1-49.3-52.3 49.4 49.4 0 0 0 49.3 44.5 49.8 49.8 0 0 0 49.3-44.5c1.9 27.9-22 52-49.3 52.2z" fill="#000" fill-opacity=".1"/><path d="M256 414.2a26.4 26.4 0 0 1 27 19.8c5.3 23 9.9 42.5.6 54.3S262.6 501 256 501c-7.4 0-18.3-1-27.6-12.8s-5-30 .6-54.2a26.4 26.4 0 0 1 27-19.8z" fill="#f7c394" stroke="#333" stroke-miterlimit="10" stroke-width=".8"/><path d="M256 501c-21 0-34.7-14.6-33-33.5.6 17.8 14.9 29.4 33 29.4s32.4-11.6 33-29.4c1.7 18.9-12 33.5-33 33.5zM317.2 436.8c-17.9 7-42 12.2-61.2 12.2s-40.2-4-61.2-12.2l-3.6 5.7c22 8.9 42.6 13.4 64.8 13.4s42.8-4.5 64.8-13.4l-3.6-5.7z" fill="#000" fill-opacity=".1"/><path d="M333.6 130c6.5-5.5-19.3-11.7-22.8-21.6-4.1-11.8 61.4 19.7 51.4 40.5-.7 1.6-8.6 14.6-64.7-3.7 61.7 20 108.4 62.5 108.2 141-.1 60.3-54.2 153.7-149.8 154.5-92.1.8-149.8-92.4-149.6-154.4.2-75.7 67-153.6 149.7-159.4 49.5-3.5 72.1 7.7 77.5 3.1z" fill="#6c9eff" stroke="#333" stroke-linecap="round" stroke-linejoin="round" stroke-width=".8"/><path d="M343.6 133.5c-4.6 10.1-32.8-6.2-82.3-2.7-101.3 7.1-174.7 119.5-134 210.6 10.5-10.9 23.4-14 27.5-15.3 1.2 1.3 2.7 2.7 3.2 3.4-12.6 3.9-27.2 12.4-33.5 24.3a151 151 0 0 1-18.1-67.5c.2-75.7 67-153.6 149.7-159.4 49.5-3.5 72 7.7 77.5 3.1 6.5-5.5-19.3-11.7-22.8-21.6-1.3-3.8 4.5-3.1 12.7.2-3.1-.4-4.8.3-4 2.5 3 7.8 28 14 24.1 22.4z" fill="#000" fill-opacity=".1"/><path d="M405.5 286.3c0 19.8-6 43.2-17.1 65.6a64 64 0 0 0-34.6-22.2l3.1-3.8c3.6.8 20 4.3 29 16.4a140.8 140.8 0 0 0 13.5-57.4c.2-81.3-54.8-121.7-101.9-139.7 61.7 20 108.2 62.5 108 141.1z" fill="#000" fill-opacity=".1"/><path d="M213.4 186.5c-46 0-103.1 97.5-56.4 142.4-89.2 28 0 120.8 99 120.8s188.2-92.9 99-120.8c46.7-45-10.3-142.4-56.4-142.4-19.6 0-30.3 9.1-42.6 18.1-12.3-9-23-18-42.6-18z" fill="#ffcd98" stroke="#333" stroke-width=".8"/><path d="M372.1 281.6c-2.4-47.8-41-95-74.6-95-20.9 0-33.5 12.7-41.5 18-6.4-4.3-20.5-18-41.6-18-39.6 0-74.1 57.8-74.7 96.5-3.5-41.6 28.4-104 75-104 24.1 0 37 11.5 41.3 16.4a54.2 54.2 0 0 1 41.4-16.5c46.1 0 78 59.2 74.7 102.6zM124 351.3c-21 38 51.9 98.3 132 98.3s154-61 131.7-98.9c14.8 34.7-55.6 93-131.7 93-75.6 0-145.7-57.6-132-92.4z" fill="#000" fill-opacity=".1"/><path d="M139.8 280.1a60.2 60.2 0 0 0 17.3 48.7c-1.6.5-3.2 1.2-4.7 1.8 3.5-1.1 6.8-2 10.6-2.6a81.1 81.1 0 0 1-23.2-47.9zM360 330.6c-3.4-1-7-1.9-11-2.6a81.3 81.3 0 0 0 23.3-48.4c1.2 18.4-3.6 36-17.3 49.2l5 1.8z" fill="#000" fill-opacity=".1"/><path d="M218.7 217.5c24 2.8 41.4 32.3 38.8 58.4-2.5 26-25.2 53-51.1 50-23.6-2.6-38.8-28.8-39.3-50.8-.7-29.5 24.9-60.7 51.6-57.6z" fill="#fff"/><path d="M247.9 283c3.4-17.8-6.1-34.5-21.3-37.4-15.2-3-30.3 9-33.8 26.6s6.2 34.4 21.4 37.3c15.2 3 30.3-9 33.7-26.6z" fill="#ac6edd" stroke="#333" stroke-miterlimit="10" stroke-width=".8"/><path d="M222 301c9.2 0 16.5-8.3 16.5-18.4 0-10.2-7.3-18.4-16.4-18.4s-16.4 8.2-16.4 18.4c0 10.1 7.3 18.3 16.4 18.3z" fill="#000"/><path d="M236.6 269.7a6.4 6.4 0 0 0-4.1-8 6.4 6.4 0 0 0-8.3 3.7 6.4 6.4 0 0 0 4.1 8 6.4 6.4 0 0 0 8.3-3.7z" fill="#fff" stroke="#333" stroke-miterlimit="10" stroke-width=".8"/><path d="M230.6 221.2c-31.7-8.7-58 28.9-57.4 57a58 58 0 0 0 23.6 45.2c-18-7.5-29.3-29.5-29.7-48.3-.7-29.5 24.9-60.7 51.6-57.6 4.2.5 8.2 1.7 11.9 3.7z" fill="#000" fill-opacity=".1"/><path d="M234.9 248.9c-17.5-5-33 10-36.2 26.4a33.4 33.4 0 0 0 11.2 33c-12.7-5-20.1-20-17-36 3.4-17.7 18.5-29.6 33.7-26.7 3 .6 5.7 1.7 8.3 3.3z" fill="#000" fill-opacity=".1"/><path d="M292.3 216.8c-24 3.2-40.8 33.1-37.8 59.1 3 25.9 26.2 52.6 52 49.2 23.5-3.1 38.3-29.6 38.4-51.6.2-29.5-26-60.2-52.6-56.7z" fill="#fff"/><path d="M298.4 308.9c15.2-3.2 24.4-20.1 20.7-37.7-3.7-17.6-19-29.3-34.2-26-15.1 3.1-24.4 20-20.7 37.6 3.8 17.6 19 29.3 34.2 26z" fill="#ac6edd" stroke="#333" stroke-miterlimit="10" stroke-width=".8"/><path d="M290.4 300.3c9-.1 16.3-8.5 16-18.6 0-10.1-7.6-18.2-16.7-18-9 0-16.2 8.4-16 18.6s7.6 18.2 16.7 18z" fill="#000"/><path d="M300.7 273.5c3.4-1.3 5.2-5 4-8.2a6.4 6.4 0 0 0-8.4-3.6 6.4 6.4 0 0 0-4 8.2c1.3 3.3 5 4.9 8.4 3.6z" fill="#fff" stroke="#333" stroke-miterlimit="10" stroke-width=".8"/><path d="M345 273.5c-.2 19.1-11.3 41.6-29.7 49.2a57.5 57.5 0 0 0 23.7-46.1c.2-28.5-28-66.9-59.8-55 4-2.5 8.4-4.1 13-4.8 26.8-3.5 52.9 27.2 52.7 56.7z" fill="#000" fill-opacity=".1"/><path d="M301.7 307.9c9.5-6.8 14.4-20 11.5-33.7-3.5-16.3-19.6-31.2-37-25.4 2.6-1.8 5.6-3 8.7-3.7 15.2-3.2 30.5 8.4 34.2 26 3.5 16.3-4.2 32-17.4 36.8z" fill="#000" fill-opacity=".1"/><path d="M242 551.2c5 0 9.8-3.7 10.4-8.7 1.4-12.8-14.6-14-23.4-14.1-8.8-.2-23.8 1.5-26.5 11.2-2.3 8.5 5.7 11.6 11.3 11.6 5.7 0 7.6-1.9 14.5-1.9 6 0 8.8 1.9 13.7 1.9z" fill="#f7c394" stroke="#333" stroke-miterlimit="10" stroke-width=".8"/><path d="M241.9 547.8c-5 0-7.8-2-13.8-2-6.8 0-8.8 2-14.4 2-4.4 0-10.2-1.9-11.5-6.7-1 7.3 6.3 10 11.6 10 5.7 0 7.6-1.8 14.5-1.8 6 0 8.8 1.9 13.8 1.9 6.6 0 11.3-5.3 10.2-12.5-.5 5.2-5.3 9-10.4 9z" fill="#000" fill-opacity=".1"/><path d="M270 551.2c-5 0-9.8-3.7-10.4-8.7-1.4-12.8 14.6-14 23.4-14.1 8.8-.2 23.8 1.5 26.5 11.2 2.3 8.5-5.7 11.6-11.3 11.6-5.7 0-7.6-1.9-14.5-1.9-6 0-8.8 1.9-13.7 1.9z" fill="#f7c394" stroke="#333" stroke-miterlimit="10" stroke-width=".8"/><path d="M270.1 547.8c5 0 7.8-2 13.8-2 6.8 0 8.8 2 14.4 2 4.4 0 10.2-1.9 11.5-6.7 1 7.3-6.3 10-11.6 10-5.7 0-7.6-1.8-14.5-1.8-6 0-8.8 1.9-13.7 1.9-6.7 0-11.4-5.3-10.3-12.5.5 5.2 5.3 9 10.4 9z" fill="#000" fill-opacity=".1"/><path d="M194.2 505.3c8.8 0 14.4-10.6 9.1-17.9 2.5-7-2.8-14.8-10.3-15-8.7-.2-13.7 9.1-12.8 17 .8 7.3 5.8 15.9 14 15.9z" fill="#f7c394" stroke="#333" stroke-miterlimit="10" stroke-width=".8"/><path d="M180.2 489.4c1 9 8.4 19.6 19.4 14.5-10.7-1.4-18.1-19.4-12.9-29.7-.8.6-2.1 1.3-4.2 4.2-2 3.4-2.8 7.2-2.3 11zM222.7 325.3c0 11.9 15.3 26.2 33.5 26 16.8 0 33.1-14.3 33.1-26 0-23.5-66.6-23.9-66.6 0z" fill="#000" fill-opacity=".1"/><path d="M222.2 322.6c0 11.8 15.5 26.1 34 26 17-.2 33.6-14.3 33.6-26 0-9.4-19.6-17.6-33.6-17.5-13 .1-34 6.4-34 17.5z" fill="#7a5d43"/><path d="M222.5 320.5a43.2 43.2 0 0 0 33.7 15.5 45.1 45.1 0 0 0 33.2-15.7c.3.8.4 1.5.4 2.3 0 11.6-16.6 25.8-33.6 26-18.5.2-34-14.2-34-26 0-.7 0-1.4.3-2.1z" fill="#000" fill-opacity=".2"/><path d="M317.8 505.3c-8.8 0-14.4-10.6-9.1-17.9-2.5-7 2.8-14.8 10.3-15 8.7-.2 13.7 9.1 12.8 17-.8 7.3-5.8 15.9-14 15.9z" fill="#f7c394" stroke="#333" stroke-miterlimit="10" stroke-width=".8"/><path d="M331.8 489.4c-1 9-8.4 19.6-19.4 14.5 10.7-1.4 18.1-19.4 12.9-29.7.8.6 2.1 1.3 4.2 4.2 2 3.4 2.8 7.2 2.3 11zM347.2 360.3c3.2 2.3 4 7.6 1.1 10.5-.6.6-2 .1-1.8-.8a18 18 0 0 0-1-8.5c-.2-.9.8-1.8 1.7-1.2zM163.8 382.2c-2.8 2.8-2.5 8.2.8 10.5.7.5 2-.3 1.6-1.2a18 18 0 0 1-.6-8.4c.1-1-1-1.7-1.8-1z" fill="#000" fill-opacity=".1"/><path d="M339.4 359.3c3.5 3.7 4 9.9 1 14.1-.8 1.3-2.8.3-2.4-1.2.3-1.5.5-3 .5-4.6-30.5 4.7-61.2 8.7-92 12.1-23.6 2.6-50 5.7-72.3 7.3.2 1.7.7 3.4 1.3 5 .6 1.3-1.2 2.5-2.3 1.4a11.7 11.7 0 0 1-1.2-14.1c1-1.3 2.7-.3 2.5 1.1l-.5 3.7c23.6-4 48.1-6.8 72-9.5 30.8-3.4 61.5-6.5 92.2-10a26 26 0 0 0-1.1-3.9c-.5-1.4 1.3-2.5 2.3-1.4z" fill="#634b37"/><path clip-rule="evenodd" d="m273 424 23.1 2.6c.8.1 1.4 1 1.3 1.8l-2.6 22.3c-.3 2.2-2.8 2.8-4.7 2.5-4.6-.3-17.3-1.6-27.2-2.7l.2.2 46.4 5.1.7 2.8c0 .5.1 1.1.7 1.2.7 0 .8 0 .9-1l.3-2.7 1.6.2.7 3.1c.3.9 1.4 1.3 1.6.2l.4-3 1.6.2c.3 1.2.3 2 .7 3.4.2.8 1.4 1 1.5 0l.4-3.1 1.6.1.8 3.7c.1.7 1.3.7 1.4.2l.4-3.6 1.6.2c.3.9.5 2.4.7 3.5.2.7.4.8.8.9.7 0 .8-.8.9-1.4l.3-2.7 1.6.2.8 3.7c.1 1 1.5.8 1.5.3l.4-3.7 1.5.2.8 3.6c.3 1.2 1.5 1 1.5.4l.5-3.7c.8 0 1.5.2 1.8 1 .2-.4.6-.5 1-.5l10.7 1.5c.8 0 1.5 1.3 1.7 2 1 .2 5.9 3.3 9.6 7 3.3.3 9.2.7 13 .7.8-3.2 2-5.4 3-5.2l37 4.8c1 0 1.6.7 2 1.4 2.2 6 1.7 13.4-2.4 18.5-.5.6-1.3 1-2.1.9l-37.2-4.9c2.2.3 7.7 1 0 0-.7 0-1.2-1.1-1.4-2.9l-3.1-.4c-.4 0-.4-.5-.4-.8-1.6-.2-6-.9-7.4-1.3l-.3 1.5c-.4 1-.5 2.2-.5 3-.1 2.2-.6 5.6-1.4 7.8-.1.4-.8 1-2 1l-.1 2.8c-8.7-.8-17.4-2-26-3.2l-2.8 3.9c-9.8-1.9-19.2-3-29-4.2l-3-.4-.2-.6-3.3-.4.1.6-4.1-.5-.2-.6-3.3-.4.2.6-4-.5-.1-.6-3.4-.4.2.6-4.2-.5-.1-.6-3.4-.4.2.6-15-1.8-1-.2-.2-.5-3.4-.4.2.5-4.2-.5-.1-.5-3.4-.4.2.5-9.1-1c-1.2 2.4-5.6 3.4-8.6 4-2.1.6-4.5.8-6.3-.7-1.5-1.2-7.9-1.8-7.9-1.8-4.2 2.8-4.3 3-4.5 7.8-.5 1.4-2.3 1-3.5 1.8-1 .7-7 7.9-7.3 8.7-.7 1.8-.8 3.4 0 5 .6 3.3-1.6 3.4-4.2 3.5-.6 0-15-7.7-15.5-8.2-.4-.6-.2-2.8.1-3.9 1.3-1 1.8-1.2 2-1.6.4-.7.2-2 .3-2.8.3-1.1 6.3-9 13-11.4 2.8-1 5.3-6.3 4.7-10a14 14 0 0 0-4.7-7.4c-.8-.2-1.5 0-1.9-.4-.7-.7-.8-2-1.6-3.3-.1-.2-1.3-.7-2.6-1.3-1.4.2-2.9-.2-4-1.1-3 1.2-21.5 9.5-22.6 10.3-1.1.9-16.9 15.7-17.2 15.8l-5.1-.6c-.2.5-2 2-2.4 2.1-.2.1-2.9-.4-4.2-.9a3.2 3.2 0 0 1-5.4-3.4l-1.8-2.2c-.9-1.3-1.8-1.1-3.3-1.6-.8-.2-1.2-1-1-1.8l4.6-41.6c.2-1.1 1.2-2 2.3-1.9l11.6 1.3c2-7 4.2-20.8 55.2-12.5-.3-1.5.1-3.6 2.7-4.4 3.3-1 4.7 1 5.2 2.4.6 1.6.2 2.7-.8 3.7l1.4.2c.1-.7.3-1.4.6-2 .2-.6.8-1 1.4-.9l4.2.6a15 15 0 0 1 3.2-6 5 5 0 0 1 4.3-1.5l45 5.1v-.2c.6-.5 9.7.7 10.5 1.1l.4.4zm-16.5 23.7-6.2-.8.7.5c.4.1 4.4.4 5.5.3zm-11.3-1.4-30.6-3.6a5 5 0 0 1-3.7-2.6c-1-1.7-1.5-3.7-1.8-5.8l-4.8-.6c-.9-.1-1.4-1.2-1.4-2l-6-.9c0 .2-.3.4-.7.4-8.7-.9-47.7-9-50 7.8.8.6 1.5 2.7 1.9 2.8l8.8 1.1c-.3 0-1.1-.2-1.1-.5 8.4-4.4 32.5.7 51.1 2.3l.5-.7h.5l41.7 4.7-2.2-1.6-2-.1-.2-.7zm128.2 33.5-1.7-.3c-.3 0-.4.4-.5.6l-5.4-1 .7-.8 6.9 1.5zM220 485.6c-3.4-2.7-1.5-7.9 2.4-8.9l4.2.3-2 8.2c0 .3.2.7.5.8.7.2 2.7.4 3-.7l1.7-8 2.9.4c3.4.6 3.1 6.2 1.1 8-1.7 1.8-4.2 2.3-6.4 2.5-3 .4-4.9-.3-7.4-2.6zm-85.9-2.5 4.1-21.3c.1-.3.4-.5.7-.3l18 9.4c.4.3.5.9.1 1.2l-12.9 12.7-10-1.7zm38.4-19c-11-2.3-18.5-3-29.1-4.8-.8 0-1.1 1-.5 1.4l16.7 9c3.7-1.8 8.6-3.8 13-5.5z" fill="#ff6a6a" fill-rule="evenodd" stroke="#333" stroke-width="1.6"/><path d="m196.6 430.4 9.1 1.2.5-3.9-9-1.2z" fill="#695624"/><path d="m196.9 428.6-.3 2.2 6.6.8.2-2.1z" fill="#5b4920"/><path d="m139.8 438 6.4 1c2.2-16.8 41.2-8.7 50-7.8 1.6.2 2-5.1.9-5.3-53.1-9-55.3 5-57.3 12.2z" fill="#161719"/><path d="M146.2 439c2.2-16.8 41.2-8.7 50-7.8.7 0 1.2-1 1.4-2.2-.2.2-.3.2-.5.2-9.2-1-50.3-9.2-52.7 9.5.5.1 1.1.3 1.8.3z" fill="#09090a"/><path d="m230.3 475.1-2.3 10.2c-.2 1-2.2 1-2.9.7a.7.7 0 0 1-.4-.8c.5-2 2.2-8.9 2.3-10.8.1-2.2 3.3.7 3.3.7z" fill="#c1c1c1"/><path d="M225 486c.7.4 2.8.3 3-.7l2.3-10.2c-1.5-1.4-3.9-2.3-1.5-.2l-2.3 10.2c-.1.6-1 .8-1.5.9z" fill="#a5a5a5"/><path d="m325.4 495.7-82.3-10-3-15.1 83.2 10z" fill="#161719"/><path clip-rule="evenodd" d="M121.2 480.2c0 .8.3 1.6 1.1 1.8 1.5.5 2.4.3 3.3 1.6.6.8 1.4 2 2.2 2.7-.6 3.9 2.7 4 4.4 2.8.6.2 4.7 1 5 .9s2-1.5 2.2-2l5.1.6c.3 0 16-15 17.2-15.8 1.1-.9 22.4-10.3 22.9-10.4.5-.1 6 2 6.3 2.5s1.3 3.1 1.5 3.3l2 .5a14 14 0 0 1 4.7 7.3c.6 3.7-2 9-4.8 10a29.8 29.8 0 0 0-12.9 11.4c-.2 1.9-.1 2.4-.4 2.8-.1.4-.6.6-1.9 1.6-.3 1-.5 3.3-.1 3.9.5.5 15 8.1 15.5 8.2 2.6 0 4.8-.2 4.3-3.4a6.2 6.2 0 0 1-.1-5c.2-1 6.3-8 7.3-8.8 1.2-.8 3-.4 3.5-1.8.2-4.9.3-5 4.5-7.8 0 0 6.4.6 7.9 1.8 1.8 1.5 4.2 1.3 6.3.8 3-.7 7.4-1.7 8.6-4.1l9 1-2.7-10.8c-.6-2.1 2.4-3.3 3-1.1l3.1 12.3 4.2.5c-.5-1.6-2.4-9.3-3-11-.4-2 2.6-2.8 3.1-.9l3.2 12.3 16 2-3-12c-.5-1.9 2.5-2.7 3-.7l3.4 13.1 4.2.5-3.1-11.9c-.5-1.9 2.6-2.7 3-.8l3.4 13.1 4 .5-3.1-11.8c-.5-2 2.6-2.8 3-.8l3.4 13 4.1.5-3-11.8c-.5-2 2.5-2.7 3-.7l3.4 13 28.4 3.4.5.7 3.1.4 2.8-3.9c8.9 1.2 17.3 2.4 26 3.2.8-9.2-2.6-19.8-4-28.7C305 461.6 197.5 448 148 441.8c-.4-.2-1.4-3-2.2-3l-17.7-2c-1.1-.2-2.1.7-2.3 1.8zm101.2-3.5c-3.9 1-5.8 6.2-2.4 8.9 2.5 2.3 4.3 3 7.4 2.6 2.2-.2 4.8-.7 6.4-2.4 2-2 2.3-7.5-1.1-8.1-1.5-.2-9.5-1.1-10.3-1zm-84.2-15-4.1 21.4 10 1.7 13-12.7c.3-.3.2-1-.2-1.2l-18-9.4a.5.5 0 0 0-.7.3zm34.3 2.5c-1.8.6-10.4 4.3-13 5.5l-16.6-9c-.6-.4-.3-1.5.5-1.4l20.6 2.9 8.5 2z" fill="#292c31" fill-rule="evenodd"/><path d="m377.8 486.5 35.2 4.6c.8 0 1.6-.3 2.1-.9 1.1-1.4 3-4.2 3.5-8.7a20 20 0 0 0-1.2-9.8c-.3-.7-1-1.3-1.8-1.4l-35.2-4.6s2.5 1 1.2 10.7-3.8 10.1-3.8 10.1z" fill="#262827"/><path d="M379.7 476.2c.7-5.7.2-10.5-1.3-10.7-1.4-.2-3.2 4.3-4 10-.6 5.8 0 10.6 1.4 10.7 1.4.2 3.1-4.3 3.9-10z" fill="#b8a98a"/><path d="M360.5 470c2.3 0 14.6 1.1 17.7.4.4 2.8-.6 9.4-1.6 10.5-2.4-1.5-12.7-2.7-13.1-3.6l-3-7.3z" fill="#b8a98a"/><path d="m362 473.7 1.5 3.6c.4 1 10.7 2 13.1 3.6.4-.5.9-2 1.2-3.7-3.6-1.4-13-2.6-15.8-3.5z" fill="#a89a80"/><path d="M372.1 480.2c-.9 0-6.8-1.2-7.3-1.4s-1.8 1.4-1.8 1.7 7.3 1.6 8.4 1.6c1 0 .7-2 .7-2z" fill="#252a28"/><path d="M363 480.5c0 .4 7.3 1.6 8.4 1.6.7 0 .8-.8.8-1.4-.1.3-.3.5-.7.5-1 0-6.7-1-8.1-1.4l-.4.7z" fill="#191c1b"/><path d="m339.9 464.1 10.7 1.4a1 1 0 0 0 1.2-.9l.3-2.5a1 1 0 0 0-1-1.2l-10.6-1.4a1 1 0 0 0-1.2 1l-.3 2.4a1 1 0 0 0 .9 1.2z" fill="#a5a5a5"/><path d="m339.2 460.6-.3 3c-.4 2.8 12.5 3.5 12.8 1.7l.3-3c0 .5-.6 1-1.2.8l-10.7-1.3a1 1 0 0 1-1-1.2z" fill="#939393"/><path d="m342.6 464.5 1 .2c.3 0 .5-.1.5-.3l.4-3.4c0-.2-.1-.4-.3-.4l-1-.2c-.3 0-.5.1-.5.3l-.4 3.4c0 .2 0 .4.3.4z" fill="#292c31"/><path d="M283.1 468.1c.3.3 2.8 4 3.3 4s55.6 6.6 56.2 6.8 4.6 13.6 5.4 13.7l11.1 1.4c1.7.2 2-.5 2.2-.8.3-.4 1.5-6.7 1.4-8 0-.8-.3-2 .3-2.7.5-.6.3-1.6.6-2.3.2-.3 3-1 3-2.6z" fill="#d8d8d8"/><path d="m354.1 484.1 8.7 1.2c0-1.2 0-2 .4-3l-8.7-1c-1.8-.1-2.2 2.6-.4 2.8z" fill="#c4c4c4"/><path d="M156 442.6c6 2.1 10.5 4 14.2 9.7.4.7 1.4 1.4 2 1.4 9.5 1.3 13.4 1.7 21 3.8 1 .2 89.6 10.4 90 10.6l83.5 9.5c.3-5.9-12.2-14.3-13.8-14.6-.2-.8-.2-1-1.2-1-.1 0-.1 2.4-.4 2.4-2.3 0-9.9-.3-11.7-1.7.3-3.6-.8-3.5-2-3.7l-.4 3.7c0 .6-.6.8-1 .8-1-.1-1-4.6-1.3-4.8l-1.5-.2-.4 3.7c0 .5-.7.6-1 .6-.8-.1-1.1-4.3-1.3-4.6l-1.6-.2-.4 3.6c0 .5-.7.8-1 .8-.8-.1-1.1-4.4-1.3-4.7l-1.6-.2-.4 3.5c0 .6-.7.6-1 .6-.9-.1-1-4-1.2-4.4l-1.6-.1-.4 3.4c0 .6-.8.6-1.1.5-1-.4-1-4-1.1-4.2l-1.6-.2-.4 3.4c0 .5-.8.3-1.1.3-.8-.3-1-3.7-1.2-4l-1.6-.2-.3 3.3c-.1.6-.8.6-1.2.5-.8-.3-.9-3.8-1-4l-46.5-5.2-.6-.6c-18.4-1.9-36.7-4-55-6.1l-.6.7c-2.3.4-46-7.2-51-2.1z" fill="#e9e9e9"/><path d="M359.3 473.1a1.6 1.6 0 1 0 0-3.2 1.6 1.6 0 0 0 0 3.2zM354.8 472.2a1.6 1.6 0 1 0 0-3.2 1.6 1.6 0 0 0 0 3.2zM356.5 475.8a1.6 1.6 0 1 0 0-3.2 1.6 1.6 0 0 0 0 3.2z" fill="#d6d6d6"/><path d="M348.1 479.1a1.3 1.3 0 1 0 0-2.6 1.3 1.3 0 0 0 0 2.6zM293.4 472.5a1.3 1.3 0 1 0 0-2.6 1.3 1.3 0 0 0 0 2.6z" fill="#252a28"/><path d="m300 472.6 42.8 4.9 1.6-2.4-46.2-5.3z" fill="#a5a5a5"/><path d="m207 459.1 76.1 9-3.3-4.4-69.8-8z" fill="#bfbfbf"/><path d="m377.8 486.5 35.2 4.6c.8 0 1.6-.3 2.1-.9a17 17 0 0 0 3.4-7.7l-37-4.7c-1.4 8.5-3.7 8.7-3.7 8.7z" fill="#181919"/><path d="m327 496.8.3.4 3 .4 2.9-3.9 9.1 1.2 16.7 2.2.3-.3v-1.9l-27-3.4-2.5 3.6-3-.4-.6-.7-28.6-3.5.8 2.5 28.5 3.8zM295 492.6l-4.1-.5-.7-2.5 4.2.5zM287.5 491.7l-3.9-.5-.7-2.5 4 .5zM280.3 490.8l-4.2-.5-.7-2.5 4.2.5zM272.8 489.9l-16-2-.8-2.5 16.1 2zM253.4 487.5l-4.2-.5-.7-2.5 4.2.5z" fill="#191b1e"/><path d="m371.3 483 4.6.5h.3c.6-1 .8-2.1.4-3.2l-.2-.1-4.7-.7-.3.2c-.4.8-.6 2.1-.4 3 0 .1.1.2.3.2z" fill="#252a28"/><path d="M371 482.7c0 .1.1.2.3.2l4.6.7c.1 0 .3 0 .3-.2.4-.6.7-1.3.6-2l-.4.8-.3.1-4.7-.6a.3.3 0 0 1-.3-.2v-1c-.2.8-.2 1.2-.1 2.2z" fill="#191c1b"/><path d="m375.8 486.2 2 .3s2.6-.3 3.8-10c1.3-9.8-1.2-10.8-1.2-10.8l-2-.2c1.5.2 2 5 1.3 10.7-.7 5.7-2.5 10.2-4 10z" fill="#9b8e78"/><path d="m157 443-1-.4c-1.1-.4 4.8-2.3 12.4-1.8s38.5 4 38.5 4l.5-.8c18.4 2.1 36.7 4.2 55.1 6.1l.6.6 46.4 5.1.8 3.6c0 .5 1.2.6 1.4.1v1.1c-.2.6-1.5.6-1.6 0l-.7-3.5-46.4-5.2-.6-.6c-18.4-1.9-36.8-4-55.1-6.1l-.5.7s-30.9-3.5-38.5-4c-5-.2-9.3.4-11.3 1zM334.8 459.9l-.8-.1h-.7l.2-1.3 1.4.2.9 4c0 .5 1.2.7 1.4.1v1.1c-.2.6-1.4.6-1.6 0zM337.5 460.2h.6c.4.1 1.7.5 1.4 3.7-.1.6 5 1.2 6 1.4 1 0 5.3.4 5.6.3.2 0 .4-1.4.3-1.4-1.6.2-10.2-.3-11.7-1.8.4-2.8-1-3.3-1.4-3.3l-.6-.1zM352.3 463.3c.2 0 .4 1 .4 1 1.5.2 12.5 7.5 13.7 13.3h.3c.3-5.9-12.2-14.3-13.8-14.6 0 0-.2-.9-.4-1h-.8l-.1 1.2h.7zM329 459.2l1.6.2.8 4c.1.5 1.4.6 1.5 0l.1-1.1c-.2.5-1.3.4-1.5-.2l-.8-3.9-1.6-.2zM326.2 459l-1.5-.2.2-1.2 1.5.1.8 3.9c.1.5 1.2.7 1.4.1v1.1c-.1.6-1.4.6-1.6 0zM320.5 458.3l1.5.2.8 3.7c.1.6 1.4.7 1.5 0l.1-1c-.2.5-1.3.3-1.4-.2l-.8-3.7-1.6-.2zM317.8 458l-1.6-.2.2-1.2 1.6.2.7 3.7c.1.5 1.3.6 1.5.1l-.1 1.1c-.1.7-1.4.5-1.5 0zM312 457.3l1.6.2.8 3.6c0 .6 1.4.7 1.4 0l.2-1c-.2.4-1.4.2-1.5-.3l-.7-3.5-1.7-.2z" fill="#bfbfbf"/><path d="m132.6 482.8 1.5.3 4.1-21.3c.1-.3.4-.5.7-.3l-1.4-.8a.5.5 0 0 0-.7.3z" fill="#191b1e"/><path d="m123.6 479.8 5-43c-1.7-.2-2.5.5-2.7 1.8l-4.7 41.6c0 .8.3 1.6 1.1 1.8 1.5.5 2.4.4 3.3 1.6 2.6 3.6 4.7 5.8 11.5 6.6l2.3-2.1c.3 0 4.8.6 5.1.5.2 0 4.4-4 8.6-7.9 4-3.7 8-7.5 8.6-7.9 1.1-.9 22.4-10.3 22.9-10.4s6 2 6.3 2.5 1.3 3.1 1.5 3.3l2 .5a13 13 0 0 1 4.8 8.3c2.9-6-5.4-10.3-8-14.5-.3-.4-5.8-2.6-6.3-2.5a487 487 0 0 0-22.9 10.4l-8.4 7.7c-4.3 4-8.6 8-8.8 8-.3.2-4.7-.4-5.1-.5-.2.5-1.9 1.8-2.2 2-5.5.1-9-2.8-11.5-6.4-.8-1-1.2-1-2.4-1.4zM209.9 490.9c-.2-3.2 1.5-4.3 3.9-5.9.5-.3.5-.3 1.1-.3 1.1.1 3.7.4 5.3 1 2.5 2.2 4.1 2.9 7.2 2.5 3.3-.2 7.2-1.6 7.9-5.3l10 1.2.6 2.5-9.1-1c-1.4 2.8-7.3 3.7-10 4.4-1.5.3-3.7 0-5-1-1.4-1.3-7.8-2-7.8-2-1.3 1-3.8 2.4-4.1 3.9zM198.5 506.1zM198.5 506.1c0-1.4 6.2-8.3 7.5-9.4.7-.4 1.3-.5 1.8-.7 1.3-.3 1.9-.5 1.8-3.1-1 1.2-3.3 1.4-4.5 2.6-2.8 2.9-7.2 7.4-6.6 10.6zM194.5 514c-.6-.2-15-7.8-15.5-8.3-.4-.5-.2-2.7 0-3.8 0 .7.1 1.2.3 1.4.5.5 15 8.1 15.5 8.2 1 0 3.5-.1 4-1 .5 3.2-1.7 3.3-4.3 3.4z" fill="#191b1e"/><path d="m142.7 460.5-3.6-2.5c-.6-.4-.3-1.5.5-1.4 0 0 35.7 5.3 36.6 5.8l-3.7 1.7c-10.1-2-18.9-3.2-29.1-4.8-.7 0-1 .7-.7 1.2z" fill="#191b1e"/><path d="M130.1 490.6a3.2 3.2 0 1 0 0-6.3 3.2 3.2 0 0 0 0 6.3z" fill="#000"/><path d="m130.3 487.1-.1.9 2.2 1.1a2.8 2.8 0 0 0 .3-2.5zM127.5 488.4l2.4-.5v-.9l-2-1c-.5.6-.7 1.6-.4 2.4z" fill="#414744"/><path d="M130.1 488.4a1 1 0 1 0 0-1.8 1 1 0 0 0 0 1.8z" fill="#121413"/><path d="M187.7 463.7a5.6 5.6 0 1 0 0-11.3 5.6 5.6 0 0 0 0 11.3z" fill="#000"/><path d="m188 457.4-.2 1.6 3.9 2a5 5 0 0 0 .6-4.5zM183 459.7l4.2-1 .2-1.5-3.7-1.9a5 5 0 0 0-.6 4.4z" fill="#414744"/><path d="M187.7 459.7a1.6 1.6 0 1 0 0-3.3 1.6 1.6 0 0 0 0 3.3z" fill="#121413"/><path d="M203.2 432.5c0 .6.5 1.1 1.1 1.2l4.8.6c1-2.8 3-6.6.7-9.2l-4.3-.6c-.6 0-1.2.3-1.4.8-.9 2.2-1.2 5-1 7.2z" fill="#695624"/><path d="M202.8 423.3c-.5-1.4-1.8-3.3-5-2.2-3 .8-3.2 3.3-2.7 5 1 2.6 3.7 3.2 6.1 1.6 1.5-1 2.3-2.5 1.6-4.4z" fill="#292c31"/><path d="M199.6 426.4c1.7-.6 2.7-2.1 2.2-3.4-.4-1.3-2.2-1.8-3.8-1.2-1.7.6-2.7 2.1-2.2 3.4.4 1.2 2.2 1.8 3.8 1.2z" fill="#161719"/><path d="M195.3 426.4c1.2 4.7 10.3 1.4 7.3-3.6.6 1.8-.4 3.1-1.7 4-1.8 1.1-4.7 1-5.6-.4z" fill="#202226"/><path d="m204.3 433.7 5.4.7v-3.1l-5-.6c-1.5-.2-1.3-2.2-1.2-3.3-.3 1.6-1.5 6 .8 6.3z" fill="#5b4920"/><path d="m214.6 442.7 78.5 9.3c.8.1 1.6-.5 1.7-1.3l2.6-22.3c.1-.9-.5-1.7-1.3-1.8l-79-9a5 5 0 0 0-4.2 1.5c-4.7 5.2-5.2 15-2 21a5 5 0 0 0 3.7 2.6z" fill="#252a28"/><path d="M214.6 442.7a5 5 0 0 1-3.7-2.6 20.7 20.7 0 0 1-1.1-15.3c0 3.7 1.1 10 5.7 10.6l78.5 9.4c.6 0 1.3-.3 1.6-.9l-.8 6.8c-.2.8-1 1.4-1.8 1.3z" fill="#191c1b"/><path d="m245.5 447 1.9.1 2.5 1.8c.3.2 32.2 3.8 40.2 4.3 2.4.3 4.4-.4 4.6-2.5-.7-.1-4.4.1-5.2-.2-.9-.3-8.2-14.9-10.6-18.4a68 68 0 0 0-6.2-8.5c-.8-.4-9.9-1.6-10.4-1.1-1.3 1 5.5 13.3 4.7 17-.5 2.7-9.4 8-10.5 8.2-1 .1-5-.2-5.5-.3-.5-.2-1.9-1.4-2.7-1.6-.7-.1-3 .1-3 .3-.2.2 0 .8.2.9zm26-19.7-4-.4a.9.9 0 0 1-.7-.4l-1.3-2c-.2-.4.1-.8.5-.8l3.9.4c.4 0 .8.3 1 .6l1.3 1.4c.4.5 0 1.3-.6 1.2zm4.1 7-5.4-.3a.9.9 0 0 1-.7-.5l-1.4-2.9c-.4-.8.2-1.8 1.1-1.7l4.3.2c.7 0 1.4.4 1.7 1l1.5 2.4c.5.8-.1 1.9-1.1 1.8zm-12.3 13.2c6.8-4.3 7.1-8.6 7-9.4-.1-1 .5-1.7 1.4-1.7l5.2.3c1.2.1 2.3 1 2.8 2.1a49 49 0 0 0 6.4 10.7c.2.2 0 .6-.3.6-3-.3-14-1.1-22.4-2.2-.2 0-.2-.3 0-.4z" fill="#000"/><g fill="#221f23"><path d="m277.2 458.4 2.1.2v.7h-.7l-.3 2.3h-.8l.3-2.4-.7-.1zM280.3 460l.1-1.2-.8-.1-.3 3 .8.1.1-1.2 1.2.1-.1 1.3h.8l.3-3-.8-.1v1.2zM345.2 470.3l-.5-.8h-1l1 1.5-.2 1.4h.8l.2-1.4 1.2-1.3h-1zM331 469.5l-.3 1.3h-.8l.8-2.8.8.1.4 1.7.8-1.6.8.1.1 2.9-.8-.1v-1.4l-.7 1.3h-.6z"/><path clip-rule="evenodd" d="m338.7 469 .8 2.8h-.8l-.1-.6h-1.2l-.2.4-.8-.1 1.4-2.7zm-.6.7-.4.8.7.1z" fill-rule="evenodd"/><path d="m340.9 472 .1-1.6 1.2 1.7.8.1.3-2.8h-.7l-.2 1.6-1.2-1.8h-.8l-.3 2.7zM283.5 461.5v-.4h1l.1-.6-1-.1.1-.6 1 .1v-.6l-1.7-.2-.3 3 1.7.2v-.7z"/><path clip-rule="evenodd" d="M336.7 469.5c0-.8-.8-1-1.4-1l-.8-.1-.3 2.8.8.1.1-1c1 .2 1.5 0 1.6-.8zm-.8 0c0-.3-.1-.4-.6-.5v.8c.4 0 .6 0 .6-.3zM327.7 470.6c.9.1 1.7-.5 1.8-1.3 0-.9-.6-1.6-1.5-1.7s-1.7.5-1.8 1.3.6 1.6 1.5 1.7zm0-.7c.5 0 1-.3 1-.7 0-.4-.3-.8-.8-.9s-.9.3-1 .7c0 .4.4.8.9.9z" fill-rule="evenodd"/><path d="m325.5 467.3.5.1v.8a.9.9 0 1 0-.1 1.2l-.2.6c0 .2-.5.3-.7.3-.7-.1-1.5-.8-1.4-1.7.1-.8 1-1.4 1.9-1.3zM305.3 462l1.6.2-.7 5.9-1.5-.2zM309.8 462.5l2.3 4.1.5-3.8 1.5.2-.7 5.9-1.5-.2-2.4-4-.4 3.7-1.5-.2.6-5.8z"/><path clip-rule="evenodd" d="m301.2 461.6-1.6-.2-.6 5.8 1.5.2.2-2.1 1.3 2.3 1.6.2-1.5-2.7c.7 0 1.4-.4 1.5-1.5.2-1.6-1.2-1.9-2.4-2zm-.3 1.1-.1 1.5c.3 0 1.2.1 1.3-.6 0-.8-.8-.9-1.1-.9z" fill-rule="evenodd"/><path d="M294.2 466.9c1.8.2 3.4-1 3.5-2.8s-1-3.2-2.8-3.4c-1.8-.2-3.4 1-3.6 2.7a3.2 3.2 0 0 0 2.9 3.5z"/><path clip-rule="evenodd" d="m288 460-1.6-.1-.7 5.9 1.6.1c1.4.2 2.8.2 3-1.3.1-1.1-.7-1.5-1-1.6l.1-.1c.3-.2.6-.4.7-1.2.1-1.3-1.3-1.5-2.2-1.6zm-.2 1.2c.4 0 .9.1.8.7 0 .6-.5.5-.9.5v-1.2zm-.3 2.3-.1 1.1h.2c.4.1 1.1.2 1.2-.4 0-.6-.7-.7-1.2-.7h-.1z" fill-rule="evenodd"/><path d="M321.4 466.4c0 2.2-1.7 3.3-3.4 3a3 3 0 0 1-2.7-3.3 3.1 3.1 0 0 1 6-.8l-1.5.4c-.2-.6-.6-1-1.2-1-.9-.1-1.6.6-1.7 1.6s.4 1.8 1.3 1.9c.6 0 1.3-.2 1.3-.8l-1.2-.2.1-1.1z"/></g><path d="M194.2 505.3c8.8 0 14.4-10.6 9.1-17.9 2.5-7-2.8-14.8-10.3-15-8.7-.2-13.7 9.1-12.8 17 .8 7.3 5.8 15.9 14 15.9z" fill="#f7c394" stroke="#333" stroke-miterlimit="10" stroke-width=".8"/><path d="M180.2 489.4c1 9 8.4 19.6 19.4 14.5-10.7-1.4-18.1-19.4-12.9-29.7-.8.6-2.1 1.3-4.3 4.3a17.7 17.7 0 0 0-2.2 10.9z" fill="#000" fill-opacity=".1"/><path d="M303.6 508.1c-4.4-7.6 1.9-17.8 10.9-16.9 4.8-5.6 14.2-5 18.1 1.4 4.6 7.4-.9 16.4-8.1 19.6-6.8 3-16.7 3-20.9-4.1z" fill="#f7c394" stroke="#333" stroke-miterlimit="10" stroke-width=".8"/><path d="M324.5 512.2c-8.4 3.7-21.3 2.6-22.4-9.5 6.6 8.6 26 5.9 32.2-3.8-.1 1 0 2.5-1.6 5.8-2 3.4-4.8 6-8.2 7.5zM404 262.6c-84.6-60-219.6-53.9-291.5-16.4.6-2.8 2.6-8.1 3.5-11 45.6-24.7 98.5-33.8 149.6-32.5 56.4 1.4 110.2 27 137 49.5.3 3 1.4 8 1.4 10.4z" fill="#000" fill-opacity=".1"/><path d="M327.6 150.5a85.4 85.4 0 0 0 45-79c-.1-3.1 4-4.4 5.7-1.7a86.2 86.2 0 0 1-32.3 120c-5-12.7-14.7-32-18.3-39.3z" fill="#bfbfbf" stroke="#333" stroke-miterlimit="10" stroke-width=".8"/><path d="M346 189.9a49.8 49.8 0 0 1-19.3-9.3 86.2 86.2 0 0 0 50.7-111.8c32.1 49.3 0 109.4-31.4 121z" fill="#000" fill-opacity=".1"/><path d="M205.8 147a85.4 85.4 0 0 1-45-78.8c.2-3.2-4-4.5-5.7-1.8a86.2 86.2 0 0 0 32.3 120c5-12.7 14.8-32 18.4-39.3z" fill="#bfbfbf" stroke="#333" stroke-miterlimit="10" stroke-width=".8"/><path d="M187.4 186.5a49.7 49.7 0 0 0 19.3-9.3A86.2 86.2 0 0 1 156 65.4c-32 49.3 0 109.4 31.4 121z" fill="#000" fill-opacity=".1"/><path d="M404.5 250c-53.8-55.2-228.6-62.1-290.6-16.7-2.5-86.5 70.8-141.8 147.6-142.4a142.2 142.2 0 0 1 143 159z" fill="#e2e2e2" stroke="#333" stroke-miterlimit="10" stroke-width=".8"/><path d="M258.6 91c-1.2 16-5.9 87-8 98.2-32.8 0-104.3 8-135.8 23.5l.8-6c40.4-18.3 88-21.3 131.6-21.5a1 1 0 0 0 1-.9l7.5-93.3h3zM405 230.5c-31.1-24.9-98.5-36.1-131.9-38.8 2.3-32.4 8-84.5 9.2-99.5l2.9.5-7.5 93.6c0 .5.4 1 .9 1 51.4 3.2 98 16.9 126.3 37.6l.2 5.6z" fill="#000" fill-opacity=".1"/><path d="M406.5 251c-.2 2.4-3.3 3.6-5.2 2-27-22.4-81-39.5-141.2-41-32.3-.8-98 0-143.5 24.6-2 1.2-4.7-.2-4.7-2.4-.3-6.7 0-13.4.7-20 0-.3.2-.5.5-.7 41-20.8 91.6-24 136.8-24a1 1 0 0 0 1-.9l7.8-98c0-.5.4-.9 1-.9 7.2-.1 14.6.3 21.9 1.3.4 0 .8.4.8.9l-7.8 97.4c0 .5.4 1 .9 1 54.7 3.4 103.8 18.6 131.4 41.6a1 1 0 0 1 .3.7 172 172 0 0 1-.7 18.4z" fill="#bfbfbf" stroke="#333" stroke-miterlimit="10" stroke-width=".8"/><path d="M270 110c4.1 0 7.4-3 7.4-6.8s-3.3-6.9-7.4-6.9-7.3 3.1-7.3 6.9c0 3.8 3.3 6.8 7.3 6.8zM268 131c4 0 7.4-3 7.4-6.8s-3.3-6.8-7.4-6.8-7.4 3-7.4 6.8 3.3 6.9 7.4 6.9zM266.3 152.1c4.1 0 7.4-3 7.4-6.8s-3.3-6.9-7.4-6.9-7.4 3-7.4 6.9c0 3.7 3.3 6.8 7.4 6.8zM264.9 171c4 0 7.4-3 7.4-6.8s-3.3-6.8-7.4-6.8-7.4 3-7.4 6.8 3.3 6.9 7.4 6.9zM263.1 190c4 0 7.4-3 7.4-6.8s-3.3-6.9-7.4-6.9-7.4 3-7.4 6.9 3.3 6.8 7.4 6.8z" fill="#e2e2e2" stroke="#333" stroke-miterlimit="10" stroke-width=".8"/><path d="M406.5 251c-.2 2.4-3.3 3.6-5.2 2-27-22.4-77.3-38-135.5-40.7-39.4-1.9-102.8-.1-149.2 24.3-2 1.2-4.7-.2-4.7-2.4v-8c0 2.5 2.2 4.7 4.7 3.3 45.7-24.7 98-24.8 149.2-23.5 56.3 1.4 108.6 17.4 135.5 39.8 2 1.6 5 .5 5.2-2 .4-3.8.6-7.6.7-11.4.2 5.5-.2 13.1-.7 18.6z" fill="#000" fill-opacity=".1"/></g></svg>