<svg xmlns="http://www.w3.org/2000/svg" xmlns:xlink="http://www.w3.org/1999/xlink" width="3289" height="3985"><style><![CDATA[.B{stroke-width:5}.C{stroke:#333}.D{opacity:.08}.E{opacity:.1}.F{fill:#B5D288}.G{fill:#F7C394}.H{opacity:.2}.I{stroke-linejoin:round}.J{opacity:.05}.K{fill-rule:nonzero}]]></style><defs><radialGradient cx="50%" cy="50%" fx="50%" fy="50%" r="60.6060606%" gradientTransform="translate(0.500000,0.500000),scale(1.000000,0.825000),rotate(90.000000),scale(1.000000,0.824425),translate(-0.500000,-0.500000)" id="A"><stop stop-color="#fff" stop-opacity=".01" offset="0%"/><stop stop-color="#fff" stop-opacity="0" offset="100%"/></radialGradient><path id="B" d="M0 0h3300v4000H0z"/></defs><g transform="translate(-5 -9)" fill="none"><mask id="C" fill="#fff"><use xlink:href="#B"/></mask><use xlink:href="#B" fill="url(#A)"/><g mask="url(#C)"><path d="M-350 0h4000v4000H-350z"/><g class="B C"><path d="M1954.67 3292.92c-9.895-.045-19.775-.807-29.56-2.28-50.77-7.42-115.16-32.27-196.86-76-12.175-6.514-16.764-21.665-10.25-33.84s21.665-16.764 33.84-10.25c75.45 40.37 136.18 64.12 180.5 70.6 28.93 4.23 49.75 1 61.88-9.64 13.6-11.92 12.4-33 8.83-72.4-4.17-46.12-9.36-103.53 19.78-169.5 22.06-50 60.82-97.58 106.32-130.66 24.68-17.94 50.48-31.1 76.7-39.12 29.15-8.92 58.1-11.24 86.08-6.92 34.55 5.35 69.2 20.88 97.6 43.73 32.6 26.24 54.08 59.73 62.13 96.86 6.6 30.4 4.83 66.52-4.7 96.6-12.26 38.65-36.7 66.3-68.82 77.83-11.23 4.012-23.074 6.043-35 6-49.4 0-90.4-33.45-95.84-38.08a25 25 0 1 1 32.42-38.06c.43.36 43.66 36.65 81.5 23.06 21.92-7.87 32.8-29.3 38.06-45.9 6.9-21.8 8.25-49 3.5-70.9-7.07-32.63-28.16-55.26-44.6-68.5-21.34-17.18-48.27-29.3-73.9-33.27-28.1-4.34-72.73-1.44-125.72 37.07-38.58 28.05-71.38 68.3-90 110.42-23.9 54.16-19.56 102.32-15.72 144.8 4 43.84 7.7 85.25-25.67 114.5-18.03 15.9-42.34 23.82-72.46 23.82zm-724.62-138.46c-34.427 0-62.37-27.844-62.5-62.27-.35-95.35 34-193.1 99.3-282.65 56-76.83 132.08-142.1 208.64-179.1 31.085-15.02 68.46-1.995 83.48 29.1s1.995 68.46-29.1 83.48c-58.66 28.35-117.72 79.46-162 140.22-34.53 47.35-75.62 122-75.3 208.54.06 16.576-6.465 32.497-18.143 44.262s-27.55 18.407-44.127 18.468l-.27-.03z" class="F"/><path d="M1251 3260.17c-8.628-.005-17.186-1.552-25.27-4.57-21.18-7.88-38.24-24.2-50.7-48.5a150.31 150.31 0 0 1-15.12-48.05c-2.1-14.594-1.384-29.455 2.1-43.78 5.57-22 17.94-40.42 35.76-53.2 25.532-18.27 59.92-18.028 85.195.595s35.7 51.398 25.805 81.195a72.53 72.53 0 0 1-57.78 116.29z" class="G"/><path d="M1514.5 3526.24c-1.28 0-2.56 0-3.86-.08-52.422-2.096-93.22-46.288-91.13-98.7 4.64-116.2 33.54-197 54.63-256 6.3-17.6 11.74-32.82 15.66-46.38 9.263-32.792 35.38-58.112 68.443-66.355s68 1.855 91.582 26.462 32.16 59.954 22.505 92.633c-5.55 19.23-12.22 37.88-19.28 57.62-18.85 52.7-40.2 112.44-43.7 199.6-2.028 50.93-43.89 91.185-94.86 91.22z" class="F"/><path d="M1560 3556.6c-7.226-.002-14.404-1.167-21.26-3.45-27.72-9.2-93.83-15.48-147.7.23-35.79 10.434-73.262-10.124-83.695-45.915s10.124-73.262 45.915-83.695c46.2-13.47 92.28-15.5 122.8-14.82 39.22.86 76.58 6.57 105.2 16.06 31.447 10.426 50.682 42.13 45.402 74.838s-33.512 56.75-66.642 56.752z" class="G"/><path d="M1785.37 3528.07c-50.32-.045-91.878-39.32-94.76-89.56-5-87.08-27.4-146.43-47.17-198.8-7.4-19.6-14.4-38.14-20.28-57.27-15.44-50.145 12.695-103.31 62.84-118.75s103.31 12.695 118.75 62.84c4.15 13.5 9.85 28.6 16.46 46.1 22.12 58.62 52.42 138.9 59.1 255 1.444 25.155-7.163 49.853-23.93 68.66s-40.316 30.185-65.47 31.63c-1.85.1-3.7.16-5.53.16z" class="F"/><path d="M1740 3556.6c-33.156.032-61.427-24.018-66.712-56.75s13.98-64.457 45.462-74.86c28.62-9.5 66-15.2 105.2-16.06 30.5-.67 76.6 1.35 122.8 14.82 35.796 10.422 56.367 47.89 45.945 83.686s-47.89 56.367-83.685 45.944c-53.88-15.7-120-9.43-147.7-.23-6.866 2.285-14.054 3.45-21.3 3.45z" class="G"/><path d="M2061.42 3137.38a62.52 62.52 0 0 1-46.413-20.57c-11.865-13.112-17.623-30.636-15.847-48.23 5.42-53.52-18.62-122.2-65.95-188.4-44.74-62.6-107-117.4-162.44-143a62.5 62.5 0 0 1-10.235-108.202 62.5 62.5 0 0 1 62.655-5.269c37.53 17.33 76.84 43.5 113.66 75.63 36.7 32.183 69.608 68.47 98.05 108.15 65.7 91.92 97.2 189.1 88.63 273.68-3.235 31.885-30.06 56.16-62.1 56.2z" class="F"/><path d="M2046.8 3259.9c-27.296-.004-52.28-15.332-64.648-39.666s-10.027-53.55 6.058-75.604c-10.432-29.635-.6-62.616 24.377-81.688s59.376-19.892 85.223-2.032c18 12.46 30.73 30.63 36.68 52.55a115.44 115.44 0 0 1 2.88 43.75c-4.06 35.05-23.3 81.66-64.13 97.67a72.44 72.44 0 0 1-26.44 5.02z" class="G"/><path d="M1675.55 2468.72c55.3 3.4 93.4 43.63 127.17 80.31 39.32 42.72 80.12 104.46 119 245.3 39.4 142.77 45.88 220.06 45.88 292 0 153.62-140.68 305.1-320 306.63-175.53 1.5-319-153-319-306.63 0-72.8 12.64-145.3 62.27-292.3 48.16-142.67 92.57-200.23 125.82-235.1 37.52-39.33 90.03-94.43 158.86-90.2z" class="F"/><path d="M1647.3 2512.77c41-.36 82.22 51.85 113.58 106.22 48.06 83.32 65.36 157.62 70.56 181.37 32.46 148.28 54.24 271.27-6 346.6-59.9 74.9-132.36 85.58-175.4 85.58-47.55 0-118.32-8.27-177.4-81.9-58.83-73.3-34.76-194.73 3.5-350.46 3.93-16 38.3-103.8 95.44-210.33 18.2-34 42.82-76.8 75.73-77.1zm-1133.5-676c-109.3 103.92-60.9 310.4 16.55 426.94 110.37 166.07 358.2 267.53 482.6 176 129.94-95.63 107.64-388.85-48.6-538.55-116.65-111.8-337.5-171.86-450.54-64.4z" class="G"/></g><path d="M645.57 1954.6c-64.75 69.33-26.65 197.17 26.33 267.46 75.5 100.15 234.9 154.6 309.6 92.47 78-64.9 53.06-248.18-50.63-336.34-77.4-65.83-218.33-95.3-285.3-23.6z" fill="#FFC9A1"/><path d="M2783.2 1832.12c111.1 102 66.32 309.3-9.1 427.16-107.46 168-353.47 273.75-479.46 184.37-131.58-93.35-114.4-386.92 39.2-539.32 114.68-113.78 334.45-177.7 449.35-72.2z" class="B C G"/><path d="M2653.5 1952.22c66 68.2 30.1 196.68-21.65 267.88-73.75 101.45-232.17 158.7-307.94 97.86-79.14-63.53-57.4-247.22 44.75-337.18 76.26-67.16 216.64-99.08 284.84-28.56z" fill="#FFC9A1"/><g class="B C"><path d="M2150.32 839c42.32-35.85-124.32-76-146.52-139.5-26.8-76.5 395.6 127.1 331.57 261.08-5 10.5-55.43 94-417.6-23.77C2315.92 1066 2615.92 1340 2614.5 1847.06c-1.1 388.75-348.57 990.75-964.93 996.12-594.62 5.2-966-596.16-964.93-996.12 1.32-488.44 432.22-991 966.1-1028.56 319.4-22.45 464.56 50.1 499.6 20.5z" class="F I"/><path d="M1649.57 1320.55c19.15-.16 112.4-116.75 268-116.74 223.53 0 482 324.76 482.28 643.25.16 205.85-111.65 252-111.45 275.7.2 21.13 236.88 22.58 236.88 254.7 0 209.25-420.37 512-840.86 524.16-461.3 13.34-910.3-319.74-910.3-497.74 0-232.44 237-260.58 236.85-281.27s-111.76-76.15-111.93-275.55c-.26-318.5 259.27-643.25 482.47-643.25 172.43-.01 245.34 116.94 268.07 116.74z" fill="#FFCD98"/></g><g fill="#3D0C0C"><path d="M2248.46 2330.77c32.4-4.6 56 22.77 47.08 55.45-11.75 43.1-35 85.68-67.74 125.82-7.453 9.153-15.4 18.153-23.87 27-115.5 121.7-320.37 213.48-554.36 213.08-234 .4-438.88-91.4-554.37-213.08-8.447-8.86-16.403-17.86-23.87-27-32.77-40.14-56-82.73-67.74-125.83-8.9-32.67 14.68-60 47.08-55.44 397.27 56.43 800.52 56.43 1197.8 0z"/><path d="M1651 2770.57h-3c-112.73 0-225.78-21.46-327-62.1-95.65-38.4-178.38-92.6-239.24-156.73-8.78-9.2-17.13-18.66-24.8-28.07-34.94-42.8-58.9-87.4-71.24-132.62-6-21.92-1.43-43.5 12.46-59.24 13.5-15.3 33.55-22.34 55-19.3 197.53 28.062 396.796 42.146 596.3 42.15a4238.45 4238.45 0 0 0 596.3-42.15c21.45-3.05 41.5 4 55 19.3 13.88 15.73 18.42 37.32 12.45 59.24-12.32 45.2-36.3 89.82-71.25 132.63-7.7 9.47-16.06 18.92-24.8 28.1-60.83 64.1-143.56 118.3-239.2 156.7-101.1 40.63-214.15 62.1-326.98 62.1zm-1.5-36.85c108.65.2 217.5-20.37 314.78-59.43 90.77-36.45 169-87.6 226.25-147.9 8.1-8.5 15.82-17.24 22.95-26 31.68-38.8 53.3-78.85 64.25-119 2.65-9.73 1-18.9-4.53-25.17-5.23-5.92-13.1-8.47-22.18-7.18a4275.86 4275.86 0 0 1-1203 0c-9.08-1.3-17 1.26-22.18 7.18-5.53 6.27-7.18 15.44-4.53 25.17 11 40.2 32.57 80.24 64.24 119 7.07 8.68 14.78 17.4 22.93 26 57.27 60.34 135.5 111.5 226.27 147.93 96.85 38.9 205.16 59.44 313.3 59.44l1.46-.03z" class="K"/></g><path d="M2295.54 2386.2c-11.75 43.1-35 85.7-67.74 125.83l-72.45 9.3-13.33 1.58a4258.44 4258.44 0 0 1-968 1.93l-17.87-2.06-84.78-10.74c-32.77-40.14-56-82.73-67.74-125.83-8.9-32.67 14.68-60 47.08-55.44l15.65 2.2 14.74 2a4258.53 4258.53 0 0 0 1153.33-2.23l10.13-1.4 3.94-.56c32.35-4.6 55.94 22.78 47.04 55.45zm-91.6 152.86c-48.1 50.68-111.7 96.17-186.44 132a794.96 794.96 0 0 1-90.22 36.51c-84.24 28.3-178.35 44.76-277.7 44.6a874.34 874.34 0 0 1-243.1-33.8 814.2 814.2 0 0 1-94.37-33.52c-88-37.57-162.38-88.32-216.88-145.75l81.2 9.87 15.55 1.7a4257.87 4257.87 0 0 0 932.16-1.87l11-1.25 68.8-8.48zm-795.64-1136c154.9 18 266.48 208.75 250 376.77-16.38 167.34-162.7 342-329.88 323-151.8-17.3-250.26-186.22-253.5-328.16-4.3-190.16 160.84-391.67 333.38-371.6z" fill="#fff"/><path d="M1378.695 1997.093c-98.035-19.02-159.7-126.917-137.595-240.795s119.624-190.9 217.66-171.87 159.7 126.918 137.595 240.796-119.624 190.9-217.66 171.87z" fill="#70E87E" class="B C"/><ellipse cx="1429.83" cy="1823.1" rx="105.94" ry="118.46" fill="#000"/><g fill="#fff"><path d="M1470.043 1764.266c-22.07-7.81-33.945-31.23-26.5-52.266s31.408-31.772 53.48-23.96 33.945 31.23 26.5 52.266-31.408 31.772-53.48 23.96z" class="B C"/><path d="M1884 1398.9c-154.54 20.68-262.8 213.36-243.4 381.08 19.3 167 168.63 339.1 335.47 317.13 151.47-19.94 247-190.55 247.73-332.52.98-190.16-167.66-388.73-339.8-365.7z"/></g><path d="M1703.112 1824.644c-24.078-113.475 35.684-222.43 133.372-243.16s196.548 54.57 220.627 168.045-35.684 222.43-133.372 243.16-196.548-54.57-220.627-168.045z" fill="#70E87E" class="B C"/><path d="M1763.85 1821.11c-1.142-65.37 45.395-119.27 103.856-120.3s106.85 51.223 107.99 116.593-45.395 119.27-103.856 120.29-106.85-51.224-107.99-116.594z" fill="#000"/><path d="M1884.45 1741.366c-7.8-20.902 3.653-44.526 25.584-52.72s46.078 2.12 53.89 23.023-3.653 44.526-25.584 52.72-46.078-2.12-53.89-23.023z" fill="#fff" class="B C"/><path d="M1434.05 2081.38c0 75.28 98.57 166.65 215.68 165.63 107.93-.94 213.18-91.24 213.18-165.4 0-59.68-124.17-112.16-213.18-111.4-82.63.72-215.68 40.57-215.68 111.17z" fill="#775A42"/><g fill="#000"><path d="M784.5 2454.76c-97.43-32.35-195.32-102.5-254.16-191-77.46-116.54-125.85-323-16.55-426.94 45.17-42.94 107.55-59.13 173.62-56l-.8 10.6c-50.6 4.15-97.1 21.38-132.83 55.35-109.3 103.92-60.9 310.4 16.55 426.94 50.3 75.7 129.16 138 211.87 174.64.7 2.12 1.48 4.25 2.3 6.4zm1989.6-195.48c-60.7 94.85-165.55 169.87-268 201.12l2.26-5.3c88.2-36.93 173.43-104 225.78-185.82 75.4-117.87 120.2-325.17 9.1-427.16-35.38-32.48-80.7-48.9-129.86-52.74l-.5-10.44c64.45-3.4 125.42 11.93 170.36 53.18 111.06 102 66.28 309.3-9.13 427.16z" class="D"/><path d="M1862.9 2101.6c0 74.17-105.25 164.47-213.18 165.4-117.1 1-215.68-90.35-215.68-165.63a54.13 54.13 0 0 1 .71-8.78c9 72.83 103.62 155.38 215 154.4 102.38-.9 202.34-82.18 212.35-153.85.54 2.78.808 5.607.8 8.44z" class="E"/><path d="M1160.9 2523.35l-4.8-.56-84.78-10.75c-32.77-40.14-56-82.73-67.74-125.82-8.9-32.68 14.68-60 47.08-55.45l18.12 2.53c19.6 65.9 49.4 130.34 92.1 190.05zM1385.54 2712c-25.38-8-49.867-17.067-73.46-27.2-88-37.57-162.38-88.32-216.88-145.75l83.7 10.14c52.43 61.8 120.22 117.44 206.65 162.8zm910-325.78c-11.75 43.08-35 85.68-67.74 125.82l-72.45 9.3-16.47 1.94c42.55-59.77 72.34-124.18 92-190.06l3.48-.47 10.12-1.4 3.94-.56c32.43-4.6 56.02 22.77 47.12 55.45zm-91.6 152.84c-48.1 50.68-111.7 96.17-186.44 132a795.27 795.27 0 0 1-90.22 36.52l-11.32 3.7c85.48-45.4 152.78-100.72 205.06-162.16l3.1-.34 11-1.26 68.8-8.47z" class="J"/><path d="M1983.57 957.05l1.8.5-11.62-3.74 9.8 3.23zm231.6-95.7c-53.4 62.4-211.8-40-531.22-17.54-533.87 37.53-942 531.82-943.3 1020.27-.3 106.94 28.6 233.52 78.72 353.8 58.8-73.84 151.53-99.67 178.6-114.16 7.94 8.57 13 14.5 13 18.9v.36a1.89 1.89 0 0 1 0 .26c-.083.386-.232.755-.44 1.1l-.17.28c-.47.666-1.03 1.265-1.66 1.78l-.32.26a37.88 37.88 0 0 1-6.52 4l-1.6.8c-3.74 1.83-8.36 3.82-13.67 6l-19.3 8-3.1 1.3-13 5.67-3.4 1.54-6.96 3.24-7.15 3.46-1.8.9-1.82.9-3.67 1.87-11.18 5.94-7.56 4.3-3.9 2.3-9.44 5.9-1.9 1.24-5.74 3.84-1.9 1.32c-3.18 2.22-6.35 4.514-9.5 6.88a326.67 326.67 0 0 0-7.54 5.87l-5.6 4.62c-.62.5-1.24 1-1.85 1.58l-1.84 1.6a128.45 128.45 0 0 0-3.66 3.27l-1.82 1.67-1.8 1.7-3.42 3.28-1.95 1.93-3.52 3.6-1.74 1.83c-2.32 2.447-4.603 4.964-6.85 7.55l-3.33 3.92-1.65 2a188.17 188.17 0 0 0-3.82 4.8c-1.16 1.486-2.297 2.997-3.4 4.53l-.3.4-.95 1.32-.94 1.33-1.7 2.4-2.56 3.8c-.13.18-.25.35-.36.53l-.57.85-.32.5-2 3.2a31.37 31.37 0 0 0-1 1.641l-3.08 5.13c-.15.25-.3.5-.43.75l-2.92 5.22c-.005.026-.005.054 0 .08l-1.44 2.7-1.43 2.75c-76.27-147.6-117-302.56-116.6-435.33 1.32-488.45 432.22-991 966.1-1028.57 319.4-22.45 464.56 50.1 499.6 20.46 42.18-35.75-124.46-75.9-146.65-139.4-8.57-24.46 28.82-20.27 81.55 1.13-20-2.88-31 1.83-25.55 15.87 19.38 50.4 194.5 99.08 155.35 144.83z" class="E"/><path d="M1040.82 2108.6c0 3.67-23.8 15.25-36.4 20.62 4.23-2.4 6.58-4.54 6.58-6.6-.18-20.6-111.76-76.15-111.93-275.54v-6.48a175.63 175.63 0 0 1 .1-5.95c10.27 177.4 141.5 254.34 141.66 273.95z" class="J"/><path d="M1287.84 3250.1a72.31 72.31 0 0 1-62.11 5.5c-21.18-7.88-38.24-24.2-50.7-48.5-7.707-15.052-12.82-31.297-15.12-48.05-2.1-14.594-1.384-29.455 2.1-43.78 1.45-5.753 3.418-11.362 5.88-16.76-.22-2.103-.333-4.216-.34-6.33-.33-90.45 30.55-183 89.47-268.77l.85.32 30.5 11.32c-49.47 78.73-85.32 140.9-85 223.4-17 21.83-12.63 82.94.5 114.5 27.14 65.18 76.6 76.82 83.98 77.14z" class="D"/><path d="M2294.33 2128.38c-12.95-5.65-34.48-16.28-34.45-19.77.16-18.9 121.63-90.8 139.95-254.23-2.45 199.63-111.6 244.95-111.4 268.37.02 1.98 2.12 3.8 5.9 5.63z" class="J"/><path d="M1624.07 3510.34a67.43 67.43 0 0 1-85.32 42.82c-27.72-9.2-93.83-15.48-147.7.23-22.1 6.437-45.958 1.172-63.297-13.97a67.52 67.52 0 0 1-22.363-60.84 69.49 69.49 0 0 0 2 8.9c10.44 35.8 47.907 56.345 83.7 45.92 53.88-15.7 120-9.43 147.7-.23a67.51 67.51 0 0 0 88-54.08 67.09 67.09 0 0 1-2.72 31.26zm368.6-2.87a67.45 67.45 0 0 1-83.7 45.92c-53.88-15.7-120-9.43-147.7-.23a67.51 67.51 0 0 1-88-74.08 67.45 67.45 0 0 0 88 54.08c27.72-9.2 93.83-15.48 147.7.23a67.45 67.45 0 0 0 83.7-45.92 69 69 0 0 0 2-8.89 67.06 67.06 0 0 1-2 28.9z" class="E"/><path d="M2137.37 3157.2c-4.06 35.05-23.3 81.66-64.13 97.67-19.976 7.863-42.413 6.445-61.24-3.87 10.47-1.34 56.85-14.72 82.77-77 13.12-31.56 17.35-93 .34-114.84.3-78.53-32-149-77.8-223.56l29.3-11c57.7 86.8 84.94 177.3 76.9 256.66-.2 1.87-.47 3.7-.8 5.5 5.26 8.274 9.23 17.3 11.77 26.77 3.738 14.236 4.72 29.056 2.9 43.66z" class="D"/><path d="M1609.44 3433.13l-.08 1.9-.58 7.4a67.23 67.23 0 0 0-27.53-17.4c-28.62-9.5-66-15.2-105.2-16.06a459.36 459.36 0 0 0-55.71 2.13l.68-10.07a462.92 462.92 0 0 1 55-2.06c39.22.86 76.58 6.57 105.2 16.06a67.16 67.16 0 0 1 28.22 18.11zm269.73-22.13c-18.334-1.765-36.757-2.433-55.17-2-39.22.86-76.58 6.57-105.2 16.06-10.592 3.497-20.146 9.576-27.8 17.7a82.85 82.85 0 0 1-.34-4.2l-.32-5.1c7.757-8.466 17.556-14.8 28.46-18.4 28.62-9.5 66-15.2 105.2-16.06a462.75 462.75 0 0 1 54.36 2l.8 10z" class="D"/><path d="M1433.72 3308.76c48.55 44.14 110.63 75 179.06 82.5a485.32 485.32 0 0 0-1.54 14.83c-69-7.92-131.44-39.58-180-84.6l2.48-12.73zm432.6 11.14c-47.76 44.3-109.47 75.84-178.6 85.2l-1.9-14.74c68.6-8.88 130-39.6 177.8-83l2.7 12.53z" class="D"/><path d="M1967.6 3086.38c0 153.62-140.68 305.1-320 306.63-175.53 1.5-319-153-319-306.63 0-10 .24-20.06.8-30.27 11.56 146.84 150.22 288.35 318.23 286.9 172.85-1.48 309.8-142.3 319.43-290.07.4 11.4.55 22.5.55 33.44z" class="E"/><path d="M1825.4 3147c-59.9 74.88-132.36 85.57-175.4 85.57-47.55 0-118.32-8.27-177.4-81.9-27.7-34.52-37-79.73-35.13-134.17 1.64 43 12 79.3 35.13 108.17 59.1 73.62 129.86 81.9 177.4 81.9 43 0 115.5-10.7 175.4-85.57 25.37-31.72 36.2-71.88 37.82-118.83 1.77 58.18-7.88 107.37-37.82 144.83z" class="D"/><path d="M2046.63 2824.52c-35 13.72-71 26-107.74 36.45l-16.56 4.6c-77.34 20.83-157.6 33.74-237.88 36.06-102.94 3-205.27-11.3-302.13-37.25l-13-3.57c-38.43-10.76-76-23.34-112.26-37.4-7.24 10.54-14.053 21.173-20.44 31.9 39.65 16.15 80.106 30.237 121.2 42.2l1.17-1.73-.53 1.92c103.84 30.14 214.56 47.13 326 43.9 88.47-2.56 176.94-18 261.5-42.7l1.36-.4a1194.8 1194.8 0 0 0 119.15-42c-6.153-10.7-12.767-21.37-19.84-32z" class="E"/><path d="M2002.6 3244.86c-21.27 18.38-65.08 13.14-91.57 9.3a312.91 312.91 0 0 0 10.07-14.94c3.86.76 7.607 1.407 11.24 1.94 26.64 3.9 46.4 1.46 58.83-7.25a71.2 71.2 0 0 0 11.43 10.94zm358.62-163.96a48.04 48.04 0 0 0 6.4-2.83 51.65 51.65 0 0 1-21.4 14.83c-37.83 13.6-81.06-22.7-81.5-23.06a25 25 0 0 0-23.13-5 24.24 24.24 0 0 1 2.9-4.2c8.953-10.5 24.73-11.77 35.24-2.82.43.38 43.66 36.66 81.5 23.07zm85.72-30.78c-9.47 29.84-26.2 53.12-48.1 67.5 14.6-14.05 25.94-32.88 33.1-55.5 9.54-30.08 11.3-66.18 4.7-96.6-8.05-37.13-29.53-70.63-62.13-96.87-28.4-22.85-63.05-38.38-97.6-43.73-28-4.32-56.93-2-86.08 6.92-26.2 8-52 21.2-76.7 39.12l-3.77 2.78a320.38 320.38 0 0 1 18.77-14.78c24.68-17.93 50.48-31.1 76.7-39.12 29.15-8.92 58.1-11.24 86.08-6.92 34.55 5.35 69.2 20.88 97.6 43.73 32.6 26.24 54.08 59.74 62.13 96.87 6.6 30.4 4.83 66.47-4.7 96.6z" class="H"/><path d="M1862.9 2081.6c0 74.17-105.25 164.47-213.18 165.4-117.1 1-215.68-90.35-215.68-165.63-.001-3.12.263-6.235.8-9.3 42.18 52.17 123.35 95.66 214.4 94.95 85.1-.67 168.7-45.3 211.9-97.87a45.33 45.33 0 0 1 1.78 12.45z" class="H"/><path d="M1484.52 1427a214.37 214.37 0 0 0-31.9-6.17c-175.15-20.17-342.8 182.73-338.4 374.18 2.47 107.25 59.36 229.8 152.7 291.65-116.4-48.78-189.2-190.33-192-312-4.33-190.1 160.82-391.6 333.36-371.55 26.673 3.188 52.526 11.288 76.25 23.9zm739.25 337.6c-.66 123.27-72.75 268.13-190.88 317.2 95.3-61.62 152.08-188.08 152.66-297.55 1-190.6-168-389.6-340.57-366.52a211.81 211.81 0 0 0-45.38 11.34c26-15.6 54.3-26.14 84.37-30.17 172.17-23.04 340.8 175.53 339.8 365.7z" class="J"/><path d="M1512.25 1605.54a160.45 160.45 0 0 0-13.25-3.16c-99.1-19.24-197.56 58.5-219.9 173.6-16.75 86.35 14.07 169.22 72.35 213.35-81.88-32-130.23-129.93-110.25-232.9 22.12-114 119.58-190.9 217.68-171.85 18.918 3.673 37.005 10.773 53.37 20.95zm432.85 380.86c60.86-43.65 92.6-129.07 73.87-217.3-24.16-113.85-123.2-189.28-221.22-168.48a157.2 157.2 0 0 0-17.52 4.78 157.99 157.99 0 0 1 56.34-24.1c97.76-20.75 196.54 54.48 220.65 168 22.3 105.1-27.16 206.17-112.12 237.1zm454.3-188.34c0 6.467-.104 12.78-.3 18.94-15.7-308.54-265-613.2-481.5-613.2-155.64 0-248.88 116.58-268 116.74-22.73.2-95.64-116.74-268-116.74-215.85 0-465.7 303.73-481.65 611.8l-.18 3.62c0 1.22-.1 2.43-.16 3.65l-.14 3.63c-.52-9.14-.8-18.626-.8-28.46-.26-318.5 259.27-643.25 482.47-643.26 172.4 0 245.3 117 268 116.75 19.15-.17 112.4-116.75 268-116.75 223.53.01 482.04 324.77 482.28 643.26z" class="E"/><path d="M2525.3 2377.46c0 209.26-420.37 512-840.86 524.16-461.3 13.34-910.3-319.74-910.3-497.74 0-4.76.1-9.427.3-14 38.6 182.8 468.4 486 909.44 473.26 406.2-11.75 812.27-294.1 841-502.25.287 5.407.43 10.93.43 16.57z" class="D"/><path d="M2614.5 1847.07c-.36 127.74-38.12 278.5-110.54 423.57-58.2-126.52-215.38-130.67-215.53-147.9 0-3.44 2.3-7.34 6.3-12.14 29.88 12.38 135.9 21.8 193.55 102.1 59.3-132.15 86.52-259.16 86.84-374.86 1.43-510.1-312.88-784.54-713.42-914.5 35.1 11.4 34.68 6.38 56.06 13.48C2315.92 1066 2615.92 1340 2614.5 1847.07z" class="E"/></g><g class="C"><g class="B I"><g fill="#DB7093"><path d="M2248.2 2842.8c.03 6.614-1.553 13.135-4.6 19a168.31 168.31 0 0 0-37.95 10.64c.655-3.966.963-7.98.92-12-.13-14.2-4.44-27.1-11.46-36.94a209.44 209.44 0 0 1 40.32-10.41 46 46 0 0 1 3.56 4.13 41.88 41.88 0 0 1 9.22 25.58z"/><path d="M2455.4 2992v4.7a201.4 201.4 0 0 1-2.8 29c-.58 3.4-1.25 6.8-2 10.13l-.63 2.68a26.85 26.85 0 0 1-.34 1.35c-.15.65-.32 1.3-.5 1.93l-1.26 4.5-1 3.4c-.3 1.13-.8 2.45-1.2 3.66-3.51 10.373-8.21 20.305-14 29.6a116.42 116.42 0 0 1-10.19 13.94c-.2.25-.4.5-.62.75l-.34.38-1.78 2c-1.06 1.16-2.13 2.28-3.23 3.38l-2 1.94-1.16 1.08c-.65.6-1.3 1.22-2 1.8h-.06c-.7.62-1.38 1.2-2.08 1.78s-1.3 1.08-2 1.6l-.78.62-1.46 1.1a88 88 0 0 1-3.62 2.59 97.14 97.14 0 0 1-22.16 11.32c-5 1.793-10.132 3.19-15.35 4.18a71.2 71.2 0 0 1-7.93-2.47c-17.93-6.8-30.86-20.48-33-37.57a39.64 39.64 0 0 1 .09-10.77c9.67 2.9 20.2 4.33 30.6 2.6 1.13-.18 2.26-.4 3.4-.67l.92-.22.4-.1a18.96 18.96 0 0 0 1.42-.39l1.58-.5c.58-.18.85-.3 1.3-.44 1.18-.427 2.33-.896 3.45-1.4.95-.4 1.87-.87 2.78-1.34.3-.15.6-.3.86-.48a.44.44 0 0 0 .18-.09c.25-.13.5-.26.72-.4a48.69 48.69 0 0 0 4.3-2.79c8-5.74 13.93-13.47 18.35-21.5l.66-1.22c.75-1.44 1.47-2.9 2.13-4.32a105.8 105.8 0 0 0 1.94-4.48c.45-1.1.87-2.2 1.27-3.3.6-1.64 1.147-3.24 1.64-4.8l.3-1c.3-.94.57-1.9.83-2.86 2.237-8.06 3.743-16.308 4.5-24.64.2-2.22.38-4.46.48-6.7 0-.64.07-1.3.1-1.94a3.84 3.84 0 0 0 0-.48c0-.77.06-1.56.06-2.34.05-2.1 0-4.2 0-6.3 0-1.08 0-2.16-.1-3.24 0-.8-.07-1.6-.13-2.4v-.62c-.376-6.244-1.218-12.452-2.52-18.57-.56-2.58-1.207-5.093-1.94-7.54-.022-.088-.05-.175-.08-.26-.2-.73-.42-1.46-.66-2.16 0-.12-.08-.23-.1-.35-.2-.7-.45-1.35-.7-2-.07-.22-.15-.43-.23-.65-.23-.68-.48-1.34-.72-2a62.34 62.34 0 0 0-.94-2.39l-.83-2-.8-1.84c-.2-.43-.38-.85-.6-1.27-.64-1.36-1.3-2.72-2-4l-2.2-4.07c-4.13-7.255-8.982-14.076-14.48-20.36l-2.25-2.54c-.74-.82-1.25-1.35-1.88-2-2.08-2.18-4.16-4.24-6.2-6.15a110.13 110.13 0 0 0-2.05-1.87l-2-1.78a53.3 53.3 0 0 0-2-1.7l-2.1-1.73c-6.662-5.35-13.74-10.16-21.17-14.38-1.3-.75-2.62-1.47-3.94-2.18-1-.55-2-1.08-3.06-1.6l-.92-.47-2-1a173.88 173.88 0 0 0-7-3.21l-2.85-1.2-.84-.34c-1-.4-2-.78-3-1.16l-.17-.07a101.24 101.24 0 0 0-2.77-1l-.48-.18c-1.1-.4-2.2-.77-3.3-1.12-7.35-2.422-14.886-4.248-22.53-5.46-3.1-.48-6.2-.84-9.3-1.07l-2.62-.2c-3.1-.2-6.2-.27-9.3-.22h-1.44l-2.2.07c-1.45 0-2.9.13-4.36.23l-2.2.17-2.4.22-2.38.26-4.78.65c3.057-5.865 4.64-12.386 4.6-19-.156-9.294-3.4-18.272-9.22-25.52a46.06 46.06 0 0 0-3.56-4.13l3.9-.58 3.33-.4 2.38-.25a126.88 126.88 0 0 1 3.88-.36l1.56-.13 1.68-.12 3.37-.18h.38l4-.13 4.25-.05h3.46l2.2.05 2.08.08 2.6.13a181.39 181.39 0 0 1 17.48 1.83 191.47 191.47 0 0 1 24.92 5.62 196.84 196.84 0 0 1 10.51 3.41l3.05 1.1 3.15 1.2 1.57.63 1.56.64 2.82 1.17 4.08 1.8 2.6 1.2c.6.26 1.17.54 1.74.82l2.24 1.1c10.11 4.995 19.808 10.787 29 17.32l2.58 1.85 3.5 2.62c.24.17.47.35.7.54a121.3 121.3 0 0 1 3.36 2.63c.56.44 1.1.9 1.65 1.35l2.1 1.74c1 .8 1.9 1.63 2.84 2.45l.13.1 2.5 2.25c1.1 1 2.2 2 3.28 3.07.84.78 1.66 1.57 2.46 2.36l2.5 2.53a178.68 178.68 0 0 1 19.08 23l1.88 2.73a48.16 48.16 0 0 1 1.19 1.84c1 1.52 2 3 2.9 4.58l.83 1.4 1.6 2.78 2.54 4.64c.53 1 1.05 2 1.56 3.07l1.7 3.52.9 2c.86 1.88 1.673 3.783 2.44 5.7 3.36 8.268 6.003 16.81 7.9 25.53.55 2.6 1.06 5.24 1.5 7.92l.6 3.87.24 1.74c0 .16 0 .32.05.47l.26 2.08.27 2.5.2 2.2a179.87 179.87 0 0 1 .73 12.82v1.93c.12 1 .12 2.1.12 3.1z"/></g><path d="M2283.23 2836a41.92 41.92 0 0 1-8 24.65 129.49 129.49 0 0 0-13.36-.4 150.11 150.11 0 0 0-8.74.47l-2.4.22-2.38.26-4.78.65a40.71 40.71 0 0 0 4.61-19c-.156-9.294-3.4-18.272-9.22-25.52-1.104-1.446-2.293-2.825-3.56-4.13l3.9-.58 3.33-.4 2.38-.25 3.88-.36 1.56-.13 1.68-.12 3.37-.18h.38l4-.13 4.25-.05h3.46l2.2.05 2.08.08 2.6.13a44.57 44.57 0 0 1 5.11 8.67 40.46 40.46 0 0 1 3.62 16.07zm70.27 11a40.65 40.65 0 0 1-5.07 19.91 50.55 50.55 0 0 1-11 13.7 151.14 151.14 0 0 0-3.94-2.181 163.97 163.97 0 0 0-26.43-11.33 48.87 48.87 0 0 0 9.53-13 40.72 40.72 0 0 0 4.33-18.5 39.72 39.72 0 0 0-1.78-11.4c-.585-1.9-1.307-3.774-2.16-5.58a196.84 196.84 0 0 1 10.51 3.41 209.04 209.04 0 0 1 22.8 9.67c2.07 4.85 3.16 10.058 3.2 15.33v-.01zm53.5 25.53a39.74 39.74 0 0 1-1.83 9.95c-4 12.7-14.25 23.5-28 30.32-5.034-5.766-10.525-11.117-16.42-16a57.2 57.2 0 0 0 8.55-7.72c7.45-8.27 11.78-18.36 11.7-29.23 0-.62 0-1.25-.07-1.87a40.1 40.1 0 0 0-1.52-8.9 198.35 198.35 0 0 1 10.13 7.64c.56.44 1.1.9 1.65 1.35a196.18 196.18 0 0 1 15.82 14.46zm36.6 55.27a48.32 48.32 0 0 1-5.07 7.32c-8.52 10.22-21.65 17.86-37.1 21.1a107.43 107.43 0 0 0-7.62-19 98.19 98.19 0 0 0-2.19-4.07c13.75-5.5 24.65-14.77 30.44-26a41.49 41.49 0 0 0 4-11.59 159.49 159.49 0 0 1 8.4 13.33 157.42 157.42 0 0 1 9.14 18.9zm11.75 68.93l-.28.17a75.99 75.99 0 0 1-38 10.15 79.18 79.18 0 0 1-11.62-.729 153.36 153.36 0 0 0 .55-21c0-1-.1-2-.16-3 18.06-1.15 34-8.17 44.7-18.6.83-.82 1.63-1.63 2.4-2.5l.6 3.87a193.09 193.09 0 0 1 1.8 31.62zm-2.8 28.97a178.53 178.53 0 0 1-5.77 24l-1.2 3.66c-1.8.63-3.63 1.18-5.5 1.7a79.92 79.92 0 0 1-19.9 2.65 79 79 0 0 1-22.81-3.08 61.74 61.74 0 0 1-5.14-1.69l.66-1.22c2.83-5.414 5.174-11.07 7-16.9l.3-1a67.37 67.37 0 0 0 .83-2.86 80.3 80.3 0 0 0 19 2.06c11.25-.032 22.357-2.527 32.54-7.3zm-20.95 57.3a115.83 115.83 0 0 1-18.13 22.39c-4.058 3.9-8.437 7.453-13.1 10.62-7.5-.865-14.813-2.928-21.66-6.1-12.38-5.82-21.83-15.13-26.13-26.6a51.46 51.46 0 0 0 9-2.32 49.28 49.28 0 0 0 12.29-6.51c4.408 2.7 9.104 4.877 14 6.52a78.38 78.38 0 0 0 26.05 4.1l2.4-.05c5.14-.196 10.25-.886 15.26-2.06zm-225-222.5c.043 4.02-.265 8.034-.92 12-10.54 7.1-20.05 14.5-30 20.62 8.56-24.24-2-52.37-18.15-57 11.23-6.15 23.6-10.88 37.65-12.54 6.98 9.8 11.3 22.73 11.42 36.92zm156.25 271l-4.77.8-1.95.26-1.1.12-4.54.4-1.86.12-4.65.1h-.6c-4.13 0-21.9-.3-27.83-2.3-13.44-3.5-24.8-20.37-26.05-30.17-1.4-10.9 1.75-24.17 8.3-33.32 1.87 1.07 16.4 11.88 24.2 13.17a39.64 39.64 0 0 0-.09 10.771c2.17 17.1 15.1 30.77 33 37.57a71.18 71.18 0 0 0 7.93 2.49z" fill="#fff"/></g><g class="B"><path d="M820.7 1370.3c-74.57 131.1-120 273.1-131 413.13l-2.52-.14c-5.333-.247-10.583-.374-15.75-.38-35.36 0-67.8 5.93-96.3 17.55l1-3.13c67.4-210.3 202.17-369.15 241.26-440.82l2.43 10.23c.3 1.1.58 2.28.88 3.56z" fill="gray"/><path d="M2576.1 1553.2c-26.56-25.7-119.63-103.1-326.37-159.93a20 20 0 0 1-14.31-15.46c-40.43-207.12-75.32-361.1-364.77-385.2-311.28-25.93-405.6 88.75-465.2 294.4-2.62 9-11.15 14.3-20.54 14.36-246.13 1.55-539.88 132.16-622.26 180.45 8.56-20.16 17.77-40.104 27.63-59.83 96.57-53.26 350.48-165.5 582-166.94 9.4-.06 17.92-5.33 20.54-14.36 59.6-205.65 176.5-334 487.8-308.08 70.83 5.9 126.7 20.64 171.27 42.57 23.58 11.455 45.48 26.084 65.1 43.48 83.43 74.46 108.06 188.9 133 316.85a20 20 0 0 0 14.31 15.46c137.4 37.77 229.25 79.38 279.3 109.32 12.612 30.325 23.474 61.35 32.53 92.92z" opacity=".15" fill="#333"/><path d="M2306.4 1372.2c-17.35-10.75-46.18-21.85-82.46-32.64-66.2-19.7-157.25-38.33-248.72-51.84-141.53-21.74-284.1-31.2-335.5-33-119.22-3.76-107.22-160.46-1-157.4 81.14 2.56 233.07 11.2 378 34.38 55.65 8.62 110.27 19.38 159.56 31.77 79.15 19.9 144.55 44 178.38 70.27 95.9 74.53-48.2 138.24-48.25 138.45z" fill="gray"/><g fill="#4D4D4D"><circle cx="1770.8" cy="1183" r="26.78"/><circle cx="1892.3" cy="1190.1" r="26.78"/><circle cx="2029.7" cy="1209.4" r="26.78"/><circle cx="2148.7" cy="1229.4" r="26.78"/><circle cx="1647.6" cy="1175.8" r="26.78"/></g></g><g fill="#333"><g stroke-width="3.31"><circle cx="1647.6" cy="1175.8" r="17.71"/><circle cx="1770.8" cy="1183" r="17.71"/><circle cx="1892.3" cy="1190.1" r="17.71"/><circle cx="2029.7" cy="1209.2" r="17.71"/><circle cx="2148.7" cy="1229.5" r="17.71"/></g><path d="M2368.3 1329c-24 26.33-61.8 43.1-61.83 43.22-17.35-10.75-46.18-21.85-82.46-32.64-66.2-19.7-157.25-38.33-248.72-51.84-141.53-21.74-284.1-31.2-335.5-33-98-3.1-107.33-109.5-48.57-145.58-34.63 44.9-16.2 124.9 68.57 127.58 51.4 1.75 194 11.2 335.5 33 91.47 13.5 182.5 32.15 248.72 51.84 36.28 10.8 65.1 21.9 82.46 32.64a247.93 247.93 0 0 0 41.83-25.22z" class="B H I"/></g><path d="M1910.7 1116.4c-80.65-9.26-232.24-22.77-379-20.9l-37.7.64c-132.85 3.5-256.17 20-311.45 51.23-105.7 59.77 6.8 117.1 6.8 117.37 19.8-8.57 115.22-10.52 229.6-9.3 191.42 2 435.94 13 467.94 16.54 118.5 13.6 129.37-143.19 23.83-155.57zm-410.8 86.15a26.79 26.79 0 0 1-18.943-45.733 26.79 26.79 0 0 1 45.733 18.943c0 14.796-11.994 26.8-26.8 26.8zm147.7 0a26.79 26.79 0 0 1-18.957-45.73c7.66-7.664 19.185-9.958 29.197-5.812a26.79 26.79 0 0 1 16.54 24.752c0 14.792-11.988 26.784-26.78 26.8zm123.24 7.24c-10.836.004-20.608-6.52-24.758-16.53a26.79 26.79 0 0 1 34.998-35.011 26.79 26.79 0 0 1 16.54 24.752c0 14.792-11.988 26.784-26.78 26.8zm121.48 7c-14.79-.006-26.774-11.998-26.77-26.787s11.994-26.775 26.783-26.773 26.777 11.99 26.777 26.78a26.78 26.78 0 0 1-26.79 26.82v-.04z" fill="gray" class="B K"/><g fill="#333" class="B"><path d="M1957.6 1136.3c27.2 49.47-2.74 125.35-86.7 115.72-32-3.6-276.52-14.5-467.94-16.54-114.38-1.2-209.8.74-229.6 9.3-10.958-6.048-21.156-13.38-30.38-21.84 13.5 24.87 46.38 41.7 46.38 41.84 19.8-8.57 115.22-10.52 229.6-9.3 191.42 2 435.94 13 467.94 16.54 96.48 11.06 121.62-90.78 70.7-135.72z" class="H I"/><path d="M1494 1096.2c-32.84 44.66-56.62 98.45-75.06 159.3-114.38-1.2-209.8.74-229.6 9.3 0-.26-112.48-57.6-6.8-117.37 55.25-31.23 178.57-47.73 311.45-51.23zm812.4 276c-17.35-10.75-46.18-21.85-82.46-32.64-12.64-63.6-26-123.4-47.64-176 79.15 19.9 144.55 44 178.38 70.27 95.88 74.45-48.24 138.16-48.28 138.37z" class="H"/></g><g class="B"><path d="M2568.1 1526.7s-52.25-81.67-303.7-150.8a20 20 0 0 1-14.31-15.46c-40.43-207.12-79.95-378.8-369.4-402.9-311.28-25.93-428.2 102.43-487.8 308.08-2.62 9-11.15 14.3-20.54 14.36-254.85 1.6-536.76 137.37-606.22 181a7.42 7.42 0 0 1-10.9-8.88c11.77-31.45 29.5-67.65 39.33-119.2 53.1-278.35 352.22-772.14 976.3-755.08 583.47 16 797.24 482.7 797.24 948.87z" fill="#F2F2F2"/><path d="M2568.1 1526.7s-2.85-31.3-95.2-74.26c-35.82-421.46-260.54-810-792-824.56-177.95-4.86-329.5 31.8-456.42 93.18 143.35-90.6 324.3-149.25 546.42-143.18 583.43 15.95 797.2 482.67 797.2 948.82z" fill="#333" class="D"/></g></g></g></g></svg>