<svg xmlns="http://www.w3.org/2000/svg" xmlns:xlink="http://www.w3.org/1999/xlink" width="3289" height="3985"><style><![CDATA[.n{fill:#000}.o{opacity:.08}.p{fill:#fff}.q{opacity:.1}.r{opacity:.05}.s{stroke-width:5}.t{stroke:#333}.u{fill:#073D51}.v{fill:#F7C394}.w{fill-rule:nonzero}.x{fill:#181818}.y{stroke-linejoin:round}]]></style><defs><radialGradient cx="50%" cy="50%" fx="50%" fy="50%" r="60.6060606%" gradientTransform="translate(0.500000,0.500000),scale(1.000000,0.825000),rotate(90.000000),scale(1.000000,0.824425),translate(-0.500000,-0.500000)" id="A"><stop stop-color="#fff" stop-opacity=".01" offset="0%"/><stop stop-color="#fff" stop-opacity="0" offset="100%"/></radialGradient><path id="B" d="M0 0h3300v4000H0z"/><path id="C" d="M1434.05 2081.38c0 75.28 98.57 166.65 215.68 165.63 107.93-.94 213.18-91.24 213.18-165.4 0-59.68-124.17-112.16-213.18-111.4-82.63.72-215.68 40.57-215.68 111.17z"/><path id="D" d="M1862.9 2101.6c0 74.17-105.25 164.47-213.18 165.4-117.1 1-215.68-90.35-215.68-165.63a54.13 54.13 0 0 1 .71-8.78c9 72.83 103.62 155.38 215 154.4 102.38-.9 202.34-82.18 212.35-153.85.54 2.78.808 5.607.8 8.44z"/><path id="E" d="M2294.33 2128.38c-12.95-5.65-34.48-16.28-34.45-19.77.16-18.9 121.63-90.8 139.95-254.23-2.45 199.63-111.6 244.95-111.4 268.37.02 1.98 2.12 3.8 5.9 5.63z"/><path id="F" d="M1862.9 2081.6c0 74.17-105.25 164.47-213.18 165.4-117.1 1-215.68-90.35-215.68-165.63-.001-3.12.263-6.235.8-9.3 42.18 52.17 123.35 95.66 214.4 94.95 85.1-.67 168.7-45.3 211.9-97.87a45.33 45.33 0 0 1 1.78 12.45z"/><path id="G" d="M1484.52 1427c-10.462-2.86-21.126-4.924-31.9-6.17-175.15-20.17-342.8 182.73-338.4 374.18 2.47 107.25 59.36 229.8 152.7 291.65-116.4-48.78-189.2-190.33-192-312-4.33-190.1 160.82-391.6 333.36-371.55 26.673 3.188 52.526 11.288 76.25 23.9z"/><path id="H" d="M2223.77 1764.6c-.66 123.27-72.75 268.13-190.88 317.2 95.3-61.62 152.08-188.08 152.66-297.55 1-190.6-168-389.6-340.57-366.52-15.5 2.093-30.718 5.896-45.38 11.34 26-15.6 54.3-26.14 84.37-30.17 172.17-23.04 340.8 175.53 339.8 365.7z"/></defs><g transform="translate(-5 -9)" fill="none"><mask id="I" class="p"><use xlink:href="#B"/></mask><use xlink:href="#B" fill="url(#A)"/><g mask="url(#I)"><path d="M-350 0h4000v4000H-350z"/><g class="s t"><path d="M1954.67 3292.92c-9.895-.045-19.775-.807-29.56-2.28-50.77-7.42-115.16-32.27-196.86-76-12.175-6.514-16.764-21.665-10.25-33.84s21.665-16.764 33.84-10.25c75.45 40.37 136.18 64.12 180.5 70.6 28.93 4.23 49.75 1 61.88-9.64 13.6-11.92 12.4-33 8.83-72.4-4.17-46.12-9.36-103.53 19.78-169.5 22.06-50 60.82-97.58 106.32-130.66 24.68-17.94 50.48-31.1 76.7-39.12 29.15-8.92 58.1-11.24 86.08-6.92 34.55 5.35 69.2 20.88 97.6 43.73 32.6 26.24 54.08 59.73 62.13 96.86 6.6 30.4 4.83 66.52-4.7 96.6-12.26 38.65-36.7 66.3-68.82 77.83-11.23 4.012-23.074 6.043-35 6-49.4 0-90.4-33.45-95.84-38.08a25 25 0 1 1 32.42-38.06c.43.36 43.66 36.65 81.5 23.06 21.92-7.87 32.8-29.3 38.06-45.9 6.9-21.8 8.25-49 3.5-70.9-7.07-32.63-28.16-55.26-44.6-68.5-21.34-17.18-48.27-29.3-73.9-33.27-28.1-4.34-72.73-1.44-125.72 37.07-38.58 28.05-71.38 68.3-90 110.42-23.9 54.16-19.56 102.32-15.72 144.8 4 43.84 7.7 85.25-25.67 114.5-18.03 15.9-42.34 23.82-72.46 23.82zm-724.62-138.46c-34.427 0-62.37-27.844-62.5-62.27-.35-95.35 34-193.1 99.3-282.65 56-76.83 132.08-142.1 208.64-179.1 31.085-15.02 68.46-1.995 83.48 29.1s1.995 68.46-29.1 83.48c-58.66 28.35-117.72 79.46-162 140.22-34.53 47.35-75.62 122-75.3 208.54.06 16.576-6.465 32.497-18.143 44.262s-27.55 18.407-44.127 18.468l-.27-.03z" class="u"/><path d="M1251 3260.17c-8.628-.005-17.186-1.552-25.27-4.57-21.18-7.88-38.24-24.2-50.7-48.5a150.31 150.31 0 0 1-15.12-48.05c-2.1-14.594-1.384-29.455 2.1-43.78 5.57-22 17.94-40.42 35.76-53.2 25.532-18.27 59.92-18.028 85.195.595s35.7 51.398 25.805 81.195a72.53 72.53 0 0 1-57.78 116.29z" class="v"/><path d="M1514.5 3526.24c-1.28 0-2.56 0-3.86-.08-52.422-2.096-93.22-46.288-91.13-98.7 4.64-116.2 33.54-197 54.63-256 6.3-17.6 11.74-32.82 15.66-46.38 9.263-32.792 35.38-58.112 68.443-66.355s68 1.855 91.582 26.462 32.16 59.954 22.505 92.633c-5.55 19.23-12.22 37.88-19.28 57.62-18.85 52.7-40.2 112.44-43.7 199.6-2.028 50.93-43.89 91.185-94.86 91.22z" class="u"/><path d="M1560 3556.6c-7.226-.002-14.404-1.167-21.26-3.45-27.72-9.2-93.83-15.48-147.7.23-35.79 10.434-73.262-10.124-83.695-45.915s10.124-73.262 45.915-83.695c46.2-13.47 92.28-15.5 122.8-14.82 39.22.86 76.58 6.57 105.2 16.06 31.447 10.426 50.682 42.13 45.402 74.838s-33.512 56.75-66.642 56.752z" class="v"/><path d="M1785.37 3528.07c-50.32-.045-91.878-39.32-94.76-89.56-5-87.08-27.4-146.43-47.17-198.8-7.4-19.6-14.4-38.14-20.28-57.27-15.44-50.145 12.695-103.31 62.84-118.75s103.31 12.695 118.75 62.84c4.15 13.5 9.85 28.6 16.46 46.1 22.12 58.62 52.42 138.9 59.1 255 1.444 25.155-7.163 49.853-23.93 68.66s-40.316 30.185-65.47 31.63c-1.85.1-3.7.16-5.53.16z" class="u"/><path d="M1740 3556.6c-33.156.032-61.427-24.018-66.712-56.75s13.98-64.457 45.462-74.86c28.62-9.5 66-15.2 105.2-16.06 30.5-.67 76.6 1.35 122.8 14.82 35.796 10.422 56.367 47.89 45.945 83.686s-47.89 56.367-83.685 45.944c-53.88-15.7-120-9.43-147.7-.23-6.866 2.285-14.054 3.45-21.3 3.45z" class="v"/><path d="M2061.42 3137.38a62.52 62.52 0 0 1-46.413-20.57c-11.865-13.112-17.623-30.636-15.847-48.23 5.42-53.52-18.62-122.2-65.95-188.4-44.74-62.6-107-117.4-162.44-143a62.5 62.5 0 0 1-10.235-108.202 62.5 62.5 0 0 1 62.655-5.269c37.53 17.33 76.84 43.5 113.66 75.63 36.7 32.183 69.608 68.47 98.05 108.15 65.7 91.92 97.2 189.1 88.63 273.68-3.235 31.885-30.06 56.16-62.1 56.2z" class="u"/><path d="M2046.8 3259.9c-27.296-.004-52.28-15.332-64.648-39.666s-10.027-53.55 6.058-75.604c-10.432-29.635-.6-62.616 24.377-81.688s59.376-19.892 85.223-2.032c18 12.46 30.73 30.63 36.68 52.55a115.44 115.44 0 0 1 2.88 43.75c-4.06 35.05-23.3 81.66-64.13 97.67a72.44 72.44 0 0 1-26.44 5.02z" class="v"/><path d="M1675.55 2468.72c55.3 3.4 93.4 43.63 127.17 80.31 39.32 42.72 80.12 104.46 119 245.3 39.4 142.77 45.88 220.06 45.88 292 0 153.62-140.68 305.1-320 306.63-175.53 1.5-319-153-319-306.63 0-72.8 12.64-145.3 62.27-292.3 48.16-142.67 92.57-200.23 125.82-235.1 37.52-39.33 90.03-94.43 158.86-90.2z" class="u"/><path d="M1647.3 2512.77c41-.36 82.22 51.85 113.58 106.22 48.06 83.32 65.36 157.62 70.56 181.37 32.46 148.28 54.24 271.27-6 346.6-59.9 74.9-132.36 85.58-175.4 85.58-47.55 0-118.32-8.27-177.4-81.9-58.83-73.3-34.76-194.73 3.5-350.46 3.93-16 38.3-103.8 95.44-210.33 18.2-34 42.82-76.8 75.73-77.1zm-1133.5-676c-109.3 103.92-60.9 310.4 16.55 426.94 110.37 166.07 358.2 267.53 482.6 176 129.94-95.63 107.64-388.85-48.6-538.55-116.65-111.8-337.5-171.86-450.54-64.4z" class="v"/></g><path d="M645.57 1954.6c-64.75 69.33-26.65 197.17 26.33 267.46 75.5 100.15 234.9 154.6 309.6 92.47 78-64.9 53.06-248.18-50.63-336.34-77.4-65.83-218.33-95.3-285.3-23.6z" fill="#FFC9A1"/><path d="M2783.2 1832.12c111.1 102 66.32 309.3-9.1 427.16-107.46 168-353.47 273.75-479.46 184.37-131.58-93.35-114.4-386.92 39.2-539.32 114.68-113.78 334.45-177.7 449.35-72.2z" class="s t v"/><path d="M2653.5 1952.22c66 68.2 30.1 196.68-21.65 267.88-73.75 101.45-232.17 158.7-307.94 97.86-79.14-63.53-57.4-247.22 44.75-337.18 76.26-67.16 216.64-99.08 284.84-28.56z" fill="#FFC9A1"/><g class="s t"><path d="M2150.32 839c42.32-35.85-124.32-76-146.52-139.5-26.8-76.5 395.6 127.1 331.57 261.08-5 10.5-55.43 94-417.6-23.77C2315.92 1066 2615.92 1340 2614.5 1847.06c-1.1 388.75-348.57 990.75-964.93 996.12-594.62 5.2-966-596.16-964.93-996.12 1.32-488.44 432.22-991 966.1-1028.56 319.4-22.45 464.56 50.1 499.6 20.5z" class="u y"/><path d="M1649.57 1320.55c19.15-.16 112.4-116.75 268-116.74 223.53 0 482 324.76 482.28 643.25.16 205.85-111.65 252-111.45 275.7.2 21.13 236.88 22.58 236.88 254.7 0 209.25-420.37 512-840.86 524.16-461.3 13.34-910.3-319.74-910.3-497.74 0-232.44 237-260.58 236.85-281.27s-111.76-76.15-111.93-275.55c-.26-318.5 259.27-643.25 482.47-643.25 172.43-.01 245.34 116.94 268.07 116.74z" fill="#FFCD98"/></g><g fill="#3D0C0C"><path d="M2248.46 2330.77c32.4-4.6 56 22.77 47.08 55.45-11.75 43.1-35 85.68-67.74 125.82-7.453 9.153-15.4 18.153-23.87 27-115.5 121.7-320.37 213.48-554.36 213.08-234 .4-438.88-91.4-554.37-213.08-8.447-8.86-16.403-17.86-23.87-27-32.77-40.14-56-82.73-67.74-125.83-8.9-32.67 14.68-60 47.08-55.44 397.27 56.43 800.52 56.43 1197.8 0z"/><path d="M1651 2770.57h-3c-112.73 0-225.78-21.46-327-62.1-95.65-38.4-178.38-92.6-239.24-156.73-8.78-9.2-17.13-18.66-24.8-28.07-34.94-42.8-58.9-87.4-71.24-132.62-6-21.92-1.43-43.5 12.46-59.24 13.5-15.3 33.55-22.34 55-19.3 197.53 28.062 396.796 42.146 596.3 42.15a4238.45 4238.45 0 0 0 596.3-42.15c21.45-3.05 41.5 4 55 19.3 13.88 15.73 18.42 37.32 12.45 59.24-12.32 45.2-36.3 89.82-71.25 132.63-7.7 9.47-16.06 18.92-24.8 28.1-60.83 64.1-143.56 118.3-239.2 156.7-101.1 40.63-214.15 62.1-326.98 62.1zm-1.5-36.85c108.65.2 217.5-20.37 314.78-59.43 90.77-36.45 169-87.6 226.25-147.9 8.1-8.5 15.82-17.24 22.95-26 31.68-38.8 53.3-78.85 64.25-119 2.65-9.73 1-18.9-4.53-25.17-5.23-5.92-13.1-8.47-22.18-7.18a4275.86 4275.86 0 0 1-1203 0c-9.08-1.3-17 1.26-22.18 7.18-5.53 6.27-7.18 15.44-4.53 25.17 11 40.2 32.57 80.24 64.24 119 7.07 8.68 14.78 17.4 22.93 26 57.27 60.34 135.5 111.5 226.27 147.93 96.85 38.9 205.16 59.44 313.3 59.44l1.46-.03z" class="w"/></g><path d="M2295.54 2386.2c-11.75 43.1-35 85.7-67.74 125.83l-72.45 9.3-13.33 1.58a4258.44 4258.44 0 0 1-968 1.93l-17.87-2.06-84.78-10.74c-32.77-40.14-56-82.73-67.74-125.83-8.9-32.67 14.68-60 47.08-55.44l15.65 2.2 14.74 2a4258.53 4258.53 0 0 0 1153.33-2.23l10.13-1.4 3.94-.56c32.35-4.6 55.94 22.78 47.04 55.45zm-91.6 152.86c-48.1 50.68-111.7 96.17-186.44 132a794.96 794.96 0 0 1-90.22 36.51c-84.24 28.3-178.35 44.76-277.7 44.6a874.34 874.34 0 0 1-243.1-33.8 814.2 814.2 0 0 1-94.37-33.52c-88-37.57-162.38-88.32-216.88-145.75l81.2 9.87 15.55 1.7a4257.87 4257.87 0 0 0 932.16-1.87l11-1.25 68.8-8.48zm-795.64-1136c154.9 18 266.48 208.75 250 376.77-16.38 167.34-162.7 342-329.88 323-151.8-17.3-250.26-186.22-253.5-328.16-4.3-190.16 160.84-391.67 333.38-371.6z" class="p"/><path d="M1378.695 1997.093c-98.035-19.02-159.7-126.917-137.595-240.795s119.624-190.9 217.66-171.87 159.7 126.918 137.595 240.796-119.624 190.9-217.66 171.87z" fill="#32ABFD" class="s t"/><ellipse cx="1429.83" cy="1823.1" rx="105.94" ry="118.46" class="n"/><g class="p"><path d="M1470.043 1764.266c-22.07-7.81-33.945-31.23-26.5-52.266s31.408-31.772 53.48-23.96 33.945 31.23 26.5 52.266-31.408 31.772-53.48 23.96z" class="s t"/><path d="M1884 1398.9c-154.54 20.68-262.8 213.36-243.4 381.08 19.3 167 168.63 339.1 335.47 317.13 151.47-19.94 247-190.55 247.73-332.52.98-190.16-167.66-388.73-339.8-365.7z"/></g><path d="M1703.112 1824.644c-24.078-113.475 35.684-222.43 133.372-243.16s196.548 54.57 220.627 168.045-35.684 222.43-133.372 243.16-196.548-54.57-220.627-168.045z" fill="#32ABFD" class="s t"/><path d="M1763.85 1821.11c-1.142-65.37 45.395-119.27 103.856-120.3s106.85 51.223 107.99 116.593-45.395 119.27-103.856 120.29-106.85-51.224-107.99-116.594z" class="n"/><path d="M1884.45 1741.366c-7.8-20.902 3.653-44.526 25.584-52.72s46.078 2.12 53.89 23.023-3.653 44.526-25.584 52.72-46.078-2.12-53.89-23.023z" class="p s t"/><use xlink:href="#C" fill="#775A42"/><g class="n"><path d="M784.5 2454.76c-97.43-32.35-195.32-102.5-254.16-191-77.46-116.54-125.85-323-16.55-426.94 45.17-42.94 107.55-59.13 173.62-56l-.8 10.6c-50.6 4.15-97.1 21.38-132.83 55.35-109.3 103.92-60.9 310.4 16.55 426.94 50.3 75.7 129.16 138 211.87 174.64.7 2.12 1.48 4.25 2.3 6.4zm1989.6-195.48c-60.7 94.85-165.55 169.87-268 201.12l2.26-5.3c88.2-36.93 173.43-104 225.78-185.82 75.4-117.87 120.2-325.17 9.1-427.16-35.38-32.48-80.7-48.9-129.86-52.74l-.5-10.44c64.45-3.4 125.42 11.93 170.36 53.18 111.06 102 66.28 309.3-9.13 427.16z" class="o"/><use xlink:href="#D" class="q"/><path d="M1160.9 2523.35l-4.8-.56-84.78-10.75c-32.77-40.14-56-82.73-67.74-125.82-8.9-32.68 14.68-60 47.08-55.45l18.12 2.53c19.6 65.9 49.4 130.34 92.1 190.05zM1385.54 2712c-25.38-8-49.867-17.067-73.46-27.2-88-37.57-162.38-88.32-216.88-145.75l83.7 10.14c52.43 61.8 120.22 117.44 206.65 162.8zm910-325.78c-11.75 43.08-35 85.68-67.74 125.82l-72.45 9.3-16.47 1.94c42.55-59.77 72.34-124.18 92-190.06l3.48-.47 10.12-1.4 3.94-.56c32.43-4.6 56.02 22.77 47.12 55.45zm-91.6 152.84c-48.1 50.68-111.7 96.17-186.44 132a795.27 795.27 0 0 1-90.22 36.52l-11.32 3.7c85.48-45.4 152.78-100.72 205.06-162.16l3.1-.34 11-1.26 68.8-8.47z" class="r"/><path d="M1983.57 957.05l1.8.5-11.62-3.74 9.8 3.23zm231.6-95.7c-53.4 62.4-211.8-40-531.22-17.54-533.87 37.53-942 531.82-943.3 1020.27-.3 106.94 28.6 233.52 78.72 353.8 58.8-73.84 151.53-99.67 178.6-114.16 7.94 8.57 13 14.5 13 18.9v.36a1.89 1.89 0 0 1 0 .26c-.083.386-.232.755-.44 1.1l-.17.28c-.47.666-1.03 1.265-1.66 1.78l-.32.26a37.88 37.88 0 0 1-6.52 4l-1.6.8c-3.74 1.83-8.36 3.82-13.67 6l-19.3 8-3.1 1.3-13 5.67-3.4 1.54-6.96 3.24-7.15 3.46-1.8.9-1.82.9-3.67 1.87-11.18 5.94-7.56 4.3-3.9 2.3-9.44 5.9-1.9 1.24-5.74 3.84-1.9 1.32c-3.18 2.22-6.35 4.514-9.5 6.88a326.67 326.67 0 0 0-7.54 5.87l-5.6 4.62c-.62.5-1.24 1-1.85 1.58l-1.84 1.6a128.45 128.45 0 0 0-3.66 3.27l-1.82 1.67-1.8 1.7-3.42 3.28-1.95 1.93-3.52 3.6-1.74 1.83c-2.32 2.447-4.603 4.964-6.85 7.55l-3.33 3.92-1.65 2a188.17 188.17 0 0 0-3.82 4.8c-1.16 1.486-2.297 2.997-3.4 4.53l-.3.4-.95 1.32-.94 1.33-1.7 2.4-2.56 3.8c-.13.18-.25.35-.36.53l-.57.85-.32.5-2 3.2a31.37 31.37 0 0 0-1 1.641l-3.08 5.13c-.15.25-.3.5-.43.75l-2.92 5.22c-.005.026-.005.054 0 .08l-1.44 2.7-1.43 2.75c-76.27-147.6-117-302.56-116.6-435.33 1.32-488.45 432.22-991 966.1-1028.57 319.4-22.45 464.56 50.1 499.6 20.46 42.18-35.75-124.46-75.9-146.65-139.4-8.57-24.46 28.82-20.27 81.55 1.13-20-2.88-31 1.83-25.55 15.87 19.38 50.4 194.5 99.08 155.35 144.83z" class="q"/><path d="M1040.82 2108.6c0 3.67-23.8 15.25-36.4 20.62 4.23-2.4 6.58-4.54 6.58-6.6-.18-20.6-111.76-76.15-111.93-275.54v-6.48a175.63 175.63 0 0 1 .1-5.95c10.27 177.4 141.5 254.34 141.66 273.95z" class="r"/><path d="M1287.84 3250.1a72.31 72.31 0 0 1-62.11 5.5c-21.18-7.88-38.24-24.2-50.7-48.5-7.707-15.052-12.82-31.297-15.12-48.05-2.1-14.594-1.384-29.455 2.1-43.78 1.45-5.753 3.418-11.362 5.88-16.76-.22-2.103-.333-4.216-.34-6.33-.33-90.45 30.55-183 89.47-268.77l.85.32 30.5 11.32c-49.47 78.73-85.32 140.9-85 223.4-17 21.83-12.63 82.94.5 114.5 27.14 65.18 76.6 76.82 83.98 77.14z" class="o"/><use xlink:href="#E" class="r"/><path d="M1624.07 3510.34a67.43 67.43 0 0 1-85.32 42.82c-27.72-9.2-93.83-15.48-147.7.23-22.1 6.437-45.958 1.172-63.297-13.97a67.52 67.52 0 0 1-22.363-60.84 69.49 69.49 0 0 0 2 8.9c10.44 35.8 47.907 56.345 83.7 45.92 53.88-15.7 120-9.43 147.7-.23a67.51 67.51 0 0 0 88-54.08 67.09 67.09 0 0 1-2.72 31.26zm368.6-2.87a67.45 67.45 0 0 1-83.7 45.92c-53.88-15.7-120-9.43-147.7-.23a67.51 67.51 0 0 1-88-74.08 67.45 67.45 0 0 0 88 54.08c27.72-9.2 93.83-15.48 147.7.23a67.45 67.45 0 0 0 83.7-45.92 69 69 0 0 0 2-8.89 67.06 67.06 0 0 1-2 28.9z" class="q"/><path d="M2137.37 3157.2c-4.06 35.05-23.3 81.66-64.13 97.67-19.976 7.863-42.413 6.445-61.24-3.87 10.47-1.34 56.85-14.72 82.77-77 13.12-31.56 17.35-93 .34-114.84.3-78.53-32-149-77.8-223.56l29.3-11c57.7 86.8 84.94 177.3 76.9 256.66-.2 1.87-.47 3.7-.8 5.5 5.26 8.274 9.23 17.3 11.77 26.77 3.738 14.236 4.72 29.056 2.9 43.66z" class="o"/><path d="M1609.44 3433.13l-.08 1.9-.58 7.4a67.23 67.23 0 0 0-27.53-17.4c-28.62-9.5-66-15.2-105.2-16.06a459.36 459.36 0 0 0-55.71 2.13l.68-10.07a462.92 462.92 0 0 1 55-2.06c39.22.86 76.58 6.57 105.2 16.06a67.16 67.16 0 0 1 28.22 18.11zm269.73-22.13c-18.334-1.765-36.757-2.433-55.17-2-39.22.86-76.58 6.57-105.2 16.06-10.592 3.497-20.146 9.576-27.8 17.7a82.85 82.85 0 0 1-.34-4.2l-.32-5.1c7.757-8.466 17.556-14.8 28.46-18.4 28.62-9.5 66-15.2 105.2-16.06a462.75 462.75 0 0 1 54.36 2l.8 10z" class="o"/><path d="M1433.72 3308.76c48.55 44.14 110.63 75 179.06 82.5a485.32 485.32 0 0 0-1.54 14.83c-69-7.92-131.44-39.58-180-84.6l2.48-12.73zm432.6 11.14c-47.76 44.3-109.47 75.84-178.6 85.2l-1.9-14.74c68.6-8.88 130-39.6 177.8-83l2.7 12.53z" class="o"/><path d="M1967.6 3086.38c0 153.62-140.68 305.1-320 306.63-175.53 1.5-319-153-319-306.63 0-10 .24-20.06.8-30.27 11.56 146.84 150.22 288.35 318.23 286.9 172.85-1.48 309.8-142.3 319.43-290.07.4 11.4.55 22.5.55 33.44z" class="q"/><path d="M1825.4 3147c-59.9 74.88-132.36 85.57-175.4 85.57-47.55 0-118.32-8.27-177.4-81.9-27.7-34.52-37-79.73-35.13-134.17 1.64 43 12 79.3 35.13 108.17 59.1 73.62 129.86 81.9 177.4 81.9 43 0 115.5-10.7 175.4-85.57 25.37-31.72 36.2-71.88 37.82-118.83 1.77 58.18-7.88 107.37-37.82 144.83z" class="o"/><path d="M2046.63 2824.52c-35 13.72-71 26-107.74 36.45l-16.56 4.6c-77.34 20.83-157.6 33.74-237.88 36.06-102.94 3-205.27-11.3-302.13-37.25l-13-3.57c-38.43-10.76-76-23.34-112.26-37.4-7.24 10.54-14.053 21.173-20.44 31.9 39.65 16.15 80.106 30.237 121.2 42.2l1.17-1.73-.53 1.92c103.84 30.14 214.56 47.13 326 43.9 88.47-2.56 176.94-18 261.5-42.7l1.36-.4a1194.8 1194.8 0 0 0 119.15-42c-6.153-10.7-12.767-21.37-19.84-32z" class="q"/><path d="M2002.6 3244.86c-21.27 18.38-65.08 13.14-91.57 9.3a312.91 312.91 0 0 0 10.07-14.94c3.86.76 7.607 1.407 11.24 1.94 26.64 3.9 46.4 1.46 58.83-7.25a71.2 71.2 0 0 0 11.43 10.94zm358.62-163.96a48.04 48.04 0 0 0 6.4-2.83 51.65 51.65 0 0 1-21.4 14.83c-37.83 13.6-81.06-22.7-81.5-23.06a25 25 0 0 0-23.13-5 24.24 24.24 0 0 1 2.9-4.2c8.953-10.5 24.73-11.77 35.24-2.82.43.38 43.66 36.66 81.5 23.07zm85.72-30.78c-9.47 29.84-26.2 53.12-48.1 67.5 14.6-14.05 25.94-32.88 33.1-55.5 9.54-30.08 11.3-66.18 4.7-96.6-8.05-37.13-29.53-70.63-62.13-96.87-28.4-22.85-63.05-38.38-97.6-43.73-28-4.32-56.93-2-86.08 6.92-26.2 8-52 21.2-76.7 39.12l-3.77 2.78a320.38 320.38 0 0 1 18.77-14.78c24.68-17.93 50.48-31.1 76.7-39.12 29.15-8.92 58.1-11.24 86.08-6.92 34.55 5.35 69.2 20.88 97.6 43.73 32.6 26.24 54.08 59.74 62.13 96.87 6.6 30.4 4.83 66.47-4.7 96.6z" opacity=".2"/><use xlink:href="#F" opacity=".2"/><use xlink:href="#G" class="r"/><use xlink:href="#H" class="r"/><path d="M1512.25 1605.54a160.45 160.45 0 0 0-13.25-3.16c-99.1-19.24-197.56 58.5-219.9 173.6-16.75 86.35 14.07 169.22 72.35 213.35-81.88-32-130.23-129.93-110.25-232.9 22.12-114 119.58-190.9 217.68-171.85 18.918 3.673 37.005 10.773 53.37 20.95zm432.85 380.86c60.86-43.65 92.6-129.07 73.87-217.3-24.16-113.85-123.2-189.28-221.22-168.48a157.2 157.2 0 0 0-17.52 4.78 157.99 157.99 0 0 1 56.34-24.1c97.76-20.75 196.54 54.48 220.65 168 22.3 105.1-27.16 206.17-112.12 237.1zm454.3-188.34c0 6.467-.104 12.78-.3 18.94-15.7-308.54-265-613.2-481.5-613.2-155.64 0-248.88 116.58-268 116.74-22.73.2-95.64-116.74-268-116.74-215.85 0-465.7 303.73-481.65 611.8l-.18 3.62c0 1.22-.1 2.43-.16 3.65l-.14 3.63c-.52-9.14-.8-18.626-.8-28.46-.26-318.5 259.27-643.25 482.47-643.26 172.4 0 245.3 117 268 116.75 19.15-.17 112.4-116.75 268-116.75 223.53.01 482.04 324.77 482.28 643.26z" class="q"/><path d="M2525.3 2377.46c0 209.26-420.37 512-840.86 524.16-461.3 13.34-910.3-319.74-910.3-497.74 0-4.76.1-9.427.3-14 38.6 182.8 468.4 486 909.44 473.26 406.2-11.75 812.27-294.1 841-502.25.287 5.407.43 10.93.43 16.57z" class="o"/><path d="M2614.5 1847.07c-.36 127.74-38.12 278.5-110.54 423.57-58.2-126.52-215.38-130.67-215.53-147.9 0-3.44 2.3-7.34 6.3-12.14 29.88 12.38 135.9 21.8 193.55 102.1 59.3-132.15 86.52-259.16 86.84-374.86 1.43-510.1-312.88-784.54-713.42-914.5 35.1 11.4 34.68 6.38 56.06 13.48C2315.92 1066 2615.92 1340 2614.5 1847.07z" class="q"/></g><g class="s t"><g class="y"><g fill="#FAFAD2"><path d="M2248.2 2842.8c.03 6.614-1.553 13.135-4.6 19a168.31 168.31 0 0 0-37.95 10.64c.655-3.966.963-7.98.92-12-.13-14.2-4.44-27.1-11.46-36.94a209.44 209.44 0 0 1 40.32-10.41 46 46 0 0 1 3.56 4.13 41.88 41.88 0 0 1 9.22 25.58z"/><path d="M2455.4 2992v4.7a201.4 201.4 0 0 1-2.8 29c-.58 3.4-1.25 6.8-2 10.13l-.63 2.68a26.85 26.85 0 0 1-.34 1.35c-.15.65-.32 1.3-.5 1.93l-1.26 4.5-1 3.4c-.3 1.13-.8 2.45-1.2 3.66-3.51 10.373-8.21 20.305-14 29.6a116.42 116.42 0 0 1-10.19 13.94c-.2.25-.4.5-.62.75l-.34.38-1.78 2c-1.06 1.16-2.13 2.28-3.23 3.38l-2 1.94-1.16 1.08c-.65.6-1.3 1.22-2 1.8h-.06c-.7.62-1.38 1.2-2.08 1.78s-1.3 1.08-2 1.6l-.78.62-1.46 1.1a88 88 0 0 1-3.62 2.59 97.14 97.14 0 0 1-22.16 11.32c-5 1.793-10.132 3.19-15.35 4.18a71.2 71.2 0 0 1-7.93-2.47c-17.93-6.8-30.86-20.48-33-37.57a39.64 39.64 0 0 1 .09-10.77c9.67 2.9 20.2 4.33 30.6 2.6 1.13-.18 2.26-.4 3.4-.67l.92-.22.4-.1a18.96 18.96 0 0 0 1.42-.39l1.58-.5c.58-.18.85-.3 1.3-.44 1.18-.427 2.33-.896 3.45-1.4.95-.4 1.87-.87 2.78-1.34.3-.15.6-.3.86-.48a.44.44 0 0 0 .18-.09c.25-.13.5-.26.72-.4a48.69 48.69 0 0 0 4.3-2.79c8-5.74 13.93-13.47 18.35-21.5l.66-1.22c.75-1.44 1.47-2.9 2.13-4.32a105.8 105.8 0 0 0 1.94-4.48c.45-1.1.87-2.2 1.27-3.3.6-1.64 1.147-3.24 1.64-4.8l.3-1c.3-.94.57-1.9.83-2.86 2.237-8.06 3.743-16.308 4.5-24.64.2-2.22.38-4.46.48-6.7 0-.64.07-1.3.1-1.94a3.84 3.84 0 0 0 0-.48c0-.77.06-1.56.06-2.34.05-2.1 0-4.2 0-6.3 0-1.08 0-2.16-.1-3.24 0-.8-.07-1.6-.13-2.4v-.62c-.376-6.244-1.218-12.452-2.52-18.57-.56-2.58-1.207-5.093-1.94-7.54-.022-.088-.05-.175-.08-.26-.2-.73-.42-1.46-.66-2.16 0-.12-.08-.23-.1-.35-.2-.7-.45-1.35-.7-2-.07-.22-.15-.43-.23-.65-.23-.68-.48-1.34-.72-2a62.34 62.34 0 0 0-.94-2.39l-.83-2-.8-1.84c-.2-.43-.38-.85-.6-1.27-.64-1.36-1.3-2.72-2-4l-2.2-4.07c-4.13-7.255-8.982-14.076-14.48-20.36l-2.25-2.54c-.74-.82-1.25-1.35-1.88-2-2.08-2.18-4.16-4.24-6.2-6.15a110.13 110.13 0 0 0-2.05-1.87l-2-1.78a53.3 53.3 0 0 0-2-1.7l-2.1-1.73c-6.662-5.35-13.74-10.16-21.17-14.38-1.3-.75-2.62-1.47-3.94-2.18-1-.55-2-1.08-3.06-1.6l-.92-.47-2-1a173.88 173.88 0 0 0-7-3.21l-2.85-1.2-.84-.34c-1-.4-2-.78-3-1.16l-.17-.07a101.24 101.24 0 0 0-2.77-1l-.48-.18c-1.1-.4-2.2-.77-3.3-1.12-7.35-2.422-14.886-4.248-22.53-5.46-3.1-.48-6.2-.84-9.3-1.07l-2.62-.2c-3.1-.2-6.2-.27-9.3-.22h-1.44l-2.2.07c-1.45 0-2.9.13-4.36.23l-2.2.17-2.4.22-2.38.26-4.78.65c3.057-5.865 4.64-12.386 4.6-19-.156-9.294-3.4-18.272-9.22-25.52a46.06 46.06 0 0 0-3.56-4.13l3.9-.58 3.33-.4 2.38-.25a126.88 126.88 0 0 1 3.88-.36l1.56-.13 1.68-.12 3.37-.18h.38l4-.13 4.25-.05h3.46l2.2.05 2.08.08 2.6.13a181.39 181.39 0 0 1 17.48 1.83 191.47 191.47 0 0 1 24.92 5.62 196.84 196.84 0 0 1 10.51 3.41l3.05 1.1 3.15 1.2 1.57.63 1.56.64 2.82 1.17 4.08 1.8 2.6 1.2c.6.26 1.17.54 1.74.82l2.24 1.1c10.11 4.995 19.808 10.787 29 17.32l2.58 1.85 3.5 2.62c.24.17.47.35.7.54a121.3 121.3 0 0 1 3.36 2.63c.56.44 1.1.9 1.65 1.35l2.1 1.74c1 .8 1.9 1.63 2.84 2.45l.13.1 2.5 2.25c1.1 1 2.2 2 3.28 3.07.84.78 1.66 1.57 2.46 2.36l2.5 2.53a178.68 178.68 0 0 1 19.08 23l1.88 2.73a48.16 48.16 0 0 1 1.19 1.84c1 1.52 2 3 2.9 4.58l.83 1.4 1.6 2.78 2.54 4.64c.53 1 1.05 2 1.56 3.07l1.7 3.52.9 2c.86 1.88 1.673 3.783 2.44 5.7 3.36 8.268 6.003 16.81 7.9 25.53.55 2.6 1.06 5.24 1.5 7.92l.6 3.87.24 1.74c0 .16 0 .32.05.47l.26 2.08.27 2.5.2 2.2a179.87 179.87 0 0 1 .73 12.82v1.93c.12 1 .12 2.1.12 3.1z"/></g><path d="M2283.23 2836a41.92 41.92 0 0 1-8 24.65 129.49 129.49 0 0 0-13.36-.4 150.11 150.11 0 0 0-8.74.47l-2.4.22-2.38.26-4.78.65a40.71 40.71 0 0 0 4.61-19c-.156-9.294-3.4-18.272-9.22-25.52-1.104-1.446-2.293-2.825-3.56-4.13l3.9-.58 3.33-.4 2.38-.25 3.88-.36 1.56-.13 1.68-.12 3.37-.18h.38l4-.13 4.25-.05h3.46l2.2.05 2.08.08 2.6.13a44.57 44.57 0 0 1 5.11 8.67 40.46 40.46 0 0 1 3.62 16.07zm70.27 11a40.65 40.65 0 0 1-5.07 19.91 50.55 50.55 0 0 1-11 13.7 151.14 151.14 0 0 0-3.94-2.181 163.97 163.97 0 0 0-26.43-11.33 48.87 48.87 0 0 0 9.53-13 40.72 40.72 0 0 0 4.33-18.5 39.72 39.72 0 0 0-1.78-11.4c-.585-1.9-1.307-3.774-2.16-5.58a196.84 196.84 0 0 1 10.51 3.41 209.04 209.04 0 0 1 22.8 9.67c2.07 4.85 3.16 10.058 3.2 15.33v-.01zm53.5 25.53a39.74 39.74 0 0 1-1.83 9.95c-4 12.7-14.25 23.5-28 30.32-5.034-5.766-10.525-11.117-16.42-16a57.2 57.2 0 0 0 8.55-7.72c7.45-8.27 11.78-18.36 11.7-29.23 0-.62 0-1.25-.07-1.87a40.1 40.1 0 0 0-1.52-8.9 198.35 198.35 0 0 1 10.13 7.64c.56.44 1.1.9 1.65 1.35a196.18 196.18 0 0 1 15.82 14.46zm36.6 55.27a48.32 48.32 0 0 1-5.07 7.32c-8.52 10.22-21.65 17.86-37.1 21.1a107.43 107.43 0 0 0-7.62-19 98.19 98.19 0 0 0-2.19-4.07c13.75-5.5 24.65-14.77 30.44-26a41.49 41.49 0 0 0 4-11.59 159.49 159.49 0 0 1 8.4 13.33 157.42 157.42 0 0 1 9.14 18.9zm11.75 68.93l-.28.17a75.99 75.99 0 0 1-38 10.15 79.18 79.18 0 0 1-11.62-.729 153.36 153.36 0 0 0 .55-21c0-1-.1-2-.16-3 18.06-1.15 34-8.17 44.7-18.6.83-.82 1.63-1.63 2.4-2.5l.6 3.87a193.09 193.09 0 0 1 1.8 31.62zm-2.8 28.97a178.53 178.53 0 0 1-5.77 24l-1.2 3.66c-1.8.63-3.63 1.18-5.5 1.7a79.92 79.92 0 0 1-19.9 2.65 79 79 0 0 1-22.81-3.08 61.74 61.74 0 0 1-5.14-1.69l.66-1.22c2.83-5.414 5.174-11.07 7-16.9l.3-1a67.37 67.37 0 0 0 .83-2.86 80.3 80.3 0 0 0 19 2.06c11.25-.032 22.357-2.527 32.54-7.3zm-20.95 57.3a115.83 115.83 0 0 1-18.13 22.39c-4.058 3.9-8.437 7.453-13.1 10.62-7.5-.865-14.813-2.928-21.66-6.1-12.38-5.82-21.83-15.13-26.13-26.6a51.46 51.46 0 0 0 9-2.32 49.28 49.28 0 0 0 12.29-6.51c4.408 2.7 9.104 4.877 14 6.52a78.38 78.38 0 0 0 26.05 4.1l2.4-.05c5.14-.196 10.25-.886 15.26-2.06zm-225-222.5c.043 4.02-.265 8.034-.92 12-10.54 7.1-20.05 14.5-30 20.62 8.56-24.24-2-52.37-18.15-57 11.23-6.15 23.6-10.88 37.65-12.54 6.98 9.8 11.3 22.73 11.42 36.92zm156.25 271l-4.77.8-1.95.26-1.1.12-4.54.4-1.86.12-4.65.1h-.6c-4.13 0-21.9-.3-27.83-2.3-13.44-3.5-24.8-20.37-26.05-30.17-1.4-10.9 1.75-24.17 8.3-33.32 1.87 1.07 16.4 11.88 24.2 13.17a39.64 39.64 0 0 0-.09 10.771c2.17 17.1 15.1 30.77 33 37.57a71.18 71.18 0 0 0 7.93 2.49z" class="p"/></g><path d="M2288.4 2122.8c-.2-23.7 111.6-69.84 111.45-275.7-.25-318.5-258.75-643.25-482.28-643.25-155.64 0-248.88 116.58-268 116.74-22.73.2-95.64-116.75-268-116.74-223.2 0-482.73 324.76-482.47 643.25.17 199.4 111.75 254.94 111.93 275.55s-236.85 48.83-236.85 281.27c0 178 449 511.08 910.3 497.74 420.5-12.16 840.86-314.9 840.86-524.16-.07-232.13-236.76-233.58-236.95-254.7zm-689.76-296.93c-10.8 55.65-39.63 104.35-81.16 137.14-32.82 25.9-70.48 39.45-108.5 39.45-10.29-.02-20.552-1.025-30.65-3-99.16-19.2-161.67-128.4-139.35-243.4s121.16-192.88 220.32-173.63c48.1 9.34 89.08 39.84 115.4 85.9s34.76 101.9 23.96 157.55zm439.53 81c-25.5 46.5-65.95 77.73-113.88 87.9a160.82 160.82 0 0 1-33.39 3.52c-37.1 0-73.93-12.87-106.38-37.58-42.1-32.06-71.77-80.25-83.54-135.7s-4.24-111.53 21.2-157.93 66-77.73 113.88-87.9c98.8-21 199 55.18 223.3 169.76 11.77 55.42 4.23 111.5-21.2 157.9v.03z" fill="#FFCD98" class="w"/></g><path d="M2525.3 2377.5c0 209.26-420.37 512-840.86 524.16-461.3 13.34-910.3-319.74-910.3-497.74 0-4.76.1-9.427.3-14 38.6 182.8 468.4 486 909.44 473.26 406.2-11.75 812.27-294.1 841-502.25.287 5.406.43 10.93.43 16.57z" class="n o"/><path d="M1408.3 1403.1c-172.54-20-337.7 181.45-333.36 371.56 3.24 141.94 101.7 310.86 253.5 328.16 167.2 19 313.5-155.6 329.88-323 16.46-167.97-95.13-358.73-250.02-376.72zm190.38 422.76c-10.8 55.65-39.63 104.35-81.16 137.14-32.82 25.9-70.48 39.45-108.5 39.45-10.29-.02-20.552-1.025-30.65-3-99.16-19.2-161.67-128.4-139.35-243.4s121.16-192.88 220.32-173.63c48.1 9.34 89.08 39.84 115.4 85.9s34.76 101.9 23.96 157.55z" class="p w"/><use xlink:href="#G" x="-0.02" class="n r"/><path d="M1884 1398.9c-154.54 20.68-262.8 213.36-243.4 381.08 19.3 167 168.63 339.1 335.47 317.13 151.47-19.94 247-190.55 247.73-332.52.98-190.16-167.66-388.73-339.8-365.7zm154.23 507.88c-25.5 46.5-65.95 77.73-113.88 87.9-10.977 2.335-22.168 3.515-33.4 3.52-37.1 0-73.93-12.87-106.38-37.58-42.1-32.06-71.77-80.25-83.54-135.7s-4.24-111.53 21.2-157.93 66-77.73 113.88-87.9c98.8-21 199 55.18 223.3 169.76 11.74 55.45 4.2 111.54-21.24 157.94h.03z" class="p w"/><use xlink:href="#H" x="0.03" class="n r"/><use xlink:href="#C" x="-0.05" y="0.02" fill="#7F6145"/><g class="n"><use xlink:href="#D" class="q"/><use xlink:href="#F" opacity=".2"/></g><g fill="#3D0C0C"><path d="M2254.8 2327.5c32.86-4.67 56.78 23.1 47.76 56.23-11.92 43.7-35.48 86.9-68.72 127.63-7.546 9.267-15.613 18.4-24.2 27.4-117.14 123.43-325 216.52-562.28 216.12-237.33.4-445.14-92.7-562.28-216.12-8.56-8.986-16.627-18.12-24.2-27.4-33.25-40.72-56.8-83.92-68.7-127.63-9-33.14 14.9-60.9 47.75-56.23 402.944 57.237 811.956 57.237 1214.9 0h-.02z"/><path d="M1648.9 2773.6h-3.05c-114.34 0-229-21.76-331.62-63-97-39-180.93-93.93-242.66-159-8.9-9.34-17.37-18.93-25.14-28.47-35.44-43.4-59.75-88.66-72.25-134.5-6.06-22.23-1.46-44.13 12.62-60.1 13.7-15.53 34-22.65 55.8-19.56a4300.59 4300.59 0 0 0 604.81 42.75c202.357.014 404.462-14.255 604.8-42.7 21.75-3.1 42.1 4 55.8 19.56 14.08 16 18.68 37.86 12.63 60.08-12.5 45.85-36.82 91.1-72.27 134.53-7.83 9.6-16.3 19.2-25.16 28.5-61.7 65-145.6 120-242.63 158.94-102.58 41.22-217.28 62.98-331.67 62.98zm-1.53-37.38h1.47c109.73 0 219.56-20.83 317.8-60.28 92.07-37 171.42-88.84 229.48-150 8.23-8.62 16-17.47 23.28-26.34 32.13-39.36 54.05-80 65.17-120.73 2.68-9.87 1-19.17-4.6-25.53-5.3-6-13.3-8.6-22.5-7.3a4336 4336 0 0 1-1220.1 0c-9.2-1.3-17.2 1.28-22.5 7.3-5.6 6.36-7.28 15.66-4.6 25.53 11.12 40.77 33 81.38 65.15 120.72 7.18 8.8 15 17.66 23.26 26.33 58.1 61.2 137.44 113.08 229.5 150 98.23 39.45 208.08 60.28 317.75 60.28l1.42.02z" class="w"/></g><path d="M2092.1 2633.4c-117.54 73.35-273.43 121.75-444.7 121.46-171.25.3-327.12-48.1-444.66-121.44a6224.5 6224.5 0 0 0 889.35-.02z" class="p"/><path d="M1578.8 2752.4c-144.13-10.75-274.43-55.5-376.06-118.93l88 5.68c81.46 53.77 179.83 94.24 288.06 113.25zm513.3-119c-38 23.582-77.997 43.748-119.55 60.26 30.777-17.14 60.23-36.558 88.1-58.1l31.44-2.17z" class="o n"/><path d="M2782.37 2587s-4 239.1-199.34 207.23c-52.85-8.62-117.4-24.25-184.07-43.3l-5.3-1.52c-66.86-19.24-135.6-41.83-196.64-64.17l-5-1.85c-48-17.68-91-35.14-124.27-50.6l-4.85-2.27c-32.88-15.55-55.37-28.92-62.4-38.22-32.1-42.53-34.93-87.15 39.7-112.08 13.5-4.5 42.37-7.47 80.9-9.23l6.3-.27c39.67-1.63 88.76-2.08 141.5-1.69h6.44l179.54 4 5.9.2c121.78 4.18 227.26 10.48 247.94 14.62l73.63 99.15z" fill="#B34A31"/><path d="M2584.5 2481.8c-15.1 1.72-40.92 6-46.34 21.2-5.1 14.38 11.65 28.17 5.3 38.66-8.24 13.6-42.26.18-49.33 13-5.46 9.88 13.05 21.24 10 41.85-2.47 16.56-15.64 17.45-16.45 31.35-1.17 20 25.65 25.68 27 48.36 1.1 18.82-17.53 25.13-13.35 39.27 4.77 16.14 31.33 16.4 33.95 33.5 1.12 7.32-3.58 8.3-2.53 15.2 3.2 20.94 49.8 31.1 68.92 32.93 13.07 1.25 18-.16 34.65 2.44 15.85 2.48 26.88 6.4 33.67 8.3 0 0 14.25 4 43.4 1.52 47.14-4.05 174-109.15 145.45-209.4-6.16-21.62-17.58-35.1-29.6-49.3-74.6-88.15-196.6-74.33-244.74-68.88z" fill="#D6D6D6"/><path d="M2636.2 2799.5a190.15 190.15 0 0 1 25.26 5.79l-25.26-5.8z" class="x"/><path d="M2626.5 2797.2l4.28 1.5c-12.5-1.55-17.65-.58-29.17-1.68-19.1-1.82-65.74-12-68.92-32.93-1.06-6.9 3.65-7.88 2.53-15.2-2.6-17.1-29.18-17.36-33.95-33.5-4.18-14.12 14.44-20.44 13.35-39.26-1.3-22.68-28.13-28.35-27-48.36.82-13.9 14-14.8 16.46-31.35 3.08-20.6-15.43-32-10-41.85 7.06-12.78 41.08.64 49.32-13 6.36-10.5-10.4-24.27-5.28-38.67 5.4-15.23 31.23-19.48 46.34-21.2 16.2-1.84 40.77-4.63 69.08-4.14-19.7.66-36.62 2.57-48.8 4-15.1 1.72-40.92 6-46.33 21.2-5.1 14.38 11.64 28.17 5.3 38.67-8.24 13.6-42.27.17-49.33 13-5.47 9.88 13 21.24 10 41.86-2.46 16.55-15.64 17.44-16.45 31.35-1.17 20 25.66 25.68 27 48.35 1.08 18.82-17.54 25.13-13.36 39.27 4.78 16.14 31.33 16.4 34 33.5 1.1 7.33-3.6 8.3-2.54 15.2 3.2 20.93 49.8 31.1 68.92 32.93l4.57.3z" fill="#EAEAEA"/><path d="M2700.27 2481.6a10.58 10.58 0 0 0-1.59-.15c-30.63-1-57.35 2.06-74.6 4-15.1 1.7-40.92 6-46.34 21.2-3.15 8.9-.8 19.1.2 27.95a11.71 11.71 0 0 1-8.62 12.6c-14.33 3.83-31.3 3.26-35.6 11.07-5.45 9.88 13 21.24 10 41.85-2.47 16.57-15.64 17.45-16.45 31.35-.45 7.65 4.22 12.43 7.95 18.42 7.1 11.44 10.2 25.9 10.64 30.35 1.9 18.75-14.9 28-5 38.86 6.8 7.44 10.7 8.66 19.34 20.3 5.2 7 6.08 21.13 6.65 24.6 2.84 17.24 35.74 29.52 57.25 34a113.25 113.25 0 0 1 6.66.66c-1.64-.54-3.07-1-4.28-1.5l-1.9-.5c-.6-.15-1.2-.32-1.82-.5l-.32-.08-3.16-.9c-2.8-.8-5.7-1.7-8.67-2.67-17.35-5.73-26.14-8.74-31.6-15.94 8-6.8-16-49.14-19.1-55.45-5.75-11.5 3.62-16.35.3-33.42-.34-1.75-8.72-15.7-8.46-28.24.22-10.45 8.24-18.86 4.92-22.1-1.775-1.6-3.23-3.52-4.3-5.66a13.78 13.78 0 0 1-1.17-8.05c1-7.36 5.14-7.4 6.92-15.9 2-9.77-3-12.7-.3-19.1 3.3-7.76 11.6-5.38 16.48-13.18 3.74-5.95 4.1-15.32 5.3-23.6a11.69 11.69 0 0 1 6.91-9c5.485-2.3 10.828-4.924 16-7.86 13.62-8.2 19.07-18.6 23.87-24.5 21.67-26.7 79.2-22.2 89.15-21.4 21 1.64 44.4 9.07 66.54 21.35-26.15-15.8-54.5-24.5-81.8-28.88zm-122.78 292.84l-.38-.6a39.03 39.03 0 0 1-1.28-2.27l2.2 3.68c-.18-.26-.37-.53-.54-.8z" fill="#C1C1C1" class="w"/><path d="M2661.5 2805.3l-25.26-5.8a170.08 170.08 0 0 1 8.63 1.56c6.55 1.36 12.08 2.88 16.63 4.23zm45.6 4.4l-1.22.23c-6.32.3-12.06.25-17 0 5.03.22 11.1.2 18.22-.23z" class="x"/><path d="M2460.8 2473.2l-5.9-.2a405.32 405.32 0 0 0-36 70.8 415.83 415.83 0 0 0-28.5 156 424.57 424.57 0 0 0 3.3 49.57l5.3 1.52a422.81 422.81 0 0 1-3.54-51.13c-.587-52.7 8.97-105.02 28.15-154.1 9.893-25.36 22.354-49.638 37.2-72.46zm-191.93-4.2a363.08 363.08 0 0 0-48.32 81.61c-17.984 42-27.68 87.06-28.55 132.73l5 1.85a349.51 349.51 0 0 1 28.19-132.6 358.2 358.2 0 0 1 50.1-83.57l-6.42-.02zm-147.87 1.9a362.68 362.68 0 0 0-31.69 58.64 354.34 354.34 0 0 0-26.5 100.89l4.85 2.27c3.637-34.853 12.5-68.957 26.3-101.17 9.1-21.337 20.262-41.734 33.33-60.9l-6.28.27z" fill="#933B2A"/><g class="n"><path d="M2586.1 2794.7l-3.1-.5c-195.34-31.87-550.47-159.4-582.56-201.93-16.48-21.84-25.25-44.23-19.77-64.22 2.8 4.697 5.875 9.237 9.18 13.6 29.57 39.16 333.08 150.42 533.46 192.66 5.84 3.56 10.8 7.72 11.84 14.62 1.12 7.3-3.6 8.3-2.53 15.2 2.5 16.43 31.76 26.23 53.47 30.57z" opacity=".2"/><path d="M2261.3 2479l-21.54 2.4-9.9 1.07-22.57 2.4-21.37 2.16-14.18 1.4c-57.9 5.593-115.9 10.26-174 14a93.41 93.41 0 0 1 16.27-11.08 5375.3 5375.3 0 0 0 157.62-12.9l14.18-1.4 21.36-2.16c2.27-.23 5.06-.4 7.33-.63l14.9-1.43c3.3-.35 7-.87 10.28-1.1 8.72-.6 24.23-3.2 29.14-2.7-.53.66-5.84 7.5-7.52 10z" class="q"/></g><path d="M2871.58 2648c.23 76.1-62.1 127.6-98 144.95-30.55 14.77-67.87 17.34-75.5 17.57-8.82.27-23.2-1.2-28.16-2.76-.4-.12-3-.95-6.5-1.92 0 0-2.85-.8-5.6-1.43-7.1-1.62-10.66-1.55-15.76-2.65-5.295-1.136-10.5-2.66-15.57-4.56-5-1.25-10.3-2.77-15.85-4.6-17.36-5.73-26.15-8.74-31.6-15.94-5.66-7.5-8.66-18.87-9.16-21.25-1.38-6.53-.33-7.27-1.85-11.25-4.06-10.6-9.74-12.77-13.53-20.33-5.74-11.5 7.85-18.26 4.54-35.33-2.58-13.3-14.44-15.5-13.1-26.35 1.08-8.65 8.93-9.63 9.58-19.3.57-8.6-5.48-10.5-4.27-19.13 1-7.36 5.14-7.4 6.92-15.9 2-9.77-3-12.7-.3-19.1 3.3-7.76 11.6-5.37 16.48-13.18 5.6-8.92-2.6-16.18 2.15-25.52 4.25-8.33 13.12-7.17 26.1-15 13.62-8.2 19.07-18.6 23.87-24.5 21.67-26.7 79.2-22.2 89.15-21.4 66.1 5.2 155.7 67.56 155.98 158.9z" class="x"/><path d="M2727.4 2639c1.7 1 3.3-1.64 8.7-3.25 6.48-1.94 9.07.37 12.5-2.18 2.85-2.13 4.52-6.32 3.26-8.15-.82-1.18-2.55-.9-10.87 0-10.17 1.1-11.6 1.13-13 2.72-3.04 3.27-2.84 9.57-.58 10.86zm44 35.3c-3.48 2.43-1.32 9.78-3.26 10.32-1 .28-2.6-1.47-3.38-3.1-2.16-4.5 1.5-8.18-.43-11s-6.4-.87-7.6-3.26 2-7.85 5.43-8.15c2.48-.22 2.93 2.42 7.06 3.8 4.42 1.47 6.52-.7 8.7 1.1 2.5 2 2.73 7.33.55 9.23-2 1.77-4.67-.6-7.06 1.08zm-47.2-68.5c2.93 2 8.42-1.5 11.83-3.66 4.4-2.83 3.64-3.52 6.76-5.35 6.78-4 10.74-.9 16.6-5.07 1.12-.8 5.24-3.73 4.8-7.32a5.08 5.08 0 0 0-3.38-4.23c-3.05-.72-4.32 3.72-9.86 5.63-2.93 1-2.88-.12-11 .57a38.13 38.13 0 0 0-9.57 1.7c-3.16 1.06-7.58 3.13-7.33 4.5s5.67 1.05 5.92 2.54-5.7 2.52-6.48 6.2a4.65 4.65 0 0 0 1.71 4.51zm115.5 50.6c-.3 1.67 1.43 2.2 3.32 5.8s1.32 5.2 2.9 6 4.38.07 5.6-1.66c1.93-2.73-.62-6.55-.83-6.85-.9-1.33-1.43-1.1-3.1-3.1s-1.7-3-2.7-3.32c-1.8-.62-4.86 1.1-5.18 3.13zm-55 52.9c2.3 1.74 7.87-2.38 9.13-3.32a23 23 0 0 0 8.09-10.37c.46-1.2 3.42-8.88.42-11.42-1.1-.92-3-1.14-3.74-.4s.25 2.33 0 5.6c-.1 1.5-.28 3.66-1.66 4.36s-2.94-.3-3.1-.4c-2.62-1.6-2.7-5.45-3.12-5.4s1.5 5.8-1 10.17c-1.92 3.3-5 3.42-5.8 6.85-.33 1.28-.4 3.46.8 4.35zm13.3-113.9c-2.15 3.54-2.6 4.18-2.3 4.83.56 1.23 3.23 1.1 4.62 1 4.52-.2 10.16-2.2 10.08-4.2-.05-1.27-2.4-2.64-4.4-2.52-2.18.12-3.24 1.95-4.2 1.47-1.27-.64-.3-4.2-1.05-4.42-.44-.07-1 .95-2.73 3.84zm-199.5 66.7c1.95 0 1.43 6.4 6.76 13.53 5.6 7.48 12.47 8.84 12 10.16-.7 2-17.46 2.6-22.15-7.08-3.4-7.04 1-16.67 3.4-16.6zm63.9 68.6c.34 3 8.1 4.16 11.08 4.6s13.28 2 15.38-2.15c.64-1.28.36-2.75 0-4.62-.2-1-1-5.46-3.08-5.84-2.2-.43-2.83 4.55-6.77 5.84-4.54 1.5-7.77-3.82-12.6-2.15-2.13.73-4.2 2.64-4 4.3zm65.6-12.3c1.87 1.45 4.66.78 10.16-.62 7.05-1.8 8.23-3.4 8.6-4 1.07-1.66 1.75-4.4.62-5.53-1.43-1.4-4.3 1.1-11.08 2.46-6.17 1.23-9.13.22-10.15 2.15-.88 1.62.17 4.26 1.84 5.54zm-60.9-74.5c1.14 2.44 4.17 2.88 5.53 3.08 3.82.55 6.87-1.12 9.23-2.46 3.35-1.9 7.48-4.24 7.4-7.7-.07-2.8-2.88-5.75-5.23-5.54-1.74.15-2.9 2-4.3 4.3-2.6 4.22-2.1 6.46-3.7 7.07-2.73 1-6.2-4.76-8.3-3.7-1.2.6-1.43 3.2-.6 4.92zm18.1 63.4c3.26 2.54 8.58-.26 9.23-.6s5.67-3.2 6.15-8.62c.34-3.87-1.83-7.53-2.77-7.38s-.2 5.07-2.15 5.85c-2.2.88-6-4.28-6.77-3.7s2.86 4.62 1.54 7.08-6.23 1.13-7.08 3.38c-.5 1.34.72 3.12 1.85 4zm126.5-140.6c.68 1.75 2.84 7.35 7.7 9.23 5.12 2 11.78-.75 12-3.08.1-.93-2.3-2.68-7.08-6.15-3.5-2.54-4-2.74-5.23-4-2.64-2.8-2.2-4.06-4.3-6.15-3.23-3.2-8.23-4.13-8.93-3.08-.55.84 2 2.43 4 7.08 1.3 2.93.84 3.53 1.85 6.15zm-118.3 33.7c2.18 2.9 6.5 3.8 9.92 2.63.42-.15 5.63-2 5.55-5.84-.07-3.15-3.64-5.88-5.26-5.25-1.9.74-.36 5.83-2.62 7-2.66 1.38-7.4-4.3-8.76-3.2-.77.63-.03 3.07 1.17 4.67zm110 130.8c2.18 2.9 6.5 3.78 9.92 2.62.42-.14 5.62-2 5.54-5.83-.06-3.15-3.63-5.9-5.25-5.26-1.9.74-.37 5.84-2.63 7-2.65 1.37-7.4-4.32-8.75-3.2-.77.63-.04 3.08 1.17 4.68zm-160.1-41.5c2.18 2.9 6.5 3.8 9.92 2.63.42-.14 5.62-2 5.54-5.84-.06-3.14-3.63-5.88-5.25-5.25-1.9.74-.37 5.83-2.63 7-2.65 1.38-7.4-4.3-8.75-3.2-.77.63-.04 3.08 1.17 4.67zm62.9-123.4c2.3.32 2.82-3.34 7.3-5.25 4.86-2.08 8.06.63 10.5-1.76 2.13-2.07 2.06-6.43.58-7.3-1.64-.95-3.72 3.17-9 4.67-6.68 1.88-11.17-2.45-13.13-.3s.62 9.48 3.75 9.92zm60.6 185.8c2.32.32 2.83-3.35 7.3-5.26 4.86-2.08 8.06.63 10.5-1.75 2.14-2.07 2.07-6.44.6-7.3-1.65-1-3.73 3.17-9 4.67-6.68 1.87-11.17-2.45-13.13-.3s.6 9.5 3.74 9.93zm-66.8-232.5a22.87 22.87 0 0 0 5.25 3.2c7.9 3.87 8.14 5.9 10.5 5.54 4.2-.64 8.43-7.8 6.13-12-1.2-2.16-4.3-3.74-6.42-2.92-2.7 1.05-2.18 5.34-4.38 5.84-1.92.43-2.88-2.7-7-4.38-3.16-1.28-7.05-1.24-7.6 0s2.38 3.82 3.5 4.7zm99.6 119.6c-3.65 5.9-3.63 14-1.46 14.88 1.25.52 3.33-1.3 4.38-2.9 1.67-2.6.65-4.6 1.17-8.47.82-6.18 4.53-9.28 3.8-9.92s-5.17 2.05-7.88 6.42zm34.3-20.4c-2.3.73-3.1 9.24 0 10.8 1.77.9 4.9-.5 5.83-2.63 1.63-3.73-3.73-8.84-5.83-8.17zm-3.7 73.5c.62 2.75 1.38 6.06 2.63 6.13s3.28-3.36 2.62-6.42c-.7-3.33-4.43-5.64-5.54-5-.8.53-.33 2.58.3 5.3zm-190.5-118.4c-.2 4.64 1.65 7.28 0 8.75-1.47 1.3-4.64.77-6.42-.88s-1.82-4.22-1.76-6.7c0-1.3.35-13.2 7.88-16.05 1.35-.5 4.25-1.24 5.26 0 1.7 2.1-4.67 6.65-4.96 14.9zm12.9-26.9c1.55.36 3.17-.93 6.42-3.5 2.86-2.28 4.3-3.4 4.08-4.38-.4-1.8-5.55-2.65-9.63-1.46-1.54.45-3.68 1.08-4.38 2.92-.92 2.47 1.1 5.9 3.5 6.42zm66.4 208.2c1.56.36 3.18-.93 6.42-3.5 2.86-2.27 4.3-3.4 4.1-4.38-.4-1.8-5.55-2.65-9.63-1.46-1.54.45-3.68 1.08-4.38 2.92-.88 2.43 1.14 5.87 3.5 6.42zm-60.9-231.2c4.26-1.46 4.68-2.3 7.6-3.2 4.1-1.25 5.94-.38 6.7-1.75s-.32-4-2-5.25c-3.73-2.65-9.86 1.32-10.5 1.75-4.42 2.94-7.16 8.22-6.13 9.34.4.45 1.7.01 4.34-.88zm59.3 147.9c4.26-1.46 4.7-2.3 7.6-3.2 4.1-1.25 5.95-.38 6.7-1.75s-.3-4-2-5.25c-3.72-2.65-9.86 1.32-10.5 1.75-4.42 2.94-7.15 8.22-6.12 9.34.4.47 1.7.03 4.33-.88zm-106.3-107.6c.85 1.5-4.6 4-5.84 10.2-.77 3.85.7 6.17-.58 7-1.55 1-5.7-1.13-7-4.37-1.7-4.22 1.8-9.4 5.55-11.68 3.03-1.85 7.18-2.42 7.87-1.16zm14.3 47.5c1.2 2.5 3.26 3.66 6.12 5.25 5.2 2.9 12 4.74 12.84 3.2.66-1.2-3.2-2.85-4.08-7.3-1-4.76 2.22-9.1 1.75-9.34-.64-.33-4.9 8.54-7.6 7.88-1.34-.33-1.1-2.75-3.8-6.42-1.2-1.63-2.8-3.8-4.1-3.5-1.85.4-3.2 6.05-1.16 10.2zm9.4 37.4c2.82 4.43-1 8.8 1.68 12.75 2.1 3.1 6.2 3 6.06 3.76-.17 1-6.72 2.37-11.3-1-4.2-3.14-4.34-8.52-4.4-10.45 0-.54-.12-7.32 2.72-8.16 1.68-.53 4 1.18 5.22 3.1zm39.9 121.2c2.82 4.44-1 8.8 1.68 12.76 2.1 3.1 6.2 3 6.06 3.76-.17 1-6.72 2.36-11.3-1.05-4.2-3.13-4.34-8.52-4.4-10.45 0-.54-.12-7.32 2.72-8.15 1.68-.5 4 1.2 5.22 3.13zm-67.9-52.5c1.7-2.76 6.67-3.72 9.6-2.1 2.06 1.13 1.65 2.7 4 4 2.92 1.58 5.23 0 6.48 1.46 1.1 1.32.76 4.34-.84 5.65-3.1 2.54-9.26-2.84-11.7-.63s2 9.57-.2 11.08c-1.2.84-4-.47-5.43-2.3s-.95-3.14-1.47-8.78c-.58-6.2-1.34-6.93-.43-8.4zm24.3 22c1.67-1.55 6.8 1.36 9.62 3.56 1.88 1.47 5.57 4.86 4.8 6.27s-6.35-.12-8.8-1.05c-2.12-.8-3.85-1.5-5-3.34-1.05-1.65-1.7-4.4-.64-5.44zm-41-112.3c-.57 5.3 2.65 8.43 1.25 9.83-1.12 1.13-4.13 0-5.85-1-3.57-2.23-6.86-7.7-4.6-12.12 2.44-4.77 10-5.58 11.3-3.77.82 1.17-1.63 2.8-2.1 7.06zm12.1-29.5c-3.58 2.62-2.53 11.08.2 12.13a3.3 3.3 0 0 0 3.77-1.88c.38-1.23-.88-1.84-1.26-3.77-.67-3.38 2.4-5.72 1.47-6.9-.64-.8-2.8-.58-4.18.42zm23.6 167.7c-3.57 2.62-2.53 11.08.2 12.13a3.28 3.28 0 0 0 3.76-1.88c.4-1.23-.87-1.84-1.25-3.77-.67-3.38 2.38-5.72 1.46-6.9-.64-.8-2.8-.58-4.18.42zm125.6-239.1c-1.65.7-1.37 9.52 3 11.8 2.52 1.34 4.2-.72 11.45-1.1 5.43-.3 8.06.67 8.5-.36.5-1.2-2.26-4.3-5.54-4.8s-4.32 1.9-7.4 1.84c-5.58-.08-8.33-8.08-10-7.38zm-31 244.8c-1.65.7-1.37 9.52 3 11.8 2.52 1.34 4.2-.72 11.44-1.1 5.43-.3 8.07.67 8.5-.37.5-1.2-2.27-4.3-5.54-4.8s-4.32 1.9-7.4 1.84c-5.58-.1-8.34-8.1-10-7.38z" fill="#B5482C"/><path d="M2302.6 2383.8c-7.43 27.2-19.35 54.23-35.34 80.57-.9 1.5-1.88 3.24-2.86 4.66l-78.55 8-14.18 1.4a5456.7 5456.7 0 0 1-1030.1 1.7l-19-1.8-90.2-9.5-5.48-5.68c-15.6-26-27.3-52.57-34.6-79.36-9-33.15 14.9-60.9 47.75-56.24 402.945 57.23 811.955 57.23 1214.9 0 32.8-4.66 56.74 23.1 47.7 56.25h-.04z" class="p"/><g class="n"><path d="M1123.8 2478.4l-1.24-.12-90.2-9.5-5.48-5.68c-15.6-26-27.3-52.57-34.6-79.36-9-33.15 14.9-60.9 47.76-56.24l21.42 3a66.61 66.61 0 0 0 1.92 15.9c10.9 45.04 31.53 89.6 60.44 132zm1178.8-94.6c-7.42 27.2-19.35 54.23-35.34 80.57-.88 1.5-1.4 3.16-2.86 4.66l-57.2 5.86c25.72-42.05 44.25-86 54.37-130.4a74.22 74.22 0 0 0 1.91-17.44c28.25.87 47.33 26.57 39.1 56.74z" class="o"/><path d="M1040.8 2108.6c0 3.67-23.8 15.25-36.4 20.62 4.23-2.4 6.58-4.54 6.58-6.6-.18-20.6-111.76-76.15-111.93-275.54v-6.48a175.52 175.52 0 0 1 .1-5.95c10.27 177.4 141.5 254.34 141.66 273.95z" class="r"/><use xlink:href="#E" x="-0.03" y="0.02" class="r"/></g></g></g></svg>