<svg fill="none" height="620" viewBox="0 0 512 620" width="512" xmlns="http://www.w3.org/2000/svg"><clipPath id="a"><path d="M0 0h512v620H0z"/></clipPath><g clip-path="url(#a)"><path d="M298.6 510c-7.8-1.1-17.8-5-30.5-11.7a4 4 0 0 1-1.6-5.3 4 4 0 0 1 5.3-1.6 94.1 94.1 0 0 0 28 11c4.4.6 7.7.1 9.6-1.5 2-1.9 1.9-5.1 1.3-11.2-.6-7.2-1.4-16 3-26.3 7-15.5 23.9-30.2 41.8-27.4 11.4 1.8 22.3 10.3 24.8 21.8 2 9.8-1 23.3-11.4 27-7 2.5-15-.3-20.3-5a4 4 0 0 1-.5-5.4 4 4 0 0 1 5.5-.4s6.8 5.6 12.6 3.5c6.7-2.4 7.7-12.2 6.5-18-1.8-8.5-10.2-14.6-18.4-15.8-14.4-2.3-28 10.6-33.4 22.8-3.7 8.4-3 15.9-2.5 22.5.7 6.8 1.2 13.2-4 17.7-4.2 3.8-10.3 4.2-15.8 3.3z" fill="#4cbf4b" stroke="#333" stroke-miterlimit="10" stroke-width=".8"/><path d="M378 459.7c1.7 7.9.2 17.7-5.9 23.6 8-5.3 10.1-16.7 8.2-25.5-2.5-11.5-13.4-20-24.7-21.8a36 36 0 0 0-28.2 9.5c17.7-12.6 45.5-9.4 50.6 14.2z" fill="#000" fill-opacity=".2"/><path d="M367.3 477.1c-4.2 4.9-11.7 2.4-16-1.3a3.9 3.9 0 0 0-3.5-.7 3.9 3.9 0 0 1 6-1c3.3 3 9.2 5.3 13.5 3zM267.5 492c.5-.5 2.4-1.5 3.5-1l3.9 2c7.6 3.7 19.7 9.7 28.5 9.7 7.7 0 8.4-3.9 7.3-14.1l.5 2c1.5 5.8 3.7 14.6-7.8 14.6-12.7 0-32.4-11-36-13.3z" fill="#000" fill-opacity=".2"/><path d="M192 487.8c5.6 0 10.2-5 9.6-10.6a47.1 47.1 0 0 1 10.2-30.8c6.7-9.3 13.9-14.4 8.3-20.5-5.5-6-17.9.6-24 9.3a65.6 65.6 0 0 0-13.8 44c.5 4.8 4 8.6 9.7 8.6z" fill="#4cbf4b" stroke="#333" stroke-miterlimit="10" stroke-width=".8"/><path d="M186.7 474.2c0-17.4 14-43 30.3-50.3-20.2-3.2-38 36.2-34.5 54.6 1-1.9 3-3.7 4.2-4.3z" fill="#000" fill-opacity=".1"/><path d="M249.7 534.2c.8-13.5 4.3-24 7.3-32s6.6-22.5-6.6-25.8c-18.8-4.7-29.2 39.4-30 52.9-.4 7.9 5.8 17 13.8 17.5 7.3.4 15-4.9 15.5-12.6z" fill="#4cbf4b" stroke="#333" stroke-miterlimit="10" stroke-width=".8"/><path d="M220.3 529.2c8-1 23-1 29.2 5.3l.2-2.3c-6.5-5.7-21.4-6.1-29.1-5l-.3 2zM222.8 515.4a49.4 49.4 0 0 0 27.5 12.1l.4-2.6a49.6 49.6 0 0 1-27.3-12.5l-.7 3z" fill="#000" fill-opacity=".1"/><path d="M262.3 534.2c-.8-13.5-4.2-24-7.3-32s-6.6-22.5 6.6-25.8c18.8-4.7 29.2 39.4 30 52.9.4 7.9-5.8 17-13.8 17.5-7.3.4-15-4.9-15.5-12.6z" fill="#4cbf4b" stroke="#333" stroke-miterlimit="10" stroke-width=".8"/><path d="M291.7 529.2c-8-1-23-1-29.2 5.3l-.2-2.3c6.5-5.7 21.4-6.1 29.1-5l.3 2zM289.3 515.4a49.4 49.4 0 0 1-27.6 12.1l-.4-2.6a49.6 49.6 0 0 0 27.3-12.5c.3.9.5 2.3.6 3z" fill="#000" fill-opacity=".1"/><path d="M320 487.8c-5.6 0-10.2-5-9.6-10.6.8-9.9-2.9-20.5-10.2-30.8-6.7-9.3-13.9-14.4-8.3-20.5 5.5-6 17.9.6 24 9.3a65.6 65.6 0 0 1 13.8 44c-.5 4.8-4 8.6-9.7 8.6z" fill="#4cbf4b" stroke="#333" stroke-miterlimit="10" stroke-width=".8"/><path d="M325.3 474.2c0-17.4-14-43-30.3-50.3 20.2-3.2 38 36.2 34.5 54.6-1-1.9-3-3.7-4.2-4.3z" fill="#000" fill-opacity=".1"/><path d="M431.6 284c17.3 15.8 10.3 48-1.4 66.2-16.6 26-54.8 42.4-74.3 28.6-20.4-14.5-17.7-60 6.1-83.6 17.8-17.7 51.8-27.6 69.6-11.2z" fill="#f7c394" stroke="#333" stroke-miterlimit="10" stroke-width=".8"/><path d="M411.5 302.6c10.3 10.6 4.7 30.5-3.3 41.5-11.4 15.7-36 24.6-47.7 15.2-12.3-9.9-9-38.3 6.9-52.3 11.8-10.4 33.6-15.3 44.1-4.4z" fill="#ffc9a1"/><path d="M430.2 350.2a76.9 76.9 0 0 1-53.7 33.6c16.5-3.9 40.3-20.8 47.5-32 11.7-18.3 18-52.6 1.4-66.3-5-4.1-17.7-10-35.2-7 21.3-6.6 34.5-1 41.4 5.5 17.3 15.8 10.3 48-1.4 66.2z" fill="#000" fill-opacity=".1"/><path d="M80.4 284C63 299.8 70 332 81.8 350.2c16.6 26 54.8 42.4 74.3 28.6 20.4-14.5 17.7-60-6-83.6-17.9-17.7-52-27.6-69.7-11.2z" fill="#f7c394" stroke="#333" stroke-miterlimit="10" stroke-width=".8"/><path d="M100.5 302.6c-10.3 10.6-4.7 30.5 3.3 41.5 11.4 15.7 36 24.6 47.7 15.2 12.3-9.9 9-38.3-6.9-52.3-11.8-10.4-33.6-15.3-44.1-4.4z" fill="#ffc9a1"/><path d="M81.8 350.2a76.9 76.9 0 0 0 53.7 33.6c-16.5-3.9-40.3-20.8-47.5-32-11.7-18.3-18-52.6-1.4-66.3 5-4.1 17.7-10 35.2-7-21.3-6.6-34.5-1-41.4 5.5-17.3 15.8-10.3 48 1.4 66.2z" fill="#000" fill-opacity=".1"/><path d="M256 395c23.9 0 34.1 20.9 40.3 38s9 34.2 9 45.3A50 50 0 0 1 256 526c-27.2.2-49.3-24-49.3-47.6a142 142 0 0 1 9-45.2c6.2-17.2 16.4-38.2 40.3-38.2z" fill="#4cbf4b" stroke="#333" stroke-miterlimit="10" stroke-width=".8"/><path d="M256 526a50 50 0 0 1-49.3-52.3 49.4 49.4 0 0 0 49.3 44.5 49.8 49.8 0 0 0 49.3-44.5c1.9 27.9-22 52-49.3 52.2z" fill="#000" fill-opacity=".1"/><path d="M256 414.2a26.4 26.4 0 0 1 27 19.8c5.3 23 9.9 42.5.6 54.3S262.6 501 256 501c-7.4 0-18.3-1-27.6-12.8s-5-30 .6-54.2a26.4 26.4 0 0 1 27-19.8z" fill="#f7c394" stroke="#333" stroke-miterlimit="10" stroke-width=".8"/><path d="M256 501c-21 0-34.7-14.6-33-33.5.6 17.8 14.9 29.4 33 29.4s32.4-11.6 33-29.4c1.7 18.9-12 33.5-33 33.5zM317.2 436.8c-17.9 7-42 12.2-61.2 12.2s-40.2-4-61.2-12.2l-3.6 5.7c22 8.9 42.6 13.4 64.8 13.4s42.8-4.5 64.8-13.4l-3.6-5.7z" fill="#000" fill-opacity=".1"/><path d="M333.6 130c6.5-5.5-19.3-11.7-22.8-21.6-4.1-11.8 61.4 19.7 51.4 40.5-.7 1.6-8.6 14.6-64.7-3.7 61.7 20 108.4 62.5 108.2 141-.1 60.3-54.2 153.7-149.8 154.5-92.1.8-149.8-92.4-149.6-154.4.2-75.7 67-153.6 149.7-159.4 49.5-3.5 72.1 7.7 77.5 3.1z" fill="#4cbf4b" stroke="#333" stroke-linecap="round" stroke-linejoin="round" stroke-width=".8"/><path d="M343.6 133.5c-4.6 10.1-32.8-6.2-82.3-2.7-101.3 7.1-174.7 119.5-134 210.6 10.5-10.9 23.4-14 27.5-15.3 1.2 1.3 2.7 2.7 3.2 3.4-12.6 3.9-27.2 12.4-33.5 24.3a151 151 0 0 1-18.1-67.5c.2-75.7 67-153.6 149.7-159.4 49.5-3.5 72 7.7 77.5 3.1 6.5-5.5-19.3-11.7-22.8-21.6-1.3-3.8 4.5-3.1 12.7.2-3.1-.4-4.8.3-4 2.5 3 7.8 28 14 24.1 22.4z" fill="#000" fill-opacity=".1"/><path d="M405.5 286.3c0 19.8-6 43.2-17.1 65.6a64 64 0 0 0-34.6-22.2l3.1-3.8c3.6.8 20 4.3 29 16.4a140.8 140.8 0 0 0 13.5-57.4c.2-81.3-54.8-121.7-101.9-139.7 61.7 20 108.2 62.5 108 141.1z" fill="#000" fill-opacity=".1"/><path d="M213.4 186.5c-46 0-103.1 97.5-56.4 142.4-89.2 28 0 120.8 99 120.8s188.2-92.9 99-120.8c46.7-45-10.3-142.4-56.4-142.4-19.6 0-30.3 9.1-42.6 18.1-12.3-9-23-18-42.6-18z" fill="#ffcd98" stroke="#333" stroke-width=".8"/><path d="M372.1 281.6c-2.4-47.8-41-95-74.6-95-20.9 0-33.5 12.7-41.5 18-6.4-4.3-20.5-18-41.6-18-39.6 0-74.1 57.8-74.7 96.5-3.5-41.6 28.4-104 75-104 24.1 0 37 11.5 41.3 16.4a54.2 54.2 0 0 1 41.4-16.5c46.1 0 78 59.2 74.7 102.6zM124 351.3c-21 38 51.9 98.3 132 98.3s154-61 131.7-98.9c14.8 34.7-55.6 93-131.7 93-75.6 0-145.7-57.6-132-92.4z" fill="#000" fill-opacity=".1"/><path d="M139.8 280.1a60.2 60.2 0 0 0 17.3 48.7c-1.6.5-3.2 1.2-4.7 1.8 3.5-1.1 6.8-2 10.6-2.6a81.1 81.1 0 0 1-23.2-47.9zM360 330.6c-3.4-1-7-1.9-11-2.6a81.3 81.3 0 0 0 23.3-48.4c1.2 18.4-3.6 36-17.3 49.2l5 1.8z" fill="#000" fill-opacity=".1"/><path d="M218.7 217.5c24 2.8 41.4 32.3 38.8 58.4-2.5 26-25.2 53-51.1 50-23.6-2.6-38.8-28.8-39.3-50.8-.7-29.5 24.9-60.7 51.6-57.6z" fill="#fff"/><path d="M247.9 283c3.4-17.8-6.1-34.5-21.3-37.4-15.2-3-30.3 9-33.8 26.6s6.2 34.4 21.4 37.3c15.2 3 30.3-9 33.7-26.6z" fill="#6e6efa" stroke="#333" stroke-miterlimit="10" stroke-width=".8"/><path d="M222 301c9.2 0 16.5-8.3 16.5-18.4 0-10.2-7.3-18.4-16.4-18.4-9 0-16.4 8.2-16.4 18.4 0 10.1 7.3 18.3 16.4 18.3z" fill="#000"/><path d="M236.6 269.7a6.4 6.4 0 0 0-4.1-8 6.4 6.4 0 0 0-8.3 3.7 6.4 6.4 0 0 0 4.1 8 6.4 6.4 0 0 0 8.3-3.7z" fill="#fff" stroke="#333" stroke-miterlimit="10" stroke-width=".8"/><path d="M230.6 221.2c-31.7-8.7-58 28.9-57.4 57a58 58 0 0 0 23.6 45.2c-18-7.5-29.3-29.5-29.7-48.3-.7-29.5 24.9-60.7 51.6-57.6 4.2.5 8.2 1.7 11.9 3.7z" fill="#000" fill-opacity=".1"/><path d="M234.9 248.9c-17.5-5-33 10-36.2 26.4a33.4 33.4 0 0 0 11.2 33c-12.7-5-20.1-20-17-36 3.4-17.7 18.5-29.6 33.7-26.7 3 .6 5.7 1.7 8.3 3.3z" fill="#000" fill-opacity=".1"/><path d="M292.3 216.8c-24 3.2-40.8 33.1-37.8 59.1 3 25.9 26.2 52.6 52 49.2 23.5-3.1 38.3-29.6 38.4-51.6.2-29.5-26-60.2-52.6-56.7z" fill="#fff"/><path d="M298.4 308.9c15.2-3.2 24.4-20.1 20.7-37.7-3.7-17.6-19-29.3-34.2-26-15.1 3.1-24.4 20-20.7 37.6 3.8 17.6 19 29.3 34.2 26z" fill="#6e6efa" stroke="#333" stroke-miterlimit="10" stroke-width=".8"/><path d="M290.4 300.3c9-.1 16.3-8.5 16-18.6s-7.6-18.2-16.7-18c-9 0-16.2 8.4-16 18.6s7.6 18.2 16.7 18z" fill="#000"/><path d="M300.7 273.5c3.4-1.3 5.2-5 4-8.2a6.4 6.4 0 0 0-8.4-3.6 6.4 6.4 0 0 0-4 8.2c1.3 3.3 5 4.9 8.4 3.6z" fill="#fff" stroke="#333" stroke-miterlimit="10" stroke-width=".8"/><path d="M345 273.5c-.2 19.1-11.3 41.6-29.7 49.2a57.5 57.5 0 0 0 23.7-46.1c.2-28.5-28-66.9-59.8-55 4-2.5 8.4-4.1 13-4.8 26.8-3.5 52.9 27.2 52.7 56.7z" fill="#000" fill-opacity=".1"/><path d="M301.7 307.9c9.5-6.8 14.4-20 11.5-33.7-3.5-16.3-19.6-31.2-37-25.4 2.6-1.8 5.6-3 8.7-3.7 15.2-3.2 30.5 8.4 34.2 26 3.5 16.3-4.2 32-17.4 36.8z" fill="#000" fill-opacity=".1"/><path d="M242 551.2c5 0 9.8-3.7 10.4-8.7 1.4-12.8-14.6-14-23.4-14.1-8.8-.2-23.8 1.5-26.5 11.2-2.3 8.5 5.7 11.6 11.3 11.6 5.7 0 7.6-1.9 14.5-1.9 6 0 8.8 1.9 13.7 1.9z" fill="#f7c394" stroke="#333" stroke-miterlimit="10" stroke-width=".8"/><path d="M241.9 547.8c-5 0-7.8-2-13.8-2-6.8 0-8.8 2-14.4 2-4.4 0-10.2-1.9-11.5-6.7-1 7.3 6.3 10 11.6 10 5.7 0 7.6-1.8 14.5-1.8 6 0 8.8 1.9 13.7 1.9 6.7 0 11.4-5.3 10.3-12.5-.5 5.2-5.3 9-10.4 9z" fill="#000" fill-opacity=".1"/><path d="M270 551.2c-5 0-9.8-3.7-10.4-8.7-1.4-12.8 14.6-14 23.4-14.1 8.8-.2 23.8 1.5 26.5 11.2 2.3 8.5-5.7 11.6-11.3 11.6-5.7 0-7.6-1.9-14.5-1.9-6 0-8.8 1.9-13.8 1.9z" fill="#f7c394" stroke="#333" stroke-miterlimit="10" stroke-width=".8"/><path d="M270.1 547.8c5 0 7.8-2 13.8-2 6.8 0 8.8 2 14.4 2 4.4 0 10.2-1.9 11.5-6.7 1 7.3-6.3 10-11.6 10-5.7 0-7.6-1.8-14.5-1.8-6 0-8.8 1.9-13.7 1.9-6.7 0-11.4-5.3-10.3-12.5.5 5.2 5.3 9 10.4 9z" fill="#000" fill-opacity=".1"/><path d="M194.2 505.3c8.8 0 14.4-10.6 9.1-17.9 2.5-7-2.8-14.8-10.3-15-8.7-.2-13.7 9.1-12.8 17 .8 7.3 5.8 15.9 14 15.9z" fill="#f7c394" stroke="#333" stroke-miterlimit="10" stroke-width=".8"/><path d="M180.2 489.4c1 9 8.4 19.6 19.4 14.5-10.7-1.4-18.1-19.4-12.9-29.7-.8.6-2.1 1.3-4.2 4.2-2 3.4-2.8 7.2-2.3 11zM222.7 325.3c0 11.9 15.3 26.2 33.5 26 16.8 0 33.1-14.3 33.1-26 0-23.5-66.6-23.9-66.6 0z" fill="#000" fill-opacity=".1"/><path d="M222.2 322.6c0 11.8 15.5 26.1 34 26 17-.2 33.6-14.3 33.6-26 0-9.4-19.6-17.6-33.6-17.5-13 .1-34 6.4-34 17.5z" fill="#7a5d43"/><path d="M222.5 320.5a43.2 43.2 0 0 0 33.7 15.5 45.1 45.1 0 0 0 33.2-15.7c.3.8.4 1.5.4 2.3 0 11.6-16.6 25.8-33.6 26-18.5.2-34-14.2-34-26 0-.7 0-1.4.3-2.1z" fill="#000" fill-opacity=".2"/><path d="M256 429.4c42.7 0 88.7-17.4 102.9-58.8 2.3-6.5-3.5-13.2-10.5-12.2a656.9 656.9 0 0 1-184.8 0c-7-1-12.8 5.6-10.5 12.2 14.3 41.4 60.3 58.8 103 58.8z" fill="#3d0c0c"/><path d="M256 426.6c23.3 0 48.1-5.8 68.2-18.6-41.7 2.7-98 3.6-136 .3 20 12.6 44.5 18.2 67.9 18.3z" fill="#fff"/><path d="M297.3 420.4c9.4-2.9 18.6-7 26.9-12.4l-9 .6c-5.3 4.3-11.2 8.2-18 11.8z" fill="#000" fill-opacity=".1"/><path d="M400.6 433.1c-27.2-5.3-69.2-16.6-90.3-31.3-6-4.2-6-16.4 6.2-17.4 40.6-3.3 74.1-1.4 99.4 0 13.2 17.8 19 54.3-15.3 48.7z" fill="#b34a31"/><path d="M382 382.9h-1a66.7 66.7 0 0 0-9.8 43.3l.9.3c-2-15 1.6-31 9.8-43.6zM351.9 382.7a57 57 0 0 0-11.9 33.6l.8.3a56.4 56.4 0 0 1 12.2-34zM328.8 383.6c-5 7.4-7.8 15.2-8.8 24 .3 0 .5.2.8.4 1-9 3.9-17 9-24.5z" fill="#933b2a"/><path d="M351.7 384.2a933.4 933.4 0 0 1-43.4 4 9 9 0 0 1 2.6-2.2c13.4-.9 28.7-3.8 42-3.3l-1.2 1.5zM309.9 394.7c21 14.7 63 26 90.3 31.3 18.3 3 25.2-6 25.6-17.9 2.3 15-3.3 28.6-25.2 25-27.2-5.3-69.2-16.6-90.3-31.3A9.9 9.9 0 0 1 307 391a9 9 0 0 0 3 3.7z" fill="#000" fill-opacity=".2"/><path d="M401.4 433.8c-4.1-.7-10.7-1.2-11.3-6.2-.1-1 1-2 .8-3.2-.3-2.7-3.8-2.5-4.5-5-.5-2.2 2.4-3 2.4-6 0-3.5-4.2-4.6-3.9-7.6.2-2.2 2.3-2.2 2.8-4.8.6-3.2-1.5-4.4-.6-5.8 1.2-2 4.5-1.5 6-3.5a21 21 0 0 0 2.2-4.7c2.6-6.3 20.1-2.3 24-1 2.1 17.2-13.4 32-18 47.8z" fill="#eaeaea"/><path d="M405.3 434.8c-4 0-14.2-.7-13.5-8.1.5-5-2.4-5.5-3-8-.6-2.2.7-2.1.7-5 0-3.6-2.6-4.8-2.3-7.9.2-2.1 1.9-1.9 2.4-4.4.6-3.2-1-4.5 0-6 1.2-2 3.6-.5 5.3-2.2 1.8-1.9 2-4 2.8-6.1 1-2.4 2.8-1.8 6-2.4 1.8-.3 3.6-1.4 5.5-1.4 2.7 0 7.7.2 10.2 1 2 17.2-9.7 34.7-14.1 50.5z" fill="#d6d6d6"/><path d="M408.5 436c-5.8-.9-15.5-1.5-15-9 0-3-2.3-5.3-3-7.8-.5-2.2 1-2.2 1-4.3 0-3.5-2.5-4.8-2.2-7.9.2-2.1 1.7-2 2.2-4.6.6-3.2-.2-4 .7-5.6 1.2-1.9 5.2-2.9 7-4.7 1.7-1.8.6-2.7 1.5-4.9.8-2 3.6-1 6-2a24.7 24.7 0 0 1 18.4.3c2 17.1-12.1 34.8-16.6 50.6z" fill="#c1c1c1"/><path d="M443 421.1c7-19.4-4.9-37.3-23.4-37.3-2.3 0-2.6 1-4.5 1.4-2.4.4-4-1-5.6.7-2 1.8-4.1.8-6 2.3-1 .8-1.1 2.9-2.4 4.6-1.2 1.6-3 .7-3.7 1.8-.9 1.4.8 3-.5 3.9-3.7 2.7-4.3 4.4-3.1 8 .5 1.4-.8 2.8-1 4-.4 1.7.5 3 .8 5 .5 2.6-1.3 3.2-.5 5 .6 1.1 2 2.3 2.2 4 .3 1.7-.7 3 0 4.5 5.4 11.9 40.7 11.6 47.6-7.9z" fill="#181818"/><path d="M403.3 435.3c-3.7-.8-7.3-1.8-10.6-3.8-26.9-5.8-63.2-16.4-82.4-29.7-6-4.2-6-16.4 6.2-17.4a629 629 0 0 1 85.7-.7c1.5-.2 3.1-.1 4.8 0 4-1.2 8.6 0 12.6 0 18.5 0 30.3 18 23.3 37.4-5.3 14.9-27.2 18.6-39.6 14.2z" stroke="#333" stroke-width=".8"/><path d="M350.4 382.8c2.6-4.2 4.5-8.6 5.7-13 1.4-5-2.3-9.2-7.3-8.5a667 667 0 0 1-185.6 0c-5-.7-8.7 3.5-7.3 8.6 1.2 4.3 3.1 8.7 5.7 12.9 43.6 6 131.5 7.8 188.8 0z" fill="#fff"/><path d="M161.6 382.8c4.4.6 9.1 1.1 14.3 1.6-4.4-7.3-7.6-15-10-22.7-1.4-.2-3-.6-4.5-.5-4 .4-6.7 4.2-5.5 8.7 1.2 4.3 3.1 8.7 5.7 12.9zM197.3 409c5.3 4.1 11.2 8 17.8 11.5-9.5-2.8-18.7-7-27-12.2l9.2.7zM336.2 384.5l14.2-1.7c2.6-4.2 4.5-8.6 5.7-13 1.4-5-2.2-9.2-7.1-8.6l-2.9.4c-2.3 7.9-5.6 15.5-10 22.9z" fill="#000" fill-opacity=".1"/><g fill="#b5482c"><path d="M415.8 430.1c1-.2 1.5 0 1.7-.3.3-.4 0-1-.4-1.4-1.2-.8-5.5 1.5-4.5 2.6.3.5 2.6-.8 3.2-.9zM413.1 410.5c.9-.7 1.4-.7 1.4-1s-.5-1-1-1c-1.5-.3-4.2 3.8-2.8 4.3.5.2 2-1.9 2.4-2.3zM421 391c-1.1-.2-2.7-1.7-3-1.5-.4.2-.2 1.8 0 2.3.7 1.3 6.5 1.3 6.1 0 0-.7-2.6-.6-3.1-.8zM424.7 428.5c.6 1 .5 1.5.9 1.6s2-2 2.1-2.6c.5-1.4-4-3-4.7-1.8-.4.5 1.5 2.4 1.7 2.8zM427.6 415.8c1.1-.1 1.6.2 1.8-.1.3-.3 0-1.6-.3-2-1-1-6.2 1-5.4 2.2.3.6 3.4 0 3.9-.1zM424.5 407.5c3.8.5 11-3.1 4.3-3.9-1.5-.1-5.3-1.4-5.6 2.3-.1 1 .7 1.5 1.3 1.6zM405.8 422.9c-2 .5-4.9 1.9-1.9 4 1.2 1 6-3.5 5-4.6-.3-.5-2.6.4-3.1.6zM401.2 416c-.8-.8-.8-1.3-1.2-1.4-.4 0-.9.5-1 1-.1 1.5 4 4.2 4.5 2.8.2-.5-2-2-2.3-2.4zM403.2 401.1c.6.1 3-1.2 2.9-1.8-.2-1-3.3-.7-3.8.2-.2.6.3 1.4.9 1.6zM437.9 413.2c.6.1 3-1.3 2.9-1.9-.2-1-3.3-.7-3.8.2-.2.6.3 1.5.9 1.7zM430.5 394.9c.5.1 5 0 4.8-.6-.2-1-5.8-3-6.2-2.2-.3.6.7 2.6 1.4 2.8zM434.5 400.4c.2.6 5.2 5.4 5.7 5 .8-.7-3.7-6.7-4.7-6.6-.7.1-1.2 1-1 1.6zM412.3 403.4c.6.1 7.4-1.7 7.2-2.4-.2-1-7.7-.1-8 .8-.3.6.2 1.4.8 1.6zM408.9 394.4c1.6-1 4.2-.8 4.1-1.4-.2-1-5.7.1-5.9 1-.3 1.5 1.1.8 1.7.4zM405.8 410c.7-1.6 1-2.4.6-3-4.7-4.3-3.3 9.7-.6 3zM433 426.1c.3.8.7-1.6 1.2-2.6.2-.7 1.9-2.3 1.6-2.7-1.7-2.3-3.5 3.8-2.8 5.3zM415.2 420.6c.5.2 3-.3 2.8-.9-.2-1-2.8-3.2-3.7-.7-.2.6.2 1.5.9 1.6zM419.5 415.2c.6.2 1.6-4 1.5-4.7-.2-1-2.3 1.9-2.7 2.8-.3.6.6 1.8 1.2 2z"/></g><path d="M317.8 505.3c-8.8 0-14.4-10.6-9.1-17.9-2.5-7 2.8-14.8 10.3-15 8.7-.2 13.7 9.1 12.8 17-.8 7.3-5.8 15.9-14 15.9z" fill="#f7c394" stroke="#333" stroke-miterlimit="10" stroke-width=".8"/><path d="M331.8 489.4c-1 9-8.4 19.6-19.4 14.5 10.7-1.4 18.1-19.4 12.9-29.7.8.6 2.1 1.3 4.2 4.2 2 3.4 2.8 7.2 2.3 11z" fill="#000" fill-opacity=".1"/><path d="M258.2 541c-.2-4.9-.2-10 2.4-13-.6-.5 0-1.4.7-1.2a57.3 57.3 0 0 0 28-2c18.5 13.1 31.5 12.7 34.1 15 2.9 2.6-65 6.1-65.2 1.2z" fill="#5050d8" stroke="#333" stroke-width=".8"/><path d="M289.6 522c2.4-1 9.4 3.8 8.9 5.5-1.4 1.9-13 .5-11-1.2 2.3-2 1.2-3.9 2-4.3z" fill="#3b3bbc" stroke="#333" stroke-width=".8"/><path d="M293.1 525c4.7 2.2 18.4 9 16 10.6-6.5 4.7-24-5.3-24.6-6.7-.4-1.4 1.5-2.3 2.9-3 1.5-.9 3.3-2 5.7-1z" fill="#3b3bbc" stroke="#333" stroke-width=".8"/><path d="M258 549.2c-.1-2-.3-5 0-6.6 14.7 2.5 56.8 2 66.6-2.4 1.4.8 2.6 4.2 1.8 7-8.4 7.6-56.5 4.7-66.5 4a2 2 0 0 1-2-2z" fill="#e6e6e6" stroke="#333" stroke-width=".8"/><path d="m258.1 542.6.2 3.5c0 1 .9 1.9 2 2 9.9.7 57.6 3.6 66.3-4 .1 1 0 2-.2 3-8.4 7.7-56.5 4.8-66.5 4a2 2 0 0 1-2-2c0-1.9-.2-5 0-6.5h.2z" fill="#000" fill-opacity=".1"/><path d="M258.3 541.3c-.5 0-.8.7-.4 1.3 14.8 2.5 57 2 66.7-2.4.2-.6-.4-1.4-1-1.2-16.5 4.9-52.8 3.4-65.3 2.3z" fill="#999" stroke="#333" stroke-width=".8"/><path d="M253.8 541c.2-4.9.2-10-2.4-13 .6-.5 0-1.4-.7-1.2a57.3 57.3 0 0 1-28-2c-18.5 13.1-31.5 12.7-34.1 15-2.9 2.6 65 6.1 65.2 1.2z" fill="#5050d8" stroke="#333" stroke-width=".8"/><path d="M222.4 522c-2.4-1-9.4 3.8-8.9 5.5 1.4 1.9 13 .5 11-1.2-2.3-2-1.2-3.9-2-4.3z" fill="#3b3bbc" stroke="#333" stroke-width=".8"/><path d="M218.9 525c-4.7 2.2-18.4 9-16 10.6 6.5 4.7 24-5.3 24.6-6.7.4-1.4-1.5-2.3-2.9-3-1.5-.9-3.3-2-5.7-1z" fill="#3b3bbc" stroke="#333" stroke-width=".8"/><path d="M254 549.2c.1-2 .3-5 0-6.6-14.7 2.5-56.8 2-66.6-2.4-1.4.8-2.6 4.2-1.8 7 8.4 7.6 56.5 4.7 66.5 4 1-.1 1.9-1 2-2z" fill="#e6e6e6" stroke="#333" stroke-width=".8"/><path clip-rule="evenodd" d="m253.9 542.6-.2 3.5c0 1-.9 1.9-2 2-9.9.7-57.6 3.6-66.3-4a7 7 0 0 0 .2 3c8.4 7.7 56.5 4.8 66.5 4 1 0 1.9-.9 2-2 0-1.9.2-5 0-6.5h-.2z" fill="#000" fill-opacity=".1" fill-rule="evenodd"/><path d="M253.7 541.3c.5 0 .8.7.4 1.3-14.8 2.5-57 2-66.7-2.4-.2-.6.4-1.4 1-1.2 16.5 4.9 52.8 3.4 65.3 2.3z" fill="#999" stroke="#333" stroke-width=".8"/><path d="M384.8 207.2C325.5 231.3 212 218.1 161.6 169c76.1-68.9 169-43.7 223.2 38.3z" fill="#000" fill-opacity=".1"/><path d="M287.3 141.9c75.5 11 128.3-10.4 128.3 19.2 0 53.7-88.4 53.7-132.8 49.4-44.5-4.2-133-31.7-133-79 0-44.5 62-.6 137.5 10.4z" fill="#232323" stroke="#333" stroke-miterlimit="10" stroke-width=".8"/><path d="M392 69.7c5 29.4-17.4 41.8-24.9 98.3-2.8 21.6-69.4 15-90.2 11.8-17.9-2.7-82.8-12.4-80.3-36.4 6.9-63.8-6.3-73.6 6.9-96.4 10-17.5 49.2-16 101.6-8.6 52.3 7.2 84 15 86.8 31.3z" fill="#1a1a1a" stroke="#333" stroke-miterlimit="10" stroke-width=".8"/><path d="M372.6 140.5c-18.6 11.9-73.6 7.8-92.8 4.7-15.6-2.5-64.2-14.2-81.2-31-.2 8.2-.8 17.9-2 29.2-2.5 23.9 61.6 33.6 80 36.4h.3c20.8 3.2 87.4 9.8 90.2-11.8 1.4-10.6 3.3-19.6 5.5-27.5z" fill="#4d4d4d" stroke="#333" stroke-miterlimit="10" stroke-width=".8"/><path d="M362.5 66.4c-1.6-11-13.7-18.5-34.4-24.5 38.5 6.4 61.5 14 63.8 27.8 2.6 14.9-2 25.4-8 39.5a203.6 203.6 0 0 0-16.8 58.8c-1.2 9.6-15.2 13.6-32 14.8 1.4-1.8 2.4-4 2.7-6.4 7.4-63.2 29.7-77.2 24.7-110z" fill="#000" fill-opacity=".3"/></g></svg>