<svg fill="none" height="620" viewBox="0 0 512 620" width="512" xmlns="http://www.w3.org/2000/svg"><path d="M298.6 510c-7.8-1.1-17.8-5-30.5-11.7a4 4 0 0 1-1.6-5.3 4 4 0 0 1 5.3-1.6 94.1 94.1 0 0 0 28 11c4.4.6 7.7.1 9.6-1.5 2-1.9 1.9-5.1 1.3-11.2-.6-7.2-1.4-16 3-26.3 7-15.5 23.9-30.2 41.8-27.4 11.4 1.8 22.3 10.3 24.8 21.8 2 9.8-1 23.3-11.4 27-7 2.5-15-.3-20.3-5a4 4 0 0 1-.5-5.4 4 4 0 0 1 5.5-.4s6.8 5.6 12.6 3.5c6.7-2.4 7.7-12.2 6.5-18-1.8-8.5-10.2-14.6-18.4-15.8-14.4-2.3-28 10.6-33.4 22.8-3.7 8.4-3 15.9-2.5 22.5.7 6.8 1.2 13.2-4 17.7-4.2 3.8-10.3 4.2-15.8 3.3z" fill="#d84c6a" stroke="#333" stroke-miterlimit="10" stroke-width=".8"/><path d="M378 459.7c1.7 7.9.2 17.7-5.9 23.6 8-5.3 10.1-16.7 8.2-25.5-2.5-11.5-13.4-20-24.7-21.8a36 36 0 0 0-28.2 9.5c17.7-12.6 45.5-9.4 50.6 14.2z" fill="#000" fill-opacity=".2"/><path d="M367.3 477.1c-4.2 4.9-11.7 2.4-16-1.3a3.9 3.9 0 0 0-3.5-.7 3.9 3.9 0 0 1 6-1c3.3 3 9.2 5.3 13.5 3zM267.5 492c.5-.5 2.4-1.5 3.5-1l3.9 2c7.6 3.7 19.7 9.7 28.5 9.7 7.7 0 8.4-3.9 7.3-14.1l.5 2c1.5 5.8 3.7 14.6-7.8 14.6-12.7 0-32.4-11-36-13.3z" fill="#000" fill-opacity=".2"/><path d="M192 487.8c5.6 0 10.2-5 9.6-10.6a47.1 47.1 0 0 1 10.2-30.8c6.7-9.3 13.9-14.4 8.3-20.5-5.5-6-17.9.6-24 9.3a65.6 65.6 0 0 0-13.8 44c.5 4.8 4 8.6 9.7 8.6z" fill="#d84c6a" stroke="#333" stroke-miterlimit="10" stroke-width=".8"/><path d="M186.7 474.2c0-17.4 14-43 30.3-50.3-20.2-3.2-38 36.2-34.5 54.6 1-1.9 3-3.7 4.2-4.3z" fill="#000" fill-opacity=".1"/><path d="M249.7 534.2c.8-13.5 4.3-24 7.3-32s6.6-22.5-6.6-25.8c-18.8-4.7-29.2 39.4-30 52.9-.4 7.9 5.8 17 13.8 17.5 7.3.4 15-4.9 15.5-12.6z" fill="#d84c6a" stroke="#333" stroke-miterlimit="10" stroke-width=".8"/><path d="M220.3 529.2c8-1 23-1 29.2 5.3l.2-2.3c-6.5-5.7-21.4-6.1-29.1-5l-.3 2zM222.8 515.4a49.3 49.3 0 0 0 27.5 12.1l.4-2.6a49.6 49.6 0 0 1-27.3-12.5l-.7 3z" fill="#000" fill-opacity=".1"/><path d="M262.3 534.2c-.8-13.5-4.2-24-7.3-32s-6.6-22.5 6.6-25.8c18.8-4.7 29.2 39.4 30 52.9.4 7.9-5.8 17-13.8 17.5-7.3.4-15-4.9-15.5-12.6z" fill="#d84c6a" stroke="#333" stroke-miterlimit="10" stroke-width=".8"/><path d="M291.7 529.2c-8-1-23-1-29.2 5.3l-.2-2.3c6.5-5.7 21.4-6.1 29.1-5l.3 2zM289.3 515.4a49.3 49.3 0 0 1-27.6 12.1l-.4-2.6a49.6 49.6 0 0 0 27.3-12.5c.3.9.5 2.3.6 3z" fill="#000" fill-opacity=".1"/><path d="M320 487.8c-5.6 0-10.2-5-9.6-10.6.8-9.9-2.9-20.5-10.2-30.8-6.7-9.3-13.9-14.4-8.3-20.5 5.5-6 17.9.6 24 9.3a65.6 65.6 0 0 1 13.8 44c-.5 4.8-4 8.6-9.7 8.6z" fill="#d84c6a" stroke="#333" stroke-miterlimit="10" stroke-width=".8"/><path d="M325.3 474.2c0-17.4-14-43-30.3-50.3 20.2-3.2 38 36.2 34.5 54.6-1-1.9-3-3.7-4.2-4.3z" fill="#000" fill-opacity=".1"/><path d="M431.6 284c17.3 15.8 10.3 48-1.4 66.2-16.6 26-54.8 42.4-74.3 28.6-20.4-14.5-17.7-60 6.1-83.6 17.8-17.7 51.8-27.6 69.6-11.2z" fill="#f7c394" stroke="#333" stroke-miterlimit="10" stroke-width=".8"/><path d="M411.5 302.6c10.3 10.6 4.7 30.5-3.3 41.5-11.4 15.7-36 24.6-47.7 15.2-12.3-9.9-9-38.3 6.9-52.3 11.8-10.4 33.6-15.3 44.1-4.4z" fill="#ffc9a1"/><path d="M430.2 350.2a76.9 76.9 0 0 1-53.7 33.6c16.5-3.9 40.3-20.8 47.5-32 11.7-18.3 18-52.6 1.4-66.3-5-4.1-17.7-10-35.2-7 21.3-6.6 34.5-1 41.4 5.5 17.3 15.8 10.3 48-1.4 66.2z" fill="#000" fill-opacity=".1"/><path d="M80.4 284C63 299.8 70 332 81.8 350.2c16.6 26 54.8 42.4 74.3 28.6 20.4-14.5 17.7-60-6-83.6-17.9-17.7-52-27.6-69.7-11.2z" fill="#f7c394" stroke="#333" stroke-miterlimit="10" stroke-width=".8"/><path d="M100.5 302.6c-10.3 10.6-4.7 30.5 3.3 41.5 11.4 15.7 36 24.6 47.7 15.2 12.3-9.9 9-38.3-6.9-52.3-11.8-10.4-33.6-15.3-44.1-4.4z" fill="#ffc9a1"/><path d="M81.8 350.2a76.9 76.9 0 0 0 53.7 33.6c-16.5-3.9-40.3-20.8-47.5-32-11.7-18.3-18-52.6-1.4-66.3 5-4.1 17.7-10 35.2-7-21.3-6.6-34.5-1-41.4 5.5-17.3 15.8-10.3 48 1.4 66.2z" fill="#000" fill-opacity=".1"/><path d="M256 395c23.9 0 34.1 20.9 40.3 38s9 34.2 9 45.3A50 50 0 0 1 256 526c-27.2.2-49.3-24-49.3-47.6a142 142 0 0 1 9-45.2c6.2-17.2 16.4-38.2 40.3-38.2z" fill="#d84c6a" stroke="#333" stroke-miterlimit="10" stroke-width=".8"/><path d="M256 526a50 50 0 0 1-49.3-52.3 49.4 49.4 0 0 0 49.3 44.5 49.8 49.8 0 0 0 49.3-44.5c1.9 27.9-22 52-49.3 52.2z" fill="#000" fill-opacity=".1"/><path d="M256 414.2a26.4 26.4 0 0 1 27 19.8c5.3 23 9.9 42.5.6 54.3S262.6 501 256 501c-7.4 0-18.3-1-27.6-12.8s-5-30 .6-54.2a26.4 26.4 0 0 1 27-19.8z" fill="#f7c394" stroke="#333" stroke-miterlimit="10" stroke-width=".8"/><path d="M256 501c-21 0-34.7-14.6-33-33.5.6 17.8 14.9 29.4 33 29.4s32.4-11.6 33-29.4c1.7 18.9-12 33.5-33 33.5z" fill="#000" fill-opacity=".1"/><path d="M326.8 454.4c-1.8 1.4-13.8 7.5-19.5 6.5a36 36 0 0 0-5.1-10c3.7 12 6.9 33.9-.8 46.6-9.4 9.3-28.5 14-45.4 14s-36-4.7-45.4-14c-6.2-9.7-6.2-28-.8-46.6a30 30 0 0 0-5.1 10c-6.8 0-14.8-2.3-19.8-5.8 3.2-10 8.2-16.5 9.8-18.2 20.4 8 39 12.3 61.3 12.3 22.2 0 44-4.6 61.8-11.6 1 1.7 6.9 8.9 9 16.8z" fill="#fff" stroke="#333" stroke-linecap="round" stroke-linejoin="round" stroke-width=".8"/><path d="M326.8 454.5a40.1 40.1 0 0 1-19.4 6.5c-1-3.4-4.4-9.2-5.1-10.4 2.7 1.7 4 4.6 5.2 7.4 6.4.4 15-3.6 18.3-6.7.3.6.9 2.3 1 3.2zM305.6 469.6c1.6 15-1.5 24-4.4 28.2-13.2 11.3-32.2 13.6-45.2 13.7-18.3.2-36.1-5-45.5-14.2-4.3-5.5-4.8-17.6-4.7-25 .1 6.6 1.7 15.6 6.1 21.2 7.3 9.3 25.8 13.7 44.1 13.5 20-.2 38-4 45.2-14.4 4.3-6.4 4.3-15.6 4.4-23zM204.7 461c-6.7.1-14.5-2.8-19.7-6 0-.7 1-2.9 1.2-3.3 3.5 3.1 12 6.7 18.3 6.3 1-2 2.2-5.4 5.3-7.4-.7 1.2-4.1 7-5.1 10.4zM317.2 436.8c-17.9 7-42 12.2-61.2 12.2s-40.2-4-61.2-12.2l-3.6 5.7c22 8.9 42.6 13.4 64.8 13.4s42.8-4.5 64.8-13.4l-3.6-5.7z" fill="#000" fill-opacity=".1"/><path d="M333.6 130c6.5-5.5-19.3-11.7-22.8-21.6-4.1-11.8 61.4 19.7 51.4 40.5-.7 1.6-8.6 14.6-64.7-3.7 61.7 20 108.4 62.5 108.2 141-.1 60.3-54.2 153.7-149.8 154.5-92.1.8-149.8-92.4-149.6-154.4.2-75.7 67-153.6 149.7-159.4 49.5-3.5 72.1 7.7 77.5 3.1z" fill="#d84c6a" stroke="#333" stroke-linecap="round" stroke-linejoin="round" stroke-width=".8"/><path d="M343.6 133.5c-4.6 10.1-32.8-6.2-82.3-2.7-101.3 7.1-174.7 119.5-134 210.6 10.5-10.9 23.4-14 27.5-15.3 1.2 1.3 2.7 2.7 3.2 3.4-12.6 3.9-27.2 12.4-33.5 24.3a151 151 0 0 1-18.1-67.5c.2-75.7 67-153.6 149.7-159.4 49.5-3.5 72 7.7 77.5 3.1 6.5-5.5-19.3-11.7-22.8-21.6-1.3-3.8 4.5-3.1 12.7.2-3.1-.4-4.8.3-4 2.5 3 7.8 28 14 24.1 22.4z" fill="#000" fill-opacity=".1"/><path d="M405.5 286.3c0 19.8-6 43.2-17.1 65.6a64 64 0 0 0-34.6-22.2l3.1-3.8c3.6.8 20 4.3 29 16.4a140.8 140.8 0 0 0 13.5-57.4c.2-81.3-54.8-121.7-101.9-139.7 61.7 20 108.2 62.5 108 141.1z" fill="#000" fill-opacity=".1"/><path d="M213.4 186.5c-46 0-103.1 97.5-56.4 142.4-89.2 28 0 120.8 99 120.8s188.2-92.9 99-120.8c46.7-45-10.3-142.4-56.4-142.4-19.6 0-30.3 9.1-42.6 18.1-12.3-9-23-18-42.6-18z" fill="#ffcd98" stroke="#333" stroke-width=".8"/><path d="M372.1 281.6c-2.4-47.8-41-95-74.6-95-20.9 0-33.5 12.7-41.5 18-6.4-4.3-20.5-18-41.6-18-39.6 0-74.1 57.8-74.7 96.5-3.5-41.6 28.4-104 75-104 24.1 0 37 11.5 41.3 16.4a54.2 54.2 0 0 1 41.4-16.5c46.1 0 78 59.2 74.7 102.6zM124 351.3c-21 38 51.9 98.3 132 98.3s154-61 131.7-98.9c14.8 34.7-55.6 93-131.7 93-75.6 0-145.7-57.6-132-92.4z" fill="#000" fill-opacity=".1"/><path d="M139.8 280.1a60.2 60.2 0 0 0 17.3 48.7c-1.6.5-3.2 1.2-4.7 1.8 3.5-1.1 6.8-2 10.6-2.6a81.1 81.1 0 0 1-23.2-47.9zM360 330.6c-3.4-1-7-1.9-11-2.6a81.3 81.3 0 0 0 23.3-48.4c1.2 18.4-3.6 36-17.3 49.2l5 1.8z" fill="#000" fill-opacity=".1"/><path d="M218.7 217.5c24 2.8 41.4 32.3 38.8 58.4-2.5 26-25.2 53-51.1 50-23.6-2.6-38.8-28.8-39.3-50.8-.7-29.5 24.9-60.7 51.6-57.6z" fill="#fff"/><path d="M247.9 283c3.4-17.8-6.1-34.5-21.3-37.4s-30.3 9-33.8 26.6 6.2 34.4 21.4 37.3c15.2 3 30.3-9 33.7-26.6z" fill="#868686" stroke="#333" stroke-miterlimit="10" stroke-width=".8"/><path d="M222 301c9.2 0 16.5-8.3 16.5-18.4 0-10.2-7.3-18.4-16.4-18.4s-16.4 8.2-16.4 18.4c0 10.1 7.3 18.3 16.4 18.3z" fill="#000"/><path d="M236.6 269.7a6.4 6.4 0 0 0-4.1-8 6.4 6.4 0 0 0-8.3 3.7 6.4 6.4 0 0 0 4.1 8 6.4 6.4 0 0 0 8.3-3.7z" fill="#fff" stroke="#333" stroke-miterlimit="10" stroke-width=".8"/><path d="M230.6 221.2c-31.7-8.7-58 28.9-57.4 57a58 58 0 0 0 23.6 45.2c-18-7.5-29.3-29.5-29.7-48.3-.7-29.5 24.9-60.7 51.6-57.6 4.2.5 8.2 1.7 11.9 3.7z" fill="#000" fill-opacity=".1"/><path d="M234.9 248.9c-17.5-5-33 10-36.2 26.4a33.4 33.4 0 0 0 11.2 33c-12.7-5-20.1-20-17-36 3.4-17.7 18.5-29.6 33.7-26.7 3 .6 5.7 1.7 8.3 3.3z" fill="#000" fill-opacity=".1"/><path d="M292.3 216.8c-24 3.2-40.8 33.1-37.8 59.1 3 25.9 26.2 52.6 52 49.2 23.5-3.1 38.3-29.6 38.4-51.6.2-29.5-26-60.2-52.6-56.7z" fill="#fff"/><path d="M298.4 308.9c15.2-3.2 24.4-20.1 20.7-37.7-3.7-17.6-19-29.3-34.2-26-15.1 3.1-24.4 20-20.7 37.6 3.8 17.6 19 29.3 34.2 26z" fill="#868686" stroke="#333" stroke-miterlimit="10" stroke-width=".8"/><path d="M290.4 300.3c9-.1 16.3-8.5 16-18.6 0-10.1-7.6-18.2-16.7-18-9 0-16.2 8.4-16 18.6s7.6 18.2 16.7 18z" fill="#000"/><path d="M300.7 273.5c3.4-1.3 5.2-5 4-8.2a6.4 6.4 0 0 0-8.4-3.6 6.4 6.4 0 0 0-4 8.2c1.3 3.3 5 4.9 8.4 3.6z" fill="#fff" stroke="#333" stroke-miterlimit="10" stroke-width=".8"/><path d="M345 273.5c-.2 19.1-11.3 41.6-29.7 49.2a57.5 57.5 0 0 0 23.7-46.1c.2-28.5-28-66.9-59.8-55 4-2.5 8.4-4.1 13-4.8 26.8-3.5 52.9 27.2 52.7 56.7z" fill="#000" fill-opacity=".1"/><path d="M301.7 307.9c9.5-6.8 14.4-20 11.5-33.7-3.5-16.3-19.6-31.2-37-25.4 2.6-1.8 5.6-3 8.7-3.7 15.2-3.2 30.5 8.4 34.2 26 3.5 16.3-4.2 32-17.4 36.8z" fill="#000" fill-opacity=".1"/><path d="M242 551.2c5 0 9.8-3.7 10.4-8.7 1.4-12.8-14.6-14-23.4-14.1-8.8-.2-23.8 1.5-26.5 11.2-2.3 8.5 5.7 11.6 11.3 11.6 5.7 0 7.6-1.9 14.5-1.9 6 0 8.8 1.9 13.7 1.9z" fill="#f7c394" stroke="#333" stroke-miterlimit="10" stroke-width=".8"/><path d="M241.9 547.8c-5 0-7.8-2-13.8-2-6.8 0-8.8 2-14.4 2-4.4 0-10.2-1.9-11.5-6.7-1 7.3 6.3 10 11.6 10 5.7 0 7.6-1.8 14.5-1.8 6 0 8.8 1.9 13.8 1.9 6.6 0 11.3-5.3 10.2-12.5-.5 5.2-5.3 9-10.4 9z" fill="#000" fill-opacity=".1"/><path d="M270 551.2c-5 0-9.8-3.7-10.4-8.7-1.4-12.8 14.6-14 23.4-14.1 8.8-.2 23.8 1.5 26.5 11.2 2.3 8.5-5.7 11.6-11.3 11.6-5.7 0-7.6-1.9-14.5-1.9-6 0-8.8 1.9-13.7 1.9z" fill="#f7c394" stroke="#333" stroke-miterlimit="10" stroke-width=".8"/><path d="M270.1 547.8c5 0 7.8-2 13.8-2 6.8 0 8.8 2 14.4 2 4.4 0 10.2-1.9 11.5-6.7 1 7.3-6.3 10-11.6 10-5.7 0-7.6-1.8-14.5-1.8-6 0-8.8 1.9-13.7 1.9-6.7 0-11.4-5.3-10.3-12.5.5 5.2 5.3 9 10.4 9z" fill="#000" fill-opacity=".1"/><path d="M194.2 505.3c8.8 0 14.4-10.6 9.1-17.9 2.5-7-2.8-14.8-10.3-15-8.7-.2-13.7 9.1-12.8 17 .8 7.3 5.8 15.9 14 15.9z" fill="#f7c394" stroke="#333" stroke-miterlimit="10" stroke-width=".8"/><path d="M180.2 489.4c1 9 8.4 19.6 19.4 14.5-10.7-1.4-18.1-19.4-12.9-29.7-.8.6-2.1 1.3-4.3 4.2a17.7 17.7 0 0 0-2.2 11zM222.7 325.3c0 11.9 15.3 26.2 33.5 26 16.8 0 33.1-14.3 33.1-26 0-23.5-66.6-23.9-66.6 0z" fill="#000" fill-opacity=".1"/><path d="M222.2 322.6c0 11.8 15.5 26.1 34 26 17-.2 33.6-14.3 33.6-26 0-9.4-19.6-17.6-33.6-17.5-13 .1-34 6.4-34 17.5z" fill="#7a5d43"/><path d="M222.5 320.5a43.2 43.2 0 0 0 33.7 15.5 45.1 45.1 0 0 0 33.2-15.7c.3.8.4 1.5.4 2.3 0 11.6-16.6 25.8-33.6 26-18.5.2-34-14.2-34-26 0-.7 0-1.4.3-2.1z" fill="#000" fill-opacity=".2"/><path d="M317.8 505.3c-8.8 0-14.4-10.6-9.1-17.9-2.5-7 2.8-14.8 10.3-15 8.7-.2 13.7 9.1 12.8 17-.8 7.3-5.8 15.9-14 15.9z" fill="#f7c394" stroke="#333" stroke-miterlimit="10" stroke-width=".8"/><path d="M331.8 489.4c-1 9-8.4 19.6-19.4 14.5 10.7-1.4 18.1-19.4 12.9-29.7.8.6 2.1 1.3 4.2 4.2 2 3.4 2.8 7.2 2.3 11z" fill="#000" fill-opacity=".1"/><path d="M258.8 528.2c0-3.6 2.9-6.5 6.5-6.5h14.4c8.6 0 11.5 5.2 11.5 5.2h4.6c5.8 0 20 3.8 19.5 21.5 0 2.6-2.6 4.4-5.2 4.3-10-.5-30.4.1-42.2.6-5 .2-9.1-3.8-9.1-8.7z" fill="#fff" stroke="#333" stroke-width=".8"/><path clip-rule="evenodd" d="M258.8 539.6v5c0 5 4.1 8.9 9 8.7 12-.5 32.3-1.1 42.3-.6 2.6.1 5.2-1.7 5.2-4.3l-.1-4c-.6 2-2.8 3.5-5 3.3-10-.5-30.5.2-42.3.6-5 .2-9.1-3.7-9.1-8.7z" fill="#000" fill-opacity=".1" fill-rule="evenodd"/><path d="M253.2 528.2c0-3.6-2.9-6.5-6.5-6.5h-14.4c-8.6 0-11.5 5.2-11.5 5.2h-4.6c-5.8 0-20 3.8-19.5 21.5 0 2.6 2.6 4.4 5.2 4.3 10-.5 30.4.1 42.2.6 5 .2 9.1-3.8 9.1-8.7z" fill="#fff" stroke="#333" stroke-width=".8"/><path clip-rule="evenodd" d="M253.2 539.6v5c0 5-4.1 8.9-9 8.7-12-.5-32.3-1.1-42.3-.6-2.6.1-5.2-1.7-5.2-4.3l.1-4c.6 2 2.8 3.5 5 3.3 10-.5 30.5.2 42.3.6 5 .2 9.1-3.7 9.1-8.7z" fill="#000" fill-opacity=".1" fill-rule="evenodd"/><path d="m348.4 371.4.6 4.2 1.5 3.9c.4.9-.4 1.9-1.3 1.5-3.7-1.7-5-7-2.7-10.2.6-.8 1.8-.4 1.9.6z" fill="#000" fill-opacity=".1"/><path d="M341.6 377c-1-4.5-.3-9.4-.2-9.9.4-1.5-2.2-2.5-3.1-1.1-.3.4-2 4-1.6 9.6-9.7 6.4-27 7.7-43.7 6.4-19.8-.9-47.4-11.6-79.8-11.6-22 0-33.7 3-38 3.7.2-3-1.2-7-1.7-8-1-1.7-3.4-.6-3 1.2a24 24 0 0 1-.2 10c-1.1 5-3.7 8.8-4 9.9-.6 1.8 1.2 2.4 2.3 2 1.8-.6 6.1-7.7 6.4-11.9 7-1 13-3 38.2-2.6 27 .4 54.4 10 79.8 11.7 27.7 1.8 41.7-6.3 44.2-7.6 1.7 6.4 5.2 9.8 6 10.2 1.8.9 3.6-.7 2.4-2.3a26 26 0 0 1-4-9.7z" fill="#634b37"/><path d="M165.4 370.8c2.2 3.3 1 8.5-2.6 10.3-1 .4-1.7-.6-1.3-1.5l1.4-4c.3-1.3.4-2.8.5-4.2.1-1 1.4-1.4 2-.6z" fill="#000" fill-opacity=".1"/><path d="M351.6 212.7c-50.1-16-115-15.2-137.4-15.2-1.2-2-2-4.4-2.5-7.4 8.9-3 134 7.4 140 12.4z" fill="#000" fill-opacity=".2"/><path d="M357.7 212.7a57.6 57.6 0 0 0-12.7-5c-29-8.7-60.5-12.2-90.6-13.2-18.5-.6-16.6-24.9-.1-24.4 27.8.9 56.2 3.4 83.3 10.2 12.2 3.1 22.4 6.9 27.6 11 14.9 11.5-7.4 21.4-7.5 21.4z" fill="gray" stroke="#333" stroke-linecap="round" stroke-miterlimit="10" stroke-width=".8"/><path d="M314.9 191.6a4.2 4.2 0 1 0 0-8.3 4.2 4.2 0 0 0 0 8.3zM333.3 194.7a4.2 4.2 0 1 0 0-8.3 4.2 4.2 0 0 0 0 8.3z" fill="#4d4d4d" stroke="#333" stroke-linecap="round" stroke-miterlimit="10" stroke-width=".8"/><path d="M314.9 190.2a2.7 2.7 0 1 0 0-5.5 2.7 2.7 0 0 0 0 5.5zM333.3 193.3a2.7 2.7 0 1 0 0-5.5 2.7 2.7 0 0 0 0 5.5z" fill="#333"/><g stroke="#333" stroke-miterlimit="10" stroke-width=".8" stroke-linecap="round"><path d="M127.5 212.4a148.5 148.5 0 0 0-20.8 63.3c-6-.4-11.8.4-17.3 2.4 8.5-25.8 22.6-46 37.5-67.8l.6 2z" fill="gray"/><path d="M274.7 187.5a4.2 4.2 0 1 0 0-8.3 4.2 4.2 0 0 0 0 8.3zM293.6 188.6a4.2 4.2 0 1 0 0-8.3 4.2 4.2 0 0 0 0 8.3zM255.6 186.4a4.2 4.2 0 1 0 0-8.3 4.2 4.2 0 0 0 0 8.3z" fill="#4d4d4d"/></g><path d="M367.3 206c-3.7 4-9.6 6.7-9.6 6.7a57.6 57.6 0 0 0-12.7-5c-10.3-3.1-24.4-6-38.6-8.1-22-3.4-44-4.8-52-5.1-15.2-.5-16.6-17-7.5-22.6-5.4 7-2.5 19.4 10.6 19.8 8 .3 30 1.7 52 5.1 14.2 2.1 28.3 5 38.6 8 5.6 1.7 10 3.4 12.7 5.1 2.3-1 4.5-2.4 6.5-3.9z" fill="#000" fill-opacity=".1"/><path d="M296.4 173c-21.4-2.4-43-3.7-64.6-3.1-20.6.5-39.7 3.1-48.3 8-16.3 9.2 1.1 18.1 1.1 18.1 3-1.3 17.9-1.6 35.6-1.4 29.7.3 67.6 2 72.5 2.6 18.4 2 20-22.2 3.7-24.2zm-66 12.7c-1.4-1-2-2.6-1.7-4.3.5-2.5 3.3-4 5.6-3a4.2 4.2 0 0 1 1.4 6.8 4.2 4.2 0 0 1-5.3.5zm23 0a4.2 4.2 0 0 1-.7-6.4c1.2-1.2 3-1.5 4.5-.9a4.2 4.2 0 0 1 1.4 6.8 4.2 4.2 0 0 1-5.3.5zm19 1.1c-1.4-.9-2-2.6-1.7-4.2.5-2.5 3.2-4 5.6-3a4.2 4.2 0 0 1 1.4 6.7 4.2 4.2 0 0 1-5.3.5zm18.9 1.1c-1.4-1-2.1-2.6-1.8-4.3.5-2.5 3.3-4 5.7-3 2 .9 3 3.4 2.2 5.4-1 2.4-4 3.3-6.1 2z" fill="gray" stroke="#333" stroke-linecap="round" stroke-miterlimit="10" stroke-width=".8"/><path d="M399.6 240.7c-4.2-4-18.6-16-50.6-24.7-1.2-.4-2-1.3-2.3-2.4-6.2-32.1-12.3-58.2-56.5-62-44.2-3.6-62.9 16-72.1 47.9-.4 1.4-1.7 2.2-3.2 2.2-38.1.2-83.7 20.5-96.4 28l4.2-9.3c15-8.3 54.4-25.6 90.3-25.9 1.4 0 2.7-.8 3.1-2.2 9.3-31.9 27.3-50.9 75.6-47.8 48.6 3.2 50.6 28 57.3 62.5.2 1.1 1 2 2.2 2.4a181.7 181.7 0 0 1 43.3 17c2 4.6 3.6 9.4 5 14.3z" fill="#000" fill-opacity=".2"/><path d="M255.6 185a2.7 2.7 0 1 0 0-5.5 2.7 2.7 0 0 0 0 5.5zM274.7 186.1a2.7 2.7 0 1 0 0-5.5 2.7 2.7 0 0 0 0 5.5zM293.6 187.2a2.7 2.7 0 1 0 0-5.5 2.7 2.7 0 0 0 0 5.5z" fill="#333"/><path d="M303.7 176.1c4.2 7.7-.5 19.5-13.5 18-5-.6-42.8-2.3-72.5-2.6-17.7-.2-32.5.1-35.6 1.4-1.7-.9-3.3-2-4.7-3.3 2.1 3.8 7.2 6.4 7.2 6.4 3-1.3 17.9-1.6 35.6-1.4 29.7.3 67.6 2 72.5 2.6 15 1.7 18.9-14.1 11-21z" fill="#000" fill-opacity=".1"/><path d="M398.5 236.6s-8.3-12.6-47.3-23.3c-1-.3-2-1.3-2.2-2.4-6.3-32.1-12.4-58.7-57.2-62.5-48.3-4-66.4 15.9-75.7 47.8-.4 1.4-1.7 2.2-3.1 2.2-39.5.2-83.2 21.3-94 28-.9.6-2-.3-1.7-1.3 1.8-4.9 4.6-10.5 6.1-18.5 8.2-43.1 54.6-119.7 151.3-117 90.5 2.4 123.8 74.8 123.8 147z" fill="#f2f2f2" stroke="#333" stroke-linecap="round" stroke-miterlimit="10" stroke-width=".8"/><path d="M398.5 236.6s-4.9-6.2-15-11.2c-5.5-65.3-40.3-125.8-122.7-128-27.6-.8-51 4.9-70.8 14.4a148 148 0 0 1 84.7-22.2c90.5 2.4 123.8 74.8 123.8 147z" fill="#000" fill-opacity=".1"/></svg>