<svg width='1200' height='1200' viewBox="0 0 1200 1200" xmlns="http://www.w3.org/2000/svg"><g stroke="#000"><path d="m1053.62 425.68c-8.28 41.41-49.12 65.54-109.17 74.63-43.09 6.52-96.08 5.33-154.05-2.74-14.27-2-28.86-4.4-43.66-7.2 0-67.74 35.72-105.23 69.5-117.37a76.74 76.74 0 0 1 8.88-2.64c15.1-3.52 50.41-5.58 89.38-2.1 54.16 4.84 115.34 20.37 139.12 57.42z" fill="#f2f2f2" stroke-linecap="round" stroke-miterlimit="10" stroke-width="6"/><path d="m543.08 513.2c-7.39 0-15-.4-22.7-1.17-58.49-5.67-125.68-31.34-179.2-59.57-49.82-26.25-87.77-54.68-95.81-71.25 11.51-3.07 59-7.09 119-10.61 46-2.72 99.39-5.16 149.53-6.67 33.55-1 65.64-1.62 93.12-1.62 103.21 102.21 51.14 151.06-63.94 150.89z" fill="#f2f2f2" stroke-linecap="round" stroke-miterlimit="10" stroke-width="6"/><path d="m536.84 454a147.94 147.94 0 0 1 -16.46 58c-58.49-5.67-125.68-31.34-179.2-59.57-.06-4.35.09-8.77.43-13.23 2-26 10.23-49.63 22.76-68.63 46-2.72 99.39-5.16 149.53-6.67 16.56 23.66 25.55 55.65 22.94 90.1z" stroke-miterlimit="10" stroke-width="2.123641"/><path d="m1039.59 764.26c12.12 25.73 66.63 203.7-340.78 179s-557.87-206.88-553-248.58 107.27 5.63 181.93 25 448 104.52 598.78 61.22 138.87-115 144.84-146.33c35.46 45.82 20.4 102.11-31.77 129.69z" fill="#944400" stroke-linecap="round" stroke-linejoin="round" stroke-width="7"/><g stroke-miterlimit="10"><path d="m102.51 678.72c8.75-18.75 71.26-42.5 100-38.75" fill="none" stroke-linecap="round" stroke-width="6"/><path d="m137.51 602.46c11.33-2.78 45-6.25 57.51 0" fill="none" stroke-linecap="round" stroke-width="6"/><path d="m698.19 366.46c0-33.29-43.54-128.29-210.6-142-186.89-15.34-330.4 46.84-330.4 152.69 45.33 2.69 88.17 4.07 88.17 4.07" fill="none" stroke-linecap="round" stroke-width="6"/><path d="m202.52 379.5c18.61-34 182.57-182.25 404.49-17.19" fill="none" stroke-linecap="round" stroke-width="6"/><path d="m451.91 222.44c82 1.46 264.77 120.15 250.42 223.13" fill="none" stroke-linecap="round" stroke-width="6"/><path d="m640.16 493.08c16.58-4.9 45.8-8.7 63-3.67 1.72 5.33 3 16.86-1.52 28.05-3.3 8.13-13.54 17.66-17.14 20.12-28.63 19.5-111 124.58-232.56 135.77" fill="none" stroke-linecap="round" stroke-width="6"/><path d="m270.32 462.51c32.53 52.87 209.18 126.71 408.68 78.92" fill="none" stroke-linecap="round" stroke-width="6"/><path d="m893.18 540.74c-7.72 11.58-45 41.17-130.61 5.79" fill="none" stroke-linecap="round" stroke-width="6"/><path d="m809.1 560.78c12.19 16.75 61.67 72.09 80.82 79.54" fill="none" stroke-linecap="round" stroke-width="6"/><path d="m1053.62 425.68c22.42 30.06-12.77 164.89-117.7 163.07" fill="none" stroke-linecap="round" stroke-width="6"/><path d="m946.7 540.74c32.12 2.7 66.13 6.74 103.81-39.71" fill="none" stroke-linecap="round" stroke-width="6"/><path d="m1023.45 548c13.41 9.12 52.55 36.62 47.94 86.62" fill="none" stroke-linecap="round" stroke-width="6"/><path d="m775.52 402c23.47-63.12 228.4-137.11 278.1 23.71" fill="none" stroke-linecap="round" stroke-width="6"/><path d="m1041.67 396.52c23.42-17.73 90.74-184.67-209.81-121.72" fill="none" stroke-linecap="round" stroke-width="6"/><path d="m779 360.33c13.42-56.93 184.5-94 283.47-43.76" fill="none" stroke-linecap="round" stroke-width="6"/><path d="m209.24 726.47c64.59 40 679.41 241.33 829.07 39.73" fill="none" stroke-linecap="round" stroke-width="7"/><path d="m951.12 457.84a136.09 136.09 0 0 1 -6.67 42.47c-43.09 6.52-96.08 5.33-154.05-2.74a136.7 136.7 0 0 1 -5.8-39.73c0-34.39 12.36-65 31.64-84.84a76.74 76.74 0 0 1 8.88-2.64c15.1-3.52 50.41-5.58 89.38-2.1 22.11 19.45 36.62 52.31 36.62 89.58z" stroke-width="2.164528"/><circle cx="907.22" cy="440.46" fill="#f2f2f2" r="26.15" stroke-width="1.856496"/><circle cx="838.79" cy="410.14" fill="#f2f2f2" r="18.89" stroke-width="1.847798"/><circle cx="838.69" cy="465.14" fill="#f2f2f2" r="16.06" stroke-width="1.742838"/><circle cx="482.89" cy="434.15" fill="#f2f2f2" r="25.96" stroke-width="1.779215"/><circle cx="397.32" cy="402.97" fill="#f2f2f2" r="14.04" stroke-width="1.797143"/><circle cx="407.89" cy="446.32" fill="#f2f2f2" r="16.18" stroke-width="1.694604"/></g></g></svg>