<svg width="500" height="500" viewBox="0 0 500 500" fill="none" xmlns="http://www.w3.org/2000/svg"><ellipse cx="250" cy="300" rx="188" ry="191" fill="#FECA01"/><path d="m382 150-1-11c0-8-1-15-3-22l-2-9v-5c-2-6-2-13-6-19l-1-1c0-4-2-7-4-10-4-4-5-9-10-13 1-10-9-12-12-18l-1-1-14-7c-7-3-12-8-17-12-5-3-9-6-15-4-1 1-2 0-3-1-4-2-8-4-12-2h-3c-6-2-12-4-17-4s-10 2-15-1a5 5 0 0 0-4 0c-3 2-7 1-10 1l-4 1c-3 1-5 5-8 4l-6 1-6 3-8 2a12 12 0 0 0-10 5 12 12 0 0 1-9 6c-5 0-7 4-11 7-4 4-8 7-11 12l-1 2c-4 1-5 5-7 8-1 3-2 5-5 6-4 1-6 5-8 9l-2 3c-3 1-4 3-6 5-1 3 0 6-3 9-3 4-5 8-3 14v1c-2 4-2 8-1 12l-1 7a10 10 0 0 0 0 11c2 2 2 5 2 7a16 16 0 0 0 0 13v4c2 3 2 7 3 10v3l1 7 1 3c1 4 2 9 0 14a2 2 0 0 0 1 2c2 1 3 2 3 4 4 12 7 25 7 38l5 29 1 2 1 1c1 1 0 0 0 0 1 3 1 7 4 9h1l1-1c0-5-2-9-3-14-8-24-8-48-2-73 3 6 3 12 4 18v1l1 1v1c3 11 10 19 23 22 16 3 31 3 47 0 4-1 7-4 9-7l11-17 6-8c3-4 7-4 10-1l5 7 8 16c4 8 11 12 19 14 14 3 28 2 42 0a26 26 0 0 0 19-12v-1l5-10-1 12c-1 15-3 31-6 46 0 1-1 3 1 4l3-3 2-9c0-3 0-7 2-10l1-1v-2c-2-3-1-6-1-9l2-23v-5l3 22c0 1 0 2 1 1l1-1v-14l-1-9 4-14 1-1v-2c2-6 1-12 1-18-2-2-2-5-3-7-4-5-5-11-5-17 1-7 1-8 9-9h2c6 0 6 0 6 6l1 1a9 9 0 0 0 2-9Zm-16 48-3 9v1l3-11v1Z" fill="#000"/><path d="M394 383c6 2 12 5 19 6v1c1 0 3 0 3 2a188 188 0 0 1-327 8l-7-14 4-3 23-8c6-1 12-3 17-7 8-5 17-7 26-8a11 11 0 0 0 8-4c3-4 6-5 11-5l12-1 2-11 121 10 24 10 8 4 24 9 32 11Z" fill="#D4D7D8"/><path d="M418 388c-5 1-10-2-14-3-12-4-23-9-35-12-6-3-14-3-20-6l-22-13c4-10 8-21 14-30 9-14 17-29 18-45 1-7 4-13 6-19l6-18c1-3-1-5 1-8l1-1v1c1 13 2 27-6 39-2 3-3 6-3 10 0 13-4 25-11 36l-12 17c-2 2-3 3 1 4l39 10c16 5 30 10 45 19l-8 19Z" fill="#F4A200"/><path d="M179 347a6 6 0 0 1-5 1h-1c-5-12-8-24-12-37-1-4-3-8-6-11l-11-14-1-1-3-6c-8-16-14-33-19-50-3-9-3-20 0-29 2-8 2-17-1-25l-2-10 6-6c2 1 0 2 0 3v1l3 11 2 12-2 14v2l-1 1c-3 15 0 28 7 41 4 6 5 12 5 19 0 3 1 6 3 8h1l4 4 2 1 3 9a1 1 0 0 1 1 0l2 4v1l1 2 2 3c4 9 9 17 15 25v1c0 6 3 12 5 18 1 3 3 5 2 8Z" fill="#C49D13"/><path d="M173 348c0 1-3 2-4 1-6-10-8-21-11-31-2-8-6-14-11-20-9-11-15-24-19-37-5-11-9-23-12-35-2-10-1-20 1-30 1-9-1-17-3-25l-2-1 3-3c3 0 3 3 4 4 3 10 4 20 1 31-2 10-1 20 2 29 6 18 13 36 21 53l1 2 1 2 4 5 4 5c5 6 8 13 10 20 2 10 6 20 10 30Z" fill="#E2B308"/><path d="M174 348a1 1 0 0 1-1 0 1 1 0 0 1-1 0l-9-24c-2-10-5-19-12-26-10-12-16-25-21-39l-11-32c-2-10-2-20 1-29 2-11-1-20-3-29l-2-2 3-2c2 1 1 3 2 5 1 6 4 13 3 20l-2 14c-2 10-1 20 2 29l12 33c5 12 12 25 22 34 4 4 5 9 7 14 2 11 5 23 10 33v1Z" fill="#E2B308"/><path d="M381 163c-1 0-2-2-2 1l-3 11v-5a2 2 0 0 0 0-2v-1l-1 1-5 17-2-2c-1-4-4-7-6-11-1-1-2-2-1-3v-13c0-2 2-3 3-4l14-1c2 0 3 2 3 4l-1 3c0 2 2 3 1 5Z" fill="#161213"/><path d="M176 351a1 1 0 0 1 0 1h-1l-4 1c-5-1-9 1-12 5-1 2-2 2-4 2l-10 2c-6 1-11 3-16 6-10 6-22 10-34 13l-13 5-2-4 40-13c7-3 12-9 20-10l8-1c5-1 9-2 12-6 2-3 6-3 9-3l3-1h1a1 1 0 0 1 1 0 3 3 0 0 0 2 3Z" fill="#585C62"/><path d="m418 388-2 4-39-14-19-6c-10-2-19-8-28-12h-1l-3-1-3-1v-4a1 1 0 0 1 0-1h1a4 4 0 0 1 3 1l12 6c7 5 16 8 24 10 14 3 27 9 40 14l15 4Z" fill="#585D62"/><path d="M111 389c-8 3-14 7-23 8l-1-2c4-3 8-3 13-4l11-2Z" fill="#E9EAEB"/><path d="M153 215c2 5 4 11 7 15 6 7 14 8 22 10 9 1 18 2 27 1 10 0 19-2 24-11l10-15 5-8c3-4 8-4 12-1l5 8 7 14c5 10 12 14 22 16 14 2 28 2 42-1 7-2 12-6 15-12 3 1 2 4 2 6l-4 24c-4 17-9 34-17 50-6 12-14 24-24 33-1 1-2 3-5 0l-2 2c-10 8-22 13-34 14-14 2-28 1-40-6v2h-2c-9-7-19-11-29-17-8-6-14-13-21-20-1 0-3 1-4-1l-13-21c-5-5-4-21-5-28-2-13-3-25-3-38 0-4-1-14 3-16Zm9-73 2-1c2 2 5 0 8 0 11-1 22 1 31 7l10 4 31 2c20 0 39-4 57-13l16-8c3-3 5-2 7 1 11 12 20 26 23 42 1 4 4 8 3 13l-19-3-24-2c11-3 21-3 31 2-3-10-13-15-25-13l-28 7c-4 2-8 3-9 8l-1 1c-10 4-21 6-31 2-2-1-5-1-3-4 1-1-1-3-3-4-6-3-13-4-20-6l-24-5c-7-1-12 2-17 7-2 2-4 3-7 3h-11v-5c3-11 4-22 2-33l1-2Z" fill="#703B00"/><path d="M322 190c7 0 14 1 21 4 5 3 8 7 8 13 0 8-1 16-5 24-4 6-10 8-17 10h-25l-9-1a1 1 0 0 1-1-2c3-5 5-11 9-15 6 0 4-5 5-8 1-2 4-2 5-2 2-1 4-1 3-3 0-2-1-4-4-3l-1-1 1-5 1-2c3-3 5-7 9-9Z" fill="#8A673F"/><path d="m168 314 7 4c8 8 16 17 26 22 7 5 15 8 22 14l3 2c1-1-1-2-1-4 29 14 55 10 79-10 1 1-1 2 1 3 9-8 16-17 22-27 12-19 18-40 22-61l3-20c0-2 1-4-1-6 4-5 5-10 6-17 1 9 5 23 4 31 0 52-33 122-94 122l-11 1c-21 0-40-7-57-20-10-8-19-18-26-28l-5-6Z" fill="#3E1000"/><path d="m225 189 2 1c2 0 2 0 2 2h-6c-12 1-23-1-34-1-5 0-6 1-6 6l1 15 1 2c-1 8-6 14-11 20-12-4-14-13-16-23v-12c1-6 6-11 12-12 11-2 23-3 35-1 0 2 1 3 4 3h16Z" fill="#9B8266"/><path d="m350 189-6-20c-4-14-12-25-21-35-2-2-3-2-5-1-24 15-52 23-81 22l-22-2c-5-1-11-1-15-6-2-2-6-2-9-3-8-3-16-3-24-2-1 1-3 2-3-1 4 0 8 0 11-2a5 5 0 0 1 6 0c2 2 5 1 8 1a9 9 0 0 1 8 2c1 1 3 2 5 0h3c8 3 17 4 26 4l2 1c5 5 10 6 16 2 2-1 4-2 6 0 5 3 9 3 14 0l14-4c6-4 15-2 20-8l3-1c3 0 6-1 8-3s3-4 6-5c2 0 3 3 6 3 8 3 10 9 12 16 2 3 3 6 6 8a7 7 0 0 1 3 8c-1 5 1 10 4 14 4 3 4 8 6 13l-7-1Z" fill="#3E1000"/><path d="M327 354c-1 1-2 0-3-1l-1-2c3-10 8-20 14-29 8-12 14-25 17-39l5-23c7-8 7-17 6-26l-1-6c-2-9 1-17 5-25 2 10 4 20 4 30s-3 18-6 27c-4 8-7 16-8 25-1 13-7 23-13 34l-15 30-4 5Z" fill="#E99900"/><path d="M174 234c0-3 2-5 4-7l7-13c2 0 2 2 2 3 0 3 1 3 3 3h6l5-1 26 1c2 0 4 0 6 2a1 1 0 0 1 0 1c-5 11-15 14-26 14s-23 0-33-3Z" fill="#896740"/><path d="M153 215c-2 10-2 21-1 31l5 38 1 9v2c-4-3-4-7-5-11-9-26-12-54-7-81l1-9c3 2 5 9 6 21Z" fill="#8B702D"/><path d="M130 201c3-1 3 1 3 2 4 8 6 17 7 26 1 15 3 30 6 44-3 0-5-1-6-4l-2-10c-1-7-3-14-6-20-6-9-7-19-6-29 0-4 1-7 4-9Z" fill="#723D03"/><path d="m303 224-8 16c-8-2-15-5-19-13l-6-18c-2-7 0-12 6-15 2 3 2 7 1 10v16c1 2 2 3 4 3h18c2 0 3-1 4 1Z" fill="#9A8266"/><path d="m359 260 1 2c-4 9-4 18-6 27-3 12-9 22-16 33-5 8-10 17-13 27 0 2-2 2-1 4h-1a4 4 0 0 1-4-1c-1-4 1-7 2-10l1-6 9-11 4-6 7-13c4-7 7-15 9-23 3-6 4-11 4-17 1-2 0-4 3-6a1 1 0 0 1 1 0Z" fill="#D38B00"/><path d="m314 200-1 1a3 3 0 0 1-3 1c-3 0-6 0-9 3a2 2 0 0 1-2 2 2 2 0 0 1-2-3c-1-2-3-1-5-1a16 16 0 0 0-11 11 3 3 0 0 1-3-2c1-2 0-4-1-7 0-4-2-7 0-11l4-1 6-1 24-1 3 1c2 0 3 2 2 4l-2 4Z" fill="#8E9FAF"/><path d="M162 142v15c0 8-1 17-3 25-2 2-5 1-8 2-2 0-2-1-2-2l3-20 2-11c1-4 2-8 8-9Z" fill="#8B702D"/><path d="M359 260h-1c1-2 1-2-1-2l-1-2 3-28c0-9 2-18 4-26l4-8c1 3 0 6-1 9-6 11-7 22-3 34l1 7c2-5-1-10 0-16 3 7 3 15 1 23-1 4-2 7-6 9Z" fill="#723F00"/><path d="M130 201c-6 9-4 19-1 28l4 11c5 7 6 16 7 24 1 4 1 8 6 9l2 3c-6-1-8-2-10-8l-1-8c-1-7-4-14-7-20-6-12-9-24-4-37 0-1 1-3 3-3l1 1Z" fill="#1A1113"/><path d="M278 193c-2 5 0 9 0 13l1 6 2 1a2 2 0 0 1 1 2c-1 5 0 5 4 5l12 1c7 0 8 0 10-6a1 1 0 0 1 1 0v3c0 5-1 6-6 6h-21c-5 1-6-2-6-5-1-5-2-9-1-13 2-4 1-8 1-12l2-1Z" fill="#8D8583"/><path d="M314 200v-2c2-5 2-5-4-5h-29c2-3 6-2 9-3l24-1 8 1-8 10Z" fill="#988871"/><path d="M129 200c-2 0-2 2-3 3-1-5 1-9 2-14 1-4 0-8-2-12v-3c1-1 2 0 2 1l3 18c1 3 1 5-2 7Z" fill="#A9861B"/><path d="m153 284 5 11c4 9 9 17 16 24 0 2-1 4-3 1-7-10-13-20-18-31l-2-4 2-1Z" fill="#291819"/><path d="m225 189-18 1a3 3 0 0 1-3 0c-1-2 0-3 1-4 7 0 14 1 20 3Z" fill="#896B44"/><path d="M239 197c3 4 1 9 0 14-1 1 0 4-2 4-4-2-2-5-1-8v-12c2-2 2 1 3 2Z" fill="#716865"/><path d="m128 175-2-1c-2-4-4-8-2-12 2 1 2 3 2 5l2 8Z" fill="#443800"/><path d="M323 358h3c1 10 6 20 6 30 0 11-5 21-12 29a88 88 0 0 1-43 24l-26 5c-31 0-57-19-67-49l-2-3-3-11 4 12a1 1 0 0 1 1 2h-2c-4-5-4-11-5-16-1-8-3-16-7-24-1-1-1-3 1-4 2-2 3-1 5-1h1c-2 4 0 7 2 10l3 15c1 13 7 25 16 34l17 16c14 11 29 14 46 13 11-1 23-5 33-10 11-5 20-12 26-22 7-11 8-23 4-35 0-2-1 1-2 0-2-3-1-6-2-10 2-1 2-4 3-6v1Z" fill="#CBCAC3"/><path d="M251 445c7 0 14-2 20-4 12-2 24-7 34-13 12-8 22-18 25-33 1-7 1-15-2-22-1-5-3-10-2-15l4 2c-1 5 1 9 3 14 2-2 1-4 2-6 2 0 1 2 1 3v27c0 1 0 4-2 4l-1-3c-2 4-3 9-6 12-7 11-16 18-28 23l-27 10c-5 2-11 2-17 3-2 0-4 0-4-2Z" fill="#CECECA"/><path d="M251 445c2 2 5 1 8 1l13-2h1v1l-11 2c-15 3-30 2-45-5-11-5-19-13-25-24-5-7-7-14-10-22v-1l1-2c8 22 22 40 45 48 7 3 15 4 23 4Z" fill="#E7E8E8"/><path d="M352 445c8-18 8-36 1-54 11 14 14 41-1 54Z" fill="#EAEBEC"/><path d="M187 449a59 59 0 0 1-22-62c0 12 1 23 5 34 4 10 9 20 17 28Z" fill="#B3B6B8"/><path d="M334 402v-4c0-8 2-16 1-25a2 2 0 0 1 1-2l2 29c-1 8-2 15-5 22l-1 2 2-22Z" fill="#B2B4B5"/><path d="M371 428c-2-15-6-30-11-45 9 14 11 29 11 45Z" fill="#B3B6B8"/><path d="M122 376c-9 9-19 14-31 15 11-4 21-9 31-15Z" fill="#B2B5B7"/><path d="M149 378c2-10 10-17 19-17-10 3-15 9-19 17Z" fill="#B3B5B7"/><path d="M375 168a4 4 0 0 1 1-4v6l-1-2Z" fill="#92730A"/><path d="M176 351c-2 0-3-1-2-3l5-1a3 3 0 0 1 3 0l4 6v1c-1 7 2 14 4 21 0 9 3 17 10 24l1 2c2 6 5 10 9 14l10 7c9 7 19 10 29 12 4 1 9 0 13-2 3-2 6-2 9-2 14-3 27-9 37-20 3-4 6-8 7-13l2-16 1-1 1-3c2 0 3 2 4 4 1 7 0 14-3 21-6 13-16 22-28 27a78 78 0 0 1-64 3c-11-4-19-12-26-21-11-13-16-29-21-45v-9c0-3-2-5-5-6Z" fill="#2A292A"/><path d="M182 347h-3l-8-23v-4l2 1 9 10c3 5 1 10 1 15l-1 1Z" fill="#9C7C1E"/><path d="M176 351h3c2 0 3 0 3 2-1 16 5 30 12 44 9 16 21 30 39 35 26 8 50 5 72-12 12-10 18-23 17-39v-8c2-1 1-2 2-3 4 8 4 16 3 24-3 15-12 24-24 32-11 8-23 12-36 14-20 3-38 0-54-13-11-9-21-19-27-32-2-5-4-10-4-16-2-7-3-15-7-22-1-2-1-3 1-5v-1Z" fill="#C1BCAB"/><path d="M322 373v8a4 4 0 0 1-2-4l-1 3h-1c0-9-3-16-5-24v-2a5 5 0 0 1 2-4c2-1 3 1 4 2l4 1v4c-4 1-1 4-2 6l1 10Z" fill="#353435"/><path d="m321 363-1-2c-1-5-1-5 3-4 0 3 1 5-2 6Z" fill="#C1BCAB"/><path d="M209 301c0-9 5-15 11-19 7-6 15-10 24-13h7c5 2 11 3 16 0h8c11 4 22 10 30 19 2 3 4 7 4 11l-1 1h-1c-11-8-24-11-36-17-2-2-4-1-7-1h-10c-3-1-6 0-9 1-12 7-25 10-36 18Z" fill="#360A00"/><path d="M292 296c1 1 4 0 1 1l-13 14c-3 3-8 4-12 5-10 2-20 2-29-5l-3-2c-3-4-6-9-12-12l3-1c22 3 43 3 65 0Z" fill="#4B1900"/><path d="M292 296c-2 2-5 2-8 2-9 1-19 3-28 2l-26-2a4 4 0 0 1-3-2c4-1 8-4 11-6 5-4 11-5 17-4h10a16 16 0 0 1 13 2c4 3 8 7 14 8Z" fill="#240000"/><path d="M274 259c1 2 2 1 4 1 2-1 4-3 5-6 1 5-1 8-6 9h-5c-3-1-6 1-8 3a9 9 0 0 1-15-1 5 5 0 0 0-5-2h-5c-5 0-8-3-8-9l5 5c2 1 4 3 4 0a9 9 0 0 1 8 0c3 2 7 3 11 3 3 0 6-1 8-3h7Z" fill="#3E0F00"/><path d="m256 223-2 20-2 1c-2 0-1-1-1-2l5-19Z" fill="#8D7435"/><path d="M273 331c-9-1-17-2-26 3 4-6 19-7 26-3Z" fill="#431300"/><path d="M254 250a2 2 0 0 1-2 2c-2 0-3 0-3-2 0-1 0-2 2-2a3 3 0 0 1 3 2Z" fill="#8C7434"/><path d="M274 259a7 7 0 0 1-7 0c3-3 5-3 7 0Z" fill="#0C0100"/><path d="m248 260-8-1c3-4 4-4 8 1Z" fill="#090000"/><path d="m273 237 3 4v2l-2-1-1-5Z" fill="#421300"/><path d="M281 215v-2c1-5 8-12 14-12l1 1c3 5 7-1 10-1s5 2 7 0l-2 5a2 2 0 0 1 1 2c-2 2-3-1-5-1a9 9 0 0 1-2 7c-3 3-6 2-9 2-5-1-10-2-15-1Z" fill="#7984A3"/><path d="M311 209v-3c3-1 5-1 7 4 1 3-2 2-3 3l-6 2h-1a1 1 0 0 1 0-1c0-2 4-2 3-5Z" fill="#554540"/><path d="m315 350-1 4c-2-1-2-2-2-3l1-5a62 62 0 0 1-40 22 90 90 0 0 1-87-31l1 10c0 2 0 4-2 6-2-1-2-4-3-6 0-7 2-15-5-20l-4-6v-1c12 15 25 27 41 37 10 5 20 8 31 9 10 2 19 1 29 0 13-2 24-9 34-18l22-23c1-1 1-2 1 0l-8 10v1c-5 4-7 9-8 14Z" fill="#050101"/><path d="m342 306-7 13v-2l6-11c1-1 1-2 1 0Z" fill="#0B0402"/><path d="m229 191 8 3v10c0 2 1 3-1 4-2-2 0-5-2-8-6 12-8 12-13 5-1 2-3 3-6 3l-6 2c-2 3-5 3-8 2a11 11 0 0 0-9 1c-4 0-4 1-2 4l4 1a7 7 0 0 1 6 1 1 1 0 0 1 0 1c-4 0-8 2-12 1-2 0-3 0-2-2s0-4-1-5v-1a1 1 0 0 1-1-2h1c4-1 5-6 8-9l1-1c6-2 6-2 10 2h3c2-5 7-5 11-5s4-1 4-6l1-1h6Z" fill="#5F6A9B"/><path d="m223 191-1 1-4 1h-29c-2 0-4 1-4 3s-1 5 1 7h7l-8 10c-3 0-3-1-3-3v-14c0-5 1-6 6-6 11 0 23 2 35 1Z" fill="#8C8F9C"/><path d="M200 220v-1l2-1c7 2 14 1 21-2h4c2 2 5 1 8 0l1 1v1l-2 3-1 1-28-1-5-1Z" fill="#8B9298"/><path d="M315 350c-1-7 3-11 8-15 1 5-2 10-4 15v2l-4-2Z" fill="#A56900"/><path d="M279 212c-2-2-1-4-1-6 2 2 1 4 1 6Z" fill="#7984A3"/><path d="M308 214v1c0 6-2 8-9 7l-14-1c-5 0-6-1-4-6 2-3 5-2 8-1l14 1 2-2 3 1Z" fill="#9FA7B1"/><path d="m201 218-1 1h-7a3 3 0 0 1-3-1l-1-1 3-1 3-1-2-2-1-1c3-2 7-2 10 0 2 0 4 0 6-2 2-3 5-3 8-3 2 0 3 0 3-2l1-2a2 2 0 0 1 3 2c0 2 2 5 3 4 2-1 6-2 6-6v-2c1-1 1-3 2-2 2 0 2 2 2 3v15h-1c-2-3-4-3-7-3h-21c-4 0-5 1-6 4Z" fill="#7287AC"/><path d="M183 393a2 2 0 0 0-1 2l-3-12h1l3 10Z" fill="#D4D7D8"/><path d="M185 353v-17c10 9 20 18 32 24l16 17 10 8c9 6 18 7 27 4 14-4 25-13 34-25l1-1c2-3 3-2 4 0 4 9 6 18 7 27l1-7c0-1 0-3 1-2 0 5 0 11-2 16l-1-2c-2 5-3 11-6 15-9 11-23 19-37 21l-9 1a63 63 0 0 1-55-20c-9-9-17-25-20-37-1-8-3-14-3-22Z" fill="#703B00"/><path d="m318 381-1 10c-3-3-2-5-2-8l-6-19c-1 0 0-2-2-2s-1 1-2 2c-8 12-18 20-32 25-12 5-22 4-32-4-9-7-18-15-24-25 13 6 26 9 39 9 11-1 22-1 33-6 6-3 12-6 17-11l8-8v10c-1 6 3 11 4 16l1 10-1 1Z" fill="#3E1000"/><path d="M201 401a61 61 0 0 0 53 31h9a24 24 0 0 1-19 2c-8-3-17-4-24-10-6-5-13-9-17-17-1-2-3-4-2-6Z" fill="#050000"/><path d="M189 375c3 8 6 17 11 25-8-7-11-15-11-25Z" fill="#060000"/><path d="m309 410 6-19c2 3 1 5 1 6-1 5-4 9-7 13Z" fill="#874D17"/><path d="M308 214c-1 0-2 1-3-1a10 10 0 0 0 1-8l5 4c2 1 3 3-1 4l-2 1Z" fill="#A5B2C9"/><path d="m291 206 2 6c-3 0-6 0-7-2 0-2 4-3 5-4Z" fill="#99A3C1"/><path d="M197 192h25l1 4c1 1 0 2-2 2l-7 1c-3 1-6 1-6 5 0 1 0 2-1 1s-4 2-4-1c-1-6-5-3-8-3l-1 1a1 1 0 0 1-1-2h1a11 11 0 0 0 3-8Z" fill="#7A99B6"/><path d="M197 192c3 4-1 7-3 10l-1 1-5 2h-2c-4-3-2-7-2-10s2-3 4-3h9Z" fill="#8DA9C3"/><path d="M192 212c1 1 5 1 4 3s-3 2-5 2h-2c-2-1-2-2-1-4 1-1 2-2 4-1Zm9 6c-2-1-2-3 0-4l6-1h23c3 0 5 0 5 4-3 2-6 2-9-1-1-1-2 0-2 1l-15 3-8-2Z" fill="#869EB7"/></svg>