<svg xmlns="http://www.w3.org/2000/svg" viewBox="0 0 500 500"><style><![CDATA[.A{fill:#FDFDFD}.C{fill:#FEC900}.D{fill:#AFA7A9}.F{fill:#424242}.G{fill:#807C7D}.K{fill:#987769}.O{fill:#FEC7B0}.P{fill:#6F615A}.R{fill:#EA9590}.f{fill:#807B7D}.g{fill:#FEC8B0}.n{fill:#A3A0A1}.u{fill:#040404}.v{fill:#060606}.w{fill:#070707}.x{fill:#030303}.AB{fill:#483F39}.AC{fill:#20191A}.AD{fill:#FEE9DE}.AE{fill:#C26B71}.AN{fill:#020202}.AP{fill:#050505}.AR{fill:#0A0909}.AS{fill:#0A0A0A}.AT{fill:#080808}.AW{fill:#090909}.Ab{fill:#070606}.Ac{fill:#060505}.Ad{fill:#010101}.Ak{fill:#FEFEFE}.An{fill:#6F113D}.Aq{fill:#1F191A}]]></style><path class="A" d="M443.6 311.4c-.8 10-2.4 19.9-4.7 29.6-1.1 4.7-2.4 9.4-3.9 14-1.4 4.3-2.5 9.5-4.9 13.3-4.9 15.4-14.5 30.5-24.2 43.3-9.4 12.5-20.2 23.9-32.3 33.8-.1.3-.4.5-.6.6-12.4 9.6-25.1 18.1-39.3 24.9-6.9 3.3-13.9 6.2-21.2 8.6-6.9 2.3-15.6 6-23 6.1-17 4.6-36.2 4.9-53.6 3.7-54.4-3.9-104.7-30.5-138.5-73.3-46-57.9-54.7-139.7-22.1-206.1 17.3-35.1 44.7-64.2 78.6-83.6.1-20.3-1.3-43.2 7-62.2 3.6-8.2 9.4-14.3 16.5-19.5 4.1-3 8.3-5.8 12.6-8.4 2.2-1.3 4.4-2.5 6.6-3.6 1.3-.6 4.9-1.5 5.4-2.9l-19 4.8c8.4-5.1 18-9.4 28-9.6 2.1 0 4.6.8 6.5.1 1.6-.6 3.1-2.3 4.6-3.3 4.5-2.7 9.3-4.8 14.3-6.5 19.9-6.9 41.6-6.6 62-2.3 9.6 2 19 5 28 8.8 4.7 2 9.3 4.2 13.8 6.6 4.3 2.2 8.9 4.3 11.9 8.2 13.1 16.8 23.8 36.1 33.5 55 2.9 5.6 5.9 11.2 8.4 17 2.1 4.8 2.1 10.4 2.2 15.6.4 13.2-2.1 25.7-4.6 38.5 37.8 39.3 56.4 94.9 52 148.8z"/><path d="M393.6 154.1l-1.7 8.6c.2 4.4-2.2 9.9-3.6 14-1.6 4.5-3.5 8.9-5.8 13.2-.5.9-5 8.9-5.7 8.2-1.3-1.3 2.6-8.9 3.2-10.5-7 8-10.7 18.4-14.6 28.2v.2c-2.9 6.9-5.4 14-8.6 20.8-.7 1.6-1.2 4.5-2.6 5.6h-.2c-4.2-.1 1.2-15.1 1.7-17.2 2-8.8 3.8-17.7 5-26.6s.2-17.3-2-26.1c-.3-1.4-1.4-3.4-.9-4.8a3.1 3.1 0 0 0 1.8-.9c.1-.7.1-1.5.1-2.2 0-1.6-1.2-8.2 1.5-5.5.4-7.8-1-16.1-2.8-23.7a89.91 89.91 0 0 0-3-10.1c-.6-1.6-2.9-8.6-5-8.6-1.5 0-5.7 4.9-7 5.8-2.6 1.7-5.4 3-8.3 4-3.4 1.2-6.9 1.9-10.5 2.2-2.3.2-8.9 1-10.3-1.1.8-1.7 10.7-2.6 12.6-3.2 4.3-1.4 8.7-3.2 11.9-6.5-15.8 5.8-34.1 8.9-51 6.8-2.6-.3-4-.8-.9-1.7 4.2-1.1 8.8-1.3 13-2.2 8.2-1.6 16.1-4.5 23.4-8.5.2-.1.3-.1.4-.2 0 0 .1-.1.2-.1-1.1 0-3.8 1.9-4.9 2.4-2.2.9-4.5 1.7-6.8 2.4-5.1 1.5-10.3 2.6-15.6 3.3-5.2.7-10.4 1-15.7.9a127.09 127.09 0 0 1-8.7-.6c-1.8-.2-6.2.1-7.3-1.4 1.9-1.9 8.1-1.5 10.7-1.9 4.1-.7 8.1-1.6 12.1-2.8 7.6-2.2 15.6-5.1 21.7-10.3-14.4 5.8-29.8 7.8-45.1 7.9-1.1 0-7 1-6.2-1.2.4-1.1 7.3-2.5 8.5-3 6.4-2.4 12.4-5.7 17.9-9.8-8.2.4-16.4-.4-24.5-2.2-7.7-1.8-14.4-5.8-22-7.8-6.1-1.6-13.1-.5-16.8 5-4.8 7.3 0 12.5 3.5 18.7v.4c.1-.2-.2.4-.3.3-3.3.6-7.7-6.5-8.6-9-.6-1.6-.3-3.5-2.1-3.9-1.6-.4-4.9 1.6-6.2 2.2-3.9 2.3-7.3 5.4-9.9 9.2-1.6 2.2-3 4.5-4.2 6.9-.8 1.5-1.6 5.1-3.1 5.9h-.1c-.1 0-.2-.1-.2-.2-.1-.1-.1-.2-.2-.3-.1-2.3.3-4.6 1.1-6.7.1 0-.1 0-.2.1-1.6 3.2-4.1 6.2-5.9 9.4a88.17 88.17 0 0 0-5.4 11.7 237.02 237.02 0 0 0-8.1 26.4c-2.4 9.3-4.4 18.7-5.8 28.2-.7 4.8-1.4 9.6-1.6 14.4-.1 2.1 1.1 9.1-.4 10.6l-.1.1c-.2.2-.5.2-.8.2-.6-.1-1.1-.2-1.7-.2-.3-.1-.7-.2-1-.3-.1 0-.2-.1-.2-.1-.1 0-.1 0-.2-.1-.9-1.2-.8-2.7-1.1-4.1l-.1-.3c-.1-.4 0-.7-.1-1.1 0-.2-.1-.3-.1-.5-.8-4.5-1.4-9.1-1.7-13.6-.8-6.2-1.4-12.5-1.5-18.8-.3-1.1.2-2.4-.2-3.5-.6-7.9-.7-15.9-.7-23.9l-.1-12.4c-.1-3.4-1.2-8.4.2-11.5.1-20.3-1.3-43.2 7-62.2 3.6-8.2 9.4-14.3 16.5-19.5 4.1-3 8.3-5.8 12.6-8.4 2.2-1.3 4.4-2.5 6.6-3.6 1.3-.6 4.9-1.5 5.4-2.9l-19 4.8c8.3-5 17.4-9.1 27.2-9.6 2-.1 4.5.7 6.4.4s3.5-2.2 4.9-3.2c4.2-2.6 8.7-4.7 13.3-6.3 19.3-7 40.4-7.3 60.4-3.5 9.4 1.8 18.6 4.4 27.4 8 8.9 3.5 18.9 7.5 26.6 13.2 3.7 2.8 6.2 7.7 8.8 11.5 3.1 4.5 6 9 8.9 13.7 5.5 8.7 10.6 17.7 15.5 26.8 5.2 9.8 12.5 20.4 13.4 31.5 1.1 11.8.2 24.2-2.4 36.3z" fill="#473f39"/><path class="C" d="M170.6 312.6v.5c0 1.2-2.7 4-3.4 5-.9 1.5-1.7 3.2-2.8 4.6-2.4 3.2-6 5.6-8.9 8.2-8.1 7.2-16.1 15.1-25.1 21.3-8.4 5.9-18.2 9.7-27.7 13.2-5 1.9-10.1 3.7-15.2 5.4l-8.3 2.9c-1.5.5-4.9 2.6-6.5 1.9C41.2 306 54.4 222 105.5 165.3c14-15.5 30.3-28.6 48.4-39l1.2 48.1c-.8 1.8-3.4 2.7-4.5 4.6-1.2 2.5-1.9 5.2-2 7.9-.6 6.8.8 13.7 1.7 20.4s-.7 12.7-1.3 19.3c-.3 3.1-.2 6.1 1.5 8.9s3.8 2.8 6.4 3.8c2.4.9 2 1 2 3.9a188.43 188.43 0 0 0 .3 10.7c.3 7.1.3 14.2.8 21.2.4 6.5 1.6 12.9 3.4 19.2.9 3.2 2.1 6.3 3.3 9.4 1.2 2.8 3.4 6 3.9 8.9z"/><path class="D" d="M255.1 489.7c-60.3 1.4-117.9-25-156.1-71.8-10.4-12.8-19.9-27.1-26.1-42.4 16.5-6.1 34-10.8 49.7-19 15.3-8 28-21.7 40.8-33.1 1.4 1.7-3.4 10.9-4.2 12.9-1.7 4.6-2.8 9.4-3.2 14.3-1 10.9.2 22.1 2.4 32.8 4.3 21.7 13.2 41.3 24 60.5-9.4-19-16.4-39.1-20.6-59.9-2.2-10.2-3.3-20.5-3.4-30.9.1-10.8 3.6-20.7 6.2-31.1 1.6-3.3 3.6-6.4 6-9.3 0 0 .1 0 .1.1 2.3 1.4 4 6.7 5.4 9.1 1.6 2.7 1.4 3.9 1.5 7l.9 20.2c.5 6.7 1.6 12.8 4.6 18.9 1.7 3.4 3.7 6.7 5.8 9.9.9 1.4 5.7 6.4 5 7.9h-.1c-1.8.8-12.9-15.9-14.1-17.7 7 16.8 17.6 32.2 27.5 47.4 1.8 2.8 2.7 6.7 6.2 5.1 4.8-2.2 4.7-3.1 1.7-6.9l-8.6-10.9c-1.2-1.5-7.8-8-7-9.8 2.4 0 5.3 5.2 6.9 6.9 3.2 3.4 6.4 6.8 9.8 9.9 3.1 2.9 6.4 5.5 9.9 7.8 1.2.8 10.3 4.7 9.7 6.7v.1c-1.3.6-4.6-1.7-5.9-2.1a21.61 21.61 0 0 0-7.1-1.2c-5 .3-8 4.3-10.8 8.1-6.8 9-12.6 19-18.2 28.8 3.7-5.7 9.9-10.8 14.9-15.4 5.2-4.7 10.3-10.4 17.9-7.9 7.6 2.4 8.9 7.8 12.2 14.3l5.3 10.6c.6 1.1 2.5 6.8 3.8 7.3 1.1 1.2.7 3 1.6 4.3v.1c1.3 3.4 2.4 6.7 3.6 10.1.2 1.5 3.2 7.1 2 8.3z"/><path class="C" d="M443.6 311.4c-.8 10-2.4 19.9-4.7 29.6-1.1 4.7-2.4 9.4-3.9 14-1.4 4.3-2.5 9.5-4.9 13.3-1.9.9-8.7-4.5-10.5-5.5-4.1-2.2-8.2-4.3-12.4-6.3-8-3.8-16.2-7-24.7-9.7-8.6-2.7-17.5-4.4-26.2-6.6-4.3-1.1-8.7-2.1-12.8-3.5-3.1-1.1-3.2-1.5-1.3-4.2 9.9-13.4 21.3-27.5 23.6-44.6 1.1-8.3.6-15.2 4.9-22.8 4.3-7.4 5.7-15.6 5.8-24.1.1-10-1.3-20.1-2.7-29.9-.6-4.3-2.5-9.5-.8-13.6 1.9-4 4.6-7.7 7.8-10.8-1.3 3.7-2.3 8-4.1 11.5 1.8-.9 3.4-4.7 4.5-6.4 1.7-3 3.2-6.1 4.6-9.2 2.7-6.4 3.7-13.4 6.2-19.8 37.4 39.1 56 94.7 51.6 148.6z"/><path class="D" d="M370 447c-3.9-3.3-7.9-6.4-12.2-9.2-3.7-2.3-7.7-5.6-12-6.5-4.5-1-8.8-1.6-13.1-3.8-1.9-.9-3.9-1.6-5.9-2.2-1.7-.7-2.6-2.5-4.3-3-.4.2-.5 0-.8.7.1-.3.1-.6.1-1v-.4c0-2.7-1.6-4.9-2.9-7.1-1.2-2-2.4-7.9-4.2-8.8h-.1c-1.7-.8-7.7 6.8-9.1 7.8-4.7 3.2-10.8 2.2-16 3.9-11.4 3.5-16.6 14.6-19.4 25.2-2.1-2.8-5.7-9-9.1-10.3h-.1c-4 0-8.5 1.4-12.3 2.6-1.6.5-4.9 1.2-6.1 2.5s-.4 1.9 1 3.4c6 7.2 13 15 20.5 20.5-7.4-4.5-13.8-10.3-20.5-15.6-1.1-.9-8.5-7.1-8.5-4.8 0 1.6 4.8 5.6 5.8 7.1a128.94 128.94 0 0 1 10.2 18.6c1.7 3.8 3.4 7.6 4.9 11.4.9 2.4 2.4 10.3 4.7 11.4 9.7-.1 19.4-1.3 28.8-3.7.7-1.8-2.5-6.7-3.2-8.3l-4.6-10.9-4.2-10c-.2-.6-3.8-8.1-3.8-8.2.1-.1 0 0 0 0-.5.6 8.6 15.4 9.5 17.1 1.7 3.3 3.4 6.7 5 10.1 1.2 2.5 2.4 7.9 4.6 9.5 28.4-6.2 54.9-19 77.6-37.2.3-.4 0-.6-.3-.8zm-48.6-22.3c-.2-.4-.1-.8.2-1.1a1.39 1.39 0 0 0-.2 1.1z"/><path d="M430 368.2c-2.8 8.7-7.5 17.3-12.2 25.1-1.6.3-6.9-6.5-8.2-7.6-3.3-2.8-6.9-5.2-10.8-7.1-7.9-4-16.4-6.2-24.6-9.2-1.9-1.5-4.5-1.7-6.6-3-2.6-1.5-5.3-2.8-8.2-3.6-5.6-1.7-10.8-.9-16.4-1.7-6.5-1-13.1-3.4-19.4-4.9-2.8-.7-7.2-1-9.7-2.5-2.2-1.4-3.1-4.7-3.6-7.2.1-5.6 1.2-11.1 3.1-16.3 1.2-3 4.2-5.7 6.2-8.3 2.2-2.9 4.2-5.9 6.1-8.9 3.8-6.1 7.2-12.5 10.2-19.1 1.5-3.2 2.9-6.3 4.1-9.6.9-2.2 2-8 4-9.3s4.7-.3 6.9-1.9c2-1.5 3.1-3.9 4-6.2 2.6-6.8 2.7-13.7 6.4-20.1 3.4-6.1 7.2-12.2 9-19 .7-2.8 1.3-6 .5-8.9-.3-1.1-.8-2.1-1.6-3-.7-.8-2.8-1.6-3-2.5 1.9-4.9 3.8-9.7 6.2-14.4 2.4 15.9 5.8 32.4 4.2 48.5-.8 8.1-3.7 13.9-7.2 21.1-3.6 7.4-2.1 15.2-3.8 22.9-3.2 14.5-12.2 27.7-21.3 39.2-.5.7-2.9 2.8-3 3.8-.2 1.6.9 1.4 2.4 1.9 3.9 1.3 8 2.2 12 3.3 7.8 2 15.6 3.6 23.4 5.8 9 2.6 17.9 5.9 26.4 9.9a246.57 246.57 0 0 1 12.6 6.3c3.7 1.8 7.9 5.2 11.9 6.5z" fill="#f5a200"/><path class="F" d="M401.5 417.2c-8.3 10.3-17.7 19.8-27.9 28.2-.5.2-.8-.2-1.2-.4.2.3.8.5.5 1l-2.4 1.9c-3.5-3.2-7.3-6.1-11.3-8.7-3.8-2.5-8.5-6.4-12.9-7.4-4.5-1.1-8.4-1.4-12.5-3.4-4.1-1.9-7.7-2.9-11-5.9a1.8 1.8 0 0 1-1.2-1.2c-.9-1.1-.1-1.5-.6-2.8-.6-1.3-1.4-2.5-2.2-3.7-1.7-2.8-3-5.9-4-9-2.8-4.2-1.7-11.4-1-16 1-5.9 3.6-11.5 7.4-16.1 8.2-10.1 21.4-14.9 34.2-12.4 3.3.6 6.4 1.6 9.4 3.1 1.6.8 3.2 2.2 4.8 2.8.7.3 1.6.2 2.2.4 5.8 2 7.1 8.1 9.6 13 1.5 3.4 2.6 7 3.3 10.7.7 3.3 2.6 5.7 4.4 8.5 2.1 3.4 4.5 6.7 6.9 9.9 1 1.4 6.2 5.9 5.5 7.5z"/><path class="D" d="M417.8 393.3c-4.6 8.5-10.5 16.3-16.4 23.9-5-8.5-14.5-15.3-17.3-25.1-1.3-4.8-1.9-9.2-4.5-13.7-1.9-3.4-2.5-6.2-5.2-9.2 16.8 4.9 31.6 10.8 43.4 24.1z"/><path class="G" d="M260.7 489.4l-2.1.3c-2.2-.4-3.9-6.4-4.7-8.4l-3.2-8.2-4.6-11.3c-.9-2.2-1.5-5.1-2.8-7.1-.6-1.7-1.5-3.4-2.1-5.1.1-.4-.4-.8-.2-1.1.1-.1.3-.2.5-.3 8.2 12.9 14.1 26.9 19.2 41.2zm32.2-4.4c-1.1.3-2.2.6-3.4.7l-7.9-18.5c-2.5-5.9-6.6-12.6-7.9-18.9-.1-.3-.1-.6 0-.9 7 12 14.5 24.5 19.2 37.6z"/><path d="M258.5 489.7H255c-1.4-6.2-4.1-12.3-6.2-18.3 1-.7 8.2 17.4 9.7 18.3z" fill="#cecaca"/><path d="M373.5 445.4c-.1.3-.4.5-.6.6-.2-.8-1.2-1-1.6-2.1l2.2 1.5z" fill="#b9b5b4"/><path d="M190.2 122.8c3.6-9 9.2-18.5 18.4-22.8 1.2-.6 4.4-2.2 5.7-1.6s1.3 3.3 1.8 4.6c1.5 4 4.9 6.9 8.5 8.9 0-.2-.1-.3-.2-.5-4.6-4.8-7.7-11.8-4.4-18.2 3.4-6.4 10.7-7.8 17.1-6.4 3.7.8 6.9 2.7 10.3 4.1 4.1 1.7 8.4 3 12.8 4 8.2 1.8 16.4 2.1 24.8 2.2-8 6.7-17.5 10.3-27.2 13.7 17.8 1 36.2-1.3 52.7-8.1-4.5 5.9-14.3 8.9-21.1 11-8.1 2.5-16.3 3.6-24.7 4.8 9.7 1.9 19.7 2.3 29.6 1.1 5.2-.6 10.4-1.6 15.4-3 2.8-.8 5.6-1.7 8.3-2.8.9-.3 5.6-2.2 5.5-1.9-10.7 7.9-25.9 9.8-38.8 11.6 17.9 3.8 38.2-.6 55.1-6.8-2.8 3.6-6.9 5.6-11.1 7.2-2.4.9-4.8 1.6-7.3 2.1-1.8.4-6.1.2-7.3 1.4 14.1 2.1 26.2-1.5 36.3-12 9 11.6 11.2 30.6 11 44.9-1-.4-.9-1.6-1.6-2.1 0 2.9 1.8 9.5-2.3 9.4 2.3 7.7 4.3 16.2 3.9 24.3-.4 8.5-2.2 17.1-3.9 25.4s-3.1 17.2-5.9 25.2c-2.5 7.5-6.9 14.9-10.5 21.9-7.6 14.6-16.1 29.3-27.2 41.5-2.2 2.4-4.9 5.9-7.8 7.4-1.4.7-1.4 1.3-2.2 0-.7-1-.2-5.5-.3-6.9-1.1-8.3-2-13.8-9.8-17.9-8-4.2-16.3-7.9-24.8-11.2-4-1.7-8.4-2-12.6-.6-1.8.6-3.7.6-5.5 0-.9-.3-4.6-1.9-3.6-3.2.7-.5 3.6 1.3 4.6 1.5 2.2.2 4.3-.1 6.3-1 4.2-1.8 7.6-4.8 12-6.2 6.9-2.1 11.4-8.4 7.3-15.5 1.5 4.8.4 12.8-6.3 12.2-4.1-2.3-6.3 1.9-9.5 3.9-3.2 1.9-7 3.1-10.4 1.4s-4.9-5.7-7.8-8c-.9-.7-3.8-2.4-4.8-1.5-1.4 1.2.4 1.3.5 2.6-1.5 3.1-8.3-2.6-9.2-4.1-2.3-3.7-1.8-8.6.3-12.3-4.3 6.7-4.2 13.3 3.4 17.3 2.8 1.5 6.1 1.3 8.7 3.3.9.7 5.8 5.3 4.6 6.5-1.2.3-4.5-2.2-5.7-2.6-2.5-.7-5.1-.9-7.8-.7a197.09 197.09 0 0 0-18.7 1.8c-5.6.8-11.6 2.4-16 6.1-1.8 1.5-3.3 3.3-4.3 5.4-1 2.2-.6 6.3-2.2 8-1.8-1.1-2.5-8.9-3.1-11.1-1.3-4.4-3.2-8.7-5.6-12.6-2.3-3.7-4.8-7.2-7.2-10.9-2-3-6.2-8-6.3-11.8.6-2.1-.6-6-.9-8.2l-.8-8.2a253.39 253.39 0 0 1-.9-17.4c-.2-11.2.8-22.5 2.8-33.5 2.2-10.8 5.1-21.5 8.6-31.9l5.6-16.2c1-2.8 2.1-5.6 3.2-8.4.6-1.6 1.1-4.8 2.8-5.8.1 0 .2.2.2.3 0 0 0 .1-.1.1-.4 2.5-.6 5.2-1.1 7.7-.2.2-.3.5-.3.8 0-.3.2-.5.3-.8.4-.3.5-.6.7-.9z" fill="#fec7af"/><path class="K" d="M170.7 245.4c3.4 8.4 9.4 15.6 14.1 23.2a50.64 50.64 0 0 1 5.1 11.7c1 3.2 3 8 2.4 11.4 1.1-2 .8-4.7 1.6-6.9a15.02 15.02 0 0 1 3.8-5.8c3.8-3.7 9.3-5.7 14.5-6.7 6.1-1.1 12.3-1.7 18.5-2 5.8-.4 12-.7 16.6 3.5 3.6 6.5 11.2 1.1 16.4 1.8 6.9.9 14.2 5.4 20.5 8.3 5.5 2.4 13.1 4.7 16.6 9.9 1.9 2.9 2.1 6.2 2.6 9.5.5 3.7 1.6 7.4.7 11.2 12.1-7.2 20.7-22.2 27.8-34 7.8-13 14.7-26.5 20.5-40.5l.1.9c1 2.2-1.3 6.1-2 8.2l-3 8.6c-2.2 6-4.1 12.2-6.3 18.2-4.1 11.6-9.3 22.9-15.5 33.5-5.9 10.1-13.2 19.2-21.6 27.3-8.7 8.2-18.5 17-29 22.8-20.2 11.3-47.3 7.3-66.7-3.8-10.2-5.8-17.4-14.6-24.2-24.1a137.76 137.76 0 0 1-17.2-31.8c-4.8-13.2-5.4-26.4-5.7-40.3l-.5-22.2c-.1-4 0-7.9-.1-11.9 0-2-1.3-7.5.2-9 .5 0 2.1-.5 2.5 0 .1 5.5 1 11 2.9 16.3.9 2.4 1.5 4.9 2.4 7.3.6 1.5 1.9 3.5 2 5.4z"/><path d="M366.1 213.1c11.9 5.1 1.5 22.8-2.5 30-3.2 5.4-5.4 11.4-6.7 17.5-1.3 5.7-3.2 13.4-10.1 14.3-1.3.2-2-.4-3 .6-.8.7-1.4 3.4-1.7 4.3-1.2 3.4-2.6 6.6-4 9.9a168.96 168.96 0 0 1-10.1 19.9c-3.3 5.6-7 10.9-11 16-4.5 5.6-6 13.5-6.5 20.6-1.1-.2-.7-1.2-1-1.9 0 1.1-1.4 6.7-2.4 6.9l-.5-.6c.5-5.4 2-10.8 3.1-16.1-10.3 9.5-20.6 19.9-32.9 26.9-11.5 6.5-24.7 7.8-37.7 6.5s-25.4-5.6-36.3-12.8c-5-3.5-9.5-7.7-13.3-12.6-4.1-5-10.6-11.5-12.5-17.8-7.3-13.1-14-26.1-16.4-41.1-1.1-7.5-1.1-15.1-1.4-22.7l-.3-10.7c-.1-2.2.7-8.9-.8-10.3-.7-.6-2.6-.4-3.5-.7-1.2-.4-2.3-1.1-3.2-2-1.4-1.6-2.4-3.5-2.7-5.6-1.2-6.4 1.8-12.9 1.6-19.3-.3-10.3-8.2-32 4.7-37.9 0 1 .1 2 .1 3-5.7 5.6-4.3 15.1-3.4 22.3.5 4 1.4 8 1.6 12 .2 4.2-1.1 8.4-1.5 12.5-.4 3.4-1.1 8 1.5 10.7 1.7 1.8 3.7 2.4 4.8.2.7-1.5-.1-4.8 0-6.5.1-2.2.5-4.3.5-6.5-.1-2.2-2.4-10.3-.3-12 .6 1.8.4 3.8 1.2 5.6 1.2 1.1.4 5.2.4 6.6l.1 9.3.4 20.2c.3 12.6.1 25.7 3.2 38 5.3 21 17.9 43.2 33.7 58 16.7 15.6 44.4 22 66.3 16.4 11.2-2.9 19.9-10.1 28.6-17.2 8.8-7.1 17.2-14.8 24.2-23.8a156.32 156.32 0 0 0 19.6-33.5c2.7-6.2 5.1-12.5 7.3-18.9l2.9-8.6c0-.2 2.8-7 3.5-4.5-.7 3.9-2.5 7.5-3.6 11.3s1.1 3.4 3.6 1c4.7-4.5 4-13.2 6.1-18.9 2.5-6.7 7-12.5 9.8-19.1 1.3-3.2 2.9-7 2.7-10.5-.1-3.2-1.6-3.8-3.6-6.1l1.4-2.3z" fill="#cb7075"/><path d="M163.3 216.2c-.8-17.8 3.1-35.7 7.4-52.9 4.1-16.8 9.3-34.3 19.9-48.1.4 0 .5.2.2.5-8.4 21.1-16.2 43-20.2 65.4-1.9 10.8-2.6 21.7-2.2 32.7.2 5.7.5 11.4 1 17.2.2 2.1 2.8 13.3 1.4 14.5-.3-.6-8.8-22.3-7.5-29.3z" fill="#fee9df"/><path d="M347.5 260c-5.9 22.2-16 44.6-30 62.9-7 9-15.1 17.1-24.2 24.1-8.9 7.1-17.5 14.6-28.7 17.8-20.6 5.8-45.4.2-62.6-12.1-8.9-6.3-15.6-16.1-21.7-25.1-6.1-9.1-11.1-18.9-14.8-29.2-4.4-12.8-4.7-25.5-5.2-39-.5-14.5-.7-29-.8-43.5a3.08 3.08 0 0 1 1.3.3l.6 35.7c.4 11.9 0 24 2.5 35.6 4.5 21.1 17.2 42.3 32.1 57.8s39.1 22 59.9 19.6c11.2-1.3 20.4-6.2 29-13.2 9.1-7.3 18.2-14.4 26-23.2 17.1-19.4 27.3-43.7 34.9-68.1.3 0 2-1.5 1.7-.4z" fill="#7d5352"/><path class="O" d="M365 215.6c8.3 2.6 1.8 15.6-.5 20.4-1.9 3.9-4.2 7.5-6.2 11.3-2.2 4.2-2.9 8.6-4 13.3-.8 3.7-1.8 8.9-5.4 11-.8.5-3.1 1.5-3.8.4-.5-.8 1.6-4.9 1.9-5.8 1.5-4.5 2.4-8.6 5.4-12.3 2.8-3.6 5.2-7.5 7.4-11.5-.6 1-5.2 7.6-6 6.5-1-1.5 2.7-8.9 3.4-10.5-.2-.1-.3 1.7-1.1 1.5-1.6-.8 7.9-21.9 8.9-24.3zm-206.4 19.9c0 5-6.6-1-7.3-3.5-1.6-6.3 1.7-13 1.6-19.3-.1-6.7-2-13.4-2.2-20.2-.2-4.3-.5-13.1 4.5-15.1l1.6 20.1c.3.5 0 1.1.2 1.6.1 2.1.2 4.2.1 6.3 0 1.2.5 5.7-.2 6.5-1.7 2-3.4-6.4-3.6-8 .5 4.6 1.4 9.1 2.8 13.5.8 2.4 2.1 4.8 2.5 7.4.4 3.4-.2 7.2 0 10.7z"/><path class="P" d="M255.1 50.9c17.3 1.3 35 7.4 49.9 16.2 7.1 4.2 13.7 9.1 19.7 14.8a91.53 91.53 0 0 1 8.5 9.1c1.1 1.4 7.2 7.7 6.5 9.5-20.3-25.8-53-43-85-49.2 0-.3.1-.5.4-.4z"/><path d="M289.5 50.3c15.7 4.8 30.5 12.3 43.6 22.2 11.6 8.7 23.2 21.1 27.1 35.5-1.7-.2-4.2-6.2-5.2-7.7-2.3-3.2-4.7-6.4-7.3-9.4-5.3-6.1-11.1-11.8-17.4-16.9-12.4-10-26.4-17.9-41.3-23.5-.1-.5.2-.4.5-.2z" fill="#6f605a"/><path class="P" d="M219.2 58.2c-16.2 5.9-28.3 18.9-36.5 33.7 4.3-17.6 17.8-32 36.5-33.7z"/><path class="R" d="M158.6 235.5c-1-1-.2-5.2-.2-6.4-.1-3-.7-5.9-1.7-8.7-2-5.7-3.5-10.8-3.4-16.9l2.8 9h.3c.2-2.2-.9-11 .7-12.4l.9 6.8c-.1 1.6 0 3.3.3 4.9.1 4 1.1 8.1.9 12.1s-.6 7.7-.6 11.6z"/><path d="M356.8 235.7c0 1.3-.7 2.5-.7 3.9l1-2 .3.1-3.6 11.1.2.1 6-7.5c-2.4 6.3-7 10.6-10.3 16.3-.8-.2-.9.8-1.5.9-1-1.3 1.7-6.4 2.2-7.6.7-2 1.7-7.7 3.7-8.9l2.7-6.4z" fill="#e9948f"/><path d="M218.8 84.4c1.5-7.8 6.3-17.1 15.3-17.9-7.8 4-12.5 10.5-15 18.7-.8.1-.4-.4-.3-.8z" fill="#6e605a"/><path d="M354 242.2c-.6 1.7-4.9 15.8-6.8 15.5.3.1 5.3-15.6 5.3-17 .6.4.6 1.4 1.5 1.5z" fill="#7e5452"/><path d="M289.5 50.3c-.2 0-.5.1-.6.3l-9.3-3.2c3.4.6 6.7 1.6 9.9 2.9z" fill="#635750"/><path d="M218.8 84.4c0 .3-.1.7.3.9l-.7 2.5c-.2-1.1-.1-2.3.4-3.4z" fill="#5e524c"/><path d="M255.1 50.9l-.3.3-1.9-.4c.7-.1 1.5-.4 2.2.1z" fill="#5d514b"/><path d="M158.3 211.9c-.4-.9-.4-1.9 0-2.7.1.8.1 1.7 0 2.7z" fill="#fdbfaa"/><path d="M224.4 111.4l1.4 1.1c-.7 0-1.3-.3-1.7-.8l.3-.3z" fill="#83685d"/><path d="M323.6 112l-.3-.3 1-.6c.1.6-.4.7-.7.9z" fill="#bc9080"/><path d="M203 29.8c.1-.5.5-.7 1.2-.5l-1.2.5z" fill="#97928f"/><path d="M190.8 115.7c0-.2.1-.4-.2-.5l.3-.5c.7-.1-.2 1.8 0 1.4l-.1-.4z" fill="#c7a89c"/><path d="M189.6 123.8c0-.4-.1-.9.3-1.3l.3.3-.3.9c-.1.2-.2.2-.3.1z" fill="#81675c"/><path class="R" d="M157 199.2c-.4-.5-.2-1.1-.2-1.6.3.5.3 1 .2 1.6z"/><path d="M158.1 208.1c-.6-.3-.4-.7-.1-1.2l.1 1.2z" fill="#fcb2a2"/><path class="f" d="M164.4 322.2c1.3 1-2.5 11-3 12.7-1.4 5.3-2.7 10-2.8 15.4-.1 11.3 1 22.5 3.3 33.5 2.2 10.5 5.1 20.9 8.7 31 1.8 5.2 3.8 10.4 6 15.5l3.4 8c.9 2.1 3.2 5.2 2.9 7.6-11.6-18.6-20-39.1-24.7-60.5a138.78 138.78 0 0 1-3-30.2c.1-11.4 4.3-21.3 8.1-31.8.4-.3.4-1.1 1.1-1.2z"/><path class="g" d="M301.9 341.5l8.4-8.1-3.4 17.1c.1 4.5-2.3 9.1-3.7 13.2l-8.5 25.3c-1.3 3.6-2 7.7-4.2 10.9-4.7 6.6-12.9 10.3-17.5 16.8-2 2.9-3.1 6.5-4.1 9.8-.6 1.9-1.2 10.4-3 11.1-1.8-1.7-3-3.8-4.9-5.3-1.8-.1-3-1.8-5.2-1.8-2.6.2-5.2.3-7.7.3-2.3-.2-4.5-.8-6.6-1.8-1.2-.6-5.8-3-6-4.5-2.8-3-6.7-4.4-10.2-6.5-3.3-2.1-6.4-4.5-9.2-7.2-6-5.5-11-12.1-16.9-17.6l-.2-.1c-2.2-2-4-4.3-5.4-6.8v-.2c-4.2-7.8-10.9-14.4-13.4-23.2 1.4-.3 6.4 6.7 7.5 7.8 3.1 3 6.3 5.9 9.7 8.5l-10.1-15.4c-3.2-4.9-7.3-9.8-9.6-15.2-.1-5.4 7-9 11.8-6.5 13.2 17.3 36.1 25.4 57.3 25.8 12.3.2 24.6-.6 36.4-4.7 1-.4 4.8-2.7 5.9-2.2 1.6.6.4 3.9.1 5.4-1 6.1-2.4 12.3-3.2 18.4 1.2-7.1 5-14.4 7.5-21.2 2.6-7 4.2-16.1 8.4-22.1z"/><path d="M235.6 424.6c3.8 2.6 7.2 5.3 11.9 5.8 2.6.2 5.2.2 7.8-.1 2.9-.2 3.5.2 5.7 2.1-6.6 1.4-13.2 2.6-19.3 5.8 7.1 8.6 15.1 16.2 23 23.8-5.5-2.2-10.4-6.8-14.9-10.6-4.7-4-9.6-7.7-14.7-11.2 1.7 2.2 3.8 4.1 5 6.7.9.7.6 1.9 1.2 2.8 1.2 2.9 2.2 5.9 3.4 8.9.6 1.5 3.6 6.9 2.6 8.5-1.2 0-4.5-8.2-4.9-9.2l-4.9-9.8c-3.4-6.8-5.3-11.7-13.4-13.3-6.6-1.4-12.6 5.7-16.9 9.8-5.2 4.9-9.5 10.9-15.1 15.4 5.4-9.9 11.3-19.5 17.7-28.7 2.7-3.9 6-9 10.9-10.1 5.6-1.2 9.9 2 14.9 3.4z" fill="#807b7c"/><path d="M199.3 393.3c1.6 3.5 4.9 6.6 7.3 9.6l9 11.5c1.4 1.7 3 2.7 1.9 4.4-.5.9-3.1 1.9-4 2.4-2.6 1.4-2.4 1.2-4.2-1.1-1.4-2-2.7-4.1-4-6.2L191 391.3l-6.9-12c-1.4-2.7-5.8-8.7-5.2-11.9 4.5 6 8.9 13.9 14.6 18.7.3.5.6.8.9 1.3.7.9 1.4 1.9 2.2 2.8.3.6.9 1 1.2 1.6.6.6 1.2 1 1.5 1.5z" fill="#cfcacb"/><path class="R" d="M177.9 348.7l20.4 31-.3.3c-6.6-4.9-12.6-10.6-17.7-17-2-4.6-2.8-9.5-2.4-14.3z"/><path class="G" d="M234.6 466.4c-14.6 4.6-29.3 5.1-44 .3 14.7-.7 29.3-.5 44-.3z"/><path class="R" d="M189.6 342.1c-4.9-.7-10.1.4-11.8 5.6-.9-3.6-.6-8-.6-11.7s-.5-7.5-.3-11.3c4.2 6 8.3 11.8 12.7 17.4z"/><path d="M247.4 467.1c-.5-1.5-4.1-12.4-3.8-12.4l5.2 13c1.6 3.9 3.9 8 4.7 12.1-.6-.9-3.5-8.3-4.7-8.4-.8-1.3-.5-3-1.4-4.3z" fill="#b3b0b0"/><path class="R" d="M265.9 437.7c1.6-7.2 2.6-15.8 7.3-21.9 4.6-6.1 12.6-9.7 17.1-16 2-2.8 2.7-7 3.8-10.3l4.5-13.7c2.8-8.4 5.8-16.8 8.2-25.3.2.9 1.4-2.8 1.6-3.1 1.6 1.8-1.9 10.6-2.5 12.8l-3.5 14.3-6.7 27.7c-.5 2.1-.9 4.2-1.5 6.3-.7 2.3-.8 2.4-3 3-3.2.8-6.2 2.3-8.8 4.3-6.5 5.5-7 13.3-10.6 20.5l-1.5 6.9-4.4-5.5z"/><path class="f" d="M271.8 436.4c2.3-11 8.2-25.1 21.4-25.5 1.6-.6 3.8 1.1 5.5.9 2.1-.2 3.2-1.4 4.5-2.9 1.7-2 6.8-10.8 10.1-10.1l1.3 6.9c-3.8 2.5-6.2 6.6-10.2 8.7-4.2 2.2-9.1 1.7-13.6 2.8-4.6 1.2-8.7 3.7-11.7 7.3-3.1 3.7-4.4 8.5-7.3 11.9z"/><path d="M266.5 474.5c0-8.9 13.2-7.9 12.6.9-.5 8.5-12.8 7.6-12.6-.9z" fill="#858182"/><path class="G" d="M291.3 458c10.7-12.1 20.3-24.8 24.7-40.7 1.4 7.1-3.3 16.3-6.9 22.1-4.7 7.2-10.7 13.6-17.8 18.6z"/><path d="M291 450.8c7.3-7.1 12.8-15.7 18.5-24.1-4.8 9.1-10 17.8-18.5 24.1z" fill="#cec9ca"/><path d="M321.4 421.2l1.2 1.2c-1.1.4-.7 1.7-1.6 2.6.3-1.2.5-2.5.4-3.8z" fill="#888384"/><path class="n" d="M241.4 449.7c-.8-.8-.7-1.9-1.2-2.8.7.1.8.8 1.2 1.3-.5.6.3 1 0 1.5z"/><path class="D" d="M313.3 398.8c-7.3 4.1-10.1 17.2-20.1 12.1l16.2-67.1c.7.7.6 1.7 1.1 2.3.9 2.4 1.4 5.6 3.5 7.1s7.3 1.8 9.8 2.5l20.5 5.2c-11.3 2.2-20.7 8.1-26.5 18.2-2.1-1.5-2.8-8.5-3.5-10.9-1.1-4-3.4-8.6-3.4-12.7 1 14.3 2.5 28.9 2.4 43.3z"/><path d="M356.8 394.5c0 1.4-1.1 1.1-1.7 1.8l-1.6 2c-1 1.2-2.1 2.3-3.4 3.2-3.9 3-6.9 7.8-11.9 10.1-.2-.8.7-1.3.5-2.1-.6.2-.6.9-1.1 1.2-.6.6 0 1.4-.8 2.2-.6.5-1.4 0-2.1.4-1 .5-1.5 2-2.9 2.5-2.5.9-1 .1-2.4-.5-.5.4-1.8 3.6-2.9 2.7-.8-.6.2-2.5-.1-3.4-1.3 1.1-1.5 2.6-1.8 4-2-.9-1.3-2.7-1.5-4.2-.7.1-.6 1-1.3 1.1-1.5-2.2-3.2-4.3-1.2-7.5-1.3.4-1.3 1.4-2.1 1.7-1-2.7-2.4-5.3-.8-8.3-.7 0-.8.6-1.2.8-1.3-1.7 2.6-5.8 2.9-8-1.6 1.1-2.8 2.8-3.4 4.7-1.1-4.7 1.2-7.8 2.1-12 .4-1.8-.3-3.1 1-4.8 1.5-1.6 2.6-3.5 3.5-5.5 1-2.3 4.7-6.6 7.1-7.6.8-.3.3.9 1.2.6s1.8-.8 2.6-1.4c2.1-1.5 2.8-3.4 5.8-3.7 0 .7-.7.8-.8 1.5 1.9-.3 2.9-1.4 4.5-2.1 1.4-.6 1.6-.2 3-.3 3.5-.4 6.3-.8 9.9 0-.3 1-1.3 1.2-1.9 2 1.9.6 3.3-.9 5.1-1 1.4 0 2.8.8 4.1 1.4.2.4-.1.4-.3.6-1 .4-2 1-2.8 1.8 2.1.4 3.3-1.2 5-1.1 1.6.5 3 1.4 4.1 2.6-1.4.1-2.6.8-3.5 1.8 1.3.3 4.8-1.5 5.1-.4.6 1.9-3.9 2.7-4.9 3.6 1.2.2 2.4.1 3.5-.2 0 2.1-2.2 2.2-3 3.4.5.9 1.1-.1 1.2 1.3s-2.5 3.1-3 4c-.2.3-.4.6-.5 1-.1.2.2.8-.2 1.2-.9.9-2.2.6-3.1 1.7.6.4 1.3 0 2.1.1-1.9 1.9-2.8 4.2-4.8 5.6-.3 0-2.2.5-2 1.1l.7.4z" fill="#7a7a7a"/><path d="M347.5 429.2c-1.5 1.1-11.5-.6-12.4-2.5-1.1-2.5 5-7.5 5.4-3.9 1.3-4.3 8-7.3 11.3-10 1.8-1.5 3.9-2.5 5.4-3.9.7-.6.8-2 1.7-2.7.6-.5 2-.5 2.5-1.1s0-1.4.5-2.2 1.4-1.3 1.9-1.9c2.2-2.6 4.3-5.4 6.1-8.3.7-1 2-1.9 2.6-2.8.4-.6.1-.9.4-1.5 1.1-2.2 1.4-3.4 3.6-4.8-2-.6-.1-4.8 1.1-4.2s.4 1.8.7 2.4c.6 1.8 2.2 1.5-.1 3.1.6.6 2 .1 2.4.8.9 1.7-.8 1.4-1.5 2.2.7.6 4.8 1.8 1.3 3.3 2.2.8 2.4 1.7.6 3.4 2.8.7.2 5-1.6 4.6 0 .2-.9.5-.7.8 1.1 1.7.2 2-1.4 4.1-1 1.4-1.5 2.8-2.9 2.7-.6.3-1.1.7-1.5 1.2 1.4.9-.4 2.2-1.2 3.1-1.4 1.4-2.8 3.4-4.2 4.7-1 .9-1.9 1.2-2.7 2-1.7 1.7-2.6 3.4-4.9 4.5-.6-.5-1.3-.3-.9.6.2 0-7.1 7.7-7.2 4.1-1.2 1.2-1.1 3.9-3.7 2.7-.2-.7.4-1.4.1-2.1-.5.3-.1 1.2-.7 1.6z" fill="#515151"/><path d="M373.9 375.7c-1.7 12.4-11.2 23.8-20 32.2-4.4 4.2-9.2 7.9-14.4 11.1-2.5 1.6-5.1 3-7.9 4.2-4.3 1.7-5.2.5-8.6-2.4 22.2-5.3 40.4-25.9 50.5-45.4.4-.1.5-.1.4.3z" fill="#dfdbdc"/><path d="M350.2 431.4c14.1-8.4 25.9-20.1 34.4-34.2.9 1.5 3.5 4.3 3.5 6.1s-2.8 5-3.9 6.4c-3.3 4.5-6.9 8.8-10.8 12.7a82.98 82.98 0 0 1-11.8 10.3c-1.5 1.1-3.2 2.7-5.1 2.4-2-.2-4.7-2.7-6.3-3.7z" fill="#989495"/><path d="M313.4 394.5c-1.2-2.2-.7-6.2-.9-8.7l-.6-10.8c-.5-6.5-2.1-14-1.1-20.6 2.3 8 5.7 16.4 7 24.6a36.86 36.86 0 0 0-4.4 15.5z" fill="#cecacb"/><path d="M390.8 412.2c-3.1 6.2-8.5 11.6-13.3 16.5-1.4 1.4-14.2 13.4-15.3 10.6-.2-.5 12.4-9.8 14.1-11.4a154.1 154.1 0 0 0 14.5-15.7z" fill="#421f00"/><path class="u" d="M356.8 394.5c-3.5.2.4-2.3 1.2-1.5l-1.2 1.5z"/><path class="v" d="M337.5 410.6c.1-.9.7-1.6 1.5-2 .3 1.1-.1 2.2-.9 2.9-.7.1-.4-.5-.6-.9z"/><path class="u" d="M347.5 429.2c-.1-3.6 2.1-2.7.6.3l-.6-.3z"/><path class="w" d="M359 422.8c-1.5-.6.9-2.6.9-.6l-.9.6z"/><path class="x" d="M372.9 407.9c0-1.1.6-1.4 1.5-1.2.2 1.1-.5 1.3-1.5 1.2z"/><path d="M370.7 443.7c-.5-.2-1-.7-1.2-1.2.6.4 1.1.5 1.2 1.2z" fill="#989596"/><path d="M362.7 366.6l.3-.6c.3 0 .4.1.4.4-.1.2-.4.3-.7.2z" fill="#616060"/><path d="M373.9 375.7l-.3-.3c0-.3.2-.6.5-.8.2.3.1.8-.2 1.1z" fill="#a29fa0"/><path class="n" d="M243.6 454.7c-.2.1-.3.4-.3.6-.8-1.8-1.5-3.7-1.9-5.6 1 1.6 1.7 3.3 2.2 5z"/><path class="AB" d="M183.4 166.3c2.4-4.6 9.2-7.5 13.9-8.5 6-1.3 12.3-.4 18.3.5 6.2.9 12.2 2.3 18.1 4.2 5.4 1.8 12.6 3.9 15.7 9.1.8 1.3 2.5 5.2 1.3 6.7-1.1 1.5-6.2-.7-7.7-1.1l-19.9-4.9c-12.6-3.2-26.4-8.2-39.7-6zm160.3 33.6c-10.8-6.5-24.4-6.8-36.6-8.2l-19.6-2.4c-2.2-.3-6.3.3-6.4-2.4-.1-1.9 2.5-4.6 3.9-5.5 4.7-3.4 11.8-2.9 17.2-2.6 6.5.4 13 1.4 19.3 3 5.2 1.4 10.4 3 14.7 6.5 2.3 2 8.3 8.1 7.5 11.6z"/><path class="R" d="M224.9 184.4c5.9.1 11.7.4 17.2 3.6l-3.8-8.8c6.6 1.8 12.1 9 12.1 15.6 0 7.8-1.6 15.9-2.9 23.6-1.1-.8-.7-4.8-1-6-.5-2.4-1.4-4.7-2.6-6.8-1.7-3-5.5-7.8-9.3-8-.1-.2 1.5-1.6 1.5-2.4-.9-2.6-2.5-4.8-4.6-6.5-1.7-1.3-5.6-2.5-6.6-4.3zm61.6 24.4c-7 2.8-10.7 8.5-13.4 15.2 1.7-8.1 2.8-17.1 6-24.7 2.9-6.7 9.9-7.7 16.4-7.5l-6.7 4.3c6.2-.5 11.2 2.4 16.2 5.2-.9 1-4.8.2-6 .2-2.9 0-5.7.5-8.4 1.3-1.5.5-4.4 1.2-5 2.8-.8 1.9 1.1 1.7.9 3.2zm-39.2 64.8c-1.7-2.7-3.4-5.7-6.4-7.1s-6.2-1.4-9-3.4c-6.7-4.8-6-12.3-.6-17.9-1.7 4-3.2 8.2-1.3 12.4.8 1.7 7.1 7.9 9.2 5.1 1.7-.4 5.1 1.3 6.9 1.5 2.4 2.6 4.6 5.7 8.5 5.9 3.7.2 7-1.9 9.8-4.1 2.5-.3 4.6-.6 6.8-1.9 7.6 0 6.5-7.8 6-13.1 5 7.3 1.2 14.5-6.5 16.9-4.2 1.3-7.4 4-11.4 5.9-4.4 2.3-7.7 1.8-12-.2z"/><path class="AC" d="M224.9 184.4c4.4 2.1 10.7 5.4 11.5 10.8-.1.2-.2.4-.5.4-4.3-5.5-8.1-8-14.9-10-3.3-1-6.8-1.6-10.3-1.8-1.5 0-7.7.1-8.6 1.9s2.8 4.4 3.9 5.2c2.8 2.1 6.1 3.6 9.6 4.5 3.1.8 6.3 1.3 9.5 1.6 1.2.1 6.6-.3 7 1-12.2 1-23.1-1.5-31.8-10.1-1.3-1.3-2.6-1.7-1.5-3 1.5-1.8 6.4-2.5 8.5-2.8 6-1 11.8.3 17.6 2.3z"/><path class="AD" d="M263.5 203.5c-.2 7.1-1.8 14.4-2.8 21.4l-3.1 22.4c-.9-1.4-3.1-1.1-3.6-1.9s.5-3.2.7-4.3l2.8-12.8 5.6-25.4c.6 0 .6.3.4.6z"/><path class="AC" d="M289.2 202.9c13-5.4 26.8.3 35 10.9-11.9 4.7-22.9 3.6-34-2.8-.1-.3.1-.4.4-.5 2.7.3 5.4 2 8 2.8 2.7.9 5.6 1.6 8.4 2.1 2.2.3 13.8.3 13.3-3.3-.2-1.4-3.7-3.5-4.8-4.2-2.7-1.6-5.7-2.8-8.8-3.5-6-1.6-11-1.5-17-.9-.3-.1-.5-.2-.5-.6z"/><path class="R" d="M228.7 208.2c-12.7 3.4-25.4-.3-31.3-9.1 9.1 8.2 20 9.5 31.3 9.1zm60.4 11.2c10.4 4.4 20.9 7.3 32.1 3.1-8 5.6-21.4 5-32.1-3.1z"/><path class="AE" d="M246.1 264.3c-1.5.4-11-1.8-7.8-4.5 2.2-2 7 2.8 7.8 4.5z"/><path class="AD" d="M252 251.8c.2-4.5 6.3-1.8 5.2 1.1-.9 2.3-5.3 1.6-5.2-1.1z"/><path d="M274.7 247.1c-2.7-1.3-3 .9-3.2-2.8V235c1.4 4.1.3 8.6 3.2 12.1z" fill="#eb9791"/><path class="AE" d="M271.2 264.3c-.3 2.1-5.4 2.2-6.8 1.9 1.1-1.5 5.2-4.9 6.8-1.9z"/><path d="M290.5 210.6l-.4.4-3.7-2.2-1-.9c0-.3.2-.4.4-.4 1.7.8 3.6 1.4 4.7 3.1z" fill="#3d3433"/><path d="M232.1 197.9c-1.8-.6-4.6.6-6.2-.5.5-.8 8.7-1.1 8.8-.1 0 .1-.1.2-.1.3l-2.5.3z" fill="#3c2e2d"/><path d="M263.5 203.5c0-.2-.1-.5-.3-.6l.7-3.1c.1 1.3 0 2.5-.4 3.7z" fill="#fedbcc"/><path d="M189.6 123.8h.3c-.1.3-.3.7-.4 1-.3-.4-.2-.7.1-1z" fill="#b78d7d"/><path class="g" d="M200.5 315.6c0-6.7-.1-17.6 5.7-22.2 2.9-2.3 6.5-2.2 10.1-2.7 4.9-.6 9.7-1.7 14.6-2.5 3.6-.6 7.4-1.1 10.9.5 4.1 1.9 7.1 5.4 12.1 5 4.5-.3 7.9-1.7 12.4-.7s8.9 3.7 12.9 6.1c6.7 4.1 13.4 7.7 13.3 16.5-.1 7.7-2.9 16.1-8.7 21.4-5.5 5-13.3 6.9-20.6 6.5-4-.2-7.8-1.3-11.4-3.1-4-2-7.1-4.7-11.6-5.6-9.2-1.8-18.9 3.1-27.9.4-9.2-2.7-11.7-11-11.8-19.6z"/><path d="M347.2 257.5c1.6-.9 1.9-4.2 3.1-5.6-.7 2.8-1.7 5.5-2.8 8.1-.7-.3-1 .5-1.6.6l1.3-3.1z" fill="#8b625c"/><path class="R" d="M301.9 341.5L286 385.3l-.3-.1 4-24.2c-5.6 2.5-11.4 4.4-17.4 5.6-5.1 1-12.2 2.6-17.3 1.3 9-1.6 17.1-3.9 24.9-8.9 7.8-5.4 15.1-11.2 22-17.5z"/><path d="M196.8 390.2c-1-.7-1.8-1.7-2.2-2.8 1 .7 1.7 1.7 2.2 2.8z" fill="#bbaeae"/><path d="M198 391.8c-.7-.3-1.1-.9-1.2-1.6.6.3 1.1.9 1.2 1.6z" fill="#b9acac"/><path class="D" d="M199.3 393.3c-.6-.3-1.1-.9-1.3-1.6.7.3 1.1.9 1.3 1.6zm-4.7-5.9c-.5-.2-.9-.7-.9-1.3.5.3.9.8.9 1.3z"/><path class="AN" d="M330.5 372.2c-1.1 2.2-2.9 4-5.1 5 0-2 2.4-4.4 5.1-5z"/><path class="x" d="M320.9 385.1c.6-2.6 2.4-4.8 4.9-5.8-.8 2.5-2.6 4.6-4.9 5.8z"/><path class="AN" d="M332.3 373.1c1.1-2.4 3.2-4.1 5.8-4.6-1.2 2.3-3.3 4-5.8 4.6z"/><path class="x" d="M318.1 392.2c.3-2.4 1.8-4.5 4-5.7-.4 2.4-1.9 4.5-4 5.7zm27.3-26.2c-1.2 2.1-3.3 3.5-5.7 3.7 1.2-2.1 3.3-3.5 5.7-3.7z"/><path class="u" d="M333 374.9c-1 2.3-2.8 4.2-5.2 5.1.9-2.6 2.8-3.9 5.2-5.1z"/><path class="x" d="M328.7 381.7c-.7 2.3-2.3 4.1-4.5 5.2.6-2.4 2.2-4.3 4.5-5.2z"/><path class="u" d="M352.8 364.1c-1.8 1.9-3.6 3.2-6.1 3.4 1.3-2.1 3.6-3.3 6.1-3.4z"/><path class="x" d="M325.5 388.2c-.4 2.3-1.8 4.3-3.8 5.5.1-2.6 1.7-4 3.8-5.5zm-2.6 6.7c-.3 2.3-1.5 4.4-3.4 5.7.1-2.6 1.5-4.1 3.4-5.7zm18.5-21.9c.8-1.9 2.6-3.2 4.7-3.2-.8 1.9-2.6 3.1-4.7 3.2zm-6.7 3c.2-.5 3.9-5.3 4.6-3.5.6 1.3-3.8 3.4-4.6 3.5z"/><path d="M330.7 382.3c.5-2 2.2-3.6 4.2-4-.6 1.9-2.2 3.4-4.2 4z" fill="#050405"/><path class="u" d="M352.9 368c-1.5 1.9-3.1 2.9-5 2.8.8-1.6 2.3-2.5 5-2.8zm-21.4 16.3c-.6 1.9-1.9 3.6-3.7 4.5-.1-2.1 1.2-3.6 3.7-4.5zm-7 17.5c.2 2.1-.8 4-2.4 5.2-.3-2.2.8-3.6 2.4-5.2z"/><path class="AP" d="M342.8 376.3c.9-1.9 2.7-3.1 4.7-3.3a5.67 5.67 0 0 1-4.7 3.3zm-6.1 2.7c1.1-2.1 2.4-3.4 4.6-3.8a6.14 6.14 0 0 1-4.6 3.8z"/><path d="M337.3 380.8c-.5 1.9-2.1 3.5-4 4 .5-1.9 2-3.5 4-4z" fill="#060506"/><path class="AP" d="M321 401.8c-.1 2-1 3.9-2.6 5.2-.3-2.4 1-3.9 2.6-5.2zm3.9 11.4c-.3-1.8.4-3.7 1.9-4.8.3 1.8-.4 3.7-1.9 4.8z"/><path class="v" d="M328.3 390.3c-.2 2-1.4 3.7-3.2 4.5.1-2.2 1.4-3.3 3.2-4.5z"/><path class="AR" d="M328.1 414.2c-.3-1.9.5-3.8 2-5 .2 1.9-.5 3.8-2 5z"/><path class="AS" d="M323.5 408.3c.2 2-.9 3.4-1.9 4.9-.7-1.6.1-3.5 1.9-4.9z"/><path class="u" d="M334 386.4c-.4 1.8-1.7 3.3-3.4 4 0-1.6 1-2.8 3.4-4z"/><path class="AP" d="M338.9 381.7c.6-1.8 2.3-3.1 4.2-3.4-.8 1.8-2.4 3.1-4.2 3.4z"/><path class="x" d="M358.8 370.8c-1.1 1.6-2.9 2.5-4.8 2.4 1.2-2 3-2.3 4.8-2.4z"/><path class="w" d="M339.4 383.6c-.5 1.6-1.8 2.9-3.5 3.5.2-1.9 1.7-3.3 3.5-3.5z"/><path class="u" d="M359.2 367c-1.7 1.3-2.9 2.6-5 2.5.8-1.6 2.3-2.4 5-2.5z"/><path class="AS" d="M360.1 375.5c1.5-1.6 2.7-2.1 4.4-1.8-1 1.5-2.8 2.2-4.4 1.8z"/><path class="x" d="M329.5 397.3c-.2 1.8-1.2 3.3-2.6 4.4-.3-1.9.5-3.3 2.6-4.4z"/><path class="AT" d="M354.1 374.9c-1.3 1.7-2.5 2.7-4.6 2.8.9-2 2.6-2.3 4.6-2.8z"/><path class="u" d="M323.3 400.7c.1-1.7 1-3.3 2.5-4.3.6 1.3-.2 2.6-2.5 4.3z"/><path class="AP" d="M334.2 393.6c-.2 1.6-1.2 3-2.7 3.8 0-1.8.7-3 2.7-3.8z"/><path class="w" d="M331.5 391.8c-.2 1.8-1.4 3.4-3.1 4.1.1-2 1.4-2.9 3.1-4.1zm21.7-20.1c-1 1.6-2.6 2.6-4.5 2.8.9-1.7 2.6-2.7 4.5-2.8z"/><path class="v" d="M365.4 376.9c-1 1.4-2.7 2-4.4 1.6 1-1.3 2.7-2 4.4-1.6z"/><path d="M359.9 372.1c1.5-1.3 2.7-2.2 4.8-1.9-1.5 1.3-2.7 2.3-4.8 1.9z" fill="#080707"/><path class="u" d="M349.6 379.7c-.6 1.5-2 2.5-3.6 2.6.3-1.7 1.9-2.8 3.6-2.6z"/><path class="AP" d="M327.9 402.9c0 2-1 3.2-2.4 4.5-.1-2.2 1-3.3 2.4-4.5z"/><path class="x" d="M328.8 407.9c-.2-1.6.6-3.2 2-4 .4 1.6-.2 2.7-2 4z"/><path class="v" d="M335.3 405.7c-.2-1.5.7-3 2-3.6.4 1.6-.3 2.8-2 3.6zm12.9-29c-.6 1.4-1.9 2.4-3.5 2.7.4-1.7 1.9-2.8 3.5-2.7z"/><path class="AS" d="M331.7 409.3c0-1.6.3-3 1.8-3.8.4 1.5-.3 3.1-1.8 3.8z"/><path d="M340.9 384.4a4.6 4.6 0 0 1 3.5-3.1c-.5 1.6-1.8 2.7-3.5 3.1z" fill="#070607"/><path class="w" d="M333.4 392.2c.3-2.1 1.5-2.9 3.1-3.6-.3 1.9-1.6 2.6-3.1 3.6z"/><path class="AP" d="M349.2 387.2c.5-1.4 1.8-2.3 3.3-2.4-.3 1.6-1.7 2.7-3.3 2.4z"/><path class="v" d="M357.8 383.7c-.7 1.5-2.1 2.4-3.7 2.3.6-1.8 1.9-2.2 3.7-2.3z"/><path class="AP" d="M343.5 388.3c-.3 1.5-1.5 2.7-3 3 .1-1.7.9-2.5 3-3z"/><path class="v" d="M336.7 400.6c0-.8.9-3.7 2.2-3.2 1.4.5-1.9 3.1-2.2 3.2z"/><path class="w" d="M334.5 410.6c-.3-1.5.4-3 1.7-3.7.6 1.4.2 2.3-1.7 3.7z"/><path class="AW" d="M336 394c.1-1.6 1.2-3 2.8-3.4-.2 1.6-1.3 2.9-2.8 3.4z"/><path class="w" d="M355 376.4c1.2-1.5 2.2-2.4 4.2-2.2-1 1.3-2.5 2.2-4.2 2.2z"/><path class="AT" d="M342.9 400.2c.3-2.1.7-2.5 2.6-3.1-.1 1.5-1.2 2.7-2.6 3.1z"/><path class="v" d="M346.9 397.9c.1-.4 2-3.8 2.7-2.5.7 1.2-1.8 2.3-2.7 2.5z"/><path class="x" d="M355.8 379.4c.8-1.4 2.4-2.2 4-2-.8 1.4-2.4 2.2-4 2z"/><path class="AT" d="M354.7 378.3c-.9 1.3-1.8 2.3-3.7 2.3.9-1.4 1.8-2.4 3.7-2.3z"/><path class="AW" d="M347.6 392.7c-.2 1.5-1.4 2.6-2.9 2.8.2-1.7 1.3-2.4 2.9-2.8z"/><path class="AT" d="M332.9 403.7c-.4-1 1.7-4.1 2.1-3.2.5.9-1.4 2.8-2.1 3.2z"/><path class="v" d="M330 402.4c-.1-1.5.8-3 2.2-3.6.2 2-1.2 2.7-2.2 3.6z"/><path class="u" d="M348.9 393.7c.6-1.7 1.5-2.6 3.1-2.5-.3 1.5-1.4 2.2-3.1 2.5z"/><path d="M355.8 381.3c-.6 1.5-1.9 1.7-3.2 2.1.1-1.4 1.1-2.1 3.2-2.1z" fill="#0c0c0c"/><path class="v" d="M341.6 404.4c0-.6.9-3.7 2.2-3s-1.8 2.9-2.2 3z"/><path d="M357.4 382.1c.8-1.6 2.2-1.7 3.7-1.9-.9 1.7-2.1 2-3.7 1.9z" fill="#090808"/><path class="x" d="M346.2 384a3.92 3.92 0 0 1-3.2 2.6c.3-1.5 1.1-2.2 3.2-2.6zm16.1-.9c-1.2 1.6-1.6 1.8-3.5 1.8.5-1.4 2-2.1 3.5-1.8z"/><path class="AP" d="M331.5 414.4c-.6-1.8.2-2.8 1.4-4 .2 1.5-.3 3-1.4 4z"/><path d="M334.2 398.7c.3-1.9.7-2.4 2.2-3-.1 1.7-.5 2.2-2.2 3z" fill="#0b0b0b"/><path class="w" d="M342.8 405.7c.1 1.3-.6 2.5-1.8 3.1-.5-1.5-.1-2.2 1.8-3.1z"/><path class="AT" d="M351.8 397.5c-.1 1.1-2.5 2.9-2.4 2.1.1-1.3 1.2-1.9 2.4-2.1z"/><path class="w" d="M365.7 380.1c-.8 1.2-1.5 1.5-3.4 1.3.8-1.4 1.5-1.6 3.4-1.3z"/><path d="M345 388.9c.9-1.9 1.2-2.2 2.7-2.4-.1 1.4-1.3 2.4-2.7 2.4z" fill="#050404"/><path class="Ab" d="M346.6 403.1c.2 1.4-.7 2.6-2.1 2.9-.4-1.6.7-2.2 2.1-2.9z"/><path class="AW" d="M338.3 389.1c.3-1.5 1.4-2.7 2.9-2.9-.4 1.6-1.4 2.2-2.9 2.9z"/><path class="v" d="M341 392.8c-.3 1.8-1.5 2.4-2.8 3.2.2-1.8 1.3-2.5 2.8-3.2z"/><path class="x" d="M348 399.5c-.1.2-1.8 3.2-2.4 2.2-1-1.9 2.5-2.3 2.4-2.2z"/><path class="AT" d="M339.3 402.6c.1-.6 1-3.9 2.1-2.9.8.8-1.7 2.7-2.1 2.9zm3.8-7.8c.4 1.4-2.1 2.9-2.1 2.5 0-1.2.9-2.2 2.1-2.5z"/><path class="AW" d="M346.9 391.2c.3-1.6 1.5-1.9 2.7-2.2-.4 1.6-.9 2-2.7 2.2z"/><path class="AT" d="M350.9 382.5c-.4 1.3-1.6 2.2-3 2.1.3-1.3 1.6-2.2 3-2.1z"/><path class="w" d="M338.3 407.1c0-2 .3-2.4 1.8-3.1.1 1.3-.6 2.5-1.8 3.1z"/><path class="AS" d="M360.5 389.3c-.4 1.2-1.6 2-2.9 1.8.4-1.1 1.5-2.7 2.9-1.8z"/><path class="AP" d="M351.4 389.6c.7-1.6 1.7-1.8 3.1-2-.6 1.6-1.7 1.8-3.1 2z"/><path class="AR" d="M342.8 393.3c.1-1.3 1.1-2.4 2.5-2.5-.3 1.4-1.1 2-2.5 2.5z"/><path class="AP" d="M358.8 386.8c-.5 1.2-1.7 1.8-3 1.5.5-1.2 1.8-1.9 3-1.5z"/><path class="F" d="M360.5 389.3h-1.3c.5-.3.9-.7 1.3 0z"/><path class="v" d="M341.8 424.1c.7 1.2.5 2.8-.4 3.9-1-1.4-.9-2.4.4-3.9z"/><path class="AP" d="M372.9 393.3c-1.3-.5-1.1-1.5.8-1.6 1.9 0 .4 1.6-.8 1.6zm-29.4 30.5c-.2-1.3-.4-2.6 1-3.4.7 1.5.4 2.4-1 3.4z"/><path class="AT" d="M344.6 428.7c-.9-1.4-.4-2.4.6-3.4.6 1.5.6 1.8-.6 3.4z"/><path class="u" d="M375.2 390.3c1-1.3 2.2-1.1 3.6-.7-1.3 1.1-1.8 1.2-3.6.7z"/><path class="Ac" d="M371 394.5c.3-.2.8 0 .9.3-.5 3.2-4.8-.5-.9-.3z"/><path class="AT" d="M376.4 393.6c.3-.5 2.9-2.1 2.9-.6.1 1.2-2.3.9-2.9.6z"/><path class="AW" d="M377.1 386.5c-.7.9-2 1.2-3.1.7-.8-.3 2.8-.8 3.1-.7z"/><path class="Ab" d="M346.5 424c.1-1.7 2-1.8 1.5-.7-.4.9-1 2.3-1.5.7z"/><path class="AN" d="M338.6 422.8c.4 2.1.3 2.6-.6 3.6-.6-1.2-.3-2.7.6-3.6z"/><path class="Ab" d="M367.7 398.9c-1.6-.6 0-1.1.9-1.6 1.1-.4.6 1.6-.9 1.6z"/><path class="w" d="M376.1 395.4c-.3.4-2.8 1.5-2.4.5.3-.8 2.5-1.8 2.4-.5z"/><path class="AP" d="M363.6 410.5c0 1.3-2.1 1.4-1.8.7.2-.7 1.9-2.1 1.8-.7z"/><path class="v" d="M378.7 397.1c-2.7-.8 1.6-1.8 1.5-.9-.1.6-.8 1-1.5.9z"/><path class="u" d="M350.1 426c-.5-.8-.2-1.9.6-2.4.7-.4.3 2-.6 2.4z"/><path class="AT" d="M355.7 413.8c-1.5.2.5-2.1.5-1.9-.1.2 1.4 1.7-.5 1.9z"/><path class="AW" d="M366.1 411.2c-1.7.2.1-1.8.1-1.7s1.9 1.3-.1 1.7z"/><path class="v" d="M363.3 408c-1.8.5.7-1.8.6-1.5 0-.2 1.4 1.4-.6 1.5z"/><path class="AP" d="M359.9 411.2c0 1.1-1.6 1.9-1.6 1 .1-.8 1.5-2.1 1.6-1z"/><path class="u" d="M371.2 398.8c.1-.6 1.6-2 2.2-1 .5 1.1-2.1 1-2.2 1zm-5.2 2.9c-1.6-.5.3-.8.5-1.3.2-.4 1.7 1.4-.5 1.3z"/><path class="AW" d="M358.6 416.2c-1.7.2.5-1.9.4-1.7 0 .2 1.4 1.3-.4 1.7z"/><path class="Ad" d="M350.4 419.5c.4.8.1 1.9-.7 2.3-.1 0-.2.1-.3.1-.5-.8-.2-1.8.6-2.3.2 0 .3-.1.4-.1z"/><path d="M362.2 418.4c-2 .1.2-1.7.2-1.5s1.3 1.2-.2 1.5z"/><path class="AN" d="M376 399.5c-1.9-.3.2-1 .3-1.3s1.9 1-.3 1.3z"/><path class="Ad" d="M359.6 408.8c-1.7.1.6-1.7.6-1.6-.1 0 1.1 1.6-.6 1.6z"/><path class="AP" d="M363 414.2c0 1.8-1.5.2-1.6.2s1.6-2 1.6-.2z"/><path class="AN" d="M353.4 414.1c.1 2.1-1.6.8-1.3.6.2 0 1.1-2.2 1.3-.6z"/><path class="AW" d="M358.7 419.6c-1.8-.1.3-1.6.3-1.6s1.3 1.4-.3 1.6z"/><path d="M356.5 416.4c.1 1.8-1.4.6-1.3.6.1-.1 1-2.4 1.3-.6z" fill="#080708"/><path class="AP" d="M364.5 404.8c-1.6-.4.3-.9.4-1.3s1.6 1.4-.4 1.3z"/><path d="M368.9 410.3c.2-1.8 1.6-.1 1.5-.1s-1.7 1.8-1.5.1z" fill="#040304"/><path class="AP" d="M370.9 407.6c-2.2-.2 0-1.2 0-1.3-.1-.3 1.5 1.5 0 1.3z"/><path class="x" d="M353.7 422c.2 2.1-1.5.7-1.2.5.4-.3.7-2 1.2-.5z"/><path class="Ad" d="M353.4 418.3c0 1.9-1.4.4-1.2.3.5-.2.7-1.9 1.2-.3z"/><path d="M366.4 413.4c.2 2-1.6.4-1.5.3.4-.1 1.1-1.3 1.5-.3z" fill="#0e0d0d"/><path class="v" d="M371.1 400.9c-.2 1.5-1.4.3-1.7.4 0 0 1.4-1.8 1.7-.4z"/><path class="w" d="M354.4 425.5c0 2-1.3.3-1.2.3.4-.2.7-2 1.2-.3z"/><path class="Ac" d="M356 419.5c1.4-.2-.1 1.7-.1 1.6.1-.4-1.3-.8.1-1.6z"/><path d="M376 404.4c-.3 1.6-1.4.2-1.6.3.1 0 1.3-1.7 1.6-.3z" fill="#0c0b0b"/><path class="u" d="M374 400.7c1.8.5-.3 1.1-.4 1.2 0 .2-1.3-1.1.4-1.2z"/><path class="w" d="M378 401.8c-.7 1.4-1.3.1-1.6.2 0 0 1.6-1.5 1.6-.2zm-6.7 2.6c.4-1.6 1.3-.3 1.6-.4 0 .1-1.4 1.7-1.6.4z"/><path class="Ad" d="M367.2 407.6c-1.7-.1.1-1.2.2-1.3 0-.1 1.5 1.3-.2 1.3z"/><path class="w" d="M368.7 403.5c1.5.3-.1.8-.2 1.2-.1 0-1.8-1.2.2-1.2z"/><path class="AT" d="M357.1 423.1c.2 1.8-1.4.6-1.2.5.4-.2.4-1.6 1.2-.5z"/><path d="M379.1 415.4c-.8-1.4-1.2-1.7-2.7-1.7-1.1 0-3.4 2.3-4.3 1.8 4.7-5 8.8-10.5 12.4-16.4 2.2 3.2 3.2 3.8 1 7.4-2 3.1-4.1 6.1-6.4 8.9z" fill="#4f2800"/><path class="A" d="M234.7 197.3c-1.3-.7-4.3.1-5.8.1s-3.2 0-4.9-.2c-1.4-.5 2-3.4 2.4-4.3.6-1.3.3-4.9 1.1-5.5 2.4.9 12.1 7.9 7.2 9.9z"/><path d="M235.5 197c.6-.3.9-.9.6-1.5l.3-.3c-.3.6.9 1.9-.9 1.8z" fill="#231d1e"/><path class="Ak" d="M290.5 210.6c-1.8-1.1-6.2-2.6-5.4-4.8 1.1-3.1 8.9-3.7 11.4-3.4-1.1 2.9 1.9 3.4 1.7 5.8-.1 1.3-1.6 1.4-2.1 2.3-.4.9.3 1.8-.2 2.4-1.7-.8-3.6-1.5-5.4-2.3z"/><path d="M289.6 203.2l-4.4 2.5c-.3-1.4 3.1-2.6 4-2.8l.4.3z" fill="#3d3333"/><path d="M284.9 206.2c0 .6.6.9.9 1.3l-.3.3c-.4-.5-1.6-.6-.6-1.6z" fill="#463737"/><path class="An" d="M227.6 187.4a9.48 9.48 0 0 1-1.1 6.4c-.5.8-3.1 2.8-2.4 3.4-4.6-.7-9.3-1.3-13.6-3.4-.8-.9-1.2-2-1.3-3.2.2-1.3 1.6-1.3 1.8-2.2.6-2.1-1.9-3.4.2-5.1 4.9 0 12.2 1.5 16.4 4.1z"/><path class="Ak" d="M211.3 183.4c-1.4 2.3 1.1 3 .2 5.5-.4.9-1.6.8-2 2-.2.7.8 2.5 1 3.1-2.2-1-8.9-4.6-8.9-7.6-.2-2.8 7.5-3.2 9.7-3z"/><path class="An" d="M296 212.8c-.4-.8-.7-1.7-.9-2.7 2.7-.2 3.1-2.3 1.8-4.2-.4-.6-1.5-.1-1.6-1.1-.1-.6 1.1-2 1.3-2.5 5.8.3 11.4 1.6 16.8 3.9.5 3.4-.6 8.6-4.5 9.6-4.5.1-8.7-1.6-12.9-3z"/><path class="Ak" d="M308.9 215.9c1.6-1.1 2.9-2.7 3.6-4.5.3-.8.4-4.9.9-5.2 3.1 1.5 5.8 3.8 7.8 6.5-3.7 2.5-8 3.6-12.3 3.2z"/><path d="M230.9 311.7c-3.9-1.9-8.2-4-10.9-7.5-1.1-1.5-2-3.1-3.2-4.6-1.2-1.4-3.3-2.7-3.5-4.7 1.1-.7 5.6 2.1 6.8 2.5 3 1 6 1.7 9 2.3 6 1.4 12 3.2 18.1 4.4s12.4 1.5 18.6 2.5 12.4 2.2 18.5 1.1c.7 1.2-7.3 5.3-8.6 6-4.4 2.6-9.1 3.4-14.1 3.9s-10.1-.4-15-1.3c-4.7-.9-12.1-1.2-15.7-4.6z" fill="#fe9d9d"/><path d="M284.3 307.7c-3.9 3-13.5.2-17.9-.5-6.2-1-12.6-1.3-18.8-2.5s-12.3-3.1-18.5-4.5c-5.6-1.3-10.6-3.6-16-5.3.1-1 7.1 0 8.2-.2 3.3-.5 6.4-1.6 9.7-2.1 3.7-.6 7.5-.2 11 1 3.2 1.1 5.8 2.8 9.3 3.1 3.1.2 6.1-.5 9.2 0 3 .6 5.8 1.6 8.4 3.2 2.6 1.5 4.9 3.5 7.4 5 1.4.8 2.9 1.5 4.4 1.9 1.2.3 2.9 0 3.6.9z" fill="#df8384"/><path class="K" d="M230.9 311.7c5.3 2 10.9 3.4 16.5 4.3 2.4.4 4.8 1 7.3 1.2 1.2.1 6-.5 6.9.4-9.9 4.4-24.7 5.1-30.7-5.9z"/><path class="Aq" d="M218.6 192.1c-1.6.1-3-1.2-3.1-2.8-.1-1.4.9-2.7 2.3-3 4.3-1 5.1 5.7.8 5.8zm88.3 15.9c0 4.2-6.5 3.7-5.9-.5.6-3.5 5.9-3.1 5.9.5z"/></svg>