<svg width="500" height="500" viewBox="0 0 500 500" fill="none" xmlns="http://www.w3.org/2000/svg"><ellipse cx="250" cy="292" rx="195" ry="199" fill="#FECA01"/><path d="M405 137c-1-19-5-37-22-49 9 4 17 11 21 20-3-11-10-19-20-25-2-1-2-2-2-5l1-9c-1-10-7-17-15-22-4-3-9-4-13-5l-29-5c-9-1-18-3-27-8l-5-4c4 6 11 9 17 11-15-2-28-8-38-20 4 7 9 12 15 16-7-1-14-3-20-7-8-6-17-10-27-12l-18 1c5 0 11 1 17 4-19 0-36 3-50 14l7-2 1 1c-27 6-39 25-45 49l5-9c-2 10-6 19-13 27-8 8-13 19-15 31 2-2 1-5 4-7l-1 17-1 7 4 26c0 2 0 5 2 6l1-2c1-2 2 0 2 0h1c4-1 7-4 12-4l1-1v-1l1-24c1-11 4-22 9-32v3l1 1 3-2c5-4 9-9 12-15l7-10 6-6c0 1-2 2-1 4 1 1 3-1 3-1 6-4 13-7 20-9l21-5c6-1 11-1 16-5h1l-10 5s-2 1-1 2l2 1c7-2 15-4 20-10a5 5 0 0 1 5-2l8 2c-2 0-4 0-6 3 15 1 27 10 39 15l-3-1c-1-1-2-2-3-1-1 2 0 2 1 3 4 3 8 4 13 5 6 1 7 3 7 9l-5 14-5 10c-1 3-1 5 1 7l2-6-1 2v2c0 12-1 24-5 36-2 5 1 11 6 14l1 1a1 1 0 0 0 0-1h1l-1-4 3 4 1 1c4 0 9-2 13-1-2 2-4 2-6 2-2 1-5 0-6 2v15a1 1 0 0 0 2 1v-1l-2 3c-1 1-2 2-1 4l1 1c1 2 0 4-1 6l-2 4 1 3h1c-3 8 0 17-2 25-1 2 1 2 2 1-3 5-2 6 2 7 2 1 4 0 6-1h2v-1h1l1-1 1-2v-1l4-15 1-4c2-7 5-14 5-21a8 8 0 0 1 3-6c2-2 5-3 8-3 2-1 4-2 5 0s0 2-1 4l-1 2h3l6-4c5-2 7-1 7 4 1 5 0 9-1 13l-1 3v1l1 1h1l2-2 18-30 1-1 1-2c1-4 5-8 4-13 3-12 3-24 2-36Zm-76 56v1-1Zm0 1-1 3 1-2v-1Zm-9-21v-4 4Z" fill="#9C9EA1"/><path d="M331 315c2 8 3 15 3 23 0 7-2 14-4 21-6 18-13 35-21 52-10 25-17 51-26 77-16 6-44 4-59 2-24-4-44-10-65-22l4-25 12-56v-13c0-6 1-12 3-17l7-17 1-1c3-3 4-7 6-10 1-2 2 0 2 1v1l1-1a4 4 0 0 1 5 2v1l2 11 2 9c1 8 3 16 3 25h-1c-3 3-6 3-9-1l-8-10-5-4c-3-1-4 0-5 3v8l1-2c2-2 4-3 6-2l6 5c3 3 6 6 10 7 9 1 15 5 19 12l2 4v2l4 12v5h1v-1c1-5 3-11 6-16a1 1 0 0 1 1 0c5 0 10 2 14 5 2 1 1 3 0 4l-10 9-5 4 20-13 9-4c4-2 8-1 11 3 5 4 9 8 13 14l-7-14-5-9c-2-4-5-5-9-5h-7c0-2 2-3 4-3 7-4 14-9 20-15h1l1-2a2 2 0 0 1 2 0v1c1 2-1 3-2 4l-9 9c-1 1-2 2 0 4s3 1 5-1c9-11 17-22 25-35h-2v-2c6-8 9-18 10-28l2-19 1-10c0-2 0-3 2-3 4 4 7 8 9 13l3 7v1Z" fill="#B1C1C6"/><path d="m407 357 20 6 4 3a198 198 0 0 1-149 123l12-39c8-26 20-50 30-76 4-11 8-22 9-34 0-8 0-15-2-23l-1-3h1c4 2 6 5 8 8l13 16c3 6 10 8 16 10l39 9ZM186 340v-1h-3l-57 14c-14 3-27 7-37 18-5 5-8 10-11 15 10 21 23 36 36 49 13 12 29 25 45 33l1-5 10-48c3-13 7-27 6-41-1-7 2-14 4-20 2-5 5-9 6-14Z" fill="#B79E94"/><path d="M437 349c-1 6-3 12-6 17-15-6-30-9-46-13l-21-6c-5-1-10-4-13-8-5-9-13-16-20-24l-1-1c-3-7-6-14-11-20-1-9-2-17 5-24 3-4 4-9 8-13h1l2 1c4 4 7 4 11 1 7-4 11-10 16-15 6-7 10-15 14-23h1l13-21 8-14v2c-1 22-4 44-10 65-5 18-17 32-32 42-4 2-4 4-1 7l19 25c1 2 2 4 5 5l57 17h1Z" fill="#F4A31E"/><path d="m168 352-27 36v5l3 7c1 2 1 4-2 5l-22 8c-2 1-3 2-3 4l-2 19-5-6v-16a4 4 0 0 1 2-3l3-2 17-7h2c3-2 3-3 1-7s-1-8 3-11l25-30 2-2 3-3c3 1 1 2 0 3Z" fill="#D5C6C0"/><path d="m168 349-1 2-9 11-22 25c-2 2-1 4 0 6 3 8 3 8-5 11l-16 6c-2 1-4 2-4 5l-1 15-2-2 2-17 1-1 21-8c2-1 3-1 1-3l-4-4c-3-3-3-5 0-8 12-14 25-27 39-38Z" fill="#83726B"/><path d="m344 415 12 16c2 2 2 4 1 7l-9 23-2 3a5 5 0 0 1-4 2l11-27c1-3 1-5-1-8l-15-19c-1-2-1-2 1-3l16-3c3 0 4-2 4-5l-1-42 1-3 1 17 1 4 1 25c1 5 0 6-5 7l-10 2c-3 1-3 2-2 4Z" fill="#D5C6C0"/><path d="M363 408a4 4 0 0 1-3 2l-11 3c-1 0-3 0-3 2l11 16c1 1 3 2 3 4v3l-10 24-4 2 10-27a4 4 0 0 0 0-5l-13-17c-3-3-2-4 1-4l12-3c5-1 5-1 4-6l-1-29h1v1l3 20 1 11-1 3Z" fill="#B8ADA9"/><path d="m323 390-31 95-3 1 33-97 1 1Z" fill="#D4C4BE"/><path d="m118 381-7 16-9 25-2-3c3-14 8-27 18-38Z" fill="#83726A"/><path d="m245 431-18 57h-2a3 3 0 0 1 0-3l19-53 1-1Z" fill="#828F94"/><path d="m361 438-8 19-1 3-2 2c-1-3 2-6 3-8l7-19c3-1 2 1 1 3Z" fill="#7F6E67"/><path d="M325 183c4 3 2 7 2 11l-2 4c3-2 3-5 5-8-1 5-3 9-6 13h2c1 2-1 2-1 3l4-1c-3 5-5 9-6 14 2-1 2-3 4-3-6 9-1 20-5 29 2 0 1-2 3-2l-1 3c-1 3-1 5 2 5 1 2 0 4-1 6-3 7-8 14-13 20-11 11-22 21-35 30-1 1-3 3-5 2s1-4 1-5c4-8 7-18 8-27-1 12-5 23-13 33-3 4-7 8-13 10-19 8-39 11-59 4a45 45 0 0 1-31-44l2 14v4c-2 1-3-1-3-3-5-7-8-14-11-22-1-8-2-16-1-24l1-24v-6c1-2 4-1 6-1 9 1 18 1 26-3 10-4 17-17 17-28 0-6 1-7 7-7v5l-10 25v3c2 1 3 0 4-2l7-24c1-2 1-5 3-7 3-1 5 0 8 1 2 1 3 2 3 4-1 7 0 14 4 20v2l-1 7c-1 1 1 1 2 1-1-3-2-5-1-8l4 2c12 10 26 11 41 9 11-1 15-10 17-21v-6c-1-3 1-4 3-4h5l22-4h5Zm-170-13c-2-6-1-13-1-20 2-16 7-32 15-46l-4 14c7-4 12-10 15-17 5-12 15-18 26-23-5 3-10 5-13 10 14-11 32-12 48-15 5-2 11-2 15-6-3 4-8 6-13 9 8-2 16-4 22-11 0-1 1-3 3-2l14 5c-3 0-6-1-9 1 16 1 28 11 42 17l-10-2c4 3 10 5 15 6 6 1 7 1 7 7 0 7-3 12-6 18-2 4-6 9-5 16 1-3 1-6 4-9-2 6-2 11-1 17 0 7-1 14-4 21-2 8-1 14 5 19-1 2-2 2-3 2-7 1-15 3-23 3h-7c-5-7-9-11-17-11l-3-1c-6-6-14-9-23-10-2 0-5 0-6-2s2-4 3-6l11-7-12 7a19 19 0 0 0-8 14l-1 4c-2 2-5 4-7 8a2 2 0 0 1-2 1c-5-2-10-1-15-2-2-1-2-3-2-5 1-11-4-18-13-23l-4-2c4 2 8 5 11 9 2 4 1 6-3 6-9 0-16 2-24 5l-15 2-2-1Z" fill="#FDD0B1"/><path d="M342 227c1-7 4-13 4-20 1-8 6-10 12-11 2-1 5-2 7 0s-2 4-4 7l8-5c6-3 9-1 10 6l-2 12c-6 17-16 32-31 43-6 4-11 1-13-6a4 4 0 0 1 1-3c2 0 2-1 2-2l6-21Z" fill="#FABCA3"/><path d="M154 273c3 9 8 18 13 26l-2-11v-10c1 8 3 15 6 22 3 9 10 15 17 19 13 7 26 9 40 7l23-5c6-2 11-6 15-11 8-9 14-19 14-32l2-3c0 12-4 23-10 33 16-10 31-23 44-37 5-6 8-13 10-20 2 1 4 0 6-1 1 3 0 4-1 6-6 15-17 27-30 37s-26 21-40 29a82 82 0 0 1-62 9 72 72 0 0 1-46-53l1-5Z" fill="#D47E84"/><path d="M206 178c5 0 10 0 15 2l3-1c1-4 4-6 7-8l9-3h8l11 1 8 2 10 2c6 1 9 4 11 10a2 2 0 0 1-2 1l-1-1c-3-5-7-7-12-7l-7-1-3-1-4 2c-1-2-3-3-5-3h-14c-4 0-7 1-10 3-8 9-5 26 6 33 8 5 16 7 25 8h5c14 0 20-7 21-21v-6c0-1-1-3 1-4 3 0 7-1 10 2-3 1-6-1-7 1v8c-1 15-9 23-25 23-11 1-22-1-33-8-2-1-3-4-5-4-4-6-6-12-6-19 0-8-1-8-9-8a3 3 0 0 1-4 0c-6 1-6 1-6 6 0 13-7 28-25 31-7 2-15 2-22 0l-2 1a3 3 0 0 1-2-2c-10-4-14-12-14-22-1-3-1-5-5-5-1 0-2 0-2-2 0-1-1-3 1-3 6 0 7-6 10-9 3-4 8-4 13-6l18-2c4-1 8 0 12 1-2 2 1 1 1 1l6 1c2 0 3 2 4 3 3 3 6 5 10 4Z" fill="#917B6F"/><path d="m201 330 12 2c19 1 38-4 54-15 17-12 34-24 49-39 7-7 11-16 15-25l1-3h3-1v3l-1 4-12 18c-2 3-1 6-1 9l-1 10c-3 2-1 5-2 7v6c-2-1-2-3-2-4l1-16v-5c-12 13-26 22-40 33a88 88 0 0 1-45 19l-16 1h-1l-5-1-6-1-4-1-4-2h-1l-2-1-2-1h4l7 2Z" fill="#93454B"/><path d="M162 90c1-6 4-11 7-16 7-11 15-21 28-25l21-2c10-1 20-1 31 1h-17c-10 0-20 1-30 4-14 4-23 15-32 25l-8 13Z" fill="#D0D1D2"/><path d="M358 66c-13-10-29-13-45-16-16-4-32-10-46-19l19 7c14 5 29 9 44 11 11 2 21 8 28 17ZM254 56c-32 0-55 15-76 37l10-16c11-12 25-17 41-20l22-2c1 0 2-1 3 1Zm95 19c-8-7-18-7-27-8-16-1-31-5-44-16l-2-2-1-1c17 9 36 15 55 16 8 0 14 4 19 11Z" fill="#D0D1D3"/><path d="m298 188-10-1c-2-1-2-2-1-3l1-1h10l22-4a2 2 0 0 1 4 0l13-2c2 0 2 0 2 2 0 1 0 2-2 2l-12 2-27 5Z" fill="#877265"/><path d="M254 34c-30 0-59 0-83 22 10-12 24-20 39-23 15-2 29-2 44 1Zm82 124c-8-18-5-43 11-59-8 20-14 38-11 59Z" fill="#D0D1D3"/><path d="m333 257 1-4c2 7 7 9 13 4 9-7 15-15 21-24l9-17c1 2-2 3 0 5-7 17-18 31-33 41-5 1-8 0-11-5Z" fill="#C77978"/><path d="M330 81c-20 0-38-8-53-21 16 9 35 15 53 21Zm30 36 8 20c4 12 1 23-6 34l-4 6 4-7c5-10 7-20 3-30-3-7-5-15-5-23Zm-207-3c-6 8-7 17-8 25v26c-6-13-5-41 8-51Z" fill="#D0D1D3"/><path d="M326 127c2-13 5-25 16-34-7 10-13 21-16 34Z" fill="#D1D2D3"/><path d="M334 251a1 1 0 0 1 0-1l7-22 1-1c-1 8-4 15-6 23l-2 1Z" fill="#D47E84"/><path d="M324 179h-4c0-4-1-8 1-12-2 5 0 8 3 12Z" fill="#E9C8AF"/><path d="M201 330c-4 1-7-3-11-2-14-6-22-17-30-29-8-14-10-29-10-44l2-38a3 3 0 0 1 2 2l-2 42 2 12c0 10 5 19 10 27 8 14 19 25 36 29l1 1Z" fill="#91434C"/><path d="M214 334a1 1 0 0 1 1 0c10 4 20 8 31 8 7 0 14-2 20-5 7-3 13-7 21-9l3-1c7-2 10 1 10 7 0 12-3 23-10 33l-7 10c-6 6-13 11-20 14l-4 3c-3 4-8 5-12 6h-9c-1-1-3-1-4 1l-6 17c-2-3-2-6-1-8 1-5-1-10-1-14-1-10-7-16-13-22-3-3-5-8-6-12l-6-25c0-1-2-4 1-5l7 2c3 4 3 10 5 15v3h1-1c-1-6-3-12 0-18Z" fill="#FDD0B1"/><path d="M283 377c1-4 4-6 6-9 7-10 10-22 10-34 0-6-3-8-9-6l-21 9c-16 9-32 7-47 1-3-1-6-1-7-4 16 0 32-2 46-11 10-5 18-12 27-19 10-7 21-15 30-24l-1 18v9c-1 11-2 23-5 34-1 6-5 10-8 15-3 7-9 11-14 16 0 1-1 3-3 2l-4 3Z" fill="#DE898D"/><path d="M234 401c0-3 2-3 3-3 8 3 15 0 22-4l3-1c5 0 10 0 14 5 6 10 11 20 15 31l-17-20c-3-4-7-5-12-3-8 3-15 8-21 13l-10 5 11-10 4-3c5-5 5-4-1-7-3-2-7-3-11-3Z" fill="#849197"/><path d="m202 332-1 2 8 33c2 5 6 8 10 12 6 5 7 13 9 20v20h-1l-2-8-2-10-2-7c-3-7-7-12-13-15a2 2 0 0 1-2-1l-7-46h3Z" fill="#E3898E"/><path d="M206 378a18 18 0 0 1 13 9c3 4 4 9 4 14-4-11-12-18-24-19-4 0-6-4-8-7-2-2-4-5-7-4-4 1-4 5-4 8v7c-2-7-4-14-2-21 0-3 2-4 4-3 7 2 11 7 15 13 3 4 4 5 9 3Z" fill="#839096"/><path d="m287 375 17-19c3-1 5-4 7-7 0 3-2 5-3 7l-28 38c-2 3-4-1-5-2-3 0-2-2-1-3l10-11c1-1 3-2 3-4v1Z" fill="#D1DBDE"/><path d="m195 482 8-23 16-42c1 2 0 3-1 4l-20 58c0 2-1 3-3 3Z" fill="#818E93"/><path d="M194 330a1 1 0 0 1 1 0l-4 26-1 6-2-1c-6-2-5-5-3-10l9-21Z" fill="#D1DBDD"/><path d="M232 437c0 4-2 6-6 5-3 0-5-2-5-5 0-4 2-6 6-6 3 0 5 2 5 6Z" fill="#9A9D9F"/><path d="m256 432 36 4c-13 3-25 2-36-4Z" fill="#828F95"/><path d="M203 420c-10-9-17-22-18-36 4 13 10 25 18 36Z" fill="#818E93"/><path d="M346 415c-2-2 0-2 1-2l12-3c4 0 4-3 4-6l-3-31c2 4 2 10 3 15l3 17c0 2 0 4-3 4l-13 4-4 2Z" fill="#86756D"/><path d="M176 277h-1c2-7 3-15 11-18 4-3 8-4 13-3l14 1c12 3 22 10 30 20 0 2-1 0-2 0-14-9-31-14-48-14-6 0-10 3-13 9l-4 5Z" fill="#E37B7E"/><path d="M176 277c3-4 4-10 9-13 3-2 7-3 12-2s11 0 17 2c10 4 20 6 29 13l2 1 1 3c-8-7-18-9-27-11-10-3-21-4-32-3-3 0-5 2-7 5-1 2-1 4-4 5Z" fill="#F3898E"/><path d="M201 231c6 3 8 2 11-1 4 2 8 1 11 2 8 4 12 3 12-8 2 3 2 7 1 9-2 3-5 4-8 4l-9-1a5 5 0 0 0-4 1l-2 1c-8 1-15-3-23-3-4-1-3-6-2-10v4c1 3 4 4 6 2h7Z" fill="#DE9086"/><path d="M254 302a90 90 0 0 0-70-6c1-3 6-6 13-7 11-1 22-1 33 2 9 1 16 7 24 11Z" fill="#DD8F85"/><path d="M209 181h4l-9 30c-1 2-1 5-5 4h-2l6-18 6-16Z" fill="#FEE8D9"/><path d="M260 281c5-4 4-8 2-12l-7-16-1-4c4 9 11 16 11 26 0 3 0 4-5 6Z" fill="#DC8B83"/><path d="M223 232c-5 2-9 1-11-2 3-4 7-2 10-1 2 0 2 1 1 3Z" fill="#C0656A"/><path d="M171 264c2-7 4-13 8-19l-8 19Z" fill="#E8A091"/><path d="M203 219a3 3 0 0 1-3 3c-2 0-4-1-4-3 0-1 1-2 3-2a4 4 0 0 1 4 2Z" fill="#FEE7D9"/><path d="M228 208c1 3 0 6 3 9l-6-2 3-7Z" fill="#DE9186"/><path d="M201 231h-7c-2-1-2-2 1-3s4 2 6 3Z" fill="#BF6369"/><path d="M257 289c-4 0-8-1-10-5l10 5Z" fill="#E49A8C"/><path d="M294 139c-11-9-22-12-36-10h-14c-1 0-3 1-3-1l1-3 5-2c9-3 19-4 28-3 12 1 17 6 19 19Z" fill="#797D7F"/><path d="m185 169-12-1c7-4 14-5 22-5l4-1c1-1-1-2-2-4-3-5-8-7-13-11 12 2 22 13 22 24v7c-3 3-6 2-8-2l-6-5c-3 0-5 0-7-2Z" fill="#E79693"/><path d="M248 169c-5 1-11 0-17 2-1-10 4-17 13-21l12-5-12 8-1 1c-2 2-4 4-4 6l6 1c8 2 16 3 22 10l-8-2h-11Z" fill="#E69593"/><path d="M163 138c2-10 4-13 14-14 4-1 9 0 13 1l4 2c1 1 2 2 1 3l-3 1-15 1c-5 0-8 2-14 6Z" fill="#797C7F"/><path d="M186 107c5-3 11-2 17 0 14 4 28 3 43 0 11-3 22-4 33-1l5 3-10-3c-11-2-22 1-33 3-13 3-27 3-40-1-5-2-10-2-15-1Zm102-5-6-1c-12-6-26-5-39-3-8 2-16 5-25 6-5 0-9-1-13-4 3 1 7 3 11 3 7 0 14-3 21-5 16-3 32-4 48 2l3 2Zm-13-12-14-3c-8-1-15 1-21 4-9 3-17 3-27 0 4-1 6 0 7 1 7 1 13 0 19-3 11-4 22-6 33-1l3 2Z" fill="#E2968A"/><path d="M251 114c11-3 22-5 33 0-5-2-11-1-16-1l-17 1Z" fill="#E3988B"/><path d="M202 116c-7-2-15-3-23-2 8-3 16-2 23 2Z" fill="#E49A8D"/><path d="M288 102c3 0 5 1 6 3l-6-3Z" fill="#E2968A"/><path d="m361 217 3-8c2 13 0 16-12 17a23 23 0 0 0 5-17c4 1 3 5 4 8Z" fill="#DD9086"/><path d="m287 184 1 3c1 6 1 12-1 18-3 7-8 12-15 12-12 2-23 1-34-5-13-7-15-19-12-32a7 7 0 0 1 3-5c3 1 2 3 2 5 2-2 3-5 7-6 3 0 6 3 10 3 4 1 8 2 13 1l3-1c2 1 3-1 2-3l13 2c4 1 6 5 8 8Zm-133-10 15-3c0 2-2 4 0 5 5 3 11 2 17 2l3 1c3 0 5-3 8 0a14 14 0 0 1 3 13c-3 16-13 24-29 25h-12c-3-1-5-2-4-6-2-1-1-4-1-6v-23c-1-3-2-6 0-8Z" fill="#F4BEA1"/><path d="M152 214c-5-2-8-5-10-10-2-4-2-10-3-15 0-2 1-2 3-3l4-1c2 0 3 1 3 2 2 6 4 11 4 17 0 4 1 7-1 10Z" fill="#F7B918"/><path d="M152 204c-1-7-2-13-5-19l-2-4a2 2 0 0 1-2-3c3-3 7-4 11-4v26c0 1 1 3-2 4Z" fill="#909194"/><path d="M189 179c-6 1-11 0-17-1-2 0-4 0-4-2 1-3 3-4 6-5 3 0 6 0 8 3 2 0 4 0 4 2s2 1 3 2v1Z" fill="#72412E"/><path d="M261 179c-4 1-9 0-13-1l-2-1c-1-3 2-3 3-5h2c1 1 0 2 2 2l1-2c3 0 5 0 5 4-1 1 0 1 1 1a2 2 0 0 1 1 2Z" fill="#77432E"/><path d="M152 204c2-5 1-10 1-15l1-8 1 30-1 3c0 2-1 0-2 0v-10Z" fill="#874048"/><path d="m189 178-4 1c2-4-1-4-2-5 0-2 1-2 2-1l8 3c-1 2-3 1-4 2Z" fill="#E8E5E3"/><path d="m238 174-7 7c-2-2 0-4-2-6 3-2 6-3 10-2v1h-1Z" fill="#D38987"/><path d="M239 173c3-2 7-1 10-1a2 2 0 0 1-2 3l-1 2a7 7 0 0 1-7-4Z" fill="#EAE8E7"/><path d="M260 178c-2 0-1-1-1-2 1-2 1-4 4-3 1 1 4 2 3 3 0 2-3 2-5 2h-1Z" fill="#EAE8E8"/><path d="m174 171-6 5c-4-2 0-3 1-5h5Z" fill="#D78B89"/><path d="m260 178 6-1-3-4 3 1 2 3-7 2-1-1Z" fill="#332B2B"/><path d="M254 172v3a2 2 0 0 1-2 1c-2-1-1-3-1-4h3Z" fill="#211A1B"/><path d="m185 169 7 2c-3 1-6-1-8-1v-1h1Z" fill="#68524F"/><path d="m143 178 2 3a4 4 0 0 1-4 1 4 4 0 0 1 2-4Z" fill="#E2B228"/><path d="M214 334v19l-5-19h5Z" fill="#DF898D"/><path d="M242 193c11 8 22 9 35 3-7 7-26 9-35-3Z" fill="#C9817A"/><path d="M239 173c2 3 5 3 7 4l2 1c-4 0-7-2-10-4l1-1Z" fill="#917B6F"/><path d="m164 193 14 5 14-2a21 21 0 0 1-28-3Z" fill="#CB847C"/><path d="M179 173a2 2 0 0 1 2 1 2 2 0 0 1-2 3l-2-2a2 2 0 0 1 2-2Z" fill="#261B1A"/></svg>