<svg width="500" height="500" viewBox="0 0 500 500" fill="none" xmlns="http://www.w3.org/2000/svg"><ellipse cx="250.5" cy="295" rx="194.5" ry="195" fill="#FECA01"/><path d="M255 490A196 196 0 0 1 73 376c16-7 34-13 50-21 19-10 35-25 48-42 2 1 4 7 5 9 12 19 106 141 79 168Z" fill="#AFA7A9"/><path d="m370 447-12-9c-4-2-8-6-12-7l-13-4-6-2c-2 0-3-2-4-3l-3-7c-1-2-3-8-5-9s-8 5-9 6c-5 4-12 2-17 3-12 4-16 17-19 28-2-3-6-9-9-11-9 2-18 3-26 8l21 38c1 2 2 10 5 11 9 0 19-1 28-3l4-1c28-6 55-19 77-37v-1Z" fill="#AFA7A9"/><path d="M430 368c-3 9-7 17-12 25-2 1-7-6-8-7l-12-6-24-11-6-3-9-3c-5-2-10-1-16-2l-19-5-12-1-3-9 4-16 6-9c6-9 13-17 17-27l4-10c1-2 2-8 4-9l7-2c2-1 3-8 4-10l6-16c4-6 8-12 9-19 1-3 2-6 1-9l-2-3-3-3 6-14c3 16 6 32 5 48-1 9-4 14-8 22-3 7-2 15-3 22-4 15-13 28-22 40l-3 3c0 2 1 2 3 2l12 4 23 5 26 10 13 7 12 6Z" fill="#F5A200"/><path d="M418 393c-5 9-11 17-17 24-5-8-14-15-17-25l-4-14-6-9c17 5 32 11 44 24Z" fill="#AFA7A9"/><path d="m261 489-2 1c-3-1-4-7-5-9l-3-8-5-11c-1-2-1-5-3-7l-2-5v-2h1c8 13 14 27 19 41Zm32-4-4 1-7-19c-3-6-7-12-8-19v-1c7 12 14 25 19 38Z" fill="#807C7D"/><path d="M259 490h-4l-6-22c1 0 8 21 10 22Z" fill="#CECACA"/><path d="m352 243 7-25c6-24 21-86 8-103l-46-48-125 8c-20 48-29 83-29 136-4 28 4 65 25 86 25-17 50-21 59-18 7 0 12-1 18 1 19 9 30 15 34 36 1 2 3 1 4 0 3-1 10-8 12-10 15-17 23-42 33-63Z" fill="#FEC7AF"/><path d="M171 245c3 9 9 16 14 24l5 11c1 4 3 8 2 12l2-7 4-6c3-4 9-6 14-7l19-2c5 0 12 0 16 4 4 6 11 1 17 2 7 1 14 5 20 8 6 2 13 5 17 10 2 3 2 6 2 9 1 4 2 8 1 12 12-8 21-23 28-34 8-13 15-27 20-41l1 1c1 2-2 6-2 8l-3 9-7 18c-4 11-9 23-15 33s-13 20-22 28-18 17-29 22c-20 12-47 8-67-3-10-6-17-15-24-24-7-10-13-21-17-32-5-13-5-27-6-41v-34c0-2-2-7 0-9h2l3 17 3 7 2 5Z" fill="#987769"/><path d="M366 213c12 5 2 23-2 30-4 5-6 11-7 18-1 5-3 13-10 14l-3 1-2 4-4 10-10 20-11 16c-4 5-6 13-6 20-2 0-1-1-1-2l-3 7c0-6 2-11 3-16-11 9-21 19-33 26s-25 8-38 7-25-6-36-13c-5-3-10-8-13-13-5-5-11-11-13-17-7-13-14-26-16-41l-2-23v-11c0-2 1-9-1-10l-3-1-4-2-2-5c-1-7 2-13 1-20 0-10-8-32 5-38v3c-6 6-4 15-3 23l1 12c1 4-1 8-1 12-1 4-1 8 1 11 2 2 4 2 5 0v-6l1-7c0-2-3-10-1-12l2 6v36c1 12 1 25 4 38 5 21 17 43 33 58 17 15 45 22 67 16 11-3 20-10 28-17 19-15 34-35 44-57l7-19 3-9s3-7 4-4l-4 11c-1 4 1 3 4 1 4-5 4-13 6-19 2-7 7-12 10-19 1-3 3-7 2-11 0-3-1-1-3-4l1-4Z" fill="#CB7075"/><path d="M163 216c0-18 3-36 8-53 3-17 10-33 20-47-9 21-16 43-20 65-5 21-5 44 0 65-2-3-9-23-8-30Z" fill="#FEE9DF"/><path d="M348 260c-7 35-26 66-55 87-9 7-17 15-28 18-21 6-46 0-63-12-16-15-29-33-36-54-5-13-5-26-6-40v-43h1v36c1 12 0 24 3 35 4 22 17 43 32 58s39 22 60 20c11-1 20-6 29-13l26-23c17-20 27-44 35-69h2Z" fill="#7D5352"/><path d="M365 216c8 2 2 15 0 20l-7 11-4 14c0 3-1 9-5 11h-4l2-6c2-4 2-8 5-12l5-16-1 2c-2-1 8-22 9-24Zm-206 19c0 6-7 1-8-2-1-6 2-14 2-20l-2-21c-1-4-1-13 4-15l2 21 1 16c-2 2-5-8-5-10l3 13 3 8v11-1Z" fill="#FEC7B0"/><path d="m159 236-1-7-1-9c-2-5-4-10-4-16l3 9 1-13 1 7v5l1 9v15Z" fill="#EA9590"/><path d="m357 236-1 4 1-2-3 11 6-8c-2 7-7 11-10 17-1-1-1 0-2 1-1-2 2-7 2-8 1-2 2-8 4-9l3-6Z" fill="#E9948F"/><path d="M354 242c-1 2-5 16-7 16l5-17 2 1Z" fill="#7E5452"/><path d="M219 84v1l-1 3 1-4Z" fill="#5E524C"/><path d="m203 30 1-1-1 1Z" fill="#97928F"/><path d="M164 322c2 1-2 11-3 13l-2 15a190 190 0 0 0 18 80l3 8c1 2 3 5 3 8-12-19-20-39-25-61l-3-30c0-11 5-21 8-32l1-1Z" fill="#807B7D"/><path d="m300 344 11-11-4 17c0 5-2 10-4 14-3 10-5 28-13 36-4 6-12 10-17 17-2 4-5 20-7 21l-5-6-5-1h-8l-6-2-17-11-26-24-6-8c-5-8-10-14-13-23 2 0 7 7 8 8l9 8-10-15-9-15c0-6 7-9 12-7 13 17 36 26 57 26 12 0 24-1 36-5l7-3c2 1 2 5 1 6l-5 19c1-7 5-17 8-23 2-7 2-12 6-18Z" fill="#FEC8B0"/><path d="M236 425c3 2 7 5 11 5h8l6 2c-7 2-13 3-19 6 7 9 15 16 23 24-6-2-11-7-15-11l-15-11 6 10 4 8c0 1 3 8 2 9l-5-9-5-10c-3-7-5-12-13-13-7-2-13 6-17 10-5 5-9 11-15 15 5-10 11-19 18-29 2-4 6-9 11-10s10 2 15 4Z" fill="#807B7C"/><path d="m207 403 9 11c1 2 3 3 2 5-4 2-6 4-9 1l-25-41c-1-2-6-8-5-12 11 11 19 24 28 36Z" fill="#CFCACB"/><path d="m178 349 20 31c-7-5-13-11-18-17-2-5-2-9-2-14Z" fill="#EA9590"/><path d="M235 466c-15 5-30 5-44 1l44-1Z" fill="#807C7D"/><path d="M190 342c-5-1-11 1-12 6l-1-12v-11l13 17Z" fill="#EA9590"/><path d="m247 467-3-12 5 13c1 4 4 8 4 12l-4-9-2-4Z" fill="#B3B0B0"/><path d="M266 438c1-8 2-16 7-22s13-10 17-16l4-10 5-14 8-25 1-4c2 2-1 11-2 13l-4 14-6 28-2 6c0 3-1 3-3 4-3 0-6 2-9 4-6 5-7 13-10 20l-2 7-4-5Z" fill="#EA9590"/><path d="M267 475c0-9 13-8 12 0 0 9-13 8-12-1v1Z" fill="#858182"/><path d="M291 458c11-12 21-25 25-41 1 7-3 17-7 22-5 8-11 14-18 19Z" fill="#807C7D"/><path d="M291 451c7-7 13-16 19-24-5 9-10 17-19 24Z" fill="#CEC9CA"/><path d="m293 411 16-67c1 3 2 7 5 9l10 3 20 5c56 16-4 76-51 50Z" fill="#AFA7A9"/><path d="M404 414c-9 12-24 25-35 35l-10-10c-4-2-7-6-12-7l-13-3c-4-1-8-3-11-6-15-8-11-42-1-51 4-7 12-11 20-13 12-3 20 2 31 7 6 2 7 8 9 13l4 10c0 4 2 6 4 9l7 10 7 6Z" fill="#424242"/><path d="m357 395-2 1-1 2-4 4-12 10 1-2-1 1-1 2h-2l-3 3c-3 1-1 0-3-1 0 1-1 4-2 3l-1-3-1 4c-2-1-2-3-2-5l-1 1c-2-2-3-4-1-7-2 0-2 1-2 2-1-3-3-6-1-9l-2 1c-1-2 3-6 3-8l-3 5c-1-5 1-8 2-12l1-5 4-5c1-3 4-7 7-8l1 1 3-2c2-1 2-3 5-4v2l4-2h13l-2 2 5-1 4 1v1l-3 1c2 1 3-1 5-1l4 3-3 2 5-1c0 2-4 3-5 4h3c0 2-2 2-3 3l2 1-3 4-1 1v2l-3 1h2l-5 6-2 1 1 1Z" fill="#7A7A7A"/><path d="M348 429c-2 1-12 0-13-2-1-3 5-8 6-4 1-4 8-7 11-10l5-4 2-3 2-1 1-2 2-2 6-8 2-3 1-2 3-4c-1-1 0-5 2-5s0 2 0 3c1 2 3 1 0 3l3 1-2 2c1 1 5 2 1 3 3 1 3 2 1 4 3 0 0 5-2 4v1c1 2 0 2-2 4-1 2-1 3-3 3l-1 1c1 1 0 2-1 3l-4 5-3 2-5 4-1 1s-7 8-7 4c-1 1-1 4-4 3v-2 1Z" fill="#515151"/><path d="M374 376c-2 12-11 23-20 32-7 6-14 11-22 15-5 2-6 1-9-2 22-5 40-26 51-46v1Z" fill="#DFDBDC"/><path d="M350 431c14-8 26-20 35-34l3 6-4 7-11 12-11 11-6 2c-2 0-4-3-6-4Z" fill="#989495"/><path d="M313 399c-1-15-4-30-2-45l7 24c-3 7-4 10-5 21Z" fill="#CECACB"/><path d="M357 395c-4 0 0-3 1-2l-1 2Z" fill="#040404"/><path d="m338 411 1-2-1 3v-1Z" fill="#060606"/><path d="M348 429c-1-3 2-3 0 0Z" fill="#040404"/><path d="M359 423c-1-1 1-3 1-1l-1 1Z" fill="#070707"/><path d="M373 408c0-1 0-2 1-1s0 1-1 1Z" fill="#030303"/><path d="m371 444-2-2 2 2Z" fill="#989596"/><path d="M244 455h-1l-2-5 3 5Z" fill="#A3A0A1"/><path d="M183 166c3-4 10-7 14-8h19l18 5c5 1 12 3 15 9 1 1 3 5 2 6-1 2-6 0-8-1l-20-5c-12-3-26-8-40-6Zm161 34c-11-7-25-7-37-8l-19-3c-3 0-7 1-7-2 0-2 3-5 4-6 5-3 12-2 17-2 7 0 13 1 19 3 6 1 11 3 15 6 2 2 8 8 8 12Z" fill="#483F39"/><path d="M225 184c6 1 12 1 17 4l-4-9c7 2 12 9 12 16 0 8-1 16-3 23l-1-6-2-6c-2-3-6-8-9-8-1-1 1-2 1-3-1-2-2-5-5-6l-6-5Zm62 25c-7 3-11 8-14 15 2-8 3-17 6-25 3-6 10-7 17-7l-7 4c6 0 11 3 16 5l-6 1-8 1c-2 0-5 1-5 3-1 2 1 1 1 3Zm-40 65c-1-3-3-6-6-7l-9-4c-7-5-6-12-1-18-1 4-3 8-1 13 1 1 7 8 9 5 2-1 5 1 7 1 2 3 5 6 9 6 3 0 7-2 9-4l7-2c8 0 7-8 6-13 5 7 1 16-6 18l-12 5c-4 2-7 2-12 0Z" fill="#EA9590"/><path d="M225 184c4 3 11 6 11 11v1c-4-6-8-8-15-10l-10-2c-2 0-8 0-9 2s3 4 4 5c3 2 6 4 10 4l9 2 7 1c-12 1-23-1-32-10-1-1-2-2-1-3 1-2 6-3 8-3 6-1 12 0 18 2Z" fill="#20191A"/><path d="m264 204-6 43-4-2 9-42c1 0 1 0 0 0l1 1Z" fill="#FEE9DE"/><path d="M289 203c13-5 27 0 35 11-12 5-23 3-34-3h1l8 2 8 2c2 1 14 1 13-3l-5-4-8-4h-17l-1-1Z" fill="#20191A"/><path d="M229 208c-13 4-26 0-32-9 9 8 20 10 32 9Zm60 11c10 5 21 8 32 3-8 6-21 5-32-3Z" fill="#EA9590"/><path d="M246 264c-1 1-11-1-8-4 2-2 7 3 8 4Z" fill="#C26B71"/><path d="M252 252c0-5 6-2 5 1-1 2-5 2-5-1Z" fill="#FEE9DE"/><path d="M275 247c-3-1-3 1-4-3v-9c2 4 1 9 4 12Z" fill="#EB9791"/><path d="M271 264c0 2-5 3-7 2 1-1 6-5 7-2Z" fill="#C26B71"/><path d="M291 211h-1l-4-2-1-1h1c2 0 3 1 5 3Z" fill="#3D3433"/><path d="M232 198c-2-1-5 1-6-1h9v1h-3Z" fill="#3C2E2D"/><path d="m264 204-1-1 1-3-1 4h1Z" fill="#FEDBCC"/><path d="M206 293c3-2 7-2 10-2l15-3c3 0 7-1 11 1s7 5 12 5c4-1 8-2 12-1l13 6c7 4 14 8 13 17 0 7-2 16-8 21s-14 7-21 7l-11-4-12-5c-9-2-19 3-28 0-13-4-17-33-6-42Z" fill="#FEC8B0"/><path d="M347 258c2-1 2-5 3-6l-2 8-2 1 1-3Z" fill="#8B625C"/><path d="m302 342-16 43 4-24-18 6c-5 1-12 2-17 1 9-2 17-4 25-9l22-17Z" fill="#EA9590"/><path d="m197 390-2-3 2 3Z" fill="#BBAEAE"/><path d="m198 392-1-2 1 2Z" fill="#B9ACAC"/><path d="M331 372c-2 2-3 4-6 5 0-2 3-4 5-5h1Z" fill="#020202"/><path d="M321 385c0-2 2-5 5-6-1 3-3 5-5 6Z" fill="#030303"/><path d="M332 373c1-2 4-4 6-4-1 2-3 4-6 4Z" fill="#020202"/><path d="M318 392c0-2 2-4 4-6 0 3-2 5-4 6Zm27-26c-1 2-3 4-5 4 1-2 3-4 5-4Z" fill="#030303"/><path d="m333 375-5 5c1-3 3-4 5-5Z" fill="#040404"/><path d="m329 382-5 5c1-3 2-4 5-5Z" fill="#030303"/><path d="m353 364-6 4c1-3 3-4 6-4Z" fill="#040404"/><path d="m326 388-4 6c0-3 1-4 3-6h1Zm-3 7c0 2-2 4-4 6 1-3 2-5 4-6Zm18-22c1-2 3-3 5-3-1 2-3 3-5 3Zm-6 3s4-5 4-3c1 1-3 3-4 3Z" fill="#030303"/><path d="M331 382c0-2 2-3 4-4-1 2-2 4-4 4Z" fill="#050405"/><path d="M353 368c-2 2-3 3-5 3 1-2 2-3 5-3Zm-22 16c0 2-1 4-3 5 0-2 1-4 4-5h-1Zm-6 18c0 2-1 4-3 5 0-2 1-4 3-5Z" fill="#040404"/><path d="M343 376c1-2 3-3 5-3a6 6 0 0 1-5 3Zm-6 3 4-4a6 6 0 0 1-4 4Z" fill="#050505"/><path d="M337 381c0 2-2 3-4 4 1-2 2-4 4-4Z" fill="#060506"/><path d="M321 402c0 2-1 4-3 5 0-2 1-4 3-5Zm4 11c0-2 0-4 2-5l-2 5Z" fill="#050505"/><path d="M328 390c0 2-1 4-3 5 0-2 2-3 3-5Z" fill="#060606"/><path d="m328 414 2-5c0 2 0 4-2 5Z" fill="#0A0909"/><path d="m324 408-2 5c-1-1 0-3 2-5Z" fill="#0A0A0A"/><path d="M334 386c0 2-2 4-3 4l3-4Z" fill="#040404"/><path d="M339 382c0-2 2-3 4-4l-4 4Z" fill="#050505"/><path d="m359 371-5 2c1-2 3-2 5-2Z" fill="#030303"/><path d="M339 384c0 1-1 3-3 3 0-2 2-3 3-3Z" fill="#070707"/><path d="M359 367c-2 1-3 3-5 3 1-2 2-3 5-3Z" fill="#040404"/><path d="M360 376c2-2 3-3 5-2-1 1-3 2-5 1v1Z" fill="#0A0A0A"/><path d="m330 397-3 5c0-2 0-4 2-5h1Z" fill="#030303"/><path d="M354 375c-1 2-2 3-4 3 0-2 2-3 4-3Z" fill="#080808"/><path d="M323 401c0-2 1-4 3-5 0 2 0 3-3 5Z" fill="#040404"/><path d="M334 394c0 1-1 3-3 3 1-1 1-3 3-3Z" fill="#050505"/><path d="m332 392-4 4c0-2 2-3 3-4h1Zm21-20-4 2 4-2Z" fill="#070707"/><path d="M365 377c-1 1-2 2-4 1l4-1Z" fill="#060606"/><path d="m360 372 5-2c-2 2-3 3-5 2Z" fill="#080707"/><path d="m350 380-4 2 4-2Z" fill="#040404"/><path d="M328 403c0 2-1 3-3 4 0-2 2-3 3-4Z" fill="#050505"/><path d="M329 408c0-2 0-3 2-4 0 1 0 3-2 4Z" fill="#030303"/><path d="m335 406 2-4c1 2 0 3-2 4Zm13-29-3 2 3-2Z" fill="#060606"/><path d="m332 409 1-3c1 1 0 3-1 3Z" fill="#0A0A0A"/><path d="M341 384a5 5 0 0 1 3-3c0 2-1 3-3 3Z" fill="#070607"/><path d="m333 392 3-3-3 3Z" fill="#070707"/><path d="m349 387 3-2c0 1-1 3-3 2Z" fill="#050505"/><path d="m358 384-4 2c1-2 2-2 4-2Z" fill="#060606"/><path d="m344 388-3 3c0-1 0-2 3-3Z" fill="#050505"/><path d="m337 401 2-4c1 1-2 4-2 4Z" fill="#060606"/><path d="M335 411c-1-2 0-3 1-4 1 1 0 2-2 4h1Z" fill="#070707"/><path d="M336 394c0-2 1-3 3-3 0 1-1 3-3 3Z" fill="#090909"/><path d="m355 376 4-2-4 2Z" fill="#070707"/><path d="M343 400c0-2 1-2 2-3 0 2-1 3-2 3Z" fill="#080808"/><path d="M347 398c0-1 2-4 3-3 0 2-2 3-3 3Z" fill="#060606"/><path d="m356 379 4-2c-1 2-3 3-4 2Z" fill="#030303"/><path d="M355 378c-1 2-2 3-4 3 1-2 2-3 4-3Z" fill="#080808"/><path d="m348 393-3 2c0-1 1-2 3-2Z" fill="#090909"/><path d="M333 404c-1-1 2-4 2-4 1 1-1 3-2 4Z" fill="#080808"/><path d="m330 402 2-3c0 2-1 2-2 3Z" fill="#060606"/><path d="M349 394c0-2 1-3 3-3 0 2-1 2-3 3Z" fill="#040404"/><path d="M356 381c-1 2-2 2-3 2 0-1 1-2 3-2Z" fill="#0C0C0C"/><path d="m342 404 2-3-2 3Z" fill="#060606"/><path d="m357 382 4-2c-1 2-2 2-4 2Z" fill="#090808"/><path d="M346 384a4 4 0 0 1-3 3c0-2 1-3 3-3Zm16-1c-1 2-1 2-3 2l3-2Z" fill="#030303"/><path d="M332 414c-1-1 0-2 1-4 0 2 0 3-2 4h1Z" fill="#050505"/><path d="M334 399c0-2 1-3 2-3 0 1 0 2-2 3Z" fill="#0B0B0B"/><path d="m343 406-2 3c0-2 0-2 2-3Z" fill="#070707"/><path d="m352 398-3 2c1-2 2-2 3-2Z" fill="#080808"/><path d="M366 380c-1 1-2 2-4 1l4-1Z" fill="#070707"/><path d="m345 389 3-3c0 2-2 3-3 3Z" fill="#050404"/><path d="M347 403c0 2-1 3-2 3-1-2 0-2 2-3Z" fill="#070606"/><path d="m338 389 3-3c0 2-1 2-3 3Z" fill="#090909"/><path d="M341 393c0 2-1 2-3 3 0-2 1-2 3-3Z" fill="#060606"/><path d="m348 400-2 2c-1-2 2-3 2-3v1Z" fill="#030303"/><path d="M339 403c0-1 1-4 2-3s-1 2-2 3Zm4-8c1 1-2 3-2 2l2-2Z" fill="#080808"/><path d="M347 391c0-1 1-2 3-2-1 2-1 2-3 2Z" fill="#090909"/><path d="m351 383-3 2c0-2 1-3 3-2Z" fill="#080808"/><path d="M338 407c0-2 1-2 2-3 0 1 0 3-2 3Z" fill="#070707"/><path d="M361 389c-1 2-2 2-3 2 0-1 1-3 3-2Z" fill="#0A0A0A"/><path d="M351 390c1-2 2-2 3-2l-3 2Z" fill="#050505"/><path d="m343 393 2-2-2 2Z" fill="#0A0909"/><path d="M359 387c-1 1-2 2-3 1 0-1 2-2 3-1Z" fill="#050505"/><path d="M342 424c1 1 0 3-1 4-1-1 0-2 1-4Z" fill="#060606"/><path d="M373 393c-1 0-1-1 1-1s0 1-1 1Zm-30 31c0-1 0-3 2-4l-1 4h-1Z" fill="#050505"/><path d="M371 395h1c-1 3-5-1-1 0Z" fill="#060505"/><path d="m376 394 3-1-3 1Z" fill="#080808"/><path d="M377 387h-3l3-1v1Z" fill="#090909"/><path d="M347 424c0-2 2-2 1-1 0 1-1 3-1 1Z" fill="#070606"/><path d="m339 423-1 3c-1-1 0-2 1-3Z" fill="#020202"/><path d="M368 399c-2-1 0-1 1-2l-1 2Z" fill="#070606"/><path d="m376 395-2 1 2-1Z" fill="#070707"/><path d="M364 411h-2l2-1v1Z" fill="#050505"/><path d="M379 397c-3-1 1-2 1-1l-1 1Z" fill="#060606"/><path d="m350 426 1-2-1 2Z" fill="#040404"/><path d="M356 414c-2 0 0-2 0-2s2 2 0 2Z" fill="#080808"/><path d="M366 411c-2 0 0-2 0-2s2 2 0 2Z" fill="#090909"/><path d="m363 408 1-1c0-1 1 1-1 1Z" fill="#060606"/><path d="m360 411-2 1 2-1Z" fill="#050505"/><path d="m371 399 2-1c1 1-2 1-2 1Zm-5 3c-2-1 0-1 1-2 0 0 1 2-1 2Z" fill="#040404"/><path d="M359 416c-2 0 0-2 0-2v2Z" fill="#090909"/><path d="M350 420v2h-1l1-2Z" fill="#010101"/><path d="M362 418c-2 0 0-1 0-1s2 1 0 1Z" fill="#000"/><path d="M376 400c-2-1 0-1 0-2s2 1 0 1v1Z" fill="#020202"/><path d="M360 409c-2 0 0-2 0-2v2Z" fill="#010101"/><path d="M363 414c0 2-1 0-2 0s2-2 2 0Z" fill="#050505"/><path d="M353 414c0 2-1 1-1 1l1-1Z" fill="#020202"/><path d="M359 420c-2 0 0-2 0-2v2Z" fill="#090909"/><path d="M357 416c0 2-2 1-2 1l1-1h1Z" fill="#080708"/><path d="M365 405c-2-1 0-1 0-1s1 1-1 1h1Z" fill="#050505"/><path d="M369 410h1s-1 2-1 0Z" fill="#040304"/><path d="M371 408c-2-1 0-2 0-2v2Z" fill="#050505"/><path d="M354 422c0 2-2 1-2 1 1-1 1-2 2-1Z" fill="#030303"/><path d="M353 418c0 2-1 1-1 1l1-1Z" fill="#010101"/><path d="M366 413c1 2-1 1-1 1l1-1Z" fill="#0E0D0D"/><path d="M371 401h-2s2-2 2 0Z" fill="#060606"/><path d="M354 426c0 2-1 0-1 0 1 0 1-2 1 0Z" fill="#070707"/><path d="M376 404c0 2-1 1-2 1l2-1Z" fill="#0C0B0B"/><path d="M374 401c2 0 0 1 0 1s-2-1 0-1Z" fill="#040404"/><path d="M378 402h-2 2Zm-7 2h2s-1 2-2 0Z" fill="#070707"/><path d="M367 408c-2 0 0-2 0-2s2 2 0 2Z" fill="#010101"/><path d="m369 404-1 1s-1-2 1-2v1Z" fill="#070707"/><path d="M357 423c0 2-1 1-1 1 0-1 0-2 1-1Z" fill="#080808"/><path d="M235 197h-11l2-4 1-6c3 1 13 8 8 10Z" fill="#FDFDFD"/><path d="M291 211c-2-2-7-3-6-5 1-3 9-4 12-4-2 3 1 4 1 6v3l-2 2-6-2h1Z" fill="#FEFEFE"/><path d="m290 203-5 3c0-2 3-3 4-3h1Z" fill="#3D3333"/><path d="m285 206 1-1v4l-1-1v-2Z" fill="#463737"/><path d="M228 187a9 9 0 0 1-2 7l-2 3c-5 0-9-1-14-3l-1-3c0-2 2-2 2-3 1-2-2-3 0-5 5 0 12 2 17 4Z" fill="#6F113D"/><path d="M211 183c-1 3 1 3 1 6l-2 2c-1 1 0 2 1 3-3-1-9-5-9-8-1-2 7-3 9-3Z" fill="#FEFEFE"/><path d="m296 213-1-3c3 0 3-2 2-4l-2-1 2-3s14 1 16 4c3 3 0 9-4 10-5 0-9-2-13-3Z" fill="#6F113D"/><path d="M309 216c1-1 3-3 3-5l1-5s9 5 8 7c0 3-12 3-12 3Z" fill="#FEFEFE"/><path d="M231 312c-4-2-8-4-11-8l-3-4-4-5c1-1 6 2 7 2l9 3 18 4 19 3c6 1 12 2 18 1 1 1-7 5-8 6l-14 4c-5 1-11-1-15-2-5-1-13-1-16-4Z" fill="#FE9D9D"/><path d="M284 308c-4 3-13 0-18-1l-18-2-19-5-16-5h8l10-2c4-1 8-1 11 1l9 3h10c3 0 5 1 8 3l7 5 5 2 3 1Z" fill="#DF8384"/><path d="m231 312 16 4 8 1 7 1c-10 4-25 5-31-6Z" fill="#987769"/><path d="M219 192c-2 0-3-1-4-3l3-3c4-1 5 6 1 6Zm88 16c0 4-7 4-6 0s6-4 6 0Z" fill="#1F191A"/><path d="M272 436c2-11 8-25 21-25 2-1 4 1 6 1s3-2 4-3c2-2 7-11 10-10l1 8-10 7c-4 3-9 2-13 3-5 1-9 4-12 7-3 4-4 9-7 12Z" fill="#807B7D"/><path d="m394 154-2 9c0 4-2 10-4 14l-5 13c-1 1-5 9-6 8s2-9 3-10c-7 8-11 18-15 28l-8 21c-1 1-1 4-3 5-4 0 1-15 2-17l5-26c2-8 0-18-2-27-1-1-2-3-1-4l2-1v-2c0-2-2-9 1-6 1-8-1-16-3-24l-3-10c0-1-3-8-5-8-1 0-5 5-7 5l-8 4c-3 2-7 2-10 3-3 0-9 1-11-1 1-2 11-3 13-4 4-1 9-3 12-6-16 6-34 9-51 7-3-1-4-1-1-2l13-2c8-2 16-5 23-9h1l-5 2c-7 3-14 5-22 6l-16 1-9-1c-2 0-6 1-7-1 2-2 8-1 11-2l12-3c7-2 15-5 21-10-14 6-29 8-45 8-1 0-7 1-6-1l9-3 17-10c-8 0-16 0-24-2l-22-8c-6-2-13-1-17 5-5 7 0 12 4 19h-1c-3 1-7-6-8-9l-2-4-7 3c-3 2-7 5-9 9l-5 7c0 1-1 5-3 6v-1l1-7v1l-6 9-6 12-8 26-6 28-1 15c0 2 1 9-1 10v1l-2-1h-2l-1-4v-2l-2-14-1-19v-3l-1-24v-24c0-20-1-43 7-62 4-8 9-14 17-20l24-15-19 5c8-5 18-9 27-9h7c2 0 3-2 5-3 22-12 48-15 73-10 10 2 19 4 28 8s19 8 26 13c19 17 24 34 33 52 6 10 13 21 14 32 1 12 0 24-2 36Z" fill="#473F39"/><path d="M255 51c30 3 58 17 78 40l7 9c-22-26-52-43-85-49Z" fill="#6F615A"/><path d="M290 50c15 5 30 13 43 22 12 9 23 22 27 36l-5-8c-17-22-39-40-65-50Z" fill="#6F605A"/><path d="M219 58c-16 6-28 19-36 34 4-18 17-32 36-34Z" fill="#6F615A"/><path d="M219 84c1-7 6-17 15-17-8 4-12 10-15 18v-1Z" fill="#6E605A"/><path d="m290 50-1 1-9-4 9 3h1Z" fill="#635750"/></svg>