<svg xmlns="http://www.w3.org/2000/svg" viewBox="0 0 500 500"><style><![CDATA[.A{fill:#fff}.C{fill:#514440}.D{fill:#ffca08}.H{fill:#fcc090}.L{fill:#29102b}.M{fill:#2b112d}.Q{fill:#714f41}.S{fill:#4d4949}.Y{fill:#e58b71}.Z{fill:#e68c71}.c{fill:#20191a}.d{fill:#7d3c1a}]]></style><path class="A" d="M430.87 354.8a9.82 9.82 0 0 1-.65 1.4 14.44 14.44 0 0 1-1.75 5.53 102.43 102.43 0 0 1-9.54 22.92c-1.35 4.37-3.73 8.22-6.18 12-31.77 52-77.6 83.6-138 91.6-92.17 12.22-169.46-41.68-199.6-115.8a2.11 2.11 0 0 1-.09-.38l-2.1-4.94-3.15-10.17a166 166 0 0 1-8.09-43.07c-3.2-54.05 13.56-101.1 49.77-141.28 1.85-2 3.93-3.9 5.9-5.86-6.3-9.43-5.9-19.15-1.3-29.1 1.93-4.18 4-8.26 4.6-13 .34-3 2.12-5.35 4-7.58 5.45-6.32 10.07-13.25 14.74-20.14 1.06-1.56 2.88-3.7 1.1-5.22-1.62-1.36-3.72.37-5.2 1.7a12.28 12.28 0 0 0-4.3 9.05 7.54 7.54 0 0 1-2.75 5.88c-5.12 4.47-9 9.55-9.13 16.82 0 1.8-.42 3.9-2.9 4s-3.38-2-3.34-3.7c.25-8.62-4.36-16.36-3.84-25.14.42-6.92 2.5-12.46 8-16.34a49.52 49.52 0 0 0 13.28-14c4.37-6.76 10.8-10.72 18.15-13.4 5.42-2 10.9-3.8 17-5.93-8.52-1.4-15.73 1-23 3.3a53.05 53.05 0 0 1-11.16 2.6c-1.45.12-3 .1-3.8-1.5-.63-1.35.1-2.56.87-3.67a16 16 0 0 1 7-5.68c13.24-5.62 27.07-6.88 41.22-5.46a12.15 12.15 0 0 1 6.6 2.47c2.5 2 5.34 2.12 7.66.15 3.34-2.84 6.83-2.84 10.74-1.87a26 26 0 0 0 6.29.64c2.5 0 3.38-1.2 1.93-3.55-2.2-3.6-9.7-6.5-13.74-5.43-2 .52-2.63 2.08-3.26 3.66-.84 2.12-2.3 3.36-4.56 2.85s-2.65-2.36-2.83-4.3c-.48-5 1.8-7.25 7.66-7.75 1.18-.1 3.12.8 3.4-.92s-1.6-2.48-3.1-3c-2.8-1.05-5.73-.72-8.63-.76a9.38 9.38 0 0 1-9.27-7.45c-.6-2.87.4-4.8 3.5-4.9 6-.22 11.93.18 17 3.95 3.3 2.44 6.6 2.55 9.77-.1a7.7 7.7 0 0 1 7.48-1.33c12.8 3.5 22.1 11.32 28.58 22.7.78 1.37 1.1 3 3 3.37s3.48 0 3.3-2.53c-.08-1-.22-2.1-.22-3.16 0-10.7 8.67-16.46 18.46-12a30.64 30.64 0 0 0 13.31 2.9c5 0 9.8 1.9 14.32 4.16 1.9 1 3.27 2.55 2.7 4.8-.9 3.52 1.2 5.08 3.77 6.48a14.57 14.57 0 0 0 7.27 1.62c2.8 0 5.64 0 8.1 1.42 6.1 3.46 12.78 4.08 19.53 4.28a11.69 11.69 0 0 1 8.13 3.26c4.07 3.75 9.7 4.63 14.75 6.5a13.37 13.37 0 0 1 8.9 9.81c.84 3.32.92 6.74-2.45 8.86-1.6 1-.9 1.77-.4 2.86a15.81 15.81 0 0 1 1.38 4.06c.28 2.05.33 4.25-3 3.43-2.25-.55-2.24.7-1.44 2.15a6.37 6.37 0 0 0 2.07 2.35c5.94 3.5 9.85 9.14 14.55 13.93 6.3 6.4 10.25 14.3 13.07 22.75a13.52 13.52 0 0 1 .5 3.92c.12 5-1.28 6.3-6.2 5.8a.86.86 0 0 0 .26 1.33c4.55 3 5 7.16 4.23 12.12-.72 4.48 2.65 7.8 4.13 11.7 2.48 6.52 5.33 13.2 2.38 20.44a183.39 183.39 0 0 1 38.5 80.71 188.65 188.65 0 0 1-3.83 92.17z"/><path d="M418.93 384.64a102.43 102.43 0 0 0 9.54-22.92c-1.5-2.16-3.9-2.6-6.18-3.26-7.35-2.17-14.76-4.13-22-6.76-13.66-5-27-10.9-41.3-14a63.28 63.28 0 0 1-19.36-7.93c-7.73-4.65-16.1-7.68-24.7-10.16l-.5-.14c-2 1.93-.34 3.68.34 5.4a60.08 60.08 0 0 1 2 40c-.1.4-.23.77-.35 1.16a33.95 33.95 0 0 1-.47 1.44 44.42 44.42 0 0 1-8.96 13.89c-9.22 9.6-20.6 15-33.44 17.77-31.8 6.84-58.74-3.55-75.16-33-6-10.82-10.1-22.38-13.63-34.17a6.65 6.65 0 0 1-.23-.76 20.34 20.34 0 0 1-.18-6.65v-.45a7.9 7.9 0 0 0-3.42-7.35h-.16c-6.25-.84-12.2.43-18 2.5a6.15 6.15 0 0 0-3.12 2.36c-2.24 3.5-5.7 4.3-9.46 4.86-6.26.95-12.8 1.63-18.25 4.9-9.6 5.78-20 9.52-30.53 12.93-9.4 3-18.9 5.84-27.93 10-1.4.64-3.1.94-3.67 2.73l3.15 10.17c1.42 1.3 2.95.82 4.42.2a134.49 134.49 0 0 1 14.89-5.06c1.1-.33 2.34-.5 3-1.7a3.83 3.83 0 0 0-.11-.43c-.45-1.24-1.74-1-2.1-1.08 10.13-2.37 19.57-7.6 26.77-12.7a69 69 0 0 1-18.18 10.12c-1.06.37-2.9.85-2.45 2.68a.19.19 0 0 1 0 .08 2.5 2.5 0 0 0 .18.47c3.4.7 6.34-1.36 9.57-1.67a223.3 223.3 0 0 0-31.06 11.19c-1.24.53-2.9 1-2.82 2.88a2.11 2.11 0 0 0 .09.38c30.15 74.12 107.44 128 199.6 115.8 60.4-8 106.24-39.62 138-91.6a1.34 1.34 0 0 0 .1-.38c0-.1 0-.28-.12-.3-1.44-.67-2.18.4-2.9 1.26a60.88 60.88 0 0 0-8.46 12.39 17.6 17.6 0 0 0 1.1-2.53c2.4-9.84 7.3-17.77 16.43-22.6zM109.2 358c.07 0 .1-.08.1-.1-.2-.5.28-.02-.1.1z" fill="#462549"/><path class="C" d="M393.85 161.46c-1.48-3.88-4.85-7.2-4.13-11.7.8-5 .32-9.15-4.23-12.12a.86.86 0 0 1-.26-1.33c4.9.5 6.3-.8 6.2-5.8a13.52 13.52 0 0 0-.5-3.92c-2.82-8.45-6.77-16.34-13.07-22.75-4.7-4.8-8.6-10.42-14.55-13.93a6.37 6.37 0 0 1-2.07-2.35c-.8-1.45-.8-2.7 1.44-2.15 3.3.82 3.25-1.38 3-3.43a15.81 15.81 0 0 0-1.41-4.08c-.5-1.1-1.2-1.85.4-2.86 3.37-2.12 3.3-5.54 2.45-8.86a13.37 13.37 0 0 0-8.9-9.81c-5.05-1.87-10.68-2.75-14.75-6.5a11.69 11.69 0 0 0-8.13-3.26c-6.75-.2-13.44-.82-19.53-4.28-2.47-1.4-5.32-1.44-8.1-1.42a14.57 14.57 0 0 1-7.27-1.62c-2.58-1.4-4.66-3-3.77-6.48.57-2.26-.8-3.85-2.7-4.8-4.5-2.27-9.3-4.2-14.32-4.16A30.64 30.64 0 0 1 266.29 21c-9.8-4.43-18.4 1.33-18.46 12 0 1.05.14 2.1.22 3.16.2 2.52-1.3 2.9-3.3 2.53s-2.2-2-3-3.37C235.3 23.92 226 16.1 213.24 12.56a7.7 7.7 0 0 0-7.48 1.33c-3.18 2.66-6.47 2.55-9.77.1-5.1-3.77-11-4.17-17-3.95-3.1.12-4.1 2-3.5 4.9a9.38 9.38 0 0 0 9.38 7.57c2.9 0 5.82-.3 8.63.76 1.5.56 3.4 1.2 3.1 3s-2.23.83-3.4.92c-5.85.5-8.14 2.75-7.66 7.75.18 1.93.7 3.83 2.83 4.3s3.72-.73 4.56-2.85c.63-1.58 1.27-3.14 3.26-3.66 4-1.07 11.53 1.84 13.74 5.43 1.45 2.34.56 3.54-1.93 3.55a26 26 0 0 1-6.29-.64c-3.9-1-7.4-1-10.74 1.87-2.32 2-5.16 1.9-7.66-.15a12.15 12.15 0 0 0-6.6-2.47c-14.15-1.42-28-.16-41.22 5.46a16 16 0 0 0-7 5.68c-.77 1.1-1.5 2.32-.87 3.67.75 1.6 2.34 1.6 3.8 1.5a53.05 53.05 0 0 0 11.16-2.6c7.22-2.3 14.43-4.7 23-3.3l-17 5.93c-7.35 2.68-13.78 6.64-18.15 13.4a49.52 49.52 0 0 1-13.28 14c-5.55 3.88-7.62 9.42-8 16.34-.52 8.78 4.1 16.52 3.84 25.14 0 1.68.86 3.82 3.34 3.7s2.9-2.24 2.9-4c.08-7.27 4-12.35 9.13-16.82a7.54 7.54 0 0 0 2.75-5.88 12.28 12.28 0 0 1 4.3-9.05c1.47-1.34 3.57-3.07 5.2-1.7 1.8 1.5 0 3.66-1.1 5.22-4.67 6.9-9.3 13.82-14.74 20.14-1.92 2.23-3.7 4.6-4 7.58-.54 4.72-2.66 8.8-4.6 13-4.6 10-5 19.67 1.3 29.1.44 2 2.38 2.33 3.7 3.3 1.78 1.33 3.3 2.76 3.13 5.15-.2 3.4 1.58 5.17 4.45 6.7 2.6 1.4 6 2.9 6.33 6.1.53 4.88 2.84 9 4.52 13.34.34.9.63 1.9 1.76 1.8a1.71 1.71 0 0 0 1.75-2.1c0-.2 0-.3-.16-.28-.54 0 .55-.45.4.06a10.84 10.84 0 0 0 2.23 8.49c2.23 2.68 1.94 4.9.45 7.87-2.2 4.37-3.64 9.17-1.47 14 .72 1.64.85 4.65 3.25 4.3 2.2-.33 1.68-3.2 2.26-5a2 2 0 0 0 .08-.3c1 2.68 1.87 5.4 5.08 6.3h.46a1.53 1.53 0 0 0 .37-.16 1.57 1.57 0 0 0 .33-.19c1.7-1.4 1.68-3.2 1.05-5-1.27-3.7-.7-7.27.62-10.8a19.5 19.5 0 0 0 1.44-6.12c.12-5.1 2.34-10.53-2-15.06a8.54 8.54 0 0 1-.6-.75 3.9 3.9 0 0 1-.47-.86 2.21 2.21 0 0 1 .56-2.62 5.11 5.11 0 0 1 .89-.7 9.92 9.92 0 0 1 1.26-.71c1.5-1 2.8-2.23 2.85-4.07.2-8.82 1.83-17.62.63-26.5-.66-5-2.1-9.87-1.6-14.94.37-3.86 1.8-7.5 2.38-10.9a62.64 62.64 0 0 0 1.29 7.26c.35 1.92 1.15 3.62 3.47 3.7 2.13.06 3.4-1.3 4.25-3.05a13.39 13.39 0 0 0 .76-8.18c-1.7-10-.86-19.28 7.37-26.25a21.55 21.55 0 0 1-.91 8.58 89.24 89.24 0 0 0-3.38 16.3 48.82 48.82 0 0 0 .17 16.18c.66 3.2 3.6 5.94 5.86 5.67 3.36-.4 3.8-3.24 4.4-5.83a21.69 21.69 0 0 0 .64-3.91c.38-8.72 2.13-17.3 2.6-26a41.55 41.55 0 0 1 1.11-9.43c2-7.06 6.76-11.92 13.17-11.87 8.84.07 17.28-2.2 25.9-3.47 6.64-1 12.62-1.22 17.08 4.82a2.58 2.58 0 0 0 .39-.14.16.16 0 0 0 .09 0c2.85-1.12 1.18-3.6.56-4.94-2.87-6.15-3.8-12.94-6.55-19.1-2.27-5.14-3.16-10.63-3.9-16.14a10.69 10.69 0 0 1 .47-5.09c.55-1.55 1.6-2 2.4-.36 2.28 4.62 5.57 8.8 7 13.77 1.7 6 3.7 11.86 5.93 17.68 1.68 4.35 2.44 8.94.9 13.6-.72 2.17-1.8 3.7-4.27 1.84-.8-.6-1.5-.83-2-.25l-.07.08a2.22 2.22 0 0 0-.36.69 73.94 73.94 0 0 0 .84 11 21.49 21.49 0 0 0 1.48 6.55c.63 1.37 1.42 2.58 3.15 2.6s2.86-1.14 3.57-2.66a7.25 7.25 0 0 0 .6-2.29c.5-4.86 1.84-9.62 1.63-14.55-.1-2.36 1-2.67 2.95-2.07a20 20 0 0 1 8.13 4.74c2.27 2.16 4.75 2.9 7.3.35 1.38-1.38 2.74-1.1 4.32-.33a12.84 12.84 0 0 1 7.66 11.59 17.45 17.45 0 0 0 .8 5.46c1.2 3 3.5 3.85 6.35 2.28a7.51 7.51 0 0 0 3.8-5.93c-.78 6.87-1.6 13.72-1.34 20.63a34 34 0 0 1-2.21 14c-1.18 3-1.74 6.15.46 9.05l.12.1.07.06a3.65 3.65 0 0 0 2.6.92 1 1 0 0 0 .25 0c4.08-1.16 6-4 6.37-8.1.25-2.64.72-5.24 1.18-7.84 1.58-8.9 4.36-17.7 1.26-27.25 2.8.62 3.86 2.37 5 4.1 3.6 5.28 4.9 11.32 6.15 17.42.32 1.55.54 3.18 2.3 3.9s2.92-.58 4.5-1.62c-1.38 10.58-.72 20.92-1.87 31.17a13.93 13.93 0 0 0 .77 7.41c.54 1.2 1.1 2.55 2.64 2.66s2.16-.9 2.65-2.08c-2.06 6.88-3.1 21.36-1.9 28 .3 1.62.32 3.52 2.33 4.26h.06a.58.58 0 0 0 .19 0 2.49 2.49 0 0 0 1.76-1.65c.2-.43.36-.9.6-1.3a6.39 6.39 0 0 0 .35-.81c.58-1.66.5-3.48 1.05-5.15a15.17 15.17 0 0 1 1.39-4.12c.76-1.3 1.72-2.7 3.36-2.25 2 .55 1.1 2.37 1 3.7-.34 3.3-.77 6.57-1 9.86a3.11 3.11 0 0 0 2.12 3.46c1.66.5 2.77-.46 3.62-1.76a1.64 1.64 0 0 0 .14-.22 26.26 26.26 0 0 0-2.1 12.89c.25 2.93-.4 5.8-.78 8.67v2.3a13 13 0 0 0 .21 2c0 .16.05.3.07.46a8.73 8.73 0 0 1 .06.62c.18 3-1.06 6.13.17 9.1.58 1.4.87 3.43 2.66 3.6 1.63.12 2.17-1.7 2.87-2.94.17-.3.32-.4.57-.25.82 2.52 1.92 3.55 3.9.87a3.1 3.1 0 0 1 2.18-1.51c.73-.1 1.34-.18 1.88-.28a8.07 8.07 0 0 0 1.17-.32c1.7-.64 2.1-1.85 2.14-4.77.08-4.74.38-9.5-.5-14.22-.6-3.34-.37-6.66 1.94-9.4a16.49 16.49 0 0 0 4.26-12.61 11.4 11.4 0 0 1 .61-3.5c.72-3 1.35-5.94.44-9-.06-.16-.45-.54 0-.54 3.46 0 2.76-3.16 3.7-5 1-2 1.85-2 3-.28 1 1.4 1.32 3.2 2.45 4.5a3.09 3.09 0 0 0 1.6 1.11h.1c.33 0 .63-.17.8-.7 1.3-4.3 3.35-3.64 6.05-1.48a1.34 1.34 0 0 0 1.51 0c1.9-1.47 3-.55 4 1.14a2.27 2.27 0 0 0 2.69 1.19 2 2 0 0 0 1.31-1.82c.05-.26.08-.53.1-.78a43.91 43.91 0 0 1 .28-4.44 5.63 5.63 0 0 1 .31-1c.95-2.75 1.44-5.52.3-8.35 2.94-7.25.1-13.9-2.4-20.45zm-62.52 22.37s-.05-.06-.12-.06c-.5-.06.3-.37.12.06zm16.44 29.5c-.28.47-.54.95-.8 1.42a7.1 7.1 0 0 1 .79-1.42z"/><path class="D" d="M181 316.77c0 .12-.1.25-.15.38L165.9 319c-2.84.38-4.82 2.27-6.36 4.4-1.7 2.37-3.8 3.2-6.6 3.62-9.67 1.5-19 3.77-27.6 9-10 6-21.53 8.63-32.6 12.16A172 172 0 0 0 69.78 357a166 166 0 0 1-8.09-43.07c-3.2-54.05 13.56-101.1 49.77-141.28 1.85-2 3.93-3.9 5.9-5.86l4.85 2.7a5.41 5.41 0 0 1 3.15 5.84c-.33 2.64.62 4 3.2 5.43 3.86 2.17 8.67 4.16 8.13 10.34a7.78 7.78 0 0 0 2.66 6.8c1.58 1.3.4 3.32 1.24 4.84 2.5.13 1.54-2.34 2.6-3.45 1.47 4.14 1 9 5.16 12 1.2.85.38 2.78-.38 4-3.88 6.42-5 12.92-.6 19.82 2.23-1.48.2-4.86 3.06-6 1.26 2.43 1.82 5.72 5 7.1a1.94 1.94 0 0 1 0 .24c1.36 18.08 6 35.4 12.63 52.2a168.06 168.06 0 0 0 10.89 22c1.06 1.86 2.92 3.63 2.06 6.1zm249.87 38.03a9.82 9.82 0 0 1-.65 1.4c-6.68-1.1-13-3.53-19.45-5.38l-47.27-13.5a67 67 0 0 1-16.29-8.09 7.58 7.58 0 0 1-3.8-8 81.89 81.89 0 0 1 6.62-24 24.39 24.39 0 0 1 10.46-11l5.86-3.34a14.24 14.24 0 0 0 7.2-10.38c1.54-9 1.93-18.13 3.1-27.16.75-5.76 1.25-11.58 3.06-17.15s3.1-6.42 8.86-6.48c8.4-.1 8.64-.2 7.75-8.4-.6-5.57-.9-11.15-1.1-16.74q-.1-3.25-.2-6.52l1.18-8.1a183.39 183.39 0 0 1 38.5 80.71 188.65 188.65 0 0 1-3.86 92.12z"/><path d="M430.22 356.2a14.44 14.44 0 0 1-1.75 5.53c-23.23-6.12-45.05-16.53-68.26-22.64-5.77-1.52-11.45-3.1-16.67-6-8.16-4.6-16.26-9.3-25.56-11.32a5.14 5.14 0 0 1-3-1.76 4.34 4.34 0 0 1-.28-.46c-1.44-2.6-.8-5.4-.76-8.15v-.5c.08-1.94 1.2-3.44 2.08-5.05 4.3-7.7 8.5-15.36 10.2-24.28 1.17-6.14 4.06-11.92 4.07-18.4a5.27 5.27 0 0 1 1.94-4.19h.23l.3-.05c5-.94 7-4.4 7.52-9.34a20.82 20.82 0 0 1 .4-2.47 7.76 7.76 0 0 1 1-2.56 5.37 5.37 0 0 1 1.93-1.78 6.64 6.64 0 0 1 .89-.4 4.86 4.86 0 0 1 .39 1.83c-.77 4-1 7.84 1.68 11.46 1.67-1.4 1.55-4.1 3.73-5.63.78 1.58.24 3.52 1.74 4.87.3-1.7 1.88-2.45 2.47-3.88.27-.7.3-1.24 1.16-.44a4.91 4.91 0 0 0 2.23 1.37 1.24 1.24 0 0 0 1.17-.32c.77-.7 1-2.38 1.16-3.52a42.69 42.69 0 0 0-.32-13.44c-.93-5.55-.4-10.5 3.77-14.68 1-1 2.08-2.37 1.95-3.8-.6-6.3 2.7-12.15 1.85-18.43 3.07-1.9 2.76-5.75 4.74-8.2 1-1.23 1.77.38 2.4 1 2.06 2 2.15 5.22 4.13 7.7l.06.08v-.07a4.51 4.51 0 0 0 .57-1.17c.85-5.9.9-6 5.33-2.4 2.72 2.23 3.28-.3 4.4-1.7a3.29 3.29 0 0 1 .7.28c1.65 1.2 1.08 5.08 3.65 4.4 1.9-.52.32-3.57.78-5.42a21 21 0 0 1 .77-2.19 10.58 10.58 0 0 1 .58 1.3c1.12 3.2.38 6.66.9 10 1 6.07.7 12.33 1 18.5.12 2.2-.64 3.16-2.92 3-2.5-.14-5.05.2-7.52-.1-3.3-.4-4.84 1.26-5.85 4-2.22 6.1-2.7 12.55-3.57 18.9-1.17 8.7-1.72 17.47-2.9 26.18-.88 6.52-4.35 10.87-10 13.17-12.26 5-15.9 15.7-18.77 27a101.47 101.47 0 0 0-1.69 10.47c-.33 2.3.55 3.84 2.58 5.27 9.24 6.52 19.77 9.63 30.5 12.55l49.7 14.2a5.48 5.48 0 0 1 3.18 1.69z" fill="#f4a31e"/><path d="M418.93 384.64c-1.35 4.37-3.73 8.22-6.18 12-1.78-1.15-1.88.84-2.44 1.5a108.73 108.73 0 0 0-9.75 13.87c2-9.86 4.74-19.32 13.68-25.43a8.81 8.81 0 0 1 4.69-1.93z" fill="#a897a8"/><path d="M111.9 357.48l-21.5 7.75c-5.22 2-10.75 3.45-15.36 6.86l-2.1-4.94c1.55.6 2.8-.3 4.1-.86 5.85-2.6 12.14-3.87 18.1-6.12 1.08-1.2 2.3-1.8 3.9-.9h.12L111.7 357c.1.14.14.3.2.5z" fill="#a899aa"/><path class="C" d="M332.42 259.25a20.74 20.74 0 0 0-1.46 8.47 10.07 10.07 0 0 1-.29 3.52c-4.4 12.7-6.66 26.3-15.18 37.34a5.93 5.93 0 0 0-.61 1.43l-17.63 24.38c-7.8 10.53-18.6 16.92-30 22.8-13 6.73-26.32 6.55-40 2.87q-3.82-1-7.62-2.2c-11.74-3-19.26-11.28-25.7-20.77a131.56 131.56 0 0 0-9.46-12c.52 2.32 1.35 4.85-.7 7.25-1.2-2.08-.8-4.4-.5-6.5a10.79 10.79 0 0 0-2.5-8.65c.07-2.16-1.4-3.66-2.38-5.32a176 176 0 0 1-23.37-68.93c-.27-2.23-.57-4.47.35-6.64 2.07 0 2.1 1.8 2.36 3.07a76 76 0 0 1 1.17 7.84c1.36 12.63 5.2 24.25 14.3 33.6 3 3.1 4 7.08 4.78 11.12 1.36 7.17 2.74 14.3 7.08 20.44a20.06 20.06 0 0 0 1.59 2.27.83.83 0 0 0 .8.26 11.51 11.51 0 0 0-2-8.94c-3.77-5.67-4-12.2-3.9-18.68 0-2.7 1.56-4.88 3.28-7 4.46-5.6 9.78-9.27 17.06-10.4 5.07-.78 9.7-3.44 14.65-4.9A18.79 18.79 0 0 1 229 265a20.09 20.09 0 0 0 12.86.43c7.38-2.1 14.5-2.46 21.5 1.48 2.88 1.62 6.2 2.08 9.53 2.48a77.46 77.46 0 0 1 17 3.81c6.9 2.5 8.73 5.14 8.68 12.37 0 2 .2 4.15-.76 5.85-3.86 6.8-1.6 14.25-2.87 21.46 9.53-3.43 15.62-13.5 13.44-22.9-1.42-6.12-.32-10.88 4.6-14.83a59.28 59.28 0 0 0 4.5-4.47c6.2-6.3 10.67-13.4 10.9-22.62a11.62 11.62 0 0 1 2.33-6.66c1.4-1 2.15-.3 2.55 1a19.39 19.39 0 0 1 .35 3.49c0 3.55.13 7.1-.1 10.67a4 4 0 0 1-1.08 2.69z"/><path class="H" d="M183.8 332.3v-7.88l.9-.46c3.15 3.32 6.6 6.53 8.7 10.6 3.63 7 9.73 11.68 15 17.2 3 3.22 7.72 3.17 11.4 5.18 3.46 2.2 5.3 5.82 7.87 8.82a69.2 69.2 0 0 0 17.21 15.07c11 6.5 23.48 4.43 34.05-5.5 8.52-8 14.34-17.87 19.42-28.23 2.45-5 4.56-10.12 6.66-15.25.4-.95.8-2.06 2.06-2.17a2 2 0 0 1 2.05 1.58c4.4 11.9 8.4 23.9 7.62 36.9-4 10.65-11.66 18.2-21.27 23.66-18.65 10.62-38.57 13.24-59.3 7.6-16.72-4.55-28.4-15.7-37.16-30.22-7-11.52-11.32-24.12-15.2-36.9z"/><path d="M316.67 368.15c-1.37-11.8-3.37-23.45-7.76-34.56-.46-1.18-.47-2.6-2-3.44-2.6 5.92-5 11.88-7.8 17.6-5.75 11.64-12.36 22.62-22.72 31-11.92 9.64-25.78 8.55-37.33-.5a93.19 93.19 0 0 1-19.3-21.31c4.08 1.06 8.12 2.27 12.24 3.16 13.05 2.83 25.2 1.1 37.4-5 15.1-7.55 26.33-18.68 35.27-32.57A66.68 66.68 0 0 1 314.88 310l.06 10c-1.74 1.34.1 2.34.5 3.26 5.66 13.06 6 26.5 3.07 40.2a11.4 11.4 0 0 1-1.83 4.7z" fill="#e68d72"/><path d="M272 413.2c-14.1 3.6-28.35 4.93-42.67 1.5-20.64-4.95-33.9-18.43-42.23-37.36a105.05 105.05 0 0 1-6.41-20.33c-.24-.75-.63-1.57.77-1.46 7.27 24.38 20.67 43.64 45.26 53.18 13.6 5.3 27.8 5.7 42.12 3.8.78-.1 1.58-.14 2.37-.2s1.05.1.8.87z" fill="#a898a8"/><path d="M352 412.6c7.3-18.1 7.22-35.88 1.2-53.75 11.8 16.5 11.38 43.83-1.2 53.75z" fill="#a897a9"/><path class="L" d="M165.8 354.7c-1.23 23.1 4.36 43.3 20.06 60.63-15.05-5.05-28.03-44.26-20.06-60.63zm168.65-17.06c4.72 12.7 3.05 45.58-2.68 54.07 1.1-18.08 3.53-35.54 2.68-54.07z"/><path class="M" d="M161.8 331.84a33.93 33.93 0 0 0-12.32 14.64c.55-7.27 7.65-16 14.1-17.16 2.84-.52 5.15-1.9 7.67-3 1.3-.55 2.5-1.6 4.48-.83-6 7.3-13.76 12.57-20.2 19.26.25-5.24 4.08-8.63 6.25-12.9z"/><path class="L" d="M359.75 351.27c7.33 8.75 11.3 29.76 10.22 44.5-1.63-15.25-5.58-29.95-10.22-44.5z"/><path class="M" d="M99 359.24l-3.88.9c-1.6-.65-3.24-.5-5-.54A113.5 113.5 0 0 0 124 342.42c-2.78 4.63-12.28 11.34-19.13 13.74-2.1.74-4.22 1.4-5.87 3.08z"/><path d="M158 396.7q-12.06-18.72-5-39.8c-1.1 13.6-.6 27.02 5 39.8z" fill="#aa9aab"/><path d="M181.46 355.53l-.77 1.46a21.85 21.85 0 0 1-1.47-10.4l2.24 8.94z" fill="#78607a"/><path d="M272 413.2l-.83-.88 6.65-1.62a10.26 10.26 0 0 1-5.82 2.5z" fill="#846f87"/><path class="H" d="M331 241.9a64 64 0 0 0-2 10.48c-1.1 10.48-8.42 17.15-15.46 23.67-4 3.72-5.64 7.4-4.13 12.56 3 10.28-1.87 17.3-9.65 23.06l-5.3 3.95c0-6.44-.8-12.86.3-18.93.65-3.65 3-7.15 3-11.17.15-6.25-1.43-8.78-7.43-11.08a74.43 74.43 0 0 0-17.33-3.89c-3.72-.48-7.37-1.1-10.65-2.86a22.63 22.63 0 0 0-18-1.66c-5.85 1.75-11.65 2.06-17.43-.55-2.63-1.2-5.4-.76-8.16 0-8.26 2.3-16.12 5.95-24.62 7.54a6.21 6.21 0 0 0-3.48 2.51 15.23 15.23 0 0 1-2 2.49c-4.46 3.5-7.18 7.76-6 13.65 1 5 .57 10.3 4.3 14.58 2.72 3.14 2.08 7.18 1.93 11.24-2.32-.25-3.12-2-4.1-3.43a43 43 0 0 1-7-18c-1-7.24-4-13.18-8.9-18.94-7.32-8.62-10.17-19.5-11.24-30.78-.33-3.43.07-7.13-2.28-10.14 1.66-1.4 1.76-3.1 1-5a13.38 13.38 0 0 1 0-9.69c1.53-4.17 1.72-8.5 2.36-12.8.57-3.84-.13-7-2.6-9.82a11.86 11.86 0 0 1 1.51-5.82 4.35 4.35 0 0 0 3.28-4.78 67.67 67.67 0 0 1 .83-12.63c.74-6-.06-11.9-1.25-17.73a34.28 34.28 0 0 1 1.28-19.11c.76-2.06 1.1-4.27 1.8-7.07l1.9 12.1c.25 1.55.25 3.42 2.43 3.47a3.52 3.52 0 0 0 3.71-3.44 76.46 76.46 0 0 0 .09-8.7c-.05-2.24-.17-4.5-.43-6.72-.7-5.77 1.2-10.63 4.88-15 1.84-2.18 4.32-4 4.55-7.36a28.23 28.23 0 0 1-.49 14.55c-2.52 8.8-4.12 17.76-3.58 27 .17 2.82.67 5.55 2.9 7.56s4 1.7 5.16-1.13a13.69 13.69 0 0 0 1-4.23c.54-10.42 2.84-20.66 3-31.12a23.55 23.55 0 0 1 3.43-12.47c2.6-4.12 6.22-7.34 11.17-7.24 10 .2 19.6-2.65 29.4-3.92 6.28-.8 11.58-.12 14.7 6.2.77.32.48 1.13.8 1.66 1.28 5.4.7 11.1 2.37 16.44.46 1.46.64 3.5 2.7 3.37s2.85-2 2.92-3.73c.23-5.9 2.44-11.7 1.2-17.7-.47-2.23.9-1.8 2-1.48 4.1 1.13 8.1 2.36 11 5.8 2.1 2.45 4.33 3.76 6.35-.2a2.24 2.24 0 0 1 3.35-1c4.9 2.72 9.86 5.4 10 12.1a26 26 0 0 0 .31 4c.4 2.22 0 5.38 3.47 5.18 3.15-.18 4.8-2.4 5-5.64.1-1.72-.57-3.73 1.5-4.94 1.56 1.45 1 3.26.84 4.87-.94 8.4-2 16.8-1.5 25.28a17.3 17.3 0 0 1-1.75 8.44c-1.42 3.06-1.92 6.28-.44 9.52-1.12 2.54-3.16 1.07-4.7.9-6.42-.67-12.8-2.16-19.28-.47-2.45.64-4.9 1.22-6.62 3.3-.5.6-1.1 1.32-.57 2.12.4.62 1.2.37 1.84.35 5.8-.14 11.58-.85 17.4-1 9.9-.26 18.73 2.55 27.28 8.13-2.2-4.62-5.68-7.2-9.7-9.28-1.42-.73-3.5-.88-3.4-3.26a8.44 8.44 0 0 0 5.77-8.15c.26-6 2.23-11.66 3-17.56.8-6.26 1.74-12.55-2.23-19.06 4.32 1 6.75 2.56 8.62 5.6a47.74 47.74 0 0 1 6.37 19.34c.12 1 .23 1.9 1.2 2.32a2.36 2.36 0 0 0 2.79-1c.6-.7 1.1-1.48 2-2.75v12.32l-1.1 23.36a14 14 0 0 0 .13 3.17c.3 1.64.3 4 2.24 4.22 2.37.25 2.1-2.13 2.3-3.78a2 2 0 0 1 1.74-1.92c-.72 4.3-1.52 8.4-2.06 12.55-1 7.36-1.45 14.73.27 22.07a9.38 9.38 0 0 0 .8 1.74 2.06 2.06 0 0 1 .87 1.28c.77 8.1.66 16.22-1.44 24.12z"/><path class="Q" d="M297.5 108.82a15.9 15.9 0 0 1 0 3c-.24 1.56-.64 3.38-2.55 3.57-1.63.16-2.85-.9-3.83-2.34-2.23-3.27-2.24-7.26-3.74-10.77-2.22-5.2-4.62-10.42-5.24-16.1a166.28 166.28 0 0 1-1.22-24.44c0-1 .24-1.9 1.3-2.2s1.42.5 2 1a9.19 9.19 0 0 1 2.78 3.79c3.1 8.8 6.72 17.43 7.46 26.93.25 3.22 1.4 6.4 2.36 9.55a24.36 24.36 0 0 1 .67 8.01zM248.2 103l-.8-1.66c1.23-1.92.2-3.84-.4-5.48-4.2-11.3-8.72-22.5-10.5-34.52a4.69 4.69 0 0 1-.08-1.18c.25-2.7-.26-6.52 2.52-7.28 2.5-.7 2.78 3.2 3.95 5.1 6.5 10.7 9.07 22.87 13 34.55 1.1 3.34.1 6.58-.7 9.7s-2.87 3.23-7 .77zm-99.5-12.22c-4.74 11.16-2.8 22.2-.16 33.32.95 4 1.57 8.2.5 12.4a5.42 5.42 0 0 1-3.27 4.13c-2 .82-2.8-.84-4-1.77-5.6-4.33-6.82-10.78-6.82-17-.01-12.1 3.93-22.94 13.74-31.08zm210.76 66.76c.05 13.9-3.42 27.06-8.76 39.77-1.12 2.66-1.43 5.67-3.44 7.93-.5.56-.76 1.6-1.76 1.23a1.92 1.92 0 0 1-1.11-1.95 5.17 5.17 0 0 1 0-1.18c2.36-11.58 1.75-23.53 4.42-35.1 1.17-5.08 1.05-10.46 2.84-15.44.82-2.28 1.9-4.5 5.13-3.62 1.9.53 2.94 1.46 2.7 3.6a41.8 41.8 0 0 0-.03 4.75zm-34.93-57.02v2.8c-.07 1.84 0 4.07-1.87 4.83-2.1.86-4.36-.46-6.47-1-.63-.16 1.08-2.2-.67-3.6a12.91 12.91 0 0 1-4.1-7.06c-1.3-5-4-9.46-6.25-14.08a37.55 37.55 0 0 1-3.6-13.23c-.13-1.37 0-3.17 1.43-3.74 1.1-.45 2.15.82 2.9 1.73 6.73 8.22 14.12 16 17.58 26.4a17.07 17.07 0 0 1 1.06 6.93zm-162 7.78c.54-13.1 2.4-25.86 9.22-37.43 1-1.62 1.9-3.4 4.2-2.77s1.62 2.74 1.67 4.35c.28 9.12-3.23 17.5-5.1 26.2-1.44 6.68-3.3 13.27-2.85 20.2.1 1.4.34 3.16-1.55 3.6s-2.53-1-3.25-2.32a20.91 20.91 0 0 1-2.34-11.86z"/><path d="M332.54 256.82v-11a3.24 3.24 0 0 0 .28-2.31c-1.64-7.44.7-14.87.07-22.32-.4-4.62 2-8.95 1.78-13.6a8.53 8.53 0 0 1 3.41-7.22 3.45 3.45 0 0 1 4.07-.4c1.23.77.94 2.1.6 3.24-1.06 3.56-.33 7.37-1.64 10.9-.54 1.44-.2 3.05 1.5 3.58s2.37-1 3-2.07c1-1.95 1.86-4 3.14-6.83.67 2.28.47 3.73-.27 5-3.26 5.62-3.67 11.75-3.44 18a19.86 19.86 0 0 1-.87 5.84c-1.58 5.53-4.57 10.53-5.64 16.3-.55 3.2-2.96 3.86-6 2.87z" fill="#fcc192"/><path class="Q" d="M231.66 83.4l-.5 2.14c-.93 3.87-1.72 3.54-5.06 1.68-9.13-5.1-8.75-13.88-9.5-22.28a59.08 59.08 0 0 1 0-9.12 4.56 4.56 0 0 1 3-4.33c1.9-.6 2.83 1.2 3.8 2.33 3.67 4.33 3.87 10 5.4 15.12 1.4 4.62 1.92 9.5 2.86 14.46zm-38.93-11.2c-.57-6.08 1.92-11.8 6.65-16.68.93-1 2-2.06 3.37-1.44s1.06 2.14.74 3.48c-.9 3.7-1.94 7.36-2.07 11.22a10.57 10.57 0 0 0 2.65 7.65c4 4.5 3 9.92 2.76 15.1-.1 1.8-1.47 2.48-3.8 1.9-9.4-2.35-8.84-10.36-10.28-17.27a23.67 23.67 0 0 1-.03-3.97zm133.55-7.06c8.5 5.35 13.66 13.07 17.9 21.5 3.4 6.77 2.6 14.13 2.5 21.36a2.84 2.84 0 0 1-2.14 2.59c-1.4.46-2.17-.6-2.94-1.53-3.45-4.14-3.52-9.54-5.26-14.33l-9.2-26.44c-.33-.95-.52-1.95-.84-3.15z"/><path class="S" d="M299.83 164c.53 1.75 2.3 1.55 3.52 2.14 5.55 2.67 9.75 6.52 11.8 12.54-.4.1-.7.26-.8.18-11.28-9.25-24.48-10.25-38.23-9-3.15.3-6.32.46-9.44 1-2.7.44-2.7-.7-1.94-2.6 1.6-4 5.12-5.1 8.82-5.82 7.28-1.4 14.46-.15 21.63 1 .8.13 1.72 1.06 2.4-.24z"/><path class="Q" d="M331.67 152.82a139.17 139.17 0 0 1 1.58-25.89c.2-1.2.23-2.7 1.5-3 1.56-.32 2.16 1.24 2.68 2.42a11.6 11.6 0 0 1 1.26 3.73 190.93 190.93 0 0 1-1.44 40c-.25 1.82-.92 4.5-2.74 4.12-1.58-.34-3-2.63-2.9-5.13.2-4.8.06-9.7.06-16.25zm-198.2 1.88c3.46 2.7 6.4 5.42 7.9 9.1 4 9.75 8.68 19.22 11.27 29.5.76 3 .33 6 .35 9.07 0 .87-.23 2.06-1.23 2.22s-1.46-1-1.9-1.76a6 6 0 0 1-.74-1.83c-1.84-10.76-7.8-19.76-12.5-29.28-2.6-5.22-4.14-10.54-3.14-17.02zm-16.9-54.4a16.16 16.16 0 0 1 4.2-12.23c5.85-6.78 11.77-13.5 18.86-19.08a16.76 16.76 0 0 1 5.37-2.45 2.85 2.85 0 0 1 3.65 1.6c.73 1.45-.64 2.22-1.5 2.85-3.4 2.5-7.77 3.44-10.77 6.52-4.52 4.64-9.75 8.65-10.6 16-.54 4.5-2.78 8.72-4.95 12.78-.47.9-.85 2.15-2.22 1.8-1-.26-1.1-1.3-1.32-2.23-.5-1.95-1.05-3.86-.7-5.57zM384 128c-.2 1.1.9 3.58-1.74 4s-3.65-2-3.53-3.83c.4-6.3-3.82-9.37-8-12.58a50.17 50.17 0 0 1-8.33-8.34c-2.14-2.62-2.25-5.5-2.1-8.56 0-.63-.13-1.38.6-1.74s1.33.16 1.67.66c5.05 7.3 12.6 12.28 18 19.16A15.21 15.21 0 0 1 384 128zm-23.8-59.85a5.27 5.27 0 0 1-2.43 4c-1.62.94-2.52-.7-3.14-1.62-5.48-8.2-14.3-11.6-22.47-16-2.2-1.18-6.25-2.67-5.3-4.84s4.6.07 6.9 1A79.37 79.37 0 0 0 348 55.36c6.1 1.2 12.2 7.77 12.2 12.8zm-135.72-35.8c.16 2.13-.3 4.1-3 4.56-2.45.43-3.9-.45-4.6-3-.74-2.8-3.5-3.78-5.72-5.12-1.57-.94-3.35-1.57-4.87-2.6s-3.26-2.5-2.9-4.4c.42-2.18 2.57-3.18 4.67-3.77a3.38 3.38 0 0 1 .78-.07c5.9-.6 15.64 8.28 15.62 14.4zm133.4 94.15v-10.66c0-1.33.28-2.8 1.74-3.23s2.1.86 2.87 1.7a13.14 13.14 0 0 1 3.06 7.56 42.87 42.87 0 0 1-.71 15.64c-.48 1.86-1.72 3.82-4.2 3.16a3.64 3.64 0 0 1-3-4.33 98 98 0 0 0 .08-9.85zm15.6 51.26c-2.1-8.2-1.26-16.3-.45-24.38a10.82 10.82 0 0 1 .9-3 2.89 2.89 0 0 1 2.61-2.11 2.73 2.73 0 0 1 2.57 2.15c.68 2.4 1.77 4.93 1.5 7.26-.57 4.92.14 10-2 14.74-1.05 2.4-2.28 4.7-5.13 5.34zM298 47.66c8.66.3 15.42 2.9 20.45 9.22a6.57 6.57 0 0 1 1.21 2.86c.32 1.8-.17 2.93-2.32 1.93-2.5-1.16-5.3-1.92-7.44-3.55-3.98-3.07-7.58-6.63-11.9-10.46zM259.92 27a7.89 7.89 0 0 1 7.7 1.82c3.4 2.9 8.5 3.6 10.6 8.26.5 1.14 2.18 2.26 1.26 3.38s-2.8.62-4-.25c-4.3-3.12-9.65-4.9-12.7-9.7a38.37 38.37 0 0 0-2.85-3.52z"/><path d="M334.7 207.63c-.45 12.76-.54 25.54-2.13 38.23-.07-1.17-.1-2.36-.23-3.53s-.8-.67-1.37-.43c-.2-8.48 1.36-16.9.66-25.4 1.9-2.64 2.2-5.85 3.07-8.86z" fill="#c6655a"/><path d="M332.54 256.82c3.37.36 5.25-1.3 5.57-4.53.56-5.5 3.14-10.1 6.06-14.58l.34 4.6c-2.75 3-3.13 6.78-3.95 10.48-1.15 5.22-2.73 6.4-8.14 6.46z" fill="#c6645d"/><path d="M157.7 193.12c.13 2.1.4 4.24-1.5 5.82-2.2-2.65-1.13-4.43 1.5-5.82z" fill="#f7c592"/><path d="M250 329.67c-6.23 1.86-11.8 5.38-18.08.9.22 3.16 2.25 3.53 3.32 4.73.7.8 1.6 1.52 1.1 2.73a2.27 2.27 0 0 1-2.25 1.35c-7 0-14-.05-21-.25a6.58 6.58 0 0 1-3.61-1.48c-9.68-8-15.77-18-16.8-30.67-.15-1.84.14-3.74-.13-5.55-1.26-8.47 2.87-14.13 9.9-17.64a100.68 100.68 0 0 1 19.49-7.31 19.13 19.13 0 0 1 11 .46c4.15 1.37 8.43.9 12.57.2 15.4-2.65 28.06 4.1 40.54 11.5 2.9 1.72 3.35 5 3.46 8.05.42 11.47-3 22.17-8.85 31.63-4.06 6.6-11.8 9.46-19.43 11.16a44.55 44.55 0 0 1-5.9.65c-5.45.44-6.88-1.06-6.22-6.6a39.58 39.58 0 0 1 .9-3.87z" fill="#fcc091"/><path class="S" d="M168.32 171a43.1 43.1 0 0 1 8-9.89 12.58 12.58 0 0 1 8.58-3.53 80.66 80.66 0 0 1 29.1 5 10.87 10.87 0 0 1 6 4.33 3.4 3.4 0 0 1 .48 3.38c-.84 1.63-2.1.38-3.1.14-9.27-2.15-18.58-4-28.14-4.28-7.36-.2-14.36 1.02-20.9 4.85z"/><path d="M220.5 191.33c-14-12.37-28.45-14.13-43.9-4.3 1-6.62 8.52-11.83 18-12.68 10.3-.92 22.18 6.5 25.9 16.97z" fill="#e58c71"/><path class="Y" d="M259.77 191c6.5-8 13.46-15 25.16-13.9 10.15 1 17.14 5.64 20.4 15.57-14.83-12.3-29.9-12.93-45.55-1.67zM227 256.88c2.67 1.76 4.8 4.33 8.3 4.8 4.1.55 6.8-2 9.8-4a21.15 21.15 0 0 1 9.56-1.61c5.92 2.33 9.84-.87 10.66-8.7 3 4.82.4 10-5.78 11.73a12.57 12.57 0 0 1-2.74.38 31.5 31.5 0 0 0-15.46 4.7c-4.42 2.67-9.26 1.28-13.22-1.85a10.07 10.07 0 0 0-6.89-2.33 20.3 20.3 0 0 1-10.68-2.2c-4.06-2.28-5.17-5.84-3-11.05.16 3.42.55 6.22 2.85 8.08s4.83 3.27 7.82 1.23c3.12-2.07 5.95-.88 8.8.8z"/><path class="Z" d="M298.16 213c-7.45 8.66-21.92 9.58-33.38-2.74 11.37 3.04 22.22 3.5 33.38 2.74zm-117.98-4.73c11.1 3 21.7 2.95 32.2 2.26-8.86 9.1-24.6 9.25-32.2-2.26z"/><path d="M235.45 235.2c-2.1-1.45-3.32-3.12-5.6-3-1.52.07-1.5-1.26-1.23-2.32q3.87-14.85 7.82-29.68c.05-.18.37-.3.8-.6l-1.8 35.6z" fill="#fee5d4"/><path d="M188.76 207.73a28.73 28.73 0 0 1-11.91-5.06c-2.2-1.5-.82-3 .28-3.66 13.63-8 29.33-5.48 39.38 6.26-.95.77-1.78 0-2.65-.2-3.66-2.43-7-5.37-11.3-6.75-1.9-.77-3.35-1.36-4.7 1.34-1.6 3.18-3.85 3.06-7.06.4a7.36 7.36 0 0 1-1.06-2.48c-1.45-2.4-3.2-.4-4.8-.32-1.4.9-3.48 1.35-3.42 3.4s2.12 2.8 3.67 3.75 3.23 1.15 4.5 2.38c.06.66-.08 1.13-.9.92z" fill="#1e1818"/><path class="c" d="M273.62 199.07c10.83-4.4 20.58-2.74 29 5.44a2.36 2.36 0 0 1-.84 3.66 31.39 31.39 0 0 1-9 2.82c-.8.3-1.5.35-1.8-.7 1.34-1.8 3.6-2 5.37-3.1 2-1.25 2-2.47.43-4.06a14 14 0 0 0-6.92-3.6c-1.78-.4-3.15-.3-4.1 1.73-1.82 3.82-3.12 4.12-7.38 2.33a3.87 3.87 0 0 1-1.35-2.45c0-.75-.22-1.1-1.1-.94s-2.1.37-2.32-1.13z"/><path class="d" d="M273.62 199.07c.94 1 1.88.4 2.9.1 2.08-.6 1.4.7 1.07 1.7-.52.47-1.7.63-1.35 1.5s1.4.1 2.1.33c4.57 1.94 5.38 1.5 6.6-2.8 1-3.28 3.37-1.56 5.33-1.14 1.84 5.64-2.1 10.33-9.3 11.06q-7.35-1.17-8.95-8.43a6.12 6.12 0 0 1 .17-1.76 1.13 1.13 0 0 1 1.4-.58z"/><path d="M231.13 243.5c-2.58-.7-6.07-.25-6.5-3.9-.34-3 2.37-2.57 4.3-2.56 3 0 5.88 1.26 6.36 4.24.44 2.74-2.52 1.74-4.17 2.23z" fill="#fee5d3"/><path class="Y" d="M253 223.53c2.33 3.58 1.57 6.82 1.66 9.9.1 3.9 5.37 2.8 5.67 6.43-.46.55-1-.14-1.56-.23-6.73-1.18-7.18-1.72-6.4-8.76.24-2.2.92-4.34.64-7.33z"/><path d="M291.18 210.15c.3.73 1.05.6 1.6.84-5.08 1.75-10.16.55-15.1-.42s-9.95-2.37-14.33-5.18a1.65 1.65 0 0 1 1.9-1.23c5 1.82 10 3.9 15.15 5.27 2.08.38 4.07-.34 6.1-.45 1.66-.1 3.38-.28 4.67 1.17z" fill="#9c8272"/><path d="M188.76 207.73l.73-.67c.17-.2.37-.52.57-.5 8.16.58 16.15-.92 24.17-2.07.75.3 1.3 1.14 2.28.78a45.52 45.52 0 0 1-27.75 2.46z" fill="#9c8574"/><path d="M254.6 256.06c-3 1.76-6.27 1.7-9.56 1.6a8.69 8.69 0 0 1 7.33-4c1.42-.04 3.25-.04 2.23 2.4z" fill="#ae6a56"/><path d="M227 256.88c-2.84-1.18-5.83-.68-8.77-.82-.9-1.88.3-2.38 1.75-2.38 2.74 0 5.32.62 7.02 3.2z" fill="#b36c58"/><path class="c" d="M264.88 204.5l-1.53.9c-1.5-1-.37-1.35.43-1.8 2.7-1.53 5.36-3.2 8.44-3.94l.75.82a14.8 14.8 0 0 1-8.09 4.02z"/><path class="Z" d="M334.84 239.9c2.2-5.7 1.78-11.07 1.8-16.87 2.54 2.35 2.05 5.17 2.34 8 2.9-1.08 2.17-4 3.45-5.78 1.02 7.02-1.23 11.65-7.58 14.65z"/><path d="M225.06 279.5c7.42 3.34 14.8 1.1 22.3.64 10.2-.62 19.56 3.6 28.62 8l7.4 3.67-3.84 6.68c-2.78 4.66-3.68 10.2-6.92 14.63-7 9.54-16.66 14.85-28.14 16.73-20.22 3.3-32.5-4.35-40.55-23.74-1.4-3.34-1.76-7.3-5.4-9.35-.9-.5-.57-1-.1-1.54 5.64-6.25 10.8-13.1 20-14.64 2.2-.35 4.36-.8 6.63-1.08z" fill="#e76e67"/><path class="A" d="M214.23 204.5c-7.95 3.67-16.28 3.76-24.74 2.57a17.7 17.7 0 0 1-7.62-3.71c-2.84-2.45-2.8-3.46.3-5.57 1-.65 2-1.14 3-1.7 1.3.75 1.32 2.2 1.78 3.38 1.27 3.23 3.55 5.25 7 5.48s5.93-1.65 7.34-4.84a6.87 6.87 0 0 1 1.7-2.61 35.59 35.59 0 0 1 11.23 7.01z"/><path class="d" d="M203.05 197.48c-1.3 6-4.26 8.75-9.1 8.55-4.66-.2-7.38-3.24-8.34-9.3 0-.23-.27-.44-.4-.66 1.36-.3 2.7-.7 4.06-.9 2.58-.37 1.52 1.15 1.12 2.3-.42.6-1.62.76-1.5 1.48.22 1.2 1.5.17 2.16.64 4.25 2.77 6.32 1.76 7.2-3.7z"/><path d="M191.06 199.6c-1 .82-1.77 2.1-3.32 1a1.77 1.77 0 0 1-.58-2.11c.58-1.78 1.94-1.36 3.23-1l.67 2.1z" fill="#f3edea"/><path d="M291.18 210.15c-3.95 0-7.9.42-11.84-.32.14-1.53 1.12-.75 1.85-.67 6.8-1.55 8.6-3.62 9.1-10.38a15.39 15.39 0 0 1 6.47 2.81c3.76 2.8 3.7 4.58-.4 6.7a36.62 36.62 0 0 1-5.18 1.85z" fill="#fdfeff"/><path d="M278.35 202.7c-.84.88-1.4 2.36-3.07 1.4a1.76 1.76 0 0 1-.84-2.3c.6-1.67 1.86-1.46 3.16-.92z" fill="#f8f3f1"/><path d="M281.2 209.16l-1.85.67c-5-1.35-10.14-2.2-14.46-5.34a23.88 23.88 0 0 1 8.09-4c.35 5.14 3.65 7.5 8.22 8.67z" fill="#fcfcfb"/><path d="M257.8 295.74c6.88-1.4 14-1.1 20.9-2.77-8.44 5.63-17.25 10.36-27 13-.27.07-.67-.34-1-.52 1.73-2.76 5.2-3 7.8-5.62-7.45 1.67-14.6 1.4-21.65 2.27-6.63.82-13.12-1-19.7-.75-1 0-2-.77-3 .1-4.37.1-7.22-3.44-11.15-4.48 5.7-.84 11.2 1 16.8.3 3.24-.77 6.53-.4 9.8-.33a133.31 133.31 0 0 0 22.4-1.46 12.07 12.07 0 0 1 5.81.24z" fill="#ba534d"/><path d="M214.13 301.5c.66-1.92 2.2-1.35 3.56-1.24a158.3 158.3 0 0 0 22.1.59 166.8 166.8 0 0 0 22.53-2.71c-3.73 3.84-7.65 5.66-11.65 7.35-12.76 4-24.92 2.5-36.54-4z" fill="#fdfdfe"/><path d="M257.8 295.74c-12.6 2.17-25.25 3.57-38 1.6 3.1-1.9 6.66-2.25 10.13-2.7a102.06 102.06 0 0 1 25.9.16c.72.1 1.58.02 1.97.92z" fill="#fdfbfc"/></svg>