<svg xmlns="http://www.w3.org/2000/svg" viewBox="0 0 500 500"><style><![CDATA[.C{fill:#ffcb07}.E{fill:#b79e94}.G{fill:#d5c6c0}.N{fill:#fdd0b1}.P{fill:#d47e84}.Q{fill:#917b6f}.T{fill:#d0d1d3}.e{fill:#818e93}.z{fill:#e2968a}.AD{fill:#f4bea1}]]></style><path d="M437.7 347.2A17.4 17.4 0 0 1 437 349a76.26 76.26 0 0 1-5.79 17.14c-3.06 9.65-7.83 18.5-12.92 27.17a192.77 192.77 0 0 1-63.1 65.55c-.9.58-1.9 1-2.87 1.5l-2.37 1.77c-1.1 1.27-2.78 1.5-4.14 2.32a4.58 4.58 0 0 1-3.25 1.74 171.21 171.21 0 0 1-50.86 18.85c-.66.95-1.62.74-2.54.68-1.92.25-3.72 1.22-5.72.9-4.52 1.64-9.32 1.73-14 2.2-14.2 1.47-28.45 1.73-42.62-.66h-1.5c-10-1-19.64-3.65-29.4-5.78-.35-.08-.64-.47-1-.7a158.4 158.4 0 0 1-36.08-14.65 184.88 184.88 0 0 1-43.47-31.25 28.92 28.92 0 0 1-5.75-5.68l-1.6-1.62-5.8-6.5-2.6-3.14a160.32 160.32 0 0 1-21.93-32.77 185.16 185.16 0 0 1-22.17-76.37c-4-61.25 16.14-113.34 59.82-156.36a132.41 132.41 0 0 1 17.22-14.48c.06-5.43 0-10.88 1.57-16.5-2.64 1.48-1.7 4.64-4 6.3 1.7-12.1 6.4-22.58 14.85-30.9 7.46-7.35 10.82-16.4 13-26.3l-5 9c6.08-24.6 18.4-43.5 45.2-49.38l-.78-.93-7.8 1.57c14.74-10.27 31.27-13.9 50.1-13.26-5.93-3.87-11.46-4.27-17.06-4.87a65.77 65.77 0 0 1 18.1-.44c10.13 1.38 18.9 6 27.25 11.58a44.4 44.4 0 0 0 19.9 7.5c-6-4.6-11.4-9.63-14.87-16.5 10.06 12 22.9 18.7 38.28 20.66-6.55-2.5-13-5.2-17.44-11.12 1.78 1.22 3.5 2.52 5.34 3.65 8.26 5 17.55 6.57 26.93 7.6A213.87 213.87 0 0 1 354.59 42c4.7 1.17 9.17 2.17 13.14 4.83 8.14 5.45 13.87 12.58 15.4 22.63a19.63 19.63 0 0 1-.72 8.89c-.82 2.6-.06 3.62 2.06 4.8 9.86 5.5 16.26 13.9 20 24.45a4 4 0 0 1 .06 2.13c-4.5-9.9-11.08-17.66-21.26-22 17.18 12.15 20.56 30.57 22.13 49.53a111.89 111.89 0 0 1-2.91 36.16 172.47 172.47 0 0 1 27.3 45.75c17.2 41.73 19.74 84.45 7.9 128.02z" fill="#fff"/><path d="M405.42 137.25c-1.57-19-4.95-37.38-22.13-49.53 10.18 4.3 16.76 12.07 21.26 22a4 4 0 0 0-.06-2.13c-3.76-10.54-10.16-18.94-20-24.45-2.12-1.18-2.88-2.2-2.06-4.8a19.63 19.63 0 0 0 .72-8.89c-1.53-10-7.26-17.18-15.4-22.63-4-2.66-8.44-3.66-13.14-4.83a213.87 213.87 0 0 0-28.42-5.44c-9.38-1-18.67-2.58-26.93-7.6-1.84-1.13-3.56-2.43-5.34-3.65 4.46 5.92 10.9 8.62 17.44 11.12-15.4-2-28.22-8.7-38.28-20.66 3.48 6.88 8.88 11.9 14.87 16.5a44.4 44.4 0 0 1-19.9-7.5c-8.36-5.56-17.12-10.2-27.25-11.58a65.77 65.77 0 0 0-18.1.44c5.6.6 11.13 1 17.06 4.87-18.82-.63-35.35 3-50.1 13.26l7.8-1.57.78.93C171.4 37 159.1 55.86 153 80.46l5-9c-2.2 9.9-5.55 19-13 26.3-8.44 8.33-13.15 18.82-14.85 30.9 2.26-1.66 1.3-4.82 4-6.3-1.56 5.63-1.5 11.08-1.57 16.5a24.32 24.32 0 0 0-.11 6.92l3.45 26.3c.24 2.15 0 4.63 1.86 6.36 1.42-.57 1.2-1.83 1.64-2.77.86-1.85 1.2.42 1.87.32l.4-.07c4.2-.78 7.7-3.6 12-4.12a1.73 1.73 0 0 0 1.31-1.1l.1-.23v-.1c0-8.3-.35-16.56.67-24.85 1.2-10 6.12-26.88 10.8-36a34.63 34.63 0 0 0-1.26 4.09c-.35 1.24-1.08 2.76 0 3.72l.15.12.23.16c1.4.84 2.67-.5 3.7-1.33A38.14 38.14 0 0 0 181 100.7a32.06 32.06 0 0 1 6.52-9.83 51 51 0 0 1 9.33-7.63 16.13 16.13 0 0 0-2.45 2c-.9.94-2.26 2.24-1.06 3.48 1 1.06 2.22-.33 3.15-1a54.16 54.16 0 0 1 19.66-8.86c7-1.72 14.15-3.1 21.26-4.45 5.48-1 11.06-1.9 15.93-4.94.23-.14.3-.26.2-.35s-.1-.1-.1-.12 0 0 0 0 .47.23.17.42c-3 1.75-6.26 2.73-9.26 4.35-.8.43-2.12.78-1.84 1.85.34 1.3 1.76 1.24 2.8 1 7.13-2 14.28-4.1 19.3-10a4.81 4.81 0 0 1 5.7-1.8c2.7.76 5.28 1.9 7.58 2.26-1.68-.15-3.63.3-5.45 2.67C287.24 71 298.83 80.07 311.15 85a23.66 23.66 0 0 1-3.61-1.45c-.85-.36-2-1.14-2.6-.1-.7 1.22.53 2 1.42 2.53a35.16 35.16 0 0 0 12.56 4.79c5.92 1.07 7.3 2.83 6.83 8.84-.4 5.16-2.5 9.75-5.12 14.13-2 3.42-4 6.85-5 10.73-.56 2.25-.88 4.6 1.1 7 1.63-2.2.9-4.4 1.8-6.1a11.55 11.55 0 0 0-.47 2 7.74 7.74 0 0 0-.16 2c.16 12.07-.82 23.92-4.7 35.53-1.82 5.44 1.1 11.18 6.18 14.58l.17.12a1.27 1.27 0 0 0 .91-.28l.17-.16v-.05a11.43 11.43 0 0 0-.22-3.87 8.62 8.62 0 0 0 2.15 3.46c.18.17.37.34.58.5a5.07 5.07 0 0 0 .45.36c4.52.74 9-1.28 13.55-.47-2 1.64-4.38 1.43-6.54 2.06-1.87.55-4.18-.23-5.56 1.78a.17.17 0 0 1 0 .07.83.83 0 0 1 .06.21 23.81 23.81 0 0 1 .4 10.22c-.23 1.44-1.6 3.53-.32 4.33a.78.78 0 0 0 .22.12 1.35 1.35 0 0 0 1.63-.21c-.72 1.12-1.5 2.16-2.3 3.2-.95 1.23-1.76 2.46-.43 4a4.92 4.92 0 0 1 .78 1.16.37.37 0 0 1 .05.11c.86 1.93-.13 3.76-1.17 5.65a15 15 0 0 0-1.46 4.67c-.27 1.53-.32 1.9.66 2.2l.38.1c.23 0 .5.1.82.18s-.05.22-.1.32c-3.42 8.05-.53 16.78-2.7 25-.46 1.8 1 1.92 2.13.77-2.25 5.1-2.15 5.64 2.28 7.1.1 0 .2.06.3.1h.23c1.85.3 3.56-.32 5.27-.85h.06l.44-.14c.56-.18 1.13-.35 1.68-.57l.28-.12.26-.1.28-.16a4 4 0 0 0 1.26-1.52 8.62 8.62 0 0 0 .59-1.66c0-.05 0-.1.05-.16l.15-.54 4.28-15.07 1.2-4.16c2.1-6.9 4.28-13.82 5.15-21a8.25 8.25 0 0 1 3-5.84 18 18 0 0 1 8-3.84c1.57-.34 3.4-1.1 4.63.3s-.55 2.63-1.14 3.9c-.36.76-1.22 1.6-.45 2.36l.07.06.1.08c.88.67 1.83 0 2.62-.53a40.12 40.12 0 0 1 5.89-3.65c4.75-2.1 6.85-.77 7.28 4.36.37 4.44-.75 8.63-1.7 12.86a7.14 7.14 0 0 1-.32 2.3 2.8 2.8 0 0 0 0 1.6 2.18 2.18 0 0 0 .91 1.1l.16.1h.1c1.33-.26 1.78-1.44 2.45-2.4a235.11 235.11 0 0 0 18.18-29.6l.82-1.65.86-1.8c1.58-4 4.1-7.76 3.5-12.4a111.89 111.89 0 0 0 2.98-36.25zm-75.94 55.9c-.13.3-.26.6-.4.88a5.53 5.53 0 0 1 .4-.88zm-.62 1.34a23.45 23.45 0 0 1-1.19 2.17 7.42 7.42 0 0 1 1.13-2.09s.05-.05.06-.08zM202.32 79.82c-1.36 1-3 1.9-4.73 3 1.6-1.08 3.18-2.05 4.73-3zM320 172.92a9.37 9.37 0 0 1-.14-3.24c0-.2.1-.38.15-.58s.1-.33.16-.5a20 20 0 0 0-.17 4.31z" fill="#9c9ea1"/><path class="C" d="M191.8 328.4l-.05.3a1 1 0 0 1 0 .24c-.68 4.33-1.92 8.36-5.9 11a4.37 4.37 0 0 1-.49.12l-66.86 15.68c-16 4.07-28.9 12.66-37.3 27.28-.8 1.36-1.4 3.1-3.47 3.06a185.16 185.16 0 0 1-22.17-76.37c-4-61.25 16.14-113.34 59.82-156.36a132.41 132.41 0 0 1 17.22-14.48q2.65 19.3 5.3 38.57l.34.05.35-6.8 3.15 5.18a0 0 0 0 1 0 0c-.73 4-2.33 7.35-6.48 8.9-1.24.45-2.86.72-2.78 2.47s1.73 1.9 3 2.26c2.17.6 3 2.05 3.13 4.2.44 9.2 3.32 17 12.15 21.47a3.24 3.24 0 0 1 1.5 1.87v.54a95.46 95.46 0 0 1-.1 15.31c-1 17.5-2.75 35.1 3.34 52.15a26.75 26.75 0 0 0 .29.82l.1.24a88.37 88.37 0 0 0 4.66 10.39c.2.4.42.78.63 1.16a75.31 75.31 0 0 0 10.49 14.68 80.18 80.18 0 0 0 7.82 7.52 20.26 20.26 0 0 0 .89.73l.6.48a52.28 52.28 0 0 0 8.83 5.62c.28.16.56.3.82.5a4.71 4.71 0 0 1 .56.44 3.81 3.81 0 0 1 .6.8z"/><path d="M334.18 338.22a113.22 113.22 0 0 0-2.84-23.22l-.22-.9c0-.07 0-.14-.05-.2a68.65 68.65 0 0 0-3.15-7c-2.3-4.7-4.6-9.4-8.74-12.84-2-.37-2 1.22-2.3 2.45-.9 3.28-.85 6.64-.87 10v.42c-.33 6.25-1.38 12.4-2.07 18.62-1.1 9.84-3.1 19.3-9.42 27.35a4 4 0 0 0-.92 2.65 2.48 2.48 0 0 0 .32.54.23.23 0 0 0 .07.1c.86 1.05 1.73-.22 2.48-.68 1.36-.87 1.86-2.6 3.2-3.5a22.78 22.78 0 0 0-3.34 4.46c-8 12.07-16.78 23.5-25.77 34.8-1.2 1.5-2.32 2.7-4.37 1.13s-1.1-3 .06-4.47c2.6-3.35 5.9-6.05 8.74-9.16 1.1-1.2 2.82-2.2 2-4.26a.19.19 0 0 0 0-.09l-.05-.12a2.28 2.28 0 0 0-1.57.11 4.68 4.68 0 0 0-1.45 1.11 10.23 10.23 0 0 1-1 .89c-6 5.75-12.58 10.8-20.23 14.33-1.4.65-3.74.78-3.72 3.13a.62.62 0 0 0 0 .13 2.46 2.46 0 0 0 0 .26c2.28 1.1 4.56 0 6.82-.13 4.12-.2 7.07 1.22 9.23 4.73a230.98 230.98 0 0 1 5.37 9.16c3.37 6 5.85 12.52 9.38 18.13-4.1-6.72-9.53-12.73-15.35-18.4-3.4-3.33-7.16-4.7-11.9-3a48.66 48.66 0 0 0-8.52 3.91c-6.95 4.17-13.63 8.77-20.24 13.46l4.76-3.8c3.42-2.9 7.1-5.54 10.07-9 1.1-1.27 2.43-2.92.47-4.15-4.43-2.75-9-5.4-14.5-4.92a1.19 1.19 0 0 0-.32 0h-.3c-3.42 4.86-4.54 10.6-6.22 16.14 0 .12-.07.22-.1.34s0 .35-.1.38h-.08c-.08 0-.08-.08-.1-.2v-.27l-.66-4.84a38.22 38.22 0 0 0-3.24-11.67c-.23-.45-.47-.88-.68-1.33a4.5 4.5 0 0 1-.2-.51 30.92 30.92 0 0 0-1.92-4.44c-3.73-7-9.82-11.1-18.33-12.23-4.57-.6-7.63-3.37-10.28-6.77a14.85 14.85 0 0 0-5.53-4.72c-2.77-1.26-4.67-.5-6 2.2s-1.3 5.36-1.17 8.1c-.15-1.52-.4-3-.42-4.57 0-3.25-1.26-6.43-.36-9.74s2-4 5.27-2.72a16.71 16.71 0 0 1 5.06 3.39c3.2 2.85 5.34 6.5 7.9 9.86 3 3.88 6.42 4.37 9.68 1.63.18-.15.35-.32.53-.5-.1-8.33-2.1-16.43-3.28-24.62l-1.27-9.27a87.47 87.47 0 0 0-2.09-10.6l-.28-1-.17-.6-.06-.18a4.25 4.25 0 0 0-4.74-1.92 3.89 3.89 0 0 0-.32.39 1.55 1.55 0 0 0-.13.17 6.15 6.15 0 0 0-.76 1.34c.14-.5.27-1 .4-1.52 0 0 0-.1.05-.13a.22.22 0 0 1 0-.08c-.52-1.25-1.13-2.28-2.56-1.23l-.2.17c-2 3.3-2.73 7.33-5.56 10.2-.24.32-.47.64-.7 1-3.48 5.13-5.14 11.1-7.5 16.74a39.57 39.57 0 0 0-3 17.16c.2 4.33.5 8.74-.32 13.05l-11.18 56.52c-1.64 7.85-3.66 15.63-4.5 23.63a158.4 158.4 0 0 0 36.08 14.65c1.15-1.08 1.5-2.57 2-4 2-5.22 3.77-10.54 5.68-15.8l9.32-24.66-14.6 40.7a8.74 8.74 0 0 1-2.43 3.73c.32.24.6.63 1 .7 9.77 2.13 19.43 4.8 29.4 5.78 1.68-7.48 4.84-14.46 7.33-21.66l11.58-33.46q-9 25.7-17.6 51.56c-.4 1.17-.7 2.4.2 3.5 14.17 2.4 28.4 2.13 42.62.66 4.67-.48 9.47-.57 14-2.2a5.88 5.88 0 0 0 1.67-2.76q3.27-11.18 6.84-22.28c5.46-16.85 10.22-33.92 17.48-50.17 7.7-17.17 15.06-34.48 20.7-52.48 2.08-6.65 4.3-13.48 4.07-20.63zm-141.28-2.44q-1.72 10.5-3.2 21c-.4 2.73-1.52 2.68-3.53 1.54s-1.23-2.37-.72-3.83c2.43-7 5.63-13.66 7.8-20.72a33.75 33.75 0 0 0-.35 2.01z" fill="#b1c1c6"/><path class="E" d="M426.93 363.3c-6.7-2.36-13.48-4.4-20.34-6.22-12.8-3.37-25.84-5.67-38.54-9.42-6.36-1.87-12.6-4.1-16.4-10a105.77 105.77 0 0 0-12.4-15.67c-2.58-2.72-4.62-6.12-8.14-7.84a8.7 8.7 0 0 0-1-.43c.2 1.2.32 2.42.6 3.6a82 82 0 0 1 2.29 23c-.7 11.9-5.3 23-9.42 34-9.44 25.33-22 49.44-29.24 75.65-3.4 12.3-8 24.26-11 36.68 2 .3 3.8-.66 5.72-.9 1.4-.86 1.82-2.33 2.3-3.75q8.65-25.56 17.43-51-8.6 25.3-17.14 50.65c-.4 1.14-1 2.32 0 3.48a171.21 171.21 0 0 0 50.86-18.85 11.78 11.78 0 0 0 2.79-4.46l8.3-21.78c1.54-3.73 1-6.74-1.43-9.85-4-5-7.75-10.22-11.57-15.36-2.72-3.66-2.66-3.78 1.57-4.93 3.28-.9 6.62-1.6 10-2.26 6.95-1.4 7.1-1.5 7-8.45-.13-11.43-1-22.84-1.37-33.42.13 2.1.35 4.36.6 6.62a1.19 1.19 0 0 0 .52.52l.17.07a1.86 1.86 0 0 0 .34.05 1.89 1.89 0 0 1 .3-.19s.12.06.12.1v.26c0 .4.05.8.07 1.2a185.12 185.12 0 0 0 2.94 19.62l1.5 8.7c.54 3.42.67 4.64-1 5.48a11 11 0 0 1-2 .69c-.36.1-.76.2-1.2.3a94.82 94.82 0 0 0-3.67 1l-6.6 1.8c-1.72.46-3.5.9-4.3 2.78a.22.22 0 0 0 0 .08c-.5 1.86.86 3 1.78 4.26l12 16 .3.2a2.07 2.07 0 0 1 .58.62c.45.82-.08 1.75-.48 2.67-2.5 5.84-4.63 11.82-7.16 17.64-.6 1.33-1.48 2.7-.27 4.15 1-.5 2-.92 2.87-1.5a192.77 192.77 0 0 0 63.1-65.55c5.1-8.67 9.86-17.52 12.92-27.17-.8-1.9-2.62-2.28-4.26-2.85zM321.57 393.7q-5.2 15-10.3 30L321.74 393c.08-.1-.03.3-.17.68z"/><path class="C" d="M437.7 347.2A17.4 17.4 0 0 1 437 349c-1.42 1-2.87.5-4.32.08l-52.56-15.6a13.09 13.09 0 0 1-7.18-5.11l-19-26.14c-2.92-4.12-2.8-5.15 1.3-7.9 19.1-12.68 30.23-30.4 34.75-52.83 3.37-16.75 5.5-33.6 7.2-50.57a55.48 55.48 0 0 1 .21-1.75 13.59 13.59 0 0 1 .88-3.41l4.3-12.42a172.47 172.47 0 0 1 27.3 45.75c17.13 41.78 19.66 84.5 7.82 128.07z"/><path class="E" d="M186 339.06l-.2.85c-1.24 4.88-3.88 9.2-5.67 13.87-2.55 6.64-4.7 13.26-4.14 20.57 1.08 14-3.35 27.38-5.8 40.93-2.9 16-6.44 31.86-9.75 47.77-.3 1.44-.48 3-1.6 4.08a184.88 184.88 0 0 1-43.47-31.25 5.69 5.69 0 0 1-1-3.88c.48-4.87.7-9.76 1.42-14.6.4-2.77 1.9-4.27 4.5-5.2 6.42-2.28 12.66-5 19-7.5 4.45-1.76 5.1-2.37 2.7-6.13-4.23-6.55-2.1-11.24 2.33-16.6 7.64-9.22 14.36-19.17 21.42-28.85.46-.64 1.34-1.2 1.1-2.17a1 1 0 0 0-.09-.25l-2.1 1.63a183 183 0 0 0-23.54 22.45l-11.18 12.5c-2.08 2.32-2.2 4.15.15 6.62 4.16 4.37 5.6 6.22 3.84 7.8-1 .94-3.16 1.78-6.5 3-4.76 1.7-9.36 3.8-14.1 5.52a7.08 7.08 0 0 0-1.63.81 5.2 5.2 0 0 0-2.16 3.85 73.28 73.28 0 0 0-.5 9c0 1.6.35 3.32-1 4.65l-5.8-6.53a9.55 9.55 0 0 1 .58-4 271 271 0 0 1 12.15-33.41c-5.17 8.23-9.42 18.34-12.77 28.87-.6 1.9-.74 4.07-2.56 5.4a160.32 160.32 0 0 1-21.93-32.77c3.67-5 6.65-10.56 11-15.1 10.22-10.57 23.35-15.22 37.16-18.44l57.3-13.13a24.25 24.25 0 0 1 2.87-.35z"/><path d="M437 349a76.26 76.26 0 0 1-5.79 17.14c-14.9-6.22-30.62-9.5-46.24-13.15a205.59 205.59 0 0 1-21.26-5.69c-5-1.73-9.72-4.06-12.55-8.65-5.48-8.84-12.8-16.08-19.77-23.65l-1.2-1.32c-3.17-6.7-6.42-13.33-11-19.24 0-.15 0-.28-.05-.43-1.13-8.55-1.7-17 4.5-24.26 3.34-3.93 4.77-9.15 8.38-12.92a2 2 0 0 1 .7-.08h.18a4.33 4.33 0 0 1 1.92 1.3c4.05 3.58 7.07 3.8 11.68.84 6.2-3.94 10.76-9.5 15.34-15.08a91.5 91.5 0 0 0 12.82-20.26 7.25 7.25 0 0 1 1.8-2.45 7.78 7.78 0 0 1 .43-.38l13.22-20.46c2.9-4.7 5.42-9.65 8.1-14.5l-.06 1.76a306.43 306.43 0 0 1-4.42 39.86 207.35 207.35 0 0 1-5.8 25.78c-5.43 18-16.54 31.7-32.1 41.84-3.47 2.27-3.36 3.8-1.06 6.8 6.43 8.42 12.58 17.05 18.8 25.63 1.46 2 2.92 3.8 5.5 4.56q28.35 8.37 56.66 16.87a6.09 6.09 0 0 0 1.26.13z" fill="#f4a31e"/><path class="G" d="M168 351.72l-26.86 36.4c-1.42 1.88-1.4 3.15-.38 5 1.17 2.14 1.86 4.54 3.06 6.67 1.5 2.65 1.07 3.93-2 5-7.4 2.7-14.66 5.83-22 8.64-1.72.65-2.67 1.35-2.9 3.34-.7 6.34-1.64 12.66-1.55 19.06a28.92 28.92 0 0 1-5.75-5.68c-.8-5.48.9-10.83.8-16.3a3.63 3.63 0 0 1 1.25-2.89 9.54 9.54 0 0 1 2.85-1.59l17.87-7c.56-.23 1.07-.46 1.5-.68 3.05-1.5 3.25-2.63 1.43-6.35-2.28-4.65-1.2-7.85 2.2-11.62 8.76-9.7 17-19.86 25.6-29.75l1.48-1.65c1.06-1.17 2.15-2.3 3.32-3.37 2.76.9.62 1.93.05 2.76z"/><path d="M167.94 349a22.81 22.81 0 0 1-1.14 2c-2.57 4.08-6.15 7.35-9.22 11Q147 374.67 136 387c-2.05 2.3-1.12 4.08-.26 6.27 2.92 7.38 2.88 7.4-4.44 10.28l-16 6.18c-2.8 1-4 2.55-4.1 5.66-.13 4.95 0 10-1.6 14.78l-1.6-1.68a92.91 92.91 0 0 1 .63-15.09 3.78 3.78 0 0 1 2.67-3.49l20.53-8c1.87-.7 3-1.27 1-3.2-1.26-1.22-2.06-3-3.4-4-3.17-2.5-3.4-4.65-.58-7.83 11.6-13.05 23.2-26.05 36.92-37a2.84 2.84 0 0 1 2.18-.89z" fill="#83726b"/><path class="G" d="M344.25 415.37c3.75 5.36 7.9 10.42 11.75 15.63 1.58 2.15 2.16 4.26 1.12 6.85l-9 22.83a15.93 15.93 0 0 1-2.41 3.77 4.58 4.58 0 0 1-3.25 1.74l10.25-27.06c1.17-3 1.05-5.15-1.06-7.78-5-6.23-9.6-12.84-14.5-19.2-1.47-1.9-1.1-2.25 1.12-2.66 5.33-1 10.6-2.36 15.92-3.38 2.83-.53 4-1.64 3.9-4.8-.46-14.15-1.3-28.3-.9-42.47a5.49 5.49 0 0 1 .42-2.42c0 5.47 1.26 10.8 1.23 16.26l.17.2a6.06 6.06 0 0 1 .85 3.66c.23 8.57.85 17.1 1.6 25.64.4 4.6-.58 5.85-5.1 6.78-3.6.74-7.12 1.86-10.74 2.5-2.77.54-2.92 1.75-1.4 3.9z"/><path d="M363.35 408.2a4.42 4.42 0 0 1-2.92 1.6c-3.86.7-7.58 2-11.4 2.88-1.4.33-3.1.48-3.2 2.53l11.55 15.62c.93 1.28 2.18 2.46 2.32 4.2a2.3 2.3 0 0 1 .47.9 4.6 4.6 0 0 1-.62 2.52c-3.06 8-6.17 15.92-9.66 23.7-1.1 1.27-2.78 1.5-4.14 2.32l10.56-27.4a4.33 4.33 0 0 0-.67-4.83l-13.1-17.17c-2.14-2.7-1.5-3.88 1.62-4.53l11.52-2.53c5-1 5.35-1.36 4.77-6.43a236 236 0 0 1-1.58-28.74v-.14h.8a.11.11 0 0 0 0 0l.26 1.5c1.18 6.55 2.1 13.14 2.87 19.74q.65 5.43 1.18 10.88a4.68 4.68 0 0 1-.65 3.37z" fill="#b8ada9"/><path d="M323.17 389.77q-15.78 47.66-31.52 95.3c-.66.95-1.62.74-2.54.68l33.24-96.26z" fill="#d4c4be"/><path d="M117.55 380.7c-2.15 5.3-4.43 10.55-6.4 15.92l-9 25.34-2.6-3.14c3.88-13.7 8.6-26.96 18-38.12z" fill="#83726a"/><path d="M245.26 430.75l-18.48 57.47h-1.5a3.16 3.16 0 0 1-.4-3.42q9.6-26.28 19.1-52.6a10.66 10.66 0 0 1 1.28-1.45z" fill="#828f94"/><path d="M361.3 437.53q-4.1 9.9-8.15 19.8a28.61 28.61 0 0 0-.87 3.08l-2.37 1.77c-.6-3.3 1.63-5.78 2.64-8.6 2.22-6.14 4.7-12.17 7.06-18.26 0-.1.08-.2.1-.28 3.1-.8 2.3.84 1.58 2.5z" fill="#7f6e67"/><path class="N" d="M325.34 183.12c3.42 3.18 1.24 7 1.17 10.58 0 1.25-.8 2.5-1.43 4.37 2.94-1.83 3.12-4.68 5.28-7.65a22.63 22.63 0 0 1-6.42 12.83c.92 1.06 1.56-.4 2.45.1.4 1.2-1.5 1.36-1.25 2.7l3.48-1.2c-2.47 4.7-5.1 8.9-5.45 14 1.6-.53 1.5-2.74 3.52-2.9-5.63 9.13-.84 19.66-4.7 29 1.9.22 1.45-2.08 2.95-2 .35 1.23-.34 2.38-.84 3.34-1.4 2.74-1.1 4.48 2.18 5.07.93 2-.2 3.73-.94 5.44a67.66 67.66 0 0 1-13.82 20.16c-10.54 10.93-21.6 21.3-34.12 29.93-1.5 1-3.25 3.24-4.94 1.88s.1-3.55 1-5.1a69.1 69.1 0 0 0 8-26.87c.24-.5-.66.13-.12 0 .1 0 .1.1.08.37-.93 12.23-5.75 22.85-13.14 32.5-3.58 4.68-7.75 8.6-13.17 10.75-19.37 7.68-39.02 10.58-59.23 3.58a44.88 44.88 0 0 1-23-17.08c-5.4-7.95-7.8-17.37-7.92-27.16a62.38 62.38 0 0 0 2 14.38c.3 1.26 1.3 3.07-.16 3.7-1.7.73-2.4-1.3-3.17-2.5-4.47-7.06-7.77-14.7-11-22.4a89.38 89.38 0 0 1-1-24.35c.67-7.68.75-15.47 1.1-23.2.1-2-.2-4.1.42-6.1 1.3-2.77 3.57-1.75 5.68-1.5 9.06 1.12 18 .8 26.48-2.9 9.93-4.3 17.12-16.56 16.65-28.3-.2-5.28 1.18-6.55 6.73-6.16 1.67 1.62.6 3.3 0 4.88l-9.2 24.42c-.44 1.1-1.84 2.74-.08 3.55 1.93.88 2.9-.75 3.4-2.47l7-23.87c.74-2.4.95-5.16 3.43-6.72 2.6-.9 5.1-.36 7.53.6 2 .78 3.16 2.17 2.82 4.38a28.62 28.62 0 0 0 4.06 19.83 3.84 3.84 0 0 1 .56 1.93c-1.08 2.05-.2 4.45-1.27 6.6-.53 1.06 1.1 1 1.9 1.43-1-2.5-2-4.93-.4-7.5 1.37-.1 2.26.77 3.22 1.52 12.42 9.8 26.78 11.46 41.75 9.36 10.94-1.53 15.05-10 16.3-21.5a27.25 27.25 0 0 0 0-5.71c-.3-2.82.9-4.08 3.67-4a13.39 13.39 0 0 0 4.44-.61l22.5-3.84c1.7-.3 3.43-.85 5.04.4zm-170.7-12.72c-1.4-6.74-1-13.6-.46-20.3a113.21 113.21 0 0 1 9.6-37 34.32 34.32 0 0 1 5.34-8.69l-4.1 13.5a35.07 35.07 0 0 0 14.85-17.26c4.83-12 14.9-17.74 25.8-22.65-4.17 3.28-9.26 5.47-12.17 10.4 13.75-11.37 31-12.13 47.24-15.75 5.43-1.2 11-2.14 15.74-5.38-3.56 4.18-8.7 5.84-13.18 8.54 7.9-2.2 16.13-3.72 21.4-11.1.8-1.14 1.43-2.35 3.2-1.82 4.78 1.42 9.6 2.72 14.14 5-2.9 0-5.82-.55-9.12 1.43 16.35.68 28.14 11 41.86 16.8-3.32-.12-6.18-1.7-9.3-2.48a29.66 29.66 0 0 0 14.75 6.17c5.58.78 6.3 1.47 6.66 7.2.42 6.6-2.5 12.16-5.6 17.66-2.67 4.72-5.8 9.32-4.8 16 .87-3 1-5.6 3.3-8.52-1.65 6.17-1.3 11.34-1 16.48a51.11 51.11 0 0 1-3.38 21.34c-2.88 7.6-1.34 13.82 4.23 19.37-.17 1.42-1.35 1.64-2.4 1.8-7.67 1.27-15.33 2.57-23.07 3.32a8.56 8.56 0 0 1-5.55-1c-4.15-7.46-11-10.23-19-10.84a6.29 6.29 0 0 1-2.63-1c-6.36-6-14.3-8.16-22.6-9.44-2.23-.35-5.25 0-6.1-2.4s1.63-4.17 3.17-5.8a33.71 33.71 0 0 1 10.7-7.08c-3.33 1.8-8.2 3.6-12.4 6.75a18.7 18.7 0 0 0-7.63 13.86 11.46 11.46 0 0 1-.64 4c-2.56 2.54-5.83 4.4-7.3 8a2 2 0 0 1-2.41 1.1c-4.92-1.95-10.25-.3-15.2-1.8-1.4-1.25-1.27-3-1.2-4.56.55-10.8-3.9-18.64-13.67-23.4-1.45-.7-2.6-1.9-3.84-2.27 4.1 2.2 8.13 5.07 10.66 9.6 2.08 3.72 1.26 5.65-2.84 5.57-8.4-.15-16.13 2-23.58 5.64-5 .36-9.9.77-14.8 1.62a3.07 3.07 0 0 1-2.68-.65z"/><path d="M341.7 226.6c1.62-6.42 4.18-12.8 4.6-19.3.52-7.86 5.6-9.86 11.43-11.74 2.46-.8 5.6-1.85 7.15.65s-1.85 4.05-3.43 6.93c2.94-1.88 5.1-3.44 7.42-4.73 6.3-3.5 9.44-1.6 9.76 5.46.2 4.16-.8 8-1.73 12-5.06 16.85-15.65 29.88-28.55 41.3a14.83 14.83 0 0 1-2.31 1.68c-6.4 3.8-11.35 1.45-12.75-6a3.64 3.64 0 0 1 .8-2.42c1.5-.4 1.53-1.8 1.87-2.88 2.18-6.93 4.15-13.9 5.73-20.97z" fill="#fabca3"/><path class="P" d="M153.92 273.4a141.57 141.57 0 0 0 12.92 25.18c-.9-4.32-1.83-7.5-2.15-10.76a59 59 0 0 1 .17-10.2 93.86 93.86 0 0 0 5.76 22.8c3.33 8.85 10.1 14.48 17.83 18.92 12.1 7 25.32 8.48 39.1 7a111.19 111.19 0 0 0 23.46-5.29 31.44 31.44 0 0 0 15.45-10.91c7.16-9.47 13.06-19.45 14-31.67a8.46 8.46 0 0 1 1.1-3 65.69 65.69 0 0 1-9.06 33c4.95-2.35 9.07-5.75 13.23-9a205.79 205.79 0 0 0 30-28.87 58.66 58.66 0 0 0 10.61-19.19c2 .23 3.7-.65 5.56-1 1.6 2.13 0 3.88-.74 5.67-6.56 15.18-17.36 27-30.24 36.93-13 10.1-25.7 20.67-40.05 29a82.4 82.4 0 0 1-37.75 10.82c-7.48.38-15 .47-22.3-1.9-8.2-2.67-16-6.07-22.53-12-12.38-11.28-21-24.83-24.92-41.24-.37-1.5-.78-3.04.55-4.28z"/><path class="Q" d="M206.3 178.47c5-.17 10-.84 14.78 1.14 1.18.5 2.07.55 2.47-.94 1.05-3.9 4.34-5.63 7.4-7.6 2.73-2.46 6.22-2.42 9.54-2.76 2.4-.24 4.85-.2 7.28-.33 3.7.16 7.38.86 11.1.84A17.64 17.64 0 0 1 267 171c3.28.7 6.55 1.52 9.86 2 5.76.92 9.4 4.24 11.44 9.53a2.17 2.17 0 0 1-2.06 1.07 2.36 2.36 0 0 1-1.31-.92c-2.73-4.74-7.23-6.24-12.27-6.93-2.15-.3-4.32-.44-6.45-.9-1.27-.16-2.32-1.1-3.65-1-1.9-.32-2 2.5-3.88 2.24-1-2.08-2.47-3.52-5.05-3.1h-4.9a57.92 57.92 0 0 0-8.93.38c-3.67.06-7.2.67-10.25 2.9-7.5 9.17-4.22 26.2 6.43 33.15 7.55 4.92 16 6.78 24.86 7.27 1.64.1 3.28 0 4.92 0 14.53.4 20-6.4 21.46-21.06a25.5 25.5 0 0 0-.22-5.72c-.16-1.33-.56-2.76.9-3.7 3.3.05 6.7-.77 9.7 1.38-2.1 1.68-5.7-1-6.86 1.67-.88 2 .1 4.82 0 7.26-.7 15.7-8.82 23.56-24.5 23.8-11.64.2-22.72-1.78-32.74-8.16-2.06-1.3-3.25-3.75-5.84-4.28h.06c-3.33-5.76-5.92-11.7-5.7-18.6.25-7.82-.77-8.6-9.1-8.48a3.06 3.06 0 0 1-4.1.11c-5.77.75-5.6.93-5.7 6.3-.22 13.1-7.5 28-25.28 31.28-7.17 1.33-14.36 1.74-21.52-.06-.82-.2-1.56-.47-2.28.17a2.73 2.73 0 0 1-2.28-1.6c-9.75-4.1-13.67-12.1-14.25-22-.2-3.12-1-4.83-4.25-4.86-1.32 0-2.52-.28-2.3-2 .15-1.25-.64-3.42 1.14-3.45 6-.1 6.68-5.55 9.55-8.8 3.62-3.47 8.45-4.05 12.94-5.43a101.66 101.66 0 0 1 18.16-2 21.47 21.47 0 0 1 12.25.13c-1.52 2.17.7 1.1 1.14 1.17 1.8.33 3.55 1.05 5.44.85a6.73 6.73 0 0 1 4.64 3c2.42 3.66 5.55 5.6 10.06 4.86z"/><path d="M200.6 330.1c4.1.1 8 1.6 12.1 1.74 19.62.7 38-3.4 54.16-14.8 17-12 34.24-23.75 48.7-39 6.94-7.3 11.73-15.94 15.93-25a4.86 4.86 0 0 0 .36-2.78c.7-.8 1.62-.5 2.5-.45.26.15.35.3.25.43s-.18.2-.28.2l-.15 2.46c-.6 1.3.2 3.1-1.5 4-3.62 6.22-7.15 12.47-11.52 18.24-1.92 2.53-1 6.05-1.36 9.12-.4 3.36-.4 6.77-.6 10.17-2.7 1.7-1.53 4.6-2.1 6.94-.43 1.77-.1 3.72-.13 5.6-2.46-.7-1.8-2.83-1.68-4.36l1.18-15.5c.15-1.58.77-3.17-.1-5-12.26 12.62-26.63 22.37-40.46 32.78-13.4 10.12-28.1 17.5-45.1 19.12-5.28.53-10.57 1.17-15.9 1.23a10.6 10.6 0 0 1-1.26 0c-1.67-.1-3.27-.7-4.94-.77a28.43 28.43 0 0 1-6.14-1.15c-1.16-.4-2.43-.6-3.35-1.5a10.26 10.26 0 0 0-4.33-1.58c-.32.17-.55.1-.68-.23l-2.64-1.15-1.74-1.15c1.4-1.2 2.78-.5 4.06.13a45 45 0 0 0 6.72 2.28z" fill="#93454b"/><path d="M161.74 90.1c1.55-6 4.5-11.3 7.7-16.46 6.74-10.8 14.47-20.56 27.54-24.2 6.73-1.87 13.68-2.45 20.55-2.8 10.47-.54 20.95-.6 31.36 1.4-5.76 0-11.54-.14-17.3 0a123.92 123.92 0 0 0-29.4 4.16c-14.2 3.9-22.95 14.6-31.77 25.2-3.27 4-5.87 8.43-8.68 12.73z" fill="#d0d1d2"/><path class="T" d="M358.38 65.64c-13.66-9.42-29.5-12.4-45.13-16-16.4-3.75-32-9.45-46.33-18.6l18.88 7.2C300.16 43.47 315 46.7 330.1 49c11.36 1.76 20.5 8.33 28.3 16.64zm-104.73-9.52c-31.66-.6-55.06 15.22-75.27 37.06.4-3.1 5.6-11.13 9.76-15.88C198.9 65 213.2 60.05 228.6 57.05c7.52-1.46 15.17-1.3 22.7-2.33.7-.1 1.7-.37 2.34 1.4zm94.95 18.44c-7.56-6.9-17.14-6.8-26.27-7.58C306.1 65.6 291 61.6 278.1 51.08c-.63-.52-1.25-1-1.83-1.62a10.36 10.36 0 0 1-1-1.61 126.4 126.4 0 0 0 33.52 12.82 97.42 97.42 0 0 0 21.35 3.07c8.03.1 14 4.32 18.47 10.82z"/><path d="M297.62 187.57c-3.33-.4-6.76.36-10-1-1.52-.62-1.84-1.64-1-3a1.8 1.8 0 0 1 1.75-1c3.3 1.28 6.7.83 10 .27 7.07-1.2 14.27-1.58 21.23-3.45a3.31 3.31 0 0 0 .77-.09 2.49 2.49 0 0 1 3.29-.13l13.67-2.1c1.2-.2 1.8.2 1.9 1.45.1 1.42-.3 2.25-1.92 2.5-4 .62-8 1.43-12 2.16z" fill="#877265"/><path class="T" d="M253.73 33.7c-29.46.35-58.9.36-82.3 22.72 2.78-4.76 6.8-8.43 11.23-11.65 8.32-6 17.82-9.22 27.82-11.1 14.43-2.67 28.86-2.25 43.25.03zm81.92 124.12c-7.57-17.46-4.63-42.43 11.24-58.52-7.9 19.43-14.27 38.07-11.24 58.52z"/><path d="M332.64 257l1.5-4c1.9 7.35 6.84 8.9 13 4 8.56-6.85 15.17-15.4 21.23-24.44 3.5-5.2 5.4-11.22 8.55-16.6.72 1.64-1.78 3.26 0 4.9-6 15-15.65 27.17-27.74 37.6a16.22 16.22 0 0 1-5.25 3.05c-4.93 1.6-7.58.56-11.3-4.54z" fill="#c77978"/><path class="T" d="M330.08 81.37C309.75 80.7 292.14 73 276.62 60c16.85 9.46 35.08 15.44 53.46 21.37zm30.38 35.23c2 6.87 4.8 13.32 7.23 19.92 4.58 12.44 1.34 23.84-5.32 34.62a21 21 0 0 1-4.82 5.62l4.16-7.1c5.57-9.57 7.12-19.57 3.15-30.15a67.58 67.58 0 0 1-4.4-22.91zm-207.8-3.08c-5.22 8.4-6.77 17-7.6 25.57a116.36 116.36 0 0 0-.08 26c-5.6-13.44-4.97-40.8 7.68-51.57z"/><path d="M325.54 126.6c2-12.84 5.87-24.92 16.16-34-6.3 10.9-12.52 21.8-16.16 34z" fill="#d1d2d3"/><path class="P" d="M334.3 250.5a.7.7 0 0 1 0-.63c2.93-6.93 4.25-14.35 6.56-21.47a15.11 15.11 0 0 1 .83-1.78c-.57 8.1-3.38 15.65-6 23.22-.13.34-.9.44-1.4.66z"/><path d="M323.66 179.12l-3.3.13c-.77-4.15-1.63-8.3.55-12.48-1.8 4.8.3 8.62 2.74 12.35z" fill="#e9c8af"/><path d="M200.6 330.1c-3.9.54-6.88-3-10.78-2.4-13.36-5.88-22.17-16.57-29.32-28.68-8.05-13.63-11-28.7-10.52-44.4.36-12.55 1.2-25.07 1.82-37.6a3 3 0 0 1 2.27 1.6q-.9 21-1.8 42.1a36.41 36.41 0 0 0 1.65 12.7c.55 9.82 4.66 18.45 9.7 26.5 8.62 13.82 19.77 24.86 36 29.5a3.42 3.42 0 0 1 .99.7z" fill="#91434c"/><path class="N" d="M213.77 334.2a1.25 1.25 0 0 1 .74 0c10.17 3.9 20.3 8 31.48 7.88a43.42 43.42 0 0 0 19.68-4.74c6.9-3.55 13.78-7.2 21.26-9.48 1-.32 2.06-.7 3.13-.94 6.44-1.43 10.1 1 9.93 7.58-.3 11.74-3 22.92-9.56 32.9-2.17 3.3-4.83 6.25-7 9.56a66.91 66.91 0 0 1-20.13 14.43c-1.6.73-3.33 1.25-4.6 2.6-3.1 3.72-7.32 5.37-12 5.9a30.39 30.39 0 0 1-8.51-.27c-1.5-.25-3-.55-4 1q-3.2 8.63-6.44 17.25c-1.58-2.5-1.3-5.38-.9-7.9.8-4.86-.4-9.47-.73-14.2-.63-9.4-7.18-15.3-13-21.5a26.4 26.4 0 0 1-6.58-12.29L201 337.34c-.3-1.4-2.47-4.2 1.25-4.95l6.48 1.27c3.65 4.44 3.43 10.14 4.93 15.28.3 1 .1 2.13.6 3.1.24.5.95-.1.44.12a.18.18 0 0 1-.26-.16c-.98-5.93-3.34-11.77-.66-17.8z"/><path d="M283.46 377c.57-3.7 3.23-6.22 5.25-9.06 7.22-10.16 9.83-21.74 10.2-33.87.17-5.77-2.94-7.68-8.68-6.08a97.45 97.45 0 0 0-21.41 9.1c-15.62 8.8-31.4 7.3-47.22.95-2.44-1-5.36-1.36-7.08-3.8 16.34-.57 32.28-2.7 46.8-11.1 9.48-5.47 18.16-12.05 26.8-18.7 10.1-7.78 20.68-15 29.88-24.35l-1.3 18.13c-.22 3-.9 5.9.26 8.8a189.74 189.74 0 0 1-4.83 34.07c-1.43 5.75-5.62 10.14-8.42 15.23-3 6.48-8.7 10.8-13.23 16-.93 1.06-1.9 2.37-3.65 2.15z" fill="#de898d"/><path d="M234.23 400.68c-.48-2.6 1.58-2.74 2.94-2.34 8 2.4 14.94-.1 21.57-4.3 1.06-.2 2.12-.47 3.2-.6 5.4-.65 10.42-.9 13.93 4.82 6 9.73 10.7 20 15.44 30.42-5.58-6.65-10.82-13.5-16.93-19.63-3.84-3.85-7.7-5-12.83-2.92-7.68 3.08-14.15 8.1-21 12.46-3.16 2-6 4.52-10 5.2l11.6-9.85c1.24-1.05 2.56-2 3.7-3.2 4.7-4.73 5.25-3.8-1.1-6.82a31 31 0 0 0-10.52-3.23z" fill="#849197"/><path d="M202.25 332.36c-1.43.24-1.13 1.13-.9 2.13 2.54 10.84 4.64 21.8 7.77 32.48 1.45 4.9 6 8.43 9.76 11.87 6.14 5.64 7.6 12.77 8.94 20.4 1.1 6.32-.73 12.47 0 18.7-.07.4 0 .94-.24 1.18-.85.86-.68-.18-.75-.5-.48-2.4-1-4.8-1.36-7.22a49.77 49.77 0 0 0-2.58-10.64 57.68 57.68 0 0 1-2.27-6.84c-2.14-6.92-6.35-11.77-13-14.48a2.45 2.45 0 0 1-1.19-1.06q-3.57-23.28-7.15-46.56c.94.2 2.07-.35 2.96.55z" fill="#e3898e"/><path d="M206.36 378.37a17.61 17.61 0 0 1 12.4 8.95 28.61 28.61 0 0 1 4.1 13.43c-4.27-10.9-11.7-17.55-23.77-18.75-3.62-.36-6-3.67-8.08-6.55-1.93-2.65-4.4-5.54-7.47-4.73-3.33.88-3.24 4.9-3.4 8-.1 2.3 0 4.63-.34 7-1.65-7-3.5-13.92-2.13-21.2.5-2.62 1.88-3.6 4.7-2.68 6.74 2.18 10.55 7.42 14.14 12.94 3.05 4.68 4.4 5.22 9.84 3.6z" fill="#839096"/><path d="M286.8 374.5c6.1-5.63 11.37-12 16.88-18.2 3-1.57 4.9-4.2 7.42-7.74-.35 3.5-2.07 5.25-3.22 7.06-8.46 13.27-18.25 25.57-27.93 37.95-2.38 3-3.62-.3-5.3-1.07-2.24-1-1.62-2.08-.43-3.73 2.9-4 6.73-7.1 10-10.72 1-1.07 2.4-1.9 2.6-3.56z" fill="#d1dbde"/><path class="e" d="M194.9 481.78c1.8-8 5.06-15.48 7.9-23.1l16-41.78c.94 2.13 0 3.3-.34 4.35L198.18 479c-.57 1.6-1.07 3.17-3.27 2.82z"/><path d="M194.2 330a.76.76 0 0 1 .68.23q-2 13-4.1 26l-1 5.42a7.85 7.85 0 0 0-1.46-.8c-6.3-1.56-4.93-5.14-2.9-9.5 3.23-6.98 5.25-14.48 8.77-21.35z" fill="#d1dbdd"/><path d="M231.82 436.7c0 3.95-1.86 5.9-5.6 5.77-3.48-.1-5.13-2-5.12-5.42 0-3.86 2-6 5.53-6.1 3.37-.08 5.2 1.9 5.2 5.74z" fill="#9a9d9f"/><path d="M255.7 432.36l36 3.52c-12.34 2.72-24.36 2.06-36-3.52z" fill="#828f95"/><path class="e" d="M203.43 419.62c-10.18-9.68-17.7-20.72-18.08-35.43 3.46 13.13 10.04 24.66 18.08 35.43z"/><path d="M345.84 415.2c-1.45-1.8-.2-2.2 1.3-2.58 3.8-.94 7.56-2.25 11.4-2.8s4.73-2.35 4.3-6c-1.23-10.33-2.1-20.7-3.14-31.07 2.66 4.74 2.06 10.17 3.22 15.24 1.26 5.52 1.83 11.2 3 16.74.56 2.64.17 4-2.62 4.7-4.33 1-8.6 2.34-12.9 3.5-1.68.44-3.4.8-4.55 2.3z" fill="#86756d"/><path d="M176.13 277c-.4.38-1.35.5-1.23.14 2.28-7 3.52-14.72 11.2-18.55 4.22-2.1 8.3-3.62 13.27-2.52 4.35 1 9-.5 13.42.6 12.54 3.1 22.3 10.43 30.5 20.1-.5 1.86-1.3.54-1.93.13-10.56-6.92-22.3-10.83-34.57-13.16a82.28 82.28 0 0 0-13.78-1c-6-.1-10.4 3.6-13.36 8.8a27.53 27.53 0 0 1-3.54 5.49z" fill="#e37b7e"/><path d="M176.13 277c2.63-4.34 3.92-9.6 8.57-12.57 3.64-2.32 7.37-3.6 11.87-2.5 5.7 1.37 11.7-.06 17.45 2.14 9.82 3.77 20.45 5.66 28.63 13 .07.06.43-.22.66-.34a7.33 7.33 0 0 1 1.2 1.08 8.67 8.67 0 0 1 1.39 2.7c-8-6.32-17.67-8.1-27.16-10.5a111.92 111.92 0 0 0-31.47-3.15c-3.75.13-5.47 2.54-7.17 5.2-1.1 1.85-1.52 4.25-3.97 4.94z" fill="#f3898e"/><path d="M201.4 230.93c5.6 2.66 8 2.44 10.56-1 3.57 2.3 7.7.93 11.5 1.78 7.2 4.66 11.78 3 11.8-8 1.8 3 2.1 7.22.67 9.68-1.78 3-4.68 3.48-7.82 3.33s-6.27.35-9.34-.68a4.91 4.91 0 0 0-4 .5 7.78 7.78 0 0 1-2.22 1c-7.66 1.14-14.76-2.37-22.26-3-3.8-.33-3-5.7-2.62-9.46 1.13 1.28.43 2.66.75 3.86.88 3.3 3.23 4.15 5.62 2 2.5-1.08 4.97.33 7.38-.01z" fill="#de9086"/><path d="M254 302.28c-22.92-11.66-46.4-13.57-70.17-6.18 1.32-3 6.1-5.87 13-6.88a92.83 92.83 0 0 1 33.27 1.38c8.77 1.9 15.96 7.4 23.9 11.68z" fill="#dd8f85"/><path d="M208.85 180.9l4.1-.1c-3.56 9.86-6.12 20-9 30.07-.73 2.52-1.1 5.06-4.8 3.77-.52-.18-1.27.26-2.52.56 1.58-6.42 4.45-11.95 6.4-17.8 1.84-5.53 4.45-10.8 5.8-16.5z" fill="#fee8d9"/><path d="M260.46 280.75c4.22-3.8 3.5-7.73 1.92-11.88a93.82 93.82 0 0 0-7.38-15.45 10.32 10.32 0 0 1-1.41-4c4.7 8.1 11.5 15.22 11.77 25.32.13 3.58-.77 4.52-4.9 6z" fill="#dc8b83"/><path d="M223.46 231.73c-5.34 1.78-9.46 1.15-11.5-1.78 3-3.54 6.66-2.22 10.2-1.2 1.4.4 1.73 1.6 1.3 3z" fill="#c0656a"/><path d="M171.27 264c1.44-7 3.72-13.5 8-19.22z" fill="#e8a091"/><path d="M202.86 219.35a3.28 3.28 0 0 1-3.29 2.51c-1.84 0-3.45-.63-3.5-2.54 0-1.4 1.34-2.34 2.86-2.3a4.07 4.07 0 0 1 3.93 2.32z" fill="#fee7d9"/><path d="M227.7 207.87c1.14 2.92.53 6.57 3.6 8.9l-6.45-1.77c1.62-2.16 1.7-4.86 2.9-7.15z" fill="#de9186"/><path d="M201.4 230.93c-2.46 1.54-4.9.94-7.34 0-1.67-1.34-2-2.33.67-2.5s4.5 1.5 6.67 2.5z" fill="#bf6369"/><path d="M256.64 289.36c-3.9-.5-7.42-1.3-10.13-5.38z" fill="#e49a8c"/><path d="M294.08 139.15c-10.8-8.9-22.53-11.9-35.7-10.18-4.7.6-9.55.3-14.33.3-1.1 0-2.67.7-3.12-1-.35-1.3.54-2.35 1.42-3.23a9.39 9.39 0 0 1 4.26-2.37 79.46 79.46 0 0 1 27.95-2.88c11.95 1.04 17 6.32 19.52 19.35z" fill="#797d7f"/><path d="M185.08 169.27l-12.3-.85c6.73-4.4 14.3-5.57 22.14-5.64 1.27 0 3 .7 3.74-.76s-.6-2.5-1.26-3.63c-3-5.07-8.14-7.84-12.92-11.36 11.42 1.56 21.47 12.55 21.85 23.67.08 2.6 0 5.18 0 7.77-3.6 2.23-6.36 1.46-8.83-2-1.54-2.14-3.16-4.43-5.94-5.3-2.24-.42-4.52-.66-6.5-1.9z" fill="#e79693"/><path d="M248.37 168.77c-5.8.82-11.72.7-17.42 2.3-.52-10 4.1-16.92 12.9-21.2 3.84-1.86 7.7-3.76 12-4.56-3.8 2.63-8.12 4.4-11.53 7.56-.4.36-.94.57-1.33.95-1.74 1.7-4.4 3.77-3.95 5.74.4 1.7 3.95 1.27 6.15 1.7 8 1.6 16.13 3 21.86 9.68a28.35 28.35 0 0 1-8.26-1.46c-3.45-.6-6.95-.4-10.42-.72z" fill="#e69593"/><path d="M163.07 138.05c1.57-10.45 4.2-13.12 13.93-14.3 4.38-.53 8.72.18 13 .77a5.86 5.86 0 0 1 3.9 2.08c.84 1.06 1.88 2.32 1.4 3.66s-2.12.74-3.25.8l-14.73.63c-5.22.32-8.73 1.84-14.25 6.37z" fill="#797c7f"/><path class="z" d="M185.86 106.9c5.6-2.52 11.44-1.9 16.75-.22 14.46 4.6 28.7 2.94 43.1 0 11.1-2.23 22.3-3.57 33.5-.5a12.46 12.46 0 0 1 5 2.45l-10.7-2.42c-11-2.14-21.7.5-32.24 2.73-13.65 2.9-26.88 2.77-40.23-1.28a31.76 31.76 0 0 0-15.19-.77zm102.5-4.74c-2.1 0-4-.87-5.87-1.62-12.9-5.12-26-4.15-39.33-2.14-8.5 1.27-16.36 4.95-25 5.63a19.19 19.19 0 0 1-13.61-3.75c3.67.85 7 2.84 11 2.8 7.4 0 14-3 21-4.65 16.34-3.77 32.53-4.92 48.47 1.7 1.22.5 2.77.47 3.35 2zm-13.63-12.3c-4.86-1.12-9.28-2.82-14-3.32-7.47-.8-14.25 1.53-21 4.24-8.4 3.4-16.82 3.08-26.28.46 3.06-.88 5.07 0 6.92.45 6.72 1.5 13 .2 19.08-2.4 10.8-4.56 21.64-6.24 32.76-1.13.86.37 1.8.42 2.52 1.7z"/><path d="M251.4 113.8c11-2.75 22-4.52 32.92.32-5.37-1.7-10.93-1.26-16.46-1.37a130.49 130.49 0 0 0-16.46 1.05z" fill="#e3988b"/><path d="M202.47 115.65a52.62 52.62 0 0 0-23.33-1.65c8.04-3.23 15.8-2.3 23.33 1.65z" fill="#e49a8d"/><path class="z" d="M288.37 102.16c2.42 0 4.2 1.3 5.9 2.8a13.11 13.11 0 0 1-5.91-2.8z"/><path d="M360.8 216.84c2.43-2.35 2.3-5.15 3.6-7.56 1.28 12.86-.2 15.68-12.14 17.1a23 23 0 0 0 4.91-17.06c4.12 1.1 3.08 4.44 3.63 7.53z" fill="#dd9086"/><path class="AD" d="M286.6 183.55l1 3a35.94 35.94 0 0 1-1.06 18.51c-2.4 7.2-7.25 11.65-14.7 12.38-11.53 1.13-22.84.08-33.4-5.38-13.67-7.06-15.8-18.93-12.62-32.3a6.92 6.92 0 0 1 3.59-4.75c2.77 1.35 1.63 3.27 1.1 5 2-2.14 3.63-5.2 7.12-6.13 3.72.36 6.57 3.4 10.42 3.34 4.17.45 8.32 1.38 12.54.6a10.19 10.19 0 0 1 3.09-.41c2.38.1 2.83-1.15 2.43-3.13 4.45-.47 8.7.68 12.9 1.78 3.84 1.03 5.58 4.5 7.6 7.5zM153.88 173.5a44 44 0 0 1 14.67-2.29c.76 1.5-2 3.33.45 4.67 5.23 2.8 11 2.1 16.6 2.6 1.2.1 2.43-.22 3.45.67 2.67.35 5.16-3.28 8.1.17a14.18 14.18 0 0 1 3.28 12.92c-3.32 15.42-13.42 23.9-29.23 24.7a63.23 63.23 0 0 1-12.22-.3c-3.28-.47-4.84-2-4.46-5.32-1.44-1.76-1-3.86-1-5.85v-23.9c-.12-2.7-1.6-5.45.36-8.05z"/><path d="M152 213.72c-5-1.3-8.07-4.73-10-9.26-2-4.8-2.16-10-2.62-15.14-.17-1.87.9-2.7 2.46-3.2l4.65-1.45c1.65.2 2.16 1.55 2.62 2.8 2 5.48 3.9 11 4.27 16.93-.12 3.15.8 6.46-1.38 9.3z" fill="#f7b918"/><path d="M152.33 203.8a57.2 57.2 0 0 0-5.79-19.12l-1.76-3.9a2.33 2.33 0 0 1-1.53-2.52c2.68-3.52 6.78-3.86 10.63-4.75l.56 7.45c-.9 6.4-.38 12.82-.6 19.22-.04 1.3.77 3.18-1.52 3.63z" fill="#909194"/><path d="M189 179.13a42.46 42.46 0 0 1-17.24-.88c-1.37-.33-3.4-.18-3.92-2.26.88-2.92 3.57-3.67 5.87-4.88 3.05.34 6.4-.4 8.78 2.4 1.66.4 3.43.56 3.55 2.9.1 1.93 2.4.65 3 1.9a7.34 7.34 0 0 1-.04.81z" fill="#72412e"/><path d="M261.46 178.57c-4.68 1.36-9.3.3-13.93-.3a2.82 2.82 0 0 1-1.69-1.33c-1-3 2.3-3.24 3.12-5.07l1.82.1c.8.6.67 2.3 2.1 2 .84-.16.6-1.4 1.1-2 2.85-.13 5.46 0 5 4-.95 1.47.46 1 1 1.2a2.41 2.41 0 0 1 1.5 1.42z" fill="#77432e"/><path d="M152.33 203.8c1.4-4.9.53-9.94.84-14.9.17-2.7.1-5.4 1.27-7.94.54 10.12.44 20.24.08 30.36-.2.75-.42 1.5-.55 2.27-.46 2.73-1.26.48-1.94.15z" fill="#874048"/><path d="M189.1 178.32l-4.53.2c2.5-3.28-.82-3.6-2-5 .13-1.43.95-1.25 2-1a25.94 25.94 0 0 1 8.51 3.65c-.77 1.9-3 .87-3.98 2.14z" fill="#e8e5e3"/><path d="M237.62 174.34a29.6 29.6 0 0 0-6.87 7c-1.33-2.1.33-4.55-1.33-6.26 3.05-1.62 6.07-3.33 9.74-2.24a.62.62 0 0 1 .22.53c0 .2-.06.3-.1.3-.43.5-1.2.18-1.65.68z" fill="#d38987"/><path d="M238.9 173.37a3 3 0 0 0 .25-.55c3.13-1.75 6.5-1 9.8-1a2.33 2.33 0 0 1-1.86 3c-1.34.3-.7 1.1-.66 1.8a7.25 7.25 0 0 1-7.53-3.24z" fill="#eae8e7"/><path d="M259.58 177.8c-1.48-.14-1-1-.65-1.8.77-1.72 1-4.1 3.87-3.32 1.5.95 3.77 2.1 3.36 3.68-.52 2-3.12 1.5-5 1.6a4.21 4.21 0 0 1-1.58-.18z" fill="#eae8e8"/><path d="M173.75 171.1l-5.87 4.9c-3.5-2.12.6-3.18.67-4.8z" fill="#d78b89"/><path d="M259.58 177.8l6.72-1.1-3.5-4c1.42-.1 2.2 1.1 3.3 1.6.57 1 2.1 1.3 2.3 2.86a15.39 15.39 0 0 1-7 1.41z" fill="#332b2b"/><path d="M254 172c.74 1.18 1.3 2.43-.13 3.45a2.2 2.2 0 0 1-1.82.27c-1.7-.74-1.45-2.28-1.23-3.74z" fill="#211a1b"/><path d="M185.08 169.27a15.63 15.63 0 0 1 6.46 1.93c-2.76 1-5.13-.88-7.74-1.1-.8-.07-.2-.52.08-.62a5.79 5.79 0 0 1 1.2-.21z" fill="#68524f"/><path d="M248.37 168.77c3.53-.6 7-.9 10.4.72-3.54.87-6.96-.14-10.4-.72z" fill="#53423d"/><path d="M143.25 178.24l1.53 2.52a4.36 4.36 0 0 1-3.65.79 4.29 4.29 0 0 1 2.12-3.31z" fill="#e2b228"/><path d="M213.77 334.2c-.62 6.25 1.12 12.4.14 18.83q-2.6-9.7-5.18-19.4z" fill="#df898d"/><path d="M241.53 192.8c11.24 7.75 22 9.26 35.32 3.16-6.85 6.74-25.48 9.3-35.32-3.16z" fill="#c9817a"/><path class="Q" d="M238.9 173.37c2.06 2.14 4.76 2.8 7.53 3.27l1.1 1.62c-3.75-.18-6.68-2.43-9.9-3.92.12-.73.72-.83 1.3-.97z"/><path d="M164.42 192.7c4.36 2.3 8.63 4.2 13.66 4.85 4.88.62 9.22-1.08 14.35-1.88a20.92 20.92 0 0 1-28.01-2.97z" fill="#cb847c"/><path d="M178.57 172.67a2 2 0 0 1 2.25 1.79 1.8 1.8 0 0 1-1.86 2.18c-1.3.06-2-.8-2.07-2a1.6 1.6 0 0 1 1.68-1.97z" fill="#261b1a"/></svg>