<svg xmlns="http://www.w3.org/2000/svg" viewBox="0 0 500 500"><style><![CDATA[.B{fill:#d4d7d8}.C{fill:#fec900}.F{fill:#e2b308}.K{fill:#703b00}.M{fill:#3e1000}.Q{fill:#8b702d}.i{fill:#b3b6b8}.p{fill:#c1bcab}.AB{fill:#7984a3}.AS{fill:#869eb7}]]></style><path d="M438.86 316.07A181.12 181.12 0 0 1 425.77 371a0 0 0 0 0 0 0 98.2 98.2 0 0 1-7.85 16.94l-1.64 3.6c-10.8 20.52-25.7 37.67-43.17 52.77-23.9 20.66-51.34 34.1-82 41.14a184.22 184.22 0 0 1-53.92 4.09 187.79 187.79 0 0 1-72.4-19.81 194 194 0 0 1-56.62-43.55 187.54 187.54 0 0 1-19.44-26 17 17 0 0 1-1.19-2.9A2.59 2.59 0 0 1 86 395.7c-1.37-3.3-4.1-5.9-4.8-9.54a7 7 0 0 1-1.75-3.73 170.61 170.61 0 0 1-16.32-50.68c-5.93-36.23-2-71.42 12.25-105.34a195.43 195.43 0 0 1 35.55-55.1 7.3 7.3 0 0 1 1.26-.95l3.2-3.2a6 6 0 0 1 2.38-2.36 31.66 31.66 0 0 1 6.62-6.15 15.86 15.86 0 0 1-.89-12.39c.82-2.34.2-5.17-1.17-7.56a10.3 10.3 0 0 1-.2-10.4 11.66 11.66 0 0 0 1.06-7.32c-.73-4.1-1.17-8 1.22-11.6.5-.75.1-1.13-.13-1.66-2.3-5.33-.7-10.06 3-13.9 2.46-2.54 1.26-5.93 3.14-8.58 1.53-2.15 2.72-4.4 5.25-5.42 1.4-.55 1.7-1.46 2.2-2.8 1.57-4.14 3.85-7.87 8.5-9.36 2.68-.86 4-2.8 5-5.46 1.24-3.3 2.43-6.86 6.2-8.5a3.5 3.5 0 0 0 1.58-1.71c2.3-5.22 6.66-8.3 10.88-11.87 3.54-3 6.28-7 11.2-7.4a12.26 12.26 0 0 0 9.14-5.2 12 12 0 0 1 9.61-5.15 25.39 25.39 0 0 0 8.42-1.9c2-.73 3.43-2.26 5.33-3.17s3.83-1.8 5.9-1.37c3.54.7 5.06-2.78 7.9-3.56 1.46-.4 2.72-1.33 4.38-1.3 3.37.06 6.77 1.12 10.1-.67a4.71 4.71 0 0 1 3.89 0c4.87 2.75 9.76 1 14.78 1 5.66-.05 11.34 2.08 17 3.23a6.16 6.16 0 0 0 3.07.2c4.67-1.66 8.65 0 12.37 2.52 1 .7 1.88 1.4 3.16.9 5.57-2.2 9.8.3 14.22 3.46 5.7 4.1 10.68 9.1 17.25 12.23 4.67 2.2 9.3 4.77 13.94 7.14.33.18.88.18 1 .42 3.7 6.3 12.8 8.85 12.4 18a1.07 1.07 0 0 0 .15.78c4.22 3.3 6.13 8.4 9.36 12.45 2.45 3.1 4.84 6.06 4.77 10.26 0 .4-.06.9.14 1.17 4.44 5.55 4 12.72 6.4 18.94a8.73 8.73 0 0 1 .49 5.33c-.87 3.3.28 6.08 1.24 9 2.27 6.86 3.07 14 3.5 21.12.2 3.63-.22 7.26.82 10.95a9 9 0 0 1-2.21 9c.66 1.55 2.05 2.9 1.48 4.83C402 183.52 417.7 207 427.78 234.13a188 188 0 0 1 11.08 81.94z" fill="#fefefe"/><path d="M382 149.5c-1-3.7-.62-7.32-.82-10.95-.42-7.16-1.22-14.26-3.5-21.12-1-2.94-2.1-5.7-1.24-9a8.73 8.73 0 0 0-.49-5.33c-2.4-6.22-2-13.4-6.4-18.94-.2-.26-.14-.77-.14-1.17.07-4.2-2.32-7.17-4.77-10.26-3.23-4-5.14-9.14-9.36-12.45a1.07 1.07 0 0 1-.15-.78c.4-9.1-8.72-11.66-12.4-18-.16-.24-.7-.24-1-.42-4.65-2.37-9.27-4.93-13.94-7.14-6.57-3.14-11.54-8.12-17.25-12.23-4.42-3.17-8.65-5.67-14.22-3.46-1.28.5-2.12-.2-3.16-.9-3.72-2.52-7.7-4.18-12.37-2.52a6.16 6.16 0 0 1-3.07-.2c-5.7-1.15-11.37-3.28-17-3.23-5 0-9.9 1.75-14.78-1a4.71 4.71 0 0 0-3.89 0c-3.32 1.8-6.72.73-10.1.67-1.66 0-2.92.9-4.38 1.3-2.83.78-4.35 4.25-7.9 3.56-2.08-.42-4 .44-5.9 1.37s-3.38 2.44-5.33 3.17a25.39 25.39 0 0 1-8.42 1.9 12 12 0 0 0-9.58 5.13 12.26 12.26 0 0 1-9.14 5.2c-4.93.44-7.67 4.4-11.2 7.4-4.22 3.56-8.58 6.65-10.88 11.87a3.5 3.5 0 0 1-1.59 1.73c-3.77 1.63-5 5.2-6.2 8.5-1 2.66-2.34 4.6-5 5.46-4.64 1.5-6.92 5.22-8.5 9.36-.5 1.35-.82 2.26-2.2 2.8-2.53 1-3.72 3.27-5.25 5.42-1.88 2.65-.68 6-3.14 8.58-3.67 3.83-5.28 8.56-3 13.9.22.53.62.9.13 1.66-2.4 3.65-2 7.52-1.22 11.6a11.66 11.66 0 0 1-1.06 7.32 10.3 10.3 0 0 0 .2 10.4c1.37 2.4 2 5.22 1.17 7.56a15.86 15.86 0 0 0 .89 12.39c-.13 1.15-1.1 2.2-.53 3.4a2.2 2.2 0 0 0 .15.31c0 .07.07.16.1.23 1.53 3.5 1.88 7.23 2.52 10.9v.13c0 .22.1.44.14.64.06.47.17.93.26 1.37.3 2.48 1.2 4.9 1.35 7.37a29.08 29.08 0 0 0 .33 2.61c.84 4.64 2.52 9.3-.17 13.93v.18a.55.55 0 0 0 0 .18 2.32 2.32 0 0 0 1.13 1.77l.26.2a2.59 2.59 0 0 1 .33.17c1.77.8 2.33 2.46 2.9 4.07a124.67 124.67 0 0 1 4.22 14.9c1.68 7.52 2.1 15.17 2.72 22.83.8 9.77 3.4 19.26 5.33 28.86a.2.2 0 0 0 0 .11.67.67 0 0 0 0 .22 7.85 7.85 0 0 0 .82 2.06c.07.15.16.3.22.44s.2.4.3.62c1.48 3.05 1.15 7 4.53 9.1h.2a1.75 1.75 0 0 0 1.37-.84 2.09 2.09 0 0 0 .2-.58c-.5-4.67-2.1-9-3.45-13.47-7.4-24.17-7.43-48.48-1.24-73 2.12 5.64 2.08 11.7 3.52 17.45a6.72 6.72 0 0 1 .17.71c.16.46.27.93.4 1.4.05.2.1.4.16.6 3.43 11.74 10.4 19.75 23 22.12a140.45 140.45 0 0 0 17.01 2.37c10.06.64 20.15 1 29.94-2.3a20.65 20.65 0 0 0 9.74-6.57 104.91 104.91 0 0 0 11.08-17 48 48 0 0 1 5.26-8.41c3-3.56 7-3.76 10.5-.7a18.15 18.15 0 0 1 4.53 6.93 170.7 170.7 0 0 0 8.27 16.3c4.3 7.8 10.95 11.92 19.44 13.78 14 3 27.9 2.38 41.87.2A25.86 25.86 0 0 0 351.81 232c.08-.16.2-.3.28-.47s.1-.2.18-.28a26.07 26.07 0 0 0 4.29-10.33c-.42 3.8-.57 7.83-.86 11.83-1 15.44-2.37 30.8-5.7 46-.33 1.46-1.08 3.16.9 4.18l.2-.07h.1c1.4-.5 1.9-1.77 2.32-3.07.84-2.75 1.37-5.6 2-8.4.82-3.54.67-7.36 2.94-10.5a.08.08 0 0 0 0-.07l.24-.42a.77.77 0 0 0 .09-.13 9.4 9.4 0 0 0 .48-.87 1.5 1.5 0 0 0-.08-1.77c-2.28-2.63-1.27-5.48-1-8.3.82-7.63 1.8-15.3 1.53-22.92a37.85 37.85 0 0 1 .2-5.55c-.16 7.46 1.66 14.86 3.14 22.3.13.6.4 1.37 1.26 1.24s1-.85 1.08-1.46v-.05a18 18 0 0 0 0-7.05A23.66 23.66 0 0 1 365 232c-.06-1.13-.06-2.26-.06-3.38-.05-2.77-.65-5.45-.45-8.28.36-5.13 2.24-9.77 3.94-14.5l.42-1.23.58-1.73c1.9-5.9.92-11.88.5-17.83-.08-.1-.2-.2-.26-.3s0 0-.1-.06c-1.66-2.07-1.37-5.06-3.05-7.07-4-4.78-4.7-10.13-4.16-16.24.66-7.83 1.13-8.78 9.05-9h2c5.2 0 5.2 0 5.8 5.16a1.67 1.67 0 0 0 .6 1 9 9 0 0 0 2.19-9.02zm-16.24 48a40.17 40.17 0 0 1-2.94 9.75c0 .1-.1.2-.13.3l3.1-10.06z"/><path class="B" d="M412.63 389.48c-6.2-1.92-12.34-4-18.4-6.28-10.75-4.1-21.43-8.54-32.67-11.08A90.78 90.78 0 0 1 338.4 363c-2.76-1.48-5.48-3.25-8.76-3.54h-.1l-.3.14c-.93.53-.73 1.55-.64 2.43a37.58 37.58 0 0 0 2.77 10.26c.44 1.1 1 2.37 2.47 2.06s1.26-1.57 1.38-2.68v.93a2.35 2.35 0 0 0 0 .53 1.06 1.06 0 0 0 0 .25c0 .64 0 1.28.07 1.9.1 2.14.33 4.27.57 6.4l.24 2.6a105.13 105.13 0 0 1-2.78 35.48 92 92 0 0 0 1.39-17 8.64 8.64 0 0 0-.11-1.13 6.1 6.1 0 0 0-.13-.84l-.07-.3c-.13-.7-.35-1.44-1.13-1.57-1.06-.16-1.6.73-2.08 1.57a7.54 7.54 0 0 0-.62 1.46c-3.76 11.94-12 20.1-22.42 26.32a122.85 122.85 0 0 1-32.12 13.6c-1.37.38-2.92.44-3.87 1.8a3 3 0 0 1-.49.67 1.45 1.45 0 0 1-.19.17 3 3 0 0 1-2 .56 9.42 9.42 0 0 0-2.14.09c-2 .46-4 .86-5.95 1.2a.47.47 0 0 1-.18 0 78.44 78.44 0 0 1-25.72.47c-22-3.48-37.25-15.88-46.6-36-2.28-4.93-3.45-10.26-6-15.08 0-.07-.1-.16-.15-.22a5.35 5.35 0 0 1-.46-.67c0-.1-.12-.17-.16-.26-2.76-4.23-3.54-9.1-4.3-14-1.08-6.9-1.88-13.9-5-20.26a14.48 14.48 0 0 1-1.74-7.7v-.18c-4.67-2.08-8.28-.15-11.22 3.32a11.19 11.19 0 0 1-7.43 4c-9.33 1.44-18.42 3.47-26.6 8.7-5 3.2-10.77 5.07-16.43 7-7.77 2.68-15.68 4.9-23.47 7.57-1.8.62-4 .9-4.8 3.1.7 3.63 3.43 6.24 4.8 9.54 7.6-1.68 15.1-3.83 22.3-5.7-6.82 2-14 4-20.8 7.3a17 17 0 0 0 1.19 2.9 187.54 187.54 0 0 0 19.44 26 194 194 0 0 0 56.62 43.55 187.79 187.79 0 0 0 72.4 19.81 184.22 184.22 0 0 0 53.92-4.09c30.7-7.05 58.15-20.48 82-41.14 17.47-15.1 32.38-32.25 43.17-52.77-.6-1.53-2.16-1.63-3.53-2.05zm-77.35-18.3a2.31 2.31 0 0 1-.06.31c.02-.15.02-.27.06-.3z"/><path class="C" d="M169.1 348.52l-.07.2c-4.67 1.86-9.2 3.9-12.43 8-.73.93-2.15.95-3.32 1.2l-11.32 2.28a37.84 37.84 0 0 0-14 5.49c-5 3.36-10.75 5.17-16.34 7.25-9.45 3.54-19.22 6.13-28.74 9.47a3.88 3.88 0 0 1-3.45 0 170.61 170.61 0 0 1-16.32-50.68c-5.93-36.23-2-71.42 12.25-105.34a195.43 195.43 0 0 1 35.55-55.1 7.3 7.3 0 0 1 1.26-.95c2.12-1 2.52.82 3 2.06 2.48 7.36 4.43 15.08 2.57 22.64-4.16 16.9-1 32.87 4.62 48.7 3.2 9 6.48 17.93 10.13 26.74a112.61 112.61 0 0 0 17.92 29.41c4.9 5.9 7.63 12.63 9.44 19.9 2.28 9.13 4.7 18.2 9.07 26.63a2.5 2.5 0 0 1 .18 2.13zm269.76-32.45A181.12 181.12 0 0 1 425.77 371a0 0 0 0 0 0 0c-1.62 1.06-2.8-.15-3.94-.86-21.88-13.74-46.05-21.32-71.1-26.65-3-.64-5.9-1.53-8.82-2.35-4.25-1.17-4.7-2.54-1.86-6.08a157 157 0 0 0 14.11-20.66c5.35-9.35 8.85-19.22 8.67-30.17a21.29 21.29 0 0 1 3.16-11.77 41.65 41.65 0 0 0 6.37-24.62c-.13-3.05.1-6.1 0-9.16a26.3 26.3 0 0 0-.4-4.6c-.07-.44-.13-.86-.24-1.28-.65-9.05-2.55-17.94-3.3-27-.07-.6-.1-1.17-.15-1.77a2.39 2.39 0 0 1 .22-1.15c.9-5.13 2.2-10.26.15-15.46a2.25 2.25 0 0 1 .89-2.43v-.35a51.18 51.18 0 0 1 5.24-16.72.94.94 0 0 1 .22 0 1 1 0 0 1 .23 0 1 1 0 0 1 .79.42 3.07 3.07 0 0 1 .27.42c0 .15.1.3.15.5.1.62 0 1.26.07 1.72a30 30 0 0 1 1.46-7.54c.95-2.8 2.14-2.26 3.25 0 20.78 20.1 36.48 43.57 46.56 70.7a188 188 0 0 1 11.08 81.94z"/><path d="M425.77 371a98.2 98.2 0 0 1-7.85 16.94c-5.1 1-9.56-1.48-14.1-3-11.55-3.93-22.78-8.7-34.42-12.4-6.8-2.2-14.1-2.8-20.57-6A223 223 0 0 1 327 354.4c0-.06.07-.13.1-.2a1 1 0 0 1 .07-.15c4.3-10.35 8.3-20.9 14.28-30.46 8.72-13.9 16.33-28.2 17.8-45 .57-6.57 3.56-12.45 6.13-18.4s4-12 5.7-18.16c.7-2.6-.62-5.53.9-7.94a4.8 4.8 0 0 1 .64-.82c.1.1.24.18.27.3.93 13.47 2.14 27-5.82 39.1a18.08 18.08 0 0 0-3.08 10.48c.33 13.23-4.38 24.75-11.17 35.72a132.32 132.32 0 0 1-12.21 17c-1.8 2.1-2.3 3.36 1.4 4.25 12.94 3.05 25.9 6.12 38.64 9.93 15.38 4.62 29.73 11.72 43.38 20.17a14.69 14.69 0 0 0 1.77.75z" fill="#f4a200"/><path d="M179.44 346.84v.33a5.55 5.55 0 0 1-5.44 1.33 2.23 2.23 0 0 1-.51-.33.35.35 0 0 1-.15-.2c-.1 0-.1-.08-.1-.13a.36.36 0 0 1-.13-.18c-5.3-11.65-8.4-24-11.68-36.3a25.78 25.78 0 0 0-6.55-11.19 91.54 91.54 0 0 1-6.06-7 1.3 1.3 0 0 0-.15-.2c-1.3-1.66-2.53-3.36-3.65-5.1-.47-.7-.93-1.4-1.38-2.12-.26-.4-.5-.8-.75-1.2-1.08-1.88-2.12-3.8-3-5.77A325.16 325.16 0 0 1 121.07 229a54.44 54.44 0 0 1-.55-28.71c2.2-8.63 2.3-17-.45-25.46a56.44 56.44 0 0 1-2.3-10.06 31.66 31.66 0 0 1 6.62-6.15c1.3 1.15-.8 1.9-.36 3 0 .33 0 .64.07 1a51.36 51.36 0 0 0 2.52 10.9v.13a1 1 0 0 1 0 .11 5.55 5.55 0 0 1 .24.64 30.07 30.07 0 0 1 1.79 11.24 99.67 99.67 0 0 1-1.74 14.8l-.24 1.5c-.1.5-.13.9-.2 1.33-3.9 14.5-.26 27.63 7 40.26 3.43 6 4.18 12.82 5 19.5a17.67 17.67 0 0 0 2.53 7.66 6 6 0 0 0 .53.75 11.24 11.24 0 0 0 4.75 3.67 12.38 12.38 0 0 0 1.62.62c.8 3.2 1.54 6.44 3.34 9.3a1.43 1.43 0 0 1 .31.24 9.66 9.66 0 0 1 2.07 3.34l.62 1.26v.07l1 2v.1l1.76 3.4a167.81 167.81 0 0 0 12 19.49 15.21 15.21 0 0 1 2.14 3.42 5.53 5.53 0 0 1 .45 1.83v.6c.3 6.46 3 12.25 5.15 18.23 1.13 2.62 3.16 4.87 2.7 7.84z" fill="#c49d13"/><path class="F" d="M172.2 347.8l-.07.07s-.05.06-.07.06a2.45 2.45 0 0 1-3.05.82l-.24-.13c-5.36-9.7-8.08-20.33-10.64-30.95-1.84-7.7-5.77-14.15-10.7-20-9.13-10.77-14.95-23.3-19.8-36.32-4.34-11.6-8.8-23.16-11.5-35.34-2.24-10.18-1.55-20.1.46-30.15 1.68-8.43-.3-16.52-2.83-24.5-.24-.75-.9-.88-1.57-1l3.2-3.2c2.85 0 2.8 2.4 3.34 4.16 3.07 10 4 20 1.37 30.48-2.55 9.78-1.6 19.75 1.43 29.37a363.76 363.76 0 0 0 17 45.3 79.75 79.75 0 0 0 4.35 8l.75 1.2c.45.73.9 1.43 1.38 2.12 1.17 1.75 2.38 3.43 3.65 5.1a1.3 1.3 0 0 1 .15.2c1.33 1.75 2.68 3.47 4.07 5.15a47.85 47.85 0 0 1 10 19.6 161.53 161.53 0 0 0 8.6 26.83 5.07 5.07 0 0 1 .71 3.12z"/><path class="F" d="M173.56 347.8a.8.8 0 0 1-.18.15.92.92 0 0 1-1.33 0l-.1-.06a100.61 100.61 0 0 1-8.6-24.2c-2.2-9.7-5.8-18.4-12.4-26.08-9.8-11.32-16.12-24.77-21-38.8-3.72-10.7-8.23-21.13-10.68-32.3a61.84 61.84 0 0 1 .57-29c2.55-10.1-.42-19.53-3.07-29-.14-.53-.9-.9-1.37-1.35a6 6 0 0 1 2.38-2.36c2.35.9 1.62 3.18 2 4.82 1.52 6.66 4.1 13.1 3.7 20.15-.3 4.93-1.86 9.55-2.6 14.38a60.5 60.5 0 0 0 2.3 28.51c3.67 11.14 7.36 22.33 11.9 33.17 5.3 12.6 11.48 24.84 21.6 34.53 4 3.83 5.6 8.87 6.85 14 2.68 10.77 5.53 21.47 10.24 31.56a2 2 0 0 1-.18 1.87z"/><path d="M381.3 163.33c-1-.38-2-2.08-2.52.66-.64 3.5-.95 7.14-3 10.95-1-2.26.46-3.76.13-5.3a1.87 1.87 0 0 0 .2-1.37c-.1-.58-.3-1.1-.37-1.55a2.26 2.26 0 0 1-.42 1.13 1.33 1.33 0 0 1-.2.22c-1.6 5.6-3 11.28-5.4 16.63l-.13.3c-.45-.88-1.7-.75-2-2.12-.82-4-3.34-7.12-5.5-10.42-.7-1.1-1.72-2.15-1.4-3.56 1.06-4.42.7-8.9.77-13.38 0-2 1.42-2.72 2.94-3.23 4.5-1.5 9.14-1 13.74-1 2.14 0 2.6 1.57 2.4 3.3-.16 1.3-.5 2.6-.73 3.87.68 1.58 2.07 2.93 1.5 4.86z" fill="#161213"/><path d="M176.12 351.24a1.18 1.18 0 0 1 0 .53 1 1 0 0 1-.18.4 3.87 3.87 0 0 1-.64.33 6.3 6.3 0 0 1-4.07.13c-5.16-.78-9 1.24-11.75 5.53-1.08 1.68-2.65 2-4.36 2.3l-9.77 1.72a46.91 46.91 0 0 0-16.35 5.94c-10.5 6.32-22.36 9.48-33.95 13.2-4.67 1.48-9.4 2.72-13.85 4.84a7 7 0 0 1-1.75-3.73c13.5-4.7 27.34-8.3 40.55-13.83 6.8-2.85 12.47-8.1 20.1-9.13 2.6-.36 5.18-1.17 7.8-1.53 4.77-.62 9.13-1.72 12.23-6 2-2.75 5.44-3 8.65-3.32l.35-.1 2.85-.66h.16c.37 0 .77-.05 1.15-.05a1.42 1.42 0 0 1 .29 0v.38a2.88 2.88 0 0 0 2.57 2.92c-.04.03-.02.08-.02.12z" fill="#585c62"/><path d="M417.92 387.93l-1.64 3.6c-13.54-3.4-26.3-9.05-39.4-13.7a142 142 0 0 0-19.07-5.55c-10.24-2.13-18.78-8.08-28-12.54l-.62-.1a12.25 12.25 0 0 1-3.2-.67 1.21 1.21 0 0 1-.25-.08 13.67 13.67 0 0 1-2.36-1 1.53 1.53 0 0 1-.18-.18s-.07-.07-.07-.1a1.5 1.5 0 0 1-.28-.6.21.21 0 0 0 0-.13v-.1c-.15-1.06-1-2.2-.15-3.18a1.13 1.13 0 0 1 .24-.25 1.58 1.58 0 0 1 .29-.22 1.72 1.72 0 0 1 .29-.11 2.35 2.35 0 0 1 .35-.11 1.75 1.75 0 0 1 .44-.07 3.63 3.63 0 0 1 2.86 1.2 1.27 1.27 0 0 0 .11.13c4 2 8.1 3.92 12 6.15a85 85 0 0 0 23.85 9.38c13.82 3.12 26.7 9.16 40 13.87a111.6 111.6 0 0 0 14.78 4.33z" fill="#585d62"/><path d="M111.07 389.37c-7.94 2.48-15.26 6.66-23.57 7.94a2.59 2.59 0 0 1-1.5-1.61c4.3-2.8 9.33-3.36 14.1-4.67a57.08 57.08 0 0 1 10.96-1.66z" fill="#e9eaeb"/><path class="K" d="M153 214.9c1.85 5.35 3.62 10.7 7.37 15.17 5.56 6.66 13.4 8 21.18 9.48a110 110 0 0 0 27.64 1.59c9.35-.63 18.45-2.26 24.28-11 3.24-4.83 6.44-9.67 9.2-14.8a46 46 0 0 1 5.43-8.73c3.2-3.7 7.75-4 11.55-.84 2.56 2.12 3.88 5 5.15 7.9 2.18 5 4.86 9.68 7.25 14.53 4.6 9.35 12.35 13.66 22.12 15.34a114.73 114.73 0 0 0 41.72-1c6.8-1.33 11.8-5.65 15.3-11.66 3 1.22 1.76 3.83 1.54 5.74-.95 8.16-2.1 16.3-3.77 24.36-3.62 17.47-8.48 34.5-16.7 50.46a110.22 110.22 0 0 1-24.41 32.13c-1.2 1.06-2.32 3.24-4.52.87-.57-.6-1.73.87-2.53 1.48-10.13 7.7-21.38 13-34 14.44-13.9 1.6-27.58.68-40.2-6.5.43.82 1.18 1.64.35 2.53-.55.6-1.22.12-1.8-.13s.06.12-.33-.22c-8.5-7.4-19.05-11.48-28.38-17.52-8.2-5.32-14.74-12.5-21.46-19.48-.7-.74-.92-1.1-1.22.15a1.82 1.82 0 0 1-2.37-.88c-4.9-6.88-9.77-13.77-13.6-21.33a4.41 4.41 0 0 1-.54-3.06c-1.06-8.38-3-16.6-4.1-25-1.68-12.56-3.4-25.1-3.06-37.85.1-4.24.83-8.4 1-12.62a3.89 3.89 0 0 1 1.93-3.55zm8.6-72.46l2.34-1.44c2.48 2.1 5.17.46 7.63.16a46.21 46.21 0 0 1 31 7.05c3.15 1.95 6.9 2.7 10.56 3.32a219.3 219.3 0 0 0 30.47 2.52 119.17 119.17 0 0 0 57.61-12.87c5.32-2.7 10.78-5.1 15.76-8.46 3.43-2.3 4.55-2 7.44 1.17 10.9 12.13 19.1 25.77 23 41.74 1 4.32 3.45 8.35 2.93 13-6.54-.82-13.1-1.46-19.6-2.52-7.8-1.27-15.66-1.34-23.47-2.3 10.56-2.4 21-2.8 31.08 2.23-3.36-9.78-13.63-15.28-25.1-13.15a168.62 168.62 0 0 0-28.26 7.49c-3.78 1.4-8 2.53-8.8 7.52-.06.36-.7.74-1.15.92-10.26 4.2-20.66 6.65-31.47 2.08-1.53-.64-4.34-.63-2.6-4 .62-1.2-1.3-2.63-2.74-3.47-6.14-3.6-13.07-4.86-19.82-6.65-8-2.13-16.25-3.35-24.45-4.7-7-1.16-12.37 2.06-17 6.67-2.06 2-4.1 3.07-7 2.83-3.56-.3-7.05 1.24-10.65.72-1.45-1.65-.87-3.53-.4-5.26 2.68-10.05 2.92-20.24 1.84-30.5a5.15 5.15 0 0 1 .86-4.1z"/><path d="M321.57 189.6c7.5.2 14.92 1.08 21.7 4.46 5.05 2.52 7.75 6.9 7.92 12.76.23 8.42-1.2 16.35-5.47 23.8-3.77 6.56-9.87 8.7-16.63 9.9-8.25 1.45-16.6.7-24.9.8-3.2 0-6.4-1.1-9.58-1.7a1.34 1.34 0 0 1-.4-1.44c2.77-5.17 4.7-10.85 9.2-15 5.63-.14 4.08-4.76 4.9-7.9 1-2.1 3.26-1.94 5-2.73 1.3-.6 3.62-.56 3.14-2.75-.4-1.87-1.43-3.8-4.1-3.23a1.52 1.52 0 0 1-1.11-.3c-.65-2 .56-3.7.9-5.52a4.83 4.83 0 0 1 .84-1.46c2.67-3.38 5.04-7.04 8.6-9.7z" fill="#8a673f"/><path class="M" d="M173.55 319.28l-1.8-4.3 3.68 3.43c7.86 8 15.56 16.4 25.5 21.94 7.5 4.2 15.33 7.8 22.1 13.22l3.43 2.78c.47-1.84-1.86-2.26-1.63-3.87 28.82 13.36 55.23 9.14 79.58-10.46.86 1.05-.94 2.07.27 3.12a110.6 110.6 0 0 0 22.8-27.14c11.28-18.9 17.08-39.7 21.2-61.08 1.3-6.72 2.24-13.5 3.1-20.3.24-1.83.92-3.93-.6-5.67 3.33-4.83 4.6-10.45 6-17 1.06 9.46-.27 17.84-.75 26.2-.48 8.62-1.8 17.2-3 25.78-.64 4.66-1.7 9.28-2.65 13.9-.2 1-.86 2 .3 2.84a1.6 1.6 0 0 1 .6 1.4c-1.74 7.7-3.85 15.28-8.66 21.78-.43 0-1.1.2-.74-.7-1.88 5-5.2 9.25-6.66 14.4-.72 2.37-1.63 4.6-4.2 5.6-7.06 7.67-14.44 15-21.9 22.3-5.12 5-10.53 9.65-16.93 13-8.1 4.3-16.63 6.9-25.85 6.72-3.47-.07-6.8.84-10.27.87-21.56.2-40.45-7-57.13-20.42a201.88 201.88 0 0 1-23.06-22.33 12.61 12.61 0 0 1-3.22-5 1.45 1.45 0 0 1 .49-1.03z"/><path d="M224.56 189.48l2.24.22c2.64.45 2.64.45 2.1 1.86-2 .94-4.1.64-6.17.65-11.4.53-22.76-.93-34.15-.8-4.9.05-5.25.26-5.1 5.24.15 5.25-.83 10.6 1 15.73a3.33 3.33 0 0 1 .6 1.13c-1.14 8.34-6.42 14.35-11.54 20.45-11.13-3.84-13.62-13.3-15.06-23.36a37.36 37.36 0 0 1-.14-11.85c1.1-6.2 5.26-10.9 11.46-11.85 11.53-1.78 23.1-2.77 34.77-1.3.23 2.52 1.28 3.5 4.1 3.1a45.64 45.64 0 0 1 15.91.78z" fill="#9b8266"/><path class="M" d="M350.28 188.65l-6.25-20c-4-13.52-12.2-24.5-21.25-35-1.48-1.7-2.55-1.84-4.55-.6-15.16 9.4-31.17 16.95-48.86 20a122.43 122.43 0 0 1-31.9 1.63c-7.35-.64-14.78-.62-22.08-1.86-5.57-.94-11.25-1.27-15.83-5.73-1.94-1.9-5.63-2-8.5-2.92a46.54 46.54 0 0 0-23.84-1.8c-1 .2-3.4 1.84-3.28-1.38 3.85.3 7.65.25 11-2a4.79 4.79 0 0 1 5.87-.06c2.5 1.67 5.37 1.52 8.06.9a8.64 8.64 0 0 1 8.07 1.76c1.55 1.3 3.1 1.94 5 .68a3.66 3.66 0 0 1 3.42-.22c7.72 2.7 15.73 3.5 23.84 3.55a5.48 5.48 0 0 1 3.8 1.74c5.25 4.62 10.24 5.25 16.32 1.76 2.13-1.22 3.67-1.7 5.9-.13 4.4 3.1 8.9 2.8 13.82.48 4.32-2 9.4-2.3 13.7-4.6 6.55-3.47 15-2.07 20.52-8.14.68-.75 1.7-.64 2.63-.6 3.27.13 5.88-1.54 8.27-3.38 1.84-1.4 3-3.75 5.5-4.32 2.8-.64 3.84 2.4 6.14 3 7.8 2.14 10.37 8.66 12.68 15.43 1.1 3.24 2.5 6.27 5.52 8.46a7.24 7.24 0 0 1 2.61 7.35c-1 5.6.92 9.9 4.83 13.9 3.42 3.5 3.83 8.47 5.2 13.2-2.42.26-4.34-.6-6.32-1.1z"/><path d="M327.27 354.18c-1.24.33-2.14-.62-3.23-.87-1.53-.58-.9-1.64-.58-2.62a122.21 122.21 0 0 1 13.37-28.31c6.23-9.55 12.2-19.28 15.06-30.53a77.23 77.23 0 0 0 1.84-9c1-7.77 3.15-15.3 4.93-22.9 7-7.56 7.82-16.56 6-26.12-.34-1.8-.05-3.67-.74-5.4-1.62-9.1.8-17.47 4.6-25.6a167.17 167.17 0 0 1 4.11 30.37c.13 9.37-2.4 18.13-6.1 26.6a87.33 87.33 0 0 0-7.35 25.33c-1.4 12.42-7.2 23.17-13.6 33.52a180.76 180.76 0 0 0-15 30.13 23.77 23.77 0 0 1-3.29 5.39z" fill="#e99900"/><path d="M173.52 234c.9-2.68 2.73-4.8 4.35-7a52.22 52.22 0 0 0 6.72-12.78c2.18.06 2.6 1.6 2.46 3.27-.2 2.43 1.1 2.92 3.1 2.87s3.94 0 5.8-.78a6.9 6.9 0 0 1 4.63-.38c8.7.53 17.4.13 26.08 1 2.2.2 4.52-.15 6.4 1.48a1 1 0 0 1 .17 1.3c-5.44 11-15.2 14-26.45 14.48s-22.38-.26-33.25-3.46z" fill="#896740"/><path class="Q" d="M153 214.9c-2.2 10.32-2.3 20.8-1.44 31.18a356.57 356.57 0 0 0 5.31 38.34l1.58 8.15c.16.84.8 1.9-.8 2-3.28-2.68-4.06-6.5-4.68-10.37-3.65-10.05-5.75-20.48-8.13-30.88-3.9-17-1.46-33.64 1.2-50.37l1.4-9c2.87 2.32 4.56 8.77 5.56 20.95z"/><path d="M130.36 201.3c2.23-1.56 2.44.7 2.87 1.75a90.45 90.45 0 0 1 6.77 26.29c1.18 13.8 2.76 27.48 6.27 40.9a14.41 14.41 0 0 1 .17 2.73c-3.2.46-5-.72-6.24-4.24a50.8 50.8 0 0 1-1.93-10.09 48.38 48.38 0 0 0-6.5-19.36c-5.52-9.15-7-19.27-6.1-29.77.26-3.34 1.33-6.52 4.7-8.2z" fill="#723d03"/><path d="M303.35 223.73a112.61 112.61 0 0 0-8.76 15.88c-8.08-1.56-14.82-4.58-18.48-12.94a104.6 104.6 0 0 1-6.44-17.7c-1.66-6.92.14-11.9 6.57-15.27 2.07 3.34 1.36 7 .6 10.4-1.18 5.35-.52 10.52.4 15.77.4 2.24 1.3 3.06 3.73 2.88 6.08-.44 12.2-.14 18.3-.1 1.43.01 2.96-.16 4.08 1.08z" fill="#9a8266"/><path d="M359 260.24c.2.74.74 1.64.5 2.22-3.45 8.38-3.94 17.4-5.73 26.14-2.5 12.3-8.7 22.86-15.3 33.2-5.5 8.6-10.53 17.35-13.06 27.32-.37 1.44-2.44 2.3-1.4 4.2l-.8.16a4.06 4.06 0 0 1-4.46-1.34c-1.1-3.75 1.38-6.78 2.18-10.13a47.91 47.91 0 0 0 1.47-6.51c2.32-4.06 5.7-7.24 8.85-10.6a16.74 16.74 0 0 0 3.87-5.61 75.81 75.81 0 0 1 7.33-13.41 83.94 83.94 0 0 0 8.65-23.19c2.57-5.27 3.44-11 4.3-16.7.3-2-.23-4.36 2.1-5.6a1 1 0 0 1 1.49-.15z" fill="#d38b00"/><path d="M313.65 199.8l-.8.87a2.78 2.78 0 0 1-3 1.5c-3.23-.18-6.3.24-8.95 2.35a2.42 2.42 0 0 1-3.54-.5c-1.62-1.82-3.46-1.44-5.46-.83A16.34 16.34 0 0 0 281 213.63a2.58 2.58 0 0 1-2.85-1.64c1-2.4-.1-4.45-1.12-6.53.1-4.06-1.8-7.67.43-11.6 1.37-1.07 1.47-.55 3.35-1.35s4.16-.66 6.2-.58c7.88.34 15.73-.85 23.6-.46a13.75 13.75 0 0 1 3.14.28c2.3.66 3.5 1.84 1.95 4.3a22.17 22.17 0 0 0-2.07 3.75z" fill="#8e9faf"/><path class="Q" d="M161.6 142.44c.26 4.86.88 9.68.9 14.57a86.4 86.4 0 0 1-2.89 22.19 21.6 21.6 0 0 0-.36 3.12c-2.68 1.4-5.73.6-8.52 1.5-1.76.56-1.4-.82-1.23-1.9l2.84-19.94c.5-3.64.68-7.35 1.4-10.95.85-4.35 2.4-8.33 7.86-8.6z"/><path d="M359 260.24l-1.5.15c1.27-1.94 1.3-2-.5-2.6-.9-.28-.8-.73-.74-1.43.86-9.47 2.08-18.93 2.42-28.42a107.33 107.33 0 0 1 4.14-25.71 39.67 39.67 0 0 1 3.93-8.71 13.94 13.94 0 0 1-1.13 9.18c-5.15 11-6.4 22.27-2.53 33.92.75 2.28.6 4.67 1 7 1.73-5.08-.67-10.1-.2-15.15a37.59 37.59 0 0 1 1.37 22.52c-.94 3.8-2.74 7.1-6.27 9.24z" fill="#723f00"/><path d="M130.36 201.3c-6.5 8.87-4 18.37-1.8 27.78a33 33 0 0 0 4.8 10.85c4.78 7.2 5.48 15.58 6.78 23.8.62 3.92.68 8.55 6.28 9.23-.13 1.28 1.36 1.65 1.55 2.75-6.05-.6-7.92-2.13-9.52-8.14a66 66 0 0 1-1.5-7.76 61.34 61.34 0 0 0-6.67-20.15c-6.07-11.52-8.84-23.72-4.52-36.66.7-1.42.76-3.47 3.15-3.28z" fill="#1a1113"/><path d="M277.77 193.3c-1.5 4.3-.1 8.6.1 12.9 1.24 1.7.17 3.75.78 5.56l2.4 1.6a2.32 2.32 0 0 1 .59 1.74c-.16 4.58.25 5.08 4.77 5.12 4 0 8 .12 11.9.53 6.48.66 7.45.12 9.6-5.8a1.11 1.11 0 0 1 1.16-.12l-.15 3.13c-.12 5.26-.42 5.58-5.57 5.73-7.12 0-14.37-.8-21.33.27-5.4.84-5.93-1.55-6.23-5.33-.34-4.26-1.85-8.45-.36-12.82 1.34-3.94.8-8.08.8-12.15z" fill="#8d8583"/><path d="M313.65 199.8a5.3 5.3 0 0 1 .2-1.56c2.46-5.57 2.47-5.55-3.85-5.56-9.72 0-19.45.93-29.17-.17 2.67-2.47 6.24-1.65 9.33-2.28 7.9-1.6 16-1.6 24.08-1.7 2.6 0 4.85 1.06 7.33 1.06-1.96 3.93-5.57 6.6-7.92 10.2z" fill="#988871"/><path d="M128.9 199.74c-1.52.64-2 2.32-3.15 3.28-.8-4.9 1.27-9.5 1.93-14.2a21.22 21.22 0 0 0-1.25-11.48 8.24 8.24 0 0 1-.61-3.84c1.44-.27 1.72.9 2.2 1.8q1.53 9 3.05 18c.43 2.5.5 4.93-2.17 6.45z" fill="#a9861b"/><path d="M153 284.23l4.68 10.37a85.36 85.36 0 0 0 15.91 24.68l-.05.9c-.22.43-.45.84-1 .95a1.25 1.25 0 0 1-1.2-1.22c-6.9-9.85-13.5-19.9-18.5-30.87-.6-1.3-1-2.7-1.52-4z" fill="#291819"/><path d="M224.56 189.48c-6 .36-12-.68-18 .7a2.65 2.65 0 0 1-2.91-.67c-1.1-1.56.6-2.6.9-3.9a66.07 66.07 0 0 1 20 3.87z" fill="#896b44"/><path d="M238.68 196.65c3.33 4.74 1 9.54.17 14.33-1.13 1.2 0 3.64-2.3 4.2-3.64-2.45-1.06-5.45-.73-8.27 1.2-4.07-.46-8.17.15-12.25 2.48-1.5 2.15.85 2.7 1.98z" fill="#716865"/><path d="M128 175.3l-2.2-1.8c-1.4-3.84-3.88-7.5-1.8-11.87 2.22.92 2.1 3.1 2.48 4.9.66 2.9 1.06 5.84 1.52 8.76z" fill="#443800"/><path d="M323.26 357.5a3.9 3.9 0 0 1 2.61.65c1.58 10 6.12 19.4 5.75 29.94a44.15 44.15 0 0 1-12 29.09c-11.57 12.75-26.7 19.38-42.83 24a149.22 149.22 0 0 1-25.71 5c-30.66-.06-56.68-19.26-67.34-49.2-.4-1.12-1-2.16-1.36-3.3-.94-3.54-1.83-7.1-2.92-10.6 1.27 3.87 2 7.88 3.23 11.78a1.49 1.49 0 0 1-.34 1.66c-4.07-4.43-4.6-10.2-5.48-15.65-1.33-8.06-2.4-16.12-6.5-23.37-1.06-1.9-1-3.47.82-4.83 1.36-1.33 3.1-.64 4.66-.83.28-.08.7 0 .7.07-1.47 3.9.87 7 2.15 10.35a61.49 61.49 0 0 1 3.67 15A57.77 57.77 0 0 0 198 410.93c5.35 5.7 10.72 11.4 16.92 16.22 13.58 10.6 28.95 14.3 45.93 12.43a102.36 102.36 0 0 0 33.08-9.47c10.66-5.1 20.06-12.06 26.5-22.2 7-11 7.3-23 3.77-35.23-.57-2-1.33 1.36-2 0-2.3-2.73-1.63-6.06-1.83-9.2 1.27-1.87 1.4-4.25 2.9-5.98z" fill="#cbcac3"/><path d="M250.78 445.1c7-.4 13.76-2.13 20.54-3.62a104.73 104.73 0 0 0 33.95-13.74C317.45 420 327 410 329.8 395.2a44.2 44.2 0 0 0-1.38-22.65c-1.56-4.66-3.5-9.3-2.56-14.4a7.13 7.13 0 0 1 4 1.61c-.83 5.2 1.6 9.56 3.4 14.65 2-2.32.56-4.77 1.5-6.76 1.83.76 1.07 2.26 1.24 3.45-1.07 2.35-.08 4.7.08 7 .48 6.63-.57 13.2-.5 19.8 0 1.56.43 3.6-1.95 4.18-.15-.86.32-1.84-.76-2.84-2.1 4-2.93 8.43-5.42 12.2-7 10.65-16.9 17.38-28.2 22.72a203.26 203.26 0 0 1-26.94 10.09c-5.77 2-11.8 2.15-17.78 2.7-1.44.15-3.33.34-3.77-1.85z" fill="#cececa"/><path d="M250.78 445.1c2.55 1.54 5.33.75 8 .58 4.52-.3 9-.9 13.53-1.4a1.68 1.68 0 0 1 .39.07c.4.14.72.54.17.67-3.44.84-6.88 1.8-10.38 2.33-15.6 2.36-30.8 2-45.46-5.1-11.14-5.36-19.12-13.74-25.45-24.05-4.15-6.8-6.55-14.3-9.24-21.7v-1.6c-.54-.92-.62-1.6.77-1.55 8.16 22.1 21.68 39.22 44.46 47.62a61.21 61.21 0 0 0 23.21 4.1z" fill="#e7e8e8"/><path d="M352.27 445.24c7.58-18.3 7.52-36 1.2-54.6 10.3 14.42 13.53 41.28-1.2 54.6z" fill="#eaebec"/><path class="i" d="M187.28 449.44c-22.27-16.92-27.44-43.54-21.85-62.4-.34 11.47.5 22.74 4.3 33.68a78.73 78.73 0 0 0 17.54 28.71z"/><path d="M333.6 402.1c1.17-1.05.8-2.45.76-3.7-.2-8.4 1.4-16.76.84-25.18a2.18 2.18 0 0 1 .76-2.12 180.38 180.38 0 0 1 1.62 28.73 77.93 77.93 0 0 1-4.15 22.38c-.2.6-.4 1.27-1.37 1.5.57-7.24 1.64-14.38 1.54-21.6z" fill="#b2b4b5"/><path class="i" d="M370.73 428.25a246.85 246.85 0 0 0-10.47-45.5c8.82 13.96 10.9 29.44 10.47 45.5z"/><path d="M122,376.25c-8.52,9-19.12,13.66-31.26,15.14A149.37,149.37,0,0,0,122,376.25Z" fill="#b2b5b7"/><path d="M149.42 377.68c2-9.46 9.44-16.52 18.32-16.7-9.5 2.95-14.4 9.3-18.32 16.7z" fill="#b3b5b7"/><path d="M375.1 168.08a4.34 4.34 0 0 1 1.27-3.59c.3 2 .5 3.6-.48 5.15l-.8-1.56z" fill="#92730a"/><path d="M176 351.24c-2.4.2-3.15-.9-2.5-3.12l5.56-1.1a2.84 2.84 0 0 1 3-.31c1.73 1.8 2.26 4.4 3.93 6.25a1.59 1.59 0 0 1 .25.74c-1.1 7.32 2 14 3.38 20.85.2 9.63 3.5 17.9 10.7 24.45a4.44 4.44 0 0 1 1.15 2.14c1.28 5.54 4.66 9.83 8.8 13.38 3.1 2.66 6.2 5.4 9.5 7.8 8.74 6.33 18.93 9.3 29.38 11.23a22.17 22.17 0 0 0 13.18-2c2.65-1.47 5.68-1.08 8.52-1.6 14.64-2.72 27.3-9 37.26-20.27a37 37 0 0 0 7.29-13.06 63.81 63.81 0 0 0 2-15.49 7.52 7.52 0 0 1 .23-1.24c.53-1.14.46-3.23 1.83-3.13 1.94.15 2.37 2.5 3.46 3.9 1.4 7.33-.32 14.23-3.15 20.9-5.58 13.13-15.54 22-28.25 27.8-20.82 9.5-42.1 11.14-63.66 2.45-10.6-4.28-18.9-11.77-25.88-20.56-10.68-13.44-16.3-29.33-21-45.6-.78-2.7-.34-5.54-.4-8.28.05-3.53-1.27-5.37-4.56-6.13z" fill="#2a292a"/><path d="M182.18 347h-3.1c-2.9-7.6-6.42-15-8.12-23-.32-1.52-.57-2.8.35-4.1l1.4 1c3.34 3.14 6.73 6.4 9.07 10.23 2.82 4.64 1.7 10.13 1.36 15.32-.02.35-.58.48-.97.54z" fill="#9c7c1e"/><path class="p" d="M176 351.24a30.33 30.33 0 0 0 3.17-.12c1.86-.27 2.57.3 2.48 2.3-.68 15.82 5.6 29.75 12.48 43.33 8.4 16.6 20.38 30.05 38.7 35.7 25.86 8 50.22 4.1 71.8-12.55 12.63-9.76 18.62-23.15 17.8-39.3-1.4-2.67-1.88-5.32 0-8 1.16-.5.33-2.05 1.63-2.72 3.48 7.76 4 15.88 2.73 24-2.32 14.7-12 24.23-23.7 32.18-11 7.5-23.52 11.66-36.37 13.88-19.63 3.4-38.18.4-53.87-13.22-10.52-9.14-20.63-18.6-26.84-31.43-2.45-5.08-3.54-10.52-4.46-15.95-1.28-7.58-2.6-15.1-6.2-22-1.1-2.12-1.25-3.8.42-5.54a3 3 0 0 0 .23-.55z"/><path d="M322.47 372.62v8a4.4 4.4 0 0 1-2.54-3.71l-1.32 2.9c-.1-.08-.28-.16-.3-.25-.72-8.12-3.64-15.74-5.4-23.62a6.5 6.5 0 0 1 0-2 5.31 5.31 0 0 1 2.08-3.75c1.92-.73 2.9 1 4.3 1.65l4 1.63c-1.38 1.06 1.1 2.27-.13 3.34-3.9 1-1.5 4.17-2.24 6.26 1.12 3.07.07 6.5 1.54 9.54z" fill="#353435"/><path class="p" d="M320.87 363.08l-.9-2.53c-1.23-4.2-1.22-4.2 3.13-3.73 0 .23.1.45.15.67-.2 2.12.3 4.5-2.4 5.6z"/><path d="M209 301.2c-.33-9.2 4.8-14.76 10.7-19.54a66.37 66.37 0 0 1 24.79-13 10.05 10.05 0 0 1 6.57.47c5.23 2.1 10.56 2.4 15.78-.1 2.62-1.26 5.2-.82 7.72 0 11.67 4 22.35 9.5 30.23 19.38a20.44 20.44 0 0 1 4.07 10.19 2.32 2.32 0 0 1-.45 1.8c-.6.53-1.15-.2-1.68-.55-10.9-7.48-23.8-10.84-35.3-17.14-2.22-1.22-4.8-1.1-7.37-.5a23.52 23.52 0 0 1-10.26.05 12.58 12.58 0 0 0-9.21 1.11c-11.4 6.52-24.34 9.77-35.6 17.84z" fill="#360a00"/><path d="M292.12 296.25c.57.34 3.4-.35 1.34 1.17-5.42 4-8.7 9.92-13.85 14.06a23.52 23.52 0 0 1-11.94 4.88c-10.07 1.26-20.05 1.5-28.8-5.05a14.9 14.9 0 0 1-2.68-2.31c-3.63-4.44-6.67-9.43-12.26-12 1.18-1.1 2.13-.7 3-.77a225.19 225.19 0 0 0 65.18.02z" fill="#4b1900"/><path d="M292.12 296.25c-2.3 1.87-5.26 2.1-7.83 2.15-9.5.16-18.86 2.4-28.37 1.73-8.77-.63-17.53-1.57-26.28-2.43a3.5 3.5 0 0 1-2.69-1.48c4.35-1.07 7.75-3.88 11.33-6.3 5.15-3.47 10.42-5.2 16.77-3.53a21.9 21.9 0 0 0 10.2-.21 16.24 16.24 0 0 1 12.47 2.08c4.7 2.8 8.68 7.02 14.4 8z" fill="#240000"/><path d="M273.83 258.75c.7 2.55 2.35 1.57 3.73.9a11 11 0 0 0 5.25-6c1.08 4.9-1.2 8.2-6.07 9a17.18 17.18 0 0 1-4.75.07c-3.47-.45-6 .8-8.32 3.38a9.15 9.15 0 0 1-14.36-.93 5.23 5.23 0 0 0-5-2.46c-1.72.12-3.44.08-5.16 0-5.65-.1-8.34-3-8.1-9 1.46 2.37 3 4.46 5.32 5.68 1.33.7 3.2 2.2 4.07-.7a8.92 8.92 0 0 1 7.19.79 18.76 18.76 0 0 0 10.9 2.51 13 13 0 0 0 8.2-3.28c2.37-.15 4.74-.58 7.1.04z" fill="#3e0f00"/><path d="M256.47 223.13l-2.43 19.47c-.16 1.45-.68 1.7-2 1.47-1.56-.26-1.07-1.06-.85-2l4.67-19.08z" fill="#8d7435"/><path d="M272.63 331.13c-8.73-1.13-17.08-1.7-25.18 2.47 3.36-5.32 18.15-6.76 25.18-2.47z" fill="#431300"/><path d="M253.88 250.25a1.94 1.94 0 0 1-2 2.08c-1.8.1-2.68-.83-2.7-2.63 0-1.2.3-2.16 1.74-2.08a3.22 3.22 0 0 1 2.96 2.63z" fill="#8c7434"/><path d="M273.83 258.75a7.22 7.22 0 0 1-7.09 0c3.53-3.2 4.83-3.2 7.1 0z" fill="#0c0100"/><path d="M247.64 259.55c-2.4-.2-4.92.65-7.2-.8 2.33-3.44 3.95-3.26 7.2.8z" fill="#090000"/><path d="M273.43 236.5l2.75 4.3c.43.66 1.12 1.42 0 1.86-.85.32-2 .3-2.16-1-.28-1.5-.37-3.05-.6-5.16z" fill="#421300"/><path class="AB" d="M281.05 215v-1.56c.52-5.9 7.76-12.1 13.92-11.95.26 0 .67-.07.77.07 3.74 5.3 7.17-.26 10.7-.5 2.13-.15 4.42 1.52 6.42-.33.12 2-.9 3.63-1.4 5.44a2.15 2.15 0 0 1 .21 2.22c-1.93 1.2-2.44-1.43-4.2-1.45a9.27 9.27 0 0 1-2.44 7.4c-2.85 2.52-6.2 1.82-9.48 1.42-4.82-.63-9.54-2-14.5-.75z"/><path d="M311.22 208.54l.24-2.43c3-1.48 4.4-.63 6.27 3.42 1.42 3.08-1.5 2.84-2.75 3.47a34.46 34.46 0 0 1-5.91 1.87h-.82a1.19 1.19 0 0 1-.48-.92c.5-2.25 4.23-2.36 3.45-5.4z" fill="#554540"/><path d="M315.32 350.32l-1.66 3.22c-1.88-.3-1.18-1.73-1.18-2.78a47.23 47.23 0 0 0 .14-4.84c-10.52 12.08-23.1 20.4-39.12 22.5-19.33 2.54-38.26 1.4-56.14-7.38a87.22 87.22 0 0 1-31.24-23.8c.43 4 .35 7.13.56 10.25.13 1.8.42 3.75-1.2 5.2-2.73-.93-2.8-3.4-3.3-5.64.2-7.18 1.73-14.62-4.77-20.32-1.84-1.6-3.14-3.85-4.7-5.8l.78-.74c11.68 14.36 24.76 27.15 40.94 36.4 9.5 5.44 19.8 8.4 30.7 9.8 9.7 1.25 19.23.15 28.8-.82 13.55-1.4 24.33-8.43 33.73-17.68 7.63-7.53 15.76-14.6 22.36-23.13.6-.76 1-1.43 1.26.14-2.27 3.74-5.36 6.82-8.15 10.14-.14.37-.2.85-.48 1.07-4.65 3.62-6.84 8.47-7.33 14.22z" fill="#050101"/><path d="M342.48 305.87a57.67 57.67 0 0 1-7.33 13.41c-.9-.63-.5-1.3-.13-2l6.1-11.38c.42-.8.88-2.1 1.36-.03z" fill="#0b0402"/><path d="M229.4 191.1c2.35 1.1 3.28.5 7.13 3.1.15 3.43 1.1 6.8.73 10.25-.13 1.15.35 2.42-.78 3.33-2-2 0-5.25-2.16-7.37-6.64 11.32-8.57 12-13.28 4.15-1.27 2.4-3.26 3.08-5.76 3.25-2.33.17-4.87.7-6.5 2.63-2.14 2.57-4.8 2.8-7.55 1.85a11.19 11.19 0 0 0-8.83.31c-4.23.73-4.5 1.14-2.87 4.38 1.33 1.22 2.88.95 4.4.64a6.71 6.71 0 0 1 5.89 1.11 1 1 0 0 1 0 1.09c-3.83.63-7.5 2-11.53 1.63-2.2-.2-2.86-.93-2.38-2.82s.54-3.37-1.3-4.46l.1-.87a1.24 1.24 0 0 1 .3-2c3.94-1.78 5.2-5.85 7.74-8.8a6.33 6.33 0 0 1 1.56-1.62c5.27-2.24 5.26-2.23 9.3 2.18 1 1.14 2.92 1.42 3.4.24 2-5.15 6.6-5 10.8-5.72s4.32-.72 4-5.17c.1-.67.65-.9 1.1-1.23z" fill="#5f6a9b"/><path d="M222.85 191.13l-.78.77c-1.23 1.28-2.86 1.2-4.4 1.2-6.7 0-13.37.16-20-.07-3 0-6.06-.18-9.1 0-1.76.12-3.18.9-3.3 2.8-.16 2.56-1 5.34 1.06 7.53.82.86 2 .27 3 0 1.35-.34 2.64-1.4 4.12-.38a35.76 35.76 0 0 1-8.71 10.29c-2.3-.06-2.35-1.68-2.35-3.35v-14.3c0-4.77.7-5.3 5.27-5.35 11.7-.1 23.44 1.32 35.2.88z" fill="#8c8f9c"/><path d="M199.8 219.8v-.8a2.9 2.9 0 0 1 1.94-1.38c7.27 2.18 14.23 1.1 21.05-1.87 1.2-.52 2.73-1.07 3.78-.13 2.67 2.38 5.36 1.46 8.12.45a2.38 2.38 0 0 1 1.7.54v1.53c-.48 1.3-.93 2.62-2.37 3.2l-.87.8a230.94 230.94 0 0 0-28.44-1.56c-1.62-.06-3.45.6-4.9-.77z" fill="#8b9298"/><path d="M315.32 350.32c-1.66-7.27 2.32-11.67 7.8-15.3.6 5.36-2.5 9.78-3.77 14.67-.2.8-.48 1.4-.08 2.15-1.53.03-2.64-1.03-3.96-1.53z" fill="#a56900"/><path class="AB" d="M278.65 211.78c-1.5-1.68-.5-3.7-.78-5.56 2.4 1.55 1.6 3.55.78 5.56z"/><path d="M308.07 214.17a3.57 3.57 0 0 1 .18.66c-.4 6.36-2.27 8-8.76 7.23a120.77 120.77 0 0 0-14.35-.72c-4.75 0-5.76-1.6-4.1-6.4 2.36-2.8 5.4-1.74 8.25-1.33a90.5 90.5 0 0 0 10.89 1.38 6.42 6.42 0 0 0 4.68-1.65c1.13-.1 2.33-.2 3.2.82z" fill="#9fa7b1"/><path d="M201.42 218.15a1.71 1.71 0 0 1-1.63.8c-2.38-.32-4.68-1-7.16-.1a3 3 0 0 1-4-1.46c1-1.17 2.4-.82 3.66-1 .9-.13 2-.1 2.3-1.17.36-1.24-.86-1.42-1.58-1.87a3.27 3.27 0 0 1-1.15-1.55c3.34-2.24 6.68-1.33 10.17-.25 2.14.67 4.2.52 5.9-1.75 2-2.7 5.44-2.9 8.53-3.12 1.42-.1 2.8.05 2.9-1.66.06-1-.35-1.88 1.08-1.92a2 2 0 0 1 2.32 1.68c.35 2.26 1.9 5 3.6 4 2-1.2 5.8-1.92 5.43-5.8a2.53 2.53 0 0 1 .3-1.51c.67-1 .64-3 2.28-2.8 1.4.2 1.84 1.87 2 3.15.2 2 .1 3.95.1 5.93-.37 2.38-1.63 4.75-.07 7.15-1 .53.37 1.1 0 1.64h-1.53c-1.8-2.2-4.1-2.88-7-2.94-6.86-.14-13.68.6-20.55.18-4.32-.25-5.46.9-5.9 4.38z" fill="#7287ac"/><path class="B" d="M183.08,393.38a1.57,1.57,0,0,0-.77,1.55c-1.92-3.75-2-7.95-3.43-11.82l1-.28Z"/><path class="K" d="M185.47 352.68c.55-5.62 0-11.2-.38-17.1 9.46 9.9 19.53 18.86 32.18 24.38 5.5 5.35 10 11.63 15.63 16.88a96 96 0 0 0 10.49 8.48c8.34 5.86 17.3 6.68 26.87 3.76 14-4.27 24.58-13.16 33.28-24.6.48-.63.87-1.34 1.4-1.92 2-2.13 3.23-2.05 4.4.66a83 83 0 0 1 7 26.64 16.44 16.44 0 0 1 .33-7.15c.3-.92.23-2.24 1.8-2.14a50.18 50.18 0 0 1-2.28 16.82c-.9-.6-.9-1.53-1-2.46-2.1 5.06-3.08 10.58-6.26 15.2-9.62 11.62-22.36 17.6-36.8 20.68-3.1.66-6.34.23-9.3 1.52-9 2.07-17.7.54-26.5-1.95-11.42-3.23-20.32-9.94-28.32-18.22a36.2 36.2 0 0 1-7.41-11.2 1.15 1.15 0 0 0-.67-1.24c-6-7.23-8.92-15.88-11.25-24.78a13.19 13.19 0 0 0-1.45-5.31c-2.22-5.5-2.35-11.18-1.75-16.95z"/><path class="M" d="M318.46 380.58c-1.48 3-1.58 6.3-1.67 10-2.3-2.25-1.53-5-2.17-7.28-1.76-6.36-3.12-12.83-5.86-18.87-.4-.88-.22-2.4-1.52-2.53s-1.48 1.33-2.07 2.14c-8.36 11.46-18.64 20.4-32.2 25.32-11.58 4.2-22.24 3.14-32.16-4.5A100.07 100.07 0 0 1 217.27 360c12.44 5.6 25.44 9.08 39.13 8.57 10.9-.4 21.92-.72 32.2-5.42a65.85 65.85 0 0 0 17-11.49c2.82-2.57 5.45-5.35 8.07-7.94v9.85c-.3 6 3.47 11 4.33 16.86.47 3.16.2 6.28.6 9.4z"/><path d="M200.63 401c5 7 10.1 13.85 17 19.14 10.64 8.15 22.84 11.74 36.07 12.22 3 .12 6.08 0 9.12 0a23.67 23.67 0 0 1-18.77 1.4c-8.18-2.7-17.08-4.18-23.88-10-6-5.18-13.4-9.07-17.27-16.55-1.02-2.03-2.5-3.82-2.27-6.2z" fill="#050000"/><path d="M188.7 374.94c3.66 8.3 6.76 16.86 11.25 24.78-7.86-6.4-10.9-14.98-11.25-24.78z" fill="#060000"/><path d="M308.93 410.13l6.33-18.64c1.26 2.43.6 4.25.92 5.9a32.27 32.27 0 0 1-7.25 12.74z" fill="#874d17"/><path d="M308.07 214.17c-1.12-.1-2.37.35-3.2-.84a9.56 9.56 0 0 0 1.21-8.5 10 10 0 0 1 5.14 3.71c1.67 1.88 2.3 3.5-1.07 4a3.08 3.08 0 0 0-2.08 1.63z" fill="#a5b2c9"/><path d="M291.45 205.57a10.4 10.4 0 0 0 1.35 6.9c-2.67-.36-6.05-.57-6.35-2.38-.38-2.3 3.3-2.73 5-4.52z" fill="#99a3c1"/><path d="M196.65 191.9h25.42l1.16 3.74c.64 1.84-.4 2.4-1.92 2.6l-7.43.86c-2.75.45-5.57 1-5.4 4.8 0 .8-.53 1.6-1.07 1.16-1.55-1.26-4.48 1.6-4.82-1-.76-5.87-4.12-3.53-7.13-2.8l-1.16.26a1 1 0 0 1-.1-1.1 11.43 11.43 0 0 0 2.46-8.5z" fill="#7a99b6"/><path d="M196.65 191.9c3 4.13-.38 6.7-2.36 9.6l-.9 1.5-5.17 1.9c-.9.34-1.83.76-2.62.05-3.2-2.9-1.45-6.7-1.54-10.07-.05-2.43 2.06-3.05 4.28-3 2.77.06 5.54.02 8.3.03z" fill="#8da9c3"/><path class="AS" d="M191.9 211.8c.12.06.28.08.35.17 1 1.52 4.6.55 4 3.27s-3.48 2.05-5.62 2.13h-2c-1.64-1-2.1-2.38-1-3.9 1.03-1.3 2.28-2.58 4.27-1.68zm9.52 6.35c-2.85-1.4-2.12-3 0-4.26a10.36 10.36 0 0 1 5.3-1.32q11.78.08 23.55 0c2.8 0 4.66.82 4.58 4-3 2.32-5.94 2.3-8.44-.2-1.13-1.12-2-.12-2.83.2-4.9 1.75-9.66 3.55-15.08 3.33-2.62-.12-4.66-1.5-7.08-1.75z"/></svg>