<svg width="500" height="500" viewBox="0 0 500 500" fill="none" xmlns="http://www.w3.org/2000/svg"><ellipse cx="250" cy="301" rx="189" ry="190" fill="#FECA01"/><path d="M429 362c-1-2-4-3-7-4l-22-6c-13-5-27-11-41-14-7-2-13-4-19-8-8-5-16-8-25-10l-1-1c-2 2 0 4 1 6 5 13 6 27 2 40l-1 1v1c-2 5-5 10-9 14-9 10-21 15-33 18-32 7-59-3-76-33-7-13-11-27-14-41v-1a8 8 0 0 0-3-7c-29 3-55 20-80 27-5 2-32 10-32 12 29 102 114 136 186 136 50 0 77-17 101-33 32-22 64-62 73-97Z" fill="#462549"/><path d="m428 362 2-6c-26-8-60-13-83-28-2-2-3-3-3-5 3-15 5-32 21-38 5-2 9-7 10-13 2-15 1-31 6-45 2-6 9-4 14-4 2 0 3-1 2-3l-1-29-31-22-85 130 36 29c38 9 74 24 112 34Z" fill="#F4A31E"/><path d="M394 161c-2-3-5-7-4-11 1-5 0-9-5-12a1 1 0 0 1-1-2h1c5 1 7 0 6-5v-4c-3-9-7-17-13-23-5-5-9-11-15-14l-2-2c-1-2-1-3 2-3 3 1 3-1 3-3l-2-4c0-1-1-2 1-3 3-2 3-6 2-9a13 13 0 0 0-9-10c-5-2-10-2-15-6-2-2-5-3-8-3-6-1-13-1-19-5l-8-1-8-2c-2-1-4-3-3-6 0-2-1-4-3-5-5-2-9-4-14-4s-10-1-14-3c-10-4-18 1-18 12v3c0 3-1 3-3 3s-2-2-3-4c-7-11-16-19-29-22a8 8 0 0 0-7 1c-3 3-7 2-10 0-5-4-11-4-17-4-3 0-4 2-4 5a9 9 0 0 0 10 8h9c1 1 3 1 3 3s-3 1-4 1c-6 1-8 3-7 8 0 2 0 4 2 4s4 0 5-3c1-1 1-3 3-3 4-1 12 2 14 5 1 3 0 4-2 4l-6-1c-4-1-8-1-11 2-2 2-5 2-8 0l-6-3c-14-1-28 0-42 6l-7 5v4c0 2 2 2 3 2l12-3c7-2 14-5 23-3l-17 6c-8 2-14 6-19 13-3 5-8 10-13 14s-7 9-8 16c0 9 4 17 4 26 0 1 1 3 3 3s3-2 3-4c0-7 4-12 9-17 2-1 3-3 3-5a12 12 0 0 1 4-10c2-1 4-3 6-1 1 1 0 3-1 5l-15 20c-2 2-4 5-4 8l-5 13c-4 10-5 19 1 29l4 3c2 1 3 3 3 5 0 4 2 5 5 7 2 1 6 3 6 6l5 13 1 2a2 2 0 0 0 2-2c-1 0 1-1 0 0a11 11 0 0 0 3 8c2 3 2 5 0 8-2 5-4 9-1 14 0 2 0 5 3 5 2-1 1-4 2-5v-1c1 3 2 6 5 7h1v-1c2-1 2-3 1-5-1-3 0-7 1-11l2-6c0-5 2-10-2-15l-1-1h-1a2 2 0 0 1 1-3l1-1h1l3-4c0-9 2-18 1-27l-2-15 2-11 2 7c0 2 1 4 3 4s4-1 4-3c1-2 2-5 1-8-2-10-1-19 8-26l-1 8-4 17v16c1 3 4 6 6 5 4 0 4-3 5-5v-4l3-26 1-10c2-7 7-12 13-12 9 0 17-2 26-3 7-1 13-1 17 5h1c3-2 1-4 0-5l-6-19c-3-6-3-11-4-17v-5c1-1 2-2 3 0l7 14c1 6 3 12 6 17 1 5 2 9 0 14 0 2-1 4-4 2h-2l1 11 1 7 3 2 4-2v-2l2-15c0-2 1-3 3-2l8 5c2 2 5 3 7 0h5a13 13 0 0 1 7 11l1 6c1 3 4 4 7 2a8 8 0 0 0 3-6l-1 21c0 5 0 10-2 14-1 3-2 6 0 9a4 4 0 0 0 3 1c4-1 6-4 7-8l1-8c1-9 4-18 1-27 3 0 4 2 5 4 4 5 5 11 6 17l3 4c2 1 2-1 4-2l-2 32 1 7c1 1 1 3 3 3s2-1 2-2c-2 6-3 21-2 28l3 4a2 2 0 0 0 2-2v-1l1-1 1-5 1-4c1-1 2-3 3-2 2 0 2 2 1 3l-1 10a3 3 0 0 0 3 4l3-2c-2 4-2 9-2 13l-1 8v2l1 2v11c1 1 1 3 3 3 1 0 2-1 2-3h1c1 3 2 4 4 1a3 3 0 0 1 2-2h3c2-1 2-2 2-5v-14c-1-3-1-7 2-10a16 16 0 0 0 4-12l1-4v-9c4 0 3-3 4-5s2-2 3 0l2 4 2 1 1-1c1-4 3-3 6-1a1 1 0 0 0 1 0c2-2 3-1 4 1a2 2 0 0 0 3 1 2 2 0 0 0 1-2l1-5v-9c3-7 0-14-2-21Zm-63 23s1-1 0 0Zm17 29-1 2 1-2Z" fill="#514440"/><path d="M419 385c-5 11-11 17-18 27 2-10 4-19 13-25l5-2Z" fill="#A897A8"/><path d="m112 357-22 8-15 8-2-6c7 0 15-5 22-7 1-1 2-2 4-1l13-2Z" fill="#A899AA"/><path d="m332 259-1 9v3c-5 13-7 27-16 38v1l-18 24c-8 11-18 17-30 23-13 7-26 7-40 3l-7-2c-12-3-20-11-26-21l-10-12c1 2 2 5 0 7l-1-6a11 11 0 0 0-2-9c0-2-2-3-3-5-12-21-20-45-23-69v-7c2 0 2 2 3 3l1 8c1 13 5 24 14 34 3 3 4 7 5 11 1 8 4 16 9 23a12 12 0 0 0-2-9c-3-6-4-12-3-19 0-2 1-5 3-7 4-5 10-9 17-10l15-5h25c7-2 14-2 21 2 3 2 7 2 10 2l17 4c7 3 9 5 9 13l-1 5c-4 7-2 15-3 22 9-4 16-14 13-23-1-6 0-11 5-15l4-4c7-7 11-14 11-23 0-3 1-5 3-7 1-1 2 0 2 1l1 4v11l-2 2Z" fill="#514440"/><path d="M184 332v-8h1c3 3 6 6 8 11 4 7 10 11 15 17 3 3 8 3 12 5l8 9c5 6 11 11 17 15 11 6 23 4 34-6 8-8 14-18 19-28l7-15 2-2a2 2 0 0 1 2 1c5 12 9 24 8 37-4 11-12 18-22 24a76 76 0 0 1-59 7c-17-4-28-15-37-30-7-11-11-24-15-37Z" fill="#FCC090"/><path d="M317 368c-2-12-4-23-8-34l-2-4-8 18c-6 11-12 22-23 31-12 9-25 8-37-1-7-6-14-13-19-21l12 3c13 3 25 1 37-5 15-7 27-19 36-32l10-13v10c-2 1 0 2 0 3 6 13 6 27 4 40l-2 5Z" fill="#E68D72"/><path d="M272 413c-14 4-28 5-43 2-20-5-34-19-42-38-3-6-5-13-6-20v-1c8 24 21 43 46 53 13 5 28 5 42 4l2-1 1 1Z" fill="#A898A8"/><path d="M352 413c7-18 7-36 1-54 12 16 12 44-1 54Z" fill="#A897A9"/><path d="M166 355c-1 23 4 43 20 60-15-5-28-44-20-60Zm168-17c5 12 4 45-2 54 1-18 3-36 2-54Z" fill="#29102B"/><path d="M162 332c-6 3-10 8-13 14 1-7 8-16 15-17l7-3 5-1c-6 8-14 13-20 20 0-5 4-9 6-13Z" fill="#2B112D"/><path d="M360 351c7 9 11 30 10 45-2-15-6-30-10-45Z" fill="#29102B"/><path d="m99 359-4 1h-5c12-4 24-10 34-18-3 5-12 12-19 14l-6 3Z" fill="#2B112D"/><path d="M158 397c-8-13-10-26-5-40-1 13-1 27 5 40Z" fill="#AA9AAB"/><path d="M181 356v1l-2-10 2 9Z" fill="#78607A"/><path d="m272 413-1-1 7-1-6 2Z" fill="#846F87"/><path d="m331 242-2 10c-1 11-8 18-15 24-4 4-6 7-5 13 3 10-1 17-9 23l-6 4 1-19c0-4 3-7 3-11 0-7-2-9-8-12-6-2-11-3-17-3l-11-3a23 23 0 0 0-18-2c-5 2-11 2-17-1h-8l-25 8-3 3-2 2c-5 4-8 8-6 14 1 5 0 10 4 14 3 3 2 7 2 11-2 0-3-2-4-3-4-5-6-12-7-18-1-7-4-13-9-19-7-9-10-19-11-31-1-3 0-7-3-10 2-1 2-3 1-5v-9l3-13c0-4 0-7-3-10l2-6a4 4 0 0 0 3-5l1-12-1-18c-1-6-1-13 1-19l2-7 1 12c1 1 1 3 3 3a4 4 0 0 0 4-3v-9l-1-7c0-5 1-10 5-15l5-7c1 5 1 10-1 15-2 8-4 17-3 27 0 2 0 5 3 7s4 2 5-1l1-4c0-11 3-21 3-31 0-5 1-9 3-13 3-4 6-7 11-7 10 0 20-3 30-4 6-1 11 0 14 6l1 2c1 5 1 11 3 16 0 2 0 4 2 4s3-2 3-4c0-6 3-12 1-18 0-2 1-1 2-1 4 1 8 2 11 6 2 2 5 3 7-1a2 2 0 0 1 3-1c5 3 10 6 10 13v4c1 2 0 5 4 5 3 0 5-3 5-6 0-2-1-4 1-5 2 2 1 3 1 5-1 8-2 17-1 25l-2 9c-1 3-2 6 0 9-2 3-4 1-5 1-7-1-13-2-19 0-3 0-5 1-7 3l-1 2h2l18-1c9 0 18 3 27 9-2-5-6-8-10-10-1 0-3-1-3-3a8 8 0 0 0 6-8l3-18c0-6 1-12-3-19 5 1 7 3 9 6 3 6 5 12 6 19l2 3a2 2 0 0 0 2-1l2-3v12l-1 23v4c1 1 1 4 3 4s2-2 2-4a2 2 0 0 1 2-2l-2 13c-1 7-2 14 0 22l1 2v1c1 8 1 16-1 24Z" fill="#FCC090"/><path d="M298 109v3c-1 1-1 3-3 3-2 1-3-1-4-2l-4-11-5-16-1-24 1-2 2 1 3 3c3 9 7 18 7 27l3 10v8h1Zm-50-6-1-2c2-2 1-3 0-5-4-11-9-23-11-35v-1c1-3 0-6 3-7 2-1 3 3 4 5 6 11 9 23 13 35 1 3 0 6-1 9s-3 3-7 1Zm-99-12c-5 11-3 22 0 33v12a5 5 0 0 1-3 5l-4-2c-6-4-7-11-7-17 0-12 4-23 14-31Zm210 67c1 13-3 27-8 39l-4 8c0 1-1 2-2 1l-1-1v-2c3-11 2-23 5-35l3-15c0-2 2-5 5-4 2 1 3 2 2 4v5Zm-34-57v2c-1 2 0 4-2 5s-5 0-7-1v-3c-3-2-4-5-5-8-1-5-4-9-6-14-2-4-3-9-3-13-1-1 0-3 1-4l3 2c9 9 16 21 19 34Zm-162 7c0-13 2-26 9-37 1-2 2-4 4-3s2 3 2 4c0 10-4 18-5 27-2 6-4 13-3 20 0 1 0 3-2 3s-2-1-3-2c-2-4-3-8-2-12Z" fill="#714F41"/><path d="M333 257v-13c-2-8 1-15 0-23-1-4 2-9 2-13a9 9 0 0 1 3-8 3 3 0 0 1 4 0l1 3-2 11c0 2 0 3 2 4s2-1 3-2l3-7-1 5c-3 5-3 12-3 18l-1 6-5 16c-1 3-3 4-6 3Z" fill="#FCC192"/><path d="m232 83-1 3c-1 3-2 3-5 1-9-5-9-14-9-22v-9a5 5 0 0 1 3-5l3 3c4 4 4 10 6 15l3 14Zm-39-11c-1-6 2-12 6-16 1-1 2-3 4-2s1 2 0 4l-2 11c0 3 1 5 3 7 4 5 3 10 3 16 0 1-2 2-4 1-9-2-9-10-10-17v-4Zm133-7c9 5 14 13 18 22 4 6 3 14 3 21a3 3 0 0 1-2 3c-2 0-3-1-3-2-4-4-4-9-6-14l-9-27-1-3Z" fill="#714F41"/><path d="M300 164c0 2 2 2 3 2 6 3 10 7 12 13h-1c-11-9-24-10-38-9l-9 1c-3 0-3-1-2-3 1-4 5-5 9-6 7-1 14 0 21 1h3l2 1Z" fill="#4D4949"/><path d="m332 153 1-26c0-1 0-3 2-3l2 2 2 4c1 13 0 27-2 40 0 2-1 5-2 4-2 0-3-2-3-5v-16Zm-199 2c4 2 7 5 8 9 4 10 9 19 12 29v9l-1 3c-1 1-2-1-2-2l-1-2c-2-11-8-20-12-29-3-6-5-11-4-17Zm-16-55a16 16 0 0 1 4-12l19-19 5-2a3 3 0 0 1 4 1c0 2-1 2-2 3-3 2-8 3-11 7-4 4-9 8-10 16l-5 12-2 2-2-2v-6Zm267 28c0 1 1 4-2 4s-3-2-3-4c0-6-4-9-8-12l-9-9c-2-2-2-5-2-8l1-2 2 1c5 7 12 12 18 19 2 3 3 7 3 11Zm-24-60a5 5 0 0 1-2 4c-2 1-3-1-3-1-6-9-15-12-23-16-2-2-6-3-5-5s4 0 7 1l14 4c6 2 12 8 12 13ZM224 32c1 2 0 4-3 5-2 0-3-1-4-3-1-3-4-4-6-5l-5-3c-2-1-3-2-3-4l5-4h1c6-1 15 8 15 14Zm134 95v-11c0-1 0-3 2-3l2 1c2 2 4 5 4 8 1 5 0 11-1 16-1 1-2 3-4 3a4 4 0 0 1-3-5v-10 1Zm15 51c-2-8-1-17 0-25l1-3a3 3 0 0 1 3-2 3 3 0 0 1 2 2l2 8c-1 5 0 10-2 14-1 3-3 5-6 6ZM298 48c9 0 15 3 20 9l2 3c0 2-1 3-3 2l-7-4-12-10Zm-38-21a8 8 0 0 1 8 2c3 3 8 3 10 8 1 1 2 2 1 3h-4c-4-3-9-5-12-9l-3-4Z" fill="#714F41"/><path d="m335 208-2 38-1-4h-1l1-26c2-2 2-5 3-8Z" fill="#C6655A"/><path d="M333 257c3 0 5-1 5-5 1-5 3-10 6-14l1 4c-3 3-4 7-4 11-2 5-3 6-9 6l1-2Z" fill="#C6645D"/><path d="M158 193c0 2 0 4-2 6-2-3-1-4 2-6Z" fill="#F7C592"/><path d="M250 330c-6 2-12 5-18 1 0 3 2 3 3 4s2 2 1 3a2 2 0 0 1-2 1h-21l-4-1c-9-8-15-18-16-31v-6c-2-8 2-14 9-17l20-8c4-1 8 0 11 1h13c15-3 28 4 40 12 3 1 3 5 4 8 0 11-3 22-9 31-4 7-12 10-20 11l-6 1c-5 1-7-1-6-6l1-4Z" fill="#FCC091"/><path d="m168 171 8-10 9-3c10 0 20 2 29 5 2 1 5 2 6 4a3 3 0 0 1 0 3c0 2-2 1-3 0-9-2-18-4-28-4-7 0-14 1-21 5Z" fill="#4D4949"/><path d="M221 191c-14-12-29-14-44-4 1-7 8-12 18-13s22 7 25 17h1Z" fill="#E58C71"/><path d="M260 191c6-8 13-15 25-14 10 1 17 6 20 16-15-13-30-13-45-2Zm-33 66 8 5c4 0 7-2 10-4l10-2c6 2 10-1 10-9 3 5 1 10-5 12h-3c-6 0-11 2-16 5-4 3-9 1-13-2-2-2-4-2-7-2s-7 0-10-2c-5-2-6-6-3-11 0 3 0 6 2 8s5 3 8 1 6-1 9 1Z" fill="#E58B71"/><path d="M298 213c-7 9-22 10-33-3 11 3 22 4 33 3Zm-118-5c11 3 22 3 32 3-8 9-24 9-32-3Z" fill="#E68C71"/><path d="M235 235c-2-1-3-3-5-3s-2-1-1-2l7-30h1l-2 35Z" fill="#FEE5D4"/><path d="M189 208c-4-1-8-2-12-5-2-2-1-3 0-4 14-8 29-5 40 6h-3l-11-7c-2 0-4-1-5 2-2 3-4 3-7 0l-1-2c-2-3-3-1-5-1-1 1-4 2-3 4l3 3 5 3-1 1Z" fill="#1E1818"/><path d="M274 199c10-4 20-3 29 6a2 2 0 0 1-1 3l-9 3-2-1c1-2 4-2 5-3 2-1 2-2 1-4-2-2-4-3-7-3-2-1-3-1-4 1-2 4-3 4-8 3a4 4 0 0 1-1-3l-1-1c-1 0-2 1-2-1Z" fill="#20191A"/><path d="M274 199h3c2 0 1 1 1 2l-2 1 2 1c5 2 6 1 7-3 1-3 3-2 5-1 2 5-2 10-9 11-5-1-8-4-9-9l2-2Z" fill="#7D3C1A"/><path d="M231 244c-2-1-6-1-6-4-1-3 2-3 4-3 3 0 6 1 6 4 1 3-2 2-4 3Z" fill="#FEE5D3"/><path d="M253 224c2 3 2 6 2 9 0 4 5 3 5 7h-1c-7-2-7-2-7-9l1-7Z" fill="#E58B71"/><path d="m291 210 2 1c-5 2-10 1-15 0l-15-6a2 2 0 0 1 2-1l15 5h6l5 1Z" fill="#9C8272"/><path d="M189 208v-1h1l24-3c1 1 2 2 3 1-9 4-19 5-28 3Z" fill="#9C8574"/><path d="M255 256c-3 2-7 2-10 2a9 9 0 0 1 7-4c2 0 4 0 3 2Z" fill="#AE6A56"/><path d="m227 257-9-1c-1-2 1-2 2-2 3 0 5 0 7 3Z" fill="#B36C58"/><path d="M265 205h-2c-1-1 0-1 1-1 2-2 5-4 8-4h1c-2 2-5 4-8 4v1Z" fill="#20191A"/><path d="M335 240c2-6 2-11 2-17 2 2 2 5 2 8 3-1 2-4 3-6 1 7-1 12-7 15Z" fill="#E68C71"/><path d="M225 280c7 3 15 1 22 0 11 0 20 4 29 8l7 4-3 6c-3 5-4 11-7 15-7 10-17 15-29 17-20 3-32-4-40-24-1-3-2-7-5-9l-1-2c6-6 11-13 20-14l7-2v1Z" fill="#E76E67"/><path d="M214 205c-8 3-16 3-25 2l-7-4c-3-2-3-3 0-5l3-2 2 3c1 4 3 6 7 6s6-2 7-5l2-3 11 8Z" fill="#fff"/><path d="M203 197c-1 6-4 9-9 9s-7-3-8-9l-1-1 4-1c3 0 2 1 1 2l-1 2 2 1c4 2 6 1 7-4l5 1Z" fill="#7D3C1A"/><path d="M191 200c-1 0-2 2-3 1a2 2 0 0 1-1-3l3-1 1 3Z" fill="#F3EDEA"/><path d="M291 210h-12c0-2 1-1 2-1 7-1 9-3 9-10 3 0 5 1 7 3 4 2 3 4-1 6l-5 2Z" fill="#FDFEFF"/><path d="M278 203c0 1-1 2-3 1a2 2 0 0 1-1-2c1-2 2-2 4-1v2Z" fill="#F8F3F1"/><path d="m281 209-2 1c-5-2-10-2-14-6l8-4c0 6 4 8 8 9Z" fill="#FCFCFB"/><path d="m258 296 21-3c-9 6-18 10-27 13l-1-1c1-2 5-3 7-5-7 2-14 1-21 2s-13-1-20-1h-3c-4 1-7-3-11-4h27l22-2 6 1Z" fill="#BA534D"/><path d="M214 302c1-2 2-2 4-2l22 1 22-3c-3 4-7 6-11 7-13 4-25 3-37-4v1Z" fill="#FDFDFE"/><path d="M258 296c-13 2-25 3-38 1 3-2 6-2 10-2h26l2 1Z" fill="#FDFBFC"/></svg>