<svg width="500" height="500" viewBox="0 0 500 500" fill="none" xmlns="http://www.w3.org/2000/svg"><path d="M252 490a181 181 0 1 0 0-362 181 181 0 0 0 0 362Z" fill="#F5F9FC"/><path d="m375 161-6-5 6 5Zm-9-7 3 2-3-2Zm-18 254-1-1 1 1Z" fill="#FEFEFE"/><path d="m222 420-50-82-1-4v-1c-10-13-17-27-13-44l-27 29c-8 8-17 15-28 18l-35 13 2 7 12-4 8-2-19 10c8 26 22 49 40 69s43 36 68 46l13 6c23 8 49 11 73 9l-43-71v1Zm-73-17-3-2-20-58 1-1 33 63-11-2Z" fill="#234051"/><path d="m192 481-16-7-11-15-16-22c-2-3-1-5 1-7l13-12c0-1 2-2 1-3l-3-1h-19c-2 0-4 0-4-2-5-11-15-37-21-56-2-5-3-12-3-18l4 10c9 18 18 37 24 57 1 2 2 2 4 2h30l-11 17c-6 7-7 6-2 14l28 40 1 3Z" fill="#183444"/><path d="m165 272-6 16-1 1-27 29c-8 8-17 15-28 18l-35 13-6-33c-3-54 13-101 49-141l5-5 2 6c5 9 8 19 10 29l6 12 1 1 1 1 1 1c5 4 11 4 17 0 1 0 2-1 3 1 1 8 4 17 8 25v26Zm271 58-4 20-6-3c-17-10-36-15-56-20-9-2-18-5-27-10-2 0-3-1-2-3 5-18 10-36 17-54 7-16 13-31 15-49 1-12-3-33-7-44v-12l3 1 5 5 3 2 5 5c34 34 53 79 56 126v2l-2 34Z" fill="#FECA01"/><path d="M429 361c-6 19-16 37-28 53v1c-9 12-20 23-31 32-1 1-2 2-3 0-9-34-26-64-41-96-5-11-9-24-12-36l1-1 3-1 5 6c2 4 6 7 11 8l95 34Z" fill="#234051"/><path d="m401 414-1 1c-2 0-2-2-2-3l-6-15c-1-2-1-3-3-2l-12 5c-2 0-3 0-5-2l1-16h2c0-3 2-5-1-8l-22-24-3-5 13 11 18 17c2 1 3 3 2 5l-3 11c0 3-1 4 2 3l8-3c2-1 3-1 4 1l8 24Z" fill="#183444"/><path d="m374 383-2 15-2-19c-1-3-1-5-4-8l-6-9 13 13 1 8Z" fill="#7E7D7D"/><path d="M432 349c0 5-2 8-3 12l-95-34c-5-1-9-4-11-8l-5-6c0-22 37-68 45-92 6-15 7-31 6-47 4 12 6 24 5 37-2 17-9 33-15 49-7 17-13 35-18 54-1 2 1 2 2 3l28 10a284 284 0 0 1 61 22Z" fill="#F4A201"/><path d="M307 318c-4 15-10 28-21 40-2 3-3 3-6 2-31-13-60-29-86-50-9-7-17-15-23-25l-4-9-1-3v-1l2 1 18 17c14 11 28 22 45 30 11 5 23 8 35 6 6-2 13-4 18-8 8-1 15 2 23 0Z" fill="#FEAA87"/><path d="m264 490-42-69-50-83-1-4h1c11 14 24 26 36 39l37 41c2 1 2 3 0 4l-7 7c-2 1-2 2-1 4l30 56c2 4 2 5-3 5Z" fill="#A5A8AB"/><path d="m322 406-1-3 1-15-2-2-20-17c-1-2-4-2-6-1l-7 2c-8 2-12 6-15 13l-1 12c25 20 27 59 48 82a110 110 0 0 0 27-13c2-1 1-1 1-2v-1l-25-55Z" fill="#234051"/><path d="M314 460c2 6 6 11 9 16 0 0-14 7-25 8-11 2-14-65-14-65 0-2-1-3-3-4l-21-13c3-7 8-13 12-19l2 4 22 15 5 1c4-2 9-2 14-1 2 0 4 2 6 1l1 3c-5-2-10-1-16 0-3 0-4 1-3 5l11 49Z" fill="#183444"/><path d="M298 484c-6 2-6 2-8-4l-15-57-3-3c-5-5-11-8-15-13 0-2 1-4 3-5l21 13c2 1 3 2 3 4l14 65Z" fill="#C7CACB"/><path d="M345 405v1l-18-15c-1-1-3-3-5-3l-2-2-20-17c-3-2-10 0-13 1-8 2-11 6-15 13-4 6-9 12-12 19-2 1-3 3-3 5-2 1-2 4-5 5l6-12 18-31a6 6 0 0 1 4-4l19-4c2-1 4-1 5 1l41 42v1Z" fill="#A5A8AB"/><path d="m90 350-19 10-1-4 12-4 8-2Z" fill="#7E7D7D"/><path d="m159 288-1 1 1-1Zm13 46h-1v-1l1 1Z" fill="#234051"/><path d="m160 405-11-1-3-2-20-59 1-1 33 63Z" fill="#7E7D7D"/><path d="M154 220c-6 4-12 4-17 0h1l9 1 6-1h1Zm-19-2-1-1v-1l1 2Zm2 2-1-1 2 1h-1Zm-1-1-1-1 1 1Z" fill="#CC6B60"/><path d="m349 345 1 1-1-1Z" fill="#183444"/><path d="m188 271 20 13h-1l3 1 2 1 16 10 4 1 2 2c15 7 29 13 46 16l7 3c-5 4-15 6-21 8-12 2-24-1-35-6-17-8-31-18-45-30l-18-17v-21c4 7 9 12 14 17l5 2" fill="#EC846F"/><path d="m366 176-3-28c-10-9-22-10-34-10-2 0-5 2-5-2 0-3 2-5 4-5 9-1 18-1 27 1a8 8 0 0 1 6 4v-2l-3-22c-7-32-21-58-47-78a95 95 0 0 0-100-13c-21 8-47 23-56 46-8 15-18 36-15 68l11 3c0 1 0 3-2 4 6 14 7 29 9 43l2 12c3 14 7 28 13 41 5 13 11 25 24 31 12 6 27 13 38 21l20 10c12 6 25 11 39 11 15 0 26-2 33-20 11-14 15-34 25-49 1-4 4-8 6-11l5-17c3-12 5-25 3-38Zm-68 7v-28h1l4 33c-5 1-5-1-5-5Zm2 9c2 0 4 1 4 3s-2 3-4 3c-1 0-3-1-3-3s1-3 3-3Zm-13 12c3 0 6 3 7 5 6 8 7 8 18 3 1-3 4-4 7-4l3-3 1-5c3 7 1 11-5 14l-10 4c-8 4-12 3-17-4-3-4-5-5-10-6-9 0-13-8-10-16v3c1 6 3 8 9 9l3 1c1-3 3-1 4-1Zm-71-66c7-13 17-19 31-18 9 0 19 2 28 5 3 1 6 3 7 6 0 3 0 4-4 4l-29-4c-10-1-20 1-29 5l-4 2Zm16 13 8-6c1-1 3 0 4-2 5-1 10-2 15 0 5-2 10-2 15 1 0-3-1-5-3-7 5 0 10 4 11 9v17c0 3-1 3-3 1l-16-10c-5 1-10 1-14-1l-2-1-7-1h-8Zm9 8 18 3c-6 3-15 3-18-3Zm86 10h13c-5 2-9 3-13 0Zm22-7h-20l-11-2c-3 1-6 3-7 7-1-6-3-13 2-18 4-6 10-9 18-8l-8 6-1 2 2 1h6c10-1 15 4 21 11-1 2-1 0-2 1Zm-195 12c-1-10-2-20-6-29-2-7-8-8-13-9-6 0-10 3-12 7-5 12-7 23-1 35 3 5 4 10 5 16 2 7 3 14 7 21 7 5 16 4 23-2l-3-39Zm-29-16 1 13c-5-7-4-21 1-27 2-3 7-3 11 2h1-2c-9-1-12 2-12 12Zm25 35h-2c-6-3-9-9-10-15l-1-6c2 1 1 5 2 6l3 4c1 1 2 3 3 2l2-4-1-11 4 22v2Z" fill="#FEAA87"/><path d="M267 311c3 1 5 1 7 3h1l2 1h6l2 2 5-1c2 0 3 0 4 2h3c13 2 19-7 21-7 5-5 15-22 10-22-11 16-15 22-30 21-17-1-31-5-44-11l-54-30c-12-8-20-18-26-31l-13-41-3-12-1 6 1 14v12c3 20 10 37 26 50l2 4h3l1 1h1l7 5 1 2c3 0 5 1 7 3l27 15" fill="#EC846F"/><path d="m217 22-18 8a97 97 0 0 0-39 47c-7 14-10 29-11 45-1 5 1 10 2 16 0 1 1 3-1 4-2-3-6-5-9-7 0-9 1-19 3-28 4-20 11-38 24-54l8-10c9-6 29-25 41-21Z" fill="#FED4C4"/><path d="M363 148c-10-9-22-10-34-10-2 0-5 2-5-1 0-4 2-6 4-6 9-1 18-1 27 1a8 8 0 0 1 6 4c2 3 3 7 3 11v1h-1Z" fill="#480803"/><path d="M327 290c7-15 15-33 23-47l8-13-5 13-1 2c-5 8-6 16-10 24l-4 7-11 22v-8Z" fill="#EC846F"/><path d="M135 215c7 4 14 4 21-2 2 4-1 5-3 7l-6 1-10-1-1-1-1-1-1-2 1-1Z" fill="#E66F67"/><path d="m180 39-1 1 1-1Zm14-9-2 1 2-1Zm-13 9h-1 1Zm4-4-1 1 1-1Zm1 0h-1 1Zm4-3-1 1 1-1Zm5-3-1 1 1-1Zm-3 1-1 1 1-1Zm-1 1-1 1 1-1Zm-12 9-1 1 1-1Zm-1 1-1 1 1-1Zm-1 1h-1 1Zm-1 0v1-1Z" fill="#FEAA87"/><path d="M311 228c-5 2-10 2-16 2l-18-2-17 3c-8 3-5 4-1 10 10 13 25 21 42 20 9-1 17-4 22-12l9-14c2-3 1-4-2-5-4-1-12-5-19-2Zm16 8c-2 4-5 7-8 9-1 2-4 3-6 4-9 3-19 3-29 0l-7-2c-5-2-10-6-14-10-1-1-3-1-2-3s2 0 3 0h2c18 1 35 1 53-1l6-1c1 0 2-1 3 1 1 1-1 2-1 3Z" fill="#E66F67"/><path d="M216 138c7-13 17-19 31-18 9 0 19 2 28 5 3 1 7 3 7 6 1 3 0 4-4 4l-29-4c-10-1-20 1-29 5l-4 2Z" fill="#480803"/><path d="M259 143c5-2 10-2 15 1 0-3-1-5-3-7 5 0 10 4 11 9v17c0 3-1 3-3 2l-16-11c2-1 5 0 7-2-3-4-6-7-11-9Zm35 66c6 8 7 8 18 3 3 0 7 1 7-4l3-4 1-4c3 7 1 12-5 14l-10 4c-8 4-12 3-17-4-3-4-5-5-10-6-9 0-13-8-10-16v3c1 6 3 8 9 9h3c4 2 7 5 11 5Zm24-49c-3 1-6 3-7 7-2-7-4-14 0-19 4-6 12-9 21-7l-9 6 1 2 6 1-12 10Z" fill="#E66F67"/><path d="M344 156c-4-3-9-5-15-4-2 4-1 7 0 10h14l1-6Zm-7 4c-1 0-3-1-2-3-1-1 0-3 2-3s3 1 3 3-1 3-3 3Zm-75-14c-4-4-10-2-14-2-2 3-1 5-1 8l2 1h13c0-2 2-4 0-7Zm-6 5c-2 0-3-1-3-3l2-2h1l2 2c0 2-1 3-2 3Z" fill="#95423D"/><path d="m299 155 4 33c-5 1-5-1-5-5v-28h1Z" fill="#FED4C4"/><path d="M249 153h13l6-1c-2-2-3-5-6-6-4-4-10-2-14-2l-4-1c5-1 10-2 15 0s8 4 11 9c-2 2-5 2-8 2-4 1-9 1-13-1Z" fill="#480803"/><path d="m244 143 4 1c-2 3-1 5-1 8l-7-1c0-2-3-1-3-3l3-3 4-2Zm85 9c-2 4-2 7 0 10l-11-2 9-8h2Z" fill="#FEFEFE"/><path d="M329 152h-2l3-2c10-1 17 4 22 12h-3c0-4-3-4-5-6-4-3-9-5-15-4Z" fill="#480803"/><path d="M259 162c-6 3-15 3-18-3l18 3Z" fill="#EC846F"/><path d="M300 192c2 0 4 1 4 3s-2 3-4 3-3-1-3-3 1-3 3-3Z" fill="#FED4C4"/><path d="M244 143c1 0 5 0 4 1-3 0-10 3-11 4 0 2 3 1 3 3h-9c2-3 10-7 13-8Z" fill="#480803"/><path d="M294 209c-4 0-7-2-11-5 1-2 2-1 4 0 3 0 6 2 7 5Z" fill="#CC6B60"/><path d="M344 156c2 2 5 3 5 6h-6l1-6Z" fill="#FEFEFE"/><path d="M327 169h13c-5 3-10 3-13 0Z" fill="#EC846F"/><path d="M319 208c0 5-4 4-7 4 1-3 4-4 7-4Z" fill="#CC6B60"/><path d="M363 222c-3 8-6 17-11 25v-1l-1-1 1-2 4-8 1-5 6-16c3-12 5-25 3-38l-3-28h1v-1c0-4-2-8-3-11v-2l-3-22c-7-32-21-58-47-78a95 95 0 0 0-100-13c-14 6-25 14-37 23-10 9-17 19-23 31-6 13-10 28-11 42 0 6-1 12 1 18 3 2 7 4 9 7 6 14 6 29 8 44v31c3 20 11 37 27 51 1 1 4 3 4 5l-8-4c-3-2-13-16-13-16v21l-1 2-2-3v-24l-1-3c-3-8-6-16-7-25-1-2-2-1-3-1h-1c2-2 5-3 3-7 0-23-3-46-8-68-2-7-8-7-13-8-6-1-10 2-12 7-5 11-7 23-1 34 3 5 5 11 6 16 2 7 3 15 7 21v2h-1l-6-12c-2-10-5-20-10-29l-2-6c0-9 0-17 4-25 3-7 7-12 15-11 3 0 3-2 2-3 0-18 3-35 10-52 16-37 45-58 83-66 42-10 76 7 103 39 17 21 26 46 29 72 2 10 4 20 4 30 0 7 1 14 3 20 1 17 0 32-6 48Z" fill="#CC6B60"/><path d="m146 169 5 23-1 1h-2c-6-3-9-9-10-15l-1-6c2 1 1 3 2 5l3 4 3 3 1-4v-11Zm-8-23h-1c-9-1-12 2-12 12l1 13c-5-7-4-21 1-27 2-3 8-3 11 2Zm1 0h-1 1Z" fill="#E66F67"/><path d="M406 277s1 0 0 0v1-1Z" fill="#50504F"/><path d="M266 234c17 1 35 1 53-1l6-1c-2 4-3 7-7 8-14 4-29 5-43 0-4-1-7-2-9-6Z" fill="#FEFEFE"/><path d="M266 234c2 4 5 5 9 6 14 5 29 4 43 0 4-1 5-4 7-8 1 0 3-1 3 1 1 1 0 2-1 3-2 4-5 7-8 9-17 7-27 6-42 2-6-2-10-6-15-10 0-1-2-1-1-3s2 0 3 0h2Z" fill="#95423D"/><path d="M277 247c4-1 8 1 11 1 11 1 21 0 31-3-1 3-4 3-6 4-9 3-19 3-29 0l-7-2Z" fill="#FEFEFE"/><path d="M337 160c-1 0-3-1-2-3-1-1 0-3 2-3s3 1 3 3-1 3-3 3Z" fill="#480803"/><path d="M262 146c3 1 4 3 6 6l-6 1v-7Z" fill="#FEFEFE"/><path d="M259 148s-1 3-3 3-3-1-3-3l2-2h1a3 3 0 0 1 2 2h1Z" fill="#480803"/><path d="m436 330-16-7-14-3c-4 0-8 2-13 1s-7 0-11-2h-2l-1-3-3-2-7-7c-3-3-5-10-5-14-1-6-1-12 1-17 4-12 15-20 27-22h10l5 1h2c6 0 9 5 12 9l7 8c1 3 4 5 6 7l3 2 1 13v2c0 11 0 23-2 34Z" fill="#424242"/><path d="m404 284-1 2-1 2-2 4c-3 4-4 9-8 13v-2 1l-1 2-1 1-2 3-2 1-2 3-1-3-1 4c-2 0-2-2-2-3l-1 1c-2-1-4-3-4-6l-1 2c-2-2-4-4-3-7l-1 1c-2-1 0-6 0-8-1 1-2 3-1 5-3-4-2-7-2-11l-1-5 2-6c0-2 2-7 4-9h1l2-2 4-5v2l3-3 3-1c3-2 5-3 9-3l-1 2 4-2h4l-2 3 4-3 5 1-3 3c1 0 4-3 5-2s-3 4-4 5l3-2c1 2-1 3-1 4l1 1-1 5-1 1 1 1-3 2h2l-2 6-2 2h1Z" fill="#7A7A7A"/><path d="M406 318c-1 1-11 3-12 1-2-2 2-8 4-5-1-4 5-9 7-12l3-5 1-3 2-2v-2l1-3 3-9 1-3v-2c1-2 0-3 2-5-2 0-1-5 0-5l1 3c1 1 3 0 1 2h2c2 2 0 2 0 3 1 0 5 0 2 2 2 0 3 1 2 3 2 0 1 5-1 5v1c2 1 1 1 0 4 0 1 0 3-2 3l-1 2c2 0 1 2 0 3l-2 5-2 3c-1 2-1 4-3 5l-1 1s-4 9-5 6c-1 2 0 4-2 4l-1-2v2Z" fill="#515151"/><path d="M413 262c3 11-2 24-8 35-4 7-9 14-15 20-3 3-5 2-8 1 18-12 28-36 31-57v1Zm-4 57c10-12 17-26 21-41l5 4c1 1-1 5-2 7-3 10-7 19-13 28-1 1-2 3-4 3l-7-1Z" fill="#FFEAA2"/><path d="m438 296-5 12c-1 2-9 16-11 14l10-14 6-14v2Z" fill="#3D1100"/><path d="M404 284c-3 1 0-3 0-2v2Z" fill="#040404"/><path d="m391 304 1-2v3l-1-1Z" fill="#060606"/><path d="M406 318c-1-3 1-3 1 0h-1Z" fill="#040404"/><path d="M414 309c-1-1 0-3 1-1l-1 1Z" fill="#070707"/><path d="m422 291 1-2c1 1 0 2-1 2Z" fill="#030303"/><path d="m373 272-3 6c0-2 1-5 3-6Z" fill="#020202"/><path d="M369 286c-1-2 0-5 2-7l-2 7Z" fill="#030303"/><path d="M375 272c0-3 2-5 4-6 0 3-2 5-4 6Z" fill="#020202"/><path d="m368 294 2-7c0 2 0 5-2 6v1Zm17-32-4 5c0-3 2-4 4-5Z" fill="#030303"/><path d="M376 273c0 3-1 5-3 7 0-3 2-5 3-7Z" fill="#040404"/><path d="m375 281-3 6c0-2 1-5 3-6Z" fill="#030303"/><path d="M391 258c-1 2-2 4-5 5 1-3 3-5 5-5Z" fill="#040404"/><path d="m374 288-2 6c-1-3 0-4 2-6Zm-1 6c1 3 0 5-1 7-1-3 0-4 1-7Zm10-25c1-2 2-4 4-4l-4 4Zm-5 5c0-1 2-6 3-5s-2 4-3 5Z" fill="#030303"/><path d="m377 281 2-5-2 5Z" fill="#050405"/><path d="m392 261-3 4c0-2 1-3 3-4Zm-14 21-2 5c-1-1 0-3 2-5Zm-1 18c1 2 1 4-1 6-1-2 0-4 1-6Z" fill="#040404"/><path d="M386 272c0-2 1-4 3-5 0 2-2 4-3 5Zm-5 4c0-2 1-4 3-5 0 2-1 4-3 5Z" fill="#050505"/><path d="m382 277-2 5c0-2 0-4 2-5Z" fill="#060506"/><path d="m374 301-1 6c-1-2 0-4 1-6Zm7 9v-5 5Z" fill="#050505"/><path d="M377 289c0 1 0 3-2 5l2-5Z" fill="#060606"/><path d="M381 283a5 5 0 0 1-2 5c0-1 0-3 2-5Z" fill="#040404"/><path d="m384 278 2-5a5 5 0 0 1-2 5Z" fill="#050505"/><path d="M398 262c0 1-1 3-3 3 0-2 2-3 3-3Z" fill="#030303"/><path d="m385 279-2 4c-1-1 0-3 2-4Z" fill="#070707"/><path d="m398 258-4 4c0-2 1-3 4-4Z" fill="#040404"/><path d="m401 266 3-3-3 3Z" fill="#0A0A0A"/><path d="M380 295c1 1 0 3-1 4-1-1 0-3 1-5v1Z" fill="#030303"/><path d="M395 267c0 2-1 3-3 4 0-2 2-3 3-4Z" fill="#080808"/><path d="M376 300v-5c1 1 1 2-1 4l1 1Z" fill="#040404"/><path d="m383 290-1 4c-1-2 0-3 1-4Z" fill="#050505"/><path d="m380 289-1 5c-1-2 0-3 1-5Zm14-25c-1 2-2 4-4 4l4-4Z" fill="#070707"/><path d="M406 265c0 2-2 3-3 3l3-3Z" fill="#060606"/><path d="m400 263 3-4c0 2-1 3-3 4Z" fill="#080707"/><path d="M393 273c0 1-1 3-3 3 0-2 1-3 3-3Z" fill="#040404"/><path d="M388 300c-1-1 0-3 1-4l-1 4Zm3-30-3 4c0-2 1-3 3-4Z" fill="#060606"/><path d="m386 279 3-4c0 2-1 4-3 4Z" fill="#070607"/><path d="m382 289 2-4-2 4Z" fill="#070707"/><path d="m395 280 2-4c0 2-1 3-2 3v1Z" fill="#050505"/><path d="M401 274a4 4 0 0 1-2 3c0-2 1-3 2-3Z" fill="#060606"/><path d="m390 282-2 4c0-2 0-3 2-4Z" fill="#050505"/><path d="M388 295c-1 0-1-3 1-3l-1 3Z" fill="#060606"/><path d="M385 290c-1-2 0-3 1-4 1 1 0 3-1 4Z" fill="#090909"/><path d="M397 268c0-2 1-3 3-3l-3 3Z" fill="#070707"/><path d="m393 293 1-4c1 2 0 3-1 4Z" fill="#080808"/><path d="M396 290c0-1 1-4 2-3s-1 2-2 3Z" fill="#060606"/><path d="m398 270 3-3c0 2-1 3-3 3Z" fill="#030303"/><path d="m397 270-3 3c1-2 1-3 3-3Z" fill="#080808"/><path d="M395 285c0 1 0 3-2 3l2-3Z" fill="#090909"/><path d="M385 299s0-4 1-3 0 3-1 3Z" fill="#080808"/><path d="m382 299 1-4c1 2 0 3-1 4Z" fill="#060606"/><path d="M397 285c0-1 0-2 2-3 0 2-1 3-2 3Z" fill="#040404"/><path d="M399 272c0 2-1 2-2 3-1-1 0-2 2-3Z" fill="#0C0C0C"/><path d="m393 297 1-3-1 3Z" fill="#060606"/><path d="m401 272 2-3c0 2-1 3-2 3Z" fill="#090808"/><path d="m391 278-2 3c0-2 0-2 2-3Zm14-6c0 2-1 2-2 3 0-2 1-3 2-3Z" fill="#030303"/><path d="m385 294 1-3-1 3Z" fill="#0B0B0B"/><path d="M395 298a3 3 0 0 1-1 3c-1-1-1-1 1-3Z" fill="#070707"/><path d="m400 288-1 2 1-2Z" fill="#080808"/><path d="m407 268-2 2 2-2Z" fill="#070707"/><path d="m392 282 1-3c0 2 0 3-2 3h1Z" fill="#050404"/><path d="M397 295c1 1 0 2-1 3-1-1 0-2 1-3Z" fill="#070606"/><path d="M385 285a4 4 0 0 1 2-4l-2 4Z" fill="#090909"/><path d="m389 287-1 4c-1-2 0-3 1-4Z" fill="#060606"/><path d="m397 291-1 3c-2-2 1-3 1-3Z" fill="#030303"/><path d="M391 296c-1 0-1-3 1-3l-1 3Zm1-8-2 3 1-3h1Z" fill="#080808"/><path d="M394 284c0-2 1-2 2-3 0 2 0 2-2 3Z" fill="#090909"/><path d="m395 275-2 2 2-2Z" fill="#080808"/><path d="M391 301c-1-2 0-3 1-4l-1 4Z" fill="#070707"/><path d="M406 278c0 1-1 2-3 2 0-1 1-3 2-2h1Z" fill="#0A0A0A"/><path d="M397 281c0-2 1-2 2-3 1 2 0 2-2 3Z" fill="#050505"/><path d="m391 287 1-3-1 3Z" fill="#0A0909"/><path d="m403 276-2 2 2-2Z" fill="#050505"/><path d="M399 315c1 1 2 2 1 3l-1-3Z" fill="#060606"/><path d="M418 278c-1 0-2-1 0-2s1 1 0 2Zm-17 36v-3 3Z" fill="#050505"/><path d="m419 274 3-1-3 1Z" fill="#040404"/><path d="M417 279c1 3-4 1-1 0h1Z" fill="#060505"/><path d="M421 277c0-1 2-3 3-2l-3 2Z" fill="#080808"/><path d="m420 270-3 2 3-2Z" fill="#090909"/><path d="M404 313c-1-1 1-2 1-1s-1 3-1 1Z" fill="#070606"/><path d="m396 315 1 3-1-3Z" fill="#020202"/><path d="M415 284c-2 0 0-1 0-1v1Z" fill="#070606"/><path d="m422 279-2 1c-1-1 1-3 2-1Z" fill="#070707"/><path d="m415 296-2 1 2-1Z" fill="#050505"/><path d="M424 279c-2 0 1-2 1-1l-1 1Z" fill="#060606"/><path d="M409 301c-2 1 0-2 0-1v1Z" fill="#080808"/><path d="M417 296v-2s2 1 0 2Z" fill="#090909"/><path d="M414 294c-2 1 0-2 0-2s2 1 0 2Z" fill="#060606"/><path d="m412 298-1 1c-1-1 0-2 1-1Z" fill="#050505"/><path d="M418 283s1-2 2-1-2 1-2 1Zm-4 4v-1s2 1 0 1Z" fill="#040404"/><path d="M406 308v2l-1 1v-3h1Z" fill="#010101"/><path d="M416 304c-2 0 0-2 0-2v2Z" fill="#000"/><path d="M423 282c-2 1 0-1 0-1v1Z" fill="#020202"/><path d="M411 296c-2 0 0-2 0-2v2Z" fill="#010101"/><path d="M415 300h-1l1-1v1Z" fill="#050505"/><path d="M407 302c0 2-2 2-1 1s0-2 1-1Z" fill="#020202"/><path d="M413 306c-2 0 0-2 0-2s2 1 0 2Z" fill="#090909"/><path d="M410 304h-1c0-1 0-2 1-1v1Z" fill="#080708"/><path d="M414 291c-2 0 0-1 0-2s2 1 0 2Z" fill="#050505"/><path d="M420 294c-1-2 1 0 1 0s-1 2-1 0Z" fill="#040304"/><path d="M421 291c-3 1-1-1-1-1l1 1Z" fill="#050505"/><path d="M409 309c1 2-1 1-1 1 1 0 0-2 1-1Z" fill="#030303"/><path d="M408 306c1 2-1 1-1 1s0-2 1-1Z" fill="#010101"/><path d="M418 298c1 2-1 1-1 1l1-1Z" fill="#0E0D0D"/><path d="M419 285c0 2-2 1-2 1s1-2 2-1Z" fill="#060606"/><path d="M411 312c1 2-1 1-1 1s0-2 1-1Z" fill="#070707"/><path d="m424 287-1 1s0-2 1-1Z" fill="#0C0B0B"/><path d="M421 284c2 0 0 1 0 1v-1Z" fill="#040404"/><path d="M425 284h-1 1Zm-5 4 1-1-1 1Z" fill="#070707"/><path d="M417 292v-1s2 1 0 1Z" fill="#010101"/><path d="M417 288c2 0 0 1 0 1s-2 0 0-1Z" fill="#070707"/><path d="M413 309c1 2-1 1-1 1s0-2 1-1Z" fill="#080808"/><path d="M430 296c-1-1-1-2-3-1l-3 3c2-6 5-12 6-19 3 3 4 3 3 7l-3 10Z" fill="#424242"/><path d="m183 266 12 8 13 8c17 10 35 19 54 26 9 4 19 6 28 8l15 1 6-2 6-5 9-12 7-13c3-4 4-9 6-14l7-13 12-28h1l1 1c-12 27-26 55-41 81l-6 5c-2 2-5 3-8 3l-15-1c-10-2-20-4-29-8-19-7-38-16-55-27l-12-8-13-8v-2h2Z" fill="#CC6B60"/></svg>