<svg xmlns="http://www.w3.org/2000/svg" viewBox="0 0 500 500"><style><![CDATA[.B{fill:#FEFEFE}.C{fill:#234051}.F{fill:#FEAA87}.G{fill:#183444}.H{fill:#CC6B60}.I{fill:#A5A8AB}.J{fill:#C7CACB}.K{fill:#7E7D7D}.L{fill:#EC846F}.M{fill:#FED4C4}.N{fill:#480803}.O{fill:#E66F67}.P{fill:#95423D}.R{fill:#424242}.W{fill:#040404}.X{fill:#060606}.Y{fill:#070707}.Z{fill:#030303}.c{fill:#020202}.e{fill:#050505}.g{fill:#0A0909}.h{fill:#0A0A0A}.i{fill:#080808}.l{fill:#090909}.q{fill:#070606}.r{fill:#060505}.s{fill:#010101}]]></style><circle cx="252.3" cy="309" r="181" fill="#f5f9fc"/><path class="B" d="M374.5 160.8l-5.5-4.6 5.5 4.6zm-8.4-6.9l2.8 2.2-2.8-2.2zm-17.9 253.9l-.8-.8.8.8z"/><path class="C" d="M221.8 419.5l-49.5-81.6c-.6-1-1.8-2-1.5-3.5-.2 0-.5-.1-.6-.2-.1-.5.2-.6.6-.6l.3-.4c-10.3-13.1-17.1-27.2-12.9-44.5v-.1l-.1.1c-9.2 9.7-18.7 19-27.5 29-7.8 8.8-16.7 15.1-28 18.6-11.6 3.6-23 8.3-34.6 12.7 0 2.4 1.1 4.5 1.6 6.7 4.6-.2 8.4-2.6 12.6-3.9 2.4-.7 4.8-1.7 7.4-2.2-5.6 4.4-12.9 5.9-18.6 10.2 12.2 37.8 34.3 68.4 65.8 92.4 11.9 9.1 24.7 16.9 38.8 22.3-2.6-5.8-7-10.4-10.5-15.6-5.1-7.5-10.4-14.8-15.7-22.1-2-2.7-1.4-4.8.8-6.9l12.3-12.3c.7-.7 2-1.4 1.7-2.5-.5-1.4-2.1-.8-3.1-.8-6.5-.1-12.9-.1-19.4 0-2 0-3.4-.2-4.2-2.6-5.9-19.1-14.6-37.2-20.8-56.1-1.8-5.7-2.8-11.7-2.8-17.7 1 3.5 2.3 7 3.9 10.3 9.4 18.4 18.1 37.1 24.3 56.9.7 2.3 2.2 2.1 4 2.1h29.7l-12.2 16.5c-5.4 7-5.5 7-.6 14.3l27.5 39.8c.7.8 1 1.8 1 2.9 23.4 7.9 48.1 10.8 72.7 8.7l-42.4-69.9zM91.7 349.1c-.7-.5.3-.7.6-.9.5-.2 1-.2 1.5-.2-.7 1.1-1.5 1.5-2.1 1.1zm56.9 53.4c-1.1-.1-1.9-.9-2.3-1.9l-20.2-58 .9-.4 33 62.8-11.4-2.5zm22.2-68.2z"/><path d="M164.8 272.4c-1.5 5.4-3.4 10.7-5.8 15.8-.5-.3-.6.1-.8.4h.1l-.1.1c-9.2 9.7-18.7 19-27.5 29-7.8 8.8-16.7 15.1-28 18.6C91 339.9 79.6 344.6 68 349c-3.1-10.8-5-21.8-5.6-33-3.5-53.9 12.8-100.8 48.6-141 1.7-1.9 3.5-3.5 5.3-5.3.7 2.1 1 4.4 2.1 6.3 5.1 8.9 7.7 18.6 9.9 28.5 1 4.4 2.4 8.8 5.8 12.3.4.4.7.9 1.1 1.4l.8.8 1.4 1.1c4.7 3.7 10.5 3.7 16.4-.1 1.1-.1 2.4-1.1 2.8.9 1.7 8.5 4.4 16.8 7.9 24.8.4 1 .1 2.3.2 3.5l.1 23.2zM436 329.5c-.9 6.7-2.2 13.4-4 19.9-2.3.1-3.9-1.6-5.6-2.5-17.6-9.6-36.7-14.8-56-19.7-9.4-2.4-18.8-5.2-27.5-9.7-1.4-.7-2.8-1.1-2.1-3.5 5.5-18.1 10.6-36.4 17.6-53.9 6.4-15.9 12.8-31.6 14.5-48.9 1.2-12.6.2-24.8-4.1-36.7-2.2-6.6-3.1-13.6-2.6-20.6 1 .8 1.9 1.5 2.8 2.3 1.9 1.5 3.7 3.1 5.5 4.6l2.7 2.4c1.8 1.6 3.5 3.2 5.2 4.9 22 21.4 37 47.4 47.3 77.2 3.9 11.6 6.4 23.6 7.5 35.8.4 4.4.7 8.7.8 13v2.3c.2 11-.5 22.1-2 33.1z" fill="#feca01"/><path class="C" d="M378.5 389.2c-.6 2.4-.1 3.4 2.5 2.4l8.1-2.9c2.1-.9 3.3-.3 4 1.7l8.2 23.4c12-15.7 21.3-33.4 27.4-52.3-31.3-12-63-23.1-94.6-34.1-4.9-1.7-8.7-4-11.3-8.4-1.4-2.2-3.1-4.2-4.7-6.3l-2.9 1.2-.9 1.1c2.8 12.5 6.4 24.7 11.9 36.4 14.6 31.3 31.7 61.7 41 95.3.6 2.2 1.3 1.6 2.6.6 11.5-9.6 22-20 30.7-32.2-1.9-.1-1.7-1.8-2.1-2.9l-5.9-15.4c-.7-1.8-1.5-2.5-3.5-1.7-3.8 1.4-7.8 2.4-11.6 3.6-1.6.5-3.2 1.4-4.6-.5-1.6-5.5-1.4-11.1-1.8-16.7-.3-3.9-1.9-7.6-4.6-10.5-.9-.8-1.5-1.9-1.7-3-1.1-.4-2-1.4-2.2-2.6-.3-.5-.6-1-.8-1.5-.3-.3-.5-.6-.8-.8-.8-.2-1.4-.9-1.5-1.7l-.4-.5.4.4c1 0 1.4.6 1.6 1.5.2.3.5.5.8.8.3.5.6 1 1 1.4 1.1.4 1.9 1.3 2.3 2.4 2.4 2.7 4.8 5.5 7.3 8.1 1.8 1.9.8 4.2 1.2 6.3.6.1 1.3 1.3 1.4.6.7-3 1.9-5.7-1-8.7-7.4-7.6-14.3-15.7-21.4-23.6-.7-.6-1.1-1.5-1.2-2.4l-1.6-1.6c.3.2.5.5.8.8l.8.8c4.2 1.4 6.4 5.3 9.6 7.9 6.7 5.4 12.8 11.6 19.3 17.4 1.6 1.2 2.2 3.4 1.3 5.2-1.4 3.6-2.2 7.3-3.1 11zm-21-30.6c.1.1.1.1.1.2h.1v.1l.3.4c-.1 0-.2 0-.2-.1s-.1-.2-.1-.3v-.2l-.3-.3c-.1.1 0 .1.1.2z"/><path d="M432 349.4c-.5 4.2-2 8.1-3.4 12-31.3-12-63-23.1-94.6-34.1-4.9-1.7-8.7-4-11.3-8.4-1.4-2.2-3.1-4.2-4.7-6.3.1-.3.1-.7.2-1.1.1-.1.3-.3.4-.5.1-.1.3-.3.4-.5l2.4-2.4c.8-.1 1.5-.7 1.6-1.5l1-1.4c1.1-.4.5-1.8.7-2.7 1.5-.9 2.9-2 3.2-3.6l2.4-4.8c1.4-1.6 2.2-3.5 2.4-5.5 2.1-3.4 3.7-7.2 4.7-11.1 2.3-3.5 4.1-7.2 5.4-11.2.3-.5.5-1 .8-1.6.6-.6.9-1.4.9-2.3.3-.5.5-1 .8-1.6l4-8 .9-1.6c.3-.6.5-1.1.8-1.6s.5-1 .8-1.6.5-1.1.8-1.6c4.8-7.8 7.8-16.4 10.8-24.9 5.4-15.4 6.5-31.2 5.6-47.4 4.3 11.9 5.3 24.1 4.1 36.7-1.7 17.3-8.1 33-14.5 48.9-7 17.6-12.2 35.8-17.6 53.9-.7 2.3.7 2.7 2.1 3.4 8.7 4.5 18 7.3 27.5 9.7 19.3 4.9 38.4 10.1 56 19.7 1.5 1.4 3.1 3.1 5.4 3z" fill="#f4a201"/><path class="F" d="M307.2 317.9c-4.4 14.8-10.6 28.6-20.8 40.4-2 2.3-3.7 2.9-6.7 1.6-30.6-13.3-59.7-29.2-85.8-50.1-8.9-7.1-16.9-15.1-23-24.8-1.9-2.8-3.3-6-4.1-9.3l-.4-2.2c.9-.1 0-.7 0-1.2 0-.3 1.2 1.4 1.2 1.1l18.1 16.3c14 11.8 28.8 22.3 45.4 30.2 11.3 5.4 22.9 8.3 35.4 5.8 5.7-1.2 12.8-3.6 17.1-8.1 8.3-.2 15.4 2.3 23.6.3z"/><path class="G" d="M314.3 459.9c1.4 5.7 1.6 11.7 4.6 16.9-6.8 3.2-13.9 5.5-21.2 7l-13.8-64.7c-.3-1.7-1.3-3.2-2.8-4l-20.9-12.6c2.9-7.1 7.8-13.1 11.9-19.5-.1 1.6.7 3.1 2 4l22 15.2c1.5 1.1 2.8.9 4.4.4 4.7-1.6 9.5-1.2 14.4-.4 2.1.3 4.1 2 6.4 1l1.2 2.5c-5.4-2.1-10.9-.6-16.3 0-3.1.3-3.7 1.8-3 4.9l11.1 49.3z"/><path class="H" d="M363.2 221.8c-3 8.6-6 17.1-10.8 24.9l-.3-.3c.1-.6-.2-1.2-.8-1.6l.8-2.3c2.4-2.1 2.7-5.1 3.5-8 .4-1.4 1.3-4.7 1.8-4.3 1.8-5.5 3.8-10.6 5.3-16.1 3.4-12.4 4.9-25.2 3.3-37.8-1.2-9.6-3.3-19-2.9-28.8l.4.1.4-.1c.1.1.3.2.4.3l-.3-.4c.1-4.2-1.5-8-3.3-11.7.5-.2.8-.7.6-1.3-1.2-7.5-2.2-15-3.7-22.5-6.4-31.5-21-58.2-46.7-78.2-14.7-11.4-31.2-18.8-49.6-20.6-17.1-1.8-34.4.8-50.2 7.5-5.4 2.3-11 4.2-15.6 8.1l-.6.2-.9.7c-.6-.1-1.3.2-1.5.8l-.9.7c-.2.1-.4.1-.6.2l-1.8 1.4-3 1.8-1.8 1.4-3 2.5-.9.7c-.7 0-1.2.2-1.4.9l-.8.7-2.4 2.4c-.8 0-1.5.4-2.1 1-9.3 8.8-17 19.3-22.5 30.8-6.2 13.4-9.9 27.8-11 42.5-.5 5.8-1.1 11.8.4 17.6 3 2.4 6.9 3.6 9.5 6.6 5.6 14.1 5.8 29.3 8 44-1.4 1.6-1 3.6-.6 5.3 1 4.7.5 9.4.7 14.1.1 3.9-.4 7.9.2 11.8 2.8 20 10.9 37.3 26.3 50.8 1.2 1.1 4.5 3.8 4.4 5.1-1.7 0-5.7-3-6.7-4-5.2-5-10.3-10-14.3-16.1.2 7.1-1.3 13.9-.4 20.8 0 .3 0 .6-.1.8-.2.4-.5.9-.7 1.3a16.1 16.1 0 0 1-2.1-3l-.2-23.3c0-1.2.3-2.5-.2-3.5-3.6-7.9-6.2-16.2-7.9-24.8-.4-2-1.8-1-2.8-.9l-.3-.3c1.4-1.9 4.9-2.9 2.5-6.3.1-13.1-.4-26.3-1.8-39.3-1-9.8-2.3-19.5-5.7-28.9-2.5-6.9-8.2-7.6-13.8-8.5-5.4-.9-9.2 2.2-11.3 6.8-5.2 11.4-7.2 23-.9 34.8 2.7 5 4.7 10.3 6 15.8 1.6 7.1 2.9 14.4 6.9 20.9-.6.3-.9.9-.8 1.6-.1.1-.2.1-.3.2l-.1.1c-3.3-3.5-4.7-7.9-5.8-12.3-2.3-9.9-4.9-19.6-9.9-28.5-1.1-1.9-1.4-4.2-2.1-6.3-.5-8.6 0-17.1 3.5-25.2 2.9-6.8 7.4-11.2 15.4-10.4 3.1.3 2.3-1.8 2.2-3.3-.5-17.9 2.1-35.3 9.2-51.7 15.9-36.9 44.9-58.3 83.2-66.5 42.4-9.3 76.1 7.2 103 39.3 17.5 20.8 25.8 45.6 29.4 72.2 1.3 9.9 3.4 19.7 3.9 29.7-.5 7 .4 14 2.6 20.6.9 16.1-.2 32-5.6 47.3z"/><path class="I" d="M264.1 489.4l-42.3-69.9-49.5-81.6c-.6-1-1.8-2-1.5-3.5h1.3c11.3 13.5 23.8 26 35.7 39l37.3 40.2c1.8 1.9 2 3-.1 4.6-2.6 2-4.9 4.4-7.5 6.4-1.8 1.3-1.7 2.5-.8 4.3l30 56c2.5 4.5 2.6 4.5-2.6 4.5z"/><path class="C" d="M346.1 463.7c-8.8 5-17.6 9.9-27.3 13.1-3-5.2-3.2-11.2-4.6-16.9L303 410.6c-.7-3.1-.1-4.6 3-4.9 5.4-.5 10.9-2.1 16.3 0l24.4 55.2c.7 1.3.9 2-.6 2.8z"/><path class="G" d="M191.4 480.6c-5.4-1.6-10.9-3.4-15.8-6.2-2.6-5.8-7-10.4-10.5-15.6-5.1-7.5-10.4-14.8-15.7-22.1-2-2.7-1.4-4.8.8-6.9l12.3-12.3c.7-.7 2-1.4 1.7-2.5-.5-1.4-2.1-.8-3.1-.8-6.5-.1-12.9-.1-19.4 0-2 0-3.4-.2-4.2-2.6-5.9-19.1-14.6-37.2-20.8-56.1-1.8-5.7-2.8-11.7-2.8-17.7 1 3.5 2.3 7 3.9 10.3 9.4 18.4 18.1 37.1 24.3 56.9.7 2.3 2.2 2.1 4 2.1h29.7l-12.2 16.4c-5.4 7-5.5 7-.6 14.3l27.5 39.8c.6 1 1 2 .9 3z"/><path class="C" d="M321.2 403.2c-2.4 1-4.3-.7-6.4-1-4.9-.8-9.6-1.1-14.4.4-1.6.5-2.9.7-4.4-.4L274 387c-1.3-.9-2.1-2.4-2-4 2.9-6.8 7.4-11.5 14.9-12.9 2.6-.6 5.1-1.4 7.5-2.5 1.9-1 4.2-.6 5.6.9 6.6 5.8 13.4 11.3 20.2 17 .9.8 1.9 1.5 1.9 2.8-.1 4.9-1.3 9.8-.9 14.9z"/><path class="J" d="M297.6 483.8c-5.7 2.1-5.6 2.1-7.2-3.9L274.6 423c-.5-1.3-1.3-2.5-2.5-3.3-5-4.2-10.8-7.3-15-12.5.1-2 1.3-3.8 3-4.8L281 415c1.5.8 2.5 2.3 2.8 4l13.8 64.8z"/><path class="I" d="M345.4 405.2l-.6.5-17.5-14.4c-1.5-1.3-2.8-3.1-5.1-3.2-.1-1.3-1-2-1.9-2.8l-20.2-17c-1.5-1.5-3.7-1.9-5.6-.9-2.4 1.1-4.9 2-7.5 2.5-7.6 1.4-12.1 6.1-14.9 12.9-4.2 6.4-9 12.4-11.9 19.5-1.7 1-2.9 2.8-3 4.8-2.4.6-2 3.9-4.8 4.7 1.4-4.4 4-7.9 6-11.6l17.9-31.6a6.07 6.07 0 0 1 4.1-3.2l19.1-4.8c1.5-.5 3.2-.1 4.2 1.1l41.2 42.7c.2.3.4.6.5.8z"/><path class="G" d="M401.2 413.7l-1 1.3c-1.9-.1-1.7-1.8-2.1-2.9l-5.9-15.4c-.7-1.8-1.5-2.5-3.5-1.7-3.8 1.4-7.8 2.4-11.6 3.6-1.6.5-3.2 1.4-4.6-.5l.9-16.3c.6.1 1.3 1.3 1.4.6.7-3 1.9-5.7-1-8.7-7.4-7.6-14.3-15.7-21.4-23.6-.7-.6-1.1-1.5-1.2-2.4 4.2 1.4 6.4 5.3 9.6 7.9 6.7 5.4 12.8 11.6 19.3 17.4 1.6 1.2 2.2 3.4 1.3 5.2-1.2 3.6-2 7.3-3 11-.6 2.4-.1 3.4 2.5 2.4s5.5-1.8 8.1-2.9c2.1-.9 3.3-.3 4 1.7l8.2 23.3z"/><path class="K" d="M89.7 349.6c-5.7 4.4-13 5.9-18.7 10.2l-1.4-4.1c4.6-.2 8.4-2.6 12.6-3.9 2.5-.8 4.9-1.7 7.5-2.2z"/><path class="I" d="M250.3 415.9c-.2-1.4.5-2.8 1.8-3.4.3 1.7-.4 2.6-1.8 3.4zm-.5.5c0 1.8-.5 2.6-1.7 3.2-.4-1.4.4-2.2 1.7-3.2z"/><path class="J" d="M247.5 421.3c-.3.9-.5 1.8-1.4 2.1-.1.1-.5-.1-.6-.3-.1-.9.5-1.4 1.2-1.8h.8zm-3.9 5.6zm1.3-1.7c.1.9-.5 1.3-1.2 1.7 0-.7-.2-1.5.7-2 .1 0 .5.2.5.3z"/><path class="I" d="M348.7 409c-.6.5-.7-.4-.9-.7l.4-.4c.5.2.9.7.5 1.1z"/><path class="J" d="M243.4 427c.1 0 .1-.1.2-.1l-.3.3s0-.1.1-.2zm.3-.1c-.1 0-.1 0 0 0z"/><path class="I" d="M247.5 421.3l-.8.1c.2-.4.4-1.2.8-.1zm100.7-13.5l-.4.4-.9-.8.5-.5.8.9z"/><path class="I" d="M347.4 407c-.1.2-.3.3-.5.5l-.3-.8.8.3zm-1.7-.9l-.9-.3.6-.5c0 .2.1.5.3.8z"/><path class="C" d="M159 288.1c-.2.3-.2.7-.7.4h-.1c.2-.3.3-.6.8-.4zm11.8 46.2zm1.3 0h-1.2v-.8l.3-.4.9 1.2z"/><path class="K" d="M160 405l-11.3-2.6c-1.1-.2-1.9-.9-2.3-1.9l-20.2-58 .9-.4L160 405zm-66.2-57.1c-.7 1.1-1.4 1.6-2.1 1.2s.3-.7.6-.9.6-.2 1.5-.3z"/><path class="I" d="M170.9 333.5v.8c-.2-.1-.6-.1-.6-.2-.2-.4.2-.6.6-.6z"/><path class="H" d="M153.7 219.9c-5.9 3.8-11.7 3.8-16.5.1l.4-.4c2.9 1.4 6.2 1.9 9.4 1.5 2.2-.3 4.3-1 6.4-1.5l.3.3zm-18.6-1.8l-1.1-1.4.4-.4c.5.3.9.9.8 1.6l-.1.2z"/><path class="H" d="M137.3 220l-1.4-1.1.1-.1c.6-.1 1.2.3 1.6.8l-.3.4z"/><path class="H" d="M135.9 218.9l-.8-.8.1-.1.8.8-.1.1z"/><path class="K" d="M373.4 381.8l-.9 16.3c-1.6-5.5-1.4-11.1-1.8-16.7-.3-3.9-1.9-7.6-4.6-10.5-.9-.8-1.5-1.9-1.7-3 .1-.2.3-.3.4-.5 2.4 2.7 4.8 5.5 7.3 8.1 2 1.9.9 4.2 1.3 6.3z"/><path class="K" d="M362.6 365c1.1.4 2 1.3 2.3 2.4-.2.2-.3.3-.4.5-1.1-.4-2-1.4-2.2-2.6l.3-.3zm-3.4-3.8c1 0 1.4.6 1.6 1.5l-.2.2c-.8-.1-1.4-.8-1.4-1.7z"/><path class="K" d="M362.2 365.3l-.9-1.5.3-.3 1 1.4c-.1.2-.3.3-.4.4z"/><path class="G" d="M350.5 347l-.8-.8.8.8zm.8.8l-.8-.8.8.8z"/><path class="K" d="M357.6 358.8l-.4-.3h.2c.1.2.1.3.2.3z"/><path class="G" d="M348.9 345.4l.8.8-.8-.8z"/><path class="K" d="M357.6 358.9l.4.4c-.1 0-.2 0-.2-.1-.1-.1-.2-.3-.2-.3zm1.6 2.3l-.3-.5.3.5zm1.7 1.5l.8.8-.3.3-.8-.8.3-.3z"/><path class="G" d="M348.9 345.4l-.3-.2.3.2z"/><path class="H" d="M332.6 288.7l-.3-.3v-1.6l.8-2.3c.6-.3.9-1 .8-1.6l.8-2.3 2.4-3.2.3.3m7-15.1c0 .8-.3 1.6-.9 2.3l-.2-.2c0-.9-.1-1.8.8-2.4l.3.3zm-15.8 34.8l-.8 1.6-.3-.2c-.1-.6.2-1.3.8-1.6l.3.2z"/><path class="H" d="M329.4 295.8l-.8 1.6-.3-.2c-.1-.6.2-1.3.8-1.6l.3.2zm-5.5 9.5l-1 1.4-.2-.2V305h.8l.4.3zm21.3-44.3l-.8 1.6-.3-.3c-.1-.6.2-1.3.8-1.6l.3.3zm.8-1.6l-.8 1.6-.3-.3c-.1-.6.2-1.2.8-1.6l.3.3z"/><path class="H" d="M346.8 257.8l-.8 1.6-.3-.3c-.1-.6.2-1.3.8-1.6l.3.3zm-3.3 7l-.8 1.6-.2-.1c-.1-.6.3-1.2.8-1.6l.2.1z"/><path class="H" d="M347.6 256.2l-.8 1.6-.3-.3c-.1-.6.2-1.3.8-1.6l.3.3z"/><path class="H" d="M348.4 254.6l-.8 1.6-.3-.3c-.1-.6.3-1.2.8-1.6l.3.3z"/><path class="H" d="M349.2 253.1l-.8 1.6-.3-.3c-.1-.6.2-1.2.8-1.6l.3.3zm-19 41.1l-.8 1.6-.3-.2c-.1-.6.2-1.3.8-1.6l.3.2zm22.2-47.5l-.8 1.6-.3-.3c-.1-.6.2-1.2.8-1.6l.3.3z"/><path class="H" d="M351.6 248.3l-.8 1.6-.3-.3c-.1-.6.2-1.2.8-1.6l.3.3z"/><path class="H" d="M350.8 249.9l-.8 1.6-.3-.3c-.1-.6.2-1.3.8-1.6l.3.3zm-.8 1.6l-.9 1.6-.3-.2c-.1-.6.3-1.2.8-1.6l.4.2zm-31.9 60.1l-.1-1h.8l.1.1-.8.9zm1.6-1.7l-.8.8-.1-.1.8-.8.1.1z"/><path class="H" d="M320.5 309.1l-.8.8-.1-.1.8-.8.1.1z"/><path class="H" d="M321.3 308.3l-.8.8-.1-.1.8-.8.1.1z"/><path class="L" d="M187.5 270.9c.2 1.9 18.2 11.9 18.2 11.9.3.7 1.6.9 2.3.9l-.8.8c.3.3 2.8.1 3 .4l2.1 1.3c.5 1.2 9.9 6.9 15.7 9.8 1.4.8 2.9 1.2 4.5 1.1.5.6 1 1.1 1.7 1.6 15 7.6 29.2 13.1 45.8 16.6.6.1 6.1 2.1 6.6 2.3-4.3 4.5-14.4 6.7-20.1 7.9-12.5 2.6-24.2-.4-35.4-5.8-16.6-7.9-31.4-18.4-45.4-30.2-6.2-5.3-12.1-10.9-18.1-16.3-.9-6.9.7-13.7.4-20.8 4.1 6.2 9.2 11.2 14.3 16.2 1 1.1 6.1 3.7 5.2 2.3"/><path class="F" d="M366 176.4c-1.2-9.6-3.3-19-2.9-28.8-9.9-8.4-21.7-9.9-34.1-9.3-2.1.1-4.6 1.3-5-2.4-.3-3.1 1.8-4.4 4.3-4.6 8.9-.9 17.9-1.2 26.8.5a7.85 7.85 0 0 1 5.6 3.9c.5-.2.8-.7.6-1.3-1.2-7.5-2.2-15-3.7-22.5-6.4-31.5-21-58.2-46.7-78.2-14.7-11.4-31.2-18.8-49.6-20.6-17.1-1.8-34.4.8-50.2 7.5-5.4 2.3-11 4.2-15.6 8.1 5.7-1.2 10.5-4.8 16.2-6 1.5-.3 2.9-1.5 5-.7-6.1 2.7-11.9 5-17.2 8.2-18.5 10.9-31.2 26.7-39.7 46.2-6.2 14.3-9.9 29.5-10.8 45-.4 5.5 1.3 10.9 1.9 16.4.1 1.3.8 2.6-.5 3.6 5.6 14.1 5.8 29.3 8 44 2 3.8 2.2 8 3.2 12 3.6 13.9 7.5 27.6 13.1 40.8 5.2 12.4 8.9 24.8 21.9 30.8 12.8 5.9 27.3 12.7 38.5 21.1 1.1.8 14.2 5.7 19.6 8.6 12.2 6.6 24.9 12.4 39 12.4 15 0 26.7-2 33.5-19.9.3-.7 1.4.3 1.7-.5 1.1.2 0-2.1 1.3-2.4l.1-1.5c5.8-15.2 11.7-30.3 20.4-44.1.3-.6.9-1 1.6-1.1.9-4.1 3.6-7.4 5.5-11 1.8-5.5 3.7-10.9 5.2-16.5 3.2-12.3 4.7-25.1 3-37.7zm-68 6.5c.6-9.3.2-18.6.2-27.9l.7-.1 3.8 33.2c-5 1.1-5-1-4.7-5.2zm2 9c1.7.5 3.8.8 3.8 3.2.1 2.2-1.9 2.8-3.5 2.9-1.7.1-3.2-1.1-3.4-2.9v-.3c-.2-1.8 1.2-2.7 3.1-2.9zm-13.2 11.8c3.5.6 5.7 2.8 7.5 5.6 5.4 7.8 6.8 8.1 17.9 3.1 1.2-3.1 3.4-4.4 6.7-4 1-1.2 1.9-2.5 2.7-3.8.6-1.3 1.1-2.7 1.5-4.2 3 6.5 1.2 10.9-5.4 13.1-3.2 1.1-6.3 2.5-9.3 4.2-8.1 4.6-12 3.8-17.4-3.7-2.6-3.6-5.4-5.4-10-5.7-8.7-.6-13.4-8.3-9.8-16.1a54.18 54.18 0 0 0 .3 2.9c.1 5.9 2.3 8.3 8.1 8.8 1.2.1 2.3.3 3.5.6.7-2.4 2.4-1 3.7-.8zM218.2 21.2c.1 0 .2 0 .3.1 0 .1-.1.2-.1.2-.1 0-.2-.1-.3-.1l.1-.2zm-2.4 116.7c6.8-13.3 17.1-18.6 31-18.2 9.7.3 19 2.6 28.2 5.2 3.1.9 5.7 2.8 6.5 6.3.5 2.5.1 3.9-3.2 3.4-9.8-1.4-19.6-2.2-29.4-3.4-10.3-1.3-19.9.9-29.2 5l-3.9 1.7zm14.7 12.7c3-2.6 6-4.9 9.9-5.4 1-1 3-.2 3.5-2 4.9-.7 9.9-1.9 14.9-.5 5.2-1.2 10.3-1.2 15.3 1.6.1-3.1-1.4-5.2-3.2-7.2 5.4 0 10.4 4.2 10.7 9.3.3 5.6 0 11.2.1 16.9 0 2.6-.9 2.6-2.7 1.2-5.2-3.9-10.7-7.2-16.5-10-4.7.2-9.4.5-13.9-1.5-.7.2-1.2-.2-1.8-.6l-6.9-1.6c-3.2 1.2-6.2-.8-9.4-.2zm10.2 8.5a41.12 41.12 0 0 0 18.7 2.9c-6.8 3.2-15.8 3.1-18.7-2.9zm91.2 75.8c-3.2 4.4-6.2 9.1-9.2 13.8-5 7.9-12.4 11.4-21.5 12-17.5 1.2-31-6.3-41.7-19.6-.5-.6-.9-1.3-1.5-1.9-5.1-5.7-3.2-6.2 2.2-8.3a46.83 46.83 0 0 1 19.3-2.6c5.4-.3 10.6.5 15.8 1.4s10.1 0 15.1-1.5c6.8-2 13.5-.4 20 2 2.5.9 3.3 2.1 1.5 4.7zm-4.5-65.8h13c-5 2.4-8.9 2.5-13 0zm21.2-7.3h-6a37.71 37.71 0 0 1-13.4 0c-3.7.1-7.3-.8-10.9-1.6-3.4 1.3-6.6 2.9-7.1 7.2-1.2-6.4-2.8-12.9 1.5-18.7 4.4-5.9 10.4-8.9 18.7-8.1-3 2.6-6.1 4.1-8.1 6.7-.5.6-1.3 1.1-.9 2s1.4.5 2.1.6l5.5.3c10.1-1.6 16.4 3.9 22 11.3-1.2 1.3-2.3 0-3.4.3zm-194.5 12.1c-1-9.8-2.3-19.5-5.7-28.9-2.5-6.9-8.2-7.6-13.8-8.5-5.4-.9-9.2 2.2-11.3 6.8-5.2 11.4-7.2 23-.9 34.8 2.7 5 4.7 10.3 6 15.8 1.6 7.1 2.9 14.4 6.9 20.9 7.2 3.7 14.1 3.8 20.6-1.6.1-13.1-.4-26.2-1.8-39.3zm-29.2-16c0 4.5-.2 9 .7 13.5-4.5-7.2-3.8-21 1.1-27.3 2.6-3.4 7.8-2.6 11.7 1.9l.3.5-.5-.3h-.8c-9.6-1-12.4 1.6-12.5 11.7zm25.5 35.3c-.8.5-1.5 0-2.2-.4-6.1-3.2-8.9-8.7-10.5-15-.4-2.1-.7-4.1-.9-6.2 2.2 1.3 1.5 3.5 2.5 4.9s1.8 3.2 3 4.6c.9 1 1.8 3 3.2 2.3s.2-2.6.2-3.9c-.1-3.5 0-7 0-10.5l.4-.1 4.6 22.5c.2.7.4 1.5-.3 1.8z"/><path class="L" d="M267.4 311.4c2.2.6 4.4 1 6.4 2.4h1.5c.6-.1 1.3.2 1.6.8h1.5c.6-.1 1.3.2 1.6.8h3.1c.8-.1 1.5.4 1.6 1.2v.3l5.5-.6c1.3.1 2.9-.6 3.3 1.4h3.9c12.8 2.8 18.4-6.9 20.6-7 .6-.2 1.1-.4 1.6-.8.3-.2.5-.5.8-.8s.9-1.7 1.2-1.9l.2-.2c.3-.2.6-.3.9-.3V305c-1.3-1.4 0-1.8.9-2.4-.1-.8.5-1.5 1.3-1.6h.2c.1-.9-.1-1.8.8-2.4.9-2.4 1.2-5.1 3.9-6.4l.8-2.3c-.3-.5 1.9-1 1.6-1.6-1.3.4 0-4.4-1.1-4.5-.3.8-3.2 4.2-3.6 4.9-10.5 16.5-14.6 22.6-29.6 21.4-16.4-1.3-31.3-4.8-43.5-11.4-5.4-2.9-42.2-22.3-54.4-30-11.5-7.2-20.4-17.9-25.6-30.5-5.5-13.2-9.5-26.9-13.1-40.8-1-4-1.2-8.3-3.2-12-1.4 1.6-1 3.6-.6 5.3 1 4.7.5 9.4.7 14.1.1 3.9-.4 7.9.2 11.8 2.8 20 10.9 37.3 26.3 50.8 1 .9 1.5 2.2 1.2 3.5.5 0 1.1 0 1.6-.1.8-.7 1.2-.6 1.6-.2a4.44 4.44 0 0 1 .8 1.1c.3.2.5.5.8.8 2.7 1 5.2 2.6 7.1 4.8.8-.1 1.5.5 1.6 1.3v.3c2.5.1 4.8 1.2 6.3 3.2 9.8 4.3 17.7 9.8 26.9 15.1"/><path class="M" d="M195.3 28.9c5.7-1.2 10.5-4.8 16.2-6 1.5-.3 2.9-1.4 5-.7-6.1 2.7-11.8 5-17.2 8.2-18.4 11-31.2 26.7-39.7 46.2-6.2 14.3-9.9 29.5-10.8 45-.4 5.5 1.3 10.9 1.9 16.4.1 1.3.8 2.6-.5 3.6-2.7-2.9-6.5-4.2-9.5-6.6.2-9.4 1.3-18.8 3.3-28 3.9-20 11.1-38.5 24-54.5 2.5-3.1 6.2-5.3 7.6-9.3l2.4-2.4.8-.7c.6 0 1.2-.3 1.4-.9l.9-.7 3-2.5 1.8-1.4 2.9-1.8 1.8-1.4c.2-.1.4-.1.6-.2l.9-.7c.6.1 1.3-.3 1.5-.8l.9-.7c.4 0 .6-.1.8-.1z"/><path class="N" d="M363.1 147.6c-9.9-8.4-21.7-9.9-34.1-9.3-2.1.1-4.6 1.2-5-2.4-.3-3.1 1.8-4.4 4.3-4.6 8.9-.9 17.9-1.2 26.8.6a7.85 7.85 0 0 1 5.6 3.9c1.8 3.7 3.5 7.4 3.3 11.7l-.1.1-.4.1-.4-.1z"/><path class="F" d="M175.6 43.1c-1.4 4-5.1 6.2-7.6 9.3-13 16.1-20.1 34.6-24 54.5a164.63 164.63 0 0 0-3.3 28c-1.5-5.8-.9-11.8-.4-17.6 1.1-14.7 4.8-29.1 11-42.5 5.5-11.6 13.1-22 22.4-30.8.4-.5 1.1-.8 1.9-.9z"/><path class="L" d="M326.8 289.8c7.3-14.5 14.8-33.3 23.6-47.1.4-.6 6.8-13 7.4-13.1 0 .3-4.8 12.6-4.8 12.9-.3.8-1 2.1-1.3 2.9-4.7 7.7-5.6 16-9.7 23.9-.3.5-4.4 4.4-4.5 6.8-.9 1.5-5.1 9.9-5.4 10.7-.6 0-4.5 3-5.3 3z"/><path class="O" d="M135.2 214.8c7.2 3.7 14.1 3.8 20.6-1.6 2.5 3.4-1.1 4.4-2.5 6.3-2.1.5-4.2 1.2-6.4 1.5-3.2.4-6.5-.1-9.4-1.5-.3-.5-.9-.9-1.6-.8l-.8-.8c0-.6-.3-1.2-.8-1.6.1-.5.4-1.2.9-1.5z"/><path class="F" d="M180.3 39.1c-.2.6-.8 1-1.4.9.2-.7.8-.8 1.4-.9zm13.5-9.4c-.3.6-.9.9-1.5.8.2-.6.9-.9 1.5-.8z"/><path class="F" d="M181.2 38.5l-.9.7.9-.7zm3.9-3.2l-.9.7.9-.7zm.9-.7l-.9.7.9-.7zm3.9-2.5l-.9.7.9-.7zm4.8-3.1l-.9.7.9-.7zm-2.4 1.5l-.9.7.9-.7zm-1.5.9l-.9.7.9-.7zm-12 8.7l-.8.7.8-.7zm-.8.7l-.8.8.8-.8zm-.8.8l-.8.8.8-.8zm-.8.7l-.8.8.8-.8z"/><path class="N" d="M364 147.5l.3.4-.3-.4z"/><path class="K" d="M430.4 324l-.3-.2.3.2z"/><path class="O" d="M323.6 302.7c-.1-.8.5-1.5 1.3-1.6h.2v1.6h-1.5z"/><path class="O" d="M322.7 305c-1.3-1.4 0-1.8.9-2.4v2.4h-.9z"/><path class="H" d="M207.2 284.5l.8.8-.8-.8z"/><path class="O" d="M330.5 230.2c-6.5-2.4-13.2-3.9-20-2-5 1.5-10 2.3-15.1 1.5s-10.4-1.6-15.8-1.4c-6.5-.6-13.1.3-19.3 2.6-5.4 2.1-7.3 2.6-2.2 8.3.5.6 1 1.2 1.5 1.9 10.7 13.3 24.2 20.9 41.7 19.7 9-.6 16.5-4.1 21.5-12 2.9-4.7 5.9-9.3 9.2-13.8 1.7-2.7.9-3.9-1.5-4.8zm-3.6 6.2c-2.1 3.3-4.8 6.2-8 8.5-1 2.6-3.6 2.9-5.7 3.7-9.5 3.7-19.2 3.3-28.9.5-2.5-.7-4.9-1.7-7.3-2.5-5.4-2-10.3-5.2-14.4-9.3-.8-.8-2.3-1.6-1.8-2.8s2.1-.5 3.2-.7h2c17.6 1.5 35.3 1.2 52.8-.8 2-.2 3.9-.5 5.9-.8 1.2.1 2.8-.8 3.5.7.6 1.4-.7 2.5-1.3 3.5z"/><path class="N" d="M215.8 137.8c6.8-13.3 17.1-18.6 30.9-18.2 9.7.3 19 2.6 28.2 5.2 3.2.9 5.8 2.8 6.5 6.3.5 2.5.2 3.9-3.2 3.4-9.8-1.4-19.6-2.2-29.4-3.4-10.3-1.3-19.9.9-29.2 5l-3.8 1.7z"/><path class="O" d="M258.7 142.7c5.2-1.2 10.3-1.2 15.4 1.6.1-3.1-1.4-5.2-3.2-7.2 5.4 0 10.4 4.2 10.7 9.3.3 5.6 0 11.2.1 16.9 0 2.6-.9 2.7-2.7 1.2-5.2-3.9-10.7-7.2-16.5-10 2.4-.9 5.1-.9 7.6-2.6-2.8-4.4-6.2-7.8-11.4-9.2zm35.6 66.6c5.4 7.8 6.8 8.1 17.9 3.1 3.1.1 6.4.6 6.7-4a27 27 0 0 0 2.7-3.9c.6-1.3 1.1-2.7 1.5-4.1 3 6.6 1.2 10.9-5.4 13.1-3.2 1.1-6.3 2.5-9.3 4.2-8.1 4.6-12 3.8-17.4-3.7-2.6-3.6-5.4-5.4-10-5.7-8.7-.6-13.4-8.3-9.9-16.1.1 1.3.3 2.1.3 2.9.1 5.9 2.3 8.3 8.1 8.8 1.2.1 2.3.4 3.5.6 3.5 2.1 7 4.5 11.3 4.8zm24.1-49.1c-3.4 1.3-6.6 2.9-7.1 7.2-1.2-6.4-2.8-12.9 1.5-18.6 4.4-5.9 10.4-8.9 18.7-8.1-3 2.6-6.1 4.1-8.1 6.8-.5.6-1.3 1.1-.9 2s1.4.5 2.1.6l5.5.3-3.4 2.2h.1c-1.1-.3-1.5.2-1.6 1.2-2.6 1.7-5.7 3-6.8 6.4z"/><path class="P" d="M344.1 156c-4.5-3.2-9.2-5.4-14.9-3.6-2 3.2-1.7 6.3.1 9.5a37.71 37.71 0 0 0 13.4 0c1.1-1.8 1.6-3.8 1.4-5.9zm-6.8 4c-1.6-.1-2.9-1.5-2.8-3.1-.2-1.4.8-2.6 2.1-2.8h.4c1.8-.2 2.9 1 3.1 2.8.3 1.9-1.2 2.6-2.8 3.1zM262 146.2c-4.3-3.8-9.5-2.5-14.4-2.4-1.4 2.8-.8 5.7-.8 8.6.5.4 1 .8 1.8.6h13.2c.2-2.2 1.7-4.4.2-6.8zm-6.3 5c-1.6 0-2.5-1.2-2.5-2.9-.1-1.2.8-2.3 2-2.4h.4c1.5-.1 2.7 1 2.9 2.5-.4 1.7-1.3 2.9-2.8 2.8z"/><path class="M" d="M298.9 154.9l3.8 33.2c-5 1.1-5-1-4.7-5.2.6-9.3.2-18.6.2-28h.7z"/><path class="N" d="M248.5 153h13.2l6.1-.9c-1.9-2.5-2.9-5.1-5.9-5.9-4.3-3.8-9.5-2.5-14.4-2.4-1.3.2-2.5-.1-3.7-.6 4.9-.7 9.9-1.9 14.9-.5s8.5 4.8 11.3 9.2c-2.4 1.7-5.2 1.7-7.6 2.6-4.7.3-9.4.5-13.9-1.5z"/><path class="B" d="M243.9 143.2c1.1.6 2.4.8 3.7.6-1.4 2.8-.8 5.7-.8 8.6l-6.9-1.6c-.3-1.5-2.7-1-2.9-2.5.8-1.6 3-1.4 3.4-3.2 1-.9 3-.1 3.5-1.9zm85.3 9.2c-2 3.2-1.7 6.3.1 9.5-3.7.1-7.3-.8-10.9-1.6 1.1-3.4 4.3-4.6 6.8-6.6.5-.5 1.7 0 1.6-1.2h-.1l2.5-.1z"/><path class="N" d="M329.2 152.4h-2.5l3.4-2.2c10.1-1.6 16.5 3.9 22 11.3-1.2 1.2-2.3-.1-3.4.3.3-3.4-2.5-4.3-4.5-5.8-4.6-3.2-9.3-5.4-15-3.6z"/><path class="L" d="M259.4 162c-6.7 3.1-15.7 3.1-18.7-2.9 5.9 2.4 12.3 3.3 18.7 2.9z"/><path class="M" d="M299.9 191.9c1.7.5 3.8.8 3.8 3.2s-1.9 2.8-3.5 2.9c-1.7.1-3.2-1.2-3.4-2.9v-.2c0-1.9 1.3-2.8 3.1-3z"/><path class="N" d="M240.4 145.2c-.4 1.8-2.6 1.6-3.4 3.2.1 1.6 2.5 1 2.9 2.5-3.1 1.1-6.2-.9-9.4-.3 2.9-2.6 6-4.9 9.9-5.4z"/><path class="H" d="M294.3 209.3c-4.3-.3-7.8-2.7-11.4-4.9.9-2.4 2.5-1 3.9-.8 3.5.6 5.7 2.9 7.5 5.7z"/><path class="B" d="M344.1 156c2.1 1.5 4.8 2.5 4.5 5.8h-6c1.2-1.7 1.7-3.7 1.5-5.8z"/><path class="L" d="M327.4 169.1h13c-5 2.3-8.9 2.4-13 0z"/><path class="H" d="M318.9 208.4c-.3 4.6-3.6 4-6.7 4 1.2-3.1 3.4-4.4 6.7-4z"/><path class="M" d="M218.5 21.3c0 .1-.1.2-.1.2-.1 0-.2 0-.3-.1 0-.1.1-.2.1-.2.1 0 .2.1.3.1z"/><path class="O" d="M146.2 169l4.6 22.5c.1.6.3 1.4-.4 1.8s-1.5 0-2.2-.4c-6.1-3.1-8.9-8.7-10.5-14.9-.4-2.1-.7-4.1-.9-6.2 2.2 1.3 1.5 3.5 2.5 4.9s1.8 3.2 3 4.6c.9 1 1.8 3 3.2 2.3s.3-2.5.2-3.9c-.1-3.5 0-7 0-10.5l.5-.2zm-7.9-22.9h-.8c-9.7-.9-12.5 1.8-12.6 11.8 0 4.5-.2 9 .7 13.5-4.5-7.2-3.8-21 1.2-27.3 2.6-3.4 7.8-2.6 11.7 1.9l-.2.1z"/><path class="O" d="M138.5 145.9l.3.5-.5-.3.2-.2z"/><path d="M406.3 277.1c.1.1.2.2.1.3s-.1.2-.2.3l.1-.6z" fill="#50504f"/><path class="B" d="M265.9 233.9c17.6 1.5 35.3 1.2 52.8-.8l5.9-.8c-1.2 3.4-2.9 6.8-6.6 7.9-14.3 4.2-28.7 5-43.1.3-3.6-1.3-7.1-2.9-9-6.6z"/><path class="P" d="M265.9 233.9c1.9 3.7 5.4 5.3 9 6.5 14.4 4.8 28.8 3.9 43.1-.3 3.7-1.1 5.3-4.4 6.6-7.9 1.2.2 2.9-.8 3.5.7.6 1.3-.6 2.4-1.3 3.5-2.1 3.3-4.8 6.2-8 8.5-9.8 3.2-20.1 4.3-30.3 3.1-3.9-.5-7.6-2-11.6-1.4-5.4-2-10.3-5.2-14.4-9.3-.8-.8-2.3-1.6-1.8-2.8s2.1-.5 3.2-.7c.7 0 1.4.1 2 .1z"/><path class="B" d="M276.9 246.6c4-.5 7.8 1 11.6 1.4 10.2 1.1 20.5.1 30.3-3.1-1 2.6-3.6 2.9-5.7 3.7-9.5 3.7-19.2 3.3-28.9.5-2.4-.7-4.8-1.6-7.3-2.5z"/><path class="N" d="M326.8 152.4c0 1.2-1.1.8-1.6 1.2 0-1 .5-1.6 1.6-1.2zm10.5 7.6c-1.6-.1-2.9-1.5-2.8-3.1-.2-1.4.8-2.6 2.2-2.8h.4c1.9-.2 2.9 1 3.1 2.8.2 1.9-1.3 2.6-2.9 3.1z"/><path class="B" d="M262 146.2c3 .8 4 3.3 5.9 5.9l-6.1.9c.2-2.2 1.7-4.4.2-6.8z"/><path class="N" d="M258.5 148.4c-.3 1.7-1.2 2.8-2.8 2.8s-2.5-1.2-2.5-2.9c-.1-1.2.8-2.3 2-2.4h.4a3 3 0 0 1 2.9 2.5z"/><path class="R" d="M436 329.5c-5.5-2.3-13.2-5.5-16.5-6.4-4.2-1.1-9.6-3.1-13.9-2.7s-8 1.3-12.3.8-7.8-.2-11.7-2c-.6 0-1.1-.2-1.5-.7-1.2-.7-.5-1.3-1.4-2.3-1-1-2-1.9-3.1-2.7-2.4-2-4.5-4.4-6.3-6.9-3.8-2.9-5-9.7-5.8-14.1-.9-5.6-.3-11.4 1.7-16.8 4.3-11.6 14.7-20 27-21.6 3.1-.5 6.3-.5 9.4-.1 1.6.2 3.5 1 5.2 1.1.7 0 1.5-.3 2.1-.3 5.8 0 8.9 5.1 12.6 8.8 2.4 2.6 4.5 5.6 6.2 8.7 1.7 2.7 4.1 4.4 6.5 6.3.9.8 1.9 1.5 2.9 2.3.4 4.4.7 8.7.8 13v2.3c.3 11.2-.3 22.3-1.9 33.3z"/><path d="M403.8 283.7c.4 1.3-.7 1.3-1 2.1l-.8 2.3c-.5 1.4-1.2 2.7-2 3.9-2.6 3.9-3.9 9.1-7.6 12.8-.4-.6.2-1.4-.2-2.1-.4.4-.3 1-.6 1.4-.4.8.4 1.3-.1 2.2-.4.6-1.3.4-1.8 1-.8.8-.8 2.3-1.8 3.2-2 1.6-.9.4-2.3.2-.3.5-.5 3.8-1.8 3.4-1-.3-.5-2.3-1.1-3-.8 1.4-.5 2.8-.4 4.2-2.1-.2-2-2-2.6-3.3-.7.3-.3 1.1-.9 1.4-2-1.5-4.2-2.9-3.4-6.4-1 .8-.8 1.6-1.3 2.2-1.8-2.1-3.8-4.1-3.3-7.2-.6.2-.5.8-.8 1.1-1.6-1.1.5-6 .2-8.1-1.1 1.5-1.7 3.4-1.6 5.3-2.5-3.9-1.3-7.4-1.8-11.4-.2-1.8-1.2-2.7-.5-4.6.8-1.9 1.3-3.9 1.5-6 .2-2.4 2.2-7.4 4.1-9 .6-.6.6.7 1.3.2.7-.6 1.4-1.2 1.9-2 1.5-2 1.5-3.9 4.1-5.1.2.6-.4.9-.3 1.6 1.6-.9 2.2-2.1 3.4-3.2 1-.9 1.3-.6 2.6-1.2 3-1.4 5.5-2.7 8.9-3 0 1-.8 1.5-1.1 2.4 1.9 0 2.7-1.8 4.3-2.4 1.3-.3 2.7-.3 4.1 0 .3.3 0 .4-.1.6-.8.7-1.5 1.5-2 2.4 2-.3 2.6-2.1 4.2-2.5 1.6 0 3.1.4 4.5 1.1-1.2.5-2.1 1.5-2.6 2.7 1.2-.1 3.8-2.8 4.5-1.9 1.1 1.5-2.6 3.6-3.3 4.7 1.1-.2 2.2-.6 3.1-1.3.7 1.9-1.3 2.7-1.7 4 .7.7.9-.4 1.5.8s-1.3 3.6-1.5 4.5c-.1.3-.1.7-.2 1-.1.2.4.6.2 1.1-.5 1.1-1.8 1.2-2.2 2.4.6.2 1.1-.4 1.9-.5-1.1 2.2-1.3 4.6-2.6 6.5-.3.1-1.8 1.1-1.4 1.6l.4-.1z" fill="#7a7a7a"/><path d="M406 317.8c-1 1.5-10.6 3-12 1.5-1.8-1.9 2.2-8.3 3.6-5.2-.2-4.3 5-9 7.1-12.5 1.2-1.9 2.7-3.5 3.7-5.1.4-.8.1-2.1.7-3 .4-.6 1.6-1.1 1.9-1.8s-.4-1.3-.3-2.1c.3-.8.7-1.6 1.2-2.3 1.2-3.1 2.2-6.2 3-9.4.3-1.1 1.2-2.3 1.5-3.3.2-.7-.2-.9-.1-1.4.3-2.4.2-3.4 1.8-5.5-2 .1-1.5-4.3-.3-4.2s1 1.5 1.3 2c1.1 1.5 2.5.7.8 2.8.7.4 1.9-.6 2.5 0 1.4 1.3-.3 1.5-.6 2.5.8.4 4.9.2 2.2 2.5 2.3.1 2.6.8 1.6 2.8 2.7-.2 1.7 4.4-.1 4.6.1.2-.6.7-.4.9 1.5 1.2.8 1.7 0 4.1-.5 1.6-.5 3-1.8 3.3-.4.5-.7 1-1 1.6 1.6.4.3 2.1-.1 3.1-.8 1.7-1.5 3.9-2.3 5.5-.6 1.1-1.3 1.6-1.8 2.6-1 2-1.4 3.8-3.1 5.6-.7-.2-1.3.2-.7.9.2-.1-4.1 9.1-5.2 5.9-.7 1.4.3 3.9-2.5 3.5-.4-.6 0-1.4-.5-1.9-.3.7.3 1.4-.1 2z" fill="#515151"/><path d="M413.4 261.5c2.2 11.7-2.8 24.9-8.1 35.1-2.7 5.1-5.9 9.9-9.5 14.4-1.8 2.2-3.7 4.3-5.8 6.2-3.3 2.9-4.5 2-8.4.5 18.4-11.5 28.5-35.6 31.5-56.3.2-.3.3-.2.3.1zm-4.3 57.5c10.1-11.9 17.1-26 20.5-41.2 1.3 1 4.5 2.8 5 4.4s-1 5.3-1.5 6.9c-1.5 5.1-3.5 10-5.8 14.7-2.1 4.5-4.6 8.8-7.5 12.9-1 1.4-2.1 3.5-3.9 3.8s-5-1.1-6.8-1.5z" fill="#ffeaa2"/><path d="M438 296.2c-1.5 4.1-3.2 8-5.2 11.9-.8 1.7-8.7 16.4-10.5 14.2-.4-.4 8.1-12.6 9.2-14.6 2.5-4.4 4.6-9 6.6-13.7v2.2z" fill="#3d1100"/><path class="W" d="M403.8 283.7c-3.1 1.2-.3-2.2.6-1.8l-.6 1.8z"/><path class="X" d="M391.4 304.1c-.2-.8.1-1.7.7-2.2.6.9.6 2 .1 2.9-.6.2-.6-.4-.8-.7z"/><path class="W" d="M406 317.8c-1.2-3.2 1.1-3.1.6.1l-.6-.1z"/><path class="Y" d="M414.4 308.5c-1.5-.1 0-2.6.7-.9l-.7.9z"/><path class="Z" d="M422.4 290.8c-.4-1 .1-1.4 1-1.6.4 1-.1 1.4-1 1.6z"/><path d="M400.6 256.8l.1-.6c.3-.1.4 0 .5.2-.1.2-.3.4-.6.4z" fill="#616060"/><path d="M413.4 261.5l-.4-.2c-.1-.3 0-.6.2-.8.3.2.4.6.2 1z" fill="#a29fa0"/><path class="c" d="M373.3 271.7c-.3 2.3-1.4 4.5-3.1 6.1-.6-1.9.8-4.8 3.1-6.1z"/><path class="Z" d="M368.6 286.2c-.2-2.5.7-5 2.6-6.7.1 2.5-.9 4.9-2.6 6.7z"/><path class="c" d="M375.2 271.9c.2-2.5 1.7-4.7 3.8-5.9-.4 2.5-1.8 4.6-3.8 5.9z"/><path class="Z" d="M368.3 293.5c-.5-2.3.2-4.6 1.9-6.3.3 2.2-.4 4.5-1.9 6.3zm16.5-32c-.4 2.2-1.9 4.1-4 5.1.4-2.2 1.9-4.1 4-5.1z"/><path class="W" d="M376.4 273.4c-.1 2.4-1.3 4.6-3.1 6.2 0-2.7 1.3-4.4 3.1-6.2z"/><path class="Z" d="M374.6 280.8c0 2.2-.8 4.4-2.4 6-.3-2.3.6-4.5 2.4-6z"/><path class="W" d="M390.9 257.6c-1 2.2-2.2 4-4.5 4.9.6-2.3 2.3-4.1 4.5-4.9z"/><path class="Z" d="M373.6 287.6c.3 2.2-.3 4.4-1.7 6.1-.6-2.3.3-4.1 1.7-6.1zm-.2 6.8c.5 2.1 0 4.4-1.3 6.2-.7-2.4 0-4.1 1.3-6.2zm10-25.3c.1-2 1.4-3.7 3.2-4.4-.2 2-1.4 3.6-3.2 4.4zm-5.1 4.7c0-.5 1.9-6 3-4.6.9 1-2.4 4.2-3 4.6z"/><path d="M376.6 280.7c-.1-2 .9-3.9 2.6-4.9 0 1.9-1 3.8-2.6 4.9z" fill="#050405"/><path class="W" d="M392.2 261.1c-.7 2.2-1.9 3.5-3.6 4.1.1-1.8 1.2-3 3.6-4.1zm-14.4 21.1c.1 1.9-.6 3.8-2 5.2-.6-1.8.1-3.6 2-5.2zm-.8 18c.8 1.8.6 3.9-.6 5.5-1-2-.4-3.7.6-5.5z"/><path class="e" d="M385.7 271.6c.2-1.9 1.5-3.6 3.3-4.4-.4 2-1.6 3.6-3.3 4.4zm-4.7 4.3c.4-2.2 1.1-3.7 3-4.8-.2 2-1.3 3.8-3 4.8z"/><path d="M382 277.4c.1 1.9-.8 3.7-2.4 4.8-.1-1.9.8-3.8 2.4-4.8z" fill="#060506"/><path class="e" d="M373.8 301.3c.5 1.8.3 3.8-.8 5.4-1-2.1-.2-3.8.8-5.4zm6.9 9c-.8-1.5-.8-3.4.2-4.9 1 1.5.9 3.4-.2 4.9z"/><path class="X" d="M376.8 288.6c.5 1.8-.1 3.7-1.5 5-.5-1.9.3-3.4 1.5-5z"/><path class="g" d="M384 310.2c-.8-1.6-.7-3.5.2-5.1.9 1.7.8 3.6-.2 5.1z"/><path class="h" d="M378.1 306.3c.8 1.7.2 3.3-.2 5-1.2-1.2-1-3.2.2-5z"/><path class="W" d="M380.8 283.4a5.34 5.34 0 0 1-1.8 4.6c-.5-1.4 0-2.8 1.8-4.6z"/><path class="e" d="M383.7 277.7c0-1.8 1.1-3.5 2.7-4.3a5.24 5.24 0 0 1-2.7 4.3z"/><path class="Z" d="M398.3 261.7c-.5 1.7-1.8 3.1-3.6 3.6.6-2.1 2-2.9 3.6-3.6z"/><path class="Y" d="M384.8 279.2c0 1.6-.7 3.2-2 4.2-.5-1.7.4-3.5 2-4.2z"/><path class="W" d="M397.5 258.2c-1.2 1.7-1.9 3.3-3.7 3.8.2-1.7 1.3-2.9 3.7-3.8z"/><path class="h" d="M400.9 265.6c.8-1.9 1.8-2.8 3.4-3-.4 1.6-1.7 2.8-3.4 3z"/><path class="Z" d="M380.1 294.5c.4 1.6 0 3.4-1 4.7-.9-1.5-.6-3 1-4.7z"/><path class="i" d="M395.4 266.9c-.7 1.9-1.4 3.2-3.3 3.9.2-2.1 1.6-2.9 3.3-3.9z"/><path class="W" d="M375.5 299.5c-.5-1.6-.1-3.3.9-4.6 1 1 .7 2.4-.9 4.6z"/><path class="e" d="M383.2 289.8c.3 1.5-.1 3.1-1.2 4.2-.7-1.6-.4-2.9 1.2-4.2z"/><path class="Y" d="M380.1 289c.3 1.7-.2 3.5-1.5 4.7-.5-1.9.4-3.1 1.5-4.7zm13.4-24.7c-.4 1.7-1.6 3.2-3.2 3.9.4-1.8 1.6-3.3 3.2-3.9z"/><path class="X" d="M406.1 265.2c-.5 1.6-1.8 2.7-3.4 2.8.5-1.5 1.8-2.6 3.4-2.8z"/><path d="M399.7 262.6c.9-1.6 1.8-2.9 3.7-3.2-.8 1.6-1.7 2.9-3.7 3.2z" fill="#080707"/><path class="W" d="M392.7 272.6c-.1 1.5-1 2.9-2.4 3.5-.2-1.7.9-3.2 2.4-3.5z"/><path class="e" d="M380.3 300c.5 1.6.2 3.4-.8 4.8-.7-1.8-.1-3.2.8-4.8z"/><path class="Z" d="M382.7 304.3c-.7-1.4-.4-3.1.5-4.2.8 1.3.7 2.5-.5 4.2z"/><path class="X" d="M387.9 300.3c-.6-1.3-.3-2.9.8-3.9.7 1.4.5 2.7-.8 3.9zm2.7-30c-.1 1.5-1 2.8-2.3 3.5-.2-1.6.8-3.1 2.3-3.5z"/><path class="h" d="M385.7 304.7c-.5-1.4-.6-2.8.5-4 .8 1.2.6 2.9-.5 4z"/><path d="M386.4 279.4c-.1-1.6.8-3.1 2.2-3.9 0 1.7-.8 3.1-2.2 3.9z" fill="#070607"/><path class="Y" d="M382 288.8c-.4-2 .5-3.1 1.7-4.2.3 1.8-.6 2.8-1.7 4.2z"/><path class="e" d="M394.8 279.5c0-1.4.9-2.7 2.2-3.1.2 1.4-.8 2.8-2.2 3.1z"/><path class="X" d="M401.3 273.7a3.65 3.65 0 0 1-2.6 3.2c0-1.8 1.1-2.6 2.6-3.2z"/><path class="e" d="M389.9 282.2c.2 1.5-.5 2.9-1.8 3.6-.4-1.6.1-2.5 1.8-3.6z"/><path class="X" d="M387.5 295.4c-.2-.7-.3-3.6 1-3.6 1.5 0-.7 3.3-1 3.6z"/><path class="Y" d="M388.7 305c-.7-1.2-.6-2.8.4-3.9.9 1.2.8 2.1-.4 3.9z"/><path class="l" d="M384.9 289.6c-.4-1.5.2-3 1.5-3.9.3 1.5-.3 3-1.5 3.9z"/><path class="Y" d="M396.6 267.9c.6-1.7 1.3-2.9 3.1-3.3-.4 1.6-1.6 2.8-3.1 3.3z"/><path class="i" d="M393 293c-.3-2-.1-2.5 1.4-3.6.3 1.4-.2 2.8-1.4 3.6z"/><path class="X" d="M396 289.8c0-.4.6-4 1.6-3.1s-1 2.7-1.6 3.1z"/><path class="Z" d="M398.3 270.4c.3-1.5 1.5-2.7 3-3-.4 1.5-1.5 2.7-3 3z"/><path class="i" d="M396.9 269.8c-.5 1.5-1 2.6-2.6 3.2.3-1.6.9-2.8 2.6-3.2z"/><path class="l" d="M395 284.9c.2 1.4-.5 2.8-1.7 3.4-.4-1.6.3-2.6 1.7-3.4z"/><path class="i" d="M385.1 299.3c-.6-.8.2-4.2.9-3.5s-.4 2.9-.9 3.5z"/><path class="X" d="M382.1 299c-.6-1.4-.2-2.9.9-3.9.8 1.7-.3 2.8-.9 3.9z"/><path class="W" d="M396.5 285.4c0-1.7.5-2.8 2-3.2.1 1.5-.6 2.4-2 3.2z"/><path d="M398.8 272.1c0 1.5-1.1 2.1-2.2 2.8-.4-1.2.3-2.2 2.2-2.8z" fill="#0c0c0c"/><path class="X" d="M393.1 297.3c-.2-.6-.3-3.6 1-3.4s-.7 3.1-1 3.4z"/><path d="M400.5 272.4c.2-1.7 1.4-2.2 2.8-2.9-.3 1.8-1.3 2.4-2.8 2.9z" fill="#090808"/><path class="Z" d="M391.1 277.5c0 1.4-.8 2.7-2.1 3.3-.2-1.5.3-2.3 2.1-3.3zm14.1-5.7c-.6 1.8-.9 2.1-2.6 2.7.1-1.4 1.2-2.5 2.6-2.7z"/><path class="e" d="M387.1 309.4c-1.1-1.4-.7-2.6 0-4 .7 1.2.7 2.7 0 4z"/><path d="M384.8 294.4c-.3-1.8-.1-2.4 1.1-3.4.3 1.6.1 2.1-1.1 3.4z" fill="#0b0b0b"/><path class="Y" d="M394.6 298.1a2.92 2.92 0 0 1-.7 3.3c-.9-1.2-.7-1.9.7-3.3z"/><path class="i" d="M400.1 287.9c.3 1-1.3 3.4-1.5 2.6-.1-1.1.5-2.2 1.5-2.6z"/><path class="Y" d="M407.4 268c-.3 1.3-.9 1.8-2.6 2.2.3-1.4.8-1.9 2.6-2.2z"/><path d="M391.5 282.3c.2-2 .4-2.4 1.7-3 .3 1.3-.5 2.6-1.7 3z" fill="#050404"/><path class="q" d="M397.2 294.6c.6 1.2.1 2.6-1 3.3-.8-1.4 0-2.3 1-3.3z"/><path class="l" d="M385.4 284.5a3.52 3.52 0 0 1 1.7-3.5c.3 1.5-.5 2.4-1.7 3.5z"/><path class="X" d="M389.1 287c.3 1.8-.7 2.6-1.5 3.7-.5-1.6.3-2.6 1.5-3.7z"/><path class="Z" d="M397.4 290.9c0 .2-.6 3.4-1.5 2.7-1.5-1.4 1.5-2.9 1.5-2.7z"/><path class="i" d="M390.5 296.3c-.1-.6-.3-3.8 1-3.2.9.5-.7 3-1 3.2zm1-8.1c.7 1.1-1 3.2-1.1 2.9-.3-1.1.1-2.3 1.1-2.9z"/><path class="l" d="M393.8 283.8c-.2-1.5.8-2.2 1.8-2.9.2 1.6-.1 2.1-1.8 2.9z"/><path class="i" d="M394.8 274.7c0 1.3-.8 2.5-2 2.8-.2-1.3.7-2.4 2-2.8z"/><path class="Y" d="M391 300.7c-.6-1.8-.5-2.2.6-3.3.6 1.1.3 2.4-.6 3.3z"/><path class="h" d="M405.5 277.9c0 1.2-.9 2.2-2.1 2.5.1-1.1.6-2.9 2.1-2.5z"/><path class="e" d="M397.4 280.9c.1-1.6 1-2.2 2.1-2.8.1 1.7-.9 2.2-2.1 2.8z"/><path class="g" d="M390.8 286.9c-.3-1.2.3-2.5 1.4-3 .2 1.2-.3 2.4-1.4 3z"/><path class="e" d="M403.2 276.1c-.1 1.2-1 2.2-2.2 2.2.1-1.1 1-2.1 2.2-2.2z"/><path class="R" d="M405.5 277.9l-1.1.4c.3-.5.6-.9 1.1-.4z"/><path class="X" d="M399.3 314.9c1 .9 1.3 2.4.8 3.6-1.3-.9-1.5-1.9-.8-3.6z"/><path class="e" d="M417.9 277.7c-1.3 0-1.5-1 .3-1.6s.8 1.2-.3 1.6zm-17.1 36.4c-.6-1.1-1.2-2.2-.1-3.4 1 1.2 1.1 2.1.1 3.4z"/><path class="i" d="M403.2 318.2c-1.3-1-1.1-2-.5-3.2 1.1 1.2 1.2 1.4.5 3.2z"/><path class="W" d="M419 274.3c.5-1.5 1.6-1.7 3-1.8-.8 1.4-1.2 1.7-3 1.8z"/><path class="r" d="M416.5 279.4c.3-.3.7-.3.9 0 .6 3-4.5 1-.9 0z"/><path class="i" d="M421.2 276.9c.1-.6 2-2.8 2.5-1.5.3 1.1-1.9 1.6-2.5 1.5z"/><path class="l" d="M419.6 270.3c-.4 1.1-1.4 1.7-2.5 1.6-.9-.1 2.2-1.6 2.5-1.6z"/><path class="q" d="M403.5 313.3c-.4-1.5 1.3-2.3 1.1-1.1 0 1-.2 2.5-1.1 1.1z"/><path class="c" d="M396.1 314.7c1 1.8 1.1 2.2.5 3.4-.9-.9-1.1-2.2-.5-3.4z"/><path class="q" d="M415 284.3c-1.6 0-.3-1 .3-1.7s1 1.2-.3 1.7z"/><path class="Y" d="M421.5 278.6c-.1.5-2.1 2.2-2 1.2-.1-.8 1.7-2.4 2-1.2z"/><path class="e" d="M414.8 296c.4 1.1-1.5 1.9-1.4 1.2s1.1-2.5 1.4-1.2z"/><path class="X" d="M424.3 279.3c-2.7.1.9-2.1 1.1-1.3 0 .6-.5 1.2-1.1 1.3z"/><path class="W" d="M407.4 314.1c-.7-.6-.8-1.6-.2-2.4.5-.5.9 1.7.2 2.4z"/><path class="i" d="M408.7 301.4c-1.3.6-.1-2-.1-1.8s1.8 1 .1 1.8z"/><path class="l" d="M417.3 295.9c-1.5.7-.4-1.6-.4-1.6s2 .6.4 1.6z"/><path class="X" d="M413.7 293.8c-1.5 1 .1-1.9 0-1.6.1 0 1.9.9 0 1.6z"/><path class="e" d="M411.6 297.8c.3 1-.9 2.2-1.1 1.4-.1-.7.7-2.3 1.1-1.4z"/><path class="W" d="M418.1 283.2c-.1-.6.8-2.3 1.7-1.5s-1.6 1.5-1.7 1.5zm-3.9 4.2c-1.6 0 0-.9.1-1.3s2 .7-.1 1.3z"/><path class="l" d="M412 302.7c-1.4.7-.1-1.8-.1-1.6s1.6.7.1 1.6z"/><path class="s" d="M405.7 308.1c.6.6.6 1.7 0 2.3l-.2.2c-.7-.6-.7-1.6-.1-2.2l.3-.3z"/><path d="M416 303.5c-1.8.8-.3-1.6-.3-1.4s1.5.8.3 1.4z"/><path class="c" d="M422.6 282.4c-1.8.3-.1-1-.1-1.3s1.9.3.1 1.3z"/><path class="s" d="M410.6 295.7c-1.5.6 0-1.8 0-1.6 0 0 1.6 1 0 1.6z"/><path class="e" d="M415.4 299.5c.5 1.6-1.3.7-1.4.7s.9-2.2 1.4-.7z"/><path class="c" d="M406.7 302.4c.7 1.9-1.2 1.2-1 1s.3-2.4 1-1z"/><path class="l" d="M413.2 305.7c-1.7.5-.2-1.5-.2-1.5s1.6.8.2 1.5z"/><path d="M410.2 303.5c.6 1.6-1.1 1-1 .9s.2-2.4 1-.9z" fill="#080708"/><path class="e" d="M413.9 290.6c-1.6.1 0-.9 0-1.3s1.8.8 0 1.3z"/><path d="M419.5 294.2c-.4-1.7 1.4-.6 1.3-.5s-.9 2.1-1.3.5z" fill="#040304"/><path class="e" d="M420.5 291.2c-2.1.5-.4-1.1-.4-1.2-.2-.3 1.8.9.4 1.2z"/><path class="Z" d="M409.4 309.3c.8 1.8-1.1 1.1-1 .9.3-.4.1-2 1-.9z"/><path class="s" d="M408 306.1c.6 1.7-1.1.8-1 .7.4-.3.1-1.9 1-.7z"/><path d="M418.2 297.8c.8 1.8-1.3.8-1.2.8.3-.3.5-1.6 1.2-.8z" fill="#0e0d0d"/><path class="X" d="M418.6 285.1c.2 1.4-1.2.7-1.5.9.1-.1.8-2.1 1.5-.9z"/><path class="Y" d="M411 312.3c.6 1.8-1.1.7-1 .6.4-.2.1-1.9 1-.6z"/><path class="r" d="M410.7 306.4c1.1-.6.4 1.5.4 1.5-.1-.4-1.4-.3-.4-1.5z"/><path d="M424.1 286.8c.2 1.5-1.2.7-1.3.7 0 0 .6-2 1.3-.7z" fill="#0c0b0b"/><path class="W" d="M421.2 284c1.8-.1 0 1.1.1 1.2s-1.6-.5-.1-1.2z"/><path class="Y" d="M425.1 283.8c-.2 1.5-1.1.5-1.4.6 0 .1 1-1.7 1.4-.6zm-5.3 4.4c-.1-1.6 1.1-.7 1.3-.8.1 0-.7 1.9-1.3.8z"/><path class="s" d="M417.1 292.3c-1.5.5-.2-1.1-.3-1.2s1.8.7.3 1.2z"/><path class="Y" d="M417.2 288.1c1.4-.1.2.7.2 1.2 0 0-1.9-.5-.2-1.2z"/><path class="i" d="M412.8 309.4c.7 1.6-1.1 1-1 .8.4-.3 0-1.7 1-.8z"/><path class="R" d="M430.2 295.7c-1.2-1-1.6-1.2-3-.7-1 .3-2.3 3.1-3.3 2.9 2.6-6 4.7-12.2 6.1-18.5 3 2.2 4 2.5 3.2 6.4-.7 3.3-1.7 6.6-3 9.9z"/><path class="H" d="M182.6 265.7c3.9 3 8.1 5.8 12.3 8.5s8.5 5.3 12.8 7.9c8.6 5.1 17.4 9.9 26.4 14.3s18.1 8.4 27.5 11.9c9.3 3.5 19 6.1 28.8 7.7 4.9.7 9.8 1 14.7.8 2.3-.1 4.4-.9 6.3-2.2 2-1.3 3.8-2.9 5.4-4.7 3.3-3.7 6.2-7.7 8.7-11.9 2.6-4.2 4.9-8.6 7.2-13.1s4.4-9 6.5-13.5l6.4-13.6 12.3-27.5c.2-.6.9-.9 1.5-.6s.9.9.6 1.5c-3.7 9.4-7.7 18.6-11.8 27.8s-8.2 18.3-12.8 27.4c-2.3 4.5-4.7 9-7.3 13.3-2.6 4.4-5.6 8.6-9 12.4-1.8 2-3.8 3.7-6 5.1-2.3 1.6-5 2.5-7.8 2.7-5.1.2-10.2-.1-15.3-.9-10-1.7-19.8-4.4-29.3-8-9.5-3.5-18.7-7.6-27.7-12.1s-17.9-9.3-26.5-14.5l-12.8-8c-4.2-2.8-8.4-5.5-12.4-8.7-.5-.4-.5-1.2-.1-1.6.2-.7.9-.8 1.4-.4z"/></svg>