<svg fill="none" height="91" viewBox="0 0 567 91" width="567" xmlns="http://www.w3.org/2000/svg"><path d="m37.532 2h-36.975047v87h19.140047v-35.235h17.835c14.645 0 25.955-10.875 25.955-25.52 0-14.5-11.31-26.245-25.955-26.245zm-3.045 35.96h-14.79v-19.14h14.79c6.09 0 10.73 3.915 10.73 9.57 0 5.8-4.64 9.57-10.73 9.57zm83.502 15.225c10.295-3.045 17.545-12.615 17.545-24.505 0-14.79-11.02-26.68-25.955-26.68h-36.9752v87h19.14v-33.64h7.685l21.4602 33.64h21.46zm-11.31-13.63h-14.9352v-20.59h14.9352c6.09 0 10.585 4.35 10.585 10.295 0 6.09-4.495 10.295-10.585 10.295zm96.592-20.735v-16.82h-52.345v87h52.345v-16.82h-33.205v-18.27h28.42v-16.82h-28.42v-18.27zm41.271 71.34c16.24 0 30.015-9.57 30.015-25.81 0-32.19-40.02-24.215-40.02-39.295 0-4.93 3.77-7.25 8.41-7.25 4.93 0 9.86 2.755 14.21 7.54l12.76-12.18c-6.38-7.395-16.095-12.324999-26.825-12.324999-13.775 0-27.84 8.264999-27.84 25.664999 0 29.58 40.165 22.475 40.165 37.7 0 4.785-4.06 7.975-10.73 7.975-7.975 0-14.21-4.495-17.4-11.31l-15.805 9.86c5.655 10.875 17.835 19.43 33.06 19.43zm68.762 0c16.24 0 30.015-9.57 30.015-25.81 0-32.19-40.02-24.215-40.02-39.295 0-4.93 3.77-7.25 8.41-7.25 4.93 0 9.86 2.755 14.21 7.54l12.76-12.18c-6.38-7.395-16.095-12.324999-26.825-12.324999-13.775 0-27.84 8.264999-27.84 25.664999 0 29.58 40.165 22.475 40.165 37.7 0 4.785-4.06 7.975-10.73 7.975-7.975 0-14.21-4.495-17.4-11.31l-15.805 9.86c5.655 10.875 17.835 19.43 33.06 19.43zm131.089-1.16h25.52l-41.905-48.285 37.555-38.715h-24.65l-28.42 30.74h-3.335v-30.74h-19.14v87h19.14v-39.73h2.755zm31.764 0h19.14v-87h-19.14zm90.534-87h-62.93v16.965h22.04v70.035h18.995v-70.035h21.895z" fill="#fff"/></svg>