<svg width="650" height="358" viewBox="0 0 650 358" fill="none" xmlns="http://www.w3.org/2000/svg"><g clip-path="url(#a)"><path d="m619 224-22 3-4 2-9 13-6 5v4l-3 4v16l6 1 7 17 7 4 6-3 6 4 5-3 8 3 7-3 10-13-3-8 9 3 1-5-1-4-1-16-2-12h-7l-3-7-11-5Z" fill="#BDA60D" fill-opacity=".3"/><path d="m623 221-22 3-4 2-9 13-6 5v4l-3 4v16l6 1 7 17 7 4 6-3 6 4 5-3 8 3 7-3 10-13-3-8 9 3 1-5-1-4-1-16-2-12h-7l-3-7-11-5Z" fill="#FBDD11"/><path fill-rule="evenodd" clip-rule="evenodd" d="m606 273 1 6 3 3-5 5-6 3-7-4-4-10 18-3Z" fill="#C9B10E"/><path d="m630 276-5-10-13 1 8 9h10Z" fill="#B59F0C"/><path fill-rule="evenodd" clip-rule="evenodd" d="M620 221h3l11 5v1l-3 8 14 6 1 2-4 21 6 3-1 3-9-3 2 4-11-4-8 4-9-3-13 4-6-8 27-43Z" fill="#DBC10F"/><path d="m647 268 1-3-1-4-1-16v-2l-5 21 6 4Z" fill="#B59F0C"/><path fill-rule="evenodd" clip-rule="evenodd" d="m617 222 6-1-28 42 10 17-16-1-3-8 31-49Z" fill="#FFEA5A"/><path fill-rule="evenodd" clip-rule="evenodd" d="m627 289 4-1 10-13-2-7-1-1 2-11-2-7 4-2 1-4-16-7v-2l-6-6-11 21-7 11 10 3v-11l7-7 1 6 3 12 2 1-1 7 1 5-4 7 5 6Z" fill="#FFE534"/><path d="m582 248-3 4 15-5 7-23-4 2-9 13-6 5v4Z" fill="#DBC10F"/><path d="m119 51 13-30 3-5 20-7 9-6 5 1 7-2 20 6v8l20 16 3 11-7 7 4 10-7 7 2 11-7 9-21 9-8-7 1 13h-7l-5-3-22-7-14-8 2-9-8-7-3-17Z" fill="#FBDD11"/><path fill-rule="evenodd" clip-rule="evenodd" d="m194 47 7 4 3 5 8-6 7-7-3-11-12-9-10 24Z" fill="#C9B10E"/><path d="m189 81-11-11 6-17 9 14-4 14Z" fill="#B59F0C"/><path fill-rule="evenodd" clip-rule="evenodd" d="m120 47-1 4 3 17 1 1 12-2 2 22 4 2 28 2 2 9h5l-1-13 4 3-2-16 9-9V54l9-17-8-11-67 21Z" fill="#DBC10F"/><path d="M173 102h-4l-5-3-22-7-2-1 29 1 4 10Z" fill="#B59F0C"/><path fill-rule="evenodd" clip-rule="evenodd" d="m122 43-3 8 66-22 18 19 5-22-10-8-76 25Z" fill="#FFEA5A"/><path fill-rule="evenodd" clip-rule="evenodd" d="m208 82-4 5-21 9-7-6-1-1-16-2-8-4-4 4h-6l-3-25-3-1-5-10 30-8 18-5v15l-14-4-12 8 7 2 15 9 1 3 9 1 6 4 11-3 7 9Z" fill="#FFE534"/><path d="m169 4 7-2-13 19h-31l3-5 20-7 9-6 5 1Z" fill="#DBC10F"/><path d="m3 214 15-18 3-3 16-1 7-2 3 1h5l14 8-2 6 11 15 1 8-6 3v7l-5 3-1 9-7 4-16 2-5-6-2 9-4-1-3-4-15-8-8-8 3-6-4-6v-12Z" fill="#BDA60D" fill-opacity=".3"/><path d="m5 211 15-18 3-3 16-1 7-2 3 1h5l14 8-2 6 11 15 1 8-6 3v7l-5 3-1 9-7 4-16 2-5-6-2 9-4-1-3-4-15-8-8-8 3-6-4-6v-12Z" fill="#FBDD11"/><path fill-rule="evenodd" clip-rule="evenodd" d="m59 222 5 4 1 5 7-3 6-3-1-8-6-9-12 14Z" fill="#C9B10E"/><path d="m49 244-5-9 7-11 4 12-6 8Z" fill="#B59F0C"/><path fill-rule="evenodd" clip-rule="evenodd" d="m7 208-2 3v12l9 2-3 15 2 2 20 7v6l3 1 2-9 2 3 2-11 8-5 2-9 10-9-4-10-51 2Z" fill="#DBC10F"/><path d="M34 255h-2l-3-4-15-8-1-2 20 7 1 7Z" fill="#B59F0C"/><path fill-rule="evenodd" clip-rule="evenodd" d="m9 206-4 5 51-3 10 17 7-14-6-8-58 3Z" fill="#FFEA5A"/><path fill-rule="evenodd" clip-rule="evenodd" d="m63 249-4 2-16 2-4-5-1-1-11-5-5-4-3 2-5-1 3-17-2-2-2-7h37l-3 10-9-5-10 3 4 3 9 8 1 3 6 2 3 4h9l3 8Z" fill="#FFE534"/><path d="M49 188h5l-12 11-22-6 3-3 16-1 7-2 3 1Z" fill="#DBC10F"/><path d="m545 107 25-20 4-4 2-22 4-10-2-4v-7l-11-19-9 3-20-15h-12l-5 8-10-1-4 8-12 1-7 9-3 23 8 6-12 3 2 6 4 4 12 19 12 12 7-5 9 6 18-1Z" fill="#FBDD11"/><path fill-rule="evenodd" clip-rule="evenodd" d="m529 34-5-6-6-2 4-9 4-8h12l12 9-21 16Z" fill="#C9B10E"/><path d="m498 48 13 7 15-10-16-5-12 8Z" fill="#B59F0C"/><path fill-rule="evenodd" clip-rule="evenodd" d="m548 105-3 2-18 1-2-12-22 3-3-2-9-27h-9l-1-4 12-3-3-3 16-3 6-10 13-3 14-14 13 5-4 70Z" fill="#DBC10F"/><path d="m482 69 1 3 4 4 12 19 2 3-9-28-10-1Z" fill="#B59F0C"/><path fill-rule="evenodd" clip-rule="evenodd" d="m552 102-7 5 4-69-23-13 20-10 11 7-5 80Z" fill="#FFEA5A"/><path fill-rule="evenodd" clip-rule="evenodd" d="m492 30-4 4-3 23 7 5 1 1 7 15 6 7-3 4 2 6 24-3 2 2 11 3V46l-14 4 7 13-4 13-4-6-12-12h-4l-3-9-6-4V33l-10-3Z" fill="#FFE534"/><path d="M578 47v-7l-15 16 7 31 4-4 2-22 4-10-2-4Z" fill="#DBC10F"/><path d="m64 57 152 27-35 195-91-16c-44-8-55-39-51-63L64 57Z" fill="#BDA60D" fill-opacity=".3"/><path d="m75 51 152 27-35 195-91-16c-44-8-55-39-51-63L75 51Z" fill="#F0D310"/><path d="M89 254c-29-10-40-31-40-51 3 16 15 17 23 19-1 8 3 25 17 32Z" fill="#CFB60E"/><rect x="87.4" y="142.7" width="70" height="6" rx="3" transform="rotate(10 87 143)" fill="#CFB60E"/><rect x="85" y="156.4" width="100" height="6" rx="3" transform="rotate(10 85 156)" fill="#CFB60E"/><rect x="82.5" y="170.2" width="60" height="6" rx="3" transform="rotate(10 83 170)" fill="#CFB60E"/><rect x="80.1" y="184" width="66" height="6" rx="3" transform="rotate(10 80 184)" fill="#CFB60E"/><rect x="77.7" y="197.8" width="40" height="6" rx="3" transform="rotate(10 78 198)" fill="#CFB60E"/><rect x="98.5" y="79.6" width="44" height="6" rx="3" transform="rotate(10 98 80)" fill="#CFB60E"/><rect x="96.1" y="93.4" width="50" height="6" rx="3" transform="rotate(10 96 93)" fill="#CFB60E"/><rect x="93.6" y="107.2" width="28" height="6" rx="3" transform="rotate(10 94 107)" fill="#CFB60E"/><rect x="91.2" y="121" width="68" height="6" rx="3" transform="rotate(10 91 121)" fill="#CFB60E"/><path d="m185 45 152-27 34 195-91 16c-44 8-66-17-70-41L185 45Z" fill="#BDA60D" fill-opacity=".3"/><path d="m192 37 152-27 34 195-91 16c-44 8-65-17-69-41L192 37Z" fill="#FBDD11"/><path d="M274 222c-30 1-48-15-54-33 8 13 19 10 28 9 2 8 11 23 26 24Z" fill="#DBC10F"/><rect x="235.1" y="118.4" width="69" height="6" rx="3" transform="rotate(-10 235 118)" fill="#D9BF0F"/><rect x="237.5" y="132.2" width="98" height="6" rx="3" transform="rotate(-10 238 132)" fill="#D9BF0F"/><rect x="240" y="146" width="98" height="6" rx="3" transform="rotate(-10 240 146)" fill="#D9BF0F"/><rect x="224" y="55.4" width="76" height="6" rx="3" transform="rotate(-10 224 55)" fill="#D9BF0F"/><rect x="226.4" y="69.2" width="64" height="6" rx="3" transform="rotate(-10 226 69)" fill="#D9BF0F"/><rect x="228.8" y="83" width="86" height="6" rx="3" transform="rotate(-10 229 83)" fill="#D9BF0F"/><path d="m365 11 131 23-30 168-78-14c-38-6-48-33-45-53l22-124Z" fill="#BDA60D" fill-opacity=".3"/><path d="m373 7 131 23-30 168-78-14c-38-7-48-34-44-54L373 7Z" fill="#F0D310"/><path d="M385 181c-25-8-34-27-34-43 3 13 12 14 20 16-1 7 2 21 14 27Z" fill="#CFB60E"/><rect x="384" y="85.5" width="61.6" height="5.4" rx="2.7" transform="rotate(10 384 85)" fill="#CFB60E"/><rect x="381.8" y="97.8" width="87.4" height="5.4" rx="2.7" transform="rotate(10 382 98)" fill="#CFB60E"/><rect x="379.6" y="110.1" width="87.4" height="5.4" rx="2.7" transform="rotate(10 380 110)" fill="#CFB60E"/><rect x="393.5" y="31.2" width="80.3" height="5.4" rx="2.7" transform="rotate(10 394 31)" fill="#CFB60E"/><rect x="391.4" y="43.5" width="35.7" height="5.4" rx="2.7" transform="rotate(10 391 44)" fill="#CFB60E"/><rect x="389.2" y="55.8" width="17.8" height="5.4" rx="2.7" transform="rotate(10 389 56)" fill="#CFB60E"/><path d="m454 75 154-3 3 198-92 2c-45 1-62-28-63-52l-2-145Z" fill="#BDA60D" fill-opacity=".3"/><path d="m463 66 154-3 4 198-93 2c-44 0-62-28-62-52l-3-145Z" fill="#FBDD11"/><path d="M515 262c-30-4-44-23-48-42 6 15 17 14 26 14 0 8 8 24 22 28Z" fill="#DBC10F"/><rect x="492.9" y="153.2" width="69" height="6" rx="3" transform="rotate(-1 493 153)" fill="#D9BF0F"/><rect x="493.2" y="167.2" width="50" height="6" rx="3" transform="rotate(-1 493 167)" fill="#D9BF0F"/><rect x="493.4" y="181.2" width="98" height="6" rx="3" transform="rotate(-1 493 181)" fill="#D9BF0F"/><rect x="493.7" y="195.2" width="40" height="6" rx="3" transform="rotate(-1 494 195)" fill="#D9BF0F"/><rect x="493.9" y="209.2" width="30" height="6" rx="3" transform="rotate(-1 494 209)" fill="#D9BF0F"/><rect x="491.8" y="89.2" width="54" height="6" rx="3" transform="rotate(-1 492 89)" fill="#D9BF0F"/><rect x="492" y="103.2" width="76" height="6" rx="3" transform="rotate(-1 492 103)" fill="#D9BF0F"/><rect x="492.3" y="117.2" width="64" height="6" rx="3" transform="rotate(-1 492 117)" fill="#D9BF0F"/><rect x="492.5" y="131.2" width="86" height="6" rx="3" transform="rotate(-1 493 131)" fill="#D9BF0F"/><path d="m161 301-24-11-4-3-7-18-5-7 1-5-1-6 4-18h8l13-17 9-2 6 5 8-3 5 6 10-2 7 6 8 19-5 7 10-1v6l-3 5-5 19-7 12-7-2-6 7-15 3Z" fill="#BDA60D" fill-opacity=".3"/><path d="m168 298-24-11-5-3-6-17-5-8 1-4-2-6 5-18h7l14-17 9-3 6 6 7-3 6 5 10-1 7 6 8 18-6 8 11-1v6l-3 4-6 19-7 13-7-3-6 7-14 3Z" fill="#FBDD11"/><path fill-rule="evenodd" clip-rule="evenodd" d="m165 233 3-7 5-2-6-7-5-6-9 3-8 10 20 9Z" fill="#C9B10E"/><path d="m193 238-9 9-14-6 12-8 11 5Z" fill="#B59F0C"/><path fill-rule="evenodd" clip-rule="evenodd" d="m165 297 3 1 14-3h1l-1-11 18-2 2-3 1-24 8-2v-4l-11 1 3-4-14 1-7-7h-11l-15-8-9 7 18 58Z" fill="#DBC10F"/><path d="M211 251v4l-3 4-6 19-1 2 1-25 9-4Z" fill="#B59F0C"/><path fill-rule="evenodd" clip-rule="evenodd" d="m162 296 6 2-18-57 16-16-18-5-7 9 21 67Z" fill="#FFEA5A"/><path fill-rule="evenodd" clip-rule="evenodd" d="m194 221 4 3 8 18-5 7h-1l-2 14-4 8 4 3v5l-20 3-1 3-9 4-6-27-5-15h13l-3 12 6 10 2-6 7-13 3-1v-8l4-5-2-10 7-5Z" fill="#FFE534"/><path d="m129 255-2-6 16 10 1 28-5-3-6-17-5-8 1-4Z" fill="#DBC10F"/><path d="m433 170 24 11 4 3 6 17 5 8-1 4 1 5-4 18h-7l-13 16-9 3-6-6-7 3-6-5-9 1-7-5-7-18 5-7h-10v-5l3-4 5-19 6-12 7 2 6-7 14-3Z" fill="#BDA60D" fill-opacity=".3"/><path d="m436 176 24 11 4 3 6 17 5 8-1 4 1 5-4 18h-7l-13 16-9 3-6-6-7 3-6-5-9 1-7-5-7-18 5-7h-10v-5l3-4 5-19 6-12 7 2 6-7 14-3Z" fill="#FBDD11"/><path fill-rule="evenodd" clip-rule="evenodd" d="m439 240-3 6-4 3 5 6 5 6 9-3 8-10-20-8Z" fill="#C9B10E"/><path d="m412 235 9-9 13 6-11 7-11-4Z" fill="#B59F0C"/><path fill-rule="evenodd" clip-rule="evenodd" d="m439 178-3-2-14 3v1l1 10-18 2-2 3-1 24-7 1v4h10l-2 3 13-1 7 7h11l13 8 9-7-17-56Z" fill="#DBC10F"/><path d="M395 222v-3l3-4 5-19 1-2-1 25-8 3Z" fill="#B59F0C"/><path fill-rule="evenodd" clip-rule="evenodd" d="m442 179-6-3 18 56-16 16 18 4 7-9-21-64Z" fill="#FFEA5A"/><path fill-rule="evenodd" clip-rule="evenodd" d="m411 252-4-3-7-18 4-6 1-1 2-14 3-7-3-2v-6l20-2 1-3 8-4 6 25 5 16h-13l3-12-6-10-2 5-6 13-3 1-1 8-3 5 2 9-7 6Z" fill="#FFE534"/><path d="m474 219 1 5-15-10v-27l4 3 6 17 5 8-1 4Z" fill="#DBC10F"/><path d="M230 111h189v244H305c-54 0-75-35-75-65V111Z" fill="#BDA60D" fill-opacity=".3"/><path d="M239 102h190v244H315c-55 0-76-35-76-64V102Z" fill="#FFE42D"/><path d="M299 345c-37-5-55-29-59-52 7 18 21 17 32 17 0 10 9 30 27 35Z" fill="#E0C60F"/><rect x="273.6" y="210.8" width="38.3" height="6.6" rx="3.3" fill="#E0C60F"/><rect x="273.6" y="226.1" width="90.7" height="6.6" rx="3.3" fill="#E0C60F"/><rect x="273.6" y="241.4" width="107.1" height="6.6" rx="3.3" fill="#E0C60F"/><rect x="273.6" y="256.7" width="107.1" height="6.6" rx="3.3" fill="#E0C60F"/><rect x="273.6" y="272" width="107.1" height="6.6" rx="3.3" fill="#E0C60F"/><rect x="273.6" y="132" width="107.1" height="6.6" rx="3.3" fill="#E0C60F"/><rect x="273.6" y="147.3" width="83.1" height="6.6" rx="3.3" fill="#E0C60F"/><rect x="273.6" y="162.6" width="90.7" height="6.6" rx="3.3" fill="#E0C60F"/><rect x="273.6" y="177.9" width="107.1" height="6.6" rx="3.3" fill="#E0C60F"/></g><defs><clipPath id="a"><path fill="#fff" d="M0 0h650v358H0z"/></clipPath></defs></svg>