<svg fill="none" height="358" viewBox="0 0 650 358" width="650" xmlns="http://www.w3.org/2000/svg" xmlns:xlink="http://www.w3.org/1999/xlink"><clipPath id="a"><path d="m0 0h650v358h-650z"/></clipPath><g clip-path="url(#a)"><path d="m0 0h650v358h-650z" fill="#fff"/><path d="m617.986 223.617-22.349 3.694-4.07 1.522-8.928 12.823-5.819 5.203-.248 3.776-2.407 4.427-.18 15.475 5.979 1.602 7.091 16.808 6.787 4.277 5.966-3.473 5.752 4.154 5.785-3.368 7.483 3.388 7.143-3.311 10.221-13.092-2.799-7.205 8.387 2.862 1.268-4.732-1.46-4.233-.121-16.631-2.965-11.707-6.194.339-3.303-7.033z" fill="#bda60d" fill-opacity=".25"/><path d="m622.986 220.617-22.349 3.694-4.07 1.522-8.928 12.823-5.819 5.203-.248 3.776-2.407 4.427-.18 15.475 5.979 1.602 7.091 16.808 6.787 4.277 5.966-3.473 5.752 4.154 5.785-3.368 7.483 3.388 7.143-3.311 10.221-13.092-2.799-7.205 8.387 2.862 1.268-4.732-1.46-4.233-.121-16.631-2.965-11.707-6.194.339-3.303-7.033z" fill="#fbdd11"/><path clip-rule="evenodd" d="m606.208 272.986 1.102 6.136 3.125 3.142-5.74 4.552-5.853 3.408-6.787-4.277-4.267-10.115z" fill="#c9b10e" fill-rule="evenodd"/><path d="m630.228 275.581-5.65-9.66-12.76 1.499 8.132 8.941z" fill="#b59f0c"/><path clip-rule="evenodd" d="m620.21 221.076 2.776-.459 11.019 5.565.166.353-3.195 8.672 14.496 5.448.692 2.73-4.238 20.422 5.763 2.976-.91 3.396-8.387-2.862 1.258 3.238-10.829-3.958-7.412 4.315-9.11-2.441-13.555 3.899-5.75-8.15z" fill="#dbc10f" fill-rule="evenodd"/><path d="m647.356 268.028.691-2.581-1.459-4.233-.121-16.631-.519-2.049-4.591 21.12z" fill="#b59f0c"/><path clip-rule="evenodd" d="m617.077 221.593 5.909-.977.029.015-27.681 42.832 9.637 16.415-15.661-.438-3.704-8.779z" fill="#ffea5a" fill-rule="evenodd"/><path clip-rule="evenodd" d="m627.262 289.333 3.709-1.72 10.22-13.091-2.473-6.368-.507-.732 1.328-11.786-1.272-6.642 3.5-1.675 1.268-4.732-15.974-6.432-.278-2.38-5.691-5.521-11.25 20.347-7.12 11.771 10.391 2.784.166-10.868 7.172-6.838.298 5.151 2.993 12.175 2.085 1.328-1.198 6.748 1.837 5.103-4.249 7.315z" fill="#ffe534" fill-rule="evenodd"/><path d="m581.572 247.635-2.407 4.427 14.974-5.21 6.498-22.542-4.069 1.523-8.929 12.823-5.818 5.203z" fill="#dbc10f"/><path d="m118.837 50.9476 12.728-29.4737 3.434-5.0526 20-7.57899 8.889-6.10526 5.05 1.05263 6.667-1.68421 20.404 5.47368v8.84215l19.596 16 3.232 10.9473-6.667 6.9474 3.435 9.4737-6.465 6.7368 1.818 11.579-6.868 8.6315-20.808 9.2632-8.485-6.5263.808 12.6311h-6.667l-5.05-3.5785-21.818-6.3158-14.344-8.421 2.626-8.4211-8.08-7.1579z" fill="#fbdd11"/><path clip-rule="evenodd" d="m193.584 47.158 7.677 3.7895 3.031 5.4737 8.003-6.2355 6.542-6.8171-3.232-10.9474-11.792-9.6277z" fill="#c9b10e" fill-rule="evenodd"/><path d="m188.534 81.2633-10.707-11.3684 6.465-17.0526 8.889 14.5263z" fill="#b59f0c"/><path clip-rule="evenodd" d="m120.418 47.2871-1.581 3.661 3.435 17.2631.406.3596 12.523-1.202 2.056 22.0171 3.345 1.9635 28.336 1.7036 1.882 9.053h4.785l-.808-12.6316 3.813 2.933-1.389-16.407 8.283-8.6316v-13.4737l9.899-17.2632-8.687-10.9473z" fill="#dbc10f" fill-rule="evenodd"/><path d="m172.574 102.105h-3.636l-5.05-3.5787-21.819-6.3158-2.51-1.4737 29.379 1.4737z" fill="#b59f0c"/><path clip-rule="evenodd" d="m122.202 43.1552-3.365 7.7925.009.0451 66.052-22.361 18.182 19.3685 4.94-21.7716-10.236-8.3581z" fill="#ffea5a" fill-rule="evenodd"/><path clip-rule="evenodd" d="m207.656 82.2556-3.566 4.4819-20.808 9.2632-7.5-5.7684-.783-.9688-15.96-2.5263-8.283-4.2105-3.434 4.2105h-6.667l-2.828-24.4211-3.03-1.2631-5.253-9.8947 30.707-8 17.98-5.4737v15.3684l-14.343-3.7895-11.515 7.3684 6.666 2.3158 14.95 8.6316 1.01 3.3684 9.293.8421 6.06 4.4211 11.111-3.1579z" fill="#ffe534" fill-rule="evenodd"/><path d="m168.938 3.78968 6.666-1.68421-12.121 18.73683-31.919.6316 3.434-5.0526 20-7.57899 8.889-6.10526z" fill="#dbc10f"/><path d="m1.26835 213.625 14.37375-17.508 3.3531-2.763 15.5693-1.32 7.4155-2.438 3.3941 1.672 5.0372.13 13.4912 7.581-1.6019 5.979 11.0106 14.545.3109 8.017-5.9907 3.43.7213 7.058-5.8091 3.326-.8073 8.175-6.4392 4.53-16.448 2.305-4.8402-6.026-1.7149 8.694-4.7321-1.267-2.9364-3.381-14.3425-8.42-8.65536-8.422 3.3898-5.194-4.438991-6.377z" fill="#bda60d" fill-opacity=".25"/><path d="m5.26835 210.625 14.37375-17.508 3.3531-2.763 15.5693-1.321 7.4155-2.437 3.3941 1.672 5.0372.129 13.4912 7.582-1.6019 5.978 11.0106 14.546.3109 8.017-5.9907 3.429.7213 7.059-5.8091 3.326-.8073 8.174-6.4392 4.53-16.448 2.306-4.8402-6.027-1.7149 8.695-4.7321-1.268-2.9364-3.38-14.3425-8.42-8.65536-8.422 3.3898-5.195-4.43899-6.376z" fill="#fbdd11"/><path clip-rule="evenodd" d="m59.0107 222.279 4.7625 4.022 1.1592 4.277 6.8121-2.694 5.8776-3.365-.3109-8.016-6.6256-8.753z" fill="#c9b10e" fill-rule="evenodd"/><path d="m49.2471 244.379-5.5403-9.724 7.6781-10.3 3.6777 11.512z" fill="#b59f0c"/><path clip-rule="evenodd" d="m7.05382 208.45-1.78534 2.175-.68991 12.325.22304.321 9.10669 1.569-2.5291 15.278 2.0182 1.963 19.8046 6.542-.3041 6.479 3.3962.91 1.7149-8.695 2.1752 2.709 1.9865-11.358 7.443-4.261 2.4411-9.11 10.154-9.79-4.1827-9.054z" fill="#dbc10f" fill-rule="evenodd"/><path d="m34.1427 255.435-2.5811-.691-2.9364-3.381-14.3425-8.42-1.5147-1.474 20.5863 6.584z" fill="#b59f0c"/><path clip-rule="evenodd" d="m9.06854 205.996-3.80017 4.629-.00181.032 50.93464-2.557 9.3965 16.554 7.4516-13.781-5.7513-7.598z" fill="#ffea5a" fill-rule="evenodd"/><path clip-rule="evenodd" d="m62.6405 248.686-3.3436 2.352-16.448 2.306-4.278-5.327-.3807-.804-10.8705-4.743-5.1164-4.423-3.2005 2.194-4.7321-1.268 2.4169-17.05-1.922-1.431-1.9356-7.689 23.2454.431 13.7539-.281-2.7844 10.391-9.4945-5.29-9.5085 2.792 4.3125 2.834 9.0475 8.679.1067 2.47 6.4436 2.337 3.5009 4.142 8.4588-.022z" fill="#ffe534" fill-rule="evenodd"/><path d="m49.3735 188.268 5.0371.129-11.9983 10.363-22.7709-5.643 3.3532-2.763 15.5692-1.321 7.4155-2.438z" fill="#dbc10f"/><path d="m545.029 107.234 25.175-19.9222 3.992-4.6251 2.144-21.28 3.597-10.1662-2.324-4.6059-.099-6.8754-10.568-18.2921-8.541 2.2885-20.527-14.78712-11.41-.28879-4.986 8.23761-10.039-.8653-4.834 7.9879-11.655 1.2407-6.56 8.8686-3.562 22.4965 8.5 6.5066-12.411 2.4888 1.726 6.4395 4.764 3.9521 11.748 19.44 11.846 11.6753 7.454-4.716 9.006 5.952z" fill="#fbdd11"/><path clip-rule="evenodd" d="m529.343 34.053-5.647-6.4344-6.071-1.5104 3.951-9.3462 4.892-8.08223 11.411.28879 12.351 8.89804z" fill="#c9b10e" fill-rule="evenodd"/><path d="m497.707 47.7581 13.752 7.3999 14.799-10.6579-16.332-4.8264z" fill="#b59f0c"/><path clip-rule="evenodd" d="m548.155 104.759-3.127 2.475-17.563 1.15-.453-.299-2.08-12.407-21.799 3.7119-2.762-2.7225-8.98-26.9295-9.231.5249-1.239-4.6217 12.411-2.4888-3.82-2.924 16.207-2.9046 6.194-10.2346 13.014-3.4872 14.113-14.0297 12.823 5.5574z" fill="#dbc10f" fill-rule="evenodd"/><path d="m481.706 68.5683.941 3.5125 4.764 3.9521 11.748 19.4401 2.073 2.0431-9.027-27.9963z" fill="#b59f0c"/><path clip-rule="evenodd" d="m551.685 101.967-6.656 5.267-.046.003 4.503-69.5883-23.414-12.5493 19.751-10.4074 10.723 7.7242z" fill="#ffea5a" fill-rule="evenodd"/><path clip-rule="evenodd" d="m491.8 29.5446-3.406 4.6046-3.562 22.4965 7.515 5.7523 1.136.5052 6.571 14.7619 6.211 6.9108-3.178 4.4071 1.725 6.4395 24.321-3.5887 2.004 2.6001 10.917 2.5126-.22-31.7313.634-18.7838-14.845 3.9776 7.373 12.8739-4.137 13.0299-3.963-5.8402-12.206-12.206-3.515-.1039-3.219-8.7583-5.839-4.7098.175-11.5499z" fill="#ffe534" fill-rule="evenodd"/><path d="m577.613 46.6352-.099-6.8754-14.961 16.5576 7.651 30.995 3.992-4.625 2.144-21.2801 3.597-10.1662z" fill="#dbc10f"/><path d="m64.0928 57.1338 151.6602 26.7418-34.382 194.9924s-47.271-8.336-91.0949-16.063-55.6167-38.746-51.4491-62.382c4.1675-23.635 25.2658-143.2892 25.2658-143.2892z" fill="#bda60d" fill-opacity=".25"/><path d="m75.0928 51.1338 151.6602 26.7418-34.382 194.9924s-47.271-8.336-91.095-16.063c-43.8238-7.727-55.6166-38.746-51.449-62.382 4.1675-23.635 25.2658-143.2892 25.2658-143.2892z" fill="#f5d811"/><g fill="#d4ba0e"><path d="m88.6277 253.674c-28.8621-9.461-39.5824-30.934-39.5842-50.25 3.1039 15.271 14.5161 16.775 23.3794 18.338-1.476 8.371 2.6392 25.344 16.2048 31.912z"/><rect height="6" rx="3" transform="matrix(.98480775 .17364818 -.17364818 .98480775 26.100068 -13.007144)" width="70" x="87.3862" y="142.659"/><rect height="6" rx="3" transform="matrix(.98480775 .17364818 -.17364818 .98480775 28.457222 -12.375532)" width="100" x="84.9551" y="156.446"/><rect height="6" rx="3" transform="matrix(.98480775 .17364818 -.17364818 .98480775 30.814552 -11.74394)" width="60" x="82.5242" y="170.234"/><rect height="6" rx="3" transform="matrix(.98480775 .17364818 -.17364818 .98480775 33.171704 -11.112311)" width="66" x="80.093" y="184.021"/><rect height="6" rx="3" transform="matrix(.98480775 .17364818 -.17364818 .98480775 35.529031 -10.480684)" width="40" x="77.6619" y="197.809"/><rect height="6" rx="3" transform="matrix(.98480775 .17364818 -.17364818 .98480775 15.324263 -15.894532)" width="44" x="98.4998" y="79.6313"/><rect height="6" rx="3" transform="matrix(.98480775 .17364818 -.17364818 .98480775 17.68145 -15.2629)" width="50" x="96.0686" y="93.4185"/><rect height="6" rx="3" transform="matrix(.98480775 .17364818 -.17364818 .98480775 20.038694 -14.631316)" width="28" x="93.6377" y="107.206"/><rect height="6" rx="3" transform="matrix(.98480775 .17364818 -.17364818 .98480775 22.395846 -13.999687)" width="68" x="91.2065" y="120.993"/></g><path d="m174.573 47.4106 161.551-28.4859 36.625 207.7093s-50.354 8.879-97.036 17.11-69.787-18.522-74.227-43.698c-4.439-25.177-26.913-152.6354-26.913-152.6354z" fill="#bda60d" fill-opacity=".25"/><path d="m182.345 38.3882 161.552-28.48594 36.624 207.70974s-50.353 8.878-97.035 17.11c-46.683 8.231-69.788-18.522-74.227-43.699-4.44-25.177-26.914-152.6348-26.914-152.6348z" fill="#fbdd11"/><path d="m269.684 236.195c-32.337 1.046-50.891-16.543-57.931-35.877 8.671 14.155 20.642 11.503 30.084 9.838 1.572 8.917 11.875 24.407 27.847 26.039z" fill="#dbc10f"/><rect fill="#d9bf0f" height="6.39132" rx="3.19566" transform="matrix(.98480775 -.17364818 .17364818 .98480775 -18.333242 41.498082)" width="73.5002" x="227.996" y="125.524"/><rect fill="#d9bf0f" height="6.39132" rx="3.19566" transform="matrix(.98480775 -.17364818 .17364818 .98480775 -20.844107 42.17077)" width="104.392" x="230.585" y="140.21"/><rect fill="#d9bf0f" height="6.39132" rx="3.19566" transform="matrix(.98480775 -.17364818 .17364818 .98480775 -23.35513 42.843647)" width="104.392" x="233.175" y="154.897"/><rect fill="#d9bf0f" height="6.39132" rx="3.19566" transform="matrix(.98480775 -.17364818 .17364818 .98480775 -6.85459 38.422273)" width="80.9567" x="216.157" y="58.3853"/><rect fill="#d9bf0f" height="6.39132" rx="3.19566" transform="matrix(.98480775 -.17364818 .17364818 .98480775 -9.365526 39.095143)" width="68.1741" x="218.747" y="73.0718"/><rect fill="#d9bf0f" height="6.39132" rx="3.19566" transform="matrix(.98480775 -.17364818 .17364818 .98480775 -11.876462 39.768012)" width="91.6089" x="221.337" y="87.7583"/><path d="m364.996 11.3979 130.535 23.017-29.593 167.8321s-40.686-7.175-78.406-13.826-47.87-33.349-44.283-53.692 21.747-123.3311 21.747-123.3311z" fill="#bda60d" fill-opacity=".25"/><path d="m373.39 6.69482 130.536 23.01698-29.593 167.8312s-40.687-7.174-78.406-13.825c-37.72-6.651-47.87-33.349-44.283-53.692 3.587-20.344 21.746-123.33118 21.746-123.33118z" fill="#f5d811"/><path d="m385.04 181.024c-24.842-8.143-34.069-26.626-34.071-43.251 2.672 13.144 12.495 14.439 20.123 15.784-1.27 7.205 2.272 21.813 13.948 27.467z" fill="#d4ba0e"/><rect fill="#d4ba0e" height="5.35358" rx="2.67679" transform="matrix(.98480775 .17364818 -.17364818 .98480775 20.675387 -65.377357)" width="61.5662" x="383.971" y="85.4717"/><rect fill="#d4ba0e" height="5.35358" rx="2.67679" transform="matrix(.98480775 .17364818 -.17364818 .98480775 22.778603 -64.813824)" width="87.4418" x="381.802" y="97.7734"/><rect fill="#d4ba0e" height="5.35358" rx="2.67679" transform="matrix(.98480775 .17364818 -.17364818 .98480775 24.881975 -64.250277)" width="87.4418" x="379.633" y="110.076"/><rect fill="#d4ba0e" height="5.35358" rx="2.67679" transform="matrix(.98480775 .17364818 -.17364818 .98480775 11.400476 -67.86264)" width="80.3037" x="393.537" y="31.2227"/><rect fill="#d4ba0e" height="5.35358" rx="2.67679" transform="matrix(.98480775 .17364818 -.17364818 .98480775 13.503692 -67.299107)" width="35.6905" x="391.368" y="43.5244"/><rect fill="#d4ba0e" height="5.35358" rx="2.67679" transform="matrix(.98480775 .17364818 -.17364818 .98480775 15.607012 -66.735564)" width="17.8453" x="389.199" y="55.8267"/><path d="m453.854 74.9126 153.977-2.6877 3.456 197.9701s-47.993.837-92.486 1.614c-44.494.777-61.988-27.422-62.407-51.419-.419-23.996-2.54-145.4774-2.54-145.4774z" fill="#bda60d" fill-opacity=".25"/><path d="m463.386 65.6885 153.977-2.6877 3.455 197.9702s-47.992.837-92.486 1.614c-44.493.777-61.988-27.422-62.406-51.419-.419-23.996-2.54-145.4775-2.54-145.4775z" fill="#fbdd11"/><path d="m515.319 261.925c-30.137-3.78-44.758-22.813-48.445-41.774 5.961 14.398 17.45 13.697 26.449 13.54.148 8.499 7.426 24.374 21.996 28.234z" fill="#dbc10f"/><rect fill="#d9bf0f" height="6" rx="3" transform="matrix(.9998477 -.01745241 .01745241 .9998477 -2.598408 8.625936)" width="69" x="492.918" y="153.187"/><rect fill="#d9bf0f" height="6" rx="3" transform="matrix(.9998477 -.01745241 .01745241 .9998477 -2.84267 8.632327)" width="50" x="493.162" y="167.185"/><rect fill="#d9bf0f" height="6" rx="3" transform="matrix(.9998477 -.01745241 .01745241 .9998477 -3.086914 8.638717)" width="98" x="493.406" y="181.182"/><rect fill="#d9bf0f" height="6" rx="3" transform="matrix(.9998477 -.01745241 .01745241 .9998477 -3.331175 8.645125)" width="40" x="493.651" y="195.18"/><rect fill="#d9bf0f" height="6" rx="3" transform="matrix(.9998477 -.01745241 .01745241 .9998477 -3.575437 8.651515)" width="30" x="493.895" y="209.178"/><rect fill="#d9bf0f" height="6" rx="3" transform="matrix(.9998477 -.01745241 .01745241 .9998477 -1.481778 8.596696)" width="54" x="491.801" y="89.1958"/><rect fill="#d9bf0f" height="6" rx="3" transform="matrix(.9998477 -.01745241 .01745241 .9998477 -1.726043 8.603086)" width="76" x="492.045" y="103.194"/><rect fill="#d9bf0f" height="6" rx="3" transform="matrix(.9998477 -.01745241 .01745241 .9998477 -1.970287 8.609494)" width="64" x="492.29" y="117.191"/><rect fill="#d9bf0f" height="6" rx="3" transform="matrix(.9998477 -.01745241 .01745241 .9998477 -2.214548 8.615884)" width="86" x="492.534" y="131.189"/><path d="m161.434 301-24.562-11.134-4.21-3.004-6.316-17.497-5.088-7.776.877-4.418-1.403-5.832 4.561-17.85h7.369l13.333-17.143 9.123-2.827 5.789 5.832 7.895-3.005 5.614 5.656 9.649-1.591 7.193 6.009 7.719 18.203-5.438 7.423 10.526-.707v5.832l-2.982 4.418-5.263 19.087-7.018 12.548-7.017-2.297-5.965 7.069z" fill="#bda60d" fill-opacity=".25"/><path d="m168.1 298.482-24.561-11.134-4.211-3.005-6.315-17.496-5.088-7.776.877-4.419-1.403-5.832 4.561-17.849h7.368l13.334-17.143 9.123-2.828 5.789 5.832 7.895-3.004 5.614 5.655 9.649-1.591 7.193 6.009 7.719 18.204-5.438 7.422 10.526-.707v5.832l-2.983 4.419-5.263 19.087-7.017 12.547-7.018-2.297-5.965 7.069z" fill="#fbdd11"/><path clip-rule="evenodd" d="m164.942 233.092 3.158-6.716 4.562-2.651-5.198-7.004-5.679-5.721-9.123 2.828-8.024 10.316z" fill="#c9b10e" fill-rule="evenodd"/><path d="m193.363 237.51-9.473 9.366-14.211-5.655 12.105-7.776z" fill="#b59f0c"/><path clip-rule="evenodd" d="m165.05 297.099 3.05 1.383 14.386-3.005.3-.355-1.002-10.955 18.348-1.8 1.636-2.925 1.42-24.789 7.544-1.647v-4.186l-10.526.707 2.444-3.336-13.673 1.216-7.193-7.246h-11.228l-14.386-8.66-9.122 7.599z" fill="#dbc10f" fill-rule="evenodd"/><path d="m210.732 251.472v3.181l-2.983 4.418-5.263 19.087-1.228 2.196 1.228-25.701z" fill="#b59f0c"/><path clip-rule="evenodd" d="m161.607 295.538 6.493 2.944.038-.008-18.634-57.783 16.14-15.905-18.143-4.323-6.965 8.955z" fill="#ffea5a" fill-rule="evenodd"/><path clip-rule="evenodd" d="m194.19 220.781 3.735 3.12 7.719 18.204-4.807 6.561-.807.685-2.105 13.961-3.509 7.246 3.509 3.005v5.832l-20.351 2.474-1.053 2.651-8.245 4.595-6.667-26.863-4.561-15.729h12.807l-3.158 12.548 6.14 10.074 1.93-5.833 7.193-13.078 2.807-.883.702-8.13 3.684-5.302-2.632-9.72z" fill="#ffe534" fill-rule="evenodd"/><path d="m128.802 254.653-1.403-5.832 15.614 10.604.526 27.923-4.211-3.004-6.315-17.497-5.088-7.776z" fill="#dbc10f"/><path d="m432.921 170.478 23.73 10.757 4.068 2.903 6.102 16.905 4.916 7.513-.848 4.268 1.356 5.635-4.407 17.246h-7.119l-12.882 16.563-8.814 2.732-5.594-5.635-7.627 2.903-5.425-5.464-9.322 1.537-6.95-5.806-7.458-17.587 5.255-7.172-10.171.683v-5.635l2.882-4.268 5.085-18.441 6.78-12.124 6.78 2.22 5.763-6.83z" fill="#bda60d" fill-opacity=".25"/><path d="m435.921 176.478 23.73 10.757 4.068 2.903 6.102 16.905 4.916 7.513-.848 4.268 1.356 5.635-4.407 17.246h-7.119l-12.882 16.563-8.814 2.732-5.594-5.635-7.627 2.903-5.425-5.464-9.322 1.537-6.95-5.806-7.458-17.587 5.255-7.172-10.171.683v-5.635l2.882-4.268 5.085-18.441 6.78-12.124 6.78 2.22 5.763-6.83z" fill="#fbdd11"/><path clip-rule="evenodd" d="m438.972 239.655-3.051 6.489-4.407 2.561 5.023 6.769 5.486 5.526 8.814-2.732 7.752-9.967z" fill="#c9b10e" fill-rule="evenodd"/><path d="m411.512 235.387 9.154-9.05 13.729 5.464-11.695 7.513z" fill="#b59f0c"/><path clip-rule="evenodd" d="m438.868 177.814-2.947-1.336-13.9 2.903-.289.343.968 10.585-17.727 1.738-1.581 2.827-1.372 23.95-7.289 1.591v4.044l10.171-.683-2.362 3.223 13.21-1.174 6.95 7.001h10.848l13.899 8.366 8.814-7.342z" fill="#dbc10f" fill-rule="evenodd"/><path d="m394.732 221.898v-3.074l2.881-4.268 5.085-18.441 1.187-2.122-1.187 24.831z" fill="#b59f0c"/><path clip-rule="evenodd" d="m442.195 179.322-6.274-2.844-.036.008 18.003 55.827-15.594 15.367 17.53 4.176 6.728-8.651z" fill="#ffea5a" fill-rule="evenodd"/><path clip-rule="evenodd" d="m410.713 251.549-3.608-3.014-7.458-17.587 4.645-6.341.779-.661 2.034-13.489 3.39-7.001-3.39-2.903v-5.635l19.663-2.39 1.017-2.561 7.966-4.44 6.441 25.954 4.407 15.197h-12.373l3.051-12.123-5.933-9.733-1.864 5.635-6.95 12.635-2.712.854-.678 7.855-3.56 5.122 2.543 9.392z" fill="#ffe534" fill-rule="evenodd"/><path d="m473.889 218.824 1.356 5.634-15.085-10.245-.509-26.978 4.068 2.902 6.102 16.905 4.916 7.513z" fill="#dbc10f"/><path d="m227.71 110.866h189.589v243.758s-59.092 0-113.876 0-75.713-35.087-75.713-64.633 0-179.125 0-179.125z" fill="#bda60d" fill-opacity=".25"/><path d="m237.121 102.452h189.589v243.757s-59.093 0-113.876 0c-54.784 0-75.713-35.086-75.713-64.633 0-29.546 0-179.124 0-179.124z" fill="#ffe21a"/><path d="m296.829 345.117c-37.015-5.3-54.602-29.043-58.734-52.461 7.028 17.851 21.186 17.235 32.266 17.235 0 10.465 8.617 30.163 26.468 35.226z" fill="#dec30f"/><rect fill="#dec30f" height="6.55721" rx="3.2786" width="38.2504" x="271.592" y="210.788"/><rect fill="#dec30f" height="6.55721" rx="3.2786" width="90.708" x="271.592" y="226.088"/><rect fill="#dec30f" height="6.55721" rx="3.2786" width="107.101" x="271.592" y="241.388"/><rect fill="#dec30f" height="6.55721" rx="3.2786" width="107.101" x="271.592" y="256.688"/><rect fill="#dec30f" height="6.55721" rx="3.2786" width="107.101" x="271.592" y="271.989"/><rect fill="#dec30f" height="6.55721" rx="3.2786" width="107.101" x="271.592" y="131.998"/><rect fill="#dec30f" height="6.55721" rx="3.2786" width="83.0579" x="271.592" y="147.298"/><rect fill="#dec30f" height="6.55721" rx="3.2786" width="90.708" x="271.592" y="162.598"/><rect fill="#dec30f" height="6.55721" rx="3.2786" width="107.101" x="271.592" y="177.898"/></g></svg>