<svg width="32" height="32" viewBox="0 0 32 32" fill="none" xmlns="http://www.w3.org/2000/svg">
<g clip-path="url(#clip0_1502_5491)">
<path d="M32 16C32 7.16344 24.8366 0 16 0C7.16344 0 0 7.16344 0 16C0 24.8366 7.16344 32 16 32C24.8366 32 32 24.8366 32 16Z" fill="#0018A6"/>
<path d="M30 16C30 8.26801 23.732 2 16 2C8.26801 2 2 8.26801 2 16C2 23.732 8.26801 30 16 30C23.732 30 30 23.732 30 16Z" fill="#F5F8FF"/>
<path d="M20.1663 20.9094C14.1789 21.6632 11.4219 16.3917 11.9109 15.8774C12.2338 15.5378 12.7358 15.5175 13.1709 15.5058C15.1728 15.4515 18.0063 17.7888 18.581 17.7773C19.694 17.7545 21.3684 15.9856 22.4656 14.5274C22.9248 13.9175 25.7935 12.9983 25.4754 14.6009C24.444 19.7984 20.9292 20.8134 20.1663 20.9094ZM11.8337 11.0736C17.8211 10.3199 20.5781 15.5913 20.0889 16.1056C19.766 16.4452 19.2642 16.4656 18.8291 16.4773C16.8272 16.5315 13.9937 14.194 13.419 14.2058C12.306 14.2285 10.6316 15.9974 9.53422 17.4556C9.07522 18.0656 6.20646 18.9848 6.52456 17.3824C7.55604 12.1847 11.0708 11.1697 11.8337 11.0736Z" fill="#0018A6"/>
</g>
<defs>
<clipPath id="clip0_1502_5491">
<rect width="32" height="32" fill="white"/>
</clipPath>
</defs>
</svg>
