<svg fill="none" height="700" viewBox="0 0 3000 700" width="3000" xmlns="http://www.w3.org/2000/svg" xmlns:xlink="http://www.w3.org/1999/xlink"><clipPath id="a"><path d="m0 0h3000v700h-3000z"/></clipPath><g clip-path="url(#a)"><path d="m0 0h3000v700h-3000z" fill="#42a641"/><path d="m808.83 208.78c-.48 8.67-.9 25.83-1.28 49l-1.55 180.88-.17 43.9.9 217.43h16l-.87-224.08v-37.58l-.6-197.42-.6-33.64 5.9 1.63c26.7 6.75 54.18 5.9 65.08 6.32-4.13-14.65-38.84-28.24-47-30.47 16.58-13.15 41.6-38.92 47-56.06-31.6-1.9-55.8 18.56-70.08 37.6 4.54-20 5.86-45-6-59-2.4 3.83-5.62 12.3-8.4 22.66-2.399 8.907-4.101 17.988-5.09 27.16-7-9.34-15.9-18.45-26.6-25.15-11.156-7.179-24.196-10.875-37.46-10.62 1.653 6.518 4.24 12.763 7.68 18.54 4.186 7.229 9.005 14.073 14.4 20.45-13.8-3.3-27.4-3.9-37.18 1.26 5.83 5.67 28.75 18 51.4 25.2-20.8 1.7-43.07 7.3-52.64 20.4 7.15 2.35 30 3.38 52 .75-16 7.73-31.5 19.17-35.63 33.82 11.96-.5 53.85-14.2 70.8-32.97zm1084.17-201.04003c-22.1.82-37.48 14.00003-32.78 23.47003 3.08 6.2 43.9.76 50-10.08l-36.39 678.87h7.07l40.72-677.6c1.74 16.66 51.55 16.18 55.87 12.47 17.85-15.35-29.3-26.42003-40.63-27.84003 3.1-.1 29.83.54 40.6-6.9999993h-122.9c6.22 7.1199993 24.84 7.7999993 38.43 7.7199993zm-1893 362.26003v330h133.2c17.07-24.84 33.34-50.26 48.6-76.23 7.487-12.733 14.72-25.607 21.7-38.62 31.37-58.48 57.22-119.45 75.17-182.3l1.26-4.46 1.4-5.08c3.7.1 7.5.12 11.4 0 36-.94 80.4-10.9 121.92-26.84 40.65-15.6 78.55-37 103.08-61.14 15.3-15.1 32.63-80 49.23-167.77 7.87-41.66 15.59-88.46 22.84-137.5600293h-53.24c-9.1 47.7600293-19.12 92.3700293-30.18 130.4000293-12.8 44-27 79.25-42.73 100.33-11.2 15-35.38 27.92-62 37.18-29.6 10.3-62.2 16-83.12 15-6.18-.3-11.34-1.22-15.12-2.77 7.82-33.6 18.5-92.83 28.35-153.8l18.79-126.3400293h-190.8c-10.75 59.5000293-22.68 114.7600293-35.8 160.9400293-13.8 48.5-28.87 87-45.15 109.74-18.64 26.05-45.95 60.49-78.8 99.32zm2411.35-215.74c7.78 9.88 29.4 9.55 49.78 8.14-41.46 6-50.57 33.76-44.94 41.5 6.25 8.6 17.34 10.78 26.86 5s25.3-24.83 38.72-34.35c-13.1 10.3-49.5 64-24.82 72 22 7.1 44.83-58.58 53.1-75.76v529.21h9.8v-522.67c4.26 25.34 17.4 82.24 46.56 66.36 33.82-18.4-11.43-52.55-19.6-61.75 23.18 9.58 37 37.28 57 13.24 23.1-27.77-47.4-37.65-64.88-38.74 5.34-.53 57.06-2.46 66.26-20.17 1.8-3.5 2-7.62-.22-12.46-12.57-27.8-60.56 1.8-77.55 16-1 .8-1.8 1.55-2.54 2.23.6-.63 1.2-1.36 1.84-2.17 13.58-17.13 38.43-71.57 11.6-79.17-28.1-8-32.63 46.2-33.57 65.1.94-27.16-22.48-71.66-43.1-57.45-20 13.78 18.2 61.2 28.9 75l.9 1.18-1.82-1.07c-25.3-14.5-77.72-27.5-81.08-1.58-.72 5.3.36 9.33 2.77 12.38zm-1423.35 545.74h71.24c4-6.72 6-13.32 4.1-15.94-3.55-4.77-23 .05-33.46 9.05-.05-4.467-.09-8.9-.1-13.3 15.58 9.8 38.77-25.48 33.8-32.47-3.48-4.8-23.13.1-33.76 9.16 0-4.533.04-9.033.13-13.5 15.4 10.15 39.4-25.34 34.52-32.35-3.4-4.82-23.4.16-34.13 9.34.1-4.667.21-9.283.33-13.85 15.2 10.68 40.12-25.13 35.35-32.16-3.36-4.87-23.82.26-34.63 9.6.17-4.88.35-9.68.55-14.4 15 11.52 41-24.77 36.28-31.85-3.32-4.93-24.43.4-35.3 10 .27-5.2.53-10.267.8-15.2 14.62 12.77 42-24.24 37.36-31.4-3.3-5-25.35.64-36.16 10.62.35-5.72.7-11.21 1.06-16.47 14.16 14.64 43.17-23.42 38.62-30.67-3.3-5.17-26.7 1-37.3 11.5l1.34-18.5c13.43 17.6 44.68-22.06 40.15-29.47-3.37-5.4-29 1.6-39 13 .93-13.55 1.23-20.95.34-20.9-.67 0-2.4 7.08-4.64 20-8.06-10.24-30.77-15.26-35.4-9.78-6.5 7.6 15.25 44.22 32.48 28.32l-2.25 16.58c-9.08-9.33-30-13.68-34.37-8.44-6.2 7.44 15.07 42.7 31.86 29.37-.53 4.767-1.06 9.723-1.58 14.87-8.4-7.74-24.83-11.76-31.54-9.2-.854.296-1.615.81-2.21 1.49-2.06 2.52-.9 8.24 2.16 14.2 5.86 11.34 18.7 23.5 29.5 15.78-.4 4.5-.78 9.113-1.15 13.84-7.65-6.54-20.9-10.26-28.42-9.35-2.25.27-4 1-4.9 2.12-2.47 3.1 0 11 4.82 18.2 6.55 9.75 17.52 18.3 26.82 12.18-.28 4.3-.55 8.673-.8 13.12-7.14-5.77-18.56-9.25-26.1-9.12-3.24 0-5.76.76-6.9 2.25-2.66 3.43.76 12.7 6.8 20.48 6.7 8.6 16.6 15.36 25 10.2-.18 4.133-.35 8.327-.5 12.58-6.83-5.27-17.18-8.57-24.55-8.84-3.9-.15-7 .55-8.22 2.25-2.73 3.6 1.35 13.62 8.08 21.6s16.07 13.88 23.94 9.3c-.1 4-.18 8.067-.25 12.2-7.02-4.926-15.23-7.895-23.78-8.6-4.2-.26-7.54.42-8.84 2.2-2.7 3.63 1.67 13.83 8.66 21.84 6.78 7.8 16 13.52 23.7 9.18v12c-7.07-4.851-15.28-7.78-23.82-8.5-4.2-.24-7.47.44-8.74 2.22-1.74 2.5-.27 7.9 3.02 13.6zm553.28-502.94c-1.27 22.77-2.24 74.36-2.9 136.7l-.84 119.08v6.46l-.24 124-.14 116.72h19.73l.98-263.05-.06-106.17-1.43-135.6c22.1 23.18 73.62 40 88.43 40.54-5.22-18.54-24.77-33-45-42.8 27 6.25 54.36 8.33 63.17 5.45-9.2-28.22-36.2-39.07-62.5-41.88 21-16.65 38.9-39.12 45.8-60.8-40-2.4-70.66 23.48-88.74 47.6 5.75-25.26 7.4-57-7.55-74.75-5.44 8.73-14.36 36.47-17.07 63.08-17.7-23.65-45.08-46.15-81.1-45.3 3.24 14.48 13.9 32.63 28 49.37-17.5-4.2-34.7-4.93-47.1 1.6 7.38 7.18 36.4 22.78 65.08 31.9-26.34 2.17-54.54 9.24-66.65 25.83 9.06 3 38 4.27 65.8 1-20.3 9.78-39.87 24.26-45.1 42.82 14.93-.67 67.96-18 89.4-41.8zm663.2 502.94h75.52c.36-8.88.76-18.307 1.2-28.28l1.86-42.7 18.88-362.42 4.47-72.6c.48-7.64.97-15.29 1.46-22.95 1.2-18.56 2.43-37.133 3.7-55.72l8.27-115.3000293h-43.43l-18.68 178.0000293c-1.52 14.667-3.04 29.273-4.57 43.82l-7.9 75.8c-.85 8.233-1.69 16.423-2.54 24.57l-30.22 295.4-4.37 44.32c-.24 2.38-.47 4.73-.7 7.05-1.04 10.713-2.01 20.807-2.92 30.28.02.25 0 .5-.02.74zm-255.24-3-.13 3h73.48l5.16-140.46c.2-4.973.39-9.973.58-15 .67-17.047 1.37-34.36 2.1-51.94l8.23-184.34c.82-16.88 1.66-33.727 2.52-50.54 0-1 .1-2.07.16-3.1l3.88-72.48 4.67-79.6 6.89-102.5400293h-44.3l-14.88 147.8500293c-.98 9.7-1.95 19.347-2.9 28.94-.67 6.733-1.33 13.433-2 20.1l-6.9 68.33c-1.33 13.533-2.67 26.867-4 40l-16.7 164.36c-11.5-5.22-20.26-8.74-26.35-13.42-7.13 3.45-9.16 9.17-9.4 18 6.6 15.55 31.6 36.24 31.15 40.85v.2c-2.5 24.76-4.78 57.45-6.85 93.48l-.37 6.45c-.47 8.267-.92 16.677-1.35 25.23-.3 5.78-.59 11.603-.87 17.47-.11 2.18-.21 4.363-.32 6.55l-1.5 32.62zm1050.76-697.0000293h-330.56c26.75 31.6000293 49.1 50.5000293 59.35 55.5000293.3 7.1 2.93 38.67 7.06 85.17l14.82 162 14.57 153.3c.67 7.067 1.35 14.117 2.05 21.15.71 7.253 1.41 14.48 2.1 21.68l17.8 176.5c.89 8.52 1.76 16.743 2.62 24.67h210.19zm-1395.18 700.0000293h103.32c11.94-106 47.53-324.28 89-552.62l24.82-134.06 2.52-13.3500293h-99.48l-20.76 133.2600293-75.72 450.68-23.7 116.1zm-476.62-530.4-2.3 530.4h222.6c-.6-48.6 1.3-100.82 4.52-152 9.58-152.33 31-295.66 33.7-307.56-5.1-6.37-23.7-24.7-32-31-5.74 13.38-24.28 53.83-44.37 71.56-.92-5.23-3.34-62.66-6.4-144.76l-4.95-136.1800293h-171.15l.35 169.5300293z" fill="#43a140" opacity=".5"/><path d="m2059 506.4c-6.4-5.87-15.08-8.06-24.26-7.57-3.5-66-44.85-102.33-98.94-119.88 51.56 16.76 58.73 4.88 59.45 3.38 9.1-19.07-51-48.05-47.2-37.16 3.16 9 26.88 14.75 20.86 19.85-5 4.22-25.65-6.1-71.12-2.92-72.57 5.1-131.77 70.56-137.14 137-9.4-.45-18.28 1.85-24.7 8-15.56 14.8-8.67 44.2 2.35 60.78 8.38 12.6 22.3 22.6 36.2 27.2 6.4 16.9 33.06 39.25 67.26 52.48-8.4 12.2-12.78 25.38-12.74 38.26v.9c-.35.772-.63 1.572-.84 2.39-.49 2.039-.6 4.153-.3 6.23.33 2.385 1.06 4.698 2.16 6.84 1.43 3.138 4.01 5.608 7.21 6.9 2.09.78 4.38.859 6.53.226 2.14-.633 4.02-1.944 5.35-3.737 1.34-1.792 2.05-3.969 2.04-6.203s-.74-4.405-2.09-6.186c.52-1.546.66-3.192.42-4.804-.25-1.611-.87-3.142-1.82-4.466-.26-.346-.53-.68-.82-1 .7-10.1 5.16-18.87 9.36-25-3.34 11.87-4.32 19.5-4.32 27.13 0 11.64 5.78 23.32 15 31.66-.97 4.807-1.61 9.675-1.9 14.57-3.23.31-6.43.913-9.55 1.8-1.23.34-2.37.921-3.37 1.708s-1.84 1.764-2.45 2.876c-.62 1.112-1.02 2.335-1.16 3.6-.14 1.264-.03 2.544.33 3.766.35 1.222.95 2.36 1.75 3.35s1.78 1.811 2.9 2.415c1.12.605 2.35.981 3.62 1.107 1.26.127 2.54 0 3.76-.372 7.67-2.23 17.08-1.34 21 0 .97.319 1.98.485 3 .49 1.88-.001 3.72-.555 5.29-1.592 1.57-1.038 2.8-2.513 3.54-4.244.74-1.73.95-3.639.62-5.49-.34-1.852-1.21-3.564-2.51-4.924 0-.35.07-.7.1-1.06.08-2.2.25-4.26.48-6.23 1.66.186 3.33.269 5 .25 1.82-.012 3.64-.135 5.44-.37.32 2.273.55 4.558.68 6.85v.6c-1.47 1.555-2.37 3.556-2.58 5.684-.2 2.128.32 4.263 1.46 6.067 1.15 1.804 2.87 3.174 4.88 3.892 2.01.719 4.21.746 6.24.077 3.94-1.3 13.36-2.2 21 0 .87.262 1.78.393 2.69.39 2.32.001 4.55-.834 6.3-2.35 1.75-1.517 2.89-3.615 3.22-5.907.32-2.291-.19-4.624-1.44-6.568-1.26-1.945-3.18-3.37-5.4-4.015-3.14-.896-6.36-1.501-9.62-1.81-.39-4.966-1.13-9.898-2.21-14.76 1.22-1.103 2.38-2.272 3.48-3.5 1.73.481 3.49.855 5.27 1.12 1.39.213 2.8.323 4.21.33 4.3 0 7.75-1.14 10.32-3.4.5-.433.96-.908 1.37-1.42.47.069.95.102 1.43.1 1.29-.001 2.56-.242 3.76-.71 5.82-2.28 8.55-8.92 9.13-13.9.27-2.08.13-4.193-.41-6.22-.31-1.372-.83-2.688-1.54-3.9 0-.26.08-.52.1-.8.55-6.425-.24-12.894-2.31-19 2.13-2.594 4.59-4.909 7.3-6.89 7.54-5.5 13.9-5.9 17.9-5.28 3.86.652 7.48 2.284 10.52 4.74 3.17 2.425 5.41 5.868 6.35 9.75.67 3.353.5 6.818-.49 10.09-.75 2.36-2.3 5.4-5.42 6.53-5.4 1.94-11.54-3.23-11.6-3.28-.36-.303-.77-.534-1.21-.678-.45-.144-.92-.199-1.38-.162-.47.038-.92.166-1.34.379s-.79.505-1.09.861-.53.768-.68 1.213c-.14.445-.2.914-.16 1.38s.17.92.38 1.337c.21.416.5.787.86 1.09.78.66 6.6 5.42 13.65 5.42 1.7.009 3.4-.282 5-.86 4.58-1.64 8.06-5.58 9.8-11.08 1.37-4.455 1.6-9.183.67-13.75-1.26-5.48-4.39-10.353-8.84-13.79-4.02-3.24-8.81-5.383-13.9-6.22-4.11-.604-8.3-.262-12.25 1-3.92 1.24-7.61 3.122-10.92 5.57-2.15 1.575-4.15 3.332-6 5.25-1.65-3.526-3.56-6.922-5.72-10.16 31.56-12.38 57.22-33.17 65.4-51.83 14.6-4.45 29.52-15.13 38.15-28.63 10.67-16.78 17.04-46.3 1.23-60.8zm-121.13 200.6c-.53-.086-1.06-.179-1.59-.28 4.21-6.483 6.51-14.028 6.61-21.76.03-8.812-.9-17.6-2.78-26.21 5.33 8.43 8 16.9 7.28 23.68-.02.383-.02.767 0 1.15l-.28.38c-.93 1.34-1.52 2.881-1.74 4.496-.21 1.615-.04 3.258.5 4.794-1.03 1.403-1.68 3.043-1.9 4.767s-.01 3.476.63 5.093c.4 1.037.97 2.001 1.69 2.85-1.8 1.23-4.62 1.58-8.42 1.04z" fill="#43a140"/><path d="m241 467c-7.68-7.05-18.1-9.67-29.1-9.1-4.2-79.23-53.9-122.83-118.8-143.9 61.9 20.13 70.5 5.86 71.37 4.06 10.94-22.9-61.24-57.7-56.66-44.62 3.8 10.86 32.27 17.72 25 23.84-6 5.06-30.8-7.34-85.4-3.5-87.1 6.12-158.18 84.7-164.62 164.46-11.3-.54-22 2.23-29.68 9.57-18.68 17.76-10.4 53 2.83 73 10.06 15.13 26.8 27.12 43.44 32.65 7.7 20.3 39.7 47.12 80.76 63-10.07 14.66-15.36 30.48-15.3 45.94.0001.361.0201.721.06 1.08-.4178.922-.7524 1.879-1 2.86-.595 2.451-.7172 4.993-.36 7.49.4118 2.85 1.2973 5.612 2.62 8.17 2.13 4.15 5 6.94 8.66 8.28 1.3817.518 2.8445.785 4.32.79 2.5314.001 5.0028-.771 7.0831-2.213 2.0804-1.442 3.6703-3.486 4.55691-5.857.72342-1.959.93956-4.069.62835-6.134-.31122-2.065-1.13969-4.017-2.40836-5.676.6212-1.855.792-3.83.4981-5.764s-1.0439-3.77-2.1881-5.356c-.3029-.424-.6372-.825-1-1.2.84-12.12 6.20001-22.66 11.25001-30.08-4 14.25-5.19999 23.4-5.19999 32.57 0 14 6.999996 28 17.99998 38-1.15865 5.774-1.9138 11.621-2.25998 17.5-3.87753.36-7.713693 1.077-11.46001 2.14-1.45475.423-2.81189 1.128-3.99385 2.076s-2.16556 2.119-2.89456 3.447c-.7291 1.328-1.1892 2.787-1.3542 4.293s-.0316 3.03.3926 4.484c.8565 2.937 2.8438 5.413 5.52522 6.885 2.68141 1.472 5.837539 1.819 8.77479.965 9.19999-2.7 20.49999-1.6 25.24999 0 2.4472.822 5.0993.799 7.5322-.064s4.5062-2.517 5.8883-4.697 1.9933-4.761 1.7358-7.33c-.2575-2.568-1.3688-4.976-3.1563-6.839.05-.4.1-.84.1-1.26.1-2.64.3-5.12.6-7.48 1.9758.216 3.9625.316 5.95.3 2.1836-.023 4.3639-.173 6.53-.45.37 2.57.65 5.3.82 8.22 0 .24.02.48.06.72-1.7704 1.865-2.8668 4.267-3.115 6.826-.2482 2.56.3662 5.128 1.7454 7.298s3.4441 3.817 5.8665 4.678c2.4224.862 5.0634.889 7.5031.078 4.74-1.57 16-2.65 25.25 0 1.0498.304 2.1371.459 3.23.46 2.7685-.019 5.438-1.033 7.521-2.856 2.084-1.823 3.442-4.335 3.828-7.076.385-2.742-.228-5.531-1.727-7.858-1.5-2.328-3.786-4.038-6.442-4.82-3.7747-1.081-7.6411-1.81-11.55-2.18-.4633-5.962-1.3489-11.883-2.65-17.72 1.4618-1.327 2.8537-2.729 4.17-4.2 2.0855.57 4.2024 1.017 6.34 1.34 1.6552.25 3.3262.38 5 .39 5.15 0 9.3-1.36 12.4-4.06.592-.521 1.141-1.09 1.64-1.7.567.075 1.138.115 1.71.12 1.547-.001 3.08-.293 4.52-.86 7-2.74 10.27-10.7 11-16.7.317-2.502.15-5.041-.49-7.48-.431-1.616-1.106-3.157-2-4.57.06-.3.1-.63.14-.95.649-7.704-.297-15.458-2.78-22.78 2.563-3.115 5.506-5.897 8.76-8.28 9.06-6.58 16.68-7.08 21.5-6.33 4.625.786 8.973 2.741 12.63 5.68 3.808 2.927 6.497 7.071 7.62 11.74.797 4.025.591 8.184-.6 12.11-.9 2.84-2.75 6.5-6.5 7.85-6.47 2.32-13.85-3.88-13.93-3.95-.863-.735-1.983-1.096-3.113-1.005s-2.177.627-2.912 1.49-1.096 1.983-1.005 3.113.627 2.177 1.49 2.912c.93.8 7.94 6.5 16.38 6.5 2.043.018 4.073-.32 6-1 5.5-2 9.66-6.7 11.76-13.3 1.641-5.35 1.916-11.026.8-16.51-1.518-6.58-5.267-12.431-10.61-16.56-4.825-3.89-10.575-6.463-16.69-7.47-4.929-.727-9.959-.323-14.71 1.18-4.706 1.491-9.133 3.752-13.1 6.69-2.588 1.886-5.008 3.994-7.23 6.3-1.982-4.229-4.279-8.304-6.87-12.19 37.9-14.86 68.7-39.83 78.5-62.23 17.52-5.34 35.44-18.16 45.8-34.37 12.87-20.15 20.52-55.58 1.52-73.02zm-145.4 240.82c-.62-.1-1.26-.2-1.92-.34 5.0712-7.778 7.828-16.836 7.95-26.12.03-10.577-1.089-21.125-3.34-31.46 6.4 10.1 9.56 20.3 8.73 28.42-.03.463-.03.927 0 1.39-.12.147-.23.297-.33.45-1.116 1.608-1.834 3.459-2.095 5.399-.26 1.941-.057 3.915.595 5.761-1.637 2.231-2.477 4.948-2.385 7.713.093 2.766 1.112 5.42 2.895 7.537-2.17 1.5-5.54 1.9-10.1 1.25z" fill="#469e41"/><path d="m903 506.4c-6.4-5.87-15.08-8.06-24.25-7.57-3.5-66-44.86-102.33-99-119.88 51.56 16.76 58.74 4.88 59.45 3.38 9.12-19.07-51-48.05-47.2-37.16 3.17 9 26.88 14.75 20.86 19.85-5 4.22-25.65-6.1-71.12-2.92-72.57 5.1-131.77 70.56-137.13 137-9.4-.45-18.3 1.85-24.72 8-15.56 14.8-8.67 44.2 2.35 60.78 8.38 12.6 22.32 22.6 36.2 27.2 6.4 16.9 33.06 39.25 67.27 52.48-8.4 12.2-12.8 25.38-12.75 38.26v.9c-.347.771-.624 1.57-.83 2.39-.504 2.037-.606 4.154-.3 6.23.323 2.386 1.05 4.699 2.15 6.84 1.433 3.141 4.018 5.611 7.22 6.9 2.093.776 4.381.853 6.521.218 2.141-.634 4.017-1.946 5.349-3.737 1.332-1.792 2.047-3.967 2.038-6.199s-.742-4.401-2.088-6.182c.517-1.546.66-3.192.417-4.804-.243-1.611-.866-3.142-1.817-4.466-.257-.346-.531-.68-.82-1 .7-10.1 5.16-18.87 9.37-25-3.35 11.87-4.33 19.5-4.33 27.13 0 11.64 5.78 23.32 15 31.66-.948 4.778-1.559 9.617-1.83 14.48-3.231.31-6.428.913-9.55 1.8-1.226.34-2.372.921-3.372 1.708s-1.834 1.765-2.453 2.876c-.619 1.112-1.011 2.335-1.154 3.6-.142 1.264-.032 2.544.324 3.766s.952 2.36 1.751 3.35c.8.99 1.788 1.811 2.908 2.415 1.12.605 2.348.981 3.614 1.107 1.266.127 2.545 0 3.762-.372 7.67-2.23 17.08-1.34 21 0 2.039.696 4.253.685 6.286-.03 2.032-.715 3.765-2.093 4.919-3.912 1.155-1.82 1.664-3.974 1.445-6.118s-1.152-4.151-2.65-5.7c.05-.35.07-.7.1-1.06.1-2.2.25-4.26.5-6.23 1.643.184 3.296.268 4.95.25 1.819-.011 3.636-.135 5.44-.37.328 2.272.558 4.558.69 6.85v.6c-1.467 1.556-2.373 3.556-2.575 5.684s.311 4.263 1.458 6.067c1.148 1.804 2.864 3.174 4.877 3.893 2.014.718 4.21.745 6.24.076 4-1.3 13.36-2.2 21 0 .873.261 1.779.392 2.69.39 2.304-.013 4.527-.853 6.263-2.367s2.871-3.602 3.197-5.883-.178-4.603-1.421-6.543-3.141-3.369-5.349-4.027c-3.145-.894-6.365-1.5-9.62-1.81-.39-4.966-1.132-9.899-2.22-14.76 1.222-1.103 2.383-2.272 3.48-3.5 1.735.481 3.499.855 5.28 1.12 1.393.213 2.8.324 4.21.33 4.28 0 7.74-1.14 10.32-3.4.491-.435.946-.91 1.36-1.42.474.069.951.102 1.43.1 1.287-.001 2.562-.242 3.76-.71 5.82-2.28 8.56-8.92 9.13-13.9.267-2.08.127-4.193-.41-6.22-.339-1.353-.885-2.645-1.62-3.83.052-.261.089-.525.11-.79.553-6.425-.233-12.895-2.31-19 2.137-2.592 4.589-4.907 7.3-6.89 7.54-5.5 13.9-5.9 17.9-5.28 3.854.656 7.475 2.288 10.52 4.74 3.167 2.431 5.407 5.871 6.35 9.75.659 3.354.488 6.818-.5 10.09-.75 2.36-2.3 5.4-5.42 6.53-5.38 1.94-11.54-3.23-11.6-3.28-.356-.303-.768-.534-1.213-.678s-.914-.199-1.38-.162c-.466.038-.92.166-1.337.379-.416.213-.787.505-1.09.861s-.534.768-.678 1.213-.199.914-.162 1.38.166.92.379 1.337c.212.416.505.787.861 1.09.78.66 6.62 5.42 13.65 5.42 1.704.008 3.396-.283 5-.86 4.57-1.64 8.05-5.58 9.8-11.08 1.368-4.455 1.599-9.183.67-13.75-1.264-5.48-4.388-10.353-8.84-13.79-4.045-3.259-8.871-5.406-14-6.23-4.106-.604-8.296-.262-12.25 1-3.922 1.242-7.612 3.124-10.92 5.57-2.144 1.578-4.151 3.334-6 5.25-1.649-3.526-3.561-6.922-5.72-10.16 31.57-12.38 57.22-33.17 65.4-51.83 14.6-4.45 29.52-15.13 38.16-28.63 10.74-16.77 17.12-46.28 1.33-60.8zm-121.15 200.6c-.535-.081-1.069-.175-1.6-.28 4.214-6.469 6.509-14 6.62-21.72.022-8.811-.91-17.599-2.78-26.21 5.32 8.43 7.95 16.9 7.27 23.68-.025.383-.025.767 0 1.15l-.36.38c-.927 1.34-1.522 2.881-1.738 4.496-.215 1.615-.045 3.258.498 4.794-1.358 1.862-2.054 4.124-1.978 6.427s.92 4.515 2.398 6.283c-1.73 1.2-4.54 1.54-8.33 1z" fill="#43a140"/><path d="m638 448.9c-9.44-8.66-22.25-11.88-35.78-11.17-5.16-97.38-66.18-151-146-176.86 76.07 24.74 86.66 7.2 87.7 5 13.48-28.15-75.24-70.87-69.62-54.87 4.67 13.33 39.66 21.76 30.78 29.28-7.36 6.23-37.85-9-104.93-4.3-107 7.52-194.4 104.1-202.3 202.1-13.87-.67-27 2.73-36.46 11.75-23 21.82-12.8 65.2 3.47 89.66 12.36 18.6 32.92 33.33 53.4 40.13 9.46 24.93 48.78 57.9 99.24 77.42-12.38 18-18.87 37.45-18.8 56.45 0 .45 0 .9.07 1.33-.517 1.133-.929 2.311-1.23 3.52-.736 3.006-.889 6.126-.45 9.19.482 3.519 1.558 6.93 3.18 10.09 2.62 5.1 6.2 8.53 10.65 10.2 3.09 1.149 6.469 1.265 9.631.329 3.161-.935 5.933-2.871 7.9-5.517 1.967-2.645 3.023-5.858 3.008-9.154-.015-3.297-1.099-6.5-3.089-9.128.758-2.281.965-4.709.603-7.085-.361-2.376-1.281-4.633-2.683-6.585-.37-.514-.771-1.005-1.2-1.47 1-14.9 7.6-27.84 13.8-37-4.94 17.5-6.38 28.75-6.38 40 0 17.17 8.53 34.4 22.08 46.7-1.443 7.088-2.382 14.269-2.81 21.49-4.768.458-9.485 1.352-14.09 2.67-3.527 1.121-6.476 3.577-8.217 6.843s-2.136 7.083-1.101 10.637c1.035 3.553 3.419 6.561 6.641 8.381 3.223 1.82 7.029 2.307 10.607 1.359 11.32-3.3 25.2-2 31 0 3.004.992 6.253.951 9.231-.116 2.977-1.067 5.513-3.099 7.203-5.773s2.437-5.836 2.123-8.984-1.672-6.1-3.857-8.387c.061-.515.101-1.032.12-1.55.13-3.24.38-6.3.72-9.2 2.431.266 4.875.386 7.32.36 2.675-.022 5.347-.205 8-.55.46 3.17.8 6.53 1 10.1 0 .3 0 .6.07.88-2.168 2.295-3.508 5.247-3.807 8.39-.3 3.142.457 6.295 2.152 8.958 1.694 2.664 4.229 4.686 7.202 5.746 2.974 1.06 6.216 1.097 9.213.106 5.83-1.93 19.7-3.25 31 0 1.3.377 2.646.569 4 .57 3.414.005 6.715-1.222 9.297-3.456 2.583-2.234 4.272-5.324 4.758-8.704.487-3.379-.262-6.821-2.11-9.692-1.847-2.871-4.668-4.98-7.945-5.938-4.638-1.327-9.388-2.224-14.19-2.68-.574-7.325-1.667-14.6-3.27-21.77 1.8-1.635 3.515-3.361 5.14-5.17 2.558.708 5.156 1.262 7.78 1.66 2.056.302 4.131.46 6.21.47 6.32 0 11.43-1.67 15.22-5 .722-.642 1.39-1.341 2-2.09.696.095 1.397.146 2.1.15 1.903-.001 3.79-.361 5.56-1.06 8.57-3.36 12.6-13.15 13.47-20.5.384-3.074.177-6.193-.61-9.19-.534-1.988-1.367-3.883-2.47-5.62.072-.384.129-.771.17-1.16.803-9.469-.357-19.001-3.41-28 3.168-3.8 6.796-7.193 10.8-10.1 11.13-8.1 20.5-8.7 26.4-7.78 5.685.974 11.027 3.384 15.52 7 3.45 2.78 7.88 7.54 9.37 14.4.975 4.949.721 10.062-.74 14.89-1.1 3.48-3.4 8-8 9.63-8 2.86-17-4.76-17.12-4.84-1.061-.903-2.437-1.348-3.826-1.236-1.389.111-2.676.77-3.579 1.831s-1.348 2.437-1.236 3.826c.111 1.388.77 2.676 1.831 3.579 1.15 1 9.76 8 20.13 8 2.504.006 4.991-.421 7.35-1.26 6.74-2.43 11.88-8.23 14.45-16.35 2.016-6.571 2.359-13.542 1-20.28-1.87-8.087-6.481-15.277-13.05-20.35-5.924-4.782-12.988-7.945-20.5-9.18-6.055-.895-12.235-.399-18.07 1.45-5.788 1.828-11.233 4.606-16.11 8.22-3.18 2.317-6.151 4.906-8.88 7.74-2.433-5.207-5.258-10.221-8.45-15 46.57-18.26 84.42-48.95 96.5-76.47 21.52-6.56 43.54-22.32 56.3-42.24 15.84-24.72 25.24-68.26 1.92-89.68zm-178.7 295.92c-.77-.12-1.55-.25-2.36-.4 6.224-9.561 9.608-20.692 9.76-32.1.037-13-1.338-25.966-4.1-38.67 7.86 12.43 11.74 24.94 10.73 34.93-.055.565-.075 1.133-.06 1.7l-.4.56c-1.374 1.974-2.261 4.246-2.586 6.63-.325 2.383-.079 4.81.716 7.08-2.004 2.746-3.032 6.084-2.92 9.482.113 3.398 1.359 6.66 3.54 9.268-2.62 1.83-6.73 2.34-12.32 1.53z" fill="#44993d"/><path d="m1267.64 467c-7.68-7.05-18.1-9.67-29.1-9.1-4.2-79.25-53.86-122.85-118.8-143.92 61.9 20.13 70.5 5.86 71.37 4.06 10.94-22.9-61.24-57.7-56.66-44.62 3.8 10.86 32.27 17.72 25 23.84-6 5.06-30.8-7.34-85.4-3.5-87.06 6.13-158.14 84.72-164.6 164.47-11.3-.54-22 2.23-29.67 9.57-18.68 17.76-10.4 53 2.83 73 10 15.13 26.8 27.12 43.44 32.65 7.7 20.3 39.7 47.12 80.76 63-10.08 14.66-15.36 30.48-15.3 45.94 0 .361.02.721.06 1.08-.418.922-.753 1.879-1 2.86-.595 2.451-.717 4.993-.36 7.49.398 2.862 1.273 5.638 2.59 8.21 2.13 4.15 5 6.94 8.66 8.28 2.51.935 5.26 1.03 7.83.269 2.58-.76 4.83-2.334 6.43-4.486s2.46-4.765 2.45-7.447-.89-5.288-2.51-7.426c.62-1.855.79-3.83.5-5.764-.3-1.934-1.05-3.77-2.19-5.356-.3-.424-.64-.825-1-1.2.84-12.12 6.2-22.66 11.25-30.08-4 14.25-5.2 23.4-5.2 32.57 0 14 7 28 18 38-1.17 5.77-1.93 11.614-2.29 17.49-3.88.37-7.71 1.097-11.46 2.17-2.86.924-5.24 2.924-6.65 5.576-1.4 2.653-1.72 5.748-.88 8.63.84 2.883 2.77 5.324 5.38 6.807s5.69 1.891 8.6 1.137c9.2-2.7 20.5-1.6 25.25 0 2.45.822 5.1.799 7.53-.064 2.44-.863 4.51-2.517 5.89-4.697s1.99-4.761 1.74-7.33c-.26-2.568-1.37-4.976-3.16-6.839 0-.4.1-.84.1-1.26.09-2.501.29-4.997.6-7.48 1.99.218 4 .318 6 .3 2.18-.023 4.36-.173 6.53-.45.39 2.727.66 5.47.82 8.22 0 .24.02.48.06.72-1.77 1.865-2.87 4.267-3.12 6.826-.24 2.559.37 5.128 1.75 7.298s3.44 3.817 5.87 4.678c2.42.862 5.06.889 7.5.078 4.74-1.57 16-2.65 25.25 0 1.05.304 2.14.459 3.23.46 2.77-.01 5.45-1.016 7.54-2.837 2.09-1.82 3.45-4.332 3.85-7.076.39-2.744-.22-5.537-1.72-7.869-1.5-2.331-3.79-4.045-6.45-4.828-3.77-1.081-7.64-1.81-11.55-2.18-.46-5.962-1.35-11.883-2.65-17.72 1.46-1.327 2.85-2.729 4.17-4.2 2.09.57 4.2 1.017 6.34 1.34 1.66.25 3.33.38 5 .39 5.15 0 9.3-1.36 12.4-4.06.59-.521 1.14-1.09 1.64-1.7.57.075 1.14.115 1.71.12 1.55-.001 3.08-.293 4.52-.86 7-2.74 10.27-10.7 11-16.7.32-2.502.15-5.041-.49-7.48-.43-1.616-1.11-3.157-2-4.57.06-.3.1-.63.14-.95.65-7.704-.3-15.459-2.78-22.78 2.56-3.115 5.51-5.897 8.76-8.28 9.06-6.58 16.68-7.08 21.5-6.33 4.63.786 8.97 2.741 12.63 5.68 3.8 2.919 6.49 7.051 7.62 11.71.8 4.025.59 8.184-.6 12.11-.9 2.84-2.75 6.5-6.5 7.85-6.47 2.32-13.85-3.88-13.93-3.95-.86-.735-1.98-1.096-3.11-1.005s-2.18.627-2.92 1.49c-.73.863-1.09 1.983-1 3.113s.63 2.177 1.49 2.912c.93.8 7.94 6.5 16.38 6.5 2.04.018 4.07-.32 6-1 5.5-2 9.66-6.7 11.76-13.3 1.64-5.35 1.92-11.026.8-16.51-1.52-6.58-5.27-12.431-10.61-16.56-4.82-3.89-10.57-6.463-16.69-7.47-4.93-.727-9.96-.323-14.71 1.18-4.71 1.489-9.13 3.75-13.1 6.69-2.59 1.886-5.01 3.994-7.23 6.3-1.98-4.229-4.28-8.304-6.87-12.19 37.9-14.86 68.7-39.83 78.5-62.23 17.52-5.34 35.44-18.16 45.8-34.37 12.8-20.2 20.42-55.63 1.43-73.07zm-145.4 240.82c-.62-.1-1.26-.2-1.92-.34 5.09-7.772 7.86-16.831 8-26.12.03-10.577-1.09-21.125-3.34-31.46 6.4 10.1 9.56 20.3 8.73 28.42-.05.462-.06.926-.05 1.39l-.33.45c-1.11 1.61-1.83 3.461-2.09 5.401s-.05 3.913.6 5.759c-1.64 2.231-2.48 4.948-2.38 7.713.09 2.766 1.11 5.42 2.89 7.537-2.18 1.5-5.55 1.9-10.1 1.25zm2030.26-242.82c-7.68-7.05-18.1-9.67-29.1-9.1-4.2-79.25-53.86-122.85-118.8-143.92 61.9 20.13 70.5 5.86 71.37 4.06 10.94-22.9-61.24-57.7-56.67-44.62 3.8 10.86 32.28 17.72 25 23.84-6 5.06-30.8-7.34-85.38-3.5-87.1 6.12-158.18 84.7-164.63 164.46-11.3-.54-22 2.23-29.67 9.57-18.68 17.76-10.4 53 2.83 73 10.05 15.13 26.8 27.12 43.44 32.65 7.7 20.3 39.7 47.12 80.75 63-10.07 14.66-15.35 30.48-15.3 45.94 0 .361.02.721.06 1.08-.42.922-.75 1.879-1 2.86-.6 2.451-.72 4.993-.36 7.49.39 2.863 1.27 5.639 2.59 8.21 2.13 4.15 5 6.94 8.66 8.28 2.51.935 5.26 1.03 7.83.269 2.58-.76 4.83-2.334 6.43-4.486s2.46-4.765 2.45-7.447-.89-5.288-2.51-7.426c.62-1.855.79-3.83.49-5.764-.29-1.933-1.04-3.769-2.18-5.356-.3-.424-.64-.825-1-1.2.84-12.12 6.2-22.66 11.24-30.08-4 14.25-5.2 23.4-5.2 32.57 0 14 6.95 28 18 38-1.17 5.77-1.93 11.614-2.29 17.49-3.88.371-7.72 1.098-11.47 2.17-2.87.915-5.27 2.914-6.68 5.572s-1.73 5.763-.89 8.653c.84 2.891 2.78 5.337 5.4 6.818 2.62 1.48 5.72 1.877 8.63 1.107 9.2-2.7 20.5-1.6 25.25 0 2.45.822 5.1.799 7.53-.064 2.44-.863 4.51-2.517 5.89-4.697s1.99-4.761 1.74-7.33c-.26-2.568-1.37-4.976-3.16-6.839 0-.4.1-.84.1-1.26.09-2.501.29-4.997.6-7.48 1.99.218 4 .318 6 .3 2.18-.023 4.36-.173 6.53-.45.39 2.727.66 5.47.82 8.22 0 .24.02.48.06.72-1.77 1.864-2.87 4.267-3.12 6.826-.24 2.56.37 5.128 1.75 7.298s3.44 3.817 5.87 4.678c2.42.862 5.06.889 7.5.078 4.74-1.57 16-2.65 25.25 0 2.91.754 5.99.346 8.6-1.137s4.54-3.924 5.38-6.807c.84-2.882.52-5.977-.88-8.63-1.41-2.652-3.79-4.652-6.65-5.576-3.77-1.081-7.64-1.81-11.55-2.18-.46-5.962-1.35-11.883-2.65-17.72 1.46-1.327 2.85-2.729 4.17-4.2 2.08.568 4.2 1.016 6.33 1.34 1.67.252 3.37.382 5.06.39 5.15 0 9.3-1.36 12.4-4.06.59-.521 1.14-1.09 1.64-1.7.57.075 1.14.116 1.71.12 1.55-.001 3.08-.293 4.52-.86 7-2.74 10.27-10.7 11-16.7.32-2.501.15-5.04-.49-7.479-.43-1.616-1.11-3.157-2-4.57.06-.3.1-.63.14-.95.65-7.704-.3-15.459-2.78-22.78 2.56-3.115 5.51-5.897 8.76-8.28 9.06-6.58 16.68-7.08 21.5-6.33 4.63.786 8.97 2.741 12.63 5.68 3.8 2.919 6.49 7.051 7.62 11.71.8 4.025.59 8.184-.6 12.11-.9 2.84-2.76 6.5-6.5 7.85-6.47 2.32-13.86-3.88-13.93-3.95-.86-.735-1.98-1.096-3.11-1.005s-2.18.627-2.92 1.49c-.73.863-1.09 1.983-1 3.113s.63 2.177 1.49 2.912c.93.8 7.94 6.5 16.38 6.5 2.04.018 4.07-.321 6-1 5.48-2 9.66-6.7 11.76-13.3 1.64-5.35 1.92-11.026.8-16.51-1.52-6.581-5.27-12.432-10.62-16.56-4.82-3.891-10.57-6.465-16.68-7.47-4.93-.727-9.96-.324-14.71 1.18-4.71 1.489-9.13 3.75-13.1 6.69-2.59 1.886-5.01 3.994-7.23 6.3-1.98-4.231-4.28-8.307-6.88-12.19 37.9-14.86 68.7-39.83 78.52-62.23 17.52-5.34 35.44-18.16 45.8-34.37 12.76-20.2 20.4-55.62 1.42-73.06zm-145.4 240.82c-.62-.1-1.26-.2-1.92-.34 5.09-7.774 7.86-16.832 8-26.12.03-10.577-1.09-21.125-3.34-31.46 6.4 10.1 9.55 20.3 8.73 28.42-.05.462-.06.926-.05 1.39l-.33.45c-1.11 1.61-1.83 3.461-2.09 5.401s-.05 3.913.6 5.759c-1.23 1.684-2.01 3.651-2.28 5.719s-.01 4.17.75 6.111c.48 1.238 1.16 2.392 2 3.42-2.15 1.5-5.52 1.9-10.07 1.25zm-635.82-240.82c-7.68-7.05-18.1-9.67-29.1-9.1-4.2-79.25-53.86-122.85-118.8-143.92 61.9 20.13 70.5 5.86 71.37 4.06 10.94-22.9-61.24-57.7-56.66-44.62 3.8 10.86 32.27 17.72 25 23.84-6 5.06-30.8-7.34-85.4-3.5-87.1 6.12-158.18 84.7-164.62 164.46-11.3-.54-22 2.23-29.68 9.57-18.68 17.76-10.4 53 2.83 73 10.06 15.13 26.8 27.12 43.44 32.65 7.7 20.3 39.7 47.12 80.76 63-10.08 14.66-15.36 30.48-15.3 45.94 0 .361.02.721.06 1.08-.42.922-.75 1.879-1 2.86-.6 2.451-.72 4.993-.36 7.49.4 2.862 1.27 5.638 2.59 8.21 2.13 4.15 5 6.94 8.66 8.28 2.51.935 5.26 1.03 7.83.269 2.58-.76 4.83-2.334 6.43-4.486s2.46-4.765 2.45-7.447-.89-5.288-2.51-7.426c.62-1.855.79-3.83.5-5.764-.3-1.934-1.05-3.77-2.19-5.356-.3-.424-.64-.825-1-1.2.84-12.12 6.2-22.66 11.25-30.08-4 14.25-5.2 23.4-5.2 32.57 0 14 6.95 28 18 38-1.17 5.77-1.93 11.614-2.29 17.49-3.88.37-7.71 1.097-11.46 2.17-2.86.924-5.24 2.924-6.65 5.576-1.4 2.653-1.72 5.748-.88 8.63.84 2.883 2.77 5.324 5.38 6.807s5.69 1.891 8.6 1.137c9.2-2.7 20.5-1.6 25.25 0 2.45.822 5.1.799 7.53-.064s4.51-2.517 5.89-4.697 1.99-4.761 1.74-7.33c-.26-2.568-1.37-4.976-3.16-6.839 0-.4.1-.84.1-1.26.1-2.64.3-5.12.6-7.48 1.98.216 3.96.316 5.95.3 2.18-.023 4.36-.173 6.53-.45.37 2.57.65 5.3.82 8.22 0 .24.02.48.06.72-1.77 1.864-2.87 4.267-3.12 6.826-.24 2.56.37 5.128 1.75 7.298s3.44 3.817 5.87 4.678c2.42.862 5.06.889 7.5.078 4.74-1.57 16-2.65 25.25 0 1.05.304 2.14.459 3.23.46 2.77-.009 5.45-1.016 7.54-2.837 2.09-1.82 3.45-4.332 3.85-7.076.39-2.744-.22-5.537-1.72-7.869-1.5-2.331-3.79-4.045-6.45-4.828-3.77-1.081-7.64-1.81-11.55-2.18-.46-5.962-1.35-11.883-2.65-17.72 1.46-1.327 2.85-2.729 4.17-4.2 2.09.57 4.2 1.017 6.34 1.34 1.67.252 3.36.383 5.05.39 5.15 0 9.3-1.36 12.4-4.06.59-.521 1.14-1.09 1.64-1.7.57.075 1.14.115 1.71.12 1.55-.001 3.08-.293 4.52-.86 7-2.74 10.27-10.7 11-16.7.32-2.501.15-5.04-.49-7.479-.43-1.616-1.11-3.157-2-4.57.06-.3.1-.63.14-.95.65-7.704-.3-15.459-2.78-22.78 2.56-3.115 5.51-5.897 8.76-8.28 9.06-6.58 16.68-7.08 21.5-6.33 4.63.786 8.97 2.741 12.63 5.68 3.8 2.919 6.49 7.051 7.62 11.71.8 4.025.59 8.184-.6 12.11-.9 2.84-2.75 6.5-6.5 7.85-6.47 2.32-13.85-3.88-13.93-3.95-.86-.735-1.98-1.096-3.11-1.005s-2.18.627-2.92 1.49c-.73.863-1.09 1.983-1 3.113s.63 2.177 1.49 2.912c.93.8 7.94 6.5 16.38 6.5 2.04.018 4.07-.32 6-1 5.5-2 9.66-6.7 11.76-13.3 1.64-5.35 1.92-11.026.8-16.51-1.53-6.611-5.31-12.483-10.7-16.61-4.82-3.89-10.57-6.463-16.69-7.47-4.93-.727-9.96-.323-14.71 1.18-4.71 1.489-9.13 3.749-13.1 6.689-2.59 1.886-5.01 3.994-7.23 6.3-1.98-4.229-4.28-8.304-6.87-12.19 37.9-14.86 68.7-39.83 78.5-62.23 17.52-5.34 35.44-18.16 45.8-34.37 12.9-20.14 20.55-55.57 1.56-73zm-145.4 240.82c-.62-.1-1.26-.2-1.92-.34 5.09-7.772 7.86-16.831 8-26.12.03-10.577-1.09-21.125-3.34-31.46 6.4 10.1 9.56 20.3 8.73 28.42-.04.462-.06.926-.05 1.39l-.33.45c-1.11 1.61-1.83 3.461-2.09 5.401s-.05 3.913.6 5.759c-1.64 2.231-2.48 4.948-2.38 7.713.09 2.766 1.11 5.42 2.89 7.537-2.18 1.5-5.55 1.9-10.1 1.25z" fill="#469e41"/><path d="m1794 366.68c-11.66-10.7-27.48-14.68-44.2-13.8-6.37-120.3-81.75-186.5-180.32-218.47 94 30.56 107 8.9 108.34 6.17 16.6-34.76-93-87.57-86-67.73 5.76 16.47 49 26.88 38 36.17-9.1 7.7-46.75-11.13-129.6-5.3-132.22 9.28-240.15 128.58-249.92 249.65-17.14-.82-33.33 3.38-45 14.52-28.35 27-15.8 80.53 4.3 110.76 15.26 23 40.66 41.17 65.94 49.56 11.68 30.8 60.25 71.53 122.58 95.64-15.3 22.24-23.3 46.26-23.22 69.72 0 .56.03 1.11.1 1.65-.64 1.396-1.15 2.849-1.52 4.34-.91 3.716-1.1 7.573-.55 11.36.6 4.347 1.92 8.562 3.92 12.47 3.24 6.3 7.66 10.53 13.15 12.58 3.82 1.426 8 1.574 11.91.42s7.34-3.547 9.77-6.818 3.73-7.244 3.71-11.321c-.02-4.076-1.36-8.035-3.83-11.281.94-2.817 1.2-5.817.75-8.753-.44-2.936-1.58-5.724-3.31-8.137-.46-.639-.95-1.247-1.49-1.82 1.27-18.4 9.4-34.4 17.07-45.66-6.1 21.63-7.9 35.52-7.9 49.45 0 21.2 10.54 42.48 27.27 57.7-1.77 8.755-2.93 17.623-3.47 26.54-5.89.565-11.71 1.669-17.4 3.3-2.22.631-4.3 1.696-6.1 3.132-1.81 1.437-3.32 3.217-4.44 5.237-1.11 2.021-1.82 4.243-2.08 6.539-.25 2.295-.05 4.618.6 6.835.64 2.217 1.72 4.285 3.17 6.083 1.45 1.799 3.24 3.293 5.27 4.397 2.02 1.104 4.25 1.796 6.55 2.036 2.3.239 4.62.022 6.83-.639 14-4.08 31.13-2.44 38.32-.06 3.71 1.225 7.72 1.175 11.4-.143 3.68-1.317 6.81-3.827 8.9-7.129s3.01-7.208 2.63-11.096c-.39-3.888-2.06-7.535-4.76-10.362.07-.633.12-1.273.15-1.92.16-4 .46-7.77.88-11.35 2.99.325 5.99.475 9 .45 3.31-.024 6.62-.251 9.91-.68.56 3.9 1 8.06 1.25 12.5 0 .36 0 .73.08 1.1-2.69 2.831-4.36 6.481-4.73 10.369-.38 3.888.56 7.789 2.65 11.084 2.1 3.295 5.24 5.793 8.92 7.097 3.68 1.305 7.7 1.34 11.4.1 7.2-2.38 24.34-4 38.32.06 4.45 1.264 9.21.717 13.26-1.52s7.04-5.984 8.34-10.423c1.29-4.439.78-9.209-1.43-13.27s-5.94-7.083-10.37-8.407c-5.73-1.638-11.6-2.746-17.53-3.31-.7-9.047-2.03-18.032-4-26.89 2.22-2.018 4.34-4.147 6.34-6.38 3.16.857 6.37 1.525 9.61 2 2.54.38 5.1.577 7.67.59 7.8 0 14.12-2.07 18.8-6.17.9-.79 1.73-1.657 2.48-2.59.86.129 1.74.192 2.61.19 2.35-.003 4.67-.444 6.86-1.3 10.6-4.16 15.58-16.25 16.64-25.34.48-3.797.22-7.649-.75-11.35-.66-2.475-1.69-4.835-3.06-7 .1-.469.17-.943.21-1.42 1.1-10.9-.36-22.63-4.2-34.6 3.89-4.73 8.35-8.953 13.29-12.57 13.75-10 25.32-10.74 32.6-9.6 7.02 1.195 13.63 4.166 19.18 8.63 4.26 3.43 9.73 9.3 11.57 17.77 1.21 6.112.9 12.427-.91 18.39-1.36 4.3-4.2 9.86-9.87 11.9-9.82 3.53-21-5.88-21.14-6-.64-.581-1.4-1.027-2.22-1.312-.82-.284-1.69-.401-2.55-.344-.87.057-1.72.287-2.49.677-.78.39-1.47.931-2.03 1.592s-.99 1.428-1.25 2.256c-.26.827-.35 1.699-.27 2.563s.34 1.703.75 2.467.97 1.438 1.65 1.981c1.4 1.2 12 9.87 24.86 9.87 3.09.012 6.16-.516 9.07-1.56 8.33-3 14.67-10.16 17.85-20.2 2.47-8.08 2.89-16.648 1.22-24.93-2.1-9.63-7.66-18.32-16.12-25.13-7.32-5.904-16.04-9.811-25.32-11.34-7.48-1.104-15.12-.492-22.33 1.79-7.15 2.259-13.87 5.689-19.9 10.15-3.93 2.87-7.61 6.072-11 9.57-3.01-6.423-6.49-12.611-10.43-18.51 57.53-22.56 104.27-60.46 119.18-94.46 26.6-8.1 53.8-27.56 69.54-52.17 19.56-30.58 31.18-84.36 2.38-110.82zm-220.75 365.54c-1-.13-1.92-.3-2.92-.5 7.67-12.1 12.06-25.84 12.06-39.65.05-16.056-1.65-32.07-5.06-47.76 9.7 15.34 14.5 30.8 13.25 43.14-.07.701-.09 1.406-.07 2.11-.17.222-.34.449-.5.68-1.69 2.443-2.78 5.253-3.17 8.197-.4 2.945-.09 5.941.9 8.743-2.48 3.392-3.75 7.515-3.61 11.713.14 4.197 1.68 8.227 4.38 11.447-3.23 2.26-8.35 2.9-15.26 1.88zm1263.6-323.35c-11-10.12-26-13.88-41.77-13-6-113.7-77.27-176.27-170.43-206.5 88.8 28.88 101.17 8.4 102.4 5.83 15.7-32.85-87.87-82.77-81.3-64 5.45 15.58 46.3 25.42 35.92 34.2-8.6 7.26-44.18-10.52-122.5-5-125 8.8-227 121.54-236.2 236-16.2-.78-31.5 3.2-42.57 13.72-26.8 25.48-14.94 76.1 4 104.7 14.43 21.7 38.44 38.9 62.33 46.85 11 29.1 56.95 67.6 115.87 90.4-14.45 21-22 43.73-22 65.9 0 .518.03 1.036.09 1.55-.6 1.325-1.09 2.7-1.45 4.11-.85 3.515-1.03 7.16-.51 10.74.56 4.106 1.82 8.088 3.7 11.78 3.06 6 7.24 10 12.44 11.9 3.61 1.346 7.55 1.485 11.25.395 3.69-1.09 6.93-3.349 9.22-6.439 2.3-3.089 3.53-6.84 3.51-10.69-.01-3.85-1.28-7.589-3.61-10.656.89-2.668 1.14-5.51.72-8.292s-1.5-5.424-3.14-7.708c-.43-.602-.91-1.176-1.41-1.72 1.2-17.4 8.88-32.5 16.13-43.16-5.76 20.45-7.45 33.57-7.45 46.74 0 20.05 10 40.16 25.78 54.53-1.69 8.275-2.78 16.66-3.28 25.09-5.57.536-11.07 1.577-16.45 3.11-2.09.608-4.03 1.621-5.73 2.981-1.69 1.361-3.1 3.042-4.15 4.947s-1.71 3.998-1.94 6.159c-.24 2.16-.05 4.346.56 6.433 1.23 4.214 4.08 7.768 7.93 9.88 1.9 1.045 4 1.705 6.16 1.942s4.34.046 6.43-.562c13.2-3.85 29.42-2.3 36.22 0 3.51 1.158 7.3 1.11 10.78-.136 3.47-1.246 6.44-3.618 8.41-6.74s2.85-6.814 2.48-10.49c-.37-3.675-1.95-7.122-4.5-9.794.07-.598.12-1.198.14-1.8.15-3.586.43-7.165.84-10.73 2.84.305 5.69.448 8.54.43 3.13-.034 6.26-.251 9.37-.65.56 3.915.95 7.852 1.18 11.8 0 .35.05.7.08 1-2.53 2.68-4.09 6.128-4.44 9.798-.35 3.669.53 7.35 2.51 10.46 1.98 3.109 4.94 5.47 8.41 6.707 3.47 1.238 7.26 1.282 10.76.125 6.8-2.26 23-3.8 36.22 0 2.09.608 4.27.799 6.43.562s4.26-.897 6.16-1.942c1.91-1.046 3.59-2.456 4.95-4.152 1.36-1.695 2.37-3.641 2.98-5.728s.8-4.273.56-6.433c-.23-2.161-.89-4.254-1.94-6.159s-2.46-3.586-4.15-4.947c-1.7-1.36-3.64-2.373-5.73-2.981-5.42-1.549-10.96-2.593-16.57-3.12-.67-8.553-1.94-17.048-3.81-25.42 2.1-1.894 4.11-3.897 6-6 2.99.822 6.02 1.466 9.09 1.93 2.4.357 4.82.541 7.25.55 7.38 0 13.34-1.95 17.77-5.83.85-.745 1.64-1.561 2.36-2.44.82.112 1.64.169 2.46.17 2.22.002 4.42-.416 6.48-1.23 10-3.92 14.73-15.35 15.73-24 .45-3.586.21-7.224-.71-10.72-.62-2.325-1.6-4.54-2.89-6.57.09-.446.16-.897.2-1.35 1-10.3-.34-21.4-4-32.7 3.68-4.465 7.9-8.456 12.57-11.88 13-9.44 23.94-10.15 30.83-9.1 6.63 1.136 12.87 3.945 18.12 8.16 4 3.25 9.2 8.8 10.94 16.8 1.14 5.776.84 11.744-.86 17.38-1.3 4.07-4 9.32-9.33 11.25-9.28 3.33-19.88-5.56-20-5.65-1.24-1.017-2.83-1.507-4.43-1.364-1.6.144-3.08.908-4.12 2.13s-1.56 2.803-1.45 4.405c.11 1.601.85 3.094 2.05 4.159 1.34 1.14 11.4 9.34 23.5 9.34 2.92.009 5.82-.492 8.57-1.48 7.88-2.83 13.87-9.6 16.87-19.08 2.35-7.677 2.75-15.82 1.16-23.69-2-9.1-7.24-17.32-15.23-23.75-6.92-5.58-15.17-9.273-23.94-10.72-7.07-1.043-14.29-.465-21.1 1.69-6.76 2.136-13.11 5.38-18.81 9.6-3.71 2.696-7.18 5.707-10.37 9-2.84-6.069-6.14-11.915-9.86-17.49 54.37-21.33 98.56-57.15 112.65-89.3 25.13-7.66 50.85-26 65.73-49.3 18.6-28.88 29.6-79.7 2.34-104.72zm-208.63 345.5c-.9-.13-1.8-.3-2.75-.47 7.25-11.43 11.4-24.42 11.4-37.48.04-15.176-1.56-30.311-4.79-45.14 9.17 14.5 13.7 29.1 12.53 40.78-.07.664-.09 1.333-.07 2-.16.2-.32.42-.47.65-1.6 2.306-2.63 4.959-3 7.741-.38 2.782-.09 5.613.85 8.259-2.34 3.206-3.54 7.103-3.41 11.071.13 3.967 1.59 7.776 4.14 10.819-3.05 2.13-7.9 2.73-14.43 1.77z" fill="#44993d"/></g></svg>