<svg fill="none" height="700" viewBox="0 0 3000 700" width="3000" xmlns="http://www.w3.org/2000/svg" xmlns:xlink="http://www.w3.org/1999/xlink"><clipPath id="a"><path d="m0 0h3000v700h-3000z"/></clipPath><g clip-path="url(#a)"><path d="m0 0h3000v700h-3000z" fill="#42a641"/><path d="m115.68 274.27c-3.18-2.92-7.5-4-12.06-3.76-1.74-32.83-22.3-50.9-49.2-59.6 25.64 8.33 29.2 2.42 29.56 1.68 4.53-9.48-25.36-23.9-23.47-18.48 1.57 4.5 13.37 7.34 10.37 9.87-2.48 2.1-12.75-3-35.36-1.45-36.080005 2.54-65.52 35.1-68.2 68.12-4.67-.23-9.1.92-12.3 4-7.73 7.35-4.3 22 1.17 30.22 4.3973 6.318 10.707 11.057 18 13.52 4.93 13 33.99999 32.5 63.7 31.63 26-.75 52-17.2 58.15-31.23 7.766-2.447 14.467-7.466 19-14.23 5.3-8.4 8.48-23.06.62-30.28zm364.72-137c-3.18-2.92-7.5-4-12.06-3.76-1.74-32.82-22.3-50.88-49.2-59.6 25.64 8.34 29.2 2.43 29.56 1.68 4.53-9.48-25.36-23.9-23.47-18.48 1.58 4.5 13.37 7.34 10.37 9.87-2.48 2.1-12.75-3-35.36-1.44-36.08 2.53-65.52 35.08-68.18 68.1-4.68-.22-9.1.92-12.3 4-7.74 7.36-4.32 22 1.17 30.22 4.393 6.324 10.704 11.068 18 13.53 4.93 13 33.95 32.5 63.7 31.63 26-.76 52-17.2 58.15-31.24 7.764-2.452 14.463-7.469 19-14.23 5.3-8.38 8.47-23.06.6-30.28zm-7.52 426.1c-3.18-2.92-7.5-4-12.06-3.76-1.74-32.83-22.3-50.9-49.2-59.6 25.63 8.34 29.2 2.43 29.56 1.68 4.53-9.48-25.37-23.9-23.47-18.48 1.57 4.5 13.37 7.34 10.37 9.87-2.48 2.1-12.75-3-35.36-1.45-36.1 2.54-65.52 35.1-68.2 68.12-4.68-.22-9.1.92-12.3 4-7.74 7.36-4.3 22 1.17 30.22 4.4 6.315 10.709 11.053 18 13.52 4.94 13 34 32.5 63.7 31.63 26-.75 52-17.2 58.16-31.23 7.765-2.449 14.465-7.468 19-14.23 5.3-8.4 8.47-23.06.6-30.28zm279.32-370.82c-3.2-2.92-7.5-4-12.06-3.77-1.74-32.78-22.3-50.88-49.15-59.6 25.63 8.34 29.2 2.43 29.56 1.7 4.44-9.5-25.42-23.86-23.56-18.48 1.57 4.5 13.36 7.33 10.37 9.87-2.48 2.1-12.76-3-35.36-1.45-36.1 2.53-65.52 35.08-68.2 68.1-4.68-.22-9.1.93-12.3 4-7.74 7.35-4.3 22 1.17 30.22 4.4 6.315 10.709 11.053 18 13.52 4.94 13 34 32.5 63.7 31.63 26-.75 52-17.2 58.16-31.23 7.767-2.45 14.469-7.472 19-14.24 5.34-8.37 8.5-23.05.65-30.26zm185.5 342.17c-3.18-2.92-7.5-4-12.06-3.77-1.73-32.82-22.3-50.88-49.2-59.6 25.63 8.33 29.2 2.42 29.56 1.68 4.53-9.5-25.37-23.9-23.47-18.48 1.57 4.5 13.36 7.33 10.37 9.87-2.48 2.1-12.76-3-35.37-1.45-36.08 2.54-65.5 35.08-68.18 68.12-4.68-.23-9.1.92-12.3 4-7.74 7.35-4.3 22 1.17 30.22 4.397 6.318 10.707 11.058 18 13.52 4.93 13 34 32.5 63.7 31.63 26-.75 52-17.2 58.16-31.23 7.766-2.453 14.466-7.475 19-14.24 5.3-8.38 8.47-23.05.6-30.27zm376.35-256.22c-3.2-2.92-7.5-4-12.06-3.76-1.74-32.82-22.3-50.88-49.2-59.6 25.63 8.34 29.2 2.43 29.56 1.68 4.53-9.48-25.37-23.9-23.47-18.48 1.57 4.5 13.36 7.34 10.37 9.87-2.48 2.1-12.76-3-35.36-1.45-36.1 2.54-65.52 35.1-68.2 68.12-4.68-.22-9.1.92-12.3 4-7.74 7.36-4.3 22 1.17 30.22 4.4 6.319 10.71 11.061 18 13.53 4.94 13 34 32.5 63.7 31.63 26-.76 52-17.2 58.16-31.24 7.76-2.449 14.47-7.468 19-14.23 5.3-8.4 8.47-23.06.6-30.28zm746.95 234.37c-3.18-2.92-7.5-4-12.06-3.76-1.74-32.82-22.3-50.88-49.2-59.6 25.64 8.34 29.2 2.43 29.56 1.68 4.54-9.48-25.36-23.9-23.46-18.48 1.57 4.5 13.36 7.34 10.37 9.87-2.48 2.1-12.76-3-35.37-1.44-36.08 2.53-65.5 35.08-68.18 68.1-4.68-.22-9.1.92-12.3 4-7.74 7.36-4.3 22 1.17 30.22 4.39 6.324 10.7 11.068 18 13.53 4.93 13 34 32.5 63.7 31.63 26-.76 52-17.2 58.16-31.24 7.76-2.452 14.46-7.47 19-14.23 5.3-8.4 8.48-23.06.6-30.28zm145-357c-3.18-2.92-7.5-4-12.06-3.77-1.74-32.82-22.3-50.88-49.2-59.6 25.64 8.34 29.2 2.43 29.56 1.7 4.53-9.5-25.36-23.9-23.47-18.48 1.58 4.5 13.37 7.33 10.37 9.87-2.48 2.1-12.75-3-35.36-1.45-36.08 2.53-65.52 35.08-68.2 68.1-4.67-.22-9.1.93-12.28 4-7.74 7.35-4.32 22 1.17 30.22 4.4 6.319 10.71 11.058 18 13.52 4.93 13 33.95 32.5 63.7 31.63 26-.75 52-17.2 58.15-31.23 7.77-2.451 14.47-7.473 19-14.24 5.27-8.37 8.44-23.04.6-30.26zm-458.48-40c-3.18-2.92-7.5-4-12.06-3.77-1.73-32.82-22.3-50.88-49.2-59.6 25.63 8.34 29.2 2.43 29.56 1.7 4.53-9.5-25.37-23.9-23.47-18.48 1.57 4.5 13.36 7.33 10.37 9.87-2.48 2.1-12.76-3-35.37-1.45-36.08 2.53-65.5 35.08-68.18 68.1-4.68-.22-9.1.93-12.3 4-7.74 7.35-4.3 22 1.17 30.22 4.4 6.315 10.71 11.053 18 13.52 4.94 13 34 32.5 63.7 31.63 26-.75 52-17.2 58.16-31.23 7.77-2.45 14.47-7.472 19-14.24 5.3-8.37 8.47-23.04.6-30.26zm-169.88 337.93c-3.18-2.92-7.5-4-12.06-3.76-1.73-32.82-22.3-50.88-49.2-59.6 25.63 8.34 29.2 2.43 29.56 1.68 4.53-9.48-25.37-23.9-23.47-18.48 1.57 4.5 13.36 7.34 10.37 9.87-2.48 2.1-12.76-3-35.37-1.44-36.08 2.53-65.5 35.08-68.18 68.1-4.68-.22-9.1.92-12.3 4-7.74 7.36-4.3 22 1.17 30.22 4.39 6.324 10.7 11.068 18 13.53 4.94 13 34 32.5 63.7 31.63 26-.75 52-17.2 58.16-31.23 7.77-2.482 14.46-7.532 18.98-14.32 5.34-8.3 8.5-23 .64-30.2zm873.62-85.7c-3.18-2.92-7.5-4-12.06-3.76-1.74-32.82-22.3-50.88-49.2-59.6 25.64 8.34 29.2 2.43 29.56 1.68 4.54-9.48-25.36-23.9-23.46-18.48 1.57 4.5 13.36 7.34 10.37 9.87-2.48 2.1-12.76-3-35.37-1.44-36.08 2.53-65.5 35.08-68.18 68.1-4.68-.22-9.1.92-12.3 4-7.74 7.36-4.3 22 1.17 30.22 4.39 6.324 10.7 11.068 18 13.53 4.93 13 34 32.5 63.7 31.63 26-.76 52-17.2 58.16-31.23 7.76-2.461 14.46-7.481 19-14.24 5.34-8.4 8.47-23.06.6-30.28zm388.9 159.9c-3.18-2.92-7.5-4-12.06-3.77-1.73-32.82-22.3-50.88-49.2-59.6 25.63 8.34 29.2 2.43 29.56 1.7 4.53-9.5-25.37-23.9-23.47-18.48 1.57 4.5 13.36 7.33 10.37 9.87-2.48 2.1-12.76-3-35.37-1.45-36.08 2.53-65.5 35.08-68.18 68.1-4.68-.22-9.1.93-12.3 4-7.74 7.35-4.3 22 1.17 30.22 4.4 6.315 10.71 11.053 18 13.52 4.94 13 34 32.5 63.7 31.63 26-.75 52-17.2 58.16-31.23 7.77-2.45 14.47-7.472 19-14.24 5.3-8.37 8.43-23.05.6-30.26zm-134.3-372.14c-3.18-2.92-7.5-4-12.06-3.77-1.73-32.82-22.3-50.88-49.2-59.6 25.63 8.34 29.2 2.43 29.56 1.7 4.53-9.5-25.37-23.9-23.47-18.48 1.57 4.5 13.36 7.33 10.37 9.87-2.48 2.1-12.76-3-35.36-1.45-36.1 2.53-65.52 35.08-68.2 68.1-4.68-.22-9.1.93-12.3 4-7.74 7.35-4.3 22 1.17 30.22 4.4 6.315 10.71 11.053 18 13.52 4.94 13 34 32.5 63.7 31.63 26-.75 52-17.2 58.16-31.23 7.77-2.45 14.47-7.472 19-14.24 5.3-8.37 8.47-23.04.6-30.26zm374.33 98.08c-3.18-2.92-7.5-4-12.06-3.76-1.74-32.82-22.3-50.88-49.2-59.6 25.64 8.34 29.2 2.43 29.56 1.68 4.53-9.48-25.36-23.9-23.47-18.48 1.58 4.5 13.37 7.34 10.37 9.87-2.48 2.1-12.75-3-35.36-1.44-36.08 2.53-65.52 35.08-68.18 68.1-4.68-.22-9.1.92-12.3 4-7.74 7.36-4.32 22 1.17 30.22 4.39 6.324 10.7 11.068 18 13.53 4.93 13 34 32.5 63.7 31.63 26-.76 52-17.2 58.15-31.24 7.76-2.452 14.46-7.469 19-14.23 5.3-8.38 8.48-23.06.6-30.28z" fill="#429e3f"/><g opacity=".8" stroke="#429e3f" stroke-linecap="round" stroke-miterlimit="10" stroke-width="8"><path d="m98.27 345.32 7.9 6.15" opacity=".8"/><path d="m121.66 363.55 178.26 139" opacity=".8" stroke-dasharray="19.66 19.66"/><path d="m704.52 280.63 4.13 9.1m-400.98 218.85 7.9 6.15z" opacity=".8"/><path d="m717.67 309.56 67.6 148.76" opacity=".8" stroke-dasharray="21.79 21.79"/><path d="m1160.33 349.64-8.3 5.56m-362.26 113.04 4.14 9.1z" opacity=".8"/><path d="m1136.2 365.77-182.07 121.68" opacity=".8" stroke-dasharray="19.04 19.04"/><path d="m1639.52 207.83-3.55 9.35m-689.75 275.56-8.32 5.55z" opacity=".8"/><path d="m1628.67 236.33-54.67 143.65" opacity=".8" stroke-dasharray="20.49 20.49"/><path d="m1583.09 66.3-9.1-4.14m-3.65 327.4-3.55 9.34z" opacity=".8"/><path d="m1555.07 53.6-255.3-115.8" opacity=".8" stroke-dasharray="20.77 20.77"/><path d="m2691.8 595.52-8.12 5.85" opacity=".8"/><path d="m2667.93 612.7-275.8 198.52" opacity=".8" stroke-dasharray="19.42 19.42"/><path d="m2823.18 598 7.54 6.57" opacity=".8"/><path d="m2845.37 617.36 197.74 172.5" opacity=".8" stroke-dasharray="19.44 19.44"/><path d="m2081.38 238.8-4.34 9" opacity=".8"/><path d="m2068.45 265.66-64.4 133.92" opacity=".8" stroke-dasharray="19.81 19.81"/><path d="m2183.45 228.4 8.14 5.8m-191.83 174.3-4.33 9z" opacity=".8"/><path d="m2206 244.5 79.3 56.66" opacity=".8" stroke-dasharray="17.72 17.72"/><path d="m2639.5 254.34 3.52 9.36m-350.52 42.62 8.13 5.82z" opacity=".8"/><path d="m2650.13 282.68 53.4 142.3" opacity=".8" stroke-dasharray="20.27 20.27"/><path d="m2726.22 193.54 9.85 1.73m-28.97 239.21 3.5 9.36z" opacity=".8"/><path d="m2754.62 198.54 139.1 24.43" opacity=".8" stroke-dasharray="18.83 18.83"/><path d="m114.53 230.16 9.82-1.93m2778.65-3.63 9.85 1.73z" opacity=".8"/><path d="m144.98 224.17 154.75-30.47" opacity=".8" stroke-dasharray="21.03 21.03"/><path d="m310.05 191.67 9.8-1.94" opacity=".8"/></g><path d="m94.7398 52.7001c-.7879-.6685-1.7018-1.1722-2.6877-1.4813-.9859-.3092-2.0238-.4176-3.0523-.3187-.83-15.63-10.63-24.24-23.44-28.4 12.22 4 13.92 1.16 14.08.8 2.16-4.5-12.08-11.38-11.18-8.8.75 2.14 6.37 3.5 4.94 4.7-1.18 1-6.07-1.44-16.85-.7-17.2 1.2-31.22 16.72-32.5 32.5-1.0533-.1023-2.1164.0118-3.1241.3351-1.0076.3232-1.9386.849-2.7359 1.5449-3.7 3.5-2.05 10.47.56 14.4 2.0889 3.0154 5.0942 5.2773 8.57 6.45 2.35 6.2 16.18 15.48 30.35 15.07 12.4-.36 24.78-8.2 27.7-14.88 3.6798-1.1838 6.8515-3.5766 9-6.79 2.6-4 4.1-11 .35-14.43zm820.9202-37.42c-.788-.6712-1.704-1.1765-2.692-1.4858s-2.028-.4162-3.058-.3142c-.83-15.64005-10.63-24.24-23.44-28.4 12.2 4 13.9 1.16 14.08.8 2.16-4.52-12.08-11.38-11.18-8.8.75 2.14 6.37 3.5 4.94 4.7-1.18 1-6.08-1.45-16.85-.7-17.2 1.2-31.2 16.71995-32.46 32.45-1.053-.0995-2.114.0168-3.12.3418s-1.935.8518-2.73 1.5482c-3.7 3.5-2.06 10.47.56 14.4 2.087 3.0147 5.093 5.2737 8.57 6.44 2.35 6.2 16.18 15.5 30.35 15.08 12.4-.36 24.78-8.2 27.7-14.9 3.681-1.1762 6.854-3.5665 9-6.78 2.55-3.97 4.06-10.96.32-14.4zm-668.56 606.2199c-.787-.67-1.701-1.174-2.687-1.482-.987-.307-2.025-.412-3.053-.308-.83-15.64-10.63-24.24-23.45-28.4 12.22 4 13.92 1.15 14.1.8 2.16-4.52-12.1-11.38-11.18-8.8.75 2.15 6.37 3.5 4.94 4.7-1.18 1-6.08-1.45-16.85-.7-17.2 1.2-31.22 16.7-32.5 32.45-1.054-.1-2.117.017-3.125.342-1.007.324-1.938.851-2.735 1.548-3.68 3.5-2.05 10.47.56 14.4 2.095 3.011 5.103 5.269 8.58 6.44 2.3 6.2 16.17 15.5 30.3 15.07 12.4-.35 24.78-8.2 27.7-14.88 3.68-1.178 6.852-3.568 9-6.78 2.62-3.98 4.13-10.97.38-14.4zm13.3-518.65c-.79-.668-1.706-1.17-2.694-1.478-.987-.307-2.027-.414-3.056-.312-.83-15.6399-10.63-24.2399-23.44-28.3999 12.22 4 13.92 1.16 14.1.8 2.15-4.52-12.1-11.38-11.2-8.8.75 2.14 6.37 3.5 4.94 4.7-1.18 1-6.07-1.45-16.85-.7-17.2 1.2-31.2 16.72-32.48 32.4499-1.054-.1-2.118.016-3.125.341-1.008.325-1.938.852-2.735 1.549-3.7 3.5-2.05 10.47.56 14.4 2.087 3.015 5.093 5.274 8.57 6.44 2.35 6.2 16.18 15.48 30.35 15.07 12.4-.35 24.78-8.2 27.7-14.88 3.681-1.176 6.854-3.566 9-6.78 2.58-3.97 4.1-10.97.35-14.4zm776.3 45.25c-.79-.67-1.7-1.174-2.69-1.482s-2.03-.412-3.06-.308c-.83-15.64-10.62-24.25-23.44-28.4 12.22 4 13.92 1.15 14.1.8 2.15-4.52-12.1-11.4-11.2-8.8.75 2.14 6.37 3.5 4.94 4.7-1.18 1-6.07-1.44-16.84-.68-17.2 1.2-31.22 16.7-32.5 32.45-1.054-.103-2.118.012-3.126.337s-1.939.854-2.734 1.553c-3.7 3.5-2 10.47.56 14.4 2.094 3.008 5.098 5.265 8.57 6.44 2.35 6.2 16.18 15.48 30.35 15.07 12.4-.36 24.78-8.2 27.7-14.88 3.68-1.171 6.86-3.563 9-6.78 2.6-3.98 4.1-10.97.35-14.4zm291.6 451.23c-.79-.67-1.7-1.174-2.69-1.482s-2.03-.412-3.06-.308c-.83-15.64-10.62-24.25-23.44-28.4 12.22 4 13.92 1.15 14.1.8 2.15-4.52-12.1-11.4-11.2-8.8.75 2.15 6.37 3.5 4.94 4.7-1.18 1-6.07-1.45-16.84-.7-17.2 1.2-31.22 16.7-32.5 32.45-1.05-.1-2.12.016-3.13.341-1 .325-1.93.852-2.73 1.549-3.7 3.5-2 10.47.56 14.4 2.09 3.008 5.1 5.265 8.57 6.44 2.35 6.2 16.18 15.48 30.35 15.07 12.4-.36 24.78-8.2 27.7-14.88 3.68-1.171 6.86-3.563 9-6.78 2.6-3.98 4.1-10.97.35-14.4zm153.14-410.03c-.79-.67-1.7-1.174-2.69-1.482s-2.03-.412-3.06-.308c-.83-15.64-10.62-24.25-23.44-28.4 12.22 4 13.92 1.15 14.1.8 2.16-4.52-12.1-11.4-11.2-8.8.75 2.14 6.37 3.5 4.95 4.7-1.2 1-6.08-1.45-16.85-.7-17.2 1.2-31.22 16.7-32.5 32.45-1.05-.103-2.12.012-3.13.337-1 .325-1.93.854-2.73 1.553-3.68 3.5-2.05 10.47.56 14.4 2.09 3.008 5.1 5.265 8.57 6.44 2.35 6.2 16.18 15.48 30.35 15.07 12.4-.36 24.78-8.2 27.7-14.88 3.68-1.171 6.86-3.563 9-6.78 2.6-3.98 4.1-10.97.35-14.4zm408.08 0c-.79-.67-1.7-1.174-2.69-1.482-.98-.307-2.02-.412-3.05-.308-.83-15.64-10.63-24.25-23.44-28.4 12.2 4 13.9 1.15 14.08.8 2.16-4.52-12.08-11.4-11.18-8.8.75 2.14 6.37 3.5 4.94 4.7-1.18 1-6.08-1.45-16.85-.7-17.2 1.2-31.22 16.7-32.5 32.45-1.05-.103-2.12.012-3.12.337-1.01.325-1.94.854-2.73 1.553-3.7 3.5-2.06 10.47.56 14.4 2.09 3.01 5.1 5.267 8.57 6.44 2.35 6.2 16.18 15.48 30.35 15.07 12.4-.36 24.78-8.2 27.7-14.88 3.68-1.178 6.85-3.568 9-6.78 2.58-3.98 4.1-10.97.34-14.4zm89.03-166.5699c-.79-.6704-1.7-1.1745-2.69-1.4821s-2.03-.4124-3.06-.3079c-.8-15.64004-10.63-24.24005-23.44-28.40005 12.22 4 13.92 1.15 14.1.8 2.15-4.51995-12.1-11.39995-11.2-8.79995.75 2.15 6.37 3.5 4.94 4.7-1.18.99995-6.07-1.45-16.85-.7-17.2 1.2-31.2 16.69996-32.48 32.45-1.05-.1003-2.12.0156-3.13.3406-1 .325-1.93.8522-2.73 1.5494-3.7 3.5-2 10.47.56 14.4 2.09 3.0097 5.1 5.2673 8.57 6.44 2.35 6.2 16.18 15.48 30.35 15.07 12.4-.36 24.78-8.2 27.7-14.88 3.68-1.1762 6.85-3.5665 9-6.78 2.58-3.98 4.1-10.97.35-14.4zm-308.4 587.6999c-.79-.669-1.71-1.172-2.69-1.482-.99-.309-2.03-.417-3.06-.318-.83-15.63-10.63-24.24-23.44-28.4 12.2 4 13.9 1.16 14.08.8 2.16-4.5-12.08-11.38-11.18-8.8.75 2.14 6.37 3.5 4.94 4.7-1.18 1-6.08-1.44-16.85-.7-17.2 1.2-31.22 16.72-32.5 32.46-1.05-.102-2.11.012-3.12.336-1.01.323-1.93.848-2.73 1.544-3.7 3.5-2.06 10.47.56 14.4 2.09 3.015 5.09 5.277 8.57 6.45 2.35 6.2 16.18 15.48 30.35 15.07 12.4-.36 24.78-8.2 27.7-14.88 3.68-1.184 6.85-3.576 9-6.79 2.58-3.97 4.1-10.96.35-14.4zm-495.35-109.66c-.79-.671-1.7-1.177-2.69-1.486-.98-.31-2.02-.416-3.05-.314-.83-15.64-10.63-24.24-23.45-28.4 12.22 4 13.92 1.16 14.1.8 2.16-4.52-12.1-11.38-11.18-8.8.75 2.14 6.36 3.5 4.94 4.7-1.18 1-6.08-1.45-16.85-.7-17.2 1.2-31.22 16.72-32.5 32.46-1.05-.102-2.12.013-3.12.336-1.01.323-1.94.849-2.74 1.544-3.68 3.5-2 10.47.56 14.4 2.1 3.009 5.1 5.269 8.57 6.45 2.36 6.2 16.18 15.48 30.36 15.07 12.4-.36 24.78-8.2 27.7-14.88 3.68-1.186 6.85-3.578 9-6.79 2.54-3.97 4.1-10.96.34-14.4zm100.2-427.4999c-.79-.6714-1.7-1.1769-2.69-1.4863-.98-.3093-2.02-.416-3.05-.3137-.83-15.64-10.63-24.24-23.44-28.4 12.2 4 13.9 1.16 14.08.8 2.16-4.52-12.1-11.38-11.18-8.8.75 2.14 6.37 3.5 4.94 4.7-1.18 1-6.08-1.45-16.85-.7-17.2 1.2-31.22 16.72-32.5 32.46-1.05-.1044-2.11.0086-3.12.332s-1.94.8503-2.73 1.548c-3.7 3.5-2.06 10.47.55 14.4 2.1 3.0107 5.1 5.2709 8.58 6.45 2.35 6.1999 16.17 15.4799 30.35 15.0699 12.4-.36 24.78-8.2 27.7-14.8799 3.68-1.1859 6.85-3.5782 9-6.79 2.6-3.97 4.1-10.96.34-14.4zm559.8 401.1699c-.79-.668-1.71-1.17-2.69-1.478-.99-.307-2.03-.413-3.06-.312-.83-15.64-10.63-24.24-23.44-28.4 12.2 4 13.92 1.16 14.08.8 2.16-4.52-12.08-11.38-11.18-8.8.75 2.14 6.37 3.5 4.94 4.7-1.18 1-6.07-1.45-16.85-.7-17.2 1.2-31.2 16.72-32.48 32.45-1.05-.1-2.12.016-3.13.341-1 .325-1.93.852-2.73 1.549-3.7 3.5-2 10.47.56 14.4 2.09 3.015 5.09 5.274 8.57 6.44 2.35 6.2 16.18 15.48 30.35 15.07 12.4-.35 24.78-8.2 27.7-14.88 3.68-1.176 6.85-3.566 9-6.78 2.54-3.97 4.1-10.97.35-14.4zm618.94 100.6c-.79-.67-1.7-1.174-2.69-1.482s-2.03-.412-3.06-.308c-.83-15.64-10.62-24.25-23.44-28.4 12.22 4 13.92 1.16 14.1.8 2.15-4.52-12.1-11.4-11.2-8.8.75 2.14 6.37 3.5 4.94 4.7-1.18 1-6.07-1.44-16.84-.7-17.2 1.2-31.22 16.72-32.5 32.46-1.05-.103-2.12.012-3.13.337-1 .325-1.93.854-2.73 1.553-3.7 3.5-2 10.47.56 14.4 2.09 3.008 5.1 5.265 8.57 6.44 2.35 6.2 16.18 15.48 30.35 15.07 12.4-.36 24.78-8.2 27.7-14.88 3.68-1.171 6.86-3.562 9-6.78 2.6-3.98 4.1-10.97.35-14.4zm-75.06-412.34c-.79-.67-1.7-1.174-2.69-1.483s-2.03-.417-3.06-.317c-.83-15.63-10.62-24.24-23.44-28.4 12.22 4 13.92 1.16 14.1.8 2.16-4.5-12.1-11.38-11.2-8.8.75 2.14 6.37 3.5 5 4.7-1.2 1-6.08-1.44-16.85-.7-17.2 1.2-31.22 16.72-32.5 32.46-1.05-.102-2.12.013-3.13.338-1 .325-1.93.853-2.73 1.552-3.68 3.5-2 10.46.56 14.4 2.09 3.013 5.1 5.274 8.57 6.45 2.35 6.2 16.18 15.48 30.35 15.07 12.4-.36 24.78-8.2 27.7-14.88 3.68-1.181 6.85-3.574 9-6.79 2.54-3.97 4.05-10.96.3-14.4zm-148.35 354.17c-.79-.669-1.71-1.173-2.69-1.48-.99-.308-2.03-.413-3.06-.31-.83-15.64-10.63-24.25-23.44-28.4 12.2 4 13.9 1.16 14.08.8 2.16-4.52-12.08-11.4-11.18-8.8.75 2.14 6.37 3.5 4.94 4.7-1.18 1-6.07-1.44-16.85-.7-17.2 1.2-31.2 16.72-32.48 32.46-1.05-.103-2.12.012-3.13.337-1 .325-1.93.854-2.73 1.553-3.7 3.5-2.05 10.47.56 14.4 2.09 3.01 5.1 5.267 8.57 6.44 2.35 6.2 16.18 15.48 30.35 15.07 12.4-.36 24.78-8.2 27.7-14.88 3.68-1.176 6.85-3.566 9-6.78 2.58-3.98 4.1-10.97.35-14.4zm279.33-453.1999c-.79-.6701-1.7-1.1742-2.69-1.4818-.98-.3076-2.02-.4125-3.05-.3082-.83-15.64-10.63-24.24-23.45-28.4 12.22 4 13.92 1.15 14.1.8 2.16-4.52-12.1-11.4-11.18-8.8.75 2.15 6.36 3.5 4.94 4.7-1.18 1-6.08-1.45-16.85-.7-17.2 1.2-31.22 16.7-32.5 32.45-1.05-.0997-2.12.0165-3.13.3414-1 .325-1.93.8519-2.73 1.5486-3.68 3.5-2 10.47.56 14.4 2.1 3.0052 5.1 5.2617 8.57 6.44 2.36 6.2 16.18 15.4799 30.36 15.07 12.4-.36 24.78-8.2 27.7-14.88 3.68-1.1783 6.85-3.5681 9-6.78 2.58-3.98 4.1-10.97.34-14.4zm348.1 13.88c-.79-.6694-1.7-1.1737-2.69-1.483-.98-.3092-2.02-.417-3.05-.317-.83-15.64-10.63-24.24-23.44-28.4 12.2 4 13.9 1.16 14.08.8 2.16-4.52-12.1-11.38-11.18-8.8.75 2.14 6.37 3.5 4.94 4.7-1.18 1-6.08-1.45-16.85-.7-17.2 1.2-31.22 16.72-32.5 32.46-1.05-.1021-2.11.0121-3.12.3354s-1.93.8489-2.73 1.5446c-3.7 3.5-2.06 10.4699.55 14.3999 2.1 3.0108 5.1 5.271 8.58 6.4501 2.35 6.1999 16.17 15.4799 30.35 15.0699 12.4-.36 24.78-8.2 27.7-14.8799 3.68-1.1859 6.85-3.5782 9-6.79 2.6-3.94 4.1-10.94.34-14.4zm55.04 296.5999c-.79-.669-1.71-1.173-2.69-1.48-.99-.308-2.03-.413-3.06-.31-.83-15.64-10.63-24.24-23.44-28.4 12.2 4 13.9 1.15 14.08.8 2.16-4.52-12.08-11.4-11.18-8.8.75 2.15 6.37 3.5 4.94 4.7-1.18 1-6.07-1.45-16.85-.7-17.2 1.2-31.2 16.7-32.5 32.45-1.05-.099-2.11.017-3.12.342s-1.93.852-2.73 1.548c-3.7 3.5-2.06 10.47.56 14.4 2.09 3.01 5.1 5.267 8.57 6.44 2.35 6.2 16.18 15.48 30.35 15.07 12.4-.36 24.78-8.2 27.7-14.88 3.68-1.176 6.85-3.566 9-6.78 2.54-3.98 4.1-10.97.35-14.4zm114.34-351.3999c-.79-.6714-1.7-1.1769-2.69-1.4863-.98-.3093-2.02-.416-3.05-.3137-.83-15.64005-10.63-24.24005-23.4-28.40005 12.22 4 13.92 1.16 14.1.8 2.16-4.51995-12.1-11.37995-11.18-8.79995.75 2.14 6.37 3.5 4.94 4.7-1.18.99995-6.08-1.45-16.85-.7-17.2 1.2-31.22 16.71996-32.5 32.46-1.05-.1017-2.12.0126-3.12.3359-1.01.3233-1.94.8486-2.74 1.5441-3.68 3.5-2 10.47.56 14.4 2.1 3.0107 5.1 5.2709 8.58 6.45 2.35 6.2 16.17 15.48 30.35 15.07 12.4-.36 24.78-8.2 27.7-14.88 3.68-1.1859 6.85-3.5782 9-6.79 2.53-3.97 4.04-10.96.3-14.4zm-777.74 659.5499c-.79-.67-1.7-1.174-2.69-1.482s-2.03-.412-3.06-.308c-.83-15.64-10.62-24.24-23.44-28.4 12.22 4 13.92 1.15 14.1.8 2.15-4.52-12.1-11.38-11.2-8.8.75 2.15 6.37 3.5 4.94 4.7-1.18 1-6.07-1.45-16.84-.7-17.2 1.2-31.22 16.7-32.5 32.45-1.05-.1-2.12.016-3.13.341-1 .325-1.93.852-2.73 1.549-3.7 3.5-2 10.47.56 14.4 2.09 3.01 5.1 5.268 8.57 6.44 2.35 6.2 16.18 15.48 30.35 15.07 12.4-.36 24.78-8.2 27.7-14.88 3.68-1.171 6.86-3.562 9-6.78 2.6-3.98 4.1-10.97.35-14.4zm-1333.74-412.68c-.788-.671-1.704-1.176-2.692-1.486-.988-.309-2.028-.416-3.058-.314-.83-15.64-10.63-24.24-23.44-28.4 12.2 4 13.9 1.16 14.08.8 2.16-4.52-12.08-11.38-11.18-8.8.75 2.14 6.37 3.5 4.94 4.7-1.18 1-6.08-1.45-16.85-.7-17.2 1.2-31.2 16.72-32.5 32.45-1.053-.099-2.114.017-3.12.342s-1.935.852-2.73 1.548c-3.7 3.5-2.06 10.47.56 14.4 2.087 3.015 5.093 5.274 8.57 6.44 2.35 6.2 16.18 15.5 30.35 15.08 12.4-.36 24.78-8.2 27.7-14.9 3.681-1.176 6.854-3.566 9-6.78 2.58-3.97 4.1-10.96.35-14.4zm218.67 412.83c-.79-.67-1.7-1.174-2.69-1.483s-2.03-.417-3.06-.317c-.82-15.64-10.62-24.24-23.44-28.4 12.22 4 13.92 1.16 14.1.8 2.16-4.52-12.1-11.38-11.2-8.8.75 2.14 6.37 3.5 5 4.7-1.2 1-6.08-1.45-16.85-.7-17.2 1.2-31.22 16.72-32.5 32.46-1.05-.102-2.12.013-3.12.336-1.01.323-1.94.849-2.74 1.544-3.68 3.5-2 10.47.56 14.4 2.1 3.009 5.1 5.269 8.57 6.45 2.35 6.2 16.18 15.48 30.35 15.07 12.4-.36 24.78-8.2 27.7-14.88 3.68-1.181 6.85-3.574 9-6.79 2.54-3.97 4.05-10.96.3-14.4zm-738.93-358.53c-.788-.669-1.701-1.174-2.687-1.483s-2.025-.417-3.053-.317c-.83-15.64-10.63-24.24-23.45-28.4 12.22 4 13.92 1.16 14.1.8 2.16-4.52-12.1-11.38-11.18-8.8.75 2.14 6.37 3.5 4.94 4.7-1.18 1-6.08-1.45-16.85-.7-17.22 1.2-31.22 16.72-32.5 32.46-1.053-.102-2.116.013-3.124.336s-1.939.849-2.736 1.544c-3.68 3.5-2.05 10.47.56 14.4 2.095 3.014 5.103 5.275 8.58 6.45 2.35 6.2 16.17 15.48 30.35 15.07 12.4-.36 24.78-8.2 27.7-14.88 3.679-1.186 6.85-3.578 9-6.79 2.58-3.97 4.1-10.96.34-14.4zm213.1 61.08c-.786-.671-1.7-1.177-2.686-1.486-.987-.309-2.025-.416-3.054-.314-.83-15.64-10.63-24.24-23.44-28.4 12.2 4 13.9 1.16 14.08.8 2.16-4.52-12.1-11.38-11.18-8.8.75 2.14 6.37 3.5 4.94 4.7-1.18 1-6.08-1.45-16.85-.7-17.2 1.2-31.22 16.72-32.5 32.46-1.052-.104-2.114.009-3.121.332-1.006.324-1.935.85-2.729 1.548-3.7 3.5-2.06 10.47.55 14.4 2.098 3.011 5.105 5.271 8.58 6.45 2.35 6.2 16.17 15.48 30.35 15.07 12.4-.36 24.78-8.2 27.7-14.88 3.679-1.186 6.85-3.578 9-6.79 2.58-3.98 4.1-10.97.34-14.4zm-500.76 134.52c-.789-.67-1.705-1.174-2.693-1.483-.987-.309-2.027-.417-3.057-.317-.83-15.63-10.6302-24.24-23.4402-28.4 12.22 4 13.92 1.16 14.08.8 2.16-4.5-12.08-11.38-11.18-8.8.75 2.14 6.37 3.5 4.94 4.7-1.18 1-6.07-1.44-16.85-.7-17.2 1.2-31.2 16.72-32.48 32.46-1.0533-.102-2.1164.012-3.1241.335-1.0076.323-1.9386.849-2.7359 1.545-3.7 3.5-2.05 10.47.56 14.4 2.0889 3.016 5.0942 5.277 8.57 6.45 2.35 6.2 16.18 15.48 30.35 15.07 12.4-.36 24.78-8.2 27.7-14.88 3.6802-1.184 6.8512-3.577 9.0002-6.79 2.6-3.92 4.1-10.92.35-14.4z" fill="#43a140"/><g stroke="#43a140" stroke-linecap="round" stroke-miterlimit="10" stroke-width="6"><path d="m103.92 77.1699 9.87 1.6"/><path d="m131.72 81.6699 26.88 4.35" stroke-dasharray="18.16 18.16"/><path d="m100.7 554.63 8.32 5.56m58.54-472.71 9.87 1.6z"/><path d="m126.04 571.56 25.54 17.06" stroke-dasharray="20.47 20.47"/><path d="m405.93 347 9.78 2.1m-255.61 245.2 8.3 5.55z"/><path d="m435.15 353.25 68.06 14.56" stroke-dasharray="19.88 19.88"/><path d="m512.93 369.88 9.78 2.1"/><path d="m141.46 705.2 21.5-31.2" stroke-dasharray="25.26 25.26"/><path d="m170.13 663.6 5.68-8.24"/><path d="m195.6 2.79993 5.22 36.73997" stroke-dasharray="24.74 24.74"/><path d="m901.86 55.9299 7.12 7.02m-706.42-11.17 1.4 9.9z"/><path d="m924.97 78.7 23.96 23.6" stroke-dasharray="22.43 22.43"/><path d="m1173.2 533.02 8.62 5.05m-224.9-427.9 7.12 7.02z"/><path d="m1201.54 549.62 29.58 17.33" stroke-dasharray="22.85 22.85"/><path d="m1272.11 103.8 9.03 4.3m-40.16 464.62 8.63 5.06z"/><path d="m1297.5 115.9 89.95 42.9" stroke-dasharray="18.12 18.12"/><path d="m1886.7 165.23 3.57-9.34m-494.65 6.81 9.02 4.3z"/><path d="m1896.2 140.43 20.66-54.1" stroke-dasharray="16.55 16.55"/><path d="m1667.3 586 7.75-6.33m244.75-501.07 3.56-9.34z"/><path d="m1690.58 567.02 54.3-44.3" stroke-dasharray="20.03 20.03"/><path d="m2251.64 660.84 9.3-3.65m-508.29-140.81 7.75-6.32z"/><path d="m2277.26 650.8 89.7-35.13" stroke-dasharray="17.51 17.51"/><path d="m2203 632.6-1.74-9.85m173.84-10.27 9.3-3.64z"/><path d="m2198.3 605.87-4.47-25.34" stroke-dasharray="17.15 17.15"/><path d="m2440.29 99.75-8.06 5.9m-239.9 466.45-1.74-9.85z"/><path d="m2417.82 116.24-21.62 15.87" stroke-dasharray="17.88 17.88"/><path d="m2950.17 49.0499-9.9 1.44m-551.27 86.9101-8.06 5.9z"/><path d="m2915.96 54.0199-36.48 5.3" stroke-dasharray="24.57 24.57"/><path d="m2867.33 61.08-9.9 1.43"/><path d="m3013.95 525.83-92.63-98.9" stroke-dasharray="18.07 18.07"/><path d="m2789.74 49.05-8.13-5.83m133.54 377.11-6.84-7.3z"/><path d="m2764.52 30.9699-59.83-42.9" stroke-dasharray="21.03 21.03"/><path d="m1121.85 543.44-2.04 9.8"/><path d="m1114.8 577.36-7.52 36.2" stroke-dasharray="24.65 24.65"/><path d="m911.85 244.95 7.1-7.05m185.83 387.72-2.03 9.8z"/><path d="m934.1 222.84 22.76-22.6" stroke-dasharray="21.38 21.38"/><path d="m964.44 192.7 7.1-7.05"/></g></g></svg>