<svg fill="none" height="700" viewBox="0 0 3000 700" width="3000" xmlns="http://www.w3.org/2000/svg"><clipPath id="a"><path d="M0 0h3000v700H0z"/></clipPath><g clip-path="url(#a)"><path d="M0 0h3000v700H0z" fill="#42a641"/><path d="M104 353c-2-11-11-10-10-18l1-2-2-2c-2-1-3 1-5 1h-1v4c6 21-9 42-41 38l-8 2-1 2 1 2c1 2 2 5 5 6 33 21 64-17 61-33zm111-253c-3-11-12-9-13-17l1-2-1-2c-2-1-4 1-5 1l-2 1c0 3 1 3 2 4 8 20-4 43-36 43-4 0-7 3-8 3l-1 2 1 2c1 2 3 4 6 5 36 17 61-25 56-40zm203 3c4-11 12-8 13-16l-1-3 2-1c2-1 3 1 5 1l1 1c1 2-1 2-1 4-8 19 3 43 35 43l8 2c1 1 2 2 1 3l-1 1c-1 3-3 5-5 6-37 16-62-26-57-41zm194 170c-8-8-14-1-18-8l-1-3h-2c-2 0-3 2-4 3l-1 2c1 2 2 1 3 2 17 14 17 40-11 55l-6 6v3l2 1 8 2c40-3 42-52 30-63zm29 99c8-7 14-1 19-8v-2l2-1c2 0 3 3 4 3l1 2-3 3c-17 13-17 39 11 54l6 6v3l-2 1c-2 2-5 2-8 2-40-2-42-51-30-63zm-171-5c9-8 15-2 19-8l1-3 2-1 4 4 1 1-3 3c-17 14-18 39 11 55 3 1 5 5 5 6v2l-1 1c-3 2-5 3-8 2-40-2-42-51-31-62zm111 222c8-8 14-2 19-8v-3l2-1c3 1 3 3 4 4l1 1-3 3c-17 14-17 39 11 55 3 1 5 5 6 6v2l-2 1c-2 2-5 3-8 2-40-2-42-51-30-62zm325-225c-8-9-15-4-18-11l-1-2-2-1c-2 0-2 2-4 3l-1 1c1 3 2 2 3 3 15 16 13 41-17 54-3 1-5 4-6 5v3l1 1c3 2 5 3 8 3 40 1 47-47 37-59zm97-134c3-11 11-10 11-17l-1-3 2-1h5l1 1c1 2 0 3-1 4-6 20 7 43 39 40l8 2 2 3-1 1c-2 3-3 5-6 6-35 19-63-21-59-36zm-4 180c8-8 14-2 19-8v-3h3c2 0 2 2 3 3l1 1c-1 3-2 2-3 3-17 14-18 39 10 55l6 6v3l-2 1-8 2c-40-3-41-52-29-63zM828 541c9-8 15-2 19-8l1-3h2c2 0 3 2 4 3l1 1c-1 3-2 2-3 3-17 14-18 39 10 55 3 2 5 6 5 6v3l-2 1-7 2c-40-3-42-52-30-63zm520 58c8-7 14-1 19-7l1-3 2-1 3 4 1 1c0 3-2 2-3 3-17 13-18 39 10 55l6 6v3l-2 1-8 2c-40-4-41-53-29-64zM1031 60c-4-11-12-9-13-16l1-3-2-2-5 2h-1c-1 3 1 3 1 4 8 20-3 43-36 44l-8 2-1 2 1 2 6 6c36 16 62-26 57-41zm107 160c9-6 15 0 20-5l1-3h2c2 0 2 3 3 4l1 1c-1 2-3 2-4 2-18 12-22 37 4 56 3 2 4 6 5 7l-1 3h-2c-2 2-5 2-8 2-39-9-34-57-21-67zm253-128c-4-11-12-8-13-16l1-3-2-1c-2-1-3 1-5 1l-1 1c-1 2 1 3 1 4 8 20-3 43-35 43-4 0-7 2-8 3-1 0-2 1-1 2l1 2 5 5c37 17 62-25 57-41zm-50 217c-4-10-13-8-13-16v-2c1-1 1-1-1-2s-3 1-5 1l-1 1c-1 3 1 3 1 4 8 20-3 43-36 43-3 0-7 2-8 3l-1 2 1 2 6 5c36 17 62-25 57-41zm-190 215c-4-11-12-8-13-16l1-3-2-1c-2-1-3 1-5 1l-1 1c-1 2 1 2 1 4 8 19-3 43-36 43l-8 2-1 3 1 1 6 6c36 16 62-26 57-41zm233-63c-4-11-13-8-13-16v-3l-1-1c-2-1-3 1-5 1l-1 1c-1 2 0 2 1 4 8 20-3 43-36 43-3 0-7 2-8 3l-1 2 1 2 6 5c36 17 62-25 57-41zm149-244c5-10 13-7 15-14v-3l2-1c2-1 3 1 4 2l1 1c1 2-1 2-2 3-10 19-3 43 29 48l8 4 1 2-2 2-6 5c-39 10-57-35-50-49zm305 291c5-11 13-7 15-14l-1-3 2-2 5 2 1 1c0 3-1 3-2 4-11 19-3 43 29 48l7 4 1 2-1 2c-2 2-4 4-6 4-39 11-58-34-50-48zM1712 90c-9-7-15 0-20-6l-1-3h-2c-2 0-2 3-3 4l-1 1c1 2 2 2 4 2 18 12 21 38-5 56-3 2-4 6-5 7v3h2l8 2c39-8 36-57 23-66zm84 252c-9-6-15 0-20-6l-1-2h-2c-2 0-2 2-3 3l-1 2c1 2 2 1 3 2 18 12 22 37-4 56-3 2-5 6-5 7v2l2 1c2 1 5 2 8 1 39-7 36-56 23-66zm217 245c-9-7-15 0-20-6l-1-2-2-1-3 4-1 2c1 2 3 1 4 2 18 12 21 37-5 56-3 2-4 6-5 6v3l2 1 8 1c39-7 36-56 23-66zm103-310c-4-11-12-9-13-16l1-3-2-1c-2-1-3 1-5 1l-1 1c-1 2 1 2 1 3 8 20-3 43-35 44l-8 2-2 2 2 2c1 3 3 4 5 6 37 16 62-26 57-41zm338-209c-4-11-12-8-13-16l1-3-2-1c-2-1-3 1-5 1l-1 1c-1 2 1 3 1 4 8 20-3 43-35 43-4 0-7 2-8 3l-2 2 2 2 5 5c37 17 62-25 57-41zm207 153c-3-11-12-9-12-16v-3c1-1 0-1-1-1-2-1-4 1-5 1l-2 1c0 2 1 2 2 3 8 20-4 43-36 44l-8 2-1 3 1 1c1 3 3 5 6 6 36 16 61-26 56-41zm290-146c-3-11-12-8-12-16v-3l-1-1c-2-1-4 1-5 1l-2 1 2 4c8 20-4 43-36 43-3 0-7 2-8 3l-1 2 1 2c1 2 3 4 6 5 36 17 61-25 56-41zm-564 394c-3-11-12-8-12-16v-3c1 0 1-1-1-1-2-1-3 1-5 1l-1 1c-1 2 0 2 1 4 8 19-3 43-36 43l-8 2-1 3 1 1 6 6c36 16 62-26 56-41zm-406-73c8-7 15-1 19-8l1-3h2c2 0 2 2 3 3l1 2c0 2-2 1-3 2-16 14-17 40 12 55l6 6v3l-2 1-8 2c-40-2-43-51-31-63zm326 192c8-8 14-2 19-9v-3h2c2 0 3 2 4 3l1 2c-1 2-2 1-3 2-16 14-17 40 11 55l6 6v3l-2 1-7 2c-40-2-43-51-31-62zm283-533c8-8 14-2 19-8v-3l2-1 4 4 1 1c-1 3-2 2-3 3-16 14-17 39 11 55 3 1 5 5 6 6v2l-2 1c-2 2-5 3-7 3-40-3-43-52-31-63zm140 316c8-8 15-2 19-9v-2l2-1c3 0 3 3 4 4l1 1c0 2-2 2-3 3-16 14-17 39 11 54 4 2 5 6 6 6v3l-2 1c-2 2-4 2-7 2-40-2-43-51-31-62zm102 271c0-12 9-12 7-20l-1-2c-1-1-1-1 1-2h6c2 2 0 3 0 4-1 21 18 39 48 29h8c1-1 2 1 2 1v2l-4 7c-28 28-66-3-67-19zm94-430c9-8 15-1 19-8l1-3h2c2 0 2 2 4 3l1 1c-1 3-2 2-3 3-17 14-17 40 11 55l6 6v3l-2 1-8 2c-39-2-42-51-31-63zM1929 72c4-11 12-8 13-16l-1-2 2-2c2-1 3 1 4 1l2 1c1 2-1 3-2 4-7 20 4 43 36 43 4 0 7 2 8 3l1 2-1 2-5 5c-37 17-62-25-57-41z" fill="#43a140" opacity=".5"/><path d="M153 512c-3-16-16-14-15-26l1-4-2-2c-3-2-5 1-7 1-1 0-2-1-2 1-2 3 0 4 1 6 8 30-13 61-60 55-5 0-11 2-12 3-2 0-3 2-3 3l2 3c1 3 4 6 7 9 50 31 94-26 90-49zM253 64c11-13 21-6 26-16v-4l3-1c3 0 4 3 6 4 1 0 2 0 2 2 0 3-3 3-4 4-21 24-16 61 28 77 5 2 9 7 10 8l1 4-3 1c-3 3-6 5-10 5-59 5-73-65-59-84zm-132-1c-13-11-22-1-28-10l-2-4h-3c-3 0-3 4-5 5l-1 2c1 4 3 3 5 4 25 18 30 55-10 81-4 3-6 9-8 10l1 4 3 1c3 2 7 3 11 2 58-8 56-80 37-95zm413 426c-14-10-22-1-29-10l-1-4h-3c-3 1-4 4-5 5s-2 1-1 2c1 4 3 3 4 4 26 18 30 56-9 81-5 3-7 9-8 10v4l3 1c4 2 8 3 11 2 58-8 56-80 38-95zm79-343c6-16 18-13 19-24l-1-4c-1-1 0-1 2-2 3-1 5 2 7 2l2 1c1 4-1 4-2 6-11 29 5 63 53 63 5 0 10 3 11 4l2 3-2 3c-2 3-4 6-8 8-53 24-90-38-83-60zm217 214c-13-11-22-3-28-12l-1-4-3-1c-3 1-4 4-5 5l-2 2c1 4 3 3 5 4 24 20 25 58-16 81-5 2-8 7-9 8v4l3 2c3 2 7 3 11 3 58-4 62-76 45-92zm109 181c13-12 22-3 28-12l1-4 3-1c3 0 4 4 6 5l1 2c-1 3-3 2-5 4-24 20-25 58 16 80 5 3 8 8 9 9v4l-3 1c-3 3-7 4-11 4-58-4-62-76-45-92zm249-434c-5-16-18-12-19-24l1-4c1 0 1-1-2-2s-5 2-7 2l-2 1c-1 4 1 4 2 6 12 29-5 63-52 63-5 0-10 3-12 4l-2 3 2 3 8 8c53 24 91-37 83-60zm81 421c-11-13-21-5-26-15l-1-4-3-1c-3 0-4 3-6 4l-1 2c0 4 3 3 4 4 22 23 19 61-25 79l-9 7v4l2 2c3 3 7 4 11 4 58 3 70-68 54-86zm125-185c12-11 21-2 28-12l1-3c0-1 0-2 3-1 3 0 3 4 5 5 1 0 2 0 1 2-1 3-3 3-4 4-25 20-27 57 15 81 4 2 7 7 8 9v3l-3 2c-3 2-7 3-11 3-58-5-61-77-43-93zm399 223c13-11 22-2 28-12l1-4h3c3 0 4 3 5 5 1 0 2 0 2 2-1 3-3 2-5 4-24 19-26 57 15 80l8 9v4l-3 2c-3 2-7 3-11 3-58-5-60-77-43-93zM1511 82c-6-16-18-12-19-23l1-4-2-2c-3-2-5 1-7 1-1 1-2 0-2 2-1 3 1 3 2 5 11 29-5 63-53 64-5 0-10 3-11 3l-2 4 2 2c1 4 4 6 8 8 53 24 90-37 83-60zm265 54c14-10 22 0 29-9l2-3 3-1c3 1 3 4 5 6l1 2c-2 3-4 2-5 3-27 17-33 54 5 82 4 3 6 9 7 10s0 3-1 4l-3 1c-3 2-7 2-11 2-57-12-51-84-32-98zm263-6c-6-16-18-12-19-23l1-4c0-1 0-2-2-3-3-1-5 2-8 2l-2 1c-1 4 2 4 2 6 12 29-5 63-52 63-5 0-10 4-11 4-2 0-2 2-2 3l2 3c1 3 4 6 8 8 53 24 90-37 83-60zm-74 318c-6-16-18-12-19-23l1-4c1-1 0-2-2-3-3-1-5 2-7 2l-2 1c-1 4 1 4 2 6 11 29-5 63-52 63-6 0-11 4-12 4l-2 3 2 3c2 3 4 6 8 8 53 24 90-37 83-60zm282-136c8-15 19-9 22-20l-1-4c0-1 1-2 3-2 3-1 5 2 7 3l2 1c0 4-2 4-3 5-16 28-5 63 42 71 5 1 10 5 11 5 1 1 2 3 1 4l-2 2c-2 3-5 6-9 7-56 16-84-50-73-72zm262-186c-13-10-21 0-29-8l-1-4-3-1c-3 1-3 5-5 6l-1 2c1 3 3 2 5 3 26 18 32 55-7 82-4 3-6 9-7 10v4l3 1c3 2 7 2 11 2 58-11 53-82 34-97zm-17 395c-5-16-18-12-18-23l1-4c0-1 0-2-3-3s-5 2-7 2l-2 1c-1 4 1 4 2 6 12 29-5 63-52 63-5 0-10 4-12 4l-2 3 2 3 8 8c54 24 91-37 83-60zm445-139c0-17-13-18-10-28l3-4-2-3c-2-2-5 0-7 0h-2c-3 3 0 4 0 6 0 31-27 57-71 41-5-2-11 0-13 0l-2 2v3l5 11c42 41 98-4 99-28zm-55 100c12-12 22-3 28-13l1-4h3c3 0 3 3 5 5 1 0 2 0 1 2 0 3-2 2-4 4-24 20-25 58 17 80 4 2 7 8 8 9v4l-2 1-11 3c-59-3-63-75-46-91z" fill="#43a140"/><path d="M75 249c16-23 34-11 41-29l1-6c0-2 0-2 5-3 5 0 7 5 10 7 1 0 3 0 3 3 0 6-4 5-6 8-34 40-24 103 51 127 9 2 15 10 17 12 2 1 2 4 1 6l-4 3c-5 5-11 8-17 9C80 398 51 281 75 249zm593 262c17-23 35-11 42-29v-6c0-2 1-2 5-3 5 0 7 5 10 7 2 0 3 0 3 3 0 6-4 5-6 8-33 40-23 103 52 127 8 2 14 10 17 12l1 6-4 3c-5 5-11 8-18 9-97 12-125-105-102-137zM565 138c-17-23-35-11-42-28v-7c0-2-1-2-5-2-5-1-7 5-10 6-2 1-3 0-3 3 0 6 4 5 6 8 33 41 23 103-52 127-8 3-14 10-17 12l-1 6 4 3c5 5 11 8 18 9 97 12 125-105 102-137zm540-52c-9-27-30-21-31-40-1-2 0-4 1-7 1-1 0-2-4-3-4-2-8 3-12 3-1 0-2-1-3 2-2 6 2 6 3 9 20 49-8 105-87 106-9 0-17 6-20 6-2 1-3 4-3 6l3 4c3 6 8 11 14 14 89 40 151-63 139-100zm170 234c-9-26-30-20-32-39l2-7c1-1 0-2-4-3-5-2-8 2-12 3-1 0-2-1-3 2-2 5 2 6 3 9 20 49-8 105-87 106-9 0-17 5-20 6-2 1-3 4-3 6l3 4c3 6 8 11 14 13 89 41 151-62 139-100zm304-182c9-26 29-20 31-39l-2-7c0-1 0-2 4-3 5-2 8 2 12 3 1 0 3-1 3 2 2 5-2 6-3 9-19 49 9 105 88 106 8 0 16 5 19 6 2 1 3 4 3 6l-3 4c-3 6-8 11-14 13-89 41-151-62-138-100zm755-48c-9-27-30-21-31-40-1-2 0-4 1-6s0-2-4-4c-5-2-8 3-12 3-1 0-2 0-3 2-2 6 2 6 3 9 20 49-8 106-87 106-9 0-17 6-20 6-2 1-3 4-3 6s3 3 3 4c3 6 8 11 14 14 89 40 151-62 139-100zm73 211c16-23 34-11 41-29v-7c0-1 0-2 5-2 5-1 7 5 10 6 1 0 3 0 3 3 0 6-4 5-6 8-33 41-22 103 54 126 8 3 14 10 17 12 2 1 2 4 1 6 0 2-3 2-4 3-4 5-10 8-17 9-97 14-127-102-104-135zm-173 222c-9-26-29-20-31-39l2-7c0-1 0-2-4-3-5-2-8 2-12 3-1 0-3-1-3 2-2 5 2 6 3 9 20 49-9 105-87 106-9 0-17 5-20 6-2 1-3 4-3 6l3 4c3 6 8 11 14 13 89 41 151-62 138-100z" fill="#439e3e" opacity=".8"/><path d="M413 393c-37-107-120-84-126-159-1-11 3-18 7-27 2-6 0-8-16-15-19-8-33 12-48 13-5 0-11-2-13 7-8 24 8 25 13 38 78 197-34 424-352 426-35 1-68 23-79 26-8 2-13 15-12 23 0 6 9 11 12 17 14 29 41 48 55 54 359 163 610-251 559-403zm336-144c87 72 146 8 191 69 6 8 7 16 8 26 1 6 4 7 22 4 20-4 21-27 33-36 4-3 10-4 8-14-7-24-20-17-31-25-171-125-196-378 73-548 29-19 45-55 53-63 6-6 3-19-2-26-4-5-14-5-19-8-28-17-60-19-76-17-391 52-384 536-260 638zm1929-94c25 110 110 95 108 171 0 10-4 17-9 26-3 6-1 8 15 16 18 10 34-8 48-8 5 0 11 3 15-6 9-23-6-26-10-39-59-204 76-419 393-389 35 3 70-16 81-17 8-2 14-14 14-22 0-7-8-12-10-18-11-31-36-52-50-60-341-198-631 190-595 346zm-560 53c-80 79-144 20-183 85-6 9-6 17-7 27 0 6-3 8-21 6-20-2-24-25-36-33-4-2-11-3-9-13 4-24 19-18 29-27 159-141 161-395-122-540-31-16-50-51-59-58-6-5-4-19 0-26 3-6 13-6 18-10 26-19 58-24 74-23 394 16 430 499 316 612zm-443 144c-78-82-144-25-181-90-5-9-6-17-6-27 0-7-3-8-21-7-20 2-24 25-37 32-4 2-11 3-9 13 3 24 18 19 28 28 155 144 151 398-135 536-32 16-52 50-61 57-6 5-5 19-1 26 4 6 13 6 18 10 26 20 58 26 74 25 394-6 443-488 331-603zm1104 196c-36-107-119-84-125-159-1-10 2-18 6-27 3-6 1-8-16-15-19-7-33 12-47 13-5 0-11-2-14 8-7 23 8 25 13 37 79 197-34 425-352 427-35 0-68 22-79 25-8 2-12 15-12 23 1 7 10 11 12 17 15 29 42 48 56 54 359 164 609-251 558-403z" fill="#429e3f"/></g></svg>