<svg fill="none" height="700" viewBox="0 0 3000 700" width="3000" xmlns="http://www.w3.org/2000/svg" xmlns:xlink="http://www.w3.org/1999/xlink"><clipPath id="a"><path d="m0 0h3000v700h-3000z"/></clipPath><g clip-path="url(#a)"><path d="m0 0h3000v700h-3000z" fill="#42a641"/><path d="m104 353c-2.2-11.24-10.9001-10-10.4801-17.64.0944-.947.4396-1.851 1-2.62.33-.56.18-.8-1.4-1.67-1.82-1-3.46.7-5 .62-.48 0-1-.3-1.45.6-1 2.27.48 2.62.83 4 5.3 20.8-9.07 42.17-41 38.15-3.52-.44-7.12 1.36-8.24 1.5-.85.1-1.46 1.35-1.52 2.15s.78 1.25 1 1.86c.9079 2.529 2.6047 4.699 4.84 6.19 33.84 21.16 64.5201-17.14 61.4201-33.14zm111.2-253.5c-3.65-10.86-12.1-8.46-12.7-16.12-.027-.9501.194-1.8908.64-2.73.26-.6.08-.8-1.6-1.47-1.94-.77-3.34 1.15-4.84 1.26-.47 0-1.07-.17-1.36.78-.73 2.4.83 2.54 1.34 3.83 8 19.93-3.47 43-35.67 43.2-3.55 0-6.88 2.28-8 2.55-.82.2-1.27 1.53-1.2 2.33s.93 1.14 1.2 1.7c1.229 2.388 3.192 4.319 5.6 5.51 36.4 16.56 61.8-25.44 56.6-40.84zm202.9 3.5c3.65-10.86 12.1-8.46 12.7-16.12.028-.9515-.196-1.8934-.65-2.73-.25-.6-.07-.8 1.6-1.47 1.93-.77 3.34 1.16 4.83 1.27.48 0 1.07-.17 1.36.77.73 2.4-.82 2.54-1.34 3.83-8 19.93 3.47 43 35.67 43.2 3.56 0 6.88 2.28 8 2.55.83.2 1.27 1.53 1.22 2.33s-.94 1.14-1.2 1.7c-1.23 2.391-3.197 4.323-5.61 5.51-36.36 16.58-61.76-25.4-56.57-40.85zm194.24 170.28c-8.36-7.84-14.67-1.73-18.82-8.2-.475-.824-.724-1.759-.72-2.71-.06-.65-.32-.75-2.1-.54-2.07.23-2.4 2.6-3.66 3.4-.4.26-1 .36-.83 1.33.48 2.45 1.92 1.84 3 2.74 16.45 13.8 17.28 39.52-11 54.93-3.12 1.7-5 5.26-5.83 6-.63.57-.4 1.95 0 2.63s1.37.56 1.88.94c2.214 1.519 4.856 2.289 7.54 2.2 39.9-2.6 42.4-51.6 30.54-62.73zm28.42 99.22c8.36-7.84 14.66-1.73 18.82-8.2.47-.822.719-1.753.72-2.7.05-.65.3-.75 2.1-.55 2.07.24 2.4 2.6 3.66 3.4.4.25 1 .35.83 1.32-.48 2.45-1.92 1.85-3 2.75-16.45 13.8-17.28 39.5 11 54.92 3.12 1.7 5 5.27 5.82 6 .63.57.4 1.95 0 2.63s-1.36.56-1.88.93c-2.211 1.526-4.856 2.297-7.54 2.2-39.88-2.58-42.38-51.6-30.53-62.7zm-170.28-5.74c8.36-7.84 14.66-1.73 18.82-8.2.475-.824.724-1.759.72-2.71.06-.64.32-.75 2.1-.54 2.07.24 2.4 2.6 3.66 3.4.4.26 1 .36.83 1.33-.48 2.45-1.92 1.85-3 2.74-16.45 13.8-17.28 39.52 11 54.93 3.12 1.7 5 5.27 5.82 6 .64.57.4 1.95 0 2.63s-1.37.57-1.88.94c-2.215 1.519-4.856 2.289-7.54 2.2-39.88-2.6-42.38-51.6-30.53-62.72zm110.32 222c8.36-7.84 14.67-1.73 18.82-8.2.475-.824.724-1.759.72-2.71.06-.65.32-.75 2.1-.55 2.07.24 2.4 2.6 3.66 3.4.4.26 1 .35.83 1.33-.5 2.45-1.93 1.84-3 2.74-16.45 13.8-17.3 39.5 11 54.93 3.12 1.7 5 5.26 5.82 6 .63.57.4 1.95 0 2.63s-1.36.56-1.88.94c-2.214 1.52-4.856 2.291-7.54 2.2-39.88-2.6-42.34-51.6-30.54-62.73zm324.95-225.1c-7.47-8.7-14.4-3.3-17.84-10.16-.38-.871-.524-1.826-.42-2.77 0-.65-.24-.78-2-.77-2.08 0-2.65 2.33-4 3-.43.22-1.05.25-1 1.24.22 2.48 1.72 2 2.7 3 14.87 15.47 13 41.14-16.8 53.44-3.3 1.35-5.52 4.7-6.44 5.36-.7.5-.6 1.9-.25 2.62s1.3.7 1.77 1.13c2.036 1.751 4.581 2.803 7.26 3 39.9 1.7 47.63-46.75 37.04-59.1zm97.1-133.88c2.84-11.1 11.45-9.33 11.48-17-.04-.949-.34-1.87-.85-2.67-.3-.58-.13-.8 1.5-1.6 1.87-.9 3.4.9 4.9.9.48 0 1-.25 1.4.68.9 2.32-.63 2.6-1 3.9-6.47 20.47 6.63 42.62 38.76 40.45 3.54-.24 7 1.77 8.14 1.95.84.15 1.4 1.44 1.4 2.24s-.85 1.2-1.08 1.8c-1.05 2.469-2.87 4.537-5.18 5.9-35.08 19.17-63.5-20.84-59.47-36.58zm-4.12 179.86c8.5-7.7 14.7-1.48 19-7.88.48-.815.74-1.743.76-2.69.07-.65.33-.75 2.12-.5 2.06.27 2.35 2.64 3.6 3.46.4.27 1 .38.8 1.35-.53 2.44-2 1.8-3 2.7-16.68 13.5-17.94 39.22 10.07 55.1 3.1 1.75 4.9 5.35 5.72 6.12.62.58.36 2-.07 2.63s-1.38.54-1.9.9c-2.24 1.487-4.89 2.216-7.57 2.08-39.9-3.28-41.57-52.33-29.54-63.25zm-170.4 131.1c8.5-7.7 14.7-1.48 19-7.88.483-.815.745-1.743.76-2.69.07-.65.33-.75 2.12-.5 2.06.27 2.35 2.64 3.6 3.46.4.27 1 .38.8 1.35-.52 2.44-1.95 1.8-3 2.7-16.68 13.5-17.94 39.22 10.07 55.1 3.1 1.75 4.9 5.35 5.72 6.12.62.58.36 2-.07 2.63s-1.38.54-1.9.9c-2.238 1.488-4.896 2.218-7.58 2.08-39.84-3.28-41.55-52.33-29.52-63.25zm519.46 58.72c8.5-7.7 14.7-1.48 19-7.88.48-.815.74-1.743.76-2.69.07-.65.33-.75 2.1-.52 2.07.28 2.36 2.65 3.6 3.47.4.26 1 .37.8 1.34-.52 2.44-2 1.82-3 2.7-16.68 13.52-17.94 39.22 10.07 55.1 3.1 1.75 4.9 5.35 5.72 6.12.62.58.36 1.95-.07 2.63s-1.38.54-1.9.9c-2.24 1.486-4.9 2.212-7.58 2.07-39.87-3.27-41.55-52.32-29.52-63.24zm-317.15-539.7c-3.66-10.86-12.1-8.46-12.7-16.12-.03-.9484.2-1.8874.65-2.72.26-.6.07-.82-1.6-1.48-1.93-.77-3.34 1.16-4.83 1.27-.48 0-1.07-.17-1.36.78-.73 2.38.82 2.53 1.34 3.83 8 19.93-3.47 43-35.67 43.2-3.55 0-6.88 2.28-8 2.55-.83.2-1.27 1.53-1.22 2.33s.94 1.14 1.22 1.72c1.229 2.3858 3.192 4.3137 5.6 5.5 36.36 16.55 61.76-25.44 56.58-40.85zm107.16 160.44c9.35-6.62 14.76.3 19.76-5.55.58-.749.95-1.64 1.08-2.58.15-.63.42-.7 2.16-.25 2 .52 2 2.9 3.16 3.87.36.3 1 .5.64 1.43-.8 2.36-2.16 1.57-3.34 2.3-18.17 11.4-22.52 36.78 3.38 55.9 2.86 2.12 4.22 5.9 4.95 6.77.55.65.12 2-.4 2.6s-1.43.37-2 .67c-2.4 1.203-5.12 1.606-7.77 1.15-39.1-8.04-34.9-56.93-21.63-66.33zm253.1-127.85c-3.66-10.86-12.1-8.46-12.7-16.13-.02-.9476.2-1.8847.65-2.72.26-.6.08-.8-1.6-1.48-1.93-.77-3.34 1.16-4.83 1.27-.48 0-1.07-.17-1.36.78-.73 2.4.82 2.54 1.34 3.83 8 19.93-3.47 43-35.67 43.2-3.55 0-6.88 2.28-8 2.55-.82.2-1.27 1.53-1.22 2.33s.94 1.14 1.22 1.7c1.23 2.39 3.19 4.322 5.6 5.51 36.37 16.55 61.76-25.45 56.58-40.85zm-50.35 217.05c-3.65-10.86-12.1-8.46-12.7-16.12-.03-.948.19-1.887.65-2.72.25-.6.07-.82-1.6-1.48-1.94-.77-3.34 1.16-4.84 1.27-.47 0-1.06-.17-1.36.78-.73 2.38.83 2.53 1.34 3.83 8 19.93-3.47 43-35.66 43.2-3.56 0-6.9 2.28-8 2.55-.83.2-1.28 1.53-1.22 2.33s.93 1.14 1.2 1.72c1.23 2.384 3.19 4.311 5.6 5.5 36.37 16.55 61.76-25.44 56.58-40.85zm-189.93 214.6c-3.65-10.87-12.1-8.46-12.7-16.13-.03-.948.2-1.887.65-2.72.25-.6.07-.8-1.6-1.48-1.93-.77-3.34 1.16-4.83 1.27-.48 0-1.07-.17-1.36.78-.74 2.38.82 2.53 1.34 3.83 8 19.93-3.47 43-35.67 43.2-3.56 0-6.88 2.28-8 2.55-.83.2-1.27 1.53-1.22 2.33s.93 1.15 1.2 1.72c1.23 2.386 3.19 4.314 5.6 5.5 36.37 16.55 61.76-25.45 56.58-40.84zm232.9-62.77c-3.66-10.87-12.1-8.47-12.7-16.13-.03-.947.19-1.884.64-2.72.26-.6.08-.8-1.6-1.48-1.94-.77-3.34 1.16-4.84 1.27-.47 0-1.07-.17-1.36.78-.73 2.38.82 2.53 1.34 3.83 8 19.93-3.47 43-35.67 43.2-3.55 0-6.88 2.28-8 2.55-.82.2-1.27 1.53-1.22 2.33s.94 1.14 1.22 1.72c1.23 2.388 3.19 4.317 5.6 5.5 36.37 16.55 61.76-25.44 56.58-40.84zm149.48-244.53c5.24-10.2 13.23-6.56 15-14.05.17-.931.09-1.891-.23-2.78-.16-.63 0-.82 1.8-1.23 2-.47 3.13 1.65 4.6 2 .47.1 1.08 0 1.23 1 .37 2.47-1.2 2.4-1.9 3.6-10.85 18.52-3 43 28.82 48 3.5.55 6.46 3.28 7.5 3.7.8.33 1 1.7.86 2.5s-1.1 1-1.45 1.5c-1.57 2.179-3.81 3.795-6.37 4.61-38.4 10.92-57.24-34.4-49.85-48.85zm304.7 290.8c5.23-10.2 13.23-6.56 15-14 .16-.935.08-1.897-.24-2.79-.16-.63 0-.82 1.8-1.22 2-.48 3.13 1.64 4.6 2 .47.1 1.1 0 1.23 1 .37 2.47-1.2 2.4-1.9 3.6-10.86 18.52-3 43 28.8 48 3.5.55 6.46 3.28 7.5 3.7.78.33 1 1.7.86 2.5s-1.1 1-1.46 1.52c-1.58 2.171-3.8 3.782-6.36 4.6-38.45 10.88-57.28-34.4-49.85-48.9zm-125.65-417.72c-9.2-6.84-14.76 0-19.63-6-.56-.7665-.9-1.667-1-2.61-.13-.64-.4-.7-2.16-.3-2 .47-2.08 2.86-3.24 3.8-.37.3-1 .47-.68 1.4.77 2.38 2.13 1.62 3.3 2.38 17.92 11.82 21.7 37.28-4.63 55.83-2.9 2-4.35 5.8-5.1 6.65-.56.64-.17 2 .33 2.6s1.42.4 2 .7c2.37 1.263 5.08 1.73 7.74 1.33 39.25-7.15 36.13-56.12 23.08-65.8zm83.83 252.7c-9.2-6.83-14.77 0-19.64-6-.56-.764-.9-1.661-1-2.6-.13-.64-.4-.7-2.16-.3-2 .47-2.08 2.85-3.24 3.8-.37.3-1 .47-.67 1.4.76 2.38 2.12 1.62 3.28 2.38 17.92 11.82 21.7 37.28-4.63 55.83-2.9 2.05-4.35 5.8-5.1 6.65-.56.64-.17 2 .33 2.6s1.42.4 2 .7c2.37 1.266 5.09 1.729 7.74 1.32 39.2-7.14 36.13-56.12 23.1-65.8zm217.22 244.82c-9.2-6.84-14.77 0-19.63-6-.56-.767-.9-1.667-1-2.61-.13-.63-.4-.7-2.15-.3-2 .47-2.08 2.86-3.25 3.8-.37.3-1 .47-.67 1.42.76 2.37 2.12 1.6 3.3 2.38 17.9 11.82 21.68 37.28-4.64 55.82-2.9 2.05-4.35 5.8-5.1 6.65-.57.64-.17 2 .32 2.6s1.42.4 2 .72c2.37 1.256 5.09 1.718 7.74 1.32 39.25-7.1 36.13-56.1 23.08-65.8zm102.8-310.46c-3.65-10.86-12.1-8.46-12.7-16.13-.03-.947.2-1.884.64-2.72.26-.6.08-.8-1.6-1.48-1.94-.77-3.34 1.16-4.84 1.27-.47 0-1.07-.17-1.36.78-.73 2.4.82 2.54 1.34 3.83 8 19.93-3.47 43-35.67 43.2-3.55 0-6.88 2.28-8 2.55-.82.2-1.27 1.53-1.22 2.33s.94 1.14 1.22 1.7c1.23 2.388 3.19 4.319 5.6 5.51 36.37 16.55 61.76-25.45 56.58-40.85zm338-208.54c-3.66-10.86-12.1-8.46-12.7-16.12-.03-.9475.19-1.8866.64-2.72.26-.6.08-.82-1.6-1.48-1.94-.77-3.34 1.16-4.84 1.27-.47 0-1.07-.17-1.36.77-.73 2.4.82 2.54 1.34 3.83 8 19.94-3.47 43-35.67 43.2-3.55 0-6.88 2.28-8 2.55-.82.2-1.27 1.53-1.22 2.33s.94 1.14 1.22 1.7c1.23 2.39 3.19 4.322 5.6 5.51 36.37 16.55 61.76-25.44 56.58-40.85zm207.4 152.63c-3.66-10.86-12.1-8.46-12.7-16.12-.02-.948.2-1.886.65-2.72.26-.6.08-.82-1.6-1.48-1.93-.77-3.33 1.16-4.83 1.27-.48 0-1.07-.17-1.36.77-.73 2.4.82 2.54 1.34 3.83 8 19.94-3.47 43-35.67 43.2-3.55 0-6.88 2.28-8 2.55-.82.2-1.27 1.53-1.22 2.33s.94 1.14 1.22 1.72c1.23 2.386 3.19 4.314 5.6 5.5 36.37 16.55 61.76-25.44 56.58-40.85zm290.03-145.67c-3.66-10.86-12.1-8.46-12.7-16.12-.03-.9506.19-1.8926.64-2.73.26-.6.08-.8-1.6-1.47-1.94-.77-3.34 1.16-4.84 1.27-.48 0-1.07-.17-1.36.77-.73 2.4.82 2.54 1.34 3.83 8 19.93-3.47 43-35.67 43.2-3.55 0-6.88 2.28-8 2.55-.82.2-1.27 1.53-1.22 2.33s.94 1.14 1.22 1.7c1.23 2.39 3.19 4.322 5.6 5.51 36.37 16.55 61.76-25.44 56.58-40.85zm-563.83 393.74c-3.65-10.87-12.1-8.47-12.7-16.13-.03-.948.2-1.887.65-2.72.25-.6.07-.8-1.6-1.48-1.93-.77-3.34 1.16-4.83 1.27-.48 0-1.07-.17-1.36.78-.73 2.38.82 2.53 1.34 3.83 8 19.93-3.47 43-35.67 43.2-3.56 0-6.88 2.28-8 2.55-.83.2-1.27 1.53-1.22 2.33s.93 1.14 1.2 1.72c1.23 2.384 3.19 4.311 5.6 5.5 36.37 16.52 61.77-25.47 56.58-40.84zm-406.34-72.58c8.3-7.9 14.65-1.83 18.76-8.33.47-.826.71-1.761.7-2.71.05-.65.3-.75 2.1-.56 2.07.22 2.42 2.6 3.7 3.38.4.25 1 .35.84 1.32-.47 2.46-1.92 1.86-3 2.77-16.35 13.9-17 39.63 11.38 54.85 3.13 1.67 5 5.22 5.87 6 .63.56.4 1.94 0 2.63s-1.37.57-1.88.95c-2.2 1.535-4.84 2.323-7.52 2.25-39.86-2.35-42.7-51.35-30.94-62.55zm325.62 191.08c8.3-7.9 14.65-1.83 18.76-8.33.47-.826.71-1.761.7-2.71.05-.64.3-.75 2.1-.56 2.07.23 2.4 2.6 3.68 3.38.4.25 1 .35.84 1.32-.46 2.46-1.9 1.86-3 2.77-16.35 13.9-17 39.63 11.38 54.85 3.13 1.68 5 5.23 5.86 6 .64.56.4 1.95 0 2.63s-1.36.57-1.87.95c-2.2 1.537-4.84 2.325-7.53 2.25-39.85-2.35-42.7-51.34-30.92-62.55zm283.04-532.5c8.3-7.9 14.66-1.84 18.77-8.33.46-.8279.7-1.7614.7-2.71.05-.65.3-.76 2.1-.56 2.07.22 2.4 2.58 3.68 3.37.4.26 1 .35.84 1.33-.47 2.45-1.9 1.86-3 2.76-16.35 13.9-17 39.64 11.37 54.85 3.14 1.68 5 5.23 5.87 6 .64.57.4 1.95 0 2.63s-1.36.57-1.87 1c-2.2 1.537-4.84 2.325-7.53 2.25-39.85-2.44-42.7-51.43-30.93-62.6zm140.1 315.78c8.3-7.9 14.65-1.84 18.76-8.33.47-.826.71-1.761.7-2.71.06-.65.32-.76 2.1-.56 2.07.22 2.42 2.58 3.7 3.38.4.25 1 .34.84 1.32-.47 2.45-1.92 1.86-3 2.76-16.35 13.9-17 39.64 11.38 54.85 3.13 1.68 5 5.23 5.87 6 .63.57.4 1.95 0 2.63s-1.36.57-1.88.95c-2.2 1.535-4.84 2.323-7.52 2.25-39.86-2.32-42.7-51.32-30.94-62.54zm102.55 270.94c-.17-11.46 8.6-12 6.6-19.44-.29-.902-.82-1.712-1.52-2.35-.44-.48-.34-.74 1-1.93 1.56-1.37 3.53 0 5-.4.46-.13 1-.52 1.54.28 1.48 2 .07 2.67 0 4.06-.87 21.44 17.6 39.38 48 28.85 3.36-1.16 7.25-.14 8.37-.25.85-.1 1.7 1 1.93 1.8s-.5 1.4-.58 2c-.36 2.662-1.57 5.137-3.45 7.06-28.73 27.73-66.66-3.38-66.9-19.66zm94-429.36c8.3-7.9 14.66-1.83 18.77-8.33.46-.827.71-1.761.7-2.71.05-.65.3-.75 2.1-.56 2.07.22 2.4 2.58 3.68 3.38.4.25 1 .35.84 1.32-.47 2.45-1.9 1.86-3 2.76-16.35 13.9-17 39.64 11.37 54.85 3.14 1.68 5 5.23 5.87 6 .63.57.4 1.95 0 2.63s-1.36.58-1.88.95c-2.2 1.543-4.84 2.335-7.52 2.26-39.85-2.35-42.7-51.35-30.93-62.55zm-997.47-140.01c3.66-10.86 12.1-8.46 12.7-16.12.02-.9479-.2-1.8855-.65-2.72-.26-.6-.08-.82 1.6-1.48 1.93-.77 3.34 1.16 4.83 1.27.48 0 1.07-.17 1.36.77.73 2.4-.82 2.54-1.34 3.84-8 19.93 3.47 43 35.67 43.2 3.55 0 6.88 2.28 8 2.55.82.2 1.27 1.53 1.22 2.33s-.94 1.14-1.22 1.72c-1.23 2.386-3.19 4.314-5.6 5.5-36.34 16.55-61.73-25.44-56.58-40.85z" fill="#43a140" opacity=".5"/><path d="m152.9 512.12c-3.23-16.48-16-14.6-15.36-25.86.146-1.382.649-2.702 1.46-3.83.48-.82.26-1.16-2-2.45-2.66-1.5-5.07 1-7.27.92-.7 0-1.52-.46-2.12.87-1.52 3.32.7 3.84 1.2 5.82 7.75 30.48-13.28 61.78-60.0999 55.9-5.17-.65-10.44 2-12.08 2.17-1.24.14-2.15 2-2.22 3.15-.07 1 1.14 1.84 1.43 2.73 1.3347 3.7 3.815 6.877 7.08 9.07 49.5999 31 94.5299-25.13 89.9599-48.5zm100.46-447.88c10.34-13.23 20.85-5.8 25.4-16.1.499-1.2987.647-2.7058.43-4.08-.06-1 .3-1.16 2.93-1.26 3.05-.12 4.05 3.23 6.06 4.1.64.28 1.56.28 1.5 1.73-.15 3.66-2.37 3.1-3.72 4.64-20.72 23.66-16.15 61.1 28.24 77.07 4.9 1.77 8.4 6.5 9.8 7.42 1 .68 1 2.73.55 3.8-.4.92-1.85 1.12-2.52 1.78-2.859 2.702-6.513 4.41-10.42 4.87-58.3 5.17-72.92-65.24-58.25-84zm-132.3-1.32c-13.13-10.46-21.6199-.8-28.4499-9.74-.7918-1.1456-1.2647-2.4813-1.37-3.87-.16-.94-.55-1.06-3.14-.55-3 .6-3.2 4.1-4.94 5.4-.56.42-1.45.64-1.06 2 1 3.52 3 2.46 4.7 3.65 25.6499 18.2 29.8999 55.67-9.56 81.52-4.35 2.85-6.65 8.28-7.8 9.48-.86.9-.35 2.9.35 3.84s2.06.66 2.86 1.15c3.4131 1.956 7.3621 2.769 11.27 2.32 57.8999-8.5 55.7599-80.37 37.1299-95.2zm412.5 426.16c-13.14-10.46-21.62-.8-28.46-9.74-.783-1.15-1.255-2.483-1.37-3.87-.16-.94-.55-1.06-3.14-.55-3 .6-3.2 4.1-4.94 5.4-.56.42-1.45.64-1.05 2 1 3.52 3 2.47 4.7 3.65 25.65 18.2 29.9 55.67-9.55 81.52-4.36 2.85-6.66 8.28-7.8 9.48-.85.9-.34 2.9.36 3.84s2.06.66 2.85 1.15c3.417 1.955 7.369 2.768 11.28 2.32 57.9-8.5 55.75-80.37 37.13-95.2zm79.64-343.28c5.35-15.92 17.73-12.4 18.6-23.63.044-1.394-.284-2.775-.95-4-.37-.87-.1-1.2 2.34-2.16 2.84-1.13 4.9 1.7 7.1 1.86.7 0 1.56-.25 2 1.14 1.07 3.5-1.2 3.7-2 5.6-11.68 29.2 5.08 63 52.26 63.3 5.2 0 10.08 3.34 11.7 3.74 1.2.3 1.87 2.24 1.8 3.4-.07 1-1.37 1.67-1.78 2.5-1.8 3.501-4.678 6.33-8.21 8.07-53.23 24.26-90.43-37.27-82.84-59.84zm216.38 214.2c-12.25-11.5-21.5-2.53-27.58-12-.68-1.222-1.025-2.602-1-4-.08-.95-.47-1.1-3.08-.8-3 .34-3.5 3.8-5.37 5-.6.38-1.5.53-1.2 1.95.7 3.6 2.82 2.7 4.38 4 24.1 20.2 25.32 57.9-16.1 80.48-4.57 2.5-7.3 7.72-8.54 8.83-.92.83-.58 2.86.05 3.85s2 .83 2.75 1.37c3.23 2.22 7.083 3.352 11 3.23 58.4-3.8 62.12-75.63 44.7-91.9zm109.86 180.62c12.25-11.5 21.5-2.54 27.58-12 .698-1.217 1.061-2.597 1.05-4 .1-.95.47-1.1 3.1-.8 3 .35 3.5 3.8 5.36 5 .6.38 1.5.52 1.2 1.95-.7 3.58-2.82 2.7-4.38 4-24.1 20.2-25.32 57.9 16.1 80.5 4.58 2.5 7.3 7.7 8.54 8.82.92.84.58 2.86 0 3.86-.53.84-2 .82-2.76 1.37-3.244 2.228-7.117 3.357-11.05 3.22-58.43-3.8-62.1-75.62-44.74-91.9zm248.63-433.62c-5.36-15.9-17.73-12.4-18.6-23.62-.04-1.3927.28-2.7724.94-4 .38-.88.1-1.2-2.34-2.17-2.83-1.13-4.9 1.7-7.08 1.86-.7 0-1.57-.25-2 1.14-1.07 3.5 1.2 3.72 2 5.6 11.67 29.2-5.08 63-52.26 63.3-5.2 0-10.1 3.34-11.7 3.74-1.2.3-1.86 2.25-1.78 3.42.06 1 1.37 1.67 1.78 2.5 1.8 3.496 4.67 6.321 8.2 8.06 53.23 24.23 90.44-37.3 82.85-59.84zm81.03 420.68c-10.94-12.74-21.1-4.82-26.13-14.9-.55-1.258-.76-2.636-.62-4 0-1-.35-1.14-3-1.13-3.05 0-3.9 3.42-5.87 4.4-.62.3-1.54.36-1.42 1.8.33 3.65 2.52 3 3.93 4.47 21.8 22.67 19 60.28-24.63 78.3-4.8 2-8.1 6.88-9.43 7.86-1 .73-.88 2.78-.37 3.83s1.9 1 2.6 1.66c2.98 2.565 6.71 4.104 10.63 4.39 58.5 2.4 69.83-68.6 54.3-86.67zm124.7-184.68c12.44-11.28 21.53-2.17 27.77-11.55.72-1.19 1.11-2.55 1.12-3.94.1-1 .5-1.1 3.1-.75 3 .4 3.45 3.87 5.28 5.08.58.38 1.5.54 1.18 2-.77 3.58-2.86 2.66-4.45 4-24.43 19.8-26.3 57.46 14.76 80.74 4.53 2.57 7.17 7.83 8.38 9 .9.86.53 2.87-.1 3.86s-2 .8-2.77 1.32c-3.28 2.163-7.17 3.215-11.1 3-58.33-4.92-60.8-76.76-43.16-92.76zm399.37 222.86c12.44-11.28 21.53-2.17 27.77-11.54.72-1.21 1.11-2.591 1.12-4 .1-1 .5-1.1 3.1-.75 3 .4 3.44 3.87 5.28 5.08.58.4 1.5.55 1.18 2-.77 3.57-2.86 2.65-4.45 3.94-24.43 19.8-26.3 57.47 14.75 80.74 4.53 2.57 7.18 7.84 8.4 9 .9.85.53 2.87-.1 3.85s-2 .8-2.78 1.33c-3.28 2.162-7.17 3.214-11.1 3-58.32-4.78-60.8-76.65-43.15-92.65zm-282.47-483.46c-5.35-15.92-17.73-12.4-18.6-23.63-.03-1.3987.32-2.7797 1-4 .37-.88.1-1.2-2.34-2.17-2.84-1.12-4.9 1.7-7.1 1.86-.7.05-1.56-.25-2 1.14-1.07 3.5 1.2 3.72 2 5.6 11.68 29.2-5.08 63-52.26 63.3-5.2 0-10.08 3.34-11.7 3.73-1.2.3-1.87 2.25-1.8 3.42.07 1 1.37 1.67 1.78 2.5 1.8 3.498 4.68 6.327 8.21 8.07 53.18 24.26 90.38-37.25 82.8-59.84zm265.48 53.1c13.7-9.7 21.63.42 29-8.13.85-1.098 1.4-2.403 1.58-3.78.22-.93.62-1 3.17-.38 2.95.76 2.95 4.26 4.63 5.68.53.45 1.4.72.94 2.1-1.2 3.46-3.17 2.3-4.9 3.38-26.64 16.73-33 53.9 5 81.93 4.2 3.1 6.18 8.64 7.25 9.9.8 1 .18 2.9-.57 3.8s-2.1.55-2.92 1c-3.52 1.764-7.5 2.353-11.38 1.68-57.42-11.78-51.24-83.43-31.8-97.2zm262.4-5.36c-5.35-15.92-17.73-12.4-18.6-23.63-.04-1.393.28-2.772.94-4 .38-.88.1-1.2-2.33-2.17-2.84-1.12-4.9 1.7-7.1 1.86-.7.05-1.56-.25-2 1.14-1.07 3.5 1.2 3.72 2 5.62 11.67 29.2-5.08 63-52.26 63.3-5.2 0-10.1 3.34-11.7 3.73-1.2.3-1.87 2.25-1.8 3.42.07 1 1.37 1.67 1.78 2.5 1.8 3.501 4.68 6.33 8.21 8.07 53.26 24.26 90.43-37.27 82.84-59.84zm-73.75 318.06c-5.36-15.9-17.74-12.4-18.62-23.62-.02-1.398.32-2.777 1-4 .38-.88.1-1.2-2.34-2.17-2.83-1.13-4.9 1.7-7.08 1.86-.7.05-1.57-.25-2 1.14-1.08 3.5 1.2 3.72 2 5.6 11.67 29.2-5.1 63-52.27 63.3-5.2 0-10.08 3.35-11.7 3.74-1.2.3-1.86 2.25-1.78 3.42.06 1 1.37 1.67 1.77 2.5 1.8 3.482 4.67 6.296 8.19 8.03 53.2 24.3 90.42-37.24 82.83-59.8zm282.03-135.87c7.68-14.94 19.4-9.6 21.94-20.58.24-1.37.13-2.779-.34-4.09-.24-.92.07-1.2 2.63-1.8 3-.7 4.6 2.4 6.73 2.9.68.15 1.6 0 1.8 1.42.54 3.62-1.75 3.5-2.78 5.26-15.9 27.13-4.4 63 42.22 70.4 5.14.8 9.47 4.8 11 5.44 1.16.47 1.5 2.5 1.26 3.64-.22 1-1.6 1.45-2.14 2.22-2.3 3.194-5.57 5.561-9.32 6.75-56.28 16.02-83.86-50.38-73-71.56zm262.32-185.97c-13.5-10-21.64 0-28.77-8.77-.83-1.118-1.35-2.436-1.5-3.82-.2-.93-.6-1-3.16-.44-3 .7-3.05 4.2-4.75 5.57-.55.44-1.43.7-1 2.07 1.12 3.48 3.1 2.36 4.8 3.5 26.26 17.32 31.78 54.62-6.78 81.8-4.26 3-6.38 8.5-7.47 9.74-.83.94-.25 2.9.48 3.82s2.08.6 2.9 1.05c3.47 1.847 7.45 2.527 11.34 1.94 57.58-10.48 53-82.25 33.9-96.45zm-16.98 394.78c-5.35-15.9-17.73-12.4-18.6-23.63-.04-1.392.28-2.771.94-4 .38-.87.1-1.2-2.33-2.16-2.84-1.13-4.9 1.7-7.1 1.86-.7 0-1.56-.25-2 1.14-1.07 3.5 1.2 3.7 2 5.6 11.67 29.2-5.08 63-52.26 63.3-5.2 0-10.1 3.34-11.7 3.74-1.2.3-1.87 2.24-1.8 3.4.07 1 1.37 1.68 1.78 2.52 1.8 3.496 4.68 6.322 8.21 8.06 53.23 24.27 90.43-37.27 82.84-59.84zm444.5-138.94c.5-16.8-12.35-17.77-9.28-28.6.44-1.317 1.22-2.496 2.26-3.42.66-.7.52-1.08-1.44-2.84-2.27-2-5.18-.1-7.3-.7-.67-.2-1.38-.78-2.26.38-2.22 2.9-.16 3.9-.1 5.94.84 31.44-26.57 57.34-70.94 41.3-4.9-1.77-10.62-.36-12.26-.54-1.24-.14-2.53 1.46-2.86 2.58-.28 1 .7 2 .8 3 .48 3.905 2.2 7.554 4.91 10.41 41.58 41.16 97.77-3.7 98.46-27.5zm-54.58 99.4c12.17-11.58 21.47-2.7 27.5-12.2.68-1.222 1.03-2.602 1-4 .08-1 .46-1.1 3.08-.82 3 .33 3.53 3.8 5.4 5 .6.37 1.5.5 1.23 1.94-.68 3.6-2.8 2.73-4.35 4-24 20.37-24.92 58.08 16.67 80.37 4.6 2.46 7.36 7.66 8.6 8.76.93.83.6 2.86 0 3.86s-2 .83-2.75 1.4c-3.22 2.247-7.07 3.403-11 3.3-58.42-3.4-62.6-75.18-45.35-91.6z" fill="#43a140"/><path d="m74.7002 248.7c16.53-22.7 34.4998-10.88 41.5398-28.35.94-2.34.74-4.32.5-6.84-.16-1.58.42-1.95 4.82-2.28 5.1-.37 6.95 5.17 10.36 6.52 1.1.43 2.63.4 2.6 2.82 0 6.1-3.78 5.32-5.94 8-33.2698 40.73-23.5 103 51.62 127.17 8.3 2.66 14.4 10.38 16.78 11.82 1.78 1.1 1.84 4.52 1.13 6.34-.6 1.56-3 2-4.1 3.12-4.623 4.68-10.629 7.748-17.13 8.75-97.1098 11.93-125.5998-104.87-102.1798-137.07zm593.5298 262.1c16.53-22.7 34.5-10.9 41.54-28.36.94-2.34.74-4.32.5-6.84-.16-1.58.42-1.95 4.82-2.28 5.1-.37 6.95 5.17 10.37 6.52 1.08.43 2.62.4 2.6 2.82 0 6.1-3.78 5.32-5.94 8-33.27 40.72-23.48 103 51.62 127.16 8.3 2.66 14.4 10.4 16.78 11.82 1.78 1.1 1.84 4.52 1.13 6.35-.6 1.55-3 2-4.1 3.1-4.628 4.678-10.636 7.746-17.14 8.75-97.11 11.96-125.61-104.84-102.18-137.04zm-103.5-372.74c-16.52-22.7-34.5-10.9-41.54-28.36-.94-2.34-.74-4.32-.5-6.83.16-1.6-.42-2-4.8-2.28-5.1-.38-7 5.16-10.37 6.5-1.1.44-2.62.4-2.6 2.82 0 6.12 3.8 5.32 5.95 8 33.26 40.73 23.48 103-51.63 127.16-8.3 2.67-14.4 10.4-16.77 11.83-1.78 1.08-1.85 4.5-1.14 6.34.6 1.56 3 2 4.1 3.1 4.628 4.678 10.637 7.746 17.14 8.75 97.1 11.95 125.6-104.86 102.17-137.05zm539.95-52.53c-9-26.6-29.65-20.73-31.12-39.5-.2-2.52.6-4.35 1.58-6.67.63-1.47.18-2-3.9-3.62-4.74-1.9-8.18 2.84-11.84 3.1-1.17.08-2.62-.42-3.33 1.9-1.8 5.85 2 6.2 3.28 9.38 19.5 48.88-8.51 105.34-87.35 105.88-8.7.06-16.86 5.6-19.55 6.25-2 .5-3.12 3.75-3 5.7.1 1.67 2.3 2.8 3 4.2 3.011 5.85 7.82 10.579 13.72 13.49 89 40.5 151.2-62.38 138.5-100.12zm169.87 234.9c-9-26.6-29.65-20.73-31.12-39.5-.2-2.52.6-4.35 1.58-6.67.63-1.47.18-2-3.9-3.62-4.74-1.9-8.18 2.83-11.85 3.1-1.16.1-2.6-.4-3.33 1.9-1.8 5.85 2 6.2 3.28 9.38 19.52 48.83-8.5 105.33-87.38 105.83-8.7.05-16.86 5.58-19.55 6.25-2 .5-3.12 3.75-3 5.7.1 1.67 2.3 2.8 3 4.2 3.01 5.854 7.82 10.587 13.72 13.5 89 40.56 151.24-62.33 138.55-100.07zm304.23-182.03c9-26.6 29.65-20.73 31.12-39.5.2-2.5-.6-4.35-1.58-6.67-.63-1.46-.18-2 3.9-3.62 4.74-1.88 8.18 2.84 11.85 3.1 1.16.1 2.6-.42 3.33 1.9 1.8 5.84-2 6.2-3.28 9.38-19.52 48.83 8.5 105.33 87.38 105.83 8.7 0 16.86 5.58 19.55 6.25 2 .5 3.12 3.75 3 5.7-.1 1.67-2.3 2.8-3 4.2-3.02 5.846-7.83 10.571-13.73 13.48-89.02 40.55-151.22-62.3-138.54-100.05zm754.87-48.6c-9-26.6-29.65-20.73-31.12-39.5-.2-2.52.6-4.35 1.58-6.67.63-1.46.2-2-3.9-3.62-4.74-1.88-8.18 2.84-11.84 3.1-1.17.1-2.62-.42-3.33 1.9-1.8 5.85 2 6.22 3.28 9.4 19.5 48.83-8.5 105.32-87.4 105.83-8.7 0-16.86 5.58-19.55 6.24-2 .5-3.12 3.76-3 5.7.1 1.67 2.3 2.8 3 4.2 3.01 5.852 7.82 10.581 13.72 13.49 89.04 40.55 151.26-62.33 138.56-100.07zm72.9 211.2c16.13-23 34.3-11.48 41-29.08.9-2.35.67-4.33.37-6.84-.18-1.58.4-2 4.78-2.36 5.08-.47 7 5 10.48 6.33 1.1.4 2.63.34 2.65 2.77.06 6.12-3.7 5.4-5.8 8.07-32.55 41.3-21.68 103.42 53.83 126.25 8.34 2.52 14.6 10.13 17 11.53 1.8 1 1.93 4.48 1.25 6.32-.58 1.57-3 2-4 3.2-4.55 4.747-10.51 7.902-17 9-96.9 13.7-127.42-102.6-104.56-135.18zm-172.23 222.4c-9-26.6-29.65-20.73-31.13-39.5-.2-2.52.6-4.35 1.6-6.67.63-1.47.18-2-3.9-3.62-4.74-1.9-8.2 2.84-11.85 3.1-1.16.08-2.62-.42-3.33 1.9-1.8 5.85 2 6.2 3.28 9.38 19.52 48.84-8.5 105.33-87.38 105.83-8.7.06-16.87 5.6-19.55 6.25-2 .5-3.12 3.75-3 5.7.1 1.67 2.3 2.8 3 4.2 3.01 5.851 7.83 10.579 13.73 13.49 89 40.54 151.2-62.33 138.53-100.06z" fill="#439e3e" opacity=".8"/><path d="m412.53 392.73c-36.07-107.23-119.46-83.53-125.4-159.18-.8-10.14 2.38-17.52 6.38-26.87 2.53-5.9.74-8-15.76-14.6-19.1-7.6-33 11.44-47.72 12.53-4.7.34-10.55-1.7-13.42 7.67-7.22 23.56 8.12 25 13.22 37.8 78.63 196.74-34.25 424.37-352.1 426.4-35.08.22-67.94 22.5-78.77 25.17-8.16 2-12.56 15.12-12 23 .45 6.73 9.24 11.28 12 16.94 14.22 29.3 41.23 47.92 55.3 54.33 358.73 163.4 609.4-251.15 558.26-403.2zm336.47-143.83c87.36 71.87 145.57 7.62 190.64 68.67 6 8.18 7.26 16.12 8.82 26.17 1 6.35 3.62 7.2 21.1 4 20.23-3.66 21.9-27.15 33.86-35.9 3.8-2.77 9.84-4.15 7.32-13.6-6.35-23.8-20.14-16.94-31.23-25.08-170.87-125.3-195.6-378.15 73-548.13 29.64-18.76 45.72-55.06 53.5-63.06 5.86-6 2.65-19.47-2-25.88-3.94-5.47-13.8-4.68-19.13-8-27.58-17.33-60.35-18.84-75.68-16.83-390.92 51.34-384.13 535.74-260.2 637.64zm1928.55-93.9c25.23 110.28 110.56 95 108.94 170.86-.22 10.17-4.1 17.2-9 26.1-3.1 5.63-1.54 7.9 14.23 16.08 18.25 9.46 33.94-8.1 48.73-7.72 4.7.13 10.33 2.73 14.1-6.3 9.53-22.73-5.58-25.72-9.4-38.94-58.68-203.6 76.28-418.85 392.75-389.25 34.93 3.26 69.84-15.64 80.9-17.22 8.3-1.2 14-13.8 14.26-21.7.22-6.74-8.07-12.14-10.24-18-11.24-30.57-36.26-51.8-49.62-59.57-340.78-198.24-631.43 189.30999-595.65 345.66zm-559.3 52.64c-80.56 79.43-144.3 20.66-183.7 85.5-5.3 8.7-5.8 16.7-6.43 26.86-.4 6.42-3 7.5-20.65 5.9-20.47-1.83-24.26-25.08-36.94-32.7-4-2.42-10.17-3.25-8.5-12.9 4.18-24.28 18.54-18.68 28.85-27.78 158.92-140.12 160.86-394.18-121.88-539.37-31.2-16-50.48-50.73-59-58-6.37-5.47-4.38-19.16-.36-26 3.43-5.8 13.33-5.9 18.34-9.7 25.9-19.73 58.4-24.18 73.86-23.55 393.96 16.1 430.66 499.1 316.41 611.74zm-443.07 144.1c-78.54-81.42-143.73-24.27-181.5-90.1-5.06-8.82-5.36-16.84-5.75-27-.25-6.42-2.77-7.56-20.5-6.42-20.5 1.32-24.88 24.46-37.75 31.76-4.1 2.33-10.25 3-8.83 12.68 3.57 24.4 18.06 19.15 28.15 28.5 155.36 144.07 150.92 398.1-135.4 536.14-31.6 15.24-51.74 49.45-60.38 56.5-6.5 5.3-4.86 19-1 25.94 3.28 5.88 13.17 6.22 18.08 10.16 25.4 20.37 57.8 25.63 73.25 25.4 394.2-6.14 443-488.1 331.63-603.57zm1103.87 196.26c-36.07-107.23-119.46-83.53-125.4-159.18-.8-10.14 2.38-17.52 6.38-26.87 2.53-5.9.74-8-15.76-14.6-19.1-7.6-33 11.44-47.72 12.53-4.7.34-10.55-1.7-13.42 7.67-7.23 23.56 8.12 25 13.22 37.8 78.63 196.74-34.25 424.37-352.1 426.4-35.08.22-67.93 22.5-78.77 25.17-8.15 2-12.55 15.12-12 23 .45 6.73 9.24 11.28 12 16.94 14.22 29.3 41.22 47.93 55.3 54.33 358.76 163.44 609.42-251.1 558.27-403.2z" fill="#429e3f"/></g></svg>