<svg fill="none" height="700" viewBox="0 0 3000 700" width="3000" xmlns="http://www.w3.org/2000/svg"><clipPath id="a"><path d="M0 0h3000v700H0z"/></clipPath><g clip-path="url(#a)"><path d="M0 0h3000v700H0z" fill="#42a641"/><g fill="#43a140" opacity=".5"><path d="M147 7h-37a5 5 0 0 0-4 4v41l9-9h32a5 5 0 0 0 4-4V11a5 5 0 0 0-4-4zM73 204H36a5 5 0 0 0-4 5v41l9-9h32a5 5 0 0 0 4-5v-27a5 5 0 0 0-4-5zm311 290h-37a5 5 0 0 0-4 5v40l9-9h32a5 5 0 0 0 4-4v-27a5 5 0 0 0-4-5zm-230 92h-36a5 5 0 0 0-5 5v41l9-9h32a5 5 0 0 0 4-5v-27a5 5 0 0 0-4-5zM381 253h-37a5 5 0 0 0-4 5v41l9-9h32a5 5 0 0 0 4-5v-27a5 5 0 0 0-4-5zM569 311h-37a5 5 0 0 0-4 5v40l9-9h32a5 5 0 0 0 4-4v-27a5 5 0 0 0-4-5zM692 548h-37a5 5 0 0 0-4 4v41l9-9h32a5 5 0 0 0 4-5v-27a5 5 0 0 0-4-4zM523 643h-36a5 5 0 0 0-5 5v40l9-9h32a5 5 0 0 0 5-4v-27a5 5 0 0 0-5-5zM831 327h-36a5 5 0 0 0-4 5v41l9-9h31a5 5 0 0 0 5-5v-27a5 5 0 0 0-5-5zM988 57h-36a5 5 0 0 0-4 4v41l9-9h31a5 5 0 0 0 5-5V61a5 5 0 0 0-5-4zM1073 297h-37a5 5 0 0 0-4 4v41l9-9h32a5 5 0 0 0 4-5v-27a5 5 0 0 0-4-4zM1236 70h-36a5 5 0 0 0-5 4v41l9-9h32a5 5 0 0 0 5-5V74a5 5 0 0 0-5-4zm165 45h-36a5 5 0 0 0-5 5v40l9-9h32a5 5 0 0 0 4-4v-27a5 5 0 0 0-4-5zm11 385h-36a5 5 0 0 0-5 5v40l9-9h32a5 5 0 0 0 4-4v-27a5 5 0 0 0-4-5zm-120 13h-36a5 5 0 0 0-5 5v41l10-9h31a5 5 0 0 0 5-5v-27a5 5 0 0 0-5-5zm310 79h-36a5 5 0 0 0-5 5v41l9-9h32a5 5 0 0 0 5-5v-27a5 5 0 0 0-5-5zM1174 363h-36a5 5 0 0 0-4 5v40l9-9h31a5 5 0 0 0 5-4v-27a5 5 0 0 0-5-5zM1565 403h-36a5 5 0 0 0-5 5v40l9-9h32a5 5 0 0 0 5-4v-27a5 5 0 0 0-5-5zM1479 337h-36a5 5 0 0 0-5 5v41l9-9h32a5 5 0 0 0 5-5v-27a5 5 0 0 0-5-5zM1588 157h-37a5 5 0 0 0-4 4v41l9-9h32a5 5 0 0 0 4-4v-28a5 5 0 0 0-4-4zM1689 307h-37a5 5 0 0 0-4 5v41l9-9h32a5 5 0 0 0 4-5v-27a5 5 0 0 0-4-5zM1905 269h-36a5 5 0 0 0-5 5v41l9-9h32a5 5 0 0 0 4-5v-27a5 5 0 0 0-4-5zM1936 520h-36a5 5 0 0 0-5 4v41l9-9h32a5 5 0 0 0 5-5v-27a5 5 0 0 0-5-4zM2073 480h-36a5 5 0 0 0-4 4v41l9-9h31a5 5 0 0 0 5-4v-28a5 5 0 0 0-5-4zM2366 592h-36a5 5 0 0 0-5 5v41l9-9h32a5 5 0 0 0 5-5v-27a5 5 0 0 0-5-5zm-189-157h-36a5 5 0 0 0-5 4v41l9-9h32a5 5 0 0 0 5-5v-27a5 5 0 0 0-5-5zm150-108h-36a5 5 0 0 0-5 5v41l9-9h32a5 5 0 0 0 5-5v-27a5 5 0 0 0-5-5zM2488 353h-37a5 5 0 0 0-4 4v41l9-9h32a5 5 0 0 0 4-5v-27a5 5 0 0 0-4-4zM2540 22h-36a5 5 0 0 0-4 5v41l9-9h31a5 5 0 0 0 5-5V27a5 5 0 0 0-5-5zM2727 602h-37a5 5 0 0 0-4 5v40l9-9h32a5 5 0 0 0 4-4v-27a5 5 0 0 0-4-5zm223-575h-37a5 5 0 0 0-4 4v41l9-9h32a5 5 0 0 0 4-4V31l-1-3-3-1zM2949 615h-36a5 5 0 0 0-5 4v41l9-9h32a5 5 0 0 0 4-4v-28a5 5 0 0 0-4-4zM2117 315h-36a5 5 0 0 0-4 4v41l9-9h31a5 5 0 0 0 5-5v-27a5 5 0 0 0-5-4zm-376 287h-36a5 5 0 0 0-5 5v40l10-9h31a5 5 0 0 0 5-4v-27a5 5 0 0 0-5-5zm-489 26h-36a5 5 0 0 0-5 4v41l9-9h32a5 5 0 0 0 4-4v-28a5 5 0 0 0-4-4z" opacity=".5"/></g><path d="M168 85H43a9 9 0 0 0-9 10v84l19-19h115a9 9 0 0 0 10-9V95a9 9 0 0 0-10-10zm523-33H566a9 9 0 0 0-9 10v84l19-19h115a9 9 0 0 0 10-9V62a9 9 0 0 0-10-10zm133 188H699a9 9 0 0 0-10 9v84l19-18h116a9 9 0 0 0 9-10v-56a9 9 0 0 0-9-9zm673 323h-125a9 9 0 0 0-9 9v84l19-18h115a9 9 0 0 0 10-10v-56a9 9 0 0 0-10-9zm426-310h-125a9 9 0 0 0-10 9v85l19-19h116a9 9 0 0 0 9-9v-57a9 9 0 0 0-9-9zm-205-69h-125a9 9 0 0 0-9 9v84l19-18h115a9 9 0 0 0 10-10v-56a9 9 0 0 0-10-9zm855-87h-125a9 9 0 0 0-9 9v85l18-19h116a9 9 0 0 0 9-9v-57a9 9 0 0 0-9-9zm-411 481h-125a9 9 0 0 0-9 9v85l19-19h115a9 9 0 0 0 10-9v-57a9 9 0 0 0-10-9zm868-462h-125a9 9 0 0 0-9 9v85l19-19h115a9 9 0 0 0 10-9v-57a9 9 0 0 0-10-9zM1574 40h-125a9 9 0 0 0-9 9v84l19-18h115a9 9 0 0 0 10-10V49a9 9 0 0 0-10-9zm-206 339h-125a9 9 0 0 0-9 9v85l18-19h116a9 9 0 0 0 9-9v-57a9 9 0 0 0-9-9zm123-165h-125a9 9 0 0 0-10 9v84l19-18h116a9 9 0 0 0 9-10v-56a9 9 0 0 0-9-9z" fill="#43a140" opacity=".8"/><path d="M264 299H79a17 17 0 0 0-17 17v152l33-34h169a17 17 0 0 0 17-17V316c0-5-2-9-5-12s-8-5-12-5zM415 23H229a17 17 0 0 0-17 17v152l34-34h169c4 0 8-1 12-5s5-7 5-11V40c0-4-2-9-5-12s-8-5-12-5zm351 357H581a17 17 0 0 0-17 17v152l34-34h168c5 0 9-2 12-5s5-7 5-12V397c0-5-2-9-5-12s-7-5-12-5zm529-281h-185a17 17 0 0 0-17 17v152l34-34h168c5 0 9-1 12-5s5-7 5-11V116a17 17 0 0 0-17-17zm-178 387H931a17 17 0 0 0-17 17v152l34-34h169c4 0 8-2 12-5s5-7 5-12V503c0-5-2-9-5-12s-8-5-12-5zm699-70h-186a17 17 0 0 0-16 16v153l33-34h169c4 0 9-2 12-5s5-8 5-12V432c0-4-2-8-5-11s-8-5-12-5zm592 27h-185a17 17 0 0 0-17 17v152l34-34h168c5 0 9-2 12-5s5-7 5-12V460c0-5-2-9-5-12s-7-5-12-5zM1845-18h-186a17 17 0 0 0-16 17v152l33-34h169c4 0 8-1 12-4s5-8 5-12V-1a17 17 0 0 0-17-17zm991 43h-185a17 17 0 0 0-17 17v152l34-34h168c4 0 9-2 12-5s5-7 5-12V42c0-5-2-9-5-12s-8-5-12-5z" fill="#439e3e" opacity=".7"/><path d="M483 489H142a36 36 0 0 0-36 37v326l72-72h305a36 36 0 0 0 36-37V526a36 36 0 0 0-36-37zM880-86H539a36 36 0 0 0-36 36v327l72-73h305a36 36 0 0 0 36-36V-50a36 36 0 0 0-36-36zm1488 48h-340a36 36 0 0 0-36 37v326l72-72h304a36 36 0 0 0 37-37V-1a36 36 0 0 0-37-37zm561 291h-340a36 36 0 0 0-37 36v327l73-73h304a36 36 0 0 0 36-36V289a36 36 0 0 0-36-36z" fill="#429c3d"/></g></svg>