<svg fill="none" height="700" viewBox="0 0 3000 700" width="3000" xmlns="http://www.w3.org/2000/svg" xmlns:xlink="http://www.w3.org/1999/xlink"><clipPath id="a"><path d="m0 0h3000v700h-3000z"/></clipPath><g clip-path="url(#a)"><path d="m0 0h3000v700h-3000z" fill="#42a641"/><g fill="#43a140" opacity=".5"><path d="m146.62 6.90002h-36.28c-1.203.00527-2.354.48528-3.205 1.33555-.85.85028-1.33 2.00203-1.335 3.20443v40.82l9.07-9.07h31.75c1.203-.0026 2.356-.4818 3.207-1.3326.851-.8509 1.33-2.0041 1.333-3.2074v-27.2c-.005-1.2024-.485-2.35415-1.336-3.20443-.85-.85027-2.002-1.33028-3.204-1.33555z" opacity=".5"/><path d="m72.7701 204.42h-36.3c-1.198.021-2.3394.514-3.1763 1.371-.8369.858-1.3018 2.011-1.2937 3.209v40.82l9-9.1h31.77c1.2015-.005 2.3522-.486 3.2009-1.336.8487-.851 1.3265-2.002 1.3291-3.204v-27.18c.004-.598-.1102-1.192-.3358-1.746s-.5584-1.058-.9792-1.484c-.4207-.425-.9213-.763-1.473-.995s-1.1436-.352-1.742-.355zm310.8099 289.58h-36.28c-1.202.005-2.354.485-3.204 1.336-.851.85-1.331 2.002-1.336 3.204v40.8l9.08-9.07h31.74c1.202-.003 2.353-.48 3.204-1.329.85-.849 1.331-1.999 1.336-3.201v-27.2c0-1.205-.478-2.361-1.329-3.214s-2.006-1.333-3.211-1.336zm-229.66 92.47h-36.3c-1.2.005-2.349.484-3.197 1.333-.849.848-1.328 1.997-1.333 3.197v40.82l9.07-9.07h31.75c1.202-.005 2.352-.486 3.201-1.336.849-.851 1.326-2.002 1.329-3.204v-27.21c-.005-1.2-.484-2.349-1.333-3.197-.848-.849-1.997-1.328-3.197-1.333z" opacity=".5"/><path d="m380.6 253.4h-36.28c-1.201.003-2.353.48-3.204 1.329-.85.849-1.33 1.999-1.336 3.201v40.82l9.07-9.07h31.75c1.203-.005 2.354-.485 3.205-1.336.85-.85 1.33-2.001 1.335-3.204v-27.2c-.005-1.202-.485-2.352-1.336-3.201-.85-.849-2.002-1.326-3.204-1.329z" opacity=".5"/><path d="m568.5 311.07h-36.28c-1.204.003-2.357.482-3.208 1.333s-1.33 2.004-1.332 3.207v40.8l9.07-9.07h31.75c1.201-.003 2.353-.48 3.204-1.329.85-.849 1.33-1.999 1.336-3.201v-27.2c-.006-1.202-.486-2.354-1.336-3.204-.85-.851-2.002-1.331-3.204-1.336z" opacity=".5"/><path d="m691.8 547.7h-36.3c-1.2.005-2.349.484-3.198 1.333-.848.848-1.327 1.997-1.332 3.197v40.82l9.07-9.07h31.75c1.2-.005 2.349-.484 3.197-1.333.849-.848 1.328-1.997 1.333-3.197v-27.22c-.005-1.2-.484-2.349-1.333-3.197-.848-.849-1.997-1.328-3.197-1.333z" opacity=".5"/><path d="m523.16 643.14h-36.3c-1.201.005-2.352.486-3.201 1.336-.848.851-1.326 2.002-1.329 3.204v40.82l9.07-9.07h31.75c1.202-.005 2.352-.486 3.201-1.336.849-.851 1.326-2.002 1.329-3.204v-27.2c-.003-1.202-.48-2.353-1.329-3.204-.849-.85-1.999-1.331-3.201-1.336z" opacity=".5"/><path d="m831.371 327.32h-36.27c-1.204.003-2.357.482-3.208 1.333-.851.85-1.33 2.004-1.332 3.207v40.82l9.07-9.07h31.75c1.201-.005 2.352-.486 3.2-1.336.849-.851 1.327-2.002 1.33-3.204v-27.2c-.003-1.202-.481-2.353-1.33-3.204-.848-.85-1.999-1.331-3.2-1.336zm157.1-270.58h-36.3c-1.2.0053-2.349.4842-3.198 1.3326-.848.8484-1.327 1.9976-1.332 3.1974v40.82l9.07-9.1h31.75c1.198-.0026 2.346-.4776 3.196-1.322s1.333-1.9899 1.344-3.188v-27.2c-.006-1.2015-.486-2.3522-1.337-3.2009-.85-.8487-2.002-1.3265-3.203-1.3291z" opacity=".5"/><path d="m1072.53 296.54h-36.3c-1.2.005-2.35.484-3.2 1.333-.85.848-1.32 1.997-1.33 3.197v40.82l9.07-9.07h31.75c1.2-.005 2.35-.484 3.2-1.333.85-.848 1.32-1.997 1.33-3.197v-27.22c-.01-1.2-.48-2.349-1.33-3.197-.85-.849-2-1.328-3.2-1.333z" opacity=".5"/><path d="m1236.22 69.66h-36.28c-1.2.0053-2.35.4856-3.2 1.3362s-1.33 2.0023-1.33 3.2038v40.8l9.07-9.07h31.74c1.2-.005 2.35-.485 3.2-1.336.85-.85 1.33-2.002 1.34-3.204v-27.19c0-1.2032-.48-2.3565-1.33-3.2073-.85-.8509-2.01-1.33-3.21-1.3327zm164.68 45.34h-36.28c-1.2.003-2.35.48-3.2 1.329s-1.33 1.999-1.34 3.201v40.82l9.07-9.07h31.75c1.2-.003 2.36-.482 3.21-1.333.85-.85 1.33-2.004 1.33-3.207v-27.2c0-1.205-.48-2.361-1.33-3.214s-2-1.333-3.21-1.336zm10.97 385.1h-36.28c-1.2.003-2.35.48-3.2 1.329s-1.33 1.999-1.34 3.201v40.82l9.08-9.07h31.74c1.2-.003 2.35-.48 3.2-1.329s1.33-1.999 1.34-3.201v-27.22c-.01-1.202-.49-2.352-1.34-3.201s-2-1.326-3.2-1.329zm-119.6 13.3h-36.27c-1.2.003-2.35.48-3.2 1.329s-1.33 1.999-1.34 3.201v40.82l9.07-9.07h31.75c1.2-.005 2.35-.486 3.2-1.336.85-.851 1.33-2.002 1.33-3.204v-27.2c-.01-1.2-.48-2.349-1.33-3.197-.85-.849-2-1.328-3.2-1.333zm309.73 78.83h-36.28c-1.2.003-2.35.48-3.2 1.329s-1.33 1.999-1.34 3.201v40.82l9.07-9.07h31.75c1.2-.005 2.35-.486 3.2-1.336.85-.851 1.33-2.002 1.33-3.204v-27.2c-.01-1.2-.48-2.349-1.33-3.197-.85-.849-2-1.328-3.2-1.333z" opacity=".5"/><path d="m1174.37 363.13h-36.28c-1.2.003-2.35.48-3.2 1.329s-1.33 1.999-1.34 3.201v40.82l9.07-9.07h31.75c1.2-.005 2.35-.485 3.2-1.336.85-.85 1.33-2.002 1.34-3.204v-27.2c-.01-1.202-.49-2.352-1.34-3.201s-2-1.326-3.2-1.329z" opacity=".5"/><path d="m1565 403.12h-36.28c-1.2.005-2.35.486-3.2 1.336-.85.851-1.33 2.002-1.33 3.204v40.82l9.07-9.07h31.74c1.2-.003 2.36-.482 3.21-1.333.85-.85 1.33-2.004 1.33-3.207v-27.2c0-1.203-.48-2.357-1.33-3.207-.85-.851-2.01-1.33-3.21-1.333z" opacity=".5"/><path d="m1479.16 337.34h-36.28c-1.2.005-2.35.485-3.2 1.336-.85.85-1.33 2.002-1.34 3.204v40.82l9.07-9.07h31.75c1.2-.003 2.36-.482 3.21-1.333.85-.85 1.33-2.004 1.33-3.207v-27.2c-.01-1.202-.49-2.354-1.34-3.204-.85-.851-2-1.331-3.2-1.336z" opacity=".5"/><path d="m1587.7 156.86h-36.28c-1.2.003-2.36.482-3.21 1.333-.85.85-1.33 2.004-1.33 3.207v40.82l9.07-9.07h31.75c1.2-.005 2.35-.485 3.2-1.336.85-.85 1.33-2.002 1.34-3.204v-27.2c0-1.203-.48-2.357-1.33-3.207-.85-.851-2.01-1.33-3.21-1.333z" opacity=".5"/><path d="m1688.74 307.34h-36.3c-1.2.005-2.35.486-3.2 1.336-.85.851-1.33 2.003-1.33 3.204v40.82l9.07-9.07h31.75c1.2-.005 2.35-.486 3.2-1.336.85-.851 1.33-2.002 1.33-3.204v-27.2c0-1.201-.48-2.353-1.33-3.204-.85-.85-2-1.331-3.2-1.336z" opacity=".5"/><path d="m1904.86 269.3h-36.28c-1.2.003-2.36.482-3.21 1.333s-1.33 2.004-1.33 3.207v40.82l9.07-9.07h31.75c1.2-.003 2.36-.482 3.21-1.333.85-.85 1.33-2.004 1.33-3.207v-27.2c0-1.203-.48-2.356-1.33-3.207s-2.01-1.33-3.21-1.333z" opacity=".5"/><path d="m1936 519.74h-36.28c-1.2.003-2.35.48-3.2 1.329s-1.34 1.999-1.34 3.201v40.82l9.07-9.07h31.75c1.2-.005 2.35-.484 3.2-1.333.85-.848 1.32-1.997 1.33-3.197v-27.22c-.01-1.2-.48-2.349-1.33-3.197-.85-.849-2-1.328-3.2-1.333z" opacity=".5"/><path d="m2073.46 479.84h-36.28c-1.2.003-2.36.482-3.21 1.333s-1.33 2.004-1.33 3.207v40.82l9.07-9.07h31.75c1.2-.003 2.36-.482 3.21-1.333.85-.85 1.33-2.004 1.33-3.207v-27.2c0-1.203-.48-2.356-1.33-3.207s-2.01-1.33-3.21-1.333z" opacity=".5"/><path d="m2366.2 592.23h-36.28c-1.2.003-2.35.48-3.2 1.329s-1.33 2-1.34 3.201v40.82l9.07-9.07h31.75c1.2-.003 2.36-.482 3.21-1.333.85-.85 1.33-2.004 1.33-3.207v-27.2c-.01-1.201-.49-2.352-1.34-3.201s-2-1.326-3.2-1.329zm-189.14-157.73h-36.28c-1.2.003-2.35.48-3.2 1.329s-1.33 2-1.34 3.201v40.82l9.07-9.07h31.75c1.2-.003 2.35-.48 3.2-1.329s1.34-1.999 1.34-3.201v-27.25c-.01-1.198-.49-2.344-1.34-3.188s-2-1.319-3.2-1.322zm149.94-107.18h-36.3c-1.2.005-2.35.486-3.2 1.336-.85.851-1.33 2.003-1.33 3.204v40.82l9.07-9.07h31.76c1.2-.005 2.35-.486 3.2-1.336.85-.851 1.33-2.002 1.33-3.204v-27.2c0-1.201-.48-2.353-1.33-3.204-.85-.85-2-1.331-3.2-1.336z" opacity=".5"/><path d="m2487.6 352.7h-36.3c-1.2.005-2.35.484-3.2 1.333-.85.848-1.33 1.997-1.33 3.197v40.82l9.07-9.07h31.75c1.2-.005 2.35-.484 3.2-1.333.85-.848 1.32-1.997 1.33-3.197v-27.22c-.01-1.2-.48-2.349-1.33-3.197-.85-.849-2-1.328-3.2-1.333z" opacity=".5"/><path d="m2540.34 22.28h-36.28c-1.2.0027-2.36.4818-3.21 1.3327-.85.8508-1.33 2.004-1.33 3.2073v40.8l9.07-9.07h31.75c1.2-.0026 2.35-.4804 3.2-1.3291s1.33-1.9993 1.34-3.2009v-27.2c-.01-1.2025-.49-2.3542-1.34-3.2044-.85-.8503-2-1.3303-3.2-1.3356z" opacity=".5"/><path d="m2726.7 602.08h-36.28c-1.2.003-2.35.48-3.2 1.329-.86.849-1.34 1.999-1.34 3.201v40.82l9.07-9.07h31.75c1.2-.003 2.35-.48 3.2-1.329s1.33-1.999 1.34-3.201v-27.23c-.01-1.202-.49-2.352-1.34-3.201s-2-1.326-3.2-1.329zm222.82-575.34h-36.28c-1.2.0026-2.35.4804-3.2 1.3291-.86.8487-1.34 1.9994-1.34 3.2009v40.83l9.07-9.07h31.75c1.2-.0053 2.35-.4842 3.2-1.3326.84-.8484 1.32-1.9976 1.33-3.1974v-27.23c-.01-1.1998-.49-2.349-1.33-3.1974-.85-.8484-2-1.3273-3.2-1.3326z" opacity=".5"/><path d="m2948.84 614.9h-36.3c-1.2.005-2.35.486-3.2 1.336-.85.851-1.33 2.002-1.33 3.204v40.82l9.07-9.07h31.75c1.2-.005 2.35-.486 3.2-1.336.85-.851 1.33-2.002 1.33-3.204v-27.2c0-1.202-.48-2.353-1.33-3.204-.85-.85-2-1.331-3.2-1.336z" opacity=".5"/><path d="m2117.38 314.67h-36.3c-1.2.005-2.35.484-3.2 1.333-.85.848-1.32 1.997-1.33 3.197v40.8l9.07-9.07h31.75c1.2-.005 2.35-.484 3.2-1.333.85-.848 1.32-1.997 1.33-3.197v-27.2c-.01-1.2-.48-2.349-1.33-3.197-.85-.849-2-1.328-3.2-1.333zm-376.1 287.4h-36.28c-1.2.005-2.35.484-3.2 1.333-.85.848-1.33 1.997-1.33 3.197v40.82l9.07-9.07h31.74c1.2-.003 2.35-.48 3.2-1.329s1.33-1.999 1.34-3.201v-27.22c-.01-1.203-.49-2.355-1.34-3.204s-2.01-1.326-3.21-1.326zm-489.48 25.73h-36.3c-1.2.005-2.35.486-3.2 1.336-.85.851-1.33 2.003-1.33 3.204v40.8l9.07-9.07h31.75c1.2-.005 2.35-.484 3.2-1.333.85-.848 1.32-1.997 1.33-3.197v-27.2c0-1.201-.48-2.353-1.33-3.204-.85-.85-2-1.331-3.2-1.336z" opacity=".5"/></g><path d="m168.3 85.33h-125.0001c-2.4844.0052-4.8656.9938-6.6233 2.7496-1.7576 1.7558-2.7488 4.136-2.7567 6.6203v84.4001l18.75-18.75h115.6301c2.485-.008 4.866-.999 6.624-2.756 1.757-1.758 2.748-4.139 2.756-6.624v-56.2701c-.008-2.4843-.999-4.8645-2.757-6.6203-1.757-1.7558-4.139-2.7444-6.623-2.7496zm522.87-33.06h-125c-2.484.0079-4.865.999-6.62 2.7566-1.756 1.7577-2.745 4.139-2.75 6.6234v84.35l18.75-18.75h115.62c2.484-.008 4.864-.999 6.62-2.757 1.756-1.757 2.745-4.139 2.75-6.623v-56.22c-.005-2.4844-.994-4.8657-2.75-6.6234-1.756-1.7576-4.136-2.7487-6.62-2.7566zm132.46 187.33h-125c-2.485.008-4.867.999-6.624 2.756s-2.748 4.139-2.756 6.624v84.4l18.75-18.78h115.63c2.484-.005 4.866-.994 6.623-2.75 1.758-1.755 2.749-4.136 2.757-6.62v-56.23c0-2.491-.987-4.879-2.746-6.643-1.758-1.764-4.144-2.759-6.634-2.767zm673.75 323h-125c-2.49.005-4.88.998-6.63 2.76-1.76 1.762-2.75 4.15-2.75 6.64v84.4l18.75-18.75h115.64c2.48-.008 4.86-.999 6.62-2.757 1.76-1.757 2.74-4.139 2.75-6.623v-56.27c0-2.491-.98-4.882-2.74-6.646-1.76-1.765-4.15-2.759-6.64-2.764zm425.22-309.6h-125c-2.49.008-4.87.999-6.62 2.756-1.76 1.757-2.75 4.139-2.76 6.624v84.4l18.78-18.78h115.64c2.48-.008 4.86-.998 6.62-2.753 1.75-1.756 2.74-4.134 2.75-6.617v-56.3c-.02-2.483-1.01-4.858-2.77-6.608-1.77-1.75-4.15-2.732-6.63-2.732zm-204.35-69.42h-125c-2.48.008-4.86.999-6.62 2.757-1.76 1.757-2.74 4.139-2.75 6.623v84.38l18.75-18.75h115.64c2.48-.008 4.86-.999 6.62-2.757 1.76-1.757 2.74-4.139 2.75-6.623v-56.21c0-1.235-.24-2.459-.71-3.601s-1.16-2.18-2.03-3.055-1.91-1.57-3.05-2.044-2.36-.719-3.6-.72zm854.85-86.68h-125c-2.49.0079-4.87.9986-6.62 2.756-1.76 1.757-2.75 4.139-2.76 6.624v84.4l18.75-18.76h115.64c2.48-.008 4.86-.998 6.62-2.753 1.75-1.756 2.74-4.134 2.75-6.617v-56.25c-.01-2.486-1-4.869-2.75-6.6269-1.76-1.7579-4.14-2.7479-6.63-2.7532zm-410.7 480.97h-125c-2.48.008-4.86.999-6.62 2.757-1.76 1.757-2.74 4.139-2.75 6.623v84.4l18.75-18.76h115.64c2.48-.008 4.86-.998 6.62-2.753 1.75-1.756 2.74-4.134 2.75-6.617v-56.26c-.01-2.488-1-4.872-2.76-6.63-1.76-1.759-4.14-2.747-6.63-2.75zm868.05-461.8h-125c-2.49.008-4.87.999-6.62 2.756-1.76 1.757-2.75 4.139-2.76 6.624v84.38l18.75-18.75h115.64c2.48-.005 4.87-.994 6.62-2.75 1.76-1.755 2.75-4.136 2.76-6.62v-56.26c-.01-2.487-1-4.87-2.76-6.627-1.76-1.758-4.14-2.748-6.63-2.753zm-1456.05-76.37h-125c-2.48.0052-4.87.9938-6.62 2.7496-1.76 1.7558-2.75 4.136-2.76 6.6204v84.4l18.75-18.75h115.64c2.48-.008 4.86-.999 6.62-2.757 1.76-1.757 2.74-4.139 2.75-6.623v-56.26c-.01-2.4844-1-4.8646-2.76-6.6204-1.75-1.7558-4.14-2.7444-6.62-2.7497zm-206.35 339.22h-125.05c-2.48.008-4.86.998-6.62 2.753-1.75 1.756-2.74 4.134-2.75 6.617v84.4l18.75-18.75h115.62c2.49-.008 4.87-.999 6.62-2.756 1.76-1.758 2.75-4.139 2.76-6.624v-56.26c-.01-2.478-.99-4.852-2.74-6.606-1.75-1.755-4.12-2.748-6.6-2.764zm122.57-165.34h-125c-2.48.008-4.86.999-6.62 2.757-1.76 1.757-2.74 4.139-2.75 6.623v84.38l18.75-18.74h115.63c2.49-.008 4.87-.999 6.62-2.756 1.76-1.757 2.75-4.139 2.76-6.624v-56.2c0-2.494-.98-4.887-2.75-6.653-1.76-1.767-4.15-2.762-6.64-2.767z" fill="#43a140" opacity=".8"/><path d="m263.82 298.76h-185.2801c-4.4775.024-8.7649 1.813-11.9311 4.979-3.1661 3.166-4.9553 7.453-4.9789 11.931v152.18l33.82-33.85h168.3701c4.476-.024 8.762-1.811 11.927-4.975 3.166-3.164 4.957-7.449 4.983-11.925v-101.43c-.024-4.478-1.813-8.765-4.979-11.931s-7.454-4.955-11.931-4.979zm150.82-275.6001h-185.27c-4.478.0237-8.765 1.8129-11.931 4.979s-4.955 7.4535-4.979 11.931v152.1801l33.82-33.82h168.36c4.477-.024 8.765-1.813 11.931-4.979s4.955-7.454 4.979-11.931v-101.4601c-.024-4.4775-1.813-8.7649-4.979-11.931s-7.454-4.9553-11.931-4.979zm351.66 356.8401h-185.3c-4.478.024-8.765 1.813-11.931 4.979s-4.955 7.453-4.979 11.931v152.18l33.82-33.8h168.4c4.477-.024 8.765-1.813 11.931-4.979s4.955-7.454 4.979-11.931v-101.48c-.026-4.478-1.818-8.764-4.986-11.928s-7.457-4.951-11.934-4.972zm528.88-280.8501h-185.28c-4.48.0263-8.76 1.8171-11.92 4.9821-3.17 3.166-4.96 7.452-4.98 11.928v152.2l33.82-33.82h168.37c4.48-.024 8.76-1.813 11.93-4.979s4.96-7.454 4.98-11.931v-101.47c-.02-4.479-1.81-8.768-4.98-11.935-3.17-3.166-7.46-4.954-11.94-4.9751zm-178.54 386.6801h-185.27c-4.478.024-8.765 1.813-11.931 4.979s-4.955 7.453-4.979 11.931v152.18l33.82-33.82h168.36c4.48-.024 8.76-1.813 11.93-4.979s4.96-7.454 4.98-11.931v-101.45c-.02-4.478-1.81-8.765-4.98-11.931s-7.45-4.955-11.93-4.979zm699.13-70.28h-185.27c-4.48.026-8.76 1.817-11.92 4.982-3.17 3.166-4.96 7.452-4.98 11.928v152.18l33.8-33.8h168.37c4.48-.024 8.76-1.813 11.93-4.979s4.96-7.454 4.98-11.931v-101.47c-.02-4.478-1.81-8.765-4.98-11.931s-7.45-4.955-11.93-4.979zm592.6 27.32h-185.27c-4.48.024-8.76 1.811-11.93 4.975-3.16 3.164-4.95 7.449-4.98 11.925v152.23l33.8-33.86h168.36c4.48-.024 8.76-1.813 11.93-4.979s4.96-7.454 4.98-11.931v-101.46c-.03-4.474-1.82-8.757-4.98-11.921s-7.45-4.953-11.92-4.979zm-563.63-460.6701h-185.27c-4.48.0237-8.76 1.8115-11.93 4.9754-3.16 3.16401-4.95 7.44886-4.98 11.924641v152.180059l33.82-33.8h168.36c4.48-.024 8.76-1.813 11.93-4.979s4.96-7.454 4.98-11.931v-101.470059c-.02-4.477521-1.81-8.764921-4.98-11.931041-3.17-3.1661-7.45-4.9553-11.93-4.979zm991.18 42.74h-185.27c-4.48.0237-8.76 1.8129-11.93 4.979s-4.96 7.4535-4.98 11.931v152.1501l33.82-33.8h168.36c4.48-.024 8.76-1.813 11.93-4.979s4.96-7.454 4.98-11.931v-101.4401c-.02-4.4775-1.81-8.7649-4.98-11.931s-7.45-4.9553-11.93-4.979z" fill="#439e3e" opacity=".7"/><path d="m482.54 489.26h-340.44c-9.62.026-18.839 3.859-25.642 10.661-6.804 6.801-10.639 16.019-10.668 25.639v326.74l72.6-72.6h304.13c9.62-.029 18.838-3.864 25.639-10.668 6.802-6.803 10.635-16.022 10.661-25.642v-217.83c-.026-9.619-3.859-18.837-10.661-25.639s-16.02-10.635-25.639-10.661zm397.03-575.76h-340.43c-9.619.029-18.837 3.8625-25.639 10.6635-6.803 6.801-10.639 16.0171-10.671 25.6365v326.74l72.6-72.6h304.13c9.618-.029 18.835-3.863 25.636-10.664s10.635-16.018 10.664-25.636v-217.84c-.029-9.6184-3.863-18.8346-10.664-25.6359s-16.018-10.6351-25.636-10.6641zm1488.73 48.75h-340.43c-9.62.029-18.84 3.8638-25.64 10.667-6.81 6.8032-10.64 16.0219-10.67 25.643v326.74l72.6-72.6h304.13c9.62-.032 18.84-3.868 25.64-10.671 6.8-6.802 10.63-16.02 10.66-25.639v-217.83c-.03-9.6194-3.86-18.8366-10.66-25.6395s-16.02-10.6388-25.64-10.6705zm560.7 290.75h-340.4c-9.62.029-18.84 3.862-25.64 10.663s-10.64 16.018-10.67 25.637v326.7l72.6-72.6h304.11c9.62-.029 18.83-3.863 25.64-10.664 6.8-6.801 10.63-16.018 10.66-25.636v-217.83c-.04-9.613-3.87-18.822-10.67-25.617-6.8-6.794-16.02-10.624-25.63-10.653z" fill="#429c3d"/></g></svg>