<svg width="430" height="250" viewBox="0 0 430 250" fill="none" xmlns="http://www.w3.org/2000/svg">
  <g clip-path="url(#a)">
    <path d="M430 0H0v250h430V0Z" fill="#B81C22"/>
    <path fill-rule="evenodd" clip-rule="evenodd" d="M239.16 41.55a27.715 27.715 0 0 1 10.5-6.52c5.86-1.74 7.07 3.37 6.17 3.48a32.483 32.483 0 0 0-15.82 6.38c2.7 10.72 3.08 20.78-1.54 25.47-7.32 7.36-13.9-.91-9.87-13.29a35.563 35.563 0 0 1 7.17-12.04c-1.9-5.1-4.06-10.11-6.48-15 2.35 7.47 3.58 14.38.91 16.48-2.85 2.26-6.28-.63-8.57-8.42-2.25-7.8-4.48-10.38-4.86-10.83l-.06-.07c2.53-2.87 6.54-2.12 9.33 7.41.5 1.66.9 3.1 1.23 4.32 1.01 3.66 1.45 5.26 2.38 4.52 1.8-1.33.64-8.48-3.83-19.98l-.8-1.45c-.15-.2-.28-.44-.37-.68.89-.93 5.22-3.21 5.84-1.97a127.4 127.4 0 0 1 8.66 22.19h.01ZM231 56.61c-3.34 11.2 3.65 15.79 8.06 11.43 2.68-2.54.99-10.9-2.3-20.32a21.204 21.204 0 0 0-5.76 8.9v-.01Zm-7.33-11.25c-.52-.64-.64-.43-.32 1.35.54 3 .5 3.64.29 4.68-.4 1.7-1.78-.85-3.41-3.95a55.756 55.756 0 0 1-4-9c-1.27-3.54-2.36-3.15-5.57-2.02l-1.38.48c-.32.12-.63.22-.92.3l-.32.1a15.837 15.837 0 0 0-2.85-4.57c-.12-.06-5.02 4.9-3.2 6.42.95.85 2.48.86 4.27.56a27.922 27.922 0 0 1 4.23 10.98c.31 1.74.45 1.95.74 1.15.12-.63.1-1.29-.06-1.9a81.088 81.088 0 0 0-2.5-10.87c.33-.08.65-.19.96-.31.84-.25.88-.16 1.92 2.65.41 1.1.98 2.62 1.8 4.7 2.95 7.37 7.65 12 9.27 11.54 1.14-.32 1.8-1.76 1.98-4.22.18-2.09.06-4.2-.36-6.24a4.305 4.305 0 0 0-.57-1.83Zm-13.16 11.5c-.31-1.78-.2-2 .31-1.35.35.56.55 1.2.6 1.86.43 2.05.55 4.16.37 6.25-.05.85-.21 1.7-.48 2.52 1.77-.32 3.44-.23 2.91 1.29a35.786 35.786 0 0 1-10.03 14.85l-.04.03h.08c4.57.56 6.5 8.16 3.93 16.25a42.426 42.426 0 0 1-4.9 10.021l.04.18 1.1 3.03.34.91c1.17 3.3 2.35 6.47 3.43 9.14-1.69-6.06-2.2-11.33.04-13.09 2.9-2.29 5.97 1.3 8.6 8.36 2.55 6.88 4.13 8.35 4.53 6.6.2-2.51 0-5.03-.58-7.47-.31-1.77-.21-2.03.29-1.38.36.57.59 1.22.65 1.9.48 2.52.68 5.1.6 7.68-.2 2.46-.85 3.9-1.98 4.22-1.47.4-5.3-1.36-7.89-8.06-.96-2.54-1.52-4.62-1.93-6.13-.6-2.25-.88-3.26-1.62-2.67-1.74 1.38-.65 8.31 3.67 19.47.52.97 1 1.98 1.4 3.01-2.13 2.41-5.2 2.38-8.27-4.62-1.72-3.87-2.65-6.2-3.91-9.34-.7-1.76-1.5-3.77-2.6-6.43a23.121 23.121 0 0 1-9.22 6.4l-.03.02a96.805 96.805 0 0 0 4.38 11.44c8 17.87 21.19 23.3 25.45-.49.1-.37 5.4-.27 4.6 2.77-4.3 14.9-23.16 27.45-34.25 1.3a59.202 59.202 0 0 1-4.32-14.63v-.03l-.07-.02c-2.68-.74-3.3-3.47-2.56-3.6l2.21-.4.08-.02c-.1-6.37 2.08-9.71 4.76-9.4 2.8.34 5.24 1.3 6.83 4.13.3-.22.58-.45.87-.68-2.78-7.61-4.66-17.75-1.4-23.65l-.04.01c-7.64 2.88-16.34.83-23.52-11.36a487.875 487.875 0 0 1-6.45-11.15c1.82 5.5 4 12.45 5.76 18.75 1.99 7.24 2.18 7.65 2.25 7.72.06.07-3.74 3.54-5.07 1.42-1.58-2.51-8.82-15.12-13.58-23.61a664.392 664.392 0 0 0 5.92 22.91l.03.13.02.14c1.89 6.86 2.17 7.3 2.17 7.3-1.21 1.85-1.94 1.77-2.86-.78l-.15-.4a2.936 2.936 0 0 0-.07-.18c-.04-.12-.08-.23-.1-.36-.43-1.37-.9-3.25-1.5-5.66l-.2-.79-.02-.1-.02-.11c-.67-2.7-1.34-5.51-2-8.3-.1-.28-.16-.57-.21-.87l-.11-.64-1-4.19A374.053 374.053 0 0 0 152 61.64c-.04-.1 5.33-4.38 6.28-2.24a244.504 244.504 0 0 0 11.32 23.01c-2.08-8.05-4.86-16.53-6.82-22.5a366.87 366.87 0 0 1-1.73-5.42c.09-.12.2-.23.31-.32l.43-.33c1.59-1.14 4.97-3.24 5.48-1.56a75.337 75.337 0 0 0 5.1 11.45c1.25 2.3 2.28 4.07 3.22 5.69l.97 1.69c15.12 26.88 28.29 8.86 31.19-3.78a.556.556 0 0 1 .23-.17c-2.14-1.51-5.27-5.43-7.44-10.92-.83-2.07-1.4-3.59-1.8-4.69-1.05-2.81-1.08-2.9-1.92-2.66-.32.12-.64.23-.96.3 1.07 3.58 1.9 7.21 2.47 10.9.17.61.2 1.27.07 1.9-.3.8-.43.59-.74-1.15a27.746 27.746 0 0 0-4.23-10.98c-1.79.3-3.33.28-4.27-.57-1.82-1.5 3.08-6.49 3.2-6.4 1.2 1.34 2.17 2.89 2.85 4.56l.37-.1c.27-.09.57-.17.87-.29l1.37-.48c3.22-1.13 4.32-1.52 5.58 2.03 1.07 3.1 2.4 6.11 4 8.99 1.64 3.1 3.02 5.64 3.4 3.95.23-1.05.26-1.67-.28-4.68l-.01-.01ZM198.85 86l-.15.11-.07.01h-.02c-2.79 2.37.07 10.1 3.32 18.881l.41 1.13a23.247 23.247 0 0 0 4.12-7.65c2.28-7.58-2-14.45-6.28-13.16l-.27.09-1.06.59Zm-6.5 28.271c-.3-2.12-.84-5.59-1.52-5.47-2.05.41-2.68 2.85-2 6.95l.03-.01c1.19-.41 2.35-.9 3.48-1.47h.01Zm2.94-53.5c-.51-.63-.64-.37-.3 1.4.99 5.48-1.12 10.75-2.8 11.67-1.36.78-3.07-1.1-4.75-4.4 1.69-6.4 1.9-14.85.56-17.37-.74-1.38-3.03-1.27-4.43-1.2-.4.02-.72.03-.92 0-2.8-.32-4.42 10.2-.96 19.03 2.28 5.9 7.33 9.42 10.5 6.91 2.95-2.33 4.49-8.93 3.72-14.15a4.264 4.264 0 0 0-.62-1.88v-.01Zm-9.16 5.64c-2.11-5.09-4.8-13.66-2.75-14.07 1.52-.27 4.25 8.73 3.38 15.65-.23-.49-.46-1-.64-1.5l.01-.08Zm49.71 43.77c-.51-.64-.64-.44-.33 1.35.54 3 .51 3.64.3 4.68-.4 1.7-1.78-.85-3.42-3.95a56.657 56.657 0 0 1-3.98-9c-1.27-3.54-2.37-3.15-5.58-2.02l-1.37.48c-.32.12-.64.22-.93.3l-.31.1a15.835 15.835 0 0 0-2.85-4.57c-.13-.08-5.03 4.9-3.2 6.4.94.85 2.48.88 4.25.58a27.894 27.894 0 0 1 4.24 10.98c.32 1.74.45 1.95.74 1.15.12-.63.1-1.29-.07-1.9a79.558 79.558 0 0 0-2.47-10.9c.32-.07.64-.17.96-.3.85-.24.88-.15 1.93 2.68.41 1.1.98 2.6 1.8 4.67 2.95 7.39 7.64 12 9.27 11.55 1.13-.33 1.79-1.76 1.97-4.22.19-2.1.06-4.2-.37-6.25a4.36 4.36 0 0 0-.58-1.81Zm17.5-19.7c-.21-1.8-.21-2.02.29-1.38.37.56.57 1.21.59 1.88a5.85 5.85 0 0 1-1.33 3.95c2.02 5.9-2.23 12.51-4.84 12.21-2.62-.3-2.8-5.42.22-8.85a18.207 18.207 0 0 0-6.44-6.47l.4 2.91c.21 1.71.43 3.43.75 5.2.48 2.53.68 5.11.59 7.69-.19 2.46-.84 3.9-1.98 4.22-1.7.48-5.25-1.16-7.75-7.45-.75-1.82-1.4-3.5-1.97-4.94l-1.35-3.37a4.996 4.996 0 0 1-.27-.77c.88-.96 5.18-3.1 5.67-1.82a62.51 62.51 0 0 0 4.74 12.2c1.2 2.18 1.62 2.2 1.85 1.32.23-2 .17-4.01-.17-6a40.91 40.91 0 0 0-3.03-10.62c-.98-.52-1.9-.95-2.68-1.32-.63-.28-1.247-.587-1.85-.92a4.778 4.778 0 0 1-3.05 3c-1.62.53-3.87.17-4.33-1.44-.46-1.6.95-3.63 3.09-4.51a3.35 3.35 0 0 1 3.89.67 14.738 14.738 0 0 1 3.56-4.03 13.335 13.335 0 0 1 2.93 5.67c3.74.79 8.6 2.16 10.44 4.5.449.566.834 1.18 1.15 1.83.66-.99.96-2.17.88-3.35v-.01Zm-4.68 8.56c-2.02 2.33-1.11 4.82.13 4.99 1.43.2 1.9-.3.02-4.65l-.15-.33v-.01Zm13.97-17.05c-.5-.64-.6-.4-.3 1.38.64 3.2 1.03 6.19.77 7.26-.4 1.76-.52 1.97-2.2-1a121.209 121.209 0 0 1-8.13-20.12c2.15-2.11 2.86-3.48 2.94-5.28-.05-.26-.06-.34-.16-.28l-3.56 2.81c-.4-1.53-.64-2.65-.73-3.1a5.081 5.081 0 0 0-.05-.21c-.67-2.24-6.34 2.07-6.26 2.24l.86 1.9c.47 1.02.92 2.02 1.35 3l-1.28 1.01a1.9 1.9 0 0 0-.503.776 1.9 1.9 0 0 0 .283 1.773c.189.25.436.45.72.58a44.198 44.198 0 0 0 1.95-1.48c1.79 4.16 3.32 7.99 4.53 11v.01c1.06 2.65 1.87 4.67 2.39 5.77 1.85 4.1 4.82 6.25 6.56 5.75 1.13-.33 1.79-1.77 1.98-4.23.09-2.57-.11-5.15-.6-7.68a4.465 4.465 0 0 0-.57-1.9l.01.02Zm24.86-19.54v-.04c-.21-.43-.41-.86-.58-1.3-3.43-8.86.3-16.9 3.07-16.37l.32.05c1.58.27 6.53 1.1 7.3 3.17a56.3 56.3 0 0 0 4.19 9.4l.02.05c.92 1.67 1.3 2.36 1.54 2.31.17-.03.26-.44.42-1.14l.02-.08c.31-1.28 0-4.23-.62-7.43-.3-1.78-.22-2.02.3-1.38.34.58.55 1.22.6 1.9.49 2.53.69 5.1.58 7.68l-.07.7c-.05.81-.2 1.62-.42 2.4-.069.31-.209.6-.409.848a2.07 2.07 0 0 1-.741.582l-.09.02c-.43.09-.89.01-1.27-.21-1.56-.76-3.51-3.2-4.75-6.02l.2.55c1.15 3.17 2.85 7.85.38 9.81-2.3 1.82-6.22.12-8.86-3.64.52 3.31.78 6.66.77 10-.19 2.98-1.18 4.35-2.4 4.57-1.55.3-5.3-4.38-7.86-11.03-.83-2.18-1.39-3.97-1.82-5.33-.82-2.62-1.16-3.7-1.97-3.05-1.78 1.4-.36 8.32 4.3 20.2.28.63.6 1.26.94 1.86-2.94 3.29-6.63-.5-9.27-7.49a90.524 90.524 0 0 1-1.82-5.34c-.82-2.62-1.16-3.7-1.98-3.05-1.77 1.42-.4 8.2 4.15 19.86.3.76.68 1.48 1.13 2.17-2.16 2.4-5.13 2.43-8.29-4.55a208.17 208.17 0 0 1-3.25-7.78 161.898 161.898 0 0 0-3.54-8.35c-.08-.15 5.4-4.01 6.12-2.11a65.191 65.191 0 0 0 3.03 9.52c-1.5-5.67-1.88-10.53.3-12.24 2.39-1.84 5.03.36 7.34 5.4-1.33-5.4-1.61-9.93.45-11.57 2.88-2.27 5.99 1.29 8.61 8.4 2.56 6.84 4.8 10.95 5 9.17.01-3.43-.3-6.84-.9-10.21l-.17-.9v-.01Zm9.42 2.5c-1.28 1-3.5-2.15-5.58-7.28-2.08-5.12-2.63-10.86-.56-11.3.37-.06.66.72 1.08 1.89.15.41.32.87.52 1.36l2.58 6.41.15.4c2.18 5.5 2.99 7.57 1.8 8.51l.01.01Zm16.86-33.91c.64-1.67.74-1.9.9-1.05.03.65-.1 1.3-.39 1.9-.25.68-.69 1.8-1.2 3.1-.56 1.46-1.22 3.15-1.8 4.72a9.1 9.1 0 0 1 3.27 2.27 8.905 8.905 0 0 1 1.73 7.62 10.661 10.661 0 0 1-2.05 4.39 6.462 6.462 0 0 1-2.54 2.1c-.3.14-.64.2-.98.18a2 2 0 0 1-.72-.22 2.458 2.458 0 0 1-.91-.8c-1.52-1.99-1.6-6.58-.42-10.72a23.255 23.255 0 0 0-3.66-2.8c.21 1.28.4 2.56.57 3.76.2 1.38.39 2.66.58 3.76.15.62.17 1.27.07 1.9-.3.81-.42.6-.73-1.14a37.685 37.685 0 0 0-2.89-9.64 48.708 48.708 0 0 1-4.91-2.48c-1.83-1.51 3.12-6.52 3.2-6.41 1.5 1.73 2.57 3.8 3.11 6.02 2.22.44 4.4 1.07 6.52 1.89l3.25-8.35ZM312.73 54a.916.916 0 0 0 .31-.52c.11-.48.1-.99-.01-1.47a14.578 14.578 0 0 0-3.66-6.73c-.8 3.56.13 7.26 1.44 8.49.2.21.47.36.76.42.2.03.4.04.59.02.2 0 .4-.08.57-.21Z" fill="#fff"/>
    <path d="M89.447 32.784h-6.18l-.8 2.219h-2.352l5.558-13.985h1.367l5.576 13.985h-2.368l-.801-2.219Zm-.682-1.885-2.4-6.602-2.402 6.602h4.802Zm27.555 1.884h-6.177l-.823 2.22h-2.351l5.576-13.985h1.368l5.579 13.985h-2.373l-.801-2.219.002-.001Zm-.684-1.884-2.398-6.602-2.403 6.602h4.801Zm22.572 3.302a7.16 7.16 0 0 1 0-12.399 7.218 7.218 0 0 1 7.207 0 7.16 7.16 0 0 1 0 12.399 7.214 7.214 0 0 1-7.207 0Zm6.171-1.804a5.014 5.014 0 0 0 2.512-4.391 5.095 5.095 0 0 0-5.125-5.068 5.11 5.11 0 0 0-2.51.672 5.009 5.009 0 0 0-2.515 4.392 5.099 5.099 0 0 0 3.169 4.692 5.11 5.11 0 0 0 4.469-.297ZM78.588 29.11c.445.625.672 1.38.644 2.146a3.649 3.649 0 0 1-.522 1.955 3.613 3.613 0 0 1-1.429 1.304c-.62.322-1.308.49-2.006.489h-5.909V21.018h5.224a4.36 4.36 0 0 1 2.023.468c.598.308 1.1.777 1.445 1.355a3.7 3.7 0 0 1 .525 1.98 3.559 3.559 0 0 1-.46 1.852 3.225 3.225 0 0 1-1.306 1.211 3.542 3.542 0 0 1 1.771 1.225Zm-2.529 3.628c.32-.166.587-.416.775-.722.19-.308.287-.664.281-1.025a1.913 1.913 0 0 0-.286-1.03 2.141 2.141 0 0 0-1.845-1.015h-3.53V33h3.515c.38.008.756-.083 1.09-.264Zm.134-8.766a1.988 1.988 0 0 0-.77-.696 2.21 2.21 0 0 0-1.066-.26h-2.903v4.04h2.89a2.14 2.14 0 0 0 1.837-1.021c.19-.314.29-.676.286-1.043a1.874 1.874 0 0 0-.273-1.02h-.001Zm29.211-2.955v13.987h-.87l-8.161-9.484v9.486h-2.15V21.018h.84l8.191 9.43v-9.433h2.15Zm26.873 0v13.987h-.87l-8.157-9.486v9.486h-2.151V21.018h.846l8.182 9.43v-9.432h2.15Zm-80.92 16.836C39.371 39.362 33.851 28.8 34.83 27.77c.646-.679 1.652-.72 2.522-.744 4.008-.109 9.68 4.573 10.831 4.551 2.228-.046 5.58-3.589 7.776-6.51.92-1.222 6.661-3.064 6.025.148-2.066 10.41-9.101 12.443-10.629 12.635v.002ZM34.677 18.147c11.986-1.51 17.504 9.05 16.526 10.082-.647.679-1.651.72-2.522.744-4.008.108-9.68-4.575-10.83-4.551-2.228.046-5.58 3.588-7.776 6.51-.92 1.222-6.662 3.064-6.025-.147 2.063-10.41 9.1-12.444 10.627-12.637v-.001Z" fill="#fff"/>
    <g clip-path="url(#b)">
      <path fill-rule="evenodd" clip-rule="evenodd" d="M372.35 58.32c1.55-3.25-.08-6.47-1.94-8.74-1.97-2.39-4.84-4.59-7.65-6.32a36.463 36.463 0 0 0-8.02-3.8c-1.02-.3-2.3-.59-3.4-.4a3.1 3.1 0 0 0-2.19 1.43 3.132 3.132 0 0 0-.2 2.67c.55 1.58 1.82 2.73 2.88 3.53.51.38 1.06.74 1.6 1.08a95.787 95.787 0 0 0-22.6-1c-29.57 2.06-53.68 27.93-57.05 54.89-3.34.2-6.6 1.28-9.18 3.66-3.95 3.63-4.93 8.93-4.51 13.85a31.3 31.3 0 0 0 4.63 13.65c3.64 5.69 9.74 10.17 15.85 12.25 3.23 6.46 10.06 12.67 18.58 17.3a67.72 67.72 0 0 0 31.85 8.24c11.6 0 22.82-3.33 31.85-8.24 8.52-4.63 15.35-10.84 18.58-17.3 6.11-2.08 12.21-6.56 15.85-12.25a31.3 31.3 0 0 0 4.63-13.65c.42-4.92-.56-10.22-4.5-13.84a14.577 14.577 0 0 0-9.04-3.66c-1.1-12.68-5.7-22.75-12.73-30.56a54.543 54.543 0 0 0-10.9-9.23c.52-.03 1.02-.07 1.47-.13 4.02-.52 5.6-2.28 6.14-3.43Z" fill="#fff"/>
      <path d="M310.37 73.83h1.34v1.34h-1.34v-1.34Zm9.38 8.04h5.36v1.34h-5.36v-1.34Zm-22.78 2.68h2.68v2.68h-2.68v-2.68Zm14.73-4.02h2.69v4.02h-2.69v-4.02Zm-8.03 4.02h2.68v2.68h-2.68v-2.68Zm-4.02-2.68h2.68v2.68h-2.68v-2.68Zm-5.35 9.38h2.67v5.35h-2.67v-5.35Zm20.09-18.75h5.36v1.33h-5.36v-1.34.01Zm-1.34 5.35h1.34v1.34h-1.34v-1.34Zm2.68 1.34h1.34v1.34h-1.34v-1.34Zm1.34 1.34h1.34v1.34h-1.34v-1.34ZM321.09 80.53h1.34v1.34h-1.34v-1.34Zm-5.36 1.34h1.34v1.34h-1.34v-1.34Z" fill="#000"/>
      <path d="M314.39 83.2h1.34v1.35h-1.34V83.2Zm-2.69 1.35h1.35v1.34h-1.35v-1.34Zm-1.33-5.36h1.34v2.68h-1.34v-2.68Zm-4.02-2.68h1.34v2.68h-1.34V76.5v.01Zm6.7 9.38h1.34v1.34h-1.34v-1.34Zm5.35 0h1.35v1.34h-1.35v-1.34Zm1.35-1.34h1.34v1.34h-1.34v-1.34Zm2.68 0h1.34v1.34h-1.34v-1.34Zm6.69-4.02h1.34v1.34h-1.34v-1.34Zm1.34-1.34h1.34v1.34h-1.34v-1.34Zm-2.68 6.7h1.34v1.34h-1.34v-1.34Zm-21.43-2.69h1.34v1.35h-1.34V83.2ZM301 80.53h1.33v1.34H301v-1.34Zm1.33 2.67h1.34v1.35h-1.34V83.2Zm2.68-2.67h2.68v1.34h-2.68v-1.34Z" fill="#000"/>
      <path d="M303.67 81.87h6.7v1.34h-6.7v-1.34Zm22.78 0h1.33v1.34h-1.33v-1.34ZM301 85.89h1.33v1.34H301v-1.34Zm-5.37 2.68h1.34v1.34h-1.34v-1.34Zm10.72-2.68h1.34v1.34h-1.34v-1.34Zm4.02-9.38h1.34v1.34h-1.34V76.5v.01Zm-20.09 25.45h2.67v1.34h-2.67v-1.34Zm1.34-2.68h5.35v1.34h-5.35v-1.34Zm1.33-1.34h4.02v1.34h-4.02v-1.34Z" fill="#000"/>
      <path d="M292.95 96.6h1.34v1.34h-1.34V96.6Zm1.35 5.36h1.33v1.34h-1.33v-1.34Zm-1.35-9.37h1.34v1.34h-1.34v-1.34Zm1.35-2.69h1.33v1.35h-1.33V89.9Zm-4.03 10.72h1.34v1.34h-1.34v-1.34Zm22.78-26.79h2.68v1.34h-2.68v-1.34Zm-1.35 1.34h2.69v1.34h-2.69v-1.34Zm-8.03 4.02h2.68v1.34h-2.68v-1.34Zm16.08 0h2.68v1.34h-2.68v-1.34Zm-5.36-2.68h2.68v1.34h-2.68V76.5v.01Zm6.7-2.68h2.68v1.34h-2.68v-1.34Zm6.69 4.02h2.68v1.34h-2.68v-1.34Zm0 5.35h2.68v1.35h-2.68V83.2ZM326.45 79.19h2.67v1.34h-2.67v-1.34Zm-2.68-2.68h4.01v1.34h-4.01V76.5v.01Zm-4.02-2.68v2.68h-1.35v-2.68h1.35Z" fill="#000"/>
      <path d="M318.4 75.17v2.68h-1.33v-2.68h1.34-.01Zm5.37 1.34v2.68h-1.34V76.5h1.34v.01Zm2.68 6.69v4.03h-1.35V83.2h1.35Zm4.01 2.69v1.34h-1.33v-1.34h1.33Zm-4.01-8.04v4.02h-1.35v-4.02h1.35Zm-6.7 4.02v2.68h-1.35v-2.68h1.35Zm-2.68 2.68v2.68h-1.34v-2.68h1.34Zm-6.7 1.34v1.34h-1.34v-1.34h1.34Zm20.09-5.36h2.68v2.68h-2.68v-2.68Zm9.38 0h8.04v1.34h-8.04v-1.34Zm-2.68 2.67h9.38v1.35h-9.38V83.2Zm-4.02 2.69h4.02v1.34h-4.02v-1.34Zm17.42-1.34h4.02v2.68h-4.02v-2.68Zm8.04 0h2.68v2.68h-2.68v-2.68Zm-4.02-2.68h2.68v2.68h-2.68v-2.68Zm13.39 13.39h2.68v4.02h-2.68v-4.02Zm-13.39-20.09h1.34v5.36h-1.34v-5.36Zm6.7 8.03h1.33v1.35h-1.33V83.2Z" fill="#000"/>
      <path d="M355.92 80.53h1.34v1.34h-1.34v-1.34Zm1.34 2.67h1.34v1.35h-1.34V83.2Zm2.68-2.67h1.34v1.34h-1.34v-1.34ZM358.6 81.87h4.02v1.34h-4.02v-1.34Zm-2.68 4.02h2.68v1.34h-2.68v-1.34Zm-6.7-5.36h2.68v1.34h-2.68v-1.34Zm1.34-1.34h1.34v1.34h-1.34v-1.34Zm10.72 6.7h1.33v1.34h-1.33v-1.34Zm-24.12-1.34h2.68v1.34h-2.68v-1.34Zm1.34-2.68h2.68v1.34h-2.68v-1.34Zm4.02 0h2.68v1.34h-2.68v-1.34ZM346.54 81.87h4.02v1.34h-4.02v-1.34Z" fill="#000"/>
      <path d="M349.22 83.2h4.02v1.35h-4.02V83.2Zm-8.04 2.69h1.34v1.34h-1.34v-1.34Zm-6.7-2.69h1.34v1.35h-1.34V83.2Zm21.44-5.35h1.34v1.34h-1.34v-1.34Zm12.05 22.77h2.68v1.34h-2.68v-1.34Zm-2.67 1.34h2.67v1.34h-2.67v-1.34Z" fill="#000"/>
      <path d="M369.31 101.96h1.34v1.34h-1.34v-1.34Zm-2.68-8.03h1.34v1.33h-1.34v-1.33Zm-1.33 5.35h1.34v1.34h-1.34v-1.34Zm4.01 0H372v1.34h-2.68v-1.34h-.01Zm-2.68-2.68h1.34v2.68h-1.34V96.6Zm-1.33-2.67h1.33v4.01h-1.33v-4.01Zm-21.44-8.04h2.68v1.34h-2.68v-1.34Zm-9.38-8.04h2.68v1.34h-2.68v-1.34Zm5.36 0h2.68v1.34h-2.68v-1.34Zm5.36 0h4.02v1.34h-4.02v-1.34Zm1.34-1.34h2.68v1.34h-2.68V76.5v.01Zm-6.7-1.34h2.68v1.34h-2.68v-1.34Zm0-1.34h1.34v1.34h-1.34v-1.34Zm5.36-1.33h4.02v1.33h-4.02v-1.34.01Zm0 2.67v2.68h-1.34v-2.68h1.34Z" fill="#000"/>
      <path d="M350.56 73.83v4.02h-1.34v-4.02h1.34Zm-8.04 0h5.36v1.34h-5.36v-1.34Zm16.08 5.36h1.34v1.34h-1.34v-1.34Zm8.04 12.06h1.33v1.34h-1.33v-1.34Zm0-4.02v5.36h-1.34v-5.36h1.34Zm-32.16-6.7v2.68h-1.34v-2.68h1.34Zm30.82 5.36v1.34h-1.34v-1.34h1.34Zm-69.67 18.75h1.34v1.34h-1.34v-1.34Zm-5.36-1.34h2.68v1.34h-2.68v-1.34Zm5.36 0h1.34v1.34h-1.34v-1.34Zm0 14.74h1.34v4.02h-1.34v-4.02Zm-1.33 6.7h2.67v5.36h-2.67v-5.36Zm0-10.72h2.67v1.34h-2.67v-1.34Z" fill="#000"/>
      <path d="M295.63 112.68h1.34v1.34h-1.34v-1.34Zm-5.36 16.08h1.34v1.34h-1.34v-1.34Zm-2.67 0h1.34v1.34h-1.34v-1.34Zm-2.68 2.67h1.34v1.34h-1.34v-1.34Zm5.35-4.01h2.68v1.34h-2.68v-1.34Zm1.34-12.06h4.02v1.34h-4.02v-1.34Zm2.69 1.34h2.67v1.34h-2.67v-1.34Zm-5.36 18.75h4.01v1.34h-4.01v-1.34Zm-2.68-2.68h10.71v1.34h-10.71v-1.34Z" fill="#000"/>
      <path d="M292.95 131.43h4.02v1.34h-4.02v-1.34Zm-9.37 4.02h4.02v1.34h-4.02v-1.34Zm0-1.34h2.68v1.34h-2.68v-1.34Zm6.69-2.68h1.34v1.34h-1.34v-1.34Z" fill="#000"/>
      <path d="M292.95 130.1h1.34v1.34h-1.34v-1.34Zm1.35 5.35h1.33v1.34h-1.33v-1.34Zm-2.68-9.37h2.67v1.34h-2.67v-1.34Zm-6.7 4.02h5.35v1.34h-5.35v-1.34Zm2.68 4.01h1.34v1.34h-1.34v-1.34Zm2.67 0h1.34v1.34h-1.34v-1.34Zm0-22.77h4.02v1.34h-4.02v-1.34Zm1.34-1.34h2.68v1.34h-2.68V110Zm4.02-4.02h1.34v1.34h-1.34v-1.34Zm-5.36 0h4.02v1.34h-4.02v-1.34ZM295.63 107.32v4.02h-1.33v-4.02h1.34-.01Zm-5.35 0h2.67v1.34h-2.67v-1.34Zm-6.7 29.48h5.36v1.33h-5.36v-1.33Zm1.34 1.33h1.34v1.34h-1.34v-1.34Zm10.71 0h1.34v1.34h-1.34v-1.34Zm-5.36-1.33h2.68v1.33h-2.68v-1.33Zm5.36 0h1.34v1.33h-1.34v-1.33Zm-8.03 10.71h5.35v1.34h-5.35v-1.34Zm8.03 4.02h1.61v4.02h-1.6v-4.02h-.01Zm9.38 5.36h2.68v2.68h-2.68v-2.68Zm-2.68-1.34h2.68v1.34h-2.68v-1.34Zm21.44 4.02h2.68v4.02h-2.68v-4.02Zm-16.08-4.02h1.34v1.34h-1.34v-1.34Zm13.4 2.68h1.34v1.34h-1.34v-1.34Zm-26.79-10.72h2.67v1.34h-2.67v-1.34Zm1.33-1.34h1.34v1.34h-1.34v-1.34Zm1.34 9.38H301v1.34h-4.02v-1.34h-.01Z" fill="#000"/>
      <path d="M295.63 155.55h1.34v1.34h-1.34v-1.34Zm5.37 1.34h1.33v1.34H301v-1.34Zm2.67 0h1.34v1.34h-1.34v-1.34Zm1.34 2.68h1.34v1.34h-1.34v-1.34Zm-2.68-1.34h1.34v1.34h-1.34v-1.34Zm-8.03-4.03h1.33v1.35h-1.33v-1.35Zm-5.36-5.35h1.34v1.34h-1.34v-1.34Zm2.67 0h4.02v1.34h-4.02v-1.34Zm2.69 1.34h2.67v1.34h-2.67v-1.34Zm37.5 9.38h1.34v1.34h-1.34v-1.34Zm0 5.36h1.34v1.34h-1.34v-1.34Zm-16.07-1.34h2.68v1.34h-2.68v-1.34Zm13.39 0h1.34v1.34h-1.34v-1.34Zm-8.03 0h1.34v1.34h-1.34v-1.34Zm4.01 0h1.35v1.34h-1.35v-1.34Zm1.35-4.02h1.33v1.34h-1.33v-1.34Zm-6.7 2.68h1.34v1.34h-1.34v-1.34Zm-8.05-1.35h1.35v1.35h-1.35v-1.35Zm-4.01-1.33h2.68v1.34h-2.68v-1.34Z" fill="#000"/>
      <path d="M307.7 160.9h1.33v1.35h-1.33v-1.35Zm14.73 4.03h6.7v1.34h-6.7v-1.34Zm-5.36-6.7h1.34v1.34h-1.34v-1.34Zm-2.68 2.67h1.34v1.35h-1.34v-1.35Z" fill="#000"/>
      <path d="M315.73 159.57h1.34v2.68h-1.34v-2.68Zm-5.36 1.33h1.34v1.35h-1.34v-1.35Zm9.38-4.01h1.34v1.34h-1.34v-1.34Zm-33.49-12.06h1.34v1.34h-1.34v-1.34Zm4.01 0h4.02v1.34h-4.02v-1.34Zm1.34-1.33h2.68v1.33h-2.68v-1.34.01Zm4.02-4.03h1.34v1.34h-1.34v-1.34Zm-10.71 2.68h2.68v1.34h-2.68v-1.34Zm-1.34-1.34h2.68v1.34h-2.68v-1.34Zm6.69-1.34h4.02v1.34h-4.02v-1.34Zm0 2.68v2.68h-1.33v-2.68h1.33Zm5.36-1.34v4.02h-1.33v-4.02h1.34-.01Zm-12.05-1.34h5.36v1.34h-5.36v-1.34Zm4.02 1.34h5.35v1.34h-5.35v-1.34Zm42.86 21.44h2.68v1.34h-2.68v-1.34Zm-2.68-4.02h2.68v1.34h-2.68v-1.34Zm-4.01-1.34h5.35v1.34h-5.35v-1.34Zm-2.68-1.34h4.02v1.34h-4.02v-1.34Zm-2.69 4.02h4.03v1.34h-4.03v-1.34Zm-1.33-4.02h2.68v1.34h-2.68v-1.34Zm-5.37 0h4.03v1.34h-4.03v-1.34ZM311.7 158.23h4.03v1.34h-4.03v-1.34Zm17.42 2.67v2.69h-1.34v-2.68h1.34v-.01Z" fill="#000"/>
      <path d="M311.7 156.89v2.68h-1.33v-2.68h1.34-.01Zm12.07 2.68v2.68h-1.34v-2.68h1.34Zm8.03-2.68v2.68h-1.34v-2.68h1.34Zm-1.34-1.34v1.34h-1.33v-1.34h1.33Zm34.84-50.91h1.34v1.34h-1.34v-1.34Zm5.35 0h2.68v1.34h-2.68v-1.34Zm-5.35-1.34h6.7v1.34h-6.7v-1.34Zm1.33 10.72h2.68v4.02h-2.68v-4.02Zm1.34 14.74h2.68v4.01h-2.68v-4.01Zm1.34-22.78H372v1.34h-2.68v-1.34h-.01Zm-1.34 5.36h1.34v1.34h-1.34v-1.34Zm2.68 1.34H372v1.34h-1.34v-1.34h-.01Zm1.35 1.34h1.33v1.34H372v-1.34Zm-1.35 1.34H372v1.34h-1.34v-1.34h-.01Zm-1.34 1.34h1.34v1.34h-1.34v-1.34Zm-2.68 1.34h1.34v1.34h-1.34v-1.34Zm-1.33-5.36h1.33v2.68h-1.33v-2.68Zm2.67 6.7h1.34v1.34h-1.34v-1.34Zm-1.34-13.4h1.34v1.34h-1.34v-1.34ZM365.3 110h1.33v1.34h-1.33V110Zm10.71 24.11h1.34v1.34h-1.34v-1.34Zm1.34-1.34h1.34v1.34h-1.34v-1.34Zm-5.35-1.34h4v1.34h-4v-1.34Z" fill="#000"/>
      <path d="M370.65 130.1h2.68v1.34h-2.68v-1.34Zm-2.68 4.01h2.68v1.34h-2.68v-1.34Zm-2.67 1.34h2.67v1.34h-2.67v-1.34Zm10.71-5.35h1.34v1.34h-1.34v-1.34Zm-1.34-1.34h1.34v1.34h-1.34v-1.34Zm-5.36 6.69h1.34v1.34h-1.34v-1.34Zm2.69 0h1.33v1.34H372v-1.34Zm-5.37-8.03h1.34v1.34h-1.34v-1.34Zm-1.33 5.35h1.34v1.34h-1.34v-1.34Zm4.01 0h5.36v1.34h-5.36v-1.34Zm6.7 2.68h2.68v1.34h-2.68v-1.34Zm-6.7-8.03h1.34v1.34h-1.34v-1.34Zm1.34 0H372v1.34h-1.34v-1.34h-.01Zm-4.02 2.68h1.34v2.67h-1.34v-2.67Zm-1.33-2.68h1.33v4.02h-1.33v-4.02Zm2.67-20.1h2.68v1.34h-2.68v-1.34Zm-1.34 1.34h2.68V110h-2.68v-1.34Zm2.68 1.34H372v1.34h-2.68V110h-.01Zm-4.01 10.72h2.67v1.34h-2.67v-1.34Zm1.33 2.68v2.68h-1.33v-2.68h1.33Zm-1.33 14.73h1.34v1.34h-1.34v-1.34Zm5.35 0h2.68v1.34h-2.68v-1.34Zm4.02 0h4.02v1.34h-4.02v-1.34Zm-9.37-1.33h9.37v1.33h-9.38v-1.33h.01Zm1.33 10.71h2.68v4.02h-2.68v-4.02Zm-9.37 8.04h2.68v1.34h-2.68v-1.34Zm-8.04 2.68h2.68v5.36h-2.68v-5.36Zm20.09-18.76h5.36v1.34h-5.36v-1.34Zm6.7 0h2.68v1.34h-2.68v-1.34Zm-8.04 5.36h1.34v1.34h-1.34v-1.34Zm2.68 1.34H372v1.34h-1.34v-1.34h-.01Zm1.35 1.34h1.33v1.34H372v-1.34Zm-1.35 1.34H372v1.34h-1.34v-1.34h-.01Zm-1.34 1.34h1.34v1.34h-1.34v-1.34Zm-2.68 1.34h1.34v1.34h-1.34v-1.34Zm-1.33-5.36h1.33v2.68h-1.33v-2.68Zm2.67 6.7h1.34v1.34h-1.34v-1.34Zm-5.35 2.68h2.67v1.34h-2.67v-1.34Zm-8.04 0h1.34v1.34h-1.34v-1.34Zm-4.02 0h1.34v1.34h-1.34v-1.34Zm1.34 5.35h1.34v1.35h-1.34v-1.35Zm4.02-4.01h1.34v1.34h-1.34v-1.34Zm2.68 0h4.02v1.34h-4.02v-1.34Zm-1.34 1.34h1.34v1.34h-1.34v-1.34Zm-2.68 1.34h1.34v1.34h-1.34v-1.34Zm-9.38 2.68h1.34v1.34h-1.34v-1.34Zm-2.68 0h1.34v1.34h-1.34v-1.34Zm-2.68 0h1.34v1.34h-1.34v-1.34Zm0 2.68h1.34v1.34h-1.34v-1.34Zm5.36-6.7h1.34v1.34h-1.34v-1.34Zm-2.68-1.34h1.34v2.68h-1.34v-2.68Zm1.34-1.34h1.34v1.34h-1.34v-1.34Zm-5.36 0h1.34v2.68h-1.34v-2.68Zm-2.68 0h1.34v1.34h-1.34v-1.34Zm-2.68 0h1.34v1.34h-1.34v-1.34Zm12.06 5.35h2.68v1.35h-2.68v-1.35Zm2.68-5.35h1.34v1.34h-1.34v-1.34Zm-10.72 0h1.34v1.34h-1.34v-1.34Zm2.68 1.34h1.34v1.34h-1.34v-1.34Zm1.34-1.34h1.34v1.34h-1.34v-1.34Zm25.45-16.08h1.34v1.34h-1.34v-1.34Zm-1.33 4.03h1.33v1.33h-1.33v-1.34.01Zm-32.16 14.73h1.34v1.34h-1.34v-1.34Z" fill="#000"/>
      <path d="M351.9 158.23h2.68v1.34h-2.68v-1.34Zm-9.38 1.34h6.7v1.34h-6.7v-1.34Zm-2.68 4.02h5.36v1.34h-5.36v-1.34Zm5.36-6.7h5.36v1.34h-5.36v-1.34ZM341.18 160.9h1.34v1.35h-1.34v-1.35Zm0-2.67h1.34v1.34h-1.34v-1.34Zm26.79-17.42h2.68v1.34h-2.68v-1.34Zm-1.34 1.34h2.68v1.34h-2.68v-1.34Zm8.04 4.02h1.34v1.34h-1.34v-1.34Zm-5.36-2.67H372v1.33h-2.68v-1.34l-.01.01Zm6.7-2.69h2.68v1.34h-2.68v-1.34ZM365.3 154.2h2.67v1.35h-2.67v-1.35Zm-29.48 5.37v2.68h-1.34v-2.68h1.34Zm1.34-1.34v2.68h-1.34v-2.68h1.34Zm2.68 1.34v2.68h-1.34v-2.68h1.34Zm-1.34 2.68v2.68h-2.68v-2.68h2.68Zm36.17-21.44v2.68h-1.34v-2.68h1.34Z" fill="#000"/>
      <path d="M373.33 142.15v2.68H372v-2.68h1.34-.01Z" fill="#000"/>
      <path fill-rule="evenodd" clip-rule="evenodd" d="M293.3 123.31c-7.57 2.64-11.62 6.7-12.62 11.5-1.05 5.01 1.3 10.5 5.72 15.52 8.83 10.01 26.4 18.67 44.87 18.67 18.46 0 36.04-8.65 44.87-18.67 4.41-5.01 6.76-10.51 5.72-15.52-1-4.8-5.05-8.86-12.62-11.5 7.98-8.66 6.79-21.66 1.69-32.45a45.64 45.64 0 0 0-10.58-14.42c-4.17-3.7-8.85-6.07-13.36-6.07-6.93 0-10.96 2.96-15.07 5.99l-.16.11-.5.37-.49-.37-.15-.11c-4.12-3.03-8.14-6-15.07-6-4.52 0-9.2 2.39-13.37 6.08a45.623 45.623 0 0 0-10.57 14.42c-5.1 10.79-6.3 23.79 1.69 32.45Zm2.2 2.66a2.41 2.41 0 0 0 .94-4.04c-7.49-7.2-6.99-18.99-1.93-29.7 2.5-5.26 5.99-10 9.8-13.38 3.87-3.43 7.82-5.27 11.24-5.27 5.87 0 9.15 2.42 13.32 5.48l.98.72c.84.62 2 .62 2.84 0l.98-.72c4.16-3.06 7.45-5.48 13.32-5.48 3.42 0 7.37 1.84 11.23 5.27a42.418 42.418 0 0 1 9.8 13.39c5.06 10.7 5.56 22.49-1.93 29.7a2.412 2.412 0 0 0 .95 4.03c7.82 2.45 10.95 6.06 11.67 9.5.75 3.57-.86 8.05-4.98 12.73-8.2 9.3-24.87 17.59-42.46 17.59-17.6 0-34.27-8.3-42.46-17.59-4.12-4.68-5.73-9.16-4.98-12.74.71-3.43 3.84-7.04 11.66-9.49h.01Z" fill="#fff"/>
      <path fill-rule="evenodd" clip-rule="evenodd" d="M281.99 143.75c-6-1.86-12.1-6.24-15.65-11.8a29.701 29.701 0 0 1-4.38-12.91c-.4-4.66.56-9.38 4-12.53 2.58-2.37 5.98-3.32 9.53-3.27 2.61-26.75 26.49-52.82 55.71-54.87a93.052 93.052 0 0 1 22.87 1.09c1.25.19 2.27.35 3.12.43.65.06 1.15.07 1.52.03.48-.05.9-.19.47-.6a14.198 14.198 0 0 0-2.53-1.68c-1.1-.63-2.38-1.35-3.46-2.14-1.06-.77-2.07-1.72-2.47-2.87-.13-.38-.2-.87.07-1.31a1.498 1.498 0 0 1 1.08-.68c.7-.11 1.66.06 2.67.37 2.08.62 4.9 1.94 7.64 3.62 2.73 1.68 5.44 3.78 7.24 5.97 1.77 2.16 2.86 4.68 1.74 7.04-.28.58-1.34 2.06-4.9 2.52-1.92.24-4.57.2-8.27-.44 6.86 3.45 12.91 7.92 17.7 13.6 6.48 7.67 10.63 17.5 11.44 29.91 3.52-.02 6.88.93 9.44 3.28 3.43 3.15 4.4 7.87 4 12.53a29.701 29.701 0 0 1-4.38 12.91 29.779 29.779 0 0 1-15.65 11.8 27.565 27.565 0 0 1-4.41 6.58C367.3 160.34 349.74 169 331.27 169s-36.04-8.65-44.87-18.67a27.545 27.545 0 0 1-4.41-6.58Zm70.96-100.58c-.39-.41-.06-.93.49-.8.2.05.41.1.65.18 1.9.57 4.6 1.81 7.25 3.45 2.66 1.64 5.2 3.62 6.85 5.62 1.67 2.04 2.23 3.85 1.53 5.32-.02.04-.57 1.23-3.66 1.62-3.16.4-8.9-.04-19.17-3.37l-.07-.02a.801.801 0 0 0-.5 1.52l.07.03c11.26 3.66 21.08 9.34 28.09 17.64 7 8.3 11.24 19.27 11.2 33.6-.02 6.79-1.94 14.8-5.65 22.6-2.03-2.94-5.58-5.43-10.8-7.25 8-8.67 6.8-21.67 1.7-32.45a45.64 45.64 0 0 0-10.58-14.42c-4.16-3.7-8.85-6.07-13.36-6.07-6.96 0-11.03 3-15.17 6.06l-.55.4-.56-.4c-4.13-3.05-8.2-6.06-15.16-6.06-4.52 0-9.2 2.38-13.37 6.07a45.623 45.623 0 0 0-10.57 14.42c-5.1 10.78-6.3 23.78 1.69 32.45-5.22 1.82-8.77 4.32-10.8 7.27-3.7-7.77-5.66-15.75-5.64-22.62.07-27.52 24.39-55.87 54.46-58 9.06-.63 15.65.08 20.23.74 2.26.33 4.12.66 5.5.79 1.36.13 4.25.08 4-2.03-.06-.54-.4-.98-.73-1.3-.9-.87-2.06-1.46-3.14-2.07-1.02-.6-2.07-1.18-3.03-1.88a8.61 8.61 0 0 1-1.2-1.04Zm-71.42 89.09c-4.1-8.24-6.3-16.85-6.28-24.3 0-1.04.04-2.08.1-3.12-3.2-.02-6.13.86-8.3 2.86-2.93 2.68-3.86 6.8-3.49 11.2a28.1 28.1 0 0 0 4.13 12.2c3.1 4.83 8.28 8.75 13.52 10.7-.78-2.37-1-4.72-.53-6.98.18-.88.46-1.73.85-2.55v-.01Zm99.8 9.53c5.23-1.95 10.42-5.87 13.51-10.7a28.103 28.103 0 0 0 4.13-12.19c.38-4.4-.56-8.52-3.47-11.2-2.17-2-5.08-2.87-8.27-2.86.04 1.02.06 2.06.06 3.12-.03 7.36-2.18 16-6.3 24.29.4.82.68 1.68.87 2.56.47 2.26.25 4.61-.53 6.98Zm-86-18.7c-8.24-7.92-7.44-20.6-2.27-31.54a44.026 44.026 0 0 1 10.2-13.9c4-3.56 8.32-5.67 12.29-5.67 6.41 0 10.09 2.7 14.24 5.76l1 .74c.29.2.67.2.95 0l1-.74c4.15-3.05 7.83-5.76 14.25-5.76 3.97 0 8.28 2.1 12.3 5.67a43.995 43.995 0 0 1 10.19 13.9c5.17 10.94 5.97 23.62-2.27 31.54a.793.793 0 0 0-.234.764.801.801 0 0 0 .544.586c8.1 2.53 11.88 6.45 12.76 10.7.9 4.29-1.08 9.28-5.35 14.12-8.5 9.66-25.63 18.14-43.66 18.14-18.03 0-35.16-8.48-43.67-18.14-4.26-4.84-6.24-9.83-5.35-14.13.89-4.24 4.67-8.16 12.76-10.69a.804.804 0 0 0 .551-.582.8.8 0 0 0-.231-.768Z" fill="#000"/>
    </g>
    <path d="M272.863 185.42V182h-1v7h1v-3.11l1.36 1.88c.33.49.89 1.34 1.92 1.34.32 0 .93-.12 1.21-.43l-.36-.7c-.31.25-.59.26-.74.26-.43 0-.8-.41-1.11-.84l-1.31-1.77 2.58-3.52V182h-1.08l-2.47 3.42Zm9.14 2.2c-.5.43-1.04.63-1.64.63-1.11 0-1.89-.69-1.86-1.66h4.27c0-1.85-1.23-2.7-2.55-2.7-1.55 0-2.69 1.17-2.69 2.63 0 1.42 1.08 2.59 2.82 2.59.74 0 1.55-.21 2.19-.93l-.54-.56Zm-1.76-2.88c.55 0 1.26.19 1.53 1.1h-3.18c.33-.87 1.06-1.1 1.65-1.1Zm7.707 2.88c-.5.43-1.04.63-1.64.63-1.11 0-1.89-.69-1.86-1.66h4.27c0-1.85-1.23-2.7-2.55-2.7-1.55 0-2.69 1.17-2.69 2.63 0 1.42 1.08 2.59 2.82 2.59.74 0 1.55-.21 2.19-.93l-.54-.56Zm-1.76-2.88c.55 0 1.26.19 1.53 1.1h-3.18c.33-.87 1.06-1.1 1.65-1.1Zm8.877 1.76c0-1.43-.98-2.61-2.48-2.61-.67 0-1.33.23-1.81.91v-.8h-.97v7.24h.97v-3.04c.48.68 1.14.91 1.81.91 1.5 0 2.48-1.18 2.48-2.61Zm-4.31 0c.01-1.01.7-1.75 1.71-1.75 1.04 0 1.63.8 1.63 1.75s-.59 1.75-1.63 1.75c-1.01 0-1.7-.74-1.71-1.75Zm9.323-1.74h1.59V184h-1.59v-1.44h-.75l-.22 1.44h-.82v.76h.82v2.66c0 1.28.77 1.69 1.56 1.69.97 0 1.48-.56 1.48-1.27 0 0 0-.34-.09-.54h-.85c.07.15.08.34.08.41 0 .37-.3.55-.61.55-.33 0-.6-.22-.6-.77v-2.73Zm6.579 4.24h.97v-2.82c0-1.61-.84-2.29-1.92-2.29-.82 0-1.47.4-1.68 1.11v-3.23h-.97V189h.97v-2.32c0-1.58 1.09-1.93 1.61-1.93.53 0 1.02.37 1.02 1.43V189Zm3.425 0h-.97v-5h.97v5Zm-1.16-6.61c0 .38.29.67.67.67.38 0 .68-.29.68-.67 0-.38-.3-.68-.68-.68-.38 0-.67.3-.67.68Zm5.839 2.69c-.28-.9-.97-1.19-1.67-1.19-.99 0-1.65.64-1.65 1.49 0 .69.43 1.12 1.23 1.36l.67.23c.35.12.63.29.63.63 0 .39-.36.68-.86.68-.51 0-.96-.29-1.08-.69l-.86.21c.23.86 1.05 1.31 1.93 1.31.97 0 1.8-.55 1.8-1.5 0-.53-.25-1.12-1.2-1.41l-.72-.24c-.3-.1-.6-.27-.6-.6 0-.36.29-.64.74-.64.31 0 .62.1.78.55l.86-.19Zm4.641.42c0-1.54 1.18-2.71 2.61-2.71s2.61 1.17 2.61 2.71-1.18 2.71-2.61 2.71-2.61-1.17-2.61-2.71Zm3.24 3.55c1.7-.29 3-1.77 3-3.55 0-1.99-1.63-3.61-3.63-3.61s-3.63 1.62-3.63 3.61a3.61 3.61 0 0 0 3.29 3.59c.2.84.71 1.79 2.17 1.79.34 0 .9-.07 1.36-.43l-.36-.72c-.19.16-.67.32-.95.32-.75 0-1.12-.39-1.25-1Zm5.433-.05v-2.65h1.43c.07.85.58 2.76 2.22 2.76.45 0 .9-.15 1.23-.49l-.35-.68c-.19.18-.47.32-.82.32-.78 0-1.26-1.19-1.33-1.95 1.05-.2 1.65-1.07 1.65-2.11 0-1.18-.77-2.2-2.11-2.2h-2.92v7h1Zm0-3.45v-2.73h1.71c.79 0 1.28.56 1.28 1.37 0 .8-.48 1.36-1.28 1.36h-1.71Zm7.913 1.01c0 1.42 1.04 2.55 2.81 2.55.45 0 1.12-.11 1.79-.61l-.46-.66c-.53.4-1.16.41-1.29.41-1.08 0-1.88-.72-1.88-1.75s.8-1.75 1.88-1.75c.13 0 .76.01 1.29.41l.46-.66c-.67-.5-1.34-.61-1.79-.61-1.82 0-2.81 1.2-2.81 2.67Zm5.166-.06c0 1.45 1.18 2.61 2.62 2.61 1.45 0 2.63-1.17 2.63-2.61 0-1.43-1.18-2.61-2.63-2.61a2.62 2.62 0 0 0-2.62 2.61Zm.97.01c0-.97.74-1.76 1.65-1.76.92 0 1.66.79 1.66 1.76 0 .96-.74 1.74-1.66 1.74-.91 0-1.65-.78-1.65-1.74Zm5.075-.01c0 1.43.98 2.61 2.48 2.61.67 0 1.33-.23 1.81-.91v.8h.97v-7.23h-.97v3.03c-.48-.68-1.14-.91-1.81-.91-1.5 0-2.48 1.18-2.48 2.61Zm4.31 0c-.01 1.01-.7 1.75-1.71 1.75-1.04 0-1.63-.8-1.63-1.75s.59-1.75 1.63-1.75c1.01 0 1.7.74 1.71 1.75Zm6.576 1.12c-.5.43-1.04.63-1.64.63-1.11 0-1.89-.69-1.86-1.66h4.27c0-1.85-1.23-2.7-2.55-2.7-1.55 0-2.69 1.17-2.69 2.63 0 1.42 1.08 2.59 2.82 2.59.74 0 1.55-.21 2.19-.93l-.54-.56Zm-1.76-2.88c.55 0 1.26.19 1.53 1.1h-3.18c.33-.87 1.06-1.1 1.65-1.1Zm9.364.34c-.28-.9-.97-1.19-1.67-1.19-.99 0-1.65.64-1.65 1.49 0 .69.43 1.12 1.23 1.36l.67.23c.35.12.63.29.63.63 0 .39-.36.68-.86.68-.51 0-.96-.29-1.08-.69l-.86.21c.23.86 1.05 1.31 1.93 1.31.97 0 1.8-.55 1.8-1.5 0-.53-.25-1.12-1.2-1.41l-.72-.24c-.3-.1-.6-.27-.6-.6 0-.36.29-.64.74-.64.31 0 .62.1.78.55l.86-.19Zm5.394 2.54c-.5.43-1.04.63-1.64.63-1.11 0-1.89-.69-1.86-1.66h4.27c0-1.85-1.23-2.7-2.55-2.7-1.55 0-2.69 1.17-2.69 2.63 0 1.42 1.08 2.59 2.82 2.59.74 0 1.55-.21 2.19-.93l-.54-.56Zm-1.76-2.88c.55 0 1.26.19 1.53 1.1h-3.18c.33-.87 1.06-1.1 1.65-1.1Zm3.247 1.82c0 1.42 1.04 2.55 2.81 2.55.45 0 1.12-.11 1.79-.61l-.46-.66c-.53.4-1.16.41-1.29.41-1.08 0-1.88-.72-1.88-1.75s.8-1.75 1.88-1.75c.13 0 .76.01 1.29.41l.46-.66c-.67-.5-1.34-.61-1.79-.61-1.82 0-2.81 1.2-2.81 2.67Zm6.623-2.56h-.97v5h.97v-1.89c0-2.13.94-2.29 1.27-2.29.18 0 .37.04.53.13V184c-.14-.06-.28-.11-.46-.11-.62 0-1.17.45-1.34 1.24V184Zm6.675 3.62c-.5.43-1.04.63-1.64.63-1.11 0-1.89-.69-1.86-1.66h4.27c0-1.85-1.23-2.7-2.55-2.7-1.55 0-2.69 1.17-2.69 2.63 0 1.42 1.08 2.59 2.82 2.59.74 0 1.55-.21 2.19-.93l-.54-.56Zm-1.76-2.88c.55 0 1.26.19 1.53 1.1h-3.18c.33-.87 1.06-1.1 1.65-1.1Zm4.788.02h1.59V184h-1.59v-1.44h-.75l-.22 1.44h-.82v.76h.82v2.66c0 1.28.77 1.69 1.56 1.69.97 0 1.48-.56 1.48-1.27 0 0 0-.34-.09-.54h-.85c.07.15.08.34.08.41 0 .37-.3.55-.61.55-.33 0-.6-.22-.6-.77v-2.73ZM266.742 198h-.97v2.82c0 1.61.84 2.29 1.92 2.29.82 0 1.47-.4 1.68-1.11v1h.97v-5h-.97v2.32c0 1.58-1.09 1.93-1.61 1.93-.53 0-1.02-.37-1.02-1.43V198Zm8.735 5h.97v-2.82c0-1.61-.84-2.29-1.92-2.29-.82 0-1.47.4-1.68 1.11v-1h-.97v5h.97v-2.32c0-1.58 1.09-1.93 1.61-1.93.53 0 1.02.37 1.02 1.43V203Zm3.587-4.24h1.59V198h-1.59v-1.44h-.75l-.22 1.44h-.82v.76h.82v2.66c0 1.28.77 1.69 1.56 1.69.97 0 1.48-.56 1.48-1.27 0 0 0-.34-.09-.54h-.85c.07.15.08.34.08.41 0 .37-.3.55-.61.55-.33 0-.6-.22-.6-.77v-2.73Zm3.979 4.24h-.97v-5h.97v5Zm-1.16-6.61c0 .38.29.67.67.67.38 0 .68-.29.68-.67 0-.38-.3-.68-.68-.68-.38 0-.67.3-.67.68Zm3.729-.62h-.97V203h.97v-7.23Zm5.962 5.96-1.53-3.73h-1.11l2.11 4.83-.93 2.41h.94l3.07-7.24h-1.13l-1.42 3.73Zm2.931-1.23c0 1.45 1.18 2.61 2.62 2.61 1.45 0 2.63-1.17 2.63-2.61 0-1.43-1.18-2.61-2.63-2.61a2.62 2.62 0 0 0-2.62 2.61Zm.97.01c0-.97.74-1.76 1.65-1.76.92 0 1.66.79 1.66 1.76 0 .96-.74 1.74-1.66 1.74-.91 0-1.65-.78-1.65-1.74Zm6.326-2.51h-.97v2.82c0 1.61.84 2.29 1.92 2.29.82 0 1.47-.4 1.68-1.11v1h.97v-5h-.97v2.32c0 1.58-1.09 1.93-1.61 1.93-.53 0-1.02-.37-1.02-1.43V198Zm8.982.76h1.59V198h-1.59v-1.44h-.75l-.22 1.44h-.82v.76h.82v2.66c0 1.28.77 1.69 1.56 1.69.97 0 1.48-.56 1.48-1.27 0 0 0-.34-.09-.54h-.85c.07.15.08.34.08.41 0 .37-.3.55-.61.55-.33 0-.6-.22-.6-.77v-2.73Zm3.949-.76h-.97v5h.97v-1.89c0-2.13.94-2.29 1.27-2.29.18 0 .37.04.53.13V198c-.14-.06-.28-.11-.46-.11-.62 0-1.17.45-1.34 1.24V198Zm2.234 2.5c0 1.43.98 2.61 2.48 2.61.67 0 1.33-.23 1.81-.91v.8h.97v-5h-.97v.8c-.48-.68-1.14-.91-1.81-.91-1.5 0-2.48 1.18-2.48 2.61Zm4.31 0c-.01 1.01-.7 1.75-1.71 1.75-1.04 0-1.63-.8-1.63-1.75s.59-1.75 1.63-1.75c1.01 0 1.7.74 1.71 1.75Zm6.086 2.5h.97v-2.82c0-1.61-.84-2.29-1.92-2.29-.82 0-1.47.4-1.68 1.11v-1h-.97v5h.97v-2.32c0-1.58 1.09-1.93 1.61-1.93.53 0 1.02.37 1.02 1.43V203Zm5.545-3.92c-.28-.9-.97-1.19-1.67-1.19-.99 0-1.65.64-1.65 1.49 0 .69.43 1.12 1.23 1.36l.67.23c.35.12.63.29.63.63 0 .39-.36.68-.86.68-.51 0-.96-.29-1.08-.69l-.86.21c.23.86 1.05 1.31 1.93 1.31.97 0 1.8-.55 1.8-1.5 0-.53-.25-1.12-1.2-1.41l-.72-.24c-.3-.1-.6-.27-.6-.6 0-.36.29-.64.74-.64.31 0 .62.1.78.55l.86-.19Zm2.624-1.59c0-.75.34-.97.67-.97.31 0 .62.11.62.51 0 .07-.01.1-.02.17h.83c.05-.14.05-.27.05-.27 0-.71-.52-1.26-1.49-1.26-.79 0-1.66.34-1.66 1.95v.38h-.79v.76h.79V203h1v-4.24h1.31V198h-1.31v-.51Zm6.237 4.13c-.5.43-1.04.63-1.64.63-1.11 0-1.89-.69-1.86-1.66h4.27c0-1.85-1.23-2.7-2.55-2.7-1.55 0-2.69 1.17-2.69 2.63 0 1.42 1.08 2.59 2.82 2.59.74 0 1.55-.21 2.19-.93l-.54-.56Zm-1.76-2.88c.55 0 1.26.19 1.53 1.1h-3.18c.33-.87 1.06-1.1 1.65-1.1Zm4.587-.74h-.97v5h.97v-1.89c0-2.13.94-2.29 1.27-2.29.18 0 .37.04.53.13V198c-.14-.06-.28-.11-.46-.11-.62 0-1.17.45-1.34 1.24V198Zm6.285.76h1.59V198h-1.59v-1.44h-.75l-.22 1.44h-.82v.76h.82v2.66c0 1.28.77 1.69 1.56 1.69.97 0 1.48-.56 1.48-1.27 0 0 0-.34-.09-.54h-.85c.07.15.08.34.08.41 0 .37-.3.55-.61.55-.33 0-.6-.22-.6-.77v-2.73Zm6.58 4.24h.97v-2.82c0-1.61-.84-2.29-1.92-2.29-.82 0-1.47.4-1.68 1.11v-3.23h-.97V203h.97v-2.32c0-1.58 1.09-1.93 1.61-1.93.53 0 1.02.37 1.02 1.43V203Zm6.515-1.38c-.5.43-1.04.63-1.64.63-1.11 0-1.89-.69-1.86-1.66h4.27c0-1.85-1.23-2.7-2.55-2.7-1.55 0-2.69 1.17-2.69 2.63 0 1.42 1.08 2.59 2.82 2.59.74 0 1.55-.21 2.19-.93l-.54-.56Zm-1.76-2.88c.55 0 1.26.19 1.53 1.1h-3.18c.33-.87 1.06-1.1 1.65-1.1Zm7.574-1.25c0-.75.34-.97.67-.97.31 0 .62.11.62.51 0 .07-.01.1-.02.17h.83c.05-.14.05-.27.05-.27 0-.71-.52-1.26-1.49-1.26-.79 0-1.66.34-1.66 1.95v.38h-.79v.76h.79V203h1v-4.24h1.31V198h-1.31v-.51Zm3.291.51h-.97v2.82c0 1.61.84 2.29 1.92 2.29.82 0 1.47-.4 1.68-1.11v1h.97v-5h-.97v2.32c0 1.58-1.09 1.93-1.61 1.93-.53 0-1.02-.37-1.02-1.43V198Zm8.735 5h.97v-2.82c0-1.61-.84-2.29-1.92-2.29-.82 0-1.47.4-1.68 1.11v-1h-.97v5h.97v-2.32c0-1.58 1.09-1.93 1.61-1.93.53 0 1.02.37 1.02 1.43V203Zm2.075-2.5c0 1.43.98 2.61 2.48 2.61.67 0 1.33-.23 1.81-.91v.8h.97v-7.23h-.97v3.03c-.48-.68-1.14-.91-1.81-.91-1.5 0-2.48 1.18-2.48 2.61Zm4.31 0c-.01 1.01-.7 1.75-1.71 1.75-1.04 0-1.63-.8-1.63-1.75s.59-1.75 1.63-1.75c1.01 0 1.7.74 1.71 1.75Zm5.596-1.42c-.28-.9-.97-1.19-1.67-1.19-.99 0-1.65.64-1.65 1.49 0 .69.43 1.12 1.23 1.36l.67.23c.35.12.63.29.63.63 0 .39-.36.68-.86.68-.51 0-.96-.29-1.08-.69l-.86.21c.23.86 1.05 1.31 1.93 1.31.97 0 1.8-.55 1.8-1.5 0-.53-.25-1.12-1.2-1.41l-.72-.24c-.3-.1-.6-.27-.6-.6 0-.36.29-.64.74-.64.31 0 .62.1.78.55l.86-.19Zm1.094 3.3c0 .41.32.73.73.73s.74-.32.74-.73-.33-.74-.74-.74a.73.73 0 0 0-.73.74ZM22.133 236v-3.02h3.01v-.82h-3.01v-2.34h3.45V229h-4.45v7h1Zm3.957-2.5c0 1.45 1.18 2.61 2.62 2.61 1.45 0 2.63-1.17 2.63-2.61 0-1.43-1.18-2.61-2.63-2.61a2.62 2.62 0 0 0-2.62 2.61Zm.97.01c0-.97.74-1.76 1.65-1.76.92 0 1.66.79 1.66 1.76 0 .96-.74 1.74-1.66 1.74-.91 0-1.65-.78-1.65-1.74Zm6.406-2.51h-.97v5h.97v-1.89c0-2.13.94-2.29 1.27-2.29.18 0 .37.04.53.13V231c-.14-.06-.28-.11-.46-.11-.62 0-1.17.45-1.34 1.24V231Zm6.285.76h1.59V231h-1.59v-1.44H39l-.22 1.44h-.82v.76h.82v2.66c0 1.28.77 1.69 1.56 1.69.97 0 1.48-.56 1.48-1.27 0 0 0-.34-.09-.54h-.85c.07.15.08.34.08.41 0 .37-.3.55-.61.55-.33 0-.6-.22-.6-.77v-2.73ZM46.33 236h.97v-2.82c0-1.61-.84-2.29-1.92-2.29-.82 0-1.47.4-1.68 1.11v-3.23h-.97V236h.97v-2.32c0-1.58 1.09-1.93 1.61-1.93.53 0 1.02.37 1.02 1.43V236Zm6.515-1.38c-.5.43-1.04.63-1.64.63-1.11 0-1.89-.69-1.86-1.66h4.27c0-1.85-1.23-2.7-2.55-2.7-1.55 0-2.69 1.17-2.69 2.63 0 1.42 1.08 2.59 2.82 2.59.74 0 1.55-.21 2.19-.93l-.54-.56Zm-1.76-2.88c.55 0 1.26.19 1.53 1.1h-3.18c.33-.87 1.06-1.1 1.65-1.1ZM58.34 236h-.97v-5h.97v5Zm-1.16-6.61c0 .38.29.67.67.67.38 0 .68-.29.68-.67 0-.38-.3-.68-.68-.68-.38 0-.67.3-.67.68Zm6.329 6.61h.97v-2.82c0-1.61-.84-2.29-1.92-2.29-.82 0-1.47.4-1.68 1.11v-1h-.97v5h.97v-2.32c0-1.58 1.09-1.93 1.61-1.93.53 0 1.02.37 1.02 1.43V236Zm5.545-3.92c-.28-.9-.97-1.19-1.67-1.19-.99 0-1.65.64-1.65 1.49 0 .69.43 1.12 1.23 1.36l.67.23c.35.12.63.29.63.63 0 .39-.36.68-.86.68-.51 0-.96-.29-1.08-.69l-.86.21c.23.86 1.05 1.31 1.93 1.31.97 0 1.8-.55 1.8-1.5 0-.53-.25-1.12-1.2-1.41l-.72-.24c-.3-.1-.6-.27-.6-.6 0-.36.29-.64.74-.64.31 0 .62.1.78.55l.86-.19Zm2.514-.32h1.59V231h-1.59v-1.44h-.75l-.22 1.44h-.82v.76h.82v2.66c0 1.28.77 1.69 1.56 1.69.97 0 1.48-.56 1.48-1.27 0 0 0-.34-.09-.54h-.85c.07.15.08.34.08.41 0 .37-.3.55-.61.55-.33 0-.6-.22-.6-.77v-2.73Zm3.95-.76h-.97v5h.97v-1.89c0-2.13.94-2.29 1.27-2.29.18 0 .37.04.53.13V231c-.14-.06-.28-.11-.46-.11-.62 0-1.17.45-1.34 1.24V231Zm3.582 0h-.97v2.82c0 1.61.84 2.29 1.92 2.29.82 0 1.47-.4 1.68-1.11v1h.97v-5h-.97v2.32c0 1.58-1.09 1.93-1.61 1.93-.53 0-1.02-.37-1.02-1.43V231Zm4.765 2.56c0 1.42 1.04 2.55 2.81 2.55.45 0 1.12-.11 1.79-.61l-.46-.66c-.53.4-1.16.41-1.29.41-1.08 0-1.88-.72-1.88-1.75s.8-1.75 1.88-1.75c.13 0 .76.01 1.29.41l.46-.66c-.67-.5-1.34-.61-1.79-.61-1.82 0-2.81 1.2-2.81 2.67Zm6.863-1.8h1.59V231h-1.59v-1.44h-.75l-.22 1.44h-.82v.76h.82v2.66c0 1.28.77 1.69 1.56 1.69.97 0 1.48-.56 1.48-1.27 0 0 0-.34-.09-.54h-.85c.07.15.08.34.08.41 0 .37-.3.55-.61.55-.33 0-.6-.22-.6-.77v-2.73Zm3.98 4.24h-.97v-5h.97v5Zm-1.16-6.61c0 .38.29.67.67.67.38 0 .68-.29.68-.67 0-.38-.3-.68-.68-.68-.38 0-.67.3-.67.68Zm2.348 4.11c0 1.45 1.18 2.61 2.62 2.61 1.45 0 2.63-1.17 2.63-2.61 0-1.43-1.18-2.61-2.63-2.61a2.62 2.62 0 0 0-2.62 2.61Zm.97.01c0-.97.74-1.76 1.65-1.76.92 0 1.66.79 1.66 1.76 0 .96-.74 1.74-1.66 1.74-.91 0-1.65-.78-1.65-1.74ZM105.9 236h.97v-2.82c0-1.61-.84-2.29-1.92-2.29-.82 0-1.47.4-1.68 1.11v-1h-.97v5h.97v-2.32c0-1.58 1.09-1.93 1.61-1.93.53 0 1.02.37 1.02 1.43V236Zm5.545-3.92c-.28-.9-.97-1.19-1.67-1.19-.99 0-1.65.64-1.65 1.49 0 .69.43 1.12 1.23 1.36l.67.23c.35.12.63.29.63.63 0 .39-.36.68-.86.68-.51 0-.96-.29-1.08-.69l-.86.21c.23.86 1.05 1.31 1.93 1.31.97 0 1.8-.55 1.8-1.5 0-.53-.25-1.12-1.2-1.41l-.72-.24c-.3-.1-.6-.27-.6-.6 0-.36.29-.64.74-.64.31 0 .62.1.78.55l.86-.19Zm3.561 1.42c0 1.45 1.18 2.61 2.62 2.61 1.45 0 2.63-1.17 2.63-2.61 0-1.43-1.18-2.61-2.63-2.61a2.62 2.62 0 0 0-2.62 2.61Zm.97.01c0-.97.74-1.76 1.65-1.76.92 0 1.66.79 1.66 1.76 0 .96-.74 1.74-1.66 1.74-.91 0-1.65-.78-1.65-1.74Zm9.036 2.49h.97v-2.82c0-1.61-.84-2.29-1.92-2.29-.82 0-1.47.4-1.68 1.11v-1h-.97v5h.97v-2.32c0-1.58 1.09-1.93 1.61-1.93.53 0 1.02.37 1.02 1.43V236Zm8.671 0h.97v-2.82c0-1.61-.84-2.29-1.92-2.29-.82 0-1.47.4-1.68 1.11v-3.23h-.97V236h.97v-2.32c0-1.58 1.09-1.93 1.61-1.93.53 0 1.02.37 1.02 1.43V236Zm2.046-2.5c0 1.45 1.18 2.61 2.62 2.61 1.45 0 2.63-1.17 2.63-2.61 0-1.43-1.18-2.61-2.63-2.61a2.62 2.62 0 0 0-2.62 2.61Zm.97.01c0-.97.74-1.76 1.65-1.76.92 0 1.66.79 1.66 1.76 0 .96-.74 1.74-1.66 1.74-.91 0-1.65-.78-1.65-1.74Zm7.059 1.19-1.3-3.7h-1.01l1.81 5h.92l1.13-3.48 1.13 3.48h.92l1.81-5h-1.01l-1.3 3.7-1.14-3.55h-.82l-1.14 3.55Zm10.006-2.94h1.59V231h-1.59v-1.44h-.75l-.22 1.44h-.82v.76h.82v2.66c0 1.28.77 1.69 1.56 1.69.97 0 1.48-.56 1.48-1.27 0 0 0-.34-.09-.54h-.85c.07.15.08.34.08.41 0 .37-.3.55-.61.55-.33 0-.6-.22-.6-.77v-2.73Zm2.6 1.74c0 1.45 1.18 2.61 2.62 2.61 1.45 0 2.63-1.17 2.63-2.61 0-1.43-1.18-2.61-2.63-2.61a2.62 2.62 0 0 0-2.62 2.61Zm.97.01c0-.97.74-1.76 1.65-1.76.92 0 1.66.79 1.66 1.76 0 .96-.74 1.74-1.66 1.74-.91 0-1.65-.78-1.65-1.74Zm9.042-2.51h-.97v5h.97v-1.89c0-2.13.94-2.29 1.27-2.29.18 0 .37.04.53.13V231c-.14-.06-.28-.11-.46-.11-.62 0-1.17.45-1.34 1.24V231Zm6.674 3.62c-.5.43-1.04.63-1.64.63-1.11 0-1.89-.69-1.86-1.66h4.27c0-1.85-1.23-2.7-2.55-2.7-1.55 0-2.69 1.17-2.69 2.63 0 1.42 1.08 2.59 2.82 2.59.74 0 1.55-.21 2.19-.93l-.54-.56Zm-1.76-2.88c.55 0 1.26.19 1.53 1.1h-3.18c.33-.87 1.06-1.1 1.65-1.1Zm3.258 1.76c0 1.43.98 2.61 2.48 2.61.67 0 1.33-.23 1.81-.91v.8h.97v-7.23h-.97v3.03c-.48-.68-1.14-.91-1.81-.91-1.5 0-2.48 1.18-2.48 2.61Zm4.31 0c-.01 1.01-.7 1.75-1.71 1.75-1.04 0-1.63-.8-1.63-1.75s.59-1.75 1.63-1.75c1.01 0 1.7.74 1.71 1.75Zm6.575 1.12c-.5.43-1.04.63-1.64.63-1.11 0-1.89-.69-1.86-1.66h4.27c0-1.85-1.23-2.7-2.55-2.7-1.55 0-2.69 1.17-2.69 2.63 0 1.42 1.08 2.59 2.82 2.59.74 0 1.55-.21 2.19-.93l-.54-.56Zm-1.76-2.88c.55 0 1.26.19 1.53 1.1h-3.18c.33-.87 1.06-1.1 1.65-1.1Zm7.708 2.88c-.5.43-1.04.63-1.64.63-1.11 0-1.89-.69-1.86-1.66h4.27c0-1.85-1.23-2.7-2.55-2.7-1.55 0-2.69 1.17-2.69 2.63 0 1.42 1.08 2.59 2.82 2.59.74 0 1.55-.21 2.19-.93l-.54-.56Zm-1.76-2.88c.55 0 1.26.19 1.53 1.1h-3.18c.33-.87 1.06-1.1 1.65-1.1Zm7.027 4.26h.97v-2.43c.05-1.53.95-1.82 1.42-1.82.53 0 1.02.37 1.02 1.43V236h.97v-2.82c0-1.61-.75-2.29-1.93-2.29-.6 0-1.29.18-1.7 1.05-.39-.89-1.11-1.05-1.59-1.05-.74 0-1.39.38-1.6 1.11v-1h-.97v5h.97v-2.32c0-1.58.9-1.93 1.42-1.93.53 0 1.02.37 1.02 1.43V236Zm10.241-1.27-1.53-3.73h-1.11l2.11 4.83-.93 2.41h.94l3.07-7.24h-1.13l-1.42 3.73Zm2.932-1.23c0 1.45 1.18 2.61 2.62 2.61 1.45 0 2.63-1.17 2.63-2.61 0-1.43-1.18-2.61-2.63-2.61a2.62 2.62 0 0 0-2.62 2.61Zm.97.01c0-.97.74-1.76 1.65-1.76.92 0 1.66.79 1.66 1.76 0 .96-.74 1.74-1.66 1.74-.91 0-1.65-.78-1.65-1.74Zm6.325-2.51h-.97v2.82c0 1.61.84 2.29 1.92 2.29.82 0 1.47-.4 1.68-1.11v1h.97v-5h-.97v2.32c0 1.58-1.09 1.93-1.61 1.93-.53 0-1.02-.37-1.02-1.43V231Zm6.105 0h-.97v5h.97v-1.89c0-2.13.94-2.29 1.27-2.29.18 0 .37.04.53.13V231c-.14-.06-.28-.11-.46-.11-.62 0-1.17.45-1.34 1.24V231Zm10.085-.2c0-1.12-.98-1.8-2.31-1.8h-2.49v7h2.81c1.39 0 2.33-.74 2.33-1.86 0-.87-.56-1.61-1.68-1.72.92-.23 1.34-.89 1.34-1.62Zm-2.5 2.07c1.28 0 1.81.6 1.81 1.24 0 .65-.55 1.07-1.3 1.07h-1.81v-2.31h1.3Zm-1.3-.78v-2.27h1.49c.68 0 1.28.36 1.28 1.05 0 .61-.46 1.22-1.68 1.22h-1.09Zm5.002 1.41c0 1.43.98 2.61 2.48 2.61.67 0 1.33-.23 1.81-.91v.8h.97v-5h-.97v.8c-.48-.68-1.14-.91-1.81-.91-1.5 0-2.48 1.18-2.48 2.61Zm4.31 0c-.01 1.01-.7 1.75-1.71 1.75-1.04 0-1.63-.8-1.63-1.75s.59-1.75 1.63-1.75c1.01 0 1.7.74 1.71 1.75Zm6.086 2.5h.97v-2.82c0-1.61-.84-2.29-1.92-2.29-.82 0-1.47.4-1.68 1.11v-1h-.97v5h.97v-2.32c0-1.58 1.09-1.93 1.61-1.93.53 0 1.02.37 1.02 1.43V236Zm2.065-2.5c0 1.43.98 2.61 2.48 2.61.67 0 1.33-.23 1.81-.91v.8h.97v-5h-.97v.8c-.48-.68-1.14-.91-1.81-.91-1.5 0-2.48 1.18-2.48 2.61Zm4.31 0c-.01 1.01-.7 1.75-1.71 1.75-1.04 0-1.63-.8-1.63-1.75s.59-1.75 1.63-1.75c1.01 0 1.7.74 1.71 1.75Zm6.086 2.5h.97v-2.82c0-1.61-.84-2.29-1.92-2.29-.82 0-1.47.4-1.68 1.11v-1h-.97v5h.97v-2.32c0-1.58 1.09-1.93 1.61-1.93.53 0 1.02.37 1.02 1.43V236Zm2.055-2.5c0 1.45 1.18 2.61 2.62 2.61 1.45 0 2.63-1.17 2.63-2.61 0-1.43-1.18-2.61-2.63-2.61a2.62 2.62 0 0 0-2.62 2.61Zm.97.01c0-.97.74-1.76 1.65-1.76.92 0 1.66.79 1.66 1.76 0 .96-.74 1.74-1.66 1.74-.91 0-1.65-.78-1.65-1.74Zm5.318 3.79c.8-.25 1.22-.97 1.22-1.79 0-.27-.13-.82-.69-.82-.48 0-.71.3-.7.64.01.33.28.66.76.5 0 .38-.19.91-.78 1.11l.19.36Zm9.333-6.3h-1.02l-1.46 3.93-1.46-3.93h-1.02l1.93 5h1.1l1.93-5Zm2 5h-.97v-5h.97v5Zm-1.16-6.61c0 .38.29.67.67.67.38 0 .68-.29.68-.67 0-.38-.3-.68-.68-.68-.38 0-.67.3-.67.68Zm5.838 2.69c-.28-.9-.97-1.19-1.67-1.19-.99 0-1.65.64-1.65 1.49 0 .69.43 1.12 1.23 1.36l.67.23c.35.12.63.29.63.63 0 .39-.36.68-.86.68-.51 0-.96-.29-1.08-.69l-.86.21c.23.86 1.05 1.31 1.93 1.31.97 0 1.8-.55 1.8-1.5 0-.53-.25-1.12-1.2-1.41l-.72-.24c-.3-.1-.6-.27-.6-.6 0-.36.29-.64.74-.64.31 0 .62.1.78.55l.86-.19Zm2.304 3.92h-.97v-5h.97v5Zm-1.16-6.61c0 .38.29.67.67.67.38 0 .68-.29.68-.67 0-.38-.3-.68-.68-.68-.38 0-.67.3-.67.68Zm3.938 2.37h1.59V231h-1.59v-1.44h-.75l-.22 1.44h-.82v.76h.82v2.66c0 1.28.77 1.69 1.56 1.69.97 0 1.48-.56 1.48-1.27 0 0 0-.34-.09-.54h-.85c.07.15.08.34.08.41 0 .37-.3.55-.61.55-.33 0-.6-.22-.6-.77v-2.73Zm2.88 3.62c0 .41.32.73.73.73s.74-.32.74-.73-.33-.74-.74-.74a.73.73 0 0 0-.73.74Zm0-3.75c0 .41.32.73.73.73s.74-.32.74-.73-.33-.74-.74-.74a.73.73 0 0 0-.73.74Zm12.267 1.262c0-1.728-1.044-3.18-2.964-3.18-.828 0-1.548.408-1.968.972v-3.36h-1.788V236h1.788v-.9c.444.636 1.032 1.032 1.932 1.032 1.872 0 3-1.44 3-3.24Zm-1.788.012c0 .984-.6 1.776-1.584 1.776-.876 0-1.608-.564-1.608-1.68 0-1.14.684-1.836 1.656-1.836.984 0 1.536.792 1.536 1.74Zm4.394 0c0-.948.552-1.74 1.536-1.74.972 0 1.656.696 1.656 1.836 0 1.116-.732 1.68-1.608 1.68-.984 0-1.584-.792-1.584-1.776Zm3.144-3.06v.84a2.465 2.465 0 0 0-1.968-.972c-1.92 0-2.964 1.452-2.964 3.18 0 1.8 1.128 3.24 3 3.24.9 0 1.488-.396 1.932-1.032v.9h1.788v-6.156h-1.788Zm3.327 6.156h1.788v-3.3c0-.852.348-1.512 1.176-1.512s1.14.648 1.14 1.5V236h1.788v-3.348c0-1.56-.468-2.94-2.196-2.94-.744 0-1.392.252-1.908.972v-.84h-1.788V236Zm8.787-3.096c0-.948.552-1.74 1.536-1.74.972 0 1.656.696 1.656 1.836 0 1.116-.732 1.68-1.608 1.68-.984 0-1.584-.792-1.584-1.776Zm3.144-3.06v.84a2.465 2.465 0 0 0-1.968-.972c-1.92 0-2.964 1.452-2.964 3.18 0 1.8 1.128 3.24 3 3.24.9 0 1.488-.396 1.932-1.032v.9h1.788v-6.156h-1.788Zm3.327 6.156h1.788v-3.3c0-.852.348-1.512 1.176-1.512s1.14.648 1.14 1.5V236h1.788v-3.348c0-1.56-.468-2.94-2.196-2.94-.744 0-1.392.252-1.908.972v-.84h-1.788V236Zm6.975-3.084c0 1.932 1.596 3.216 3.384 3.216 1.8 0 3.384-1.296 3.384-3.216 0-1.908-1.584-3.204-3.384-3.204-1.788 0-3.384 1.284-3.384 3.204Zm1.74 0c0-.96.768-1.668 1.644-1.668.888 0 1.644.72 1.644 1.668 0 .96-.756 1.68-1.644 1.68a1.654 1.654 0 0 1-1.644-1.68Zm5.951 2.184c0 .588.48 1.032 1.128 1.032.636 0 1.14-.444 1.14-1.032 0-.6-.504-1.056-1.14-1.056-.648 0-1.128.456-1.128 1.056Zm3.184-2.184c0 1.824 1.332 3.204 3.444 3.204.636 0 1.464-.132 2.52-.912l-.816-1.308c-.6.54-1.308.612-1.62.612-1.044 0-1.74-.66-1.74-1.596s.696-1.596 1.74-1.596c.312 0 1.02.072 1.62.612l.816-1.308c-1.056-.78-1.884-.912-2.52-.912-2.112 0-3.444 1.38-3.444 3.204Zm6.504 0c0 1.824 1.332 3.204 3.444 3.204.636 0 1.464-.132 2.52-.912l-.816-1.308c-.6.54-1.308.612-1.62.612-1.044 0-1.74-.66-1.74-1.596s.696-1.596 1.74-1.596c.312 0 1.02.072 1.62.612l.816-1.308c-1.056-.78-1.884-.912-2.52-.912-2.112 0-3.444 1.38-3.444 3.204Zm12.597-5.784h-1.464l-4.608 9.3h1.452l4.62-9.3Zm2.359 2.712h-1.74V236h1.788v-3.348c0-.816.672-1.212 1.344-1.212.18 0 .504.024.756.084v-1.764c-.192-.036-.252-.048-.456-.048-.54 0-1.488.36-1.692 1.476v-1.344Zm5.994 1.32c.6 0 1.404.3 1.524 1.092h-3.084c.216-.828.984-1.092 1.56-1.092Zm1.992 2.772c-.432.408-1.068.732-1.704.732-1.14 0-1.848-.564-1.884-1.332h4.956c0-2.448-1.632-3.624-3.336-3.624-1.98 0-3.396 1.428-3.396 3.24 0 1.752 1.248 3.18 3.528 3.18.828 0 1.992-.252 2.868-1.212l-1.032-.984Zm3.843-1.032c0-.948.552-1.74 1.536-1.74.972 0 1.656.696 1.656 1.836 0 1.116-.732 1.68-1.608 1.68-.984 0-1.584-.792-1.584-1.776Zm3.144-5.58v3.36a2.465 2.465 0 0 0-1.968-.972c-1.92 0-2.964 1.452-2.964 3.18 0 1.8 1.128 3.24 3 3.24.9 0 1.488-.396 1.932-1.032v.9h1.788v-8.676h-1.788Zm6.326 3.84c.6 0 1.404.3 1.524 1.092h-3.084c.216-.828.984-1.092 1.56-1.092Zm1.992 2.772c-.432.408-1.068.732-1.704.732-1.14 0-1.848-.564-1.884-1.332h4.956c0-2.448-1.632-3.624-3.336-3.624-1.98 0-3.396 1.428-3.396 3.24 0 1.752 1.248 3.18 3.528 3.18.828 0 1.992-.252 2.868-1.212l-1.032-.984Zm5.402-2.772c.6 0 1.404.3 1.524 1.092h-3.084c.216-.828.984-1.092 1.56-1.092Zm1.992 2.772c-.432.408-1.068.732-1.704.732-1.14 0-1.848-.564-1.884-1.332h4.956c0-2.448-1.632-3.624-3.336-3.624-1.98 0-3.396 1.428-3.396 3.24 0 1.752 1.248 3.18 3.528 3.18.828 0 1.992-.252 2.868-1.212l-1.032-.984Zm9.051-2.748c.792 0 1.032.66 1.032 1.5V236h1.788v-3.348c0-1.56-.468-2.94-2.196-2.94-.588 0-1.476.132-1.944 1.032-.312-.624-.948-1.032-1.884-1.032-.672 0-1.248.36-1.644.972v-.84h-1.788V236h1.788v-3.3c0-.828.24-1.512 1.02-1.512.792 0 1.032.66 1.032 1.5V236h1.776v-3.3c0-.828.24-1.512 1.02-1.512Z" fill="#fff"/>
    <path d="M398.365 0a19.677 19.677 0 0 1-4.117 7.039l-.086.095-.086.096-.076.086-.076-.086-.086-.096-.086-.095A19.831 19.831 0 0 1 389.635 0h-.907a20.119 20.119 0 0 0 4.604 7.88l.085.095.086.086.191.19.306.287.296-.286.191-.191a.707.707 0 0 0 .086-.086l.086-.086A19.973 19.973 0 0 0 399.281 0h-.916Z" fill="#033333"/>
    <path d="m394 41.63-13.552 7.125 2.588-15.09-10.964-10.687 15.147-2.206L394 7.048l6.781 13.724 15.147 2.206-10.964 10.688 2.588 15.09L394 41.63Z" fill="#C32127"/>
    <path fill-rule="evenodd" clip-rule="evenodd" d="m394 41.63-13.552 7.125 2.588-15.09-10.964-10.687 15.147-2.206L394 7.048l6.781 13.724 15.147 2.206-10.964 10.688 2.588 15.09L394 41.63Zm12-7.628 2.833 16.516L394 42.72l-14.833 7.798L382 34.002l-12-11.696 16.579-2.415L394 4.87l7.421 15.02L418 22.306l-12 11.696Z" fill="#033333"/>
    <path d="m387.296 20.887-14.976 2.177L394 27.926V7.306l-6.704 13.58Z" fill="#B21F2F"/>
    <path d="M383.16 33.627 394 27.926l-21.68-4.862 10.84 10.563Z" fill="#A51E2D"/>
    <path d="M380.601 48.545 394 41.507l13.399 7.038L394 27.925l-13.399 20.62Z" fill="#A51E2D"/>
    <path d="M415.68 23.064 394 27.926l10.84 5.701 10.84-10.563Z" fill="#A51E2D"/>
    <g clip-path="url(#c)">
      <path d="M109.61 199.63a8.892 8.892 0 0 1-1.43-.11c-2.45-.36-5.55-1.55-9.49-3.66a1.206 1.206 0 0 1-.698-1.2 1.206 1.206 0 0 1 1.255-1.108c.206.009.407.07.583.178a29.294 29.294 0 0 0 8.7 3.41 3.72 3.72 0 0 0 3-.47c.66-.57.6-1.59.43-3.49a15.365 15.365 0 0 1 1-8.17 16.142 16.142 0 0 1 5.13-6.3 12.494 12.494 0 0 1 3.7-1.89 9.246 9.246 0 0 1 4.15-.33 10.11 10.11 0 0 1 4.71 2.11 8.257 8.257 0 0 1 3 4.67 9.41 9.41 0 0 1-.23 4.65 5.582 5.582 0 0 1-1.256 2.293A5.59 5.59 0 0 1 130 191.68a5.118 5.118 0 0 1-1.69.29 7.876 7.876 0 0 1-4.62-1.84 1.198 1.198 0 0 1-.269-1.5 1.198 1.198 0 0 1 1.189-.608c.236.027.459.124.64.278 0 0 2.11 1.76 3.93 1.11a3.273 3.273 0 0 0 1.84-2.21 7.1 7.1 0 0 0 .16-3.42 5.907 5.907 0 0 0-2.15-3.31 7.815 7.815 0 0 0-3.56-1.6 8.07 8.07 0 0 0-6.06 1.79 13.618 13.618 0 0 0-4.34 5.32 13.206 13.206 0 0 0-.76 7c.19 2.12.37 4.12-1.24 5.53a5.126 5.126 0 0 1-3.46 1.12Z" fill="#D12027"/>
      <path d="M109.61 199.77a9.26 9.26 0 0 1-1.45-.12c-2.46-.35-5.58-1.56-9.53-3.67a1.347 1.347 0 0 1-.55-1.82c.17-.309.453-.542.79-.65a1.347 1.347 0 0 1 1 .1 29.08 29.08 0 0 0 8.66 3.39 3.544 3.544 0 0 0 2.87-.43c.61-.53.55-1.52.39-3.38a15.365 15.365 0 0 1 1-8.24 16.224 16.224 0 0 1 5.17-6.35 12.762 12.762 0 0 1 3.74-1.91 9.512 9.512 0 0 1 4.21-.34 10.222 10.222 0 0 1 4.77 2.14 8.36 8.36 0 0 1 3 4.75 9.611 9.611 0 0 1-.23 4.73 5.671 5.671 0 0 1-3.4 3.83 4.976 4.976 0 0 1-1.73.3 7.993 7.993 0 0 1-4.71-1.87 1.34 1.34 0 0 1 1.74-2s2.06 1.71 3.8 1.09a3.147 3.147 0 0 0 1.75-2.13 6.884 6.884 0 0 0 .16-3.34 5.744 5.744 0 0 0-2.1-3.23 7.727 7.727 0 0 0-3.5-1.58 8.004 8.004 0 0 0-6 1.77 13.528 13.528 0 0 0-4.3 5.27 12.901 12.901 0 0 0-.74 6.91c.19 2.15.37 4.18-1.29 5.64a5.269 5.269 0 0 1-3.52 1.14Zm-10.35-6a1.073 1.073 0 0 0-.31 0 1.073 1.073 0 0 0-.64.52 1.082 1.082 0 0 0 .44 1.45c3.93 2.1 7 3.29 9.45 3.65a5.737 5.737 0 0 0 4.81-1c1.56-1.36 1.38-3.32 1.2-5.4-.383-2.36-.117-4.78.77-7a13.58 13.58 0 0 1 4.38-5.38 8.21 8.21 0 0 1 6.16-1.81 7.905 7.905 0 0 1 3.63 1.63 6.074 6.074 0 0 1 2.2 3.38 7.264 7.264 0 0 1-.18 3.49 3.326 3.326 0 0 1-.685 1.37 3.324 3.324 0 0 1-1.225.92c-1.89.68-4-1.12-4.07-1.13a1.077 1.077 0 0 0-.78-.248 1.078 1.078 0 0 0-.73.368c-.18.219-.27.498-.25.78a1.07 1.07 0 0 0 .38.73 7.754 7.754 0 0 0 4.53 1.8 4.726 4.726 0 0 0 1.64-.28 5.42 5.42 0 0 0 3.24-3.67 9.393 9.393 0 0 0 .22-4.59 8.113 8.113 0 0 0-2.95-4.59 9.91 9.91 0 0 0-4.64-2.08 9.271 9.271 0 0 0-4.09.33 12.37 12.37 0 0 0-3.66 1.87 15.814 15.814 0 0 0-5.08 6.24 15.146 15.146 0 0 0-1 8.11c.18 1.94.24 3-.47 3.6a3.795 3.795 0 0 1-3.09.5 29.645 29.645 0 0 1-8.75-3.42 1.14 1.14 0 0 0-.45-.19v.05Z" fill="#010101"/>
      <path d="M109.61 199.75a9.15 9.15 0 0 1-1.45-.11c-2.46-.36-5.58-1.56-9.53-3.68a1.326 1.326 0 0 1-.642-.783 1.319 1.319 0 0 1 .43-1.406 1.312 1.312 0 0 1 1.462-.141 29.122 29.122 0 0 0 8.67 3.39 3.55 3.55 0 0 0 2.88-.44c.62-.54.56-1.53.39-3.39a15.506 15.506 0 0 1 1-8.23 16.296 16.296 0 0 1 5.17-6.35 12.84 12.84 0 0 1 3.73-1.9 9.381 9.381 0 0 1 4.21-.34 10.269 10.269 0 0 1 4.76 2.13 8.414 8.414 0 0 1 3 4.74 9.69 9.69 0 0 1-.23 4.72 5.694 5.694 0 0 1-3.39 3.83 4.976 4.976 0 0 1-1.73.3 7.99 7.99 0 0 1-4.7-1.87 1.317 1.317 0 0 1-.587-.926 1.332 1.332 0 0 1 2.307-1.074s2.06 1.72 3.81 1.09a3.123 3.123 0 0 0 1.76-2.13 7.004 7.004 0 0 0 .17-3.36 5.808 5.808 0 0 0-2.11-3.23 7.65 7.65 0 0 0-3.51-1.58 8.017 8.017 0 0 0-6 1.76 13.534 13.534 0 0 0-4.3 5.28 13.05 13.05 0 0 0-.75 6.92c.19 2.15.38 4.18-1.28 5.63a5.236 5.236 0 0 1-3.54 1.15Zm-10.35-6a1.084 1.084 0 0 0-.947 1.485c.087.214.24.394.437.515 3.92 2.1 7 3.3 9.45 3.65.466.075.938.112 1.41.11a4.996 4.996 0 0 0 3.41-1.12c1.57-1.37 1.39-3.33 1.2-5.41-.383-2.36-.117-4.78.77-7a13.606 13.606 0 0 1 4.38-5.37 8.246 8.246 0 0 1 6.15-1.81 8.018 8.018 0 0 1 3.62 1.63 6.003 6.003 0 0 1 2.19 3.37 7.09 7.09 0 0 1-.17 3.48 3.365 3.365 0 0 1-1.91 2.29c-1.89.68-4-1.11-4-1.13a1.086 1.086 0 0 0-.788-.253 1.089 1.089 0 0 0-.942.747 1.084 1.084 0 0 0 .33 1.156 7.785 7.785 0 0 0 4.54 1.81 4.727 4.727 0 0 0 1.64-.29 5.417 5.417 0 0 0 3.25-3.67 9.315 9.315 0 0 0 .22-4.6 8.132 8.132 0 0 0-2.95-4.6 9.901 9.901 0 0 0-4.65-2.08 9 9 0 0 0-4.1.33 12.572 12.572 0 0 0-3.66 1.86 16.05 16.05 0 0 0-5.09 6.26 15.22 15.22 0 0 0-.94 8.11c.17 1.94.23 3-.47 3.59a3.773 3.773 0 0 1-3.08.5 29.614 29.614 0 0 1-8.74-3.42 1.011 1.011 0 0 0-.56-.18v.04Z" fill="#333"/>
      <path d="M74.67 192.96a3.006 3.006 0 0 1-3-3 23.202 23.202 0 0 1 4.79-13.63 28.24 28.24 0 0 1 10.06-8.63 3.011 3.011 0 0 1 2.62 5.42 22.217 22.217 0 0 0-7.83 6.76 17.433 17.433 0 0 0-3.63 10.05 3.004 3.004 0 0 1-3 3l-.01.03Z" fill="#D12027"/>
      <path d="M74.68 193.09a3.145 3.145 0 0 1-3.15-3.14 23.313 23.313 0 0 1 4.81-13.71 28.411 28.411 0 0 1 10.11-8.67 3.156 3.156 0 0 1 4.21 1.46 3.2 3.2 0 0 1 .14 2.41 3.109 3.109 0 0 1-1.61 1.79 21.914 21.914 0 0 0-7.76 6.72 17.384 17.384 0 0 0-3.61 10 3.137 3.137 0 0 1-1.927 2.916c-.38.16-.79.243-1.203.244l-.01-.02Zm13.13-25.57c-.433.003-.86.102-1.25.29a28.165 28.165 0 0 0-10 8.59 23 23 0 0 0-4.76 13.55 2.879 2.879 0 0 0 2.88 2.87 2.813 2.813 0 0 0 2-.85c.53-.532.83-1.249.84-2a17.575 17.575 0 0 1 3.65-10.13 22.25 22.25 0 0 1 7.87-6.81 2.821 2.821 0 0 0 1.46-1.64 2.865 2.865 0 0 0-1.77-3.67 2.85 2.85 0 0 0-.92-.2Z" fill="#010101"/>
      <path d="M74.68 193.08a3.14 3.14 0 0 1-3.14-3.13 23.33 23.33 0 0 1 4.81-13.7 28.41 28.41 0 0 1 10.11-8.67 3.144 3.144 0 0 1 3.448.48 3.14 3.14 0 0 1 1.045 2.159 3.128 3.128 0 0 1-1.763 3.001 21.893 21.893 0 0 0-7.77 6.73 17.293 17.293 0 0 0-3.61 10 3.111 3.111 0 0 1-.91 2.22c-.592.583-1.39.91-2.22.91Zm13.13-25.57c-.437 0-.868.099-1.26.29a28.165 28.165 0 0 0-10 8.59 23.003 23.003 0 0 0-4.77 13.56 2.909 2.909 0 0 0 2.9 2.89 2.894 2.894 0 0 0 2.88-2.91 17.574 17.574 0 0 1 3.65-10.13 22.233 22.233 0 0 1 7.86-6.79 2.887 2.887 0 0 0 .553-4.876 2.893 2.893 0 0 0-1.813-.624Z" fill="#333"/>
      <path d="M78 188.17a7.741 7.741 0 0 1-.12 1.23 3.823 3.823 0 0 0-4.8-.8 4.435 4.435 0 0 0-1.45 1.78v-.33c0-.46-.08-1 0-1.42a.35.35 0 0 1 0-.17c1.08-2.31 4.91-2.38 6.29-.59a.47.47 0 0 1 .08.3Z" fill="#EDEDEE"/>
      <path d="M71.67 190.5h-.2v-1.04a5.748 5.748 0 0 1 0-.83.54.54 0 0 1 0-.22 3.49 3.49 0 0 1 2.92-1.88A4.01 4.01 0 0 1 78 187.8c.078.108.12.238.12.37-.006.42-.05.838-.13 1.25v.1h-.17a3.698 3.698 0 0 0-2.177-1.216 3.697 3.697 0 0 0-2.453.446 4.27 4.27 0 0 0-1.41 1.73l-.11.02Zm3.26-3.76h-.51a3.233 3.233 0 0 0-2.73 1.74.31.31 0 0 0 0 .13 5.34 5.34 0 0 0 0 .8v.45A4.554 4.554 0 0 1 73 188.5a3.903 3.903 0 0 1 4.8.65c.044-.331.071-.665.08-1a.35.35 0 0 0-.08-.22 3.562 3.562 0 0 0-2.87-1.19Z" fill="#333"/>
      <path d="M75.68 198.05a3.435 3.435 0 0 1-1.22-.22 4.557 4.557 0 0 1-2.46-2.34 7.283 7.283 0 0 1-.73-2.31 5.48 5.48 0 0 1 .11-2.11 4.407 4.407 0 0 1 1.72-2.57 3.497 3.497 0 0 1 4.116.024 3.49 3.49 0 0 1 1.234 3.926 3.464 3.464 0 0 1 .55 3.33 3.497 3.497 0 0 1-3.32 2.27Z" fill="#D12027"/>
      <path d="M75.68 198.19a3.671 3.671 0 0 1-1.27-.23 4.718 4.718 0 0 1-2.52-2.4 7.612 7.612 0 0 1-.74-2.37 5.762 5.762 0 0 1 .1-2.16 4.65 4.65 0 0 1 1.75-2.64 3.629 3.629 0 0 1 5.58 4.03 3.605 3.605 0 0 1 .47 3.4 3.64 3.64 0 0 1-3.37 2.37Zm-.54-10.21a3.365 3.365 0 0 0-2 .63 4.34 4.34 0 0 0-1.67 2.49 5.22 5.22 0 0 0-.1 2.06 7.13 7.13 0 0 0 .71 2.27 4.506 4.506 0 0 0 2.37 2.28 3.35 3.35 0 0 0 2.58-.102 3.379 3.379 0 0 0 1.28-5.098v-.13a3.417 3.417 0 0 0-.46-3 3.306 3.306 0 0 0-2.19-1.35 3.488 3.488 0 0 0-.52-.05Z" fill="#333"/>
      <path opacity=".08" d="M77.45 197.57a3.506 3.506 0 0 1-2.99.26 4.557 4.557 0 0 1-2.46-2.34 7.283 7.283 0 0 1-.73-2.31 5.48 5.48 0 0 1 .11-2.11c.065-.279.158-.55.28-.81a3.024 3.024 0 0 1 0-.31 22.924 22.924 0 0 1 4.32-13c.48.187.97.367 1.47.54-2.39 3.8-4.12 6.8-4.1 10.78-.82 1.05-.61 4 0 5.52 1.36 3.2 3.75 3.76 4.1 3.78Z" fill="#1E1E1E"/>
      <path d="M88.38 210.88h-.18a4.572 4.572 0 0 1-4.121-2.993 4.577 4.577 0 0 1-.279-1.767 38.833 38.833 0 0 1 2.64-12.35c.3-.84.56-1.58.75-2.23a4.584 4.584 0 0 1 8.81 2.54c-.27.93-.59 1.83-.93 2.78a29.584 29.584 0 0 0-2.07 9.62 4.577 4.577 0 0 1-4.62 4.4Z" fill="#D12027"/>
      <path d="M88.38 211.02h-.19a4.704 4.704 0 0 1-4.52-4.9 38.654 38.654 0 0 1 2.64-12.38c.3-.85.56-1.58.75-2.23a4.72 4.72 0 0 1 9.06 2.62c-.27.93-.59 1.83-.93 2.78a29.765 29.765 0 0 0-2.1 9.59 4.697 4.697 0 0 1-4.71 4.52Zm3.21-22.66a4.452 4.452 0 0 0-4.27 3.22c-.19.65-.45 1.39-.76 2.24a38.62 38.62 0 0 0-2.62 12.3 4.45 4.45 0 0 0 2.572 4.222c.53.244 1.104.379 1.688.398h.18a4.428 4.428 0 0 0 4.44-4.27c.16-3.316.877-6.581 2.12-9.66.34-1 .66-1.85.92-2.78a4.458 4.458 0 0 0-4.27-5.68v.01Z" fill="#010101"/>
      <path d="M88.38 211h-.19a4.692 4.692 0 0 1-4.226-3.076 4.701 4.701 0 0 1-.284-1.814 39.007 39.007 0 0 1 2.64-12.38c.31-.84.57-1.57.75-2.22a4.704 4.704 0 0 1 3.989-3.733 4.702 4.702 0 0 1 5.011 6.333c-.27.94-.59 1.84-.93 2.79a29.445 29.445 0 0 0-2.1 9.59 4.7 4.7 0 0 1-4.7 4.51h.04Zm3.21-22.65a4.438 4.438 0 0 0-4.28 3.22c-.19.66-.46 1.39-.76 2.25a38.245 38.245 0 0 0-2.63 12.3 4.46 4.46 0 0 0 4.28 4.64h.18a4.46 4.46 0 0 0 4.46-4.28 29.761 29.761 0 0 1 2.16-9.66c.34-.95.66-1.85.93-2.77a4.47 4.47 0 0 0-3-5.53 4.85 4.85 0 0 0-1.34-.17Z" fill="#333"/>
      <path d="M101.44 210.97a4.575 4.575 0 0 1-4.57-4.32 29.804 29.804 0 0 0-2.27-9.58c-.36-.95-.69-1.84-1-2.77a4.584 4.584 0 0 1 3.046-5.691 4.583 4.583 0 0 1 5.714 3.001c.2.65.47 1.38.79 2.22a38.577 38.577 0 0 1 2.85 12.3 4.563 4.563 0 0 1-1.153 3.309 4.56 4.56 0 0 1-3.157 1.521l-.25.01Z" fill="#D12027"/>
      <path d="M101.44 211.11a4.719 4.719 0 0 1-4.7-4.45 29.74 29.74 0 0 0-2.27-9.55c-.35-.94-.69-1.84-1-2.77a4.718 4.718 0 0 1 9-2.77c.2.65.47 1.37.79 2.21a38.814 38.814 0 0 1 2.85 12.34 4.719 4.719 0 0 1-4.43 5l-.24-.01ZM98 188.51a4.283 4.283 0 0 0-1.32.2 4.448 4.448 0 0 0-3.117 3.827c-.055.58.005 1.166.177 1.723.28.92.62 1.81 1 2.76a30.005 30.005 0 0 1 2.26 9.62 4.448 4.448 0 0 0 7.695 2.613 4.45 4.45 0 0 0 1.185-3.113 38.687 38.687 0 0 0-2.83-12.26c-.32-.84-.6-1.57-.8-2.23a4.466 4.466 0 0 0-4.24-3.14H98Z" fill="#010101"/>
      <path d="M101.44 211.09a4.717 4.717 0 0 1-4.69-4.43 29.758 29.758 0 0 0-2.26-9.55c-.36-.95-.7-1.84-1-2.77a4.708 4.708 0 1 1 9-2.77c.2.65.48 1.38.79 2.22a38.628 38.628 0 0 1 2.86 12.33 4.71 4.71 0 0 1-1.18 3.4 4.66 4.66 0 0 1-3.24 1.56l-.28.01ZM98 188.49c-.444.002-.886.07-1.31.2a4.483 4.483 0 0 0-2.66 2.167 4.475 4.475 0 0 0-.34 3.413c.28.92.62 1.81 1 2.75a29.854 29.854 0 0 1 2.31 9.63 4.468 4.468 0 0 0 4.45 4.2h.26a4.467 4.467 0 0 0 3.08-1.481 4.454 4.454 0 0 0 1.12-3.229 38.675 38.675 0 0 0-2.85-12.26c-.32-.84-.6-1.57-.8-2.23a4.465 4.465 0 0 0-2.17-2.63 4.562 4.562 0 0 0-2.09-.53Z" fill="#333"/>
      <path d="M114.75 192.13h-.3a2.999 2.999 0 0 1-2.7-3.31c.26-2.58-.9-5.89-3.18-9.08a22.018 22.018 0 0 0-7.83-6.9 3.011 3.011 0 0 1 .226-5.563 3.018 3.018 0 0 1 2.304.093 23.884 23.884 0 0 1 5.48 3.65 30.964 30.964 0 0 1 4.73 5.22c3.16 4.43 4.68 9.11 4.27 13.19a2.994 2.994 0 0 1-.978 1.93c-.554.5-1.276.774-2.022.77Z" fill="#D12027"/>
      <path d="M114.75 192.27h-.32a3.143 3.143 0 0 1-2.694-2.228 3.136 3.136 0 0 1-.116-1.222c.26-2.55-.89-5.83-3.16-9a21.573 21.573 0 0 0-7.78-6.85 3.16 3.16 0 0 1-1.54-4.18 3.224 3.224 0 0 1 1.78-1.64 3.136 3.136 0 0 1 2.4.1 23.871 23.871 0 0 1 5.52 3.67 31.11 31.11 0 0 1 4.74 5.24c3.19 4.46 4.72 9.17 4.3 13.29a3.137 3.137 0 0 1-3.13 2.82Zm-12.75-25a2.904 2.904 0 0 0-2.61 1.67 2.89 2.89 0 0 0 .497 3.162c.257.278.568.502.913.658a22.138 22.138 0 0 1 7.88 6.94c2.3 3.22 3.47 6.57 3.21 9.18a2.878 2.878 0 0 0 1.497 2.823c.332.179.697.29 1.073.327h.29a2.88 2.88 0 0 0 2.87-2.59c.4-4.05-1.1-8.7-4.25-13.11a31.06 31.06 0 0 0-4.71-5.19 23.96 23.96 0 0 0-5.45-3.63 3.004 3.004 0 0 0-1.21-.29v.05Z" fill="#010101"/>
      <path d="M114.75 192.25h-.32a3.148 3.148 0 0 1-2.8-3.44c.26-2.55-.89-5.83-3.16-9a21.78 21.78 0 0 0-7.78-6.86 3.135 3.135 0 1 1 2.63-5.69 23.811 23.811 0 0 1 5.51 3.67 30.747 30.747 0 0 1 4.74 5.24c3.19 4.45 4.71 9.17 4.3 13.27a3.118 3.118 0 0 1-3.12 2.81Zm-12.74-25a2.895 2.895 0 0 0-2.844 2.267 2.89 2.89 0 0 0 1.624 3.253 22.02 22.02 0 0 1 7.88 6.93c2.3 3.22 3.47 6.56 3.2 9.17a2.903 2.903 0 0 0 2.59 3.17h.29a2.886 2.886 0 0 0 2.88-2.6c.41-4.05-1.1-8.71-4.25-13.11a30.755 30.755 0 0 0-4.71-5.2 23.624 23.624 0 0 0-5.45-3.63 2.946 2.946 0 0 0-1.22-.29l.01.04Z" fill="#333"/>
      <path d="M111.58 188.17c.007.413.047.824.12 1.23a3.823 3.823 0 0 1 4.8-.8 4.37 4.37 0 0 1 1.5 1.78v-.33c0-.46.07-1 .05-1.42a.539.539 0 0 0 0-.17c-1.08-2.31-4.91-2.38-6.29-.59a.472.472 0 0 0-.18.3Z" fill="#EDEDEE"/>
      <path d="M118 190.5h-.08v-.07a4.205 4.205 0 0 0-1.42-1.73 3.686 3.686 0 0 0-4.63.77h-.15v-.07a7.63 7.63 0 0 1-.13-1.28c0-.132.042-.262.12-.37a4.004 4.004 0 0 1 3.58-1.27 3.504 3.504 0 0 1 2.92 1.88.543.543 0 0 1 0 .22 7.66 7.66 0 0 1 0 .83v1.04l-.21.05Zm-3.22-2.57c.655-.01 1.296.19 1.83.57.518.367.951.841 1.27 1.39v-1.25a.316.316 0 0 0 0-.13 3.255 3.255 0 0 0-2.73-1.74 3.72 3.72 0 0 0-3.36 1.18.342.342 0 0 0-.07.22c.01.335.036.669.08 1a4.402 4.402 0 0 1 2.94-1.24h.04Z" fill="#333"/>
      <path d="M114.05 198.04a3.502 3.502 0 0 1-2.574-1.122 3.498 3.498 0 0 1-.256-4.438 3.49 3.49 0 0 1 .454-3.118 3.497 3.497 0 0 1 2.779-1.487 3.504 3.504 0 0 1 2.057.605 4.495 4.495 0 0 1 1.77 2.54c.179.689.227 1.405.14 2.11-.2 1.69-1.13 3.94-3.1 4.71a3.517 3.517 0 0 1-1.27.2Z" fill="#D12027"/>
      <path d="M114.05 198.17a3.625 3.625 0 0 1-3.239-1.942 3.636 3.636 0 0 1 .239-3.768 3.638 3.638 0 0 1 5.52-4.13 4.666 4.666 0 0 1 1.82 2.61 5.72 5.72 0 0 1 .14 2.16c-.2 1.73-1.15 4-3.18 4.82-.414.165-.855.25-1.3.25Zm.48-10.21a3.377 3.377 0 0 0-3.335 2.897 3.378 3.378 0 0 0 .155 1.583v.12a3.37 3.37 0 0 0-.58 2.634 3.366 3.366 0 0 0 1.541 2.213c.53.323 1.138.494 1.759.493.418.004.832-.074 1.22-.23 1.92-.75 2.82-2.94 3-4.6a5.418 5.418 0 0 0-.13-2.06 4.35 4.35 0 0 0-1.72-2.46 3.341 3.341 0 0 0-1.91-.59Z" fill="#333"/>
      <path opacity=".08" d="M118.42 193.09c-.2 1.69-1.13 3.94-3.1 4.71a3.473 3.473 0 0 1-2.95-.19c.51-.06 2.74-.71 4-3.71.64-1.53.84-4.49 0-5.54 0-3.79-1.54-7.19-3.75-10.78l1.41-.53c2.78 4.18 4.1 8.54 3.71 12.37.005.09.005.18 0 .27.254.399.446.834.57 1.29.169.691.206 1.406.11 2.11Z" fill="#010101"/>
      <path d="M110.23 189.67a12.613 12.613 0 0 1-.47 3.39v.17a14.196 14.196 0 0 1-.55 1.55l-.22.51a16.002 16.002 0 0 1-14.15 9.17 15.785 15.785 0 0 1-14.33-9.58l-.13-.31c-.252-.652-.46-1.32-.62-2l-.09-.41a12.293 12.293 0 0 1-.25-2.49c0-3.51.61-7 3-14.09 2.32-6.88 4.46-9.66 6.07-11.34 1.81-1.9 4.34-4.55 7.66-4.35 2.66.16 4.5 2.1 6.13 3.87 1.9 2.06 3.86 5 5.74 11.83 1.88 6.83 2.21 10.61 2.21 14.08Z" fill="#D12027"/>
      <path d="M94.68 204.59a15.806 15.806 0 0 1-14.3-9.7l-.12-.31a14.632 14.632 0 0 1-.63-2l-.09-.42a12.669 12.669 0 0 1-.26-2.51c0-3.31.5-6.68 3-14.14 2.31-6.84 4.48-9.68 6.1-11.38 1.78-1.87 4.2-4.41 7.39-4.41h.38c2.77.18 4.68 2.25 6.22 3.92 1.76 1.91 3.82 4.81 5.77 11.88 1.84 6.67 2.21 10.47 2.21 14.12a12.666 12.666 0 0 1-.47 3.43v.17c-.156.529-.34 1.05-.55 1.56-.08.17-.15.35-.23.52a15.989 15.989 0 0 1-14.27 9.24l-.15.03Zm1.11-44.58c-3.09 0-5.46 2.49-7.21 4.32-1.6 1.69-3.74 4.49-6 11.29-2.51 7.42-3 10.77-3 14 .005.827.088 1.65.25 2.46l.09.41c.16.661.367 1.31.62 1.94l.12.3a15.54 15.54 0 0 0 14.05 9.54h.12a15.666 15.666 0 0 0 14-9.08c.08-.17.16-.34.23-.51.21-.51.39-1 .54-1.53v-.17c.307-1.093.465-2.224.47-3.36 0-3.63-.38-7.4-2.21-14-1.94-7-4-9.89-5.71-11.78-1.5-1.63-3.37-3.66-6-3.83h-.36Z" fill="#333"/>
      <path d="M108.26 196.6c-11 5.42-18.93 3.62-27.22-.65.477.839 1.001 1.65 1.57 2.43 8.7 4.49 16.52 4.66 24.32.14.481-.612.926-1.253 1.33-1.92Z" fill="#EDEDEE"/>
      <path d="M95.32 201.97a27.703 27.703 0 0 1-12.77-3.49 18.709 18.709 0 0 1-1.62-2.47.12.12 0 0 1 0-.14.112.112 0 0 1 .14 0c8.35 4.29 16.16 6.05 27.12.64a.132.132 0 0 1 .14 0 .111.111 0 0 1 0 .14c-.401.704-.86 1.372-1.37 2a22.867 22.867 0 0 1-11.64 3.32Zm-14-5.72a18.34 18.34 0 0 0 1.32 2c8.83 4.56 16.52 4.6 24.2.14.386-.479.74-.983 1.06-1.51-10.65 5.16-18.37 3.51-26.55-.63h-.03Z" fill="#333"/>
      <path d="M109.76 193.06v.17a14.196 14.196 0 0 1-.55 1.55l-.22.51c-9 5-18.34 4.68-28.44-.45l-.13-.31c-.252-.652-.46-1.32-.62-2l-.09-.41c9.06 4.51 18.29 6.24 30.05.94Z" fill="#282828"/>
      <path d="M95.71 199.01a33.626 33.626 0 0 1-15.26-4.07c-.05-.1-.093-.204-.13-.31a13.174 13.174 0 0 1-.62-2c0-.14-.07-.28-.1-.42v-.24l.22.11c10.71 5.26 19.67 5.53 30 .9l.23-.1-.12.42a13.718 13.718 0 0 1-.55 1.55c-.07.18-.15.35-.23.52a26.891 26.891 0 0 1-13.44 3.64Zm-15.11-4.26c10.24 5.2 19.49 5.35 28.25.46.078-.156.148-.316.21-.48.2-.473.373-.957.52-1.45-10.22 4.52-19.15 4.25-29.74-.91v.18c.158.657.361 1.302.61 1.93l.15.27Z" fill="#333"/>
      <path d="M93.52 199.41a.925.925 0 0 1-.838-.58.878.878 0 0 1-.062-.34l.06-2a.91.91 0 0 1 .92-.87l2.71.06a.933.933 0 0 1 .838.58.885.885 0 0 1 .062.34v2a.92.92 0 0 1-.93.87l-2.76-.06Zm.08-2.93-.06 2 2.73.08v-.57h-.55a.4.4 0 1 1 0-.8h.58v-.66l-2.73-.08.03.03Z" fill="#F7C526"/>
      <path d="m93.6 195.71 2.69.07a.8.8 0 0 1 .79.8l-.06 2a.8.8 0 0 1-.81.77l-2.69-.06a.814.814 0 0 1-.731-.513.753.753 0 0 1-.049-.297l.05-2a.804.804 0 0 1 .81-.77Zm2.63 3c.08 0 .16 0 .16-.12v-.71h-.67a.284.284 0 0 1-.111-.022.279.279 0 0 1-.157-.157.287.287 0 0 1 .064-.315.292.292 0 0 1 .204-.086h.69v-.77a.19.19 0 0 0 0-.08.177.177 0 0 0-.12 0l-2.69-.06a.15.15 0 0 0-.16.12v2a.104.104 0 0 0 0 .08.131.131 0 0 0 .055.013c.02 0 .038-.005.055-.013l2.69.06-.01.06Zm-2.62-3.27a1.005 1.005 0 0 0-1 1v2a1.003 1.003 0 0 0 .28.72.989.989 0 0 0 .73.32l2.69.07a1.002 1.002 0 0 0 1.06-1v-2a1.006 1.006 0 0 0-.27-.72 1.096 1.096 0 0 0-.74-.32l-2.69-.06-.06-.01Zm0 2.93v-1.83l2.54.06v.45h-.47a.517.517 0 0 0-.608.269.517.517 0 0 0 .608.731h.44v.35l-2.54-.06.03.03Z" fill="#333"/>
      <path d="M40.13 129.42c-5.27 5-2.94 15 .8 20.58 5.32 8 17.27 12.91 23.27 8.49 6.26-4.61 5.19-18.75-2.35-26-5.62-5.36-16.27-8.25-21.72-3.07Z" fill="#F7C394"/>
      <path d="M58.56 160.28a14.673 14.673 0 0 1-2.67-.25 22.821 22.821 0 0 1-8.34-3.42 23.448 23.448 0 0 1-6.72-6.54A24.5 24.5 0 0 1 37 139.5a15.3 15.3 0 0 1 .36-5.57 9.642 9.642 0 0 1 2.66-4.6c2.53-2.41 6.4-3.28 10.9-2.44a22.387 22.387 0 0 1 11 5.54 20.91 20.91 0 0 1 5.08 8.06 22.932 22.932 0 0 1 1.35 9.13c-.26 4-1.72 7.22-4.09 9a9.47 9.47 0 0 1-5.7 1.66Zm-18.43-30.86.08.09c-1.65 1.56-3.49 4.56-2.94 10A24.302 24.302 0 0 0 41 149.94a23.305 23.305 0 0 0 6.65 6.46 22.342 22.342 0 0 0 8.25 3.39c3.32.59 6.15.11 8.2-1.4 2.31-1.7 3.73-4.82 4-8.78a22.83 22.83 0 0 0-1.33-9 20.735 20.735 0 0 0-5-8 22.048 22.048 0 0 0-10.87-5.49c-4.41-.81-8.21 0-10.69 2.39l-.08-.09Z" fill="#333"/>
      <path d="M46.48 135.1c-3.12 3.34-1.28 9.51 1.27 12.9 3.64 4.83 11.33 7.45 14.93 4.45 3.76-3.12 2.56-12-2.44-16.21-3.73-3.18-10.53-4.6-13.76-1.14Z" fill="#FCC9A2"/>
      <path d="M149.56 129.19c5.35 4.92 3.2 14.92-.44 20.6-5.18 8.1-17 13.2-23.12 8.89-6.34-4.5-5.52-18.66 1.89-26 5.53-5.49 16.11-8.57 21.67-3.49Z" fill="#F7C394"/>
      <path d="M131.44 160.37a9.322 9.322 0 0 1-5.51-1.59c-2.41-1.71-3.91-4.87-4.24-8.89a22.873 22.873 0 0 1 1.18-9.15 20.86 20.86 0 0 1 4.94-8.15 22.281 22.281 0 0 1 10.89-5.71c4.48-.91 8.36-.11 10.94 2.25a9.76 9.76 0 0 1 2.74 4.55c.483 1.812.635 3.695.45 5.56a24.695 24.695 0 0 1-3.61 10.64 23.597 23.597 0 0 1-6.61 6.65 22.722 22.722 0 0 1-8.27 3.57c-.956.18-1.927.27-2.9.27Zm10.73-33.64a17.496 17.496 0 0 0-3.43.36 22.21 22.21 0 0 0-10.74 5.67 20.726 20.726 0 0 0-4.87 8.05 22.591 22.591 0 0 0-1.17 9.06c.32 3.95 1.79 7 4.14 8.71 2.07 1.47 4.91 1.91 8.22 1.26a22.388 22.388 0 0 0 8.18-3.53 23.4 23.4 0 0 0 6.55-6.58 24.309 24.309 0 0 0 3.57-10.54c.25-3-.08-7.12-3.11-9.91a10.602 10.602 0 0 0-7.34-2.55Z" fill="#333"/>
      <path d="M143.3 134.98c3.18 3.29 1.45 9.49-1 12.92-3.56 4.89-11.2 7.65-14.85 4.72-3.82-3.06-2.77-11.92 2.16-16.26 3.64-3.24 10.39-4.78 13.69-1.38Z" fill="#FCC9A2"/>
      <path d="M119 81.3c2-1.72-6-3.66-7.06-6.72-1.3-3.69 19.07 6.13 16 12.59-.24.5-2.67 4.53-20.13-1.15 19.2 6.23 33.66 19.44 33.59 43.89 0 18.75-16.8 47.78-46.53 48-28.67.25-46.58-28.75-46.52-48 .08-23.55 20.86-47.78 46.65-49.59 15.35-1.09 22.35 2.41 24 .98Z" fill="#E2E2E2"/>
      <path d="M94.52 178.07c-14.24 0-24.4-7.12-30.44-13.12-9.65-9.6-15.87-23.35-15.83-35 0-11.49 5-23.53 13.69-33 9-9.9 20.75-15.82 33-16.68a79.739 79.739 0 0 1 19.12.91c2.65.41 4.25.65 4.9.1a.635.635 0 0 0 .29-.54c-.06-.65-1.43-1.43-2.87-2.26-1.87-1.07-4-2.28-4.52-3.79a.642.642 0 0 1 .17-.81c1.48-1 8.71 2.66 12.5 5.91 2.3 2 4.79 4.88 3.54 7.5-.34.73-2.66 3.84-15.94.22 8.32 3.3 15 7.87 19.81 13.62 6.41 7.61 9.64 17.31 9.6 28.85 0 10-4.69 21.92-12.16 31a47.988 47.988 0 0 1-14.63 12.13 42.607 42.607 0 0 1-19.85 5l-.38-.04Zm6.37-97.85c-1.813 0-3.79.074-5.93.22-12.19.85-23.85 6.75-32.84 16.6-8.63 9.46-13.6 21.44-13.63 32.87 0 11.63 6.15 25.32 15.76 34.87 6 6 16.12 13 30.27 13h.37a42.676 42.676 0 0 0 19.75-5 47.805 47.805 0 0 0 14.55-12.07c7.44-9.07 12.08-20.9 12.11-30.88 0-11.48-3.18-21.13-9.54-28.7-5.6-6.64-13.64-11.71-23.9-15h-.07a.132.132 0 0 1-.072-.064.128.128 0 0 1-.008-.096.11.11 0 0 1 .039-.057.107.107 0 0 1 .111-.012h.06c17.26 5.6 19.71 1.66 19.93 1.19 1.15-2.45-1.24-5.21-3.48-7.21-4.58-3.92-11.14-6.61-12.2-5.89 0 0-.21.15-.08.53.5 1.42 2.58 2.61 4.41 3.66 1.56.9 2.92 1.67 3 2.45a.902.902 0 0 1-.091.421.9.9 0 0 1-.279.329c-.74.62-2.29.38-5.09 0a79.906 79.906 0 0 0-13.15-1.16v-.001Z" fill="#333"/>
      <path d="M94.53 178.07a40.555 40.555 0 0 1-16.8-3.61 46.412 46.412 0 0 1-13.65-9.51 56.424 56.424 0 0 1-11.73-17.21 51.366 51.366 0 0 1-3.07-9.16 38.53 38.53 0 0 1-1-8.67c0-11.49 5-23.53 13.69-33a54.723 54.723 0 0 1 6.9-6.38 51.795 51.795 0 0 1 7.93-5.09 46.274 46.274 0 0 1 18.17-5.21 79.744 79.744 0 0 1 19.12.91c2.65.41 4.25.65 4.9.1a.634.634 0 0 0 .29-.54c-.06-.65-1.43-1.43-2.87-2.26-1.87-1.07-4-2.28-4.52-3.79a.642.642 0 0 1 .17-.81c.63-.42 2.53 0 5.1 1.22a33.809 33.809 0 0 1 7.4 4.69 13.707 13.707 0 0 1 3.23 3.75 4.002 4.002 0 0 1 .31 3.75c-.16.34-.9 1.46-3.7 1.81-.64.083-1.285.123-1.93.12-3.496-.126-6.96-.7-10.31-1.71 8.32 3.3 15 7.87 19.81 13.62a39.204 39.204 0 0 1 7.03 12.49 49.592 49.592 0 0 1 2.54 16.3 44.37 44.37 0 0 1-3.12 15.42 56.566 56.566 0 0 1-9 15.61 47.988 47.988 0 0 1-14.63 12.13 42.607 42.607 0 0 1-19.85 5l-.41.03Zm6.36-97.85c-1.813 0-3.79.074-5.93.22a46 46 0 0 0-18.08 5.18A52.58 52.58 0 0 0 69 90.69a55.008 55.008 0 0 0-6.87 6.35c-8.63 9.46-13.6 21.44-13.63 32.87.005 2.902.34 5.794 1 8.62a51.158 51.158 0 0 0 3 9.12 56.34 56.34 0 0 0 11.75 17.13 46.033 46.033 0 0 0 13.58 9.46 40.411 40.411 0 0 0 17.06 3.64 42.66 42.66 0 0 0 19.75-5 47.805 47.805 0 0 0 14.55-12.07 56.493 56.493 0 0 0 9-15.54 44.172 44.172 0 0 0 3.11-15.39 49.387 49.387 0 0 0-2.51-16.25 39.043 39.043 0 0 0-7-12.45c-5.6-6.65-13.64-11.71-23.91-15h-.06a.131.131 0 0 1-.072-.064.128.128 0 0 1-.008-.096.12.12 0 0 1 .15-.07h.06a68.399 68.399 0 0 0 10.41 2.62c1.98.353 3.998.437 6 .25 2.68-.35 3.37-1.38 3.52-1.68a3.82 3.82 0 0 0-.31-3.54 13.574 13.574 0 0 0-3.2-3.72 33.636 33.636 0 0 0-7.37-4.63c-2.42-1.12-4.33-1.6-4.86-1.24 0 0-.21.15-.08.53.5 1.42 2.58 2.61 4.41 3.66 1.56.9 2.92 1.67 3 2.45a.902.902 0 0 1-.091.421.899.899 0 0 1-.279.329l-.08-.1.08.1c-.74.62-2.29.38-5.09 0a79.916 79.916 0 0 0-13.12-1.18Z" fill="#333"/>
      <path d="M94.89 104.53c.93 0 5.42-5.63 12.93-5.63 10.78 0 23.24 15.66 23.25 31 0 9.93-5.38 12.15-5.37 13.3.01 1.15 11.42 1.09 11.42 12.28 0 10.09-20.27 24.69-40.54 25.27-22.25.65-43.9-15.41-43.9-24 0-11.21 11.43-12.56 11.42-13.56-.01-1-5.39-3.67-5.39-13.29 0-15.35 12.5-31 23.26-31 8.31-.02 11.83 5.64 12.92 5.63Z" fill="#FECD99"/>
      <path d="M95.29 180.88a54.748 54.748 0 0 1-20.88-4.4A53.65 53.65 0 0 1 58 166.07c-3.51-3.41-5.45-6.72-5.45-9.31a12 12 0 0 1 3.82-9.19 19.797 19.797 0 0 1 6.15-3.62c.45-.19.84-.35 1.1-.48.26-.13.35-.26.35-.27 0-.19-.34-.55-.77-1-1.5-1.61-4.62-4.95-4.62-12.28.025-3.883.742-7.73 2.12-11.36a38.685 38.685 0 0 1 5.49-10 30.28 30.28 0 0 1 7.53-7.09A15.63 15.63 0 0 1 82 98.78a16.63 16.63 0 0 1 11.56 4.67c.62.53 1.11 1 1.36 1a4.96 4.96 0 0 0 1.35-.92 25.922 25.922 0 0 1 4.45-3 15.8 15.8 0 0 1 7.13-1.75 15.631 15.631 0 0 1 8.24 2.7 30.095 30.095 0 0 1 7.52 7.09 38.344 38.344 0 0 1 5.48 10 32.815 32.815 0 0 1 2.11 11.31 18.6 18.6 0 0 1-1.7 8.29 14.867 14.867 0 0 1-2.85 3.9c-.48.5-.83.86-.83 1.11 0 0 0 .08.35.22s.66.23 1.12.37a17.007 17.007 0 0 1 6.15 2.94 10.715 10.715 0 0 1 3.8 8.75c0 2.47-1.21 5.3-3.51 8.2a39.147 39.147 0 0 1-9.21 8.1 57.677 57.677 0 0 1-13 6.31 51.062 51.062 0 0 1-14.94 2.81h-1.29ZM82 99.02c-2.9.107-5.71 1.029-8.11 2.66a30 30 0 0 0-7.47 7 38.282 38.282 0 0 0-5.45 9.91 32.152 32.152 0 0 0-2.14 11.29c0 7.24 3.08 10.53 4.56 12.11.52.56.83.89.83 1.18 0 .29-.53.53-1.6 1-2.23.81-4.29 2.023-6.08 3.58a11.786 11.786 0 0 0-3.74 9c0 2.53 1.91 5.77 5.37 9.13a53.255 53.255 0 0 0 16.33 10.39 53.747 53.747 0 0 0 22.07 4.37 50.971 50.971 0 0 0 14.86-2.76 57.509 57.509 0 0 0 13-6.28 39.056 39.056 0 0 0 9.15-8.05c2.27-2.86 3.46-5.64 3.46-8a10.511 10.511 0 0 0-3.71-8.57 17 17 0 0 0-6.07-2.89c-1.09-.33-1.64-.5-1.64-.82 0-.32.35-.71.9-1.28a14.659 14.659 0 0 0 2.8-3.83 18.352 18.352 0 0 0 1.68-8.28 32.602 32.602 0 0 0-2.11-11.28 38.576 38.576 0 0 0-5.45-9.91 30.013 30.013 0 0 0-7.46-7 15.441 15.441 0 0 0-8.11-2.66c-5.52 0-9.36 3-11.43 4.66-.76.6-1.21 1-1.49 1-.34 0-.78-.39-1.52-1A16.439 16.439 0 0 0 82 99.02Z" fill="#333"/>
      <path d="M83.26 108.5c7.47.87 12.85 10.07 12.06 18.17-.79 8.1-7.85 16.49-15.91 15.57-7.32-.83-12.07-9-12.22-15.82-.19-9.17 7.75-18.88 16.07-17.92Z" fill="#fff"/>
      <path d="M92.327 128.861c1.066-5.492-1.903-10.688-6.63-11.605-4.728-.917-9.425 2.791-10.49 8.284-1.066 5.492 1.903 10.688 6.63 11.605 4.728.917 9.425-2.792 10.49-8.284Z" fill="#6ACDE9"/>
      <path d="M83.29 137.42c-.497 0-.993-.05-1.48-.15a8.22 8.22 0 0 1-5.57-4.14 11 11 0 0 1-1.15-7.61c1.07-5.55 5.84-9.31 10.63-8.38a8.237 8.237 0 0 1 5.58 4.15 11.11 11.11 0 0 1 1.15 7.6h-.12.12a11 11 0 0 1-3.92 6.62 8.438 8.438 0 0 1-5.24 1.91Zm1-20.18c-4.15 0-8 3.46-8.94 8.33a10.83 10.83 0 0 0 1.13 7.44 8 8 0 0 0 5.41 4c.471.091.95.138 1.43.14a8.22 8.22 0 0 0 5.1-1.86 11.2 11.2 0 0 0 2.7-13.91 8 8 0 0 0-5.41-4 6.856 6.856 0 0 0-1.45-.14h.03Z" fill="#333"/>
      <path d="M84.3 134.47c2.822 0 5.11-2.556 5.11-5.71 0-3.153-2.288-5.71-5.11-5.71-2.822 0-5.11 2.557-5.11 5.71 0 3.154 2.288 5.71 5.11 5.71Z" fill="#010101"/>
      <path d="M88.82 124.771c.359-1.015-.215-2.144-1.283-2.522-1.067-.378-2.224.14-2.583 1.154-.36 1.016.215 2.145 1.282 2.523 1.067.377 2.224-.14 2.583-1.155h.001Z" fill="#fff"/>
      <path d="M87 126.17a2.176 2.176 0 0 1-.75-.13 2.07 2.07 0 1 1 1.38-3.9 2.168 2.168 0 0 1 1.46 1.864 2 2 0 0 1-.11.806 2.074 2.074 0 0 1-1.98 1.36Zm-.12-3.92a1.84 1.84 0 0 0-1.75 1.2 1.93 1.93 0 0 0 3.63 1.28 1.802 1.802 0 0 0-.1-1.4 1.999 1.999 0 0 0-1.11-1 2.015 2.015 0 0 0-.72-.08h.05Z" fill="#333"/>
      <path d="M106.2 108.3c-7.45 1-12.67 10.29-11.74 18.38.93 8.09 8.13 16.35 16.18 15.29 7.3-1 11.91-9.19 11.94-16 .05-9.2-8.08-18.78-16.38-17.67Z" fill="#fff"/>
      <path d="M108.11 136.928c4.712-1 7.59-6.247 6.428-11.72-1.161-5.472-5.922-9.098-10.633-8.099-4.71 1-7.589 6.247-6.427 11.72 1.161 5.473 5.922 9.099 10.633 8.099h-.001Z" fill="#6ACDE9"/>
      <path d="M106.53 137.21a8.45 8.45 0 0 1-5.13-1.81 11.42 11.42 0 0 1-3-14.17 8.002 8.002 0 0 1 12.25-2.6 11.43 11.43 0 0 1 3 14.17 8.192 8.192 0 0 1-5.49 4.24 7.38 7.38 0 0 1-1.63.17Zm-1-20.16a7.506 7.506 0 0 0-1.56.17 8 8 0 0 0-5.34 4.12 11.21 11.21 0 0 0 2.94 13.87 7.774 7.774 0 0 0 9.694.145 7.784 7.784 0 0 0 2.196-2.675 11.196 11.196 0 0 0-2.94-13.86 8.225 8.225 0 0 0-5.02-1.77h.03Z" fill="#333"/>
      <path d="M105.612 134.284c2.822-.049 5.065-2.645 5.01-5.798-.055-3.153-2.388-5.67-5.21-5.62-2.821.05-5.064 2.645-5.009 5.799.055 3.152 2.387 5.669 5.209 5.62v-.001Z" fill="#010101"/>
      <path d="M108.813 125.931c1.06-.396 1.615-1.535 1.238-2.544-.377-1.009-1.543-1.505-2.603-1.11-1.06.397-1.615 1.536-1.238 2.545s1.543 1.505 2.603 1.11v-.001Z" fill="#fff"/>
      <path d="M108.07 126.18c-.293 0-.582-.061-.85-.18a1.998 1.998 0 0 1-1.11-1.15 2.17 2.17 0 0 1 4.06-1.52 1.99 1.99 0 0 1-.09 1.6 2.173 2.173 0 0 1-1.22 1.1c-.251.1-.52.151-.79.15Zm.13-3.93c-.24 0-.477.044-.7.13a1.867 1.867 0 0 0-1.16 2.39c.09.226.224.432.396.604.172.172.378.306.604.396.472.187.998.187 1.47 0a2 2 0 0 0 1.09-1 1.76 1.76 0 0 0 .07-1.4 1.828 1.828 0 0 0-1.77-1.12Z" fill="#333"/>
      <path d="M84.5 141.21c0 3.63 4.76 8 10.4 8 5.21 0 10.28-4.4 10.28-8 0-2.87-6-5.41-10.28-5.37-3.98.04-10.4 1.97-10.4 5.37Z" fill="#785B43"/>
      <path opacity=".08" d="M53.18 159.22A24.428 24.428 0 0 1 40.93 150c-3.74-5.61-6.07-15.57-.8-20.58a11.085 11.085 0 0 1 8.37-2.7v.51a10.283 10.283 0 0 0-6.4 2.67c-5.27 5-2.94 15 .8 20.59a24.282 24.282 0 0 0 10.17 8.39c.04.13.07.23.11.34Zm95.94-9.43a24.478 24.478 0 0 1-12.93 9.7c0-.09.08-.17.11-.26a24.357 24.357 0 0 0 10.89-9c3.64-5.68 5.8-15.68.44-20.59a10.261 10.261 0 0 0-6.26-2.55v-.5a10.998 10.998 0 0 1 8.22 2.56c5.32 4.96 3.17 14.96-.47 20.64Z" fill="#010101"/>
      <path opacity=".1" d="M105.18 142.19c0 3.57-5.07 7.93-10.28 8-5.64.05-10.4-4.35-10.4-8a1.994 1.994 0 0 1 0-.43c.43 3.52 5 7.5 10.36 7.45 4.94 0 9.76-4 10.24-7.42.04.13.068.265.08.4Z" fill="#010101"/>
      <g opacity=".1" fill="#010101">
        <path d="M111 87h.09l-.56-.18.47.18Z"/>
        <path d="M122.17 82.38c-2.58 3-10.22-1.93-25.62-.84-25.74 1.81-45.42 25.64-45.48 49.19a45.886 45.886 0 0 0 3.79 17.06c2.84-3.56 7.31-4.8 8.61-5.5.39.41.63.7.63.91v.05l-.08.08c-.094.08-.198.147-.31.2h-.08l-.66.29h-.06l-.87.36-.15.06-.62.28-.17.07h-.08l-.25.12-.35.16h-.17l-.18.09-.45.24-.09.05-.36.21c-.067.031-.13.068-.19.11l-.46.28-.09.06-.28.19-.09.06-.46.33-.36.29-.27.22-.09.08-.09.07-.18.16-.08.08-.09.08-.17.16-.09.09-.17.18-.08.09a3.77 3.77 0 0 0-.33.36 1.466 1.466 0 0 0-.16.19l-.08.09-.19.24-.16.21v.06l-.08.12-.12.18v.05l-.05.08v.07l-.05.08-.15.25-.14.25-.07.13-.35.53c-3.68-7.12-5.64-14.59-5.62-21 .05-23.52 20.83-47.75 46.62-49.56 15.4-1.09 22.4 2.41 24.09 1 2-1.72-6-3.66-7.06-6.72-.42-1.18 1.39-1 3.93 0-1-.14-1.49.09-1.23.77.88 2.51 9.33 4.81 7.44 7.01Z"/>
      </g>
      <path opacity=".05" d="M65.54 142.53c0 .17-1.15.73-1.75 1 .2-.12.31-.22.31-.32 0-1-5.39-3.67-5.39-13.29v-.6c.5 8.56 6.82 12.26 6.83 13.21Zm60.46.95c-.62-.27-1.66-.79-1.66-.95 0-.92 5.87-4.38 6.75-12.26-.12 9.62-5.38 11.81-5.37 12.94-.02.09.08.18.28.27Z" fill="#010101"/>
      <path d="M93 206.39v.45a3.402 3.402 0 0 0-1.33-.84 17.888 17.888 0 0 0-5.07-.77 22.164 22.164 0 0 0-2.69.1v-.49c.884-.08 1.772-.11 2.66-.09 1.718.012 3.426.271 5.07.77.52.17.988.47 1.36.87Zm13-1.06a21.837 21.837 0 0 0-2.67-.1 17.889 17.889 0 0 0-5.07.77 3.39 3.39 0 0 0-1.34.85v-.44c.372-.41.844-.716 1.37-.89a17.889 17.889 0 0 1 5.07-.77c.874-.025 1.75.005 2.62.09-.04.16.02.32.02.49ZM84.49 200.4a15.41 15.41 0 0 0 8.63 4c0 .24-.05.48-.07.72a15.392 15.392 0 0 1-8.68-4.08l.12-.64Zm20.86.53a15.803 15.803 0 0 1-8.62 4.11c0-.24 0-.48-.09-.71a15.851 15.851 0 0 0 8.58-4c.04.2.08.4.13.6Z" fill="#010101" opacity=".08"/>
      <path opacity=".1" d="M110.23 189.67c0 7.41-6.78 14.71-15.43 14.79-8.46.07-15.38-7.38-15.38-14.79v-1.46a15.66 15.66 0 0 0 15.38 13.84c8.34-.07 14.94-6.86 15.4-14 .02.56.03 1.09.03 1.62Zm3.77-12.62c-1.69.66-3.42 1.25-5.19 1.75l-.8.23a49.94 49.94 0 0 1-11.47 1.73A50.587 50.587 0 0 1 82 178.97l-.63-.17c-1.85-.52-3.66-1.13-5.41-1.81-.35.51-.68 1-1 1.54a60.02 60.02 0 0 0 5.85 2v-.09.1a51.235 51.235 0 0 0 15.72 2.11 49.848 49.848 0 0 0 12.61-2.06h.06a54.83 54.83 0 0 0 5.75-2c-.25-.52-.57-1.03-.95-1.54Z" fill="#010101"/>
      <g opacity=".2" fill="#010101">
        <path d="M111.92 197.31c-1 .89-3.14.64-4.42.45.17-.23.33-.47.49-.72l.54.1a4.056 4.056 0 0 0 2.84-.35c.163.194.348.368.55.52Zm17.29-7.9.31-.14a2.56 2.56 0 0 1-1 .72c-1.83.65-3.91-1.1-3.93-1.12a1.247 1.247 0 0 0-1.12-.24c.043-.069.09-.135.14-.2a1.212 1.212 0 0 1 1.291-.363c.15.05.289.129.409.233 0 0 2.08 1.76 3.9 1.11Z"/>
        <path d="M133.34 187.88a5.89 5.89 0 0 1-2.34 3.3 6.345 6.345 0 0 0 1.6-2.68 9.41 9.41 0 0 0 .23-4.65 8.32 8.32 0 0 0-3-4.68 10.005 10.005 0 0 0-4.7-2.1 9.29 9.29 0 0 0-4.16.33 12.56 12.56 0 0 0-3.69 1.89l-.19.13c.3-.25.6-.49.91-.71a12.494 12.494 0 0 1 3.7-1.89 9.246 9.246 0 0 1 4.15-.33 10.012 10.012 0 0 1 4.7 2.11 8.21 8.21 0 0 1 3 4.67 9.401 9.401 0 0 1-.21 4.61Z"/>
      </g>
      <path opacity=".2" d="M105.18 141.22c0 3.58-5.07 7.93-10.28 8-5.64.05-10.4-4.36-10.4-8-.01-.15-.01-.3 0-.45a13.497 13.497 0 0 0 10.34 4.58 14.093 14.093 0 0 0 10.22-4.72c.064.192.104.39.12.59Z" fill="#010101"/>
      <path opacity=".05" d="M86.94 109.66a10.22 10.22 0 0 0-1.54-.3c-8.45-1-16.53 8.81-16.32 18 .12 5.18 2.86 11.08 7.36 14.07-5.61-2.36-9.12-9.18-9.25-15-.21-9.17 7.75-18.88 16.07-17.92 1.287.154 2.534.544 3.68 1.15Zm35.64 16.28c0 5.94-3.51 12.93-9.2 15.29 4.59-3 7.33-9.07 7.36-14.34.05-9.2-8.1-18.79-16.42-17.68-.748.1-1.483.285-2.19.55a10.76 10.76 0 0 1 4.07-1.46c8.3-1.11 16.43 8.47 16.38 17.64Z" fill="#010101"/>
      <path opacity=".1" d="M88.27 118.27c-.21-.06-.42-.11-.64-.15-4.77-.93-9.52 2.82-10.6 8.37a10.361 10.361 0 0 0 3.49 10.28c-4-1.54-6.28-6.26-5.32-11.23 1.07-5.49 5.77-9.2 10.5-8.28a7.596 7.596 0 0 1 2.57 1.01Zm20.87 18.36c2.94-2.1 4.47-6.22 3.57-10.48-1.17-5.49-5.94-9.12-10.67-8.12a8.08 8.08 0 0 0-.85.23 7.69 7.69 0 0 1 2.72-1.16c4.72-1 9.48 2.63 10.64 8.1 1.08 5.07-1.31 9.94-5.41 11.43Z" fill="#010101"/>
      <path opacity=".1" d="M131.05 127.55v.91c-.77-14.87-12.79-29.58-23.23-29.58-7.51 0-12 5.62-12.93 5.63-1.09.03-4.61-5.63-12.89-5.63-10.41 0-22.46 14.64-23.22 29.5v.17c-.005.06-.005.12 0 .18v.17-1.37c0-15.36 12.5-31 23.27-31 8.31 0 11.83 5.64 12.92 5.63.93 0 5.42-5.63 12.93-5.63 10.68 0 23.1 15.66 23.15 31.02Z" fill="#010101"/>
      <path opacity=".08" d="M137.12 155.49c0 10.09-20.27 24.69-40.54 25.27-22.25.65-43.9-15.41-43.9-24v-.67c1.88 8.79 22.6 23.43 43.87 22.79 19.59-.57 39.17-14.18 40.55-24.22.02.29.02.56.02.83Z" fill="#010101"/>
      <path opacity=".1" d="M141.42 129.88a47.37 47.37 0 0 1-5.33 20.43c-2.8-6.1-10.38-6.3-10.39-7.13a1 1 0 0 1 .3-.59c1.45.6 6.56 1 9.34 4.92a44.474 44.474 0 0 0 4.18-18.07c.07-24.6-15.08-37.83-34.4-44.1 1.7.55 1.68.31 2.71.65 19.17 6.26 33.66 19.47 33.59 43.89Z" fill="#010101"/>
      <path d="M56.92 147.25c-13.67 8.9-1.12 28 16.56 37.4 12.88 6.87 17.75 13 21.12 13.17 2.31.15 12.38-10.4 26.78-16.12 13.69-5.44 21.26-21.55 13.69-33.29-1.63 7.59-9.12 5.76-15.15 12.34-5 5.51-9.23 7.16-13.41 7.16-4.38 0-7.13-5-11.11-5-4.57 0-6.33 4.48-11.72 4.48-4.26 0-8.17-2.33-13.72-8.15-3.9-4.12-11.28-2.44-13.04-11.99Z" fill="#E2E2E2"/>
      <path d="M94.64 197.95c-1.65-.1-3.64-1.58-6.66-3.82a108.91 108.91 0 0 0-14.51-9.36 54.376 54.376 0 0 1-15.62-12.4c-4.24-5-6.59-10-6.78-14.46-.19-4.46 1.82-8.14 5.83-10.75a.126.126 0 0 1 .12 0 .13.13 0 0 1 .07.09c1.14 6.17 4.64 7.6 8 9a13.546 13.546 0 0 1 5 2.91c5.57 5.84 9.39 8.12 13.63 8.12 2.77 0 4.57-1.2 6.31-2.36 1.74-1.16 3.18-2.12 5.4-2.12 2 0 3.63 1.18 5.36 2.44 1.73 1.26 3.56 2.58 5.76 2.58 4.7 0 8.81-2.2 13.32-7.12a22.142 22.142 0 0 1 8-5.26c3.44-1.54 6.16-2.75 7.08-7a.153.153 0 0 1 .034-.056.153.153 0 0 1 .056-.034.127.127 0 0 1 .072.006.132.132 0 0 1 .058.044 19.667 19.667 0 0 1 2 16.95 26.926 26.926 0 0 1-15.69 16.52c-8.93 3.55-16.18 8.94-21 12.51-2.95 2.11-4.9 3.57-5.84 3.57Zm-37.81-50.5c-3.89 2.59-5.76 6.1-5.57 10.44.38 8.77 9.75 20 22.28 26.66a108.523 108.523 0 0 1 14.53 9.38c3 2.21 5 3.68 6.53 3.77h.05c.85 0 2.88-1.5 5.66-3.57 4.81-3.58 12.07-9 21-12.54a26.676 26.676 0 0 0 15.55-16.38 19.418 19.418 0 0 0-1.77-16.49c-1 4.16-3.86 5.44-7.15 6.91a21.915 21.915 0 0 0-8 5.2c-4.56 5-8.73 7.2-13.5 7.2-2.28 0-4.12-1.33-5.9-2.62-1.78-1.29-3.31-2.4-5.22-2.4-2.15 0-3.66 1-5.27 2.08-1.77 1.18-3.6 2.4-6.44 2.4-4.32 0-8.19-2.3-13.8-8.19a13.445 13.445 0 0 0-4.9-2.86c-3.35-1.4-6.91-2.84-8.08-8.99Z" fill="#333"/>
      <path opacity=".1" d="M137.64 162.88a26.658 26.658 0 0 1-16.26 18.85C107 187.42 96.9 197.97 94.6 197.82c-3.37-.21-8.24-6.3-21.12-13.17-14.74-7.85-25.92-22.42-21.3-32.21-1.16 9.53 9.14 21.85 22.26 28.84 12.89 6.86 17.76 12.76 21.12 13 2.31.14 12.39-10.22 26.79-15.93a27.079 27.079 0 0 0 15.29-15.47Z" fill="#010101"/>
      <path d="m100.11 151.88-.32.31.32-.31Z" fill="#48372B"/>
      <path d="M94.19 152.93c4.75.16 5-2.34 9.72-2.34 5.2 0 7.28 5.39 12.21 7.31 4.58 1.79 12.17-.87 12-.12-.17 1-8.47 6.14-12.23 5.86-13.54-1-13.73-5.63-21.75-5.41-6.77.19-8.25 5-16.15 5.87-8.07.85-15.43-6.19-15.41-7.54.02-1.35 5.82 4.63 12.93.64 3.39-1.9 4.75-6.13 8.57-6.4 4.23-.28 5.84 1.98 10.11 2.13Z" fill="#E2E2E2"/>
      <path d="M76.69 164.29c-4.8 0-9.38-2.56-12.2-5.13-1.21-1.09-2-2.12-2-2.6a.268.268 0 0 1 .13-.25c.21-.14.61 0 1.41.44 2.1 1 6.47 3.15 11.46.35a13.692 13.692 0 0 0 3.4-3c1.49-1.66 2.91-3.22 5.22-3.38a11.26 11.26 0 0 1 5.31 1 13.826 13.826 0 0 0 4.77 1.12 9.055 9.055 0 0 0 4.87-1.13 9.8 9.8 0 0 1 4.84-1.21c3 0 5 1.8 7.11 3.71a16.968 16.968 0 0 0 5.14 3.61c3 1.16 7.24.43 9.79 0 1.49-.25 2.1-.35 2.28-.16.025.022.044.05.054.082a.182.182 0 0 1 .006.098c-.19 1.09-8.27 6-12.07 6h-.29a33.978 33.978 0 0 1-13.58-3.45 15.907 15.907 0 0 0-8.15-2c-3.35.1-5.4 1.34-7.58 2.67a18.687 18.687 0 0 1-8.57 3.2c-.45.035-.9.045-1.35.03Zm-13.94-7.78v.05c0 .33.59 1.23 1.9 2.42 3 2.78 8.17 5.54 13.38 5a18.43 18.43 0 0 0 8.47-3.17c2.2-1.34 4.28-2.6 7.69-2.7h.54c2.7.018 5.352.706 7.72 2a33.81 33.81 0 0 0 13.5 3.43h.28c3.78 0 11.54-4.86 11.81-5.75a8.69 8.69 0 0 0-2 .24c-2.58.44-6.89 1.18-9.92 0a17.15 17.15 0 0 1-5.21-3.65c-2.06-1.88-4-3.65-7-3.65a9.537 9.537 0 0 0-4.73 1.19 9.471 9.471 0 0 1-5 1.15 14.087 14.087 0 0 1-4.83-1.19 11.167 11.167 0 0 0-5.21-1c-2.22.15-3.6 1.68-5.06 3.31a14.327 14.327 0 0 1-3.46 3.07c-5.1 2.86-9.55.7-11.69-.34-.51-.25-1.09-.53-1.18-.46v.05Z" fill="#333"/>
      <path d="M68.22 79.3c.91.276 1.803.61 2.67 1 .978.455 1.98.86 3 1.21 2.32.76 4.85.51 7.54.25a27.38 27.38 0 0 1 7.57 0c1.702.322 3.374.784 5 1.38a21.476 21.476 0 0 0 5.38 1.32c5.14.37 10 .71 15.32 2.55 3 1 5.84 2.33 8.6 3.59 2.37 1.08 4.83 2.19 7.29 3.09 1 .38 10.53 9.93 10.89 10.13 4.23-4.7 4.08-19.49 3.86-22.6.75 10.59 3.38 16.36 9.16 23.15a6.409 6.409 0 0 1 3.89-1.27c2.5-9.93-1.2-30.33-9.73-37.55-4.87-4.12-9-7.17-15.31-8.69-12.06-2.9-19.63-4.74-31.45.9C87.8 64.5 76 64.69 68.22 79.3Z" fill="#D12027"/>
      <path d="m154.44 104.56-.07-.08c-5.36-6.29-7.81-11.55-8.83-19.5 0 5.74-.71 15.3-4 19l-.07.07-.1-.05c-.12-.06-.86-.77-2.77-2.63-2.78-2.71-7.44-7.24-8.1-7.48-2.44-.9-4.89-2-7.25-3.08h-.05c-2.75-1.25-5.59-2.54-8.59-3.58-5.31-1.84-10.15-2.18-15.28-2.54a21.733 21.733 0 0 1-5.41-1.33A31.285 31.285 0 0 0 89 81.88a27.808 27.808 0 0 0-7.52 0c-2.72.27-5.27.52-7.61-.26-1.12-.37-2.07-.79-3-1.19a22.204 22.204 0 0 0-2.67-1.07h-.16l.07-.15c5.78-10.79 13.81-13.77 23.12-17.23 3.39-1.26 6.88-2.55 10.58-4.32 11.85-5.66 19.68-3.77 31.52-.91 6.56 1.58 10.85 4.88 15.39 8.72 8.76 7.41 12.18 28.1 9.77 37.68v.11h-.11a6.252 6.252 0 0 0-3.82 1.25l-.12.05Zm-9-23.33c.72 10 3 15.85 9.06 23a6.509 6.509 0 0 1 3.76-1.23c2.34-9.56-1.06-30-9.72-37.31-4.51-3.81-8.77-7.1-15.25-8.66-12.23-2.94-19.6-4.72-31.37.9-3.7 1.76-7.21 3.06-10.6 4.32-9.21 3.42-17.17 6.38-22.9 17 .862.284 1.707.617 2.53 1 .979.452 1.98.852 3 1.2 2.29.76 4.81.51 7.49.25a28 28 0 0 1 7.6 0c1.7.33 3.373.795 5 1.39 1.715.67 3.51 1.113 5.34 1.32 5.14.36 10 .71 15.35 2.55 3 1 5.86 2.34 8.61 3.6h.05c2.36 1.07 4.8 2.17 7.23 3.07.66.24 4.25 3.7 8.2 7.53 1.23 1.2 2.31 2.25 2.63 2.53 4-4.67 4-19.06 3.74-22.4l.25-.06Z" fill="#010101"/>
      <path d="M93.12 207.21c-1.72-1.28-9.06-1.81-9.54-1.1 0-.585.04-1.17.12-1.75 3.78-.95 8.66.48 9.43 1.56.032.43.029.861-.01 1.29Z" fill="#EDEDEE"/>
      <path d="m93.23 207.44-.18-.13c-1.41-1.05-7-1.64-8.89-1.31-.38.07-.46.16-.47.18l-.23.35v-.42c0-1.82.11-1.84.21-1.87 3.83-1 8.76.49 9.56 1.61 0 0 .1.13 0 1.37v.22Zm-7.64-1.77c2.32 0 6 .47 7.42 1.32a5.68 5.68 0 0 0 0-1c-.73-1-5.57-2.4-9.23-1.51 0 .18-.06.8-.08 1.42.131-.054.27-.091.41-.11a8.341 8.341 0 0 1 1.48-.12Z" fill="#333"/>
      <path d="M90.58 212.35a3.334 3.334 0 0 1-1-.17 14.102 14.102 0 0 0-7.12 0 3.258 3.258 0 0 1-2.476-.271 3.27 3.27 0 0 1-1.67-3.209 3.257 3.257 0 0 1 1.199-2.184 3.24 3.24 0 0 1 1.127-.586 20.155 20.155 0 0 1 5.92-.71c1.718.012 3.426.271 5.07.77a3.265 3.265 0 0 1 2.042 4.152 3.262 3.262 0 0 1-3.042 2.198l-.05.01Z" fill="#3E3025"/>
      <path d="M90.58 212.47c-.364 0-.726-.061-1.07-.18a14.077 14.077 0 0 0-7.05 0 3.378 3.378 0 0 1-3.54-4.737 3.38 3.38 0 0 1 1.65-1.673 19.832 19.832 0 0 1 6-.72c1.732.015 3.453.278 5.11.78a3.38 3.38 0 0 1-1.06 6.58l-.04-.05Zm-4.58-.86a12.55 12.55 0 0 1 3.58.46c.323.105.66.159 1 .16a3.122 3.122 0 0 0 3.133-2.624 3.13 3.13 0 0 0-2.133-3.486 17.62 17.62 0 0 0-5-.77 19.92 19.92 0 0 0-5.89.71 3.13 3.13 0 0 0 1.75 6 13.164 13.164 0 0 1 3.56-.45Z" fill="#333"/>
      <path opacity=".3" d="M93.67 210.12a3.28 3.28 0 0 1-3.09 2.23 3.334 3.334 0 0 1-1-.17 14.102 14.102 0 0 0-7.12 0 3.27 3.27 0 0 1-4-2.21 3.329 3.329 0 0 1-.09-1.4c.02.146.05.289.09.43a3.258 3.258 0 0 0 4 2.22 14.013 14.013 0 0 1 7.12 0 3.253 3.253 0 0 0 4.22-2.61c.07.507.026 1.023-.13 1.51Z" fill="#010101"/>
      <path d="M96.66 207.19c1.73-1.28 9.07-1.82 9.54-1.1.004-.585-.036-1.17-.12-1.75-3.78-1-8.65.48-9.43 1.55-.032.433-.029.868.01 1.3Z" fill="#EDEDEE"/>
      <path d="M96.56 207.41v-.21c-.08-1.24 0-1.34 0-1.38.8-1.11 5.73-2.56 9.55-1.6.11 0 .18 0 .21 1.87v.42l-.23-.35s-.1-.11-.48-.18c-1.9-.34-7.47.26-8.88 1.3l-.17.13Zm6.84-3.26c-3 0-6.07 1-6.65 1.81a7.383 7.383 0 0 0 0 1c1.79-1.08 7.17-1.53 8.89-1.23.144.026.284.066.42.12 0-.62 0-1.24-.08-1.42a11.195 11.195 0 0 0-2.58-.28Z" fill="#333"/>
      <path d="M99.25 212.35a3.26 3.26 0 0 1-3.222-3.322A3.268 3.268 0 0 1 98.25 206a17.889 17.889 0 0 1 5.07-.77 20.152 20.152 0 0 1 5.92.71 3.255 3.255 0 0 1 1.975 4.627 3.25 3.25 0 0 1-3.795 1.623 14.102 14.102 0 0 0-7.12 0 3.34 3.34 0 0 1-1.05.16Z" fill="#3E3025"/>
      <path d="M99.25 212.47a3.38 3.38 0 0 1-1.06-6.58 18.171 18.171 0 0 1 5.11-.78 19.83 19.83 0 0 1 6 .72 3.386 3.386 0 0 1 2.241 2.867 3.382 3.382 0 0 1-1.657 3.24 3.38 3.38 0 0 1-2.474.373 14.077 14.077 0 0 0-7.05 0 3.217 3.217 0 0 1-1.11.16Zm4.54-7.13h-.48a17.65 17.65 0 0 0-5 .77 3.129 3.129 0 0 0-1.054 5.38c.575.481 1.304.74 2.054.73.34-.001.677-.055 1-.16 2.36-.62 4.84-.62 7.2 0 .283.079.576.12.87.12a3.132 3.132 0 0 0 2.648-4.833 3.133 3.133 0 0 0-1.768-1.307 19.584 19.584 0 0 0-5.47-.7Z" fill="#333"/>
      <path opacity=".3" d="M111.44 209.98a3.266 3.266 0 0 1-4.04 2.21 14.102 14.102 0 0 0-7.12 0c-.323.107-.66.165-1 .17a3.248 3.248 0 0 1-3.08-2.23 3.139 3.139 0 0 1-.13-1.51c.024.185.068.365.13.54a3.246 3.246 0 0 0 3.08 2.23c.34-.002.677-.056 1-.16a14.013 14.013 0 0 1 7.12 0c.296.087.602.131.91.13a3.276 3.276 0 0 0 3.13-2.35c.04-.14.07-.284.09-.43.075.468.044.946-.09 1.4Z" fill="#010101"/>
      <path opacity=".1" d="M141.41 128.29a3.561 3.561 0 0 1-1.31 0l-.34-.07c-1.95-.45-4.74-3.18-6.54-4.62-5.91-4.72-10.1-8.49-17-10.7a137.282 137.282 0 0 0-38.91-6.21c-5.21-.08-10.57.72-15.72 1.08-3.53.29-5.86.43-7.2-.2.53-1 1.08-1.89 1.66-2.82 1.4.33 3.51.18 6.46 0 5.15-.37 10.51-1.17 15.73-1.08a137.243 137.243 0 0 1 38.9 6.2c6.87 2.21 11.06 6 17 10.71 1.8 1.43 4.59 4.16 6.54 4.62l.34.06h.23c.08.99.13 2 .16 3.03Z" fill="#010101"/>
      <path opacity=".08" d="M137.34 60.19c-12.06-2.91-19.64-4.74-31.46.9-13.61 6.5-25.07 6.89-32.88 20.15-.76-.29-1.45-.59-2.12-.89-.867-.39-1.76-.724-2.67-1C76 64.69 87.8 64.5 101.87 57.78c11.82-5.64 19.39-3.8 31.45-.9 6.3 1.52 10.44 4.57 15.31 8.69l.58.52a30.47 30.47 0 0 0-11.87-5.9Z" fill="#010101"/>
      <g opacity=".1" fill="#010101">
        <path d="M144.53 80.45c-.69 5.94-1.74 14.46-4.42 17.82a22.37 22.37 0 0 1 3.2 2.19c1.72-4.8 2.18-12.07 2-18 .85 8.88 3.73 14.86 5.53 16.33 1.56-1 1.63-1.73 2.76-1.73-3.08-3.72-5.25-7.38-7.81-16.7a.66.66 0 0 0-1.26.09Z"/>
        <path d="M143.31 100.56h-.05l-.36-.27a19.682 19.682 0 0 0-2.83-1.92.078.078 0 0 1-.007-.03c0-.01.003-.02.007-.03a.08.08 0 0 1-.011-.04.08.08 0 0 1 .011-.04c2.72-3.42 3.77-12.4 4.4-17.77a.722.722 0 0 1 .69-.66.719.719 0 0 1 .78.55c2.51 9.12 4.67 12.89 7.8 16.66a.123.123 0 0 1 .011.05.123.123 0 0 1-.011.05.101.101 0 0 1-.036.043.101.101 0 0 1-.054.017 1.76 1.76 0 0 0-1.36.67 7.795 7.795 0 0 1-1.35 1 .09.09 0 0 1-.11 0c-1.67-1.36-4.3-6.65-5.35-14.48 0 4.12-.27 11.13-2.06 16.12a.097.097 0 0 1-.022.038.097.097 0 0 1-.038.022l-.05.02Zm-3.05-2.33c.963.551 1.88 1.18 2.74 1.88l.26.19c2-5.86 2.06-14.42 2-17.85 0-.025.009-.049.026-.067a.096.096 0 0 1 .064-.033.09.09 0 0 1 .064.027c.016.017.026.04.026.063.84 8.73 3.67 14.7 5.45 16.22a8.413 8.413 0 0 0 1.26-1 2.102 2.102 0 0 1 1.29-.72c-3.07-3.74-5.22-7.55-7.7-16.58a.551.551 0 0 0-.59-.41.532.532 0 0 0-.51.49c-.64 5.36-1.64 14.27-4.38 17.79Z"/>
      </g>
      <path d="M154.43 92.75c5.81-1.08 12.65 5.19 8.21 13.3a7.003 7.003 0 0 1-4.85 3.8c-5.63 1-12.23-5.66-8.43-13.29a7.266 7.266 0 0 1 5.07-3.81Z" fill="#EDEDEE"/>
      <path d="M156.59 110.06a8.519 8.519 0 0 1-6.62-3.53 9.252 9.252 0 0 1-.7-10 7.31 7.31 0 0 1 5.14-3.87 8.456 8.456 0 0 1 8.19 3.43c2 2.81 2.08 6.46.12 10a6.704 6.704 0 0 1-6.13 4v-.03Zm-2.14-17.18a7.116 7.116 0 0 0-5 3.76 9.053 9.053 0 0 0 .68 9.8 8.005 8.005 0 0 0 7.64 3.34 6.915 6.915 0 0 0 2.823-1.323 6.91 6.91 0 0 0 1.957-2.427c1.91-3.49 1.87-7.06-.11-9.8a8.271 8.271 0 0 0-8-3.35h.01Z" fill="#010101"/>
      <path opacity=".08" d="M164.06 100.96a10.593 10.593 0 0 1-1.42 5.09 7.003 7.003 0 0 1-4.85 3.8c-5.63 1-12.23-5.66-8.43-13.29.266-.479.577-.93.93-1.35-.45 5.92 4.68 10.47 9.13 9.64a6.525 6.525 0 0 0 4.58-3.74l.06-.15Z" fill="#010101"/>
      <path d="M54.52 97.14c1.34-6 1.69-8.75 6.54-14.67a13.272 13.272 0 0 1 4.22-3.73c2.48-1.19 4.53-.21 8.3 0 5.31.35 10.75-2.81 16-2.58 3.84.18 7 1.74 11 1.88 5.32.2 9.88.65 14.86 2.81 5.44 2.38 10.38 6 15.57 9.26 4.5 2.72 11.65 6 13.91 11.76 1.59 3.92 1.47 14.69.71 18.51-.59 2.9-1.81 5.27-4.61 4.81l-.34-.06c-2-.46-4.74-3.19-6.54-4.62-5.91-4.73-10.1-8.5-17-10.71a137.274 137.274 0 0 0-38.91-6.2c-5.21-.09-10.57.71-15.72 1.08-7.95.67-9.79.61-7.99-7.54Z" fill="#EDEDEE"/>
      <path d="M141.7 125.41a4.305 4.305 0 0 1-.7 0l-.35-.07c-1.56-.37-3.63-2.13-5.29-3.56-.47-.4-.91-.78-1.3-1.09l-1.8-1.45c-5-4.06-9-7.26-15.13-9.23a136.423 136.423 0 0 0-38.87-6.2 99.56 99.56 0 0 0-10.64.63c-1.67.17-3.4.33-5.07.45-4.4.35-6.95.49-8.09-.82-.92-1-.94-3-.07-6.91.09-.41.18-.8.26-1.18 1.14-5.16 1.77-8 6.31-13.54a13.69 13.69 0 0 1 4.26-3.78c1.75-.83 3.33-.61 5.32-.32.89.13 1.89.27 3 .34a25.66 25.66 0 0 0 8.14-1.28 27.173 27.173 0 0 1 7.91-1.3c1.828.115 3.64.41 5.41.88a26.69 26.69 0 0 0 5.63 1c5.84.23 10.15.76 14.91 2.83a79.53 79.53 0 0 1 11.46 6.6c1.33.86 2.71 1.76 4.08 2.62l2.17 1.27c4.39 2.52 9.85 5.65 11.8 10.55 1.62 4 1.47 14.78.71 18.59-.68 3.34-2.01 4.97-4.06 4.97Zm-64.2-21.92h.77a136.909 136.909 0 0 1 38.94 6.21c6.17 2 10.16 5.21 15.22 9.28l1.8 1.45 1.31 1.1c1.64 1.4 3.68 3.15 5.17 3.5l.33.06c2.28.37 3.74-1.17 4.46-4.71.72-3.54.88-14.53-.7-18.43-1.91-4.81-7.33-7.92-11.68-10.42-.77-.45-1.5-.86-2.18-1.27-1.38-.86-2.75-1.76-4.08-2.63A81.593 81.593 0 0 0 115.39 81c-4.73-2-9-2.57-14.82-2.8a27.006 27.006 0 0 1-5.68-1 27.514 27.514 0 0 0-5.26-.92 27.19 27.19 0 0 0-7.84 1.29 26.002 26.002 0 0 1-8.21 1.31c-1.17-.07-2.18-.22-3.08-.34-2-.29-3.49-.5-5.16.3a13.238 13.238 0 0 0-4.17 3.7c-4.5 5.48-5.12 8.3-6.25 13.42-.09.39-.17.78-.27 1.19-.84 3.83-.84 5.7 0 6.67 1.06 1.22 3.55 1.08 7.87.73 1.67-.12 3.4-.28 5.07-.44 3.26-.3 6.62-.62 9.91-.62Z" fill="#010101"/>
      <path opacity=".08" d="M145.47 121.1c-.64 2.57-1.88 4.54-4.45 4.12l-.34-.06c-2-.46-4.74-3.19-6.54-4.62-5.91-4.73-10.1-8.5-17-10.71a137.243 137.243 0 0 0-38.9-6.2c-5.22-.09-10.58.71-15.73 1.08-8 .64-9.82.58-8-7.57 1.34-6 1.69-8.75 6.54-14.67a13.272 13.272 0 0 1 4.22-3.73c.295-.145.603-.262.92-.35l-.09.1c-4.85 5.91-5.2 8.69-6.53 14.67-1.8 8.14 0 8.21 8 7.56 5.16-.36 10.51-1.16 15.73-1.08 13.198.188 26.3 2.28 38.9 6.21 6.87 2.21 11.07 6 17 10.7 1.71 1.38 4.33 3.93 6.27 4.55Z" fill="#010101"/>
      <path opacity=".1" d="M128.17 157.78c-.17 1-8.47 6.14-12.23 5.87-13.54-1-13.73-5.64-21.75-5.42-6.77.19-8.25 5-16.15 5.87-8.07.85-15.43-6.19-15.41-7.54 0-.48.89.12 2.39.79 2.81 2.39 7.77 5.18 13 4.63 7.9-.83 9.38-5.68 16.15-5.87 8-.22 8.21 4.43 21.75 5.41 2.34.17 6.44-1.76 9.24-3.49 1.84-.29 3.06-.56 3.01-.25Z" fill="#010101"/>
    </g>
  </g>
  <defs>
    <clipPath id="a">
      <path fill="#fff" d="M0 0h430v250H0z"/>
    </clipPath>
    <clipPath id="b">
      <path fill="#fff" transform="translate(260 39)" d="M0 0h142v132H0z"/>
    </clipPath>
    <clipPath id="c">
      <path fill="#fff" transform="translate(36 54)" d="M0 0h129v159H0z"/>
    </clipPath>
  </defs>
</svg>
