<svg width="430" height="250" viewBox="0 0 430 250" fill="none" xmlns="http://www.w3.org/2000/svg">
  <path d="M430 0H0v250h430V0Z" fill="#2A2A2E"/>
  <path d="m28.452 228 2.928-8.4h-1.224l-2.316 6.924-2.316-6.924H24.3l2.928 8.4h1.224Zm5.348 0h-1.164v-6H33.8v6Zm-1.392-7.932a.79.79 0 0 0 .804.804.8.8 0 0 0 .816-.804.81.81 0 0 0-.816-.816.8.8 0 0 0-.804.816Zm7.006 3.228c-.336-1.08-1.164-1.428-2.004-1.428-1.188 0-1.98.768-1.98 1.788 0 .828.516 1.344 1.476 1.632l.804.276c.42.144.756.348.756.756 0 .468-.432.816-1.032.816-.612 0-1.152-.348-1.296-.828l-1.032.252c.276 1.032 1.26 1.572 2.316 1.572 1.164 0 2.16-.66 2.16-1.8 0-.636-.3-1.344-1.44-1.692l-.864-.288c-.36-.12-.72-.324-.72-.72 0-.432.348-.768.888-.768.372 0 .744.12.936.66l1.032-.228ZM42.179 228h-1.164v-6h1.164v6Zm-1.392-7.932a.79.79 0 0 0 .804.804.8.8 0 0 0 .816-.804.81.81 0 0 0-.816-.816.8.8 0 0 0-.804.816Zm4.726 2.844h1.908V222h-1.908v-1.728h-.9L44.349 222h-.984v.912h.984v3.192c0 1.536.924 2.028 1.872 2.028 1.164 0 1.776-.672 1.776-1.524 0 0 0-.408-.108-.648h-1.02c.084.18.096.408.096.492 0 .444-.36.66-.732.66-.396 0-.72-.264-.72-.924v-3.276Zm13.303 1.98c0-1.728-1.044-3.18-2.964-3.18-.828 0-1.548.408-1.968.972v-3.36h-1.788V228h1.788v-.9c.444.636 1.032 1.032 1.932 1.032 1.872 0 3-1.44 3-3.24Zm-1.788.012c0 .984-.6 1.776-1.584 1.776-.876 0-1.608-.564-1.608-1.68 0-1.14.684-1.836 1.656-1.836.984 0 1.536.792 1.536 1.74Zm4.395 0c0-.948.552-1.74 1.536-1.74.972 0 1.656.696 1.656 1.836 0 1.116-.732 1.68-1.608 1.68-.984 0-1.584-.792-1.584-1.776Zm3.144-3.06v.84a2.465 2.465 0 0 0-1.968-.972c-1.92 0-2.964 1.452-2.964 3.18 0 1.8 1.128 3.24 3 3.24.9 0 1.488-.396 1.932-1.032v.9h1.788v-6.156h-1.788ZM67.893 228h1.788v-3.3c0-.852.348-1.512 1.176-1.512s1.14.648 1.14 1.5V228h1.788v-3.348c0-1.56-.468-2.94-2.196-2.94-.744 0-1.392.252-1.908.972v-.84h-1.788V228Zm8.787-3.096c0-.948.552-1.74 1.536-1.74.972 0 1.656.696 1.656 1.836 0 1.116-.732 1.68-1.608 1.68-.984 0-1.584-.792-1.584-1.776Zm3.144-3.06v.84a2.465 2.465 0 0 0-1.968-.972c-1.92 0-2.964 1.452-2.964 3.18 0 1.8 1.128 3.24 3 3.24.9 0 1.488-.396 1.932-1.032v.9h1.788v-6.156h-1.788ZM83.151 228h1.788v-3.3c0-.852.348-1.512 1.176-1.512s1.14.648 1.14 1.5V228h1.788v-3.348c0-1.56-.468-2.94-2.196-2.94-.744 0-1.392.252-1.908.972v-.84H83.15V228Zm6.975-3.084c0 1.932 1.596 3.216 3.384 3.216 1.8 0 3.384-1.296 3.384-3.216 0-1.908-1.584-3.204-3.384-3.204-1.788 0-3.384 1.284-3.384 3.204Zm1.74 0c0-.96.768-1.668 1.644-1.668.888 0 1.644.72 1.644 1.668 0 .96-.756 1.68-1.644 1.68a1.654 1.654 0 0 1-1.644-1.68Zm5.951 2.184c0 .588.48 1.032 1.128 1.032.636 0 1.14-.444 1.14-1.032 0-.6-.504-1.056-1.14-1.056-.648 0-1.128.456-1.128 1.056Zm3.184-2.184c0 1.824 1.332 3.204 3.444 3.204.636 0 1.464-.132 2.52-.912l-.816-1.308c-.6.54-1.308.612-1.62.612-1.044 0-1.74-.66-1.74-1.596s.696-1.596 1.74-1.596c.312 0 1.02.072 1.62.612l.816-1.308c-1.056-.78-1.884-.912-2.52-.912-2.112 0-3.444 1.38-3.444 3.204Zm6.504 0c0 1.824 1.332 3.204 3.444 3.204.636 0 1.464-.132 2.52-.912l-.816-1.308c-.6.54-1.308.612-1.62.612-1.044 0-1.74-.66-1.74-1.596s.696-1.596 1.74-1.596c.312 0 1.02.072 1.62.612l.816-1.308c-1.056-.78-1.884-.912-2.52-.912-2.112 0-3.444 1.38-3.444 3.204Zm11.777-2.004h1.908V222h-1.908v-1.728h-.9l-.264 1.728h-.984v.912h.984v3.192c0 1.536.924 2.028 1.872 2.028 1.164 0 1.776-.672 1.776-1.524 0 0 0-.408-.108-.648h-1.02c.084.18.096.408.096.492 0 .444-.36.66-.732.66-.396 0-.72-.264-.72-.924v-3.276Zm3.12 2.088a3.137 3.137 0 0 0 3.144 3.132c1.74 0 3.156-1.404 3.156-3.132 0-1.716-1.416-3.132-3.156-3.132a3.145 3.145 0 0 0-3.144 3.132Zm1.164.012c0-1.164.888-2.112 1.98-2.112 1.104 0 1.992.948 1.992 2.112 0 1.152-.888 2.088-1.992 2.088-1.092 0-1.98-.936-1.98-2.088Zm9.721-3.012h1.164v7.14c0 1.128-.924 1.68-1.872 1.68-1.164 0-1.776-.672-1.776-1.524 0 0 0-.408.108-.648h1.056c-.084.18-.096.408-.096.492 0 .444.324.66.696.66.396 0 .72-.228.72-.72V222Zm-.228-1.932a.79.79 0 0 0 .804.804.8.8 0 0 0 .816-.804.81.81 0 0 0-.816-.816.8.8 0 0 0-.804.816Zm2.819 4.932a3.137 3.137 0 0 0 3.144 3.132c1.74 0 3.156-1.404 3.156-3.132 0-1.716-1.416-3.132-3.156-3.132a3.145 3.145 0 0 0-3.144 3.132Zm1.164.012c0-1.164.888-2.112 1.98-2.112 1.104 0 1.992.948 1.992 2.112 0 1.152-.888 2.088-1.992 2.088-1.092 0-1.98-.936-1.98-2.088Zm7.723 2.988h-1.164v-6h1.164v6Zm-1.392-7.932a.79.79 0 0 0 .804.804.8.8 0 0 0 .816-.804.81.81 0 0 0-.816-.816.8.8 0 0 0-.804.816Zm7.594 7.932h1.164v-3.384c0-1.932-1.008-2.748-2.304-2.748-.984 0-1.764.48-2.016 1.332V222h-1.164v6h1.164v-2.784c0-1.896 1.308-2.316 1.932-2.316.636 0 1.224.444 1.224 1.716V228Zm7.154-6h-1.164v3.384c0 1.932 1.008 2.748 2.304 2.748.984 0 1.764-.48 2.016-1.332v1.2h1.164v-6h-1.164v2.784c0 1.896-1.308 2.316-1.932 2.316-.636 0-1.224-.444-1.224-1.716V222Zm9.894 1.296c-.336-1.08-1.164-1.428-2.004-1.428-1.188 0-1.98.768-1.98 1.788 0 .828.516 1.344 1.476 1.632l.804.276c.42.144.756.348.756.756 0 .468-.432.816-1.032.816-.612 0-1.152-.348-1.296-.828l-1.032.252c.276 1.032 1.26 1.572 2.316 1.572 1.164 0 2.16-.66 2.16-1.8 0-.636-.3-1.344-1.44-1.692l-.864-.288c-.36-.12-.72-.324-.72-.72 0-.432.348-.768.888-.768.372 0 .744.12.936.66l1.032-.228Zm2.861-3.696h-1.368l.264 5.772h.84l.264-5.772Zm-1.536 7.656c0 .492.384.876.876.876a.876.876 0 0 0 .888-.876.886.886 0 0 0-.888-.888.876.876 0 0 0-.876.888Z" fill="#FADD0B"/>
  <path d="M89.447 32.784h-6.18l-.8 2.219h-2.352l5.557-13.985h1.368l5.576 13.985h-2.368l-.801-2.219Zm-.682-1.885-2.4-6.602-2.402 6.602h4.802Zm27.555 1.884h-6.177l-.823 2.22h-2.351l5.576-13.985h1.368l5.579 13.985h-2.373l-.801-2.219.002-.001Zm-.684-1.884-2.398-6.602-2.403 6.602h4.801Zm22.572 3.302a7.159 7.159 0 0 1 0-12.399 7.217 7.217 0 0 1 7.207 0 7.158 7.158 0 0 1 0 12.399 7.214 7.214 0 0 1-7.207 0Zm6.171-1.804a5.014 5.014 0 0 0 2.512-4.391 5.094 5.094 0 0 0-5.125-5.067 5.109 5.109 0 0 0-2.51.671 5.01 5.01 0 0 0-2.515 4.392 5.099 5.099 0 0 0 3.169 4.692 5.11 5.11 0 0 0 4.469-.297ZM78.588 29.11c.445.625.672 1.38.644 2.146a3.649 3.649 0 0 1-.522 1.955 3.612 3.612 0 0 1-1.429 1.304c-.62.322-1.308.49-2.006.489h-5.909V21.018h5.224a4.36 4.36 0 0 1 2.022.469 3.61 3.61 0 0 1 1.447 1.354 3.7 3.7 0 0 1 .525 1.98 3.56 3.56 0 0 1-.462 1.852 3.226 3.226 0 0 1-1.305 1.211 3.543 3.543 0 0 1 1.77 1.225Zm-2.529 3.628c.32-.166.587-.416.775-.722.19-.308.287-.664.281-1.025a1.913 1.913 0 0 0-.286-1.03 2.142 2.142 0 0 0-1.845-1.015h-3.53V33h3.515c.38.008.756-.083 1.09-.264Zm.134-8.766a1.986 1.986 0 0 0-.77-.696 2.21 2.21 0 0 0-1.066-.26h-2.903v4.04h2.89a2.139 2.139 0 0 0 1.837-1.021c.19-.314.29-.676.286-1.043a1.874 1.874 0 0 0-.273-1.02h-.001Zm29.211-2.954v13.986h-.87l-8.161-9.484v9.486h-2.15V21.018h.84l8.191 9.43v-9.433h2.15Zm26.873 0v13.986h-.87l-8.157-9.486v9.486h-2.151V21.018h.846l8.182 9.43v-9.431h2.15Zm-80.92 16.835c-11.985 1.51-17.505-9.051-16.526-10.082.646-.679 1.652-.72 2.522-.744 4.008-.108 9.68 4.573 10.831 4.551 2.228-.046 5.58-3.589 7.776-6.51.92-1.222 6.661-3.064 6.025.148-2.066 10.41-9.101 12.443-10.629 12.635v.002ZM34.677 18.147c11.986-1.51 17.504 9.05 16.526 10.082-.647.679-1.651.72-2.522.744-4.008.108-9.68-4.575-10.83-4.551-2.228.046-5.58 3.588-7.776 6.51-.92 1.222-6.662 3.064-6.026-.147 2.063-10.41 9.1-12.444 10.628-12.637v-.001Z" fill="#FBDD11"/>
  <path d="M0 76h188.023a12 12 0 0 1 9.578 4.771l30.943 41a12 12 0 0 1 0 14.458l-30.943 41a12 12 0 0 1-9.578 4.771H0V76Z" fill="#FADD0B"/>
  <path d="M34.398 114v-3.212h3.135v-1.122h-3.135v-2.233h3.597V106.3H32.99v7.7h1.408Zm4.1-2.783c0 1.617 1.407 2.904 3.013 2.904 1.628 0 3.025-1.298 3.025-2.904 0-1.595-1.397-2.904-3.025-2.904-1.606 0-3.014 1.298-3.014 2.904Zm1.363 0c0-.979.715-1.749 1.65-1.749.946 0 1.661.781 1.661 1.749 0 .979-.715 1.749-1.66 1.749-.936 0-1.65-.77-1.65-1.749Zm7.163-2.783h-1.331V114h1.353v-2.574c0-1.54.825-1.815 1.32-1.815.176 0 .429.033.638.11v-1.331c-.165-.044-.275-.077-.462-.077-.594 0-1.331.407-1.518 1.353v-1.232Zm7.098-1.485h-1.045l-.242 1.485H51.9v1.034h.869v2.728c0 1.529.913 1.925 1.837 1.925 1.199 0 1.76-.726 1.76-1.54 0-.099-.022-.418-.121-.627h-1.111c.055.121.077.341.077.462 0 .341-.22.572-.55.572-.396 0-.54-.264-.54-.605v-2.915h1.662v-1.034h-1.661v-1.485Zm3.13 7.051h1.352v-2.783c0-1.265.76-1.76 1.42-1.76.67 0 1.088.506 1.088 1.474V114h1.353v-3.08c0-1.606-.682-2.607-2.068-2.607-.792 0-1.44.33-1.793 1.056v-3.322h-1.353V114Zm11.246-1.705c-.473.429-.99.682-1.683.682-1.199 0-1.914-.693-1.914-1.573h4.62c0-2.145-1.419-3.091-2.926-3.091-1.76 0-3.047 1.298-3.047 2.926 0 1.584 1.2 2.882 3.201 2.882.858 0 1.771-.231 2.52-1.067l-.77-.759Zm-1.903-2.904c.572 0 1.331.242 1.54 1.1h-3.168c.286-.858 1.034-1.1 1.628-1.1ZM74.761 114v-5.566h-1.353V114h1.353Zm-1.55-7.216c0 .484.373.847.88.847.505 0 .901-.363.901-.847s-.396-.858-.902-.858-.88.374-.88.858ZM76.318 114h1.353v-2.783c0-1.166.638-1.76 1.43-1.76.67 0 1.078.506 1.078 1.474V114h1.353v-3.08c0-1.606-.671-2.607-2.057-2.607-.792 0-1.452.33-1.804 1.056v-.935h-1.353V114Zm6.197-1.32c.32 1.067 1.343 1.441 2.244 1.441 1.155 0 2.178-.594 2.178-1.694 0-.484-.23-1.199-1.419-1.595l-.825-.297c-.308-.11-.582-.264-.582-.572 0-.385.374-.583.726-.583.297 0 .704.121.847.572l1.088-.396c-.362-1.001-1.242-1.243-1.947-1.243-1.154 0-2.034.649-2.034 1.683 0 .506.285 1.133 1.397 1.551l.814.308c.34.143.605.308.605.594 0 .44-.44.583-.837.583-.505 0-1.044-.253-1.188-.803l-1.067.451Zm7.237-5.731H88.71l-.243 1.485h-.934v1.034h.868v2.728c0 1.529.913 1.925 1.837 1.925 1.2 0 1.76-.726 1.76-1.54 0-.099-.022-.418-.12-.627h-1.111c.054.121.076.341.076.462 0 .341-.22.572-.55.572-.395 0-.538-.264-.538-.605v-2.915h1.66v-1.034h-1.66v-1.485Zm8.267 1.485h-1.353v2.409c0 1.573-.803 2.09-1.43 2.09-.726 0-1.078-.528-1.078-1.43v-3.069h-1.353v3.08c0 1.606.682 2.607 2.068 2.607.792 0 1.441-.33 1.793-1.056V114h1.353v-5.566Zm1.16 2.816c0 1.617 1.199 2.871 3.135 2.871.539 0 1.287-.121 2.145-.759l-.627-.957c-.572.462-1.243.506-1.452.506-1.078 0-1.837-.704-1.837-1.694 0-1.001.759-1.694 1.837-1.694.209 0 .88.033 1.452.506l.627-.968c-.858-.627-1.606-.748-2.145-.748-1.969 0-3.135 1.287-3.135 2.937Zm7.976-4.301h-1.045l-.242 1.485h-.935v1.034h.869v2.728c0 1.529.913 1.925 1.837 1.925 1.199 0 1.76-.726 1.76-1.54 0-.099-.022-.418-.121-.627h-1.111c.055.121.077.341.077.462 0 .341-.22.572-.55.572-.396 0-.539-.264-.539-.605v-2.915h1.661v-1.034h-1.661v-1.485Zm4.505 7.051v-5.566h-1.353V114h1.353Zm-1.551-7.216c0 .484.374.847.88.847s.902-.363.902-.847-.396-.858-.902-.858-.88.374-.88.858Zm2.723 4.433c0 1.617 1.408 2.904 3.014 2.904 1.628 0 3.025-1.298 3.025-2.904 0-1.595-1.397-2.904-3.025-2.904-1.606 0-3.014 1.298-3.014 2.904Zm1.364 0c0-.979.715-1.749 1.65-1.749.946 0 1.661.781 1.661 1.749 0 .979-.715 1.749-1.661 1.749-.935 0-1.65-.77-1.65-1.749Zm5.832 2.783h1.353v-2.783c0-1.166.638-1.76 1.43-1.76.671 0 1.078.506 1.078 1.474V114h1.353v-3.08c0-1.606-.671-2.607-2.057-2.607-.792 0-1.452.33-1.804 1.056v-.935h-1.353V114Zm6.197-1.32c.319 1.067 1.342 1.441 2.244 1.441 1.155 0 2.178-.594 2.178-1.694 0-.484-.231-1.199-1.419-1.595l-.825-.297c-.308-.11-.583-.264-.583-.572 0-.385.374-.583.726-.583.297 0 .704.121.847.572l1.089-.396c-.363-1.001-1.243-1.243-1.947-1.243-1.155 0-2.035.649-2.035 1.683 0 .506.286 1.133 1.397 1.551l.814.308c.341.143.605.308.605.594 0 .44-.44.583-.836.583-.506 0-1.045-.253-1.188-.803l-1.067.451Zm7.973-1.463c0 1.617 1.408 2.904 3.014 2.904 1.628 0 3.025-1.298 3.025-2.904 0-1.595-1.397-2.904-3.025-2.904-1.606 0-3.014 1.298-3.014 2.904Zm1.364 0c0-.979.715-1.749 1.65-1.749.946 0 1.661.781 1.661 1.749 0 .979-.715 1.749-1.661 1.749-.935 0-1.65-.77-1.65-1.749Zm5.832 2.783h1.353v-2.783c0-1.166.638-1.76 1.43-1.76.671 0 1.078.506 1.078 1.474V114h1.353v-3.08c0-1.606-.671-2.607-2.057-2.607-.792 0-1.452.33-1.804 1.056v-.935h-1.353V114Zm9.475 0h1.353v-2.783c0-1.265.759-1.76 1.419-1.76.671 0 1.089.506 1.089 1.474V114h1.353v-3.08c0-1.606-.682-2.607-2.068-2.607-.792 0-1.441.33-1.793 1.056v-3.322h-1.353V114Zm6.296-2.783c0 1.617 1.408 2.904 3.014 2.904 1.628 0 3.025-1.298 3.025-2.904 0-1.595-1.397-2.904-3.025-2.904-1.606 0-3.014 1.298-3.014 2.904Zm1.364 0c0-.979.715-1.749 1.65-1.749.946 0 1.661.781 1.661 1.749 0 .979-.715 1.749-1.661 1.749-.935 0-1.65-.77-1.65-1.749Zm7.74.946-1.21-3.729h-1.452L165.61 114h1.199l1.111-3.509 1.1 3.509h1.21l2.002-5.566h-1.463l-1.199 3.729-1.144-3.575h-1.023l-1.133 3.575Zm11.118-5.214h-1.045l-.242 1.485h-.935v1.034h.869v2.728c0 1.529.913 1.925 1.837 1.925 1.199 0 1.76-.726 1.76-1.54 0-.099-.022-.418-.121-.627H178.4c.055.121.077.341.077.462 0 .341-.22.572-.55.572-.396 0-.539-.264-.539-.605v-2.915h1.661v-1.034h-1.661v-1.485Zm2.745 4.268c0 1.617 1.408 2.904 3.014 2.904 1.628 0 3.025-1.298 3.025-2.904 0-1.595-1.397-2.904-3.025-2.904-1.606 0-3.014 1.298-3.014 2.904Zm1.364 0c0-.979.715-1.749 1.65-1.749.946 0 1.661.781 1.661 1.749 0 .979-.715 1.749-1.661 1.749-.935 0-1.65-.77-1.65-1.749ZM34.101 122.434H32.77V128h1.353v-2.574c0-1.54.825-1.815 1.32-1.815.176 0 .429.033.638.11v-1.331c-.165-.044-.275-.077-.462-.077-.594 0-1.331.407-1.518 1.353v-1.232Zm7.348 3.861c-.473.429-.99.682-1.683.682-1.199 0-1.914-.693-1.914-1.573h4.62c0-2.145-1.419-3.091-2.926-3.091-1.76 0-3.047 1.298-3.047 2.926 0 1.584 1.2 2.882 3.201 2.882.858 0 1.771-.231 2.52-1.067l-.77-.759Zm-1.903-2.904c.572 0 1.331.242 1.54 1.1h-3.168c.286-.858 1.034-1.1 1.628-1.1Zm5 1.815c0-.957.571-1.76 1.594-1.76 1.012 0 1.694.737 1.694 1.815 0 1.1-.726 1.727-1.65 1.727-1.012 0-1.639-.792-1.639-1.782Zm3.266-5.159v3.212c-.462-.638-1.155-.946-1.903-.946-1.705 0-2.728 1.309-2.728 2.882 0 1.628 1.078 2.926 2.717 2.926.814 0 1.507-.352 1.914-.957V128h1.353v-7.953h-1.353Zm7.463 6.248c-.474.429-.99.682-1.683.682-1.2 0-1.914-.693-1.914-1.573h4.62c0-2.145-1.42-3.091-2.927-3.091-1.76 0-3.047 1.298-3.047 2.926 0 1.584 1.2 2.882 3.202 2.882.857 0 1.77-.231 2.518-1.067l-.77-.759Zm-1.904-2.904c.572 0 1.331.242 1.54 1.1h-3.168c.286-.858 1.035-1.1 1.628-1.1Zm8.564 2.904c-.473.429-.99.682-1.683.682-1.2 0-1.914-.693-1.914-1.573h4.62c0-2.145-1.42-3.091-2.926-3.091-1.76 0-3.047 1.298-3.047 2.926 0 1.584 1.199 2.882 3.2 2.882.859 0 1.772-.231 2.52-1.067l-.77-.759Zm-1.903-2.904c.572 0 1.33.242 1.54 1.1h-3.168c.286-.858 1.034-1.1 1.628-1.1ZM67.67 128h1.342v-2.849c.033-1.221.638-1.694 1.254-1.694.649 0 1.034.506 1.034 1.474V128h1.353v-3.08c0-1.606-.627-2.607-2.068-2.607-.605 0-1.386.154-1.826 1.045-.363-.77-1.045-1.045-1.738-1.045-.715 0-1.342.374-1.64 1.056v-.935H64.03V128h1.353v-2.849c.033-1.221.638-1.694 1.254-1.694.649 0 1.034.506 1.034 1.474V128Zm11.337-1.749-1.518-3.817h-1.53l2.366 5.236-1.133 2.849h1.33l3.455-8.085H80.46l-1.452 3.817Zm3.264-1.034c0 1.617 1.408 2.904 3.014 2.904 1.628 0 3.025-1.298 3.025-2.904 0-1.595-1.397-2.904-3.025-2.904-1.606 0-3.014 1.298-3.014 2.904Zm1.364 0c0-.979.715-1.749 1.65-1.749.946 0 1.66.781 1.66 1.749 0 .979-.714 1.749-1.66 1.749-.935 0-1.65-.77-1.65-1.749Zm10.968-2.783h-1.353v2.409c0 1.573-.803 2.09-1.43 2.09-.726 0-1.078-.528-1.078-1.43v-3.069H89.39v3.08c0 1.606.682 2.607 2.068 2.607.792 0 1.441-.33 1.793-1.056V128h1.353v-5.566Zm2.876 0h-1.331V128h1.353v-2.574c0-1.54.825-1.815 1.32-1.815.176 0 .429.033.638.11v-1.331c-.165-.044-.275-.077-.462-.077-.594 0-1.331.407-1.518 1.353v-1.232Zm11.102-.088c0-1.276-1.122-2.046-2.629-2.046h-2.827v7.7h3.168c1.584 0 2.651-.836 2.651-2.101 0-.88-.66-1.716-1.738-1.859.924-.275 1.375-.968 1.375-1.694Zm-2.882 2.299c1.408 0 1.804.605 1.804 1.221 0 .616-.517 1.012-1.21 1.012h-1.76v-2.233h1.166Zm-1.166-1.023v-2.189h1.419c.627 0 1.188.33 1.188.99 0 .583-.374 1.199-1.65 1.199h-.957Zm9.912-1.188v.825c-.451-.638-1.144-.946-1.892-.946-1.705 0-2.739 1.309-2.739 2.882 0 1.628 1.078 2.926 2.728 2.926.814 0 1.507-.352 1.903-.957V128h1.353v-5.566h-1.353Zm-3.267 2.772c0-.957.583-1.76 1.606-1.76 1.001 0 1.694.737 1.694 1.815 0 1.1-.737 1.727-1.661 1.727-1.012 0-1.639-.792-1.639-1.782Zm6.164 2.794h1.353v-2.783c0-1.166.638-1.76 1.43-1.76.671 0 1.078.506 1.078 1.474V128h1.353v-3.08c0-1.606-.671-2.607-2.057-2.607-.792 0-1.452.33-1.804 1.056v-.935h-1.353V128Zm10.95-5.566v.825c-.451-.638-1.144-.946-1.892-.946-1.705 0-2.739 1.309-2.739 2.882 0 1.628 1.078 2.926 2.728 2.926.814 0 1.507-.352 1.903-.957V128h1.353v-5.566h-1.353Zm-3.267 2.772c0-.957.583-1.76 1.606-1.76 1.001 0 1.694.737 1.694 1.815 0 1.1-.737 1.727-1.661 1.727-1.012 0-1.639-.792-1.639-1.782ZM131.19 128h1.353v-2.783c0-1.166.638-1.76 1.43-1.76.671 0 1.078.506 1.078 1.474V128h1.353v-3.08c0-1.606-.671-2.607-2.057-2.607-.792 0-1.452.33-1.804 1.056v-.935h-1.353V128Zm6.297-2.783c0 1.617 1.408 2.904 3.014 2.904 1.628 0 3.025-1.298 3.025-2.904 0-1.595-1.397-2.904-3.025-2.904-1.606 0-3.014 1.298-3.014 2.904Zm1.364 0c0-.979.715-1.749 1.65-1.749.946 0 1.661.781 1.661 1.749 0 .979-.715 1.749-1.661 1.749-.935 0-1.65-.77-1.65-1.749Zm5.679 4.389c.957-.297 1.54-1.309 1.54-2.233 0-.319-.154-.979-.836-.979-.583 0-.869.374-.858.792.011.374.341.781.847.682 0 .44-.374 1.034-.979 1.243l.286.495Zm10.675-7.172h-1.463l-1.496 4.059-1.485-4.059h-1.463l2.244 5.566h1.419l2.244-5.566Zm2.336 5.566v-5.566h-1.353V128h1.353Zm-1.551-7.216c0 .484.374.847.88.847s.902-.363.902-.847-.396-.858-.902-.858-.88.374-.88.858Zm2.624 5.896c.319 1.067 1.342 1.441 2.244 1.441 1.155 0 2.178-.594 2.178-1.694 0-.484-.231-1.199-1.419-1.595l-.825-.297c-.308-.11-.583-.264-.583-.572 0-.385.374-.583.726-.583.297 0 .704.121.847.572l1.089-.396c-.363-1.001-1.243-1.243-1.947-1.243-1.155 0-2.035.649-2.035 1.683 0 .506.286 1.133 1.397 1.551l.814.308c.341.143.605.308.605.594 0 .44-.44.583-.836.583-.506 0-1.045-.253-1.188-.803l-1.067.451Zm6.94 1.32v-5.566h-1.353V128h1.353Zm-1.551-7.216c0 .484.374.847.88.847s.902-.363.902-.847-.396-.858-.902-.858-.88.374-.88.858Zm4.781.165h-1.045l-.242 1.485h-.935v1.034h.869v2.728c0 1.529.913 1.925 1.837 1.925 1.199 0 1.76-.726 1.76-1.54 0-.099-.022-.418-.121-.627h-1.111c.055.121.077.341.077.462 0 .341-.22.572-.55.572-.396 0-.539-.264-.539-.605v-2.915h1.661v-1.034h-1.661v-1.485Zm3.064 6.303c0 .495.396.869.924.869.517 0 .924-.374.924-.869 0-.506-.407-.891-.924-.891-.528 0-.924.385-.924.891Zm0-4.048c0 .495.396.869.924.869.517 0 .924-.374.924-.869 0-.506-.407-.891-.924-.891-.528 0-.924.385-.924.891ZM42.176 145.84c0-2.4-1.536-4.304-3.968-4.304-1.104 0-2.016.512-2.528 1.28v-4.384h-2.752V150h2.752v-1.136c.528.816 1.344 1.312 2.496 1.312 2.4 0 4-1.888 4-4.336Zm-2.768 0c0 1.216-.72 2.176-1.888 2.176-1.088 0-1.904-.784-1.904-2.096 0-1.328.784-2.208 1.952-2.208s1.84.96 1.84 2.128Zm6.465 0c0-1.168.688-2.128 1.856-2.128 1.168 0 1.952.88 1.952 2.208 0 1.312-.832 2.096-1.92 2.096-1.168 0-1.888-.96-1.888-2.176Zm3.744-4.128v1.104c-.512-.768-1.44-1.28-2.528-1.28-2.432 0-3.984 1.904-3.984 4.304 0 2.448 1.616 4.336 4 4.336 1.168 0 1.984-.496 2.512-1.312V150h2.752v-8.288h-2.752ZM54.225 150h2.752v-4.48c0-.944.336-1.776 1.328-1.776 1.008 0 1.312.976 1.312 1.776V150h2.752v-4.64c0-1.808-.512-3.824-2.928-3.824-1.056 0-1.872.384-2.464 1.264v-1.088h-2.752V150Zm12.194-4.16c0-1.168.689-2.128 1.856-2.128 1.168 0 1.953.88 1.953 2.208 0 1.312-.832 2.096-1.92 2.096-1.169 0-1.889-.96-1.889-2.176Zm3.745-4.128v1.104c-.513-.768-1.44-1.28-2.529-1.28-2.431 0-3.984 1.904-3.984 4.304 0 2.448 1.616 4.336 4 4.336 1.169 0 1.984-.496 2.513-1.312V150h2.751v-8.288h-2.752ZM74.772 150h2.752v-4.48c0-.944.336-1.776 1.328-1.776 1.008 0 1.312.976 1.312 1.776V150h2.752v-4.64c0-1.808-.512-3.824-2.928-3.824-1.056 0-1.872.384-2.464 1.264v-1.088h-2.752V150Zm18.738-4.144c0-2.384-2.08-4.32-4.672-4.32-2.576 0-4.672 1.92-4.672 4.32 0 2.4 2.096 4.32 4.672 4.32 2.592 0 4.672-1.936 4.672-4.32Zm-6.688 0c0-1.2.832-2.064 2.016-2.064 1.184 0 2.016.864 2.016 2.064 0 1.2-.832 2.048-2.016 2.048-1.184 0-2.016-.848-2.016-2.048Zm7.755 2.864c0 .832.689 1.456 1.633 1.456.928 0 1.664-.624 1.664-1.456 0-.864-.736-1.504-1.664-1.504-.944 0-1.632.64-1.632 1.504Zm4.355-2.864c0 2.432 1.92 4.32 4.752 4.32 1.008 0 2.224-.256 3.456-1.248-.224-.336-1.072-1.472-1.296-1.808a3.067 3.067 0 0 1-2 .768c-1.264 0-2.144-.848-2.144-2.032 0-1.184.88-2.016 2.144-2.016a3.04 3.04 0 0 1 2 .768c.224-.336 1.072-1.472 1.296-1.808-1.232-.992-2.448-1.264-3.456-1.264-2.832 0-4.752 1.888-4.752 4.32Zm8.734 0c0 2.432 1.92 4.32 4.752 4.32 1.008 0 2.224-.256 3.456-1.248-.224-.336-1.072-1.472-1.296-1.808a3.067 3.067 0 0 1-2 .768c-1.264 0-2.144-.848-2.144-2.032 0-1.184.88-2.016 2.144-2.016a3.04 3.04 0 0 1 2 .768c.224-.336 1.072-1.472 1.296-1.808-1.232-.992-2.448-1.264-3.456-1.264-2.832 0-4.752 1.888-4.752 4.32Zm17.115-7.712h-2.112l-6.16 12.416h2.08l6.192-12.416Zm3.381 3.568h-2.656V150h2.752v-4.144c0-1.008.656-1.696 1.728-1.696.224 0 .672.016 1.04.112v-2.688c-.272-.048-.304-.048-.56-.048-.608 0-2.032.384-2.304 1.952v-1.776Zm8.275 8.464c1.344 0 2.768-.368 3.872-1.536-.224-.208-1.136-1.344-1.36-1.568-.72.608-1.472.896-2.272.896-1.568 0-2.432-.848-2.464-1.6h6.384c.016-.112.016-.24.016-.352 0-2.928-1.904-4.48-4.416-4.48-2.848 0-4.624 1.984-4.624 4.352 0 2.368 1.792 4.288 4.864 4.288Zm-.256-6.592c.816 0 1.744.368 1.84 1.312h-3.776c.16-.96 1.152-1.312 1.936-1.312Zm8.051 2.256c0-1.168.688-2.128 1.856-2.128 1.168 0 1.952.88 1.952 2.208 0 1.312-.832 2.096-1.92 2.096-1.168 0-1.888-.96-1.888-2.176Zm3.744-7.408v4.384c-.512-.768-1.44-1.28-2.528-1.28-2.432 0-3.984 1.904-3.984 4.304 0 2.448 1.616 4.336 4 4.336 1.168 0 1.984-.496 2.512-1.312V150h2.752v-11.568h-2.752Zm8.992 11.744c1.344 0 2.768-.368 3.872-1.536-.224-.208-1.136-1.344-1.36-1.568-.72.608-1.472.896-2.272.896-1.568 0-2.432-.848-2.464-1.6h6.384c.016-.112.016-.24.016-.352 0-2.928-1.904-4.48-4.416-4.48-2.848 0-4.624 1.984-4.624 4.352 0 2.368 1.792 4.288 4.864 4.288Zm-.256-6.592c.816 0 1.744.368 1.84 1.312h-3.776c.16-.96 1.152-1.312 1.936-1.312Zm10.131 6.592c1.344 0 2.768-.368 3.872-1.536-.224-.208-1.136-1.344-1.36-1.568-.72.608-1.472.896-2.272.896-1.568 0-2.432-.848-2.464-1.6h6.384c.016-.112.016-.24.016-.352 0-2.928-1.904-4.48-4.416-4.48-2.848 0-4.624 1.984-4.624 4.352 0 2.368 1.792 4.288 4.864 4.288Zm-.256-6.592c.816 0 1.744.368 1.84 1.312h-3.776c.16-.96 1.152-1.312 1.936-1.312Zm14.627.16c.864 0 1.136.88 1.136 1.728V150h2.752v-4.64c0-1.792-.624-3.824-2.944-3.824-.832 0-1.856.16-2.592 1.312-.416-.784-1.2-1.312-2.384-1.312-.896 0-1.664.48-2.096 1.28v-1.104h-2.752V150h2.752v-4.512c0-.928.256-1.744 1.136-1.744.848 0 1.12.864 1.12 1.728V150h2.752v-4.512c0-.928.24-1.744 1.12-1.744Z" fill="#2A2A2E"/>
  <path d="M303.95 39.4c.306 2.412 2.412 3.798 5.022 3.798 2.43 0 4.806-1.188 4.806-3.852-.036-1.404-.72-2.916-3.546-3.834l-1.35-.468c-1.08-.36-1.224-.846-1.224-1.188 0-.72.63-1.026 1.386-1.026.684 0 1.35.306 1.782 1.368l2.556-1.026c-.738-1.944-2.25-2.97-4.356-2.97-2.592 0-4.518 1.476-4.518 3.798.018 1.71 1.53 3.078 3.438 3.726l1.404.504c1.062.36 1.296.792 1.296 1.206 0 .792-.792 1.134-1.728 1.134-1.206 0-1.962-.612-2.268-1.746l-2.7.576Zm20.456 3.6v-2.628h-5.49v-2.358h4.77V35.53h-4.77v-2.502h5.49V30.4h-8.676V43h8.676Zm10.793 0v-2.628h-5.49v-2.358h4.77V35.53h-4.77v-2.502h5.49V30.4h-8.676V43h8.676Zm7.571 0c3.618 0 6.336-2.808 6.336-6.3 0-3.474-2.718-6.3-6.336-6.3h-5.454V43h5.454Zm-2.268-9.972h1.674c2.376 0 3.726 1.584 3.726 3.672s-1.35 3.672-3.726 3.672h-1.674v-7.344ZM268.863 57.42V54h-1v7h1v-3.11l1.36 1.88c.33.49.89 1.34 1.92 1.34.32 0 .93-.12 1.21-.43l-.36-.7c-.31.25-.59.26-.74.26-.43 0-.8-.41-1.11-.84l-1.31-1.77 2.58-3.52V54h-1.08l-2.47 3.42Zm9.14 2.2c-.5.43-1.04.63-1.64.63-1.11 0-1.89-.69-1.86-1.66h4.27c0-1.85-1.23-2.7-2.55-2.7-1.55 0-2.69 1.17-2.69 2.63 0 1.42 1.08 2.59 2.82 2.59.74 0 1.55-.21 2.19-.93l-.54-.56Zm-1.76-2.88c.55 0 1.26.19 1.53 1.1h-3.18c.33-.87 1.06-1.1 1.65-1.1Zm7.707 2.88c-.5.43-1.04.63-1.64.63-1.11 0-1.89-.69-1.86-1.66h4.27c0-1.85-1.23-2.7-2.55-2.7-1.55 0-2.69 1.17-2.69 2.63 0 1.42 1.08 2.59 2.82 2.59.74 0 1.55-.21 2.19-.93l-.54-.56Zm-1.76-2.88c.55 0 1.26.19 1.53 1.1h-3.18c.33-.87 1.06-1.1 1.65-1.1Zm8.877 1.76c0-1.43-.98-2.61-2.48-2.61-.67 0-1.33.23-1.81.91V56h-.97v7.24h.97V60.2c.48.68 1.14.91 1.81.91 1.5 0 2.48-1.18 2.48-2.61Zm-4.31 0c.01-1.01.7-1.75 1.71-1.75 1.04 0 1.63.8 1.63 1.75s-.59 1.75-1.63 1.75c-1.01 0-1.7-.74-1.71-1.75Zm9.323-1.74h1.59V56h-1.59v-1.44h-.75l-.22 1.44h-.82v.76h.82v2.66c0 1.28.77 1.69 1.56 1.69.97 0 1.48-.56 1.48-1.27 0 0 0-.34-.09-.54h-.85c.07.15.08.34.08.41 0 .37-.3.55-.61.55-.33 0-.6-.22-.6-.77v-2.73Zm6.579 4.24h.97v-2.82c0-1.61-.84-2.29-1.92-2.29-.82 0-1.47.4-1.68 1.11v-3.23h-.97V61h.97v-2.32c0-1.58 1.09-1.93 1.61-1.93.53 0 1.02.37 1.02 1.43V61Zm3.425 0h-.97v-5h.97v5Zm-1.16-6.61c0 .38.29.67.67.67.38 0 .68-.29.68-.67 0-.38-.3-.68-.68-.68-.38 0-.67.3-.67.68Zm5.839 2.69c-.28-.9-.97-1.19-1.67-1.19-.99 0-1.65.64-1.65 1.49 0 .69.43 1.12 1.23 1.36l.67.23c.35.12.63.29.63.63 0 .39-.36.68-.86.68-.51 0-.96-.29-1.08-.69l-.86.21c.23.86 1.05 1.31 1.93 1.31.97 0 1.8-.55 1.8-1.5 0-.53-.25-1.12-1.2-1.41l-.72-.24c-.3-.1-.6-.27-.6-.6 0-.36.29-.64.74-.64.31 0 .62.1.78.55l.86-.19Zm4.641.42c0-1.54 1.18-2.71 2.61-2.71s2.61 1.17 2.61 2.71-1.18 2.71-2.61 2.71-2.61-1.17-2.61-2.71Zm3.24 3.55c1.7-.29 3-1.77 3-3.55 0-1.99-1.63-3.61-3.63-3.61s-3.63 1.62-3.63 3.61a3.61 3.61 0 0 0 3.29 3.59c.2.84.71 1.79 2.17 1.79.34 0 .9-.07 1.36-.43l-.36-.72c-.19.16-.67.32-.95.32-.75 0-1.12-.39-1.25-1Zm5.433-.05v-2.65h1.43c.07.85.58 2.76 2.22 2.76.45 0 .9-.15 1.23-.49l-.35-.68c-.19.18-.47.32-.82.32-.78 0-1.26-1.19-1.33-1.95 1.05-.2 1.65-1.07 1.65-2.11 0-1.18-.77-2.2-2.11-2.2h-2.92v7h1Zm0-3.45v-2.73h1.71c.79 0 1.28.56 1.28 1.37 0 .8-.48 1.36-1.28 1.36h-1.71Zm7.913 1.01c0 1.42 1.04 2.55 2.81 2.55.45 0 1.12-.11 1.79-.61l-.46-.66c-.53.4-1.16.41-1.29.41-1.08 0-1.88-.72-1.88-1.75s.8-1.75 1.88-1.75c.13 0 .76.01 1.29.41l.46-.66c-.67-.5-1.34-.61-1.79-.61-1.82 0-2.81 1.2-2.81 2.67Zm5.166-.06c0 1.45 1.18 2.61 2.62 2.61 1.45 0 2.63-1.17 2.63-2.61 0-1.43-1.18-2.61-2.63-2.61a2.62 2.62 0 0 0-2.62 2.61Zm.97.01c0-.97.74-1.76 1.65-1.76.92 0 1.66.79 1.66 1.76 0 .96-.74 1.74-1.66 1.74-.91 0-1.65-.78-1.65-1.74Zm5.075-.01c0 1.43.98 2.61 2.48 2.61.67 0 1.33-.23 1.81-.91v.8h.97v-7.23h-.97v3.03c-.48-.68-1.14-.91-1.81-.91-1.5 0-2.48 1.18-2.48 2.61Zm4.31 0c-.01 1.01-.7 1.75-1.71 1.75-1.04 0-1.63-.8-1.63-1.75s.59-1.75 1.63-1.75c1.01 0 1.7.74 1.71 1.75Zm6.576 1.12c-.5.43-1.04.63-1.64.63-1.11 0-1.89-.69-1.86-1.66h4.27c0-1.85-1.23-2.7-2.55-2.7-1.55 0-2.69 1.17-2.69 2.63 0 1.42 1.08 2.59 2.82 2.59.74 0 1.55-.21 2.19-.93l-.54-.56Zm-1.76-2.88c.55 0 1.26.19 1.53 1.1h-3.18c.33-.87 1.06-1.1 1.65-1.1Zm9.364.34c-.28-.9-.97-1.19-1.67-1.19-.99 0-1.65.64-1.65 1.49 0 .69.43 1.12 1.23 1.36l.67.23c.35.12.63.29.63.63 0 .39-.36.68-.86.68-.51 0-.96-.29-1.08-.69l-.86.21c.23.86 1.05 1.31 1.93 1.31.97 0 1.8-.55 1.8-1.5 0-.53-.25-1.12-1.2-1.41l-.72-.24c-.3-.1-.6-.27-.6-.6 0-.36.29-.64.74-.64.31 0 .62.1.78.55l.86-.19Zm5.394 2.54c-.5.43-1.04.63-1.64.63-1.11 0-1.89-.69-1.86-1.66h4.27c0-1.85-1.23-2.7-2.55-2.7-1.55 0-2.69 1.17-2.69 2.63 0 1.42 1.08 2.59 2.82 2.59.74 0 1.55-.21 2.19-.93l-.54-.56Zm-1.76-2.88c.55 0 1.26.19 1.53 1.1h-3.18c.33-.87 1.06-1.1 1.65-1.1Zm3.247 1.82c0 1.42 1.04 2.55 2.81 2.55.45 0 1.12-.11 1.79-.61l-.46-.66c-.53.4-1.16.41-1.29.41-1.08 0-1.88-.72-1.88-1.75s.8-1.75 1.88-1.75c.13 0 .76.01 1.29.41l.46-.66c-.67-.5-1.34-.61-1.79-.61-1.82 0-2.81 1.2-2.81 2.67Zm6.623-2.56h-.97v5h.97v-1.89c0-2.13.94-2.29 1.27-2.29.18 0 .37.04.53.13V56c-.14-.06-.28-.11-.46-.11-.62 0-1.17.45-1.34 1.24V56Zm6.675 3.62c-.5.43-1.04.63-1.64.63-1.11 0-1.89-.69-1.86-1.66h4.27c0-1.85-1.23-2.7-2.55-2.7-1.55 0-2.69 1.17-2.69 2.63 0 1.42 1.08 2.59 2.82 2.59.74 0 1.55-.21 2.19-.93l-.54-.56Zm-1.76-2.88c.55 0 1.26.19 1.53 1.1h-3.18c.33-.87 1.06-1.1 1.65-1.1Zm4.788.02h1.59V56h-1.59v-1.44h-.75l-.22 1.44h-.82v.76h.82v2.66c0 1.28.77 1.69 1.56 1.69.97 0 1.48-.56 1.48-1.27 0 0 0-.34-.09-.54h-.85c.07.15.08.34.08.41 0 .37-.3.55-.61.55-.33 0-.6-.22-.6-.77v-2.73ZM262.742 70h-.97v2.82c0 1.61.84 2.29 1.92 2.29.82 0 1.47-.4 1.68-1.11v1h.97v-5h-.97v2.32c0 1.58-1.09 1.93-1.61 1.93-.53 0-1.02-.37-1.02-1.43V70Zm8.735 5h.97v-2.82c0-1.61-.84-2.29-1.92-2.29-.82 0-1.47.4-1.68 1.11v-1h-.97v5h.97v-2.32c0-1.58 1.09-1.93 1.61-1.93.53 0 1.02.37 1.02 1.43V75Zm3.587-4.24h1.59V70h-1.59v-1.44h-.75l-.22 1.44h-.82v.76h.82v2.66c0 1.28.77 1.69 1.56 1.69.97 0 1.48-.56 1.48-1.27 0 0 0-.34-.09-.54h-.85c.07.15.08.34.08.41 0 .37-.3.55-.61.55-.33 0-.6-.22-.6-.77v-2.73Zm3.979 4.24h-.97v-5h.97v5Zm-1.16-6.61c0 .38.29.67.67.67.38 0 .68-.29.68-.67 0-.38-.3-.68-.68-.68-.38 0-.67.3-.67.68Zm3.729-.62h-.97V75h.97v-7.23Zm5.962 5.96-1.53-3.73h-1.11l2.11 4.83-.93 2.41h.94l3.07-7.24h-1.13l-1.42 3.73Zm2.931-1.23c0 1.45 1.18 2.61 2.62 2.61 1.45 0 2.63-1.17 2.63-2.61 0-1.43-1.18-2.61-2.63-2.61a2.62 2.62 0 0 0-2.62 2.61Zm.97.01c0-.97.74-1.76 1.65-1.76.92 0 1.66.79 1.66 1.76 0 .96-.74 1.74-1.66 1.74-.91 0-1.65-.78-1.65-1.74Zm6.326-2.51h-.97v2.82c0 1.61.84 2.29 1.92 2.29.82 0 1.47-.4 1.68-1.11v1h.97v-5h-.97v2.32c0 1.58-1.09 1.93-1.61 1.93-.53 0-1.02-.37-1.02-1.43V70Zm8.982.76h1.59V70h-1.59v-1.44h-.75l-.22 1.44h-.82v.76h.82v2.66c0 1.28.77 1.69 1.56 1.69.97 0 1.48-.56 1.48-1.27 0 0 0-.34-.09-.54h-.85c.07.15.08.34.08.41 0 .37-.3.55-.61.55-.33 0-.6-.22-.6-.77v-2.73Zm3.949-.76h-.97v5h.97v-1.89c0-2.13.94-2.29 1.27-2.29.18 0 .37.04.53.13V70c-.14-.06-.28-.11-.46-.11-.62 0-1.17.45-1.34 1.24V70Zm2.234 2.5c0 1.43.98 2.61 2.48 2.61.67 0 1.33-.23 1.81-.91v.8h.97v-5h-.97v.8c-.48-.68-1.14-.91-1.81-.91-1.5 0-2.48 1.18-2.48 2.61Zm4.31 0c-.01 1.01-.7 1.75-1.71 1.75-1.04 0-1.63-.8-1.63-1.75s.59-1.75 1.63-1.75c1.01 0 1.7.74 1.71 1.75Zm6.086 2.5h.97v-2.82c0-1.61-.84-2.29-1.92-2.29-.82 0-1.47.4-1.68 1.11v-1h-.97v5h.97v-2.32c0-1.58 1.09-1.93 1.61-1.93.53 0 1.02.37 1.02 1.43V75Zm5.545-3.92c-.28-.9-.97-1.19-1.67-1.19-.99 0-1.65.64-1.65 1.49 0 .69.43 1.12 1.23 1.36l.67.23c.35.12.63.29.63.63 0 .39-.36.68-.86.68-.51 0-.96-.29-1.08-.69l-.86.21c.23.86 1.05 1.31 1.93 1.31.97 0 1.8-.55 1.8-1.5 0-.53-.25-1.12-1.2-1.41l-.72-.24c-.3-.1-.6-.27-.6-.6 0-.36.29-.64.74-.64.31 0 .62.1.78.55l.86-.19Zm2.624-1.59c0-.75.34-.97.67-.97.31 0 .62.11.62.51 0 .07-.01.1-.02.17h.83c.05-.14.05-.27.05-.27 0-.71-.52-1.26-1.49-1.26-.79 0-1.66.34-1.66 1.95V70h-.79v.76h.79V75h1v-4.24h1.31V70h-1.31v-.51Zm6.237 4.13c-.5.43-1.04.63-1.64.63-1.11 0-1.89-.69-1.86-1.66h4.27c0-1.85-1.23-2.7-2.55-2.7-1.55 0-2.69 1.17-2.69 2.63 0 1.42 1.08 2.59 2.82 2.59.74 0 1.55-.21 2.19-.93l-.54-.56Zm-1.76-2.88c.55 0 1.26.19 1.53 1.1h-3.18c.33-.87 1.06-1.1 1.65-1.1Zm4.587-.74h-.97v5h.97v-1.89c0-2.13.94-2.29 1.27-2.29.18 0 .37.04.53.13V70c-.14-.06-.28-.11-.46-.11-.62 0-1.17.45-1.34 1.24V70Zm6.285.76h1.59V70h-1.59v-1.44h-.75l-.22 1.44h-.82v.76h.82v2.66c0 1.28.77 1.69 1.56 1.69.97 0 1.48-.56 1.48-1.27 0 0 0-.34-.09-.54h-.85c.07.15.08.34.08.41 0 .37-.3.55-.61.55-.33 0-.6-.22-.6-.77v-2.73Zm6.58 4.24h.97v-2.82c0-1.61-.84-2.29-1.92-2.29-.82 0-1.47.4-1.68 1.11v-3.23h-.97V75h.97v-2.32c0-1.58 1.09-1.93 1.61-1.93.53 0 1.02.37 1.02 1.43V75Zm6.515-1.38c-.5.43-1.04.63-1.64.63-1.11 0-1.89-.69-1.86-1.66h4.27c0-1.85-1.23-2.7-2.55-2.7-1.55 0-2.69 1.17-2.69 2.63 0 1.42 1.08 2.59 2.82 2.59.74 0 1.55-.21 2.19-.93l-.54-.56Zm-1.76-2.88c.55 0 1.26.19 1.53 1.1h-3.18c.33-.87 1.06-1.1 1.65-1.1Zm7.574-1.25c0-.75.34-.97.67-.97.31 0 .62.11.62.51 0 .07-.01.1-.02.17h.83c.05-.14.05-.27.05-.27 0-.71-.52-1.26-1.49-1.26-.79 0-1.66.34-1.66 1.95V70h-.79v.76h.79V75h1v-4.24h1.31V70h-1.31v-.51Zm3.291.51h-.97v2.82c0 1.61.84 2.29 1.92 2.29.82 0 1.47-.4 1.68-1.11v1h.97v-5h-.97v2.32c0 1.58-1.09 1.93-1.61 1.93-.53 0-1.02-.37-1.02-1.43V70Zm8.735 5h.97v-2.82c0-1.61-.84-2.29-1.92-2.29-.82 0-1.47.4-1.68 1.11v-1h-.97v5h.97v-2.32c0-1.58 1.09-1.93 1.61-1.93.53 0 1.02.37 1.02 1.43V75Zm2.075-2.5c0 1.43.98 2.61 2.48 2.61.67 0 1.33-.23 1.81-.91v.8h.97v-7.23h-.97v3.03c-.48-.68-1.14-.91-1.81-.91-1.5 0-2.48 1.18-2.48 2.61Zm4.31 0c-.01 1.01-.7 1.75-1.71 1.75-1.04 0-1.63-.8-1.63-1.75s.59-1.75 1.63-1.75c1.01 0 1.7.74 1.71 1.75Zm5.596-1.42c-.28-.9-.97-1.19-1.67-1.19-.99 0-1.65.64-1.65 1.49 0 .69.43 1.12 1.23 1.36l.67.23c.35.12.63.29.63.63 0 .39-.36.68-.86.68-.51 0-.96-.29-1.08-.69l-.86.21c.23.86 1.05 1.31 1.93 1.31.97 0 1.8-.55 1.8-1.5 0-.53-.25-1.12-1.2-1.41l-.72-.24c-.3-.1-.6-.27-.6-.6 0-.36.29-.64.74-.64.31 0 .62.1.78.55l.86-.19Zm1.094 3.3c0 .41.32.73.73.73s.74-.32.74-.73-.33-.74-.74-.74a.73.73 0 0 0-.73.74Z" fill="#fff"/>
  <g clip-path="url(#a)">
    <path fill-rule="evenodd" clip-rule="evenodd" d="M368.35 110.32c1.55-3.25-.08-6.47-1.94-8.74-1.97-2.39-4.84-4.59-7.65-6.32a36.463 36.463 0 0 0-8.02-3.8c-1.02-.3-2.3-.59-3.4-.4a3.1 3.1 0 0 0-2.19 1.43 3.132 3.132 0 0 0-.2 2.67c.55 1.58 1.82 2.73 2.88 3.53.51.38 1.06.74 1.6 1.08a95.792 95.792 0 0 0-22.6-1c-29.57 2.06-53.68 27.93-57.05 54.89-3.34.2-6.6 1.28-9.18 3.66-3.95 3.63-4.93 8.93-4.51 13.85a31.3 31.3 0 0 0 4.63 13.65c3.64 5.69 9.74 10.17 15.85 12.25 3.23 6.46 10.06 12.67 18.58 17.3a67.72 67.72 0 0 0 31.85 8.24c11.6 0 22.82-3.33 31.85-8.24 8.52-4.63 15.35-10.84 18.58-17.3 6.11-2.08 12.21-6.56 15.85-12.25a31.3 31.3 0 0 0 4.63-13.65c.42-4.92-.56-10.22-4.5-13.84a14.577 14.577 0 0 0-9.04-3.66c-1.1-12.68-5.7-22.75-12.73-30.56a54.566 54.566 0 0 0-10.9-9.23c.52-.03 1.02-.07 1.47-.13 4.02-.52 5.6-2.28 6.14-3.43Z" fill="#fff"/>
    <path d="M306.37 125.83h1.34v1.34h-1.34v-1.34Zm9.38 8.04h5.36v1.34h-5.36v-1.34Zm-22.78 2.68h2.68v2.68h-2.68v-2.68Zm14.73-4.02h2.69v4.02h-2.69v-4.02Zm-8.03 4.02h2.68v2.68h-2.68v-2.68Zm-4.02-2.68h2.68v2.68h-2.68v-2.68Zm-5.35 9.38h2.67v5.35h-2.67v-5.35Zm20.09-18.75h5.36v1.33h-5.36v-1.34.01Zm-1.34 5.35h1.34v1.34h-1.34v-1.34Zm2.68 1.34h1.34v1.34h-1.34v-1.34Zm1.34 1.34h1.34v1.34h-1.34v-1.34ZM317.09 132.53h1.34v1.34h-1.34v-1.34Zm-5.36 1.34h1.34v1.34h-1.34v-1.34Z" fill="#000"/>
    <path d="M310.39 135.2h1.34v1.35h-1.34v-1.35Zm-2.69 1.35h1.35v1.34h-1.35v-1.34Zm-1.33-5.36h1.34v2.68h-1.34v-2.68Zm-4.02-2.68h1.34v2.68h-1.34v-2.69.01Zm6.7 9.38h1.34v1.34h-1.34v-1.34Zm5.35 0h1.35v1.34h-1.35v-1.34Zm1.35-1.34h1.34v1.34h-1.34v-1.34Zm2.68 0h1.34v1.34h-1.34v-1.34Zm6.69-4.02h1.34v1.34h-1.34v-1.34Zm1.34-1.34h1.34v1.34h-1.34v-1.34Zm-2.68 6.7h1.34v1.34h-1.34v-1.34Zm-21.43-2.69h1.34v1.35h-1.34v-1.35Zm-5.35-2.67h1.33v1.34H297v-1.34Zm1.33 2.67h1.34v1.35h-1.34v-1.35Zm2.68-2.67h2.68v1.34h-2.68v-1.34Z" fill="#000"/>
    <path d="M299.67 133.87h6.7v1.34h-6.7v-1.34Zm22.78 0h1.33v1.34h-1.33v-1.34ZM297 137.89h1.33v1.34H297v-1.34Zm-5.37 2.68h1.34v1.34h-1.34v-1.34Zm10.72-2.68h1.34v1.34h-1.34v-1.34Zm4.02-9.38h1.34v1.34h-1.34v-1.35.01Zm-20.09 25.45h2.67v1.34h-2.67v-1.34Zm1.34-2.68h5.35v1.34h-5.35v-1.34Zm1.33-1.34h4.02v1.34h-4.02v-1.34Z" fill="#000"/>
    <path d="M288.95 148.6h1.34v1.34h-1.34v-1.34Zm1.35 5.36h1.33v1.34h-1.33v-1.34Zm-1.35-9.37h1.34v1.34h-1.34v-1.34Zm1.35-2.69h1.33v1.35h-1.33v-1.35Zm-4.03 10.72h1.34v1.34h-1.34v-1.34Zm22.78-26.79h2.68v1.34h-2.68v-1.34Zm-1.35 1.34h2.69v1.34h-2.69v-1.34Zm-8.03 4.02h2.68v1.34h-2.68v-1.34Zm16.08 0h2.68v1.34h-2.68v-1.34Zm-5.36-2.68h2.68v1.34h-2.68v-1.35.01Zm6.7-2.68h2.68v1.34h-2.68v-1.34Zm6.69 4.02h2.68v1.34h-2.68v-1.34Zm0 5.35h2.68v1.35h-2.68v-1.35Z" fill="#000"/>
    <path d="M322.45 131.19h2.67v1.34h-2.67v-1.34Zm-2.68-2.68h4.01v1.34h-4.01v-1.35.01Zm-4.02-2.68v2.68h-1.35v-2.68h1.35Z" fill="#000"/>
    <path d="M314.4 127.17v2.68h-1.33v-2.68h1.34-.01Zm5.37 1.34v2.68h-1.34v-2.69h1.34v.01Zm2.68 6.69v4.03h-1.35v-4.03h1.35Zm4.01 2.69v1.34h-1.33v-1.34h1.33Zm-4.01-8.04v4.02h-1.35v-4.02h1.35Zm-6.7 4.02v2.68h-1.35v-2.68h1.35Zm-2.68 2.68v2.68h-1.34v-2.68h1.34Zm-6.7 1.34v1.34h-1.34v-1.34h1.34Zm20.09-5.36h2.68v2.68h-2.68v-2.68Zm9.38 0h8.04v1.34h-8.04v-1.34Zm-2.68 2.67h9.38v1.35h-9.38v-1.35Zm-4.02 2.69h4.02v1.34h-4.02v-1.34Zm17.42-1.34h4.02v2.68h-4.02v-2.68Zm8.04 0h2.68v2.68h-2.68v-2.68Zm-4.02-2.68h2.68v2.68h-2.68v-2.68Zm13.39 13.39h2.68v4.02h-2.68v-4.02Zm-13.39-20.09h1.34v5.36h-1.34v-5.36Zm6.7 8.03h1.33v1.35h-1.33v-1.35Z" fill="#000"/>
    <path d="M351.92 132.53h1.34v1.34h-1.34v-1.34Zm1.34 2.67h1.34v1.35h-1.34v-1.35Zm2.68-2.67h1.34v1.34h-1.34v-1.34ZM354.6 133.87h4.02v1.34h-4.02v-1.34Zm-2.68 4.02h2.68v1.34h-2.68v-1.34Zm-6.7-5.36h2.68v1.34h-2.68v-1.34Zm1.34-1.34h1.34v1.34h-1.34v-1.34Zm10.72 6.7h1.33v1.34h-1.33v-1.34Zm-24.12-1.34h2.68v1.34h-2.68v-1.34Zm1.34-2.68h2.68v1.34h-2.68v-1.34Zm4.02 0h2.68v1.34h-2.68v-1.34ZM342.54 133.87h4.02v1.34h-4.02v-1.34Z" fill="#000"/>
    <path d="M345.22 135.2h4.02v1.35h-4.02v-1.35Zm-8.04 2.69h1.34v1.34h-1.34v-1.34Zm-6.7-2.69h1.34v1.35h-1.34v-1.35Zm21.44-5.35h1.34v1.34h-1.34v-1.34Zm12.05 22.77h2.68v1.34h-2.68v-1.34Zm-2.67 1.34h2.67v1.34h-2.67v-1.34ZM365.31 153.96h1.34v1.34h-1.34v-1.34Zm-2.68-8.03h1.34v1.33h-1.34v-1.33Zm-1.33 5.35h1.34v1.34h-1.34v-1.34Zm4.01 0H368v1.34h-2.68v-1.34h-.01Zm-2.68-2.68h1.34v2.68h-1.34v-2.68Zm-1.33-2.67h1.33v4.01h-1.33v-4.01Zm-21.44-8.04h2.68v1.34h-2.68v-1.34Zm-9.38-8.04h2.68v1.34h-2.68v-1.34Zm5.36 0h2.68v1.34h-2.68v-1.34Zm5.36 0h4.02v1.34h-4.02v-1.34Zm1.34-1.34h2.68v1.34h-2.68v-1.35.01Zm-6.7-1.34h2.68v1.34h-2.68v-1.34Zm0-1.34h1.34v1.34h-1.34v-1.34Zm5.36-1.33h4.02v1.33h-4.02v-1.34.01Zm0 2.67v2.68h-1.34v-2.68h1.34Z" fill="#000"/>
    <path d="M346.56 125.83v4.02h-1.34v-4.02h1.34Zm-8.04 0h5.36v1.34h-5.36v-1.34Zm16.08 5.36h1.34v1.34h-1.34v-1.34Zm8.04 12.06h1.33v1.34h-1.33v-1.34Zm0-4.02v5.36h-1.34v-5.36h1.34Zm-32.16-6.7v2.68h-1.34v-2.68h1.34Zm30.82 5.36v1.34h-1.34v-1.34h1.34Zm-69.67 18.75h1.34v1.34h-1.34v-1.34Zm-5.36-1.34h2.68v1.34h-2.68v-1.34Zm5.36 0h1.34v1.34h-1.34v-1.34Zm0 14.74h1.34v4.02h-1.34v-4.02Zm-1.33 6.7h2.67v5.36h-2.67v-5.36Zm0-10.72h2.67v1.34h-2.67v-1.34Z" fill="#000"/>
    <path d="M291.63 164.68h1.34v1.34h-1.34v-1.34Zm-5.36 16.08h1.34v1.34h-1.34v-1.34Zm-2.67 0h1.34v1.34h-1.34v-1.34Zm-2.68 2.67h1.34v1.34h-1.34v-1.34Zm5.35-4.01h2.68v1.34h-2.68v-1.34Zm1.34-12.06h4.02v1.34h-4.02v-1.34Zm2.69 1.34h2.67v1.34h-2.67v-1.34Zm-5.36 18.75h4.01v1.34h-4.01v-1.34Zm-2.68-2.68h10.71v1.34h-10.71v-1.34Z" fill="#000"/>
    <path d="M288.95 183.43h4.02v1.34h-4.02v-1.34Zm-9.37 4.02h4.02v1.34h-4.02v-1.34Zm0-1.34h2.68v1.34h-2.68v-1.34Zm6.69-2.68h1.34v1.34h-1.34v-1.34Z" fill="#000"/>
    <path d="M288.95 182.1h1.34v1.34h-1.34v-1.34Zm1.35 5.35h1.33v1.34h-1.33v-1.34Zm-2.68-9.37h2.67v1.34h-2.67v-1.34Zm-6.7 4.02h5.35v1.34h-5.35v-1.34Zm2.68 4.01h1.34v1.34h-1.34v-1.34Zm2.67 0h1.34v1.34h-1.34v-1.34Zm0-22.77h4.02v1.34h-4.02v-1.34Zm1.34-1.34h2.68v1.34h-2.68V162Zm4.02-4.02h1.34v1.34h-1.34v-1.34Zm-5.36 0h4.02v1.34h-4.02v-1.34ZM291.63 159.32v4.02h-1.33v-4.02h1.34-.01Zm-5.35 0h2.67v1.34h-2.67v-1.34Zm-6.7 29.48h5.36v1.33h-5.36v-1.33Zm1.34 1.33h1.34v1.34h-1.34v-1.34Zm10.71 0h1.34v1.34h-1.34v-1.34Zm-5.36-1.33h2.68v1.33h-2.68v-1.33Zm5.36 0h1.34v1.33h-1.34v-1.33Zm-8.03 10.71h5.35v1.34h-5.35v-1.34Zm8.03 4.02h1.61v4.02h-1.6v-4.02h-.01Zm9.38 5.36h2.68v2.68h-2.68v-2.68Zm-2.68-1.34h2.68v1.34h-2.68v-1.34Zm21.44 4.02h2.68v4.02h-2.68v-4.02Zm-16.08-4.02h1.34v1.34h-1.34v-1.34Zm13.4 2.68h1.34v1.34h-1.34v-1.34Zm-26.79-10.72h2.67v1.34h-2.67v-1.34Zm1.33-1.34h1.34v1.34h-1.34v-1.34Zm1.34 9.38H297v1.34h-4.02v-1.34h-.01Z" fill="#000"/>
    <path d="M291.63 207.55h1.34v1.34h-1.34v-1.34Zm5.37 1.34h1.33v1.34H297v-1.34Zm2.67 0h1.34v1.34h-1.34v-1.34Zm1.34 2.68h1.34v1.34h-1.34v-1.34Zm-2.68-1.34h1.34v1.34h-1.34v-1.34Zm-8.03-4.03h1.33v1.35h-1.33v-1.35Zm-5.36-5.35h1.34v1.34h-1.34v-1.34Zm2.67 0h4.02v1.34h-4.02v-1.34Zm2.69 1.34h2.67v1.34h-2.67v-1.34Zm37.5 9.38h1.34v1.34h-1.34v-1.34Zm0 5.36h1.34v1.34h-1.34v-1.34Zm-16.07-1.34h2.68v1.34h-2.68v-1.34Zm13.39 0h1.34v1.34h-1.34v-1.34Zm-8.03 0h1.34v1.34h-1.34v-1.34Zm4.01 0h1.35v1.34h-1.35v-1.34Zm1.35-4.02h1.33v1.34h-1.33v-1.34Zm-6.7 2.68h1.34v1.34h-1.34v-1.34Zm-8.05-1.35h1.35v1.35h-1.35v-1.35Zm-4.01-1.33h2.68v1.34h-2.68v-1.34Z" fill="#000"/>
    <path d="M303.7 212.9h1.33v1.35h-1.33v-1.35Zm14.73 4.03h6.7v1.34h-6.7v-1.34Zm-5.36-6.7h1.34v1.34h-1.34v-1.34Zm-2.68 2.67h1.34v1.35h-1.34v-1.35Z" fill="#000"/>
    <path d="M311.73 211.57h1.34v2.68h-1.34v-2.68Zm-5.36 1.33h1.34v1.35h-1.34v-1.35Zm9.38-4.01h1.34v1.34h-1.34v-1.34Zm-33.49-12.06h1.34v1.34h-1.34v-1.34Zm4.01 0h4.02v1.34h-4.02v-1.34Zm1.34-1.33h2.68v1.33h-2.68v-1.34.01Zm4.02-4.03h1.34v1.34h-1.34v-1.34Zm-10.71 2.68h2.68v1.34h-2.68v-1.34Zm-1.34-1.34h2.68v1.34h-2.68v-1.34Zm6.69-1.34h4.02v1.34h-4.02v-1.34Zm0 2.68v2.68h-1.33v-2.68h1.33Zm5.36-1.34v4.02h-1.33v-4.02h1.34-.01Zm-12.05-1.34h5.36v1.34h-5.36v-1.34Zm4.02 1.34h5.35v1.34h-5.35v-1.34Zm42.86 21.44h2.68v1.34h-2.68v-1.34Zm-2.68-4.02h2.68v1.34h-2.68v-1.34Zm-4.01-1.34h5.35v1.34h-5.35v-1.34Zm-2.68-1.34h4.02v1.34h-4.02v-1.34Zm-2.69 4.02h4.03v1.34h-4.03v-1.34Zm-1.33-4.02h2.68v1.34h-2.68v-1.34Zm-5.37 0h4.03v1.34h-4.03v-1.34ZM307.7 210.23h4.03v1.34h-4.03v-1.34Zm17.42 2.67v2.69h-1.34v-2.68h1.34v-.01Z" fill="#000"/>
    <path d="M307.7 208.89v2.68h-1.33v-2.68h1.34-.01Zm12.07 2.68v2.68h-1.34v-2.68h1.34Zm8.03-2.68v2.68h-1.34v-2.68h1.34Zm-1.34-1.34v1.34h-1.33v-1.34h1.33Zm34.84-50.91h1.34v1.34h-1.34v-1.34Zm5.35 0h2.68v1.34h-2.68v-1.34Zm-5.35-1.34h6.7v1.34h-6.7v-1.34Zm1.33 10.72h2.68v4.02h-2.68v-4.02Zm1.34 14.74h2.68v4.01h-2.68v-4.01Zm1.34-22.78H368v1.34h-2.68v-1.34h-.01Zm-1.34 5.36h1.34v1.34h-1.34v-1.34Zm2.68 1.34H368v1.34h-1.34v-1.34h-.01Zm1.35 1.34h1.33v1.34H368v-1.34Zm-1.35 1.34H368v1.34h-1.34v-1.34h-.01Zm-1.34 1.34h1.34v1.34h-1.34v-1.34Zm-2.68 1.34h1.34v1.34h-1.34v-1.34Zm-1.33-5.36h1.33v2.68h-1.33v-2.68Zm2.67 6.7h1.34v1.34h-1.34v-1.34Zm-1.34-13.4h1.34v1.34h-1.34v-1.34ZM361.3 162h1.33v1.34h-1.33V162Zm10.71 24.11h1.34v1.34h-1.34v-1.34Zm1.34-1.34h1.34v1.34h-1.34v-1.34Zm-5.35-1.34h4v1.34h-4v-1.34Z" fill="#000"/>
    <path d="M366.65 182.1h2.68v1.34h-2.68v-1.34Zm-2.68 4.01h2.68v1.34h-2.68v-1.34Zm-2.67 1.34h2.67v1.34h-2.67v-1.34Zm10.71-5.35h1.34v1.34h-1.34v-1.34Zm-1.34-1.34h1.34v1.34h-1.34v-1.34Zm-5.36 6.69h1.34v1.34h-1.34v-1.34Zm2.69 0h1.33v1.34H368v-1.34Zm-5.37-8.03h1.34v1.34h-1.34v-1.34Zm-1.33 5.35h1.34v1.34h-1.34v-1.34Zm4.01 0h5.36v1.34h-5.36v-1.34Zm6.7 2.68h2.68v1.34h-2.68v-1.34Zm-6.7-8.03h1.34v1.34h-1.34v-1.34Zm1.34 0H368v1.34h-1.34v-1.34h-.01Zm-4.02 2.68h1.34v2.67h-1.34v-2.67Zm-1.33-2.68h1.33v4.02h-1.33v-4.02Zm2.67-20.1h2.68v1.34h-2.68v-1.34Zm-1.34 1.34h2.68V162h-2.68v-1.34Zm2.68 1.34H368v1.34h-2.68V162h-.01Zm-4.01 10.72h2.67v1.34h-2.67v-1.34Zm1.33 2.68v2.68h-1.33v-2.68h1.33Zm-1.33 14.73h1.34v1.34h-1.34v-1.34Zm5.35 0h2.68v1.34h-2.68v-1.34Zm4.02 0h4.02v1.34h-4.02v-1.34Zm-9.37-1.33h9.37v1.33h-9.38v-1.33h.01Zm1.33 10.71h2.68v4.02h-2.68v-4.02Zm-9.37 8.04h2.68v1.34h-2.68v-1.34Zm-8.04 2.68h2.68v5.36h-2.68v-5.36Zm20.09-18.76h5.36v1.34h-5.36v-1.34Zm6.7 0h2.68v1.34h-2.68v-1.34Zm-8.04 5.36h1.34v1.34h-1.34v-1.34Zm2.68 1.34H368v1.34h-1.34v-1.34h-.01Zm1.35 1.34h1.33v1.34H368v-1.34Zm-1.35 1.34H368v1.34h-1.34v-1.34h-.01Zm-1.34 1.34h1.34v1.34h-1.34v-1.34Zm-2.68 1.34h1.34v1.34h-1.34v-1.34Zm-1.33-5.36h1.33v2.68h-1.33v-2.68Zm2.67 6.7h1.34v1.34h-1.34v-1.34Zm-5.35 2.68h2.67v1.34h-2.67v-1.34Zm-8.04 0h1.34v1.34h-1.34v-1.34Zm-4.02 0h1.34v1.34h-1.34v-1.34Zm1.34 5.35h1.34v1.35h-1.34v-1.35Zm4.02-4.01h1.34v1.34h-1.34v-1.34Zm2.68 0h4.02v1.34h-4.02v-1.34Zm-1.34 1.34h1.34v1.34h-1.34v-1.34Zm-2.68 1.34h1.34v1.34h-1.34v-1.34Zm-9.38 2.68h1.34v1.34h-1.34v-1.34Zm-2.68 0h1.34v1.34h-1.34v-1.34Zm-2.68 0h1.34v1.34h-1.34v-1.34Zm0 2.68h1.34v1.34h-1.34v-1.34Zm5.36-6.7h1.34v1.34h-1.34v-1.34Zm-2.68-1.34h1.34v2.68h-1.34v-2.68Zm1.34-1.34h1.34v1.34h-1.34v-1.34Zm-5.36 0h1.34v2.68h-1.34v-2.68Zm-2.68 0h1.34v1.34h-1.34v-1.34Zm-2.68 0h1.34v1.34h-1.34v-1.34Zm12.06 5.35h2.68v1.35h-2.68v-1.35Zm2.68-5.35h1.34v1.34h-1.34v-1.34Zm-10.72 0h1.34v1.34h-1.34v-1.34Zm2.68 1.34h1.34v1.34h-1.34v-1.34Zm1.34-1.34h1.34v1.34h-1.34v-1.34Zm25.45-16.08h1.34v1.34h-1.34v-1.34Zm-1.33 4.03h1.33v1.33h-1.33v-1.34.01Zm-32.16 14.73h1.34v1.34h-1.34v-1.34Z" fill="#000"/>
    <path d="M347.9 210.23h2.68v1.34h-2.68v-1.34Zm-9.38 1.34h6.7v1.34h-6.7v-1.34Zm-2.68 4.02h5.36v1.34h-5.36v-1.34Zm5.36-6.7h5.36v1.34h-5.36v-1.34ZM337.18 212.9h1.34v1.35h-1.34v-1.35Zm0-2.67h1.34v1.34h-1.34v-1.34Zm26.79-17.42h2.68v1.34h-2.68v-1.34Zm-1.34 1.34h2.68v1.34h-2.68v-1.34Zm8.04 4.02h1.34v1.34h-1.34v-1.34Zm-5.36-2.67H368v1.33h-2.68v-1.34l-.01.01Zm6.7-2.69h2.68v1.34h-2.68v-1.34ZM361.3 206.2h2.67v1.35h-2.67v-1.35Zm-29.48 5.37v2.68h-1.34v-2.68h1.34Zm1.34-1.34v2.68h-1.34v-2.68h1.34Zm2.68 1.34v2.68h-1.34v-2.68h1.34Zm-1.34 2.68v2.68h-2.68v-2.68h2.68Zm36.17-21.44v2.68h-1.34v-2.68h1.34Z" fill="#000"/>
    <path d="M369.33 194.15v2.68H368v-2.68h1.34-.01Z" fill="#000"/>
    <path fill-rule="evenodd" clip-rule="evenodd" d="M289.3 175.31c-7.57 2.64-11.62 6.7-12.62 11.5-1.05 5.01 1.3 10.5 5.72 15.52 8.83 10.01 26.4 18.67 44.87 18.67 18.46 0 36.04-8.65 44.87-18.67 4.41-5.01 6.76-10.51 5.72-15.52-1-4.8-5.05-8.86-12.62-11.5 7.98-8.66 6.79-21.66 1.69-32.45a45.646 45.646 0 0 0-10.58-14.42c-4.17-3.7-8.85-6.07-13.36-6.07-6.93 0-10.96 2.96-15.07 5.99l-.16.11-.5.37-.49-.37-.15-.11c-4.12-3.03-8.14-6-15.07-6-4.52 0-9.2 2.39-13.37 6.08a45.616 45.616 0 0 0-10.57 14.42c-5.1 10.79-6.3 23.79 1.69 32.45Zm2.2 2.66a2.41 2.41 0 0 0 .94-4.04c-7.49-7.2-6.99-18.99-1.93-29.7 2.5-5.26 5.99-10 9.8-13.38 3.87-3.43 7.82-5.27 11.24-5.27 5.87 0 9.15 2.42 13.32 5.48l.98.72c.84.62 2 .62 2.84 0l.98-.72c4.16-3.06 7.45-5.48 13.32-5.48 3.42 0 7.37 1.84 11.23 5.27a42.422 42.422 0 0 1 9.8 13.39c5.06 10.7 5.56 22.49-1.93 29.7a2.412 2.412 0 0 0 .95 4.03c7.82 2.45 10.95 6.06 11.67 9.5.75 3.57-.86 8.05-4.98 12.73-8.2 9.3-24.87 17.59-42.46 17.59-17.6 0-34.27-8.3-42.46-17.59-4.12-4.68-5.73-9.16-4.98-12.74.71-3.43 3.84-7.04 11.66-9.49h.01Z" fill="#fff"/>
    <path fill-rule="evenodd" clip-rule="evenodd" d="M277.99 195.75c-6-1.86-12.1-6.24-15.65-11.8a29.701 29.701 0 0 1-4.38-12.91c-.4-4.66.56-9.38 4-12.53 2.58-2.37 5.98-3.32 9.53-3.27 2.61-26.75 26.49-52.82 55.71-54.87a93.072 93.072 0 0 1 22.87 1.09c1.25.19 2.27.35 3.12.43.65.06 1.15.07 1.52.03.48-.05.9-.19.47-.6a14.198 14.198 0 0 0-2.53-1.68c-1.1-.63-2.38-1.35-3.46-2.14-1.06-.77-2.07-1.72-2.47-2.87-.13-.38-.2-.87.07-1.31a1.498 1.498 0 0 1 1.08-.68c.7-.11 1.66.06 2.67.37 2.08.62 4.9 1.94 7.64 3.62 2.73 1.68 5.44 3.78 7.24 5.97 1.77 2.16 2.86 4.68 1.74 7.04-.28.58-1.34 2.06-4.9 2.52-1.92.24-4.57.2-8.27-.44 6.86 3.45 12.91 7.92 17.7 13.6 6.48 7.67 10.63 17.5 11.44 29.91 3.52-.02 6.88.93 9.44 3.28 3.43 3.15 4.4 7.87 4 12.53a29.701 29.701 0 0 1-4.38 12.91 29.779 29.779 0 0 1-15.65 11.8 27.565 27.565 0 0 1-4.41 6.58C363.3 212.34 345.74 221 327.27 221s-36.04-8.65-44.87-18.67a27.545 27.545 0 0 1-4.41-6.58Zm70.96-100.58c-.39-.41-.06-.93.49-.8.2.05.41.1.65.18 1.9.57 4.6 1.81 7.25 3.45 2.66 1.64 5.2 3.62 6.85 5.62 1.67 2.04 2.23 3.85 1.53 5.32-.02.04-.57 1.23-3.66 1.62-3.16.4-8.9-.04-19.17-3.37l-.07-.02a.8.8 0 0 0-.5 1.52l.07.03c11.26 3.66 21.08 9.34 28.09 17.64 7 8.3 11.24 19.27 11.2 33.6-.02 6.79-1.94 14.8-5.65 22.6-2.03-2.94-5.58-5.43-10.8-7.25 8-8.67 6.8-21.67 1.7-32.45a45.646 45.646 0 0 0-10.58-14.42c-4.16-3.7-8.85-6.07-13.36-6.07-6.96 0-11.03 3-15.17 6.06l-.55.4-.56-.4c-4.13-3.05-8.2-6.06-15.16-6.06-4.52 0-9.2 2.38-13.37 6.07a45.616 45.616 0 0 0-10.57 14.42c-5.1 10.78-6.3 23.78 1.69 32.45-5.22 1.82-8.77 4.32-10.8 7.27-3.7-7.77-5.66-15.75-5.64-22.62.07-27.52 24.39-55.87 54.46-58 9.06-.63 15.65.08 20.23.74 2.26.33 4.12.66 5.5.79 1.36.13 4.25.08 4-2.03-.06-.54-.4-.98-.73-1.3-.9-.87-2.06-1.46-3.14-2.07-1.02-.6-2.07-1.18-3.03-1.88a8.61 8.61 0 0 1-1.2-1.04Zm-71.42 89.09c-4.1-8.24-6.3-16.85-6.28-24.3 0-1.04.04-2.08.1-3.12-3.2-.02-6.13.86-8.3 2.86-2.93 2.68-3.86 6.8-3.49 11.2a28.1 28.1 0 0 0 4.13 12.2c3.1 4.83 8.28 8.75 13.52 10.7-.78-2.37-1-4.72-.53-6.98.18-.88.46-1.73.85-2.55v-.01Zm99.8 9.53c5.23-1.95 10.42-5.87 13.51-10.7a28.103 28.103 0 0 0 4.13-12.19c.38-4.4-.56-8.52-3.47-11.2-2.17-2-5.08-2.87-8.27-2.86.04 1.02.06 2.06.06 3.12-.03 7.36-2.18 16-6.3 24.29.4.82.68 1.68.87 2.56.47 2.26.25 4.61-.53 6.98Zm-86-18.7c-8.24-7.92-7.44-20.6-2.27-31.54a44.034 44.034 0 0 1 10.2-13.9c4-3.56 8.32-5.67 12.29-5.67 6.41 0 10.09 2.7 14.24 5.76l1 .74c.29.2.67.2.95 0l1-.74c4.15-3.05 7.83-5.76 14.25-5.76 3.97 0 8.28 2.1 12.3 5.67a43.989 43.989 0 0 1 10.19 13.9c5.17 10.94 5.97 23.62-2.27 31.54a.793.793 0 0 0-.234.764.801.801 0 0 0 .544.586c8.1 2.53 11.88 6.45 12.76 10.7.9 4.29-1.08 9.28-5.35 14.12-8.5 9.66-25.63 18.14-43.66 18.14-18.03 0-35.16-8.48-43.67-18.14-4.26-4.84-6.24-9.83-5.35-14.13.89-4.24 4.67-8.16 12.76-10.69a.804.804 0 0 0 .551-.582.8.8 0 0 0-.231-.768Z" fill="#000"/>
  </g>
  <defs>
    <clipPath id="a">
      <path fill="#fff" transform="translate(256 91)" d="M0 0h142v132H0z"/>
    </clipPath>
  </defs>
</svg>
