<svg xmlns="http://www.w3.org/2000/svg" viewBox="0 0 500 500"><style><![CDATA[.B{fill:#fff}.C{fill:#FC0D1B}.D{fill:#D4D22C}.E{fill:#9D9C1E}.F{fill:#FFFD38}]]></style><circle cx="250" cy="250" r="250" fill="#fbdd11"/><path class="B" d="M335 396.9v9.5h-38.4v-9.5H287v-9.6h38.4v9.6z"/><path d="M344.6 387.3V416h-48v-9.6H335v-9.5h-9.6v-9.6zM383 166.6v9.6h9.6v9.6h19.2v9.6H383v9.6h-19.2v9.6h-19.2v9.5H335v9.6h-19.2v38.4h-9.6v28.8h-9.6v19.2H287v28.8h9.6v28.8h28.8v9.6H287v9.6h9.6v9.5h-19.1v-28.7h9.5v-19.2h-9.5v-19.2h-28.8v19.2h-9.6v19.2h9.6v28.8h-19.2v-9.6h9.6v-9.6h-38.4v-9.6h28.8v-28.8h9.6v-19.2h-9.6v-96h-19.2v-9.6h-19.2v-9.5h-19.2V205h-19.2v-9.6h-28.8v-9.6h19.2v-9.6h9.6v-9.6h-9.6V157h-19.2v-9.6h28.8v9.6h9.6v38.4h19.2v9.6h19.2v9.6h19.2v9.5h9.6v-38.3h28.8v9.6h-19.2v9.6H287v9.6h-47.9v9.5h9.6v9.6h-9.6v86.4h19.2v9.6h9.6v-9.6h9.6v-9.6h9.5v-19.2h9.6v-28.8h9.6v-47.9h-9.6v-19.2h9.6v-9.6h-9.6V157h-28.7v-9.6h28.7v-9.6H287v-19.2h-9.5V89.8h9.5V109h9.6v19.2h9.6V157h9.6v67.1h9.6v-9.5h9.6V205h19.2v-9.6h19.2V157h9.6v-9.6h28.8v9.6h-19.2v9.6zM258.3 157h9.6v28.8h-9.6z"/><path class="C" d="M287 205h9.6v9.6H287zm0 9.6v9.5h-9.5v9.6h-28.8v-9.6h-9.6v-9.5z"/><path d="M239.1 166.6h9.6v9.6h-9.6zm-19.2-9.6h9.6v28.8h-9.6z"/><path class="B" d="M267.9 157v28.8h28.8V157h-28.8zm19.1 19.2h-9.6v-9.6h9.6v9.6zM229.5 157v28.8h28.8V157h-28.8zm19.2 19.2h-9.6v-9.6h9.6v9.6z"/><path d="M267.9 185.8h28.8v9.6h-28.8zm9.6-19.2h9.6v9.6h-9.6zm-19.2-86.4h19.2v9.6h-19.2zm0 9.6v38.4h-9.6v19.2h9.6v9.6h-28.8v-9.6h9.6v-28.8h9.6V89.8zM287 214.6h9.6v9.6H287z"/><path d="M277.5 224.1h9.6v9.6h-9.6zm-28.8 9.6h28.8v9.6h-28.8zM411.8 157h9.6v28.8h-9.6z"/><path class="B" d="M411.8 157v28.8h-19.2v-9.6H383v-9.6h9.6V157z"/><path class="D" d="M258.3 109h9.6v9.6h-9.6zm19.2 9.6h9.6v19.2h-9.6zm9.5 19.2h9.6v9.6H287zm9.6 48h9.6v9.6h-9.6zm9.6 28.8v47.8h-9.6v28.9H287v19.1h-9.5v9.7h-9.6v9.6h-9.6v-19.2h9.6v-9.6h9.6v-19.2h9.5v-38.4h9.6v-28.7z"/><path class="E" d="M277.5 89.8v28.8h-9.6V109h-9.6V89.8zm9.5 105.6h9.6v9.6H287z"/><path class="F" d="M287 137.8v9.6h-19.1v9.6h-9.6v-9.6h-9.6v-19.2h9.6v-9.6h19.2v19.2zm0 57.6v9.6h-47.9v-9.6h19.2v-9.6h9.6v9.6zm9.6 28.7v19.2H287v38.4h-9.5v19.2h-9.6v9.6h-9.6v9.6h-19.2v-86.4h9.6v9.6h28.8v-9.6h9.5v-9.6z"/><path d="M114.3 157h9.6v28.8h-9.6z"/><path class="B" d="M152.7 166.6v9.6h-9.6v9.6h-19.2V157h19.2v9.6z"/><path d="M229.5 406.5v9.5h-48v-28.7h19.2v9.6h-9.6v9.6z"/><path class="B" d="M239.1 387.3v9.6h-9.6v9.6h-38.4v-9.6h9.6v-9.6z"/></svg>