<svg xmlns="http://www.w3.org/2000/svg" viewBox="0 0 500 500"><style><![CDATA[.B{fill:#fff}.F{fill:#FFFD38}]]></style><circle cx="250" cy="250" r="250" fill="#fbdd11"/><path d="M315.8 224.2v28.7h-9.6v-9.6H287v-9.6h19.2v-9.5zm-38.3 38.3h19.2v9.6h-19.2zm95.9 38.4v-9.6h19.2v-9.6h-28.8v9.6h-9.6v28.8h-9.6v9.6H335v-9.6h-9.6v-19.2h9.6V185.8h-9.6v-19.2h-9.6V157h-9.6v-9.6h-9.6v-19.2H287v-9.6h-19.2v9.6h-9.6v57.6H239v9.6h9.6v9.6H239v-9.6h-9.6v28.8h9.6v-9.6h9.6v9.6H239v9.6h9.6V253h9.6v19.2h-9.6V301H239v19.2h-9.6v9.6h-9.6v-9.6h-9.6v-28.8h-9.6v-9.6h-28.8v9.6H191v9.6h9.6v9.6H191v9.6h-19.2v9.6h38.4v9.6h19.2v9.6h-9.6v9.6h-9.6v19.2H191v9.6h38.4v-9.6h-9.6v-9.6h57.6v-9.6h9.6v9.6h9.6v19.2H335v-9.6h-28.8v-19.2h-9.6V349h9.6v-9.6h9.6v-9.6h9.6v9.6h28.8v-9.6h38.4v-9.6h-19.2v-9.6h-9.6V301l9.6-.1zm-57.6-9.6v19.2h-9.6v19.2h-9.6v9.6H287v9.6h-19.2v9.6h-19.2v-9.6H239v-9.6h9.6v-28.8h9.6v-28.8h19.2v-9.6h-9.6v-19.2H287v-9.6h-28.8v-9.6H287v-9.6h-28.8v-9.6h9.6V205h-9.6v-9.6H287v-9.6h-19.2v-48H287V157h9.6v9.6h9.6v9.6h9.6v19.2h9.6v96l-9.6-.1zm-19.2-38.4h9.6v9.6h-9.6z"/><path d="M162.3 291.3h9.6v28.8h-9.6zM287 195.4h9.6v28.8H287zm9.6 191.9v9.6H287v9.6h-9.5v-19.2z"/><path class="B" d="M335 387.3v19.2h-48v-9.6h9.6v-9.6z"/><path d="M335 387.3h9.6v19.2H335zm-48 19.2h48v9.6h-48zm105.6-115.2h9.6v28.8h-9.6zm-211.1 96h9.6v19.2h-9.6zm9.6 19.2h48v9.6h-48zm57.6-19.2v19.2h-9.6v-9.6h-9.6v-9.6z"/><path class="B" d="M287 195.4v28.8h-28.7v-9.6h9.6V205h-9.6v-9.6zm-86.3 105.5v9.6h-9.6v9.6h-19.2v-28.8h19.2v9.6zm38.4-105.5h9.6v9.6h-9.6zm0 19.2h9.6v9.6h-9.6zm153.5 76.7v28.8h-19.2v-9.6h-9.6v-9.6h9.6v-9.6zM239.1 396.9v9.6h-48v-19.2h38.4v9.6z"/><path d="M306.2 243.3v9.6h-9.6v9.6h-19.1v9.6h-9.6v-19.2H287v-9.6z" fill="#fc0d1b"/><path d="M325.4 195.4v95.9h-9.6v19.2h-9.6v19.2h-9.6v9.6H287v9.6h-19.1v9.6h-19.2v-9.6h9.6v-9.6h9.6v-9.6h9.6v-9.6h9.5v-9.6h9.6v-19.2h9.6v-38.4h9.6v-28.7h-9.6v-38.4h-9.6v-19.2h9.6v9.6h9.6v19.2z" fill="#d4d22c"/><path d="M287 137.8v9.6h-9.5v9.6h-9.6v-19.2z" fill="#9d9c1e"/><path class="F" d="M258.3 233.7h28.8v9.6h-28.8zm47.9-47.9v47.9H287v-9.5h9.6v-28.8H287v-9.6h-19.1V157h9.6v-9.6h9.5v9.6h9.6v28.8zm0 76.7v28.8h-9.6v19.2H287v9.6h-9.5v9.6h-9.6v9.6h-9.6v9.6h-19.2v-9.6h9.6v-28.8h9.6v-28.8h19.2v-9.6h19.1v-9.6z"/></svg>