<svg xmlns="http://www.w3.org/2000/svg" viewBox="0 0 500 500"><style><![CDATA[.B{fill:#FC0D1B}.C{fill:#fff}.D{fill:#D4D22C}.E{fill:#9D9C1E}.F{fill:#FFFD38}]]></style><circle cx="250" cy="250" r="250" fill="#fbdd11"/><path d="M267.9 176.2h9.6V205h-9.6z"/><path class="B" d="M296.6 224.1h9.6v9.6h-9.6zm-47.9 9.6v9.6h9.6v9.6h28.8v-9.6h9.5v-9.6z"/><path d="M181.5 387.3V416h57.6v-9.6h-48v-9.6h9.6v-9.5z"/><path class="C" d="M287.1 396.8v9.6H335v-9.6h-9.6v-9.5h-28.8v9.5zm-96 0v9.6h48v-9.6h-9.6v-9.5h-28.8v9.5z"/><path d="M162.3 233.7v9.6h28.8v9.6h9.6v9.6h9.6v9.6h28.8v86.4h-9.6v19.2h-28.8v9.6h28.8v9.5h9.6v9.6h9.6v-19.1h-9.6v-19.2h9.6v-19.2h38.4v19.2h9.5v19.2h28.8v-9.6h-19.2v-19.2h-9.6v-28.8h9.6v-19.2h9.6v-28.8h9.6v-9.6h28.8v-9.6h9.6v-9.6h9.6v-9.6h28.8v-9.6H383v-9.6h-9.6v-9.6h9.6V205h-19.2v38.3h-9.6v9.6h-9.6v9.6h-19.2v-86.3h-9.6v-28.8h-9.6v-19.2h-9.6V109h-9.5v28.8h9.5V157h9.6v9.6h-28.7v9.6h28.7V205h9.6v9.5h-9.6v19.2h9.6v38.4h-9.6v28.8h-9.6v19.2h-9.5v9.6h-9.6v9.6h-9.6v-9.6h-19.2v-76.8h9.6v-9.6h-9.6v-9.6h47.9v-9.6h-47.9v-9.6h19.2V205h-28.8v57.5h-19.2v-9.6h-9.6v-9.6h-9.6V205h-19.2v9.5h9.6v9.6h-9.6v9.6zm115.2 153.6v19.1h9.6v-9.6h9.5v-9.5zm9.6 19.1v9.6h57.5v-28.7h-19.2v9.5h9.6v9.6zm-38.4-220.6h9.6v9.6h-9.6zm-19.2-9.6h9.6V205h-9.6z"/><path class="C" d="M277.5 176.2V205h28.8v-28.8h-28.8zm9.6 9.6h9.6v9.6h-9.6v-9.6zm-48-9.6V205h28.8v-28.8h-28.8zm9.6 9.6h9.6v9.6h-9.6v-9.6z"/><path d="M287.1 185.8h9.6v9.6h-9.6zm-9.6 19.2h28.8v9.6h-28.8zm-9.6-105.6h19.2v9.6h-19.2zm-28.8 67.2v9.6h28.8v-9.6h-9.6v-19.2h9.6V109h-9.6v28.8h-9.6v28.8zm57.5 67.1h9.6v9.6h-9.6zm-9.5 9.6h9.6v9.6h-9.6zm-28.8 9.6h28.8v9.6h-28.8zM383 195.4h19.2v9.6H383zm19.2 9.6h9.6v28.8h-9.6z"/><path class="C" d="M373.4 214.5v9.6h9.6v9.6h19.2V205H383v9.5z"/><path d="M162.3 195.4h19.2v9.6h-19.2zm-9.6 9.6h9.6v28.8h-9.6z"/><path class="C" d="M162.3 205v28.7h19.2v-9.6h9.6v-9.6h-9.6V205z"/><path class="D" d="M267.9 128.2h9.6v9.6h-9.6zm19.2 9.6h9.6V157h-9.6zm9.5 19.2h9.6v9.6h-9.6zm9.6 48h9.6v9.6h-9.6zm-38.3 115.1v19.2h9.6v-9.6h9.6v-9.6h9.5v-19.2h9.6v-28.8h9.6v-38.4h-9.6v28.8h-9.6v28.8h-9.5v19.2h-9.6v9.6z"/><path class="E" d="M267.9 109v19.2h9.6v9.6h9.6V109zm28.7 105.5h9.6v9.6h-9.6z"/><path class="F" d="M248.7 214.5v9.6h47.9v-9.6h-19.1V205h-9.6v9.5zm0 38.4v76.8h19.2v-9.6h9.6v-9.6h9.6v-19.2h9.5v-28.8h9.6v-19.2h-9.6v9.6h-9.5v9.6h-28.8v-9.6zm9.6-105.5v19.2h9.6v9.6h9.6v-9.6h19.1V157h-9.5v-19.2h-19.2v9.6z"/></svg>