<svg xmlns="http://www.w3.org/2000/svg" viewBox="0 0 500 500"><style><![CDATA[.B{fill:#fff}.F{fill:#FFFD38}]]></style><circle cx="250" cy="250" r="250" fill="#fbdd11"/><path d="M287.3 253.5v9.6h19.1v9.5h9.6V244h-9.6v9.5zm9.6 19.1h9.5v9.6h-9.5zm-19.2 9.6h19.1v9.6h-19.1zm-95.5 28.6h9.5v28.7h-9.5z"/><path d="M220.4 320.4v9.6h-9.6v9.6h-19.1v9.5h19.1v19.1h-9.6v9.6h-9.6v9.5h28.7v-9.5h76.4v9.5h-19.1V416h57.3v-9.6h-47.8v-9.6h19.1v-9.6h28.7v-9.5h-9.6v-9.6h9.6v-9.6h9.5v-9.6h28.7v-9.5h-19.2V330h-9.6v-9.6h9.6v-9.6h19.2v-9.5h-28.7v9.5h-9.5V349h-9.5v9.6H316V330h9.6v-19.1h9.6V205.8h-9.6v-19.1H316v-9.6h-9.6v-9.6h-9.5v-19.1h-9.6v-9.5h-19.1v9.6h-9.5v57.3h-19.1v9.6h9.6v9.6h-9.6v-9.6H230V244h9.6v-9.5h9.6v9.6h-9.6v9.6h9.6v19.1h9.6v19.1h-9.6V311h-9.6v28.7H230v19.1h-9.5v-19.1h9.5V311h-9.5v-9.5h-28.7v9.5h19.1v9.6h9.5zm76.5 38.2h9.5v9.6h-9.5v-9.6zm-57.4-9.6h9.6v-28.7h9.6v-19.1h19.1v-9.6h-9.6v-19.1h19.1V263h-28.7v-9.6h28.7V244h-28.7v-9.5h9.5V225h-9.5v-9.6h28.7v-9.6h-19.1V158h19.1v19.1h9.6v9.6h9.5v9.5h9.6v19.1h9.6v86H316v19.1h-9.6v19.1h-9.5v9.5h-9.6v9.6h-19.1v9.6h-19.1v-9.6h-9.6V349zm47.8-133.7h9.6V244h-9.6zm86 95.5h9.6v28.7h-9.6zm-38.2 76.5h9.5v19.1h-9.5zm-152.9 0h9.5v19.1h-9.5zm9.6 19.1v9.5h57.3v-28.6h-28.7v9.5h19.1v9.6z"/><path class="B" d="M191.8 310.8v28.7h19.1v-9.6h9.5v-9.5h-9.5v-9.6zm47.7-95.5h9.6v9.6h-9.6zm0 19.1h9.6v9.6h-9.6zm19.1-9.5v-9.6h28.7V244h-28.7v-9.6h9.6v-9.5zm86 95.5v9.5h9.6v9.6h19.1v-28.7h-19.1v9.6zm-57.3 76.4v9.6h47.8v-19.1h-28.7v9.5zm-95.5-9.5v19.1h47.7v-9.6h-19.1v-9.5z"/><path d="M268.2 272.6v19.1h9.5v-9.5h19.2v-9.6h9.5v-9.5h-19.1v9.5z" fill="#fc0d1b"/><path d="M249.1 358.6v9.6h19.1v-9.6h19.1V349h9.6v-9.5h9.5v-19.1h9.6v-19.1h9.5v-86H316v-19.1h-9.6v-9.5h-9.5v19.1h9.5V244h9.6v28.6h-9.6v28.7h-9.5v19.1h-9.6v9.5h-9.6v9.6h-9.5v9.5h-9.6v9.6z" fill="#d4d22c"/><path d="M277.7 158h9.6v9.5h-9.6v9.6h-9.5V158z" fill="#9d9c1e"/><path class="F" d="M258.6 253.5h28.7v9.6h-28.7zm9.6-76.4v28.7h19.1v9.5h9.6V244h-9.6v9.5h19.1v-47.7h-9.5v-28.7h-9.6v-9.6h-9.6v9.6zM239.5 349v9.6h19.1V349h9.6v-9.5h9.5v-9.6h9.6v-9.5h9.6v-19.1h9.5v-19.1h-9.5v9.5h-19.2v9.6h-19.1v19.1h-9.5V349z"/></svg>