<svg xmlns="http://www.w3.org/2000/svg" viewBox="0 0 500 500"><style><![CDATA[.B{fill:#fff}.F{fill:#FFFD38}]]></style><circle cx="250" cy="250" r="250" fill="#fbdd11"/><path d="M210.3 224.2v28.7h9.6v-9.6h19.2v-9.6h-19.2v-9.5zm19.2 38.3h19.2v9.6h-19.2zm-67.2 38.4v9.6h-9.6v9.6h-19.2v9.6h38.4v9.6h28.8v-9.6h9.6v9.6h9.6v9.6h9.6v9.6h-9.6v19.2h-28.8v9.6h38.4v-19.2h9.6v-9.6h9.6v9.6h57.6v9.6h-9.6v9.6H335v-9.6h-19.2v-19.2h-9.6v-9.6h-9.6v-9.6h19.2v-9.6h38.4v-9.6H335v-9.6h-9.6v-9.6h9.6v-9.6h19.2v-9.6h-28.8v9.6h-9.6v28.8h-9.6v9.6h-9.6v-9.6H287v-19.2h-9.6v-28.8h-9.6v-19.2h9.6v-19.2h9.6v-9.6h-9.6v-9.6h9.6v9.6h9.6v-28.8H287v9.6h-9.6v-9.6h9.6v-9.6h-19.2v-57.6h-9.6v-9.6H239v9.6h-9.6v19.2h-9.6v9.6h-9.6v9.6h-9.6v19.2H191v115.1h9.6V320H191v9.6h-9.6V320h-9.6v-28.8h-9.6v-9.6h-28.8v9.6h19.2v9.6h9.7zm38.4-9.6v-96h9.6v-19.2h9.6v-9.6h9.6V157h9.6v-19.2h19.2v48h-19.2v9.6h28.8v9.6h-9.6v9.6h9.6v9.6h-28.8v9.6h28.8v9.6h-28.8v9.6h19.2v19.2h-9.6v9.6h19.2v28.8h9.6v28.8h9.6v9.6h-9.6v9.6h-19.2V349h-19.2v-9.6h-9.6v-9.6h-9.6v-19.2h-9.6v-19.2h-9.6zm19.2-38.4h9.6v9.6h-9.6zm134.3 38.4h9.6v28.8h-9.6zm-124.7-95.9h9.6v28.8h-9.6zm0 191.9v9.6h9.6v9.6h9.6v-19.2z"/><path class="B" d="M191.1 387.3v19.2h48v-9.6h-9.6v-9.6z"/><path d="M181.5 387.3h9.6v19.2h-9.6zm9.6 19.2h48v9.6h-48zM124 291.3h9.6v28.8H124zm211 96h9.6v19.2H335zm-47.9 19.2h48v9.6h-48zm-9.6-19.2v19.2h9.6v-9.6h9.6v-9.6z"/><path class="B" d="M239.1 195.4v28.8h28.8v-9.6h-9.6V205h9.6v-9.6zm86.3 105.5v9.6h9.6v9.6h19.2v-28.8H335v9.6zm-47.9-105.5h9.6v9.6h-9.6zm0 19.2h9.6v9.6h-9.6zm-144 76.7v28.8h19.2v-9.6h9.6v-9.6h-9.6v-9.6zm153.6 105.6v9.6H335v-19.2h-38.3v9.6z"/><path d="M219.9 243.3v9.6h9.6v9.6h19.2v9.6h9.6v-19.2h-19.2v-9.6z" fill="#fc0d1b"/><path d="M200.7 195.4v95.9h9.6v19.2h9.6v19.2h9.6v9.6h9.6v9.6h19.2v9.6h19.2v-9.6h-9.6v-9.6h-9.6v-9.6h-9.6v-9.6h-9.6v-9.6h-9.6v-19.2h-9.6v-38.4h-9.6v-28.7h9.6v-38.4h9.6v-19.2h-9.6v9.6h-9.6v19.2z" fill="#d4d22c"/><path d="M239.1 137.8v9.6h9.6v9.6h9.6v-19.2z" fill="#9d9c1e"/><path class="F" d="M239.1 233.7h28.8v9.6h-28.8zm-19.2-47.9v47.9h19.2v-9.5h-9.6v-28.8h9.6v-9.6h19.2V157h-9.6v-9.6h-9.6v9.6h-9.6v28.8zm0 76.7v28.8h9.6v19.2h9.6v9.6h9.6v9.6h9.6v9.6h9.6v9.6H287v-9.6h-9.5v-28.8h-9.6v-28.8h-19.2v-9.6h-19.2v-9.6z"/></svg>