<svg xmlns="http://www.w3.org/2000/svg" viewBox="0 0 500 500"><style><![CDATA[.B{fill:#fff}.C{fill:#FC0D1B}.D{fill:#D4D22C}.E{fill:#9D9C1E}.F{fill:#FFFD38}]]></style><circle cx="250" cy="250" r="250" fill="#fbdd11"/><path class="B" d="M191.1 396.9v9.5h38.4v-9.5h9.6v-9.6h-38.4v9.6z"/><path d="M181.5 387.3V416h48v-9.6h-38.4v-9.5h9.6v-9.6zm-38.4-220.7v9.6h-9.6v9.6h-19.2v9.6h28.8v9.6h19.2v9.6h19.2v9.5h9.6v9.6h19.2v38.4h9.6v28.8h9.6v19.2h9.6v28.8h-9.6v28.8h-28.8v9.6h38.4v9.6h-9.6v9.5h19.2v-28.7h-9.6v-19.2h9.6v-19.2h28.8v19.2h9.5v19.2h-9.5v28.8h19.1v-9.6H287v-9.6h38.4v-9.6h-28.8v-28.8H287v-19.2h9.6v-96h19.2v-9.6H335v-9.5h19.2V205h19.2v-9.6h28.8v-9.6H383v-9.6h-9.6v-9.6h9.6V157h19.2v-9.6h-28.8v9.6h-9.6v38.4h-19.2v9.6h-19.2v9.6h-19.2v9.5h-9.6v-38.3h-28.7v9.6H287v9.6h-47.9v9.6H287v9.5h-9.5v9.6h9.5v86.4h-19.1v9.6h-9.6v-9.6h-9.6v-9.6h-9.6v-19.2h-9.6v-28.8h-9.6v-47.9h9.6v-19.2h-9.6v-9.6h9.6V157h28.8v-9.6h-28.8v-9.6h9.6v-19.2h9.6V89.8h-9.6V109h-9.6v19.2h-9.6V157h-9.6v67.1h-9.6v-9.5h-9.6V205h-19.2v-9.6h-19.2V157h-9.6v-9.6h-28.8v9.6h19.2v9.6zm115.2-9.6h9.6v28.8h-9.6z"/><path class="C" d="M229.5 205h9.6v9.6h-9.6zm9.6 9.6v9.5h9.6v9.6h28.8v-9.6h9.5v-9.5z"/><path d="M277.5 166.6h9.6v9.6h-9.6zm19.1-9.6h9.6v28.8h-9.6z"/><path class="B" d="M229.5 157v28.8h28.8V157h-28.8zm9.6 9.6h9.6v9.6h-9.6v-9.6zm28.8-9.6v28.8h28.8V157h-28.8zm9.6 9.6h9.6v9.6h-9.6v-9.6z"/><path d="M229.5 185.8h28.8v9.6h-28.8zm9.6-19.2h9.6v9.6h-9.6zm9.6-86.4h19.2v9.6h-19.2zm19.2 9.6v38.4h9.6v19.2h-9.6v9.6h28.7v-9.6H287v-28.8h-9.5V89.8zm-38.4 124.8h9.6v9.6h-9.6zm9.6 9.5h9.6v9.6h-9.6zm9.6 9.6h28.8v9.6h-28.8zm-144-76.7h9.6v28.8h-9.6z"/><path class="B" d="M114.3 157v28.8h19.2v-9.6h9.6v-9.6h-9.6V157z"/><path class="D" d="M258.3 109h9.6v9.6h-9.6zm-19.2 9.6h9.6v19.2h-9.6zm-9.6 19.2h9.6v9.6h-9.6zm-9.6 48h9.6v9.6h-9.6zm0 28.8v47.8h9.6v28.9h9.6v19.1h9.6v9.7h9.6v9.6h9.6v-19.2h-9.6v-9.6h-9.6v-19.2h-9.6v-38.4h-9.6v-28.7z"/><path class="E" d="M248.7 89.8v28.8h9.6V109h9.6V89.8zm-19.2 105.6h9.6v9.6h-9.6z"/><path class="F" d="M239.1 137.8v9.6h19.2v9.6h9.6v-9.6h9.6v-19.2h-9.6v-9.6h-19.2v19.2zm0 57.6v9.6H287v-9.6h-19.1v-9.6h-9.6v9.6zm-9.6 28.7v19.2h9.6v38.4h9.6v19.2h9.6v9.6h9.6v9.6H287v-86.4h-9.5v9.6h-28.8v-9.6h-9.6v-9.6z"/><path d="M402.2 157h9.6v28.8h-9.6z"/><path class="B" d="M373.4 166.6v9.6h9.6v9.6h19.2V157H383v9.6z"/><path d="M296.6 406.5v9.5h48v-28.7h-19.2v9.6h9.6v9.6z"/><path class="B" d="M287 387.3v9.6h9.6v9.6H335v-9.6h-9.6v-9.6z"/></svg>