<svg xmlns="http://www.w3.org/2000/svg" viewBox="0 0 500 500"><style><![CDATA[.B{fill:#fff}.F{fill:#FFFD38}]]></style><circle cx="250" cy="250" r="250" fill="#fbdd11"/><path d="M238.9 253.6v9.6h-19.1v9.5h-9.6v-28.6h9.6v9.5zm-19.1 19.1h9.5v9.6h-9.5zm9.5 9.6h19.1v9.6h-19.1zm105.1 28.6h9.5v28.7h-9.5z"/><path d="M315.3 320.5v-9.6h19.1v-9.5h-28.7v9.5h-9.5v28.7h9.5v19.1h-9.5v-19.1h-9.6v-28.7H277v-19.1h-9.6v-19.1h9.6v-19.1h9.6V244H277v-9.6h9.6v9.6h9.6v-28.7h-9.6v9.6H277v-9.6h9.6v-9.6h-19.1v-57.3H258V139h-19.1v9.6h-9.6v19.1h-9.5v9.6h-9.6v9.6h-9.6V206H191v105.1h9.6v19.1h9.6v28.7h-9.6v-9.6H191v-38.2h-9.5v-9.5h-28.6v9.5H172v9.6h9.6v9.6H172v9.6h-19.1v9.5h28.7v9.6h9.5v9.6h9.6v9.5h-9.6v9.5h28.7v9.6h19.1v9.6h-47.8v9.6h57.3v-28.7h-19.1v-9.5h76.4v9.5h28.7v-9.5h-9.6v-9.6h-9.6v-19.1h19.1V340h-19.1v-10h-9.6v-9.6l9.7.1zm-86 47.8h-9.5v-9.6h9.5v9.6zm57.4-9.6h-9.6v9.6H258v-9.6h-19.1v-9.6h-9.6v-9.5h-9.5v-19.1h-9.6v-19.1h-9.6v-86h9.6v-19.1h9.6v-9.5h9.5v-9.6h9.6v-19.1H258v47.8h-19.1v9.6h28.7v9.6H258v9.5h9.5v9.6h-28.7v9.6h28.7v9.6h-28.7v9.5H258V292h-9.6v9.6h19.1v19.1h9.6v28.7h9.6v9.3zm-57.4-143.3h9.6v28.7h-9.6z"/><path d="M143.4 310.9h9.6v28.7h-9.6zm38.2 76.5h9.5v19.1h-9.5zm152.8 0h9.5v19.1h-9.5zm0 19.1v9.5h-57.3v-28.6h28.7v9.5h-19.1v9.6z"/><path class="B" d="M334.4 310.9v28.7h-19.1v-9.5h-9.5v-9.6h9.5v-9.6zm-57.3-95.5h9.6v9.6h-9.6zm0 19.1h9.6v9.6h-9.6zm-9.6-9.5v-9.6h-28.6v28.7h28.6v-9.6H258V225zm-85.9 95.5v9.6H172v9.5h-19.1v-28.7H172v9.6zm57.3 76.4v9.6h-47.8v-19.1h28.7v9.5zm95.5-9.5v19.1h-47.7v-9.6h19.1v-9.5z"/><path d="M258 272.7v19.1h-9.6v-9.5h-19.1v-9.6h-9.5v-9.5h19.1v9.5z" fill="#fc0d1b"/><path d="M277.1 358.7v9.6H258v-9.6h-19.1v-9.5h-9.6v-9.6h-9.5v-19.1h-9.6v-19.1h-9.5v-86h9.5v-19.1h9.6v-9.5h9.5v19.1h-9.5v38.2h-9.6v28.6h9.6v28.7h9.5v19.1h9.6v9.6h9.5v9.5h9.6v9.6h9.5v9.5z" fill="#d4d22c"/><path d="M248.4 158.1h-9.5v9.5h9.5v9.6h9.6v-19.1z" fill="#9d9c1e"/><path class="F" d="M238.9 253.6h28.7v9.6h-28.7zm19.1-76.4v28.7h-19.1v9.5h-9.6v28.7h9.6v9.5h-19.1v-47.7h9.5v-28.7h9.6v-9.6h9.5v9.6zm28.7 172v9.5h-19.2v-9.5H258v-9.6h-9.6v-9.5h-9.5v-9.6h-9.6v-19.1h-9.5v-19.1h9.5v9.5h19.1v9.6h19.1v19.1h9.6v28.7z"/></svg>