<svg width="32" height="32" fill="none" xmlns="http://www.w3.org/2000/svg"><g clip-path="url(#clip0_701_5320)"><path d="M32 16c0-8.837-7.163-16-16-16S0 7.163 0 16s7.163 16 16 16 16-7.163 16-16z" fill="#F5F8FF"/><path d="M30 16c0-7.732-6.268-14-14-14S2 8.268 2 16s6.268 14 14 14 14-6.268 14-14z" fill="#8347E5"/><path d="M20.166 20.91c-5.987.753-8.744-4.518-8.255-5.033.323-.34.825-.36 1.26-.371 2.002-.055 4.835 2.283 5.41 2.271 1.113-.023 2.787-1.791 3.885-3.25.459-.61 3.328-1.529 3.01.074-1.032 5.197-4.547 6.212-5.31 6.308zm-8.332-9.836c5.987-.754 8.744 4.517 8.255 5.032-.323.34-.825.36-1.26.371-2.002.055-4.835-2.283-5.41-2.271-1.113.023-2.787 1.791-3.885 3.25-.459.61-3.328 1.529-3.01-.074 1.032-5.197 4.547-6.212 5.31-6.308z" fill="#F5F8FF"/></g><defs><clipPath id="clip0_701_5320"><path fill="#fff" d="M0 0H32V32H0z"/></clipPath></defs></svg>