<svg fill="none" height="32" viewBox="0 0 32 32" width="32" xmlns="http://www.w3.org/2000/svg"><path d="m32 16c0-8.83656-7.1634-16-16-16-8.83656 0-16 7.16344-16 16 0 8.8366 7.16344 16 16 16 8.8366 0 16-7.1634 16-16z" fill="#f5f8ff"/><path d="m30 16c0-7.73199-6.268-14-14-14-7.73199 0-14 6.26801-14 14 0 7.732 6.26801 14 14 14 7.732 0 14-6.268 14-14z" fill="#8347e5"/><path d="m20.1663 20.9094c-5.9874.7538-8.7444-4.5177-8.2554-5.032.3229-.3396.8249-.3599 1.26-.3716 2.0019-.0543 4.8354 2.283 5.4101 2.2715 1.113-.0228 2.7874-1.7917 3.8846-3.2499.4592-.6099 3.3279-1.5291 3.0098.0735-1.0314 5.1975-4.5462 6.2125-5.3091 6.3085zm-8.3326-9.8358c5.9874-.7537 8.7444 4.5177 8.2552 5.032-.3229.3396-.8247.36-1.2598.3717-2.0019.0542-4.8354-2.2833-5.4101-2.2715-1.113.0227-2.7874 1.7916-3.88478 3.2498-.459.61-3.32776 1.5292-3.00966-.0732 1.03148-5.1977 4.54624-6.2127 5.30914-6.3088z" fill="#f5f8ff"/></svg>