<svg width="32" height="32" fill="none" xmlns="http://www.w3.org/2000/svg"><g clip-path="url(#clip0_701_5307)"><path d="M32 16c0-8.837-7.163-16-16-16S0 7.163 0 16s7.163 16 16 16 16-7.163 16-16z" fill="#333"/><path d="M29.5 16c0-7.456-6.044-13.5-13.5-13.5S2.5 8.544 2.5 16 8.544 29.5 16 29.5 29.5 23.456 29.5 16z" fill="#F0B90B"/><path d="M20.166 20.91c-5.987.753-8.744-4.518-8.255-5.033.323-.34.825-.36 1.26-.371 2.002-.055 4.835 2.283 5.41 2.271 1.113-.023 2.787-1.791 3.885-3.25.459-.61 3.328-1.529 3.01.074-1.032 5.197-4.547 6.212-5.31 6.308zm-8.332-9.836c5.987-.754 8.744 4.517 8.255 5.032-.323.34-.825.36-1.26.371-2.002.055-4.835-2.283-5.41-2.271-1.113.023-2.787 1.791-3.885 3.25-.459.61-3.328 1.529-3.01-.074 1.032-5.197 4.547-6.212 5.31-6.308z" fill="#333"/></g><defs><clipPath id="clip0_701_5307"><path fill="#fff" d="M0 0H32V32H0z"/></clipPath></defs></svg>