<svg xmlns="http://www.w3.org/2000/svg" width="692" height="696"><defs><radialGradient cx="50%" cy="50%" fx="50%" fy="50%" r="50%" id="A"><stop stop-color="#fff" stop-opacity=".01" offset="0%"/><stop stop-color="#fff" stop-opacity="0" offset="100%"/></radialGradient></defs><path d="M-3-2h700v700H-3z" fill="url(#A)"/><path d="M258.782 454.365h-27.63l-3.582 9.917h-10.508l24.85-62.486h6.1l24.93 62.486h-10.588l-3.58-9.917zm-3.055-8.422l-10.722-29.497-10.74 29.497h21.46zm123.194 8.422H351.31l-3.678 9.917h-10.508l24.927-62.486h6.1l24.946 62.486h-10.605l-3.58-9.917zm-3.055-8.422l-10.722-29.497-10.74 29.497h21.46zm100.913 14.75a32.14 32.14 0 0 1-11.675-11.644 31.96 31.96 0 0 1 0-32.097c2.808-4.83 6.832-8.845 11.675-11.644 9.97-5.744 22.255-5.744 32.224 0 4.843 2.798 8.867 6.813 11.675 11.644a31.96 31.96 0 0 1 0 32.097c-2.8 4.828-6.834 8.84-11.675 11.644-9.97 5.744-22.255 5.744-32.224 0zm27.593-8.053c7.015-4.044 11.306-11.54 11.23-19.62-.058-12.562-10.313-22.697-22.91-22.64a22.85 22.85 0 0 0-11.222 3.002c-7.03 4.032-11.33 11.533-11.247 19.62.053 12.562 10.302 22.703 22.897 22.652 3.95-.016 7.826-1.054 11.253-3.014zm-294.14-14.69a15.51 15.51 0 0 1 2.88 9.588c.06 3.072-.747 6.097-2.335 8.732a16.15 16.15 0 0 1-6.382 5.822 19.35 19.35 0 0 1-8.971 2.193H169v-62.486h23.35c3.14-.04 6.246.68 9.048 2.096a16.14 16.14 0 0 1 6.46 6.055 16.52 16.52 0 0 1 2.355 8.849 15.89 15.89 0 0 1-2.063 8.267 14.42 14.42 0 0 1-5.838 5.414c3.146.958 5.914 2.872 7.92 5.47zm-11.306 16.206c1.426-.74 2.625-1.853 3.464-3.22a8.48 8.48 0 0 0 1.265-4.582c.014-1.62-.432-3.215-1.284-4.6a9.34 9.34 0 0 0-3.464-3.318c-1.46-.817-3.11-1.24-4.787-1.22h-15.78v18.123h15.723a9.82 9.82 0 0 0 4.865-1.182zm.603-39.16a8.88 8.88 0 0 0-3.444-3.105c-1.465-.782-3.106-1.184-4.767-1.165h-12.98v18.047h12.92c1.662.012 3.298-.41 4.748-1.223 1.426-.793 2.62-1.944 3.464-3.337.854-1.403 1.3-3.016 1.284-4.658.037-1.606-.387-3.2-1.226-4.56zm130.588-13.197v62.486h-3.892L289.742 421.9v42.382h-9.613v-62.486h3.756l36.622 42.13v-42.13h9.613zm120.14 0v62.486h-3.892L409.9 421.9v42.382h-9.615v-62.486h3.777l36.583 42.13v-42.13h9.613zm-47.123-36.79c-80.672 10.192-117.82-61.093-111.23-68.048 4.35-4.592 11.115-4.868 16.977-5.026 26.973-.733 65.15 30.873 72.894 30.718 14.996-.308 37.557-24.23 52.34-43.948 6.187-8.248 44.84-20.678 40.554.994-13.898 70.285-61.254 84.01-71.534 85.3zm-112.27-133c80.672-10.192 117.82 61.093 111.227 68.048-4.35 4.592-11.112 4.868-16.974 5.026-26.973.733-65.15-30.876-72.894-30.718-14.996.308-37.557 24.23-52.343 43.948-6.184 8.248-44.837 20.678-40.55-.99 13.898-70.288 61.254-84.014 71.534-85.313z" fill="#FBDD11" fill-rule="nonzero"/></svg>