<svg xmlns="http://www.w3.org/2000/svg" viewBox="0 0 356 234"><path fill="#FBDD11" d="M89.782 223.365h-27.63l-3.582 9.917H48.062l24.85-62.487h6.11l24.928 62.487H93.362l-3.58-9.917Zm-3.055-8.422-10.722-29.496-10.74 29.496h21.462Zm123.194 8.422H182.31l-3.678 9.917h-10.507l24.926-62.487h6.11l24.947 62.487h-10.605l-3.58-9.917Zm-3.055-8.422-10.722-29.496-10.739 29.496h21.461Zm100.914 14.749a32.14 32.14 0 0 1-11.676-11.643 31.961 31.961 0 0 1 0-32.098 32.052 32.052 0 0 1 11.676-11.643 32.283 32.283 0 0 1 32.223 0 32.052 32.052 0 0 1 11.676 11.643 31.961 31.961 0 0 1 0 32.098 32.126 32.126 0 0 1-11.676 11.643 32.283 32.283 0 0 1-32.223 0Zm27.592-8.053a22.407 22.407 0 0 0 11.23-19.62c-.058-12.56-10.313-22.697-22.91-22.64a22.85 22.85 0 0 0-11.223 3.002A22.363 22.363 0 0 0 301.222 202c.052 12.561 10.301 22.703 22.897 22.652a22.843 22.843 0 0 0 11.253-3.013ZM41.233 206.947a15.51 15.51 0 0 1 2.88 9.588 16.294 16.294 0 0 1-2.335 8.733 16.148 16.148 0 0 1-6.382 5.822 19.353 19.353 0 0 1-8.97 2.193H0v-62.487h23.35a19.5 19.5 0 0 1 9.049 2.096 16.138 16.138 0 0 1 6.46 6.055 16.523 16.523 0 0 1 2.355 8.849 15.888 15.888 0 0 1-2.063 8.266 14.42 14.42 0 0 1-5.837 5.415 15.837 15.837 0 0 1 7.92 5.47Zm-11.305 16.206a8.827 8.827 0 0 0 3.463-3.222 8.48 8.48 0 0 0 1.265-4.581 8.635 8.635 0 0 0-1.284-4.6 9.336 9.336 0 0 0-3.464-3.318 9.579 9.579 0 0 0-4.787-1.22H9.341v18.123h15.722a9.823 9.823 0 0 0 4.865-1.182Zm.603-39.16a8.881 8.881 0 0 0-3.444-3.106 9.883 9.883 0 0 0-4.768-1.164H9.34v18.047h12.92a9.569 9.569 0 0 0 4.749-1.222 9.373 9.373 0 0 0 3.464-3.338 8.795 8.795 0 0 0 1.284-4.658 8.365 8.365 0 0 0-1.226-4.56Zm130.588-13.198v62.487h-3.892L120.742 190.9v42.382h-9.613v-62.487h3.756l36.621 42.13v-42.13h9.613Zm120.14 0v62.487h-3.893L240.901 190.9v42.382h-9.615v-62.487h3.777l36.583 42.13v-42.13h9.612Zm-47.124-36.79c-80.672 10.192-117.819-61.093-111.23-68.048 4.35-4.592 11.114-4.868 16.977-5.026 26.972-.733 65.15 30.873 72.893 30.718 14.997-.308 37.557-24.229 52.34-43.948 6.187-8.249 44.84-20.678 40.554.994-13.898 70.285-61.254 84.01-71.534 85.31ZM121.865.995c80.672-10.192 117.819 61.093 111.227 68.048-4.35 4.592-11.111 4.868-16.974 5.026-26.972.733-65.15-30.876-72.893-30.718-14.997.308-37.557 24.229-52.343 43.948-6.184 8.249-44.837 20.678-40.551-.99C64.229 16.02 111.585 2.293 121.865.994Z"/></svg>