<?xml version="1.0" encoding="UTF-8"?>
<svg width="843px" height="135px" viewBox="0 0 843 135" version="1.1" xmlns="http://www.w3.org/2000/svg" xmlns:xlink="http://www.w3.org/1999/xlink">
    <!-- Generator: Sketch 52.1 (67048) - http://www.bohemiancoding.com/sketch -->
    <title>banano-logo</title>
    <desc>Created with Sketch.</desc>
    <g id="Page-1" stroke="none" stroke-width="1" fill="none" fill-rule="evenodd">
        <g id="logo" transform="translate(-79.000000, -433.000000)" fill="#FBDD11" fill-rule="nonzero">
            <g id="banano-logo">
                <path d="M520.299094,532.686872 L478.627804,532.686872 L473.224829,547.653841 L457.376884,547.653841 L494.854339,453.341435 L504.069625,453.341435 L541.667407,547.653841 L525.699135,547.653841 L520.299094,532.686872 Z M515.691451,519.9752 L499.520678,475.455058 L483.323491,519.9752 L515.691451,519.9752 Z M701.494517,532.686872 L659.84964,532.686872 L654.30286,547.653841 L638.454915,547.653841 L676.049762,453.341435 L685.265048,453.341435 L722.889243,547.653841 L706.894558,547.653841 L701.494517,532.686872 Z M696.886874,519.9752 L680.716101,475.455058 L664.518914,519.9752 L696.886874,519.9752 Z M849.085841,542.235857 C841.784047,538.006444 835.717806,531.949361 831.477013,524.662117 C822.787057,509.677574 822.787057,491.201715 831.477013,476.217173 C835.711936,468.927 841.781112,462.866988 849.085841,458.643433 C864.120845,449.973721 882.651201,449.973721 897.686205,458.643433 C904.990934,462.866988 911.06011,468.927 915.295033,476.217173 C923.984989,491.201715 923.984989,509.677574 915.295033,524.662117 C911.057175,531.949361 904.987999,538.006444 897.686205,542.235857 C882.651201,550.905569 864.120845,550.905569 849.085841,542.235857 Z M890.70137,530.080687 C901.281341,523.976741 907.752585,512.66511 907.638127,500.468934 C907.550083,481.509798 892.083663,466.211857 873.083738,466.296796 C867.146628,466.323157 861.312237,467.884291 856.15872,470.827892 C845.558206,476.914264 839.072288,488.234682 839.195549,500.439645 C839.274789,519.398782 854.732405,534.705509 873.729395,534.629356 C879.687048,534.605925 885.533179,533.038933 890.70137,530.080687 Z M447.077187,507.906434 C450.085362,512.121203 451.61146,517.208801 451.420698,522.378409 C451.511677,527.014948 450.293733,531.581191 447.898932,535.558714 C445.551089,539.30485 442.22302,542.342178 438.272773,544.345585 C434.096546,546.524728 429.453685,547.661164 424.743324,547.655306 L384.888678,547.655328 L384.888678,453.3429 L420.106333,453.3429 C424.843107,453.281392 429.527056,454.368034 433.753174,456.506173 C437.791465,458.585732 441.166491,461.751934 443.496725,465.644518 C445.915004,469.674762 447.144688,474.302514 447.047839,479.00056 C447.165231,483.364706 446.091093,487.67613 443.936946,491.477916 C441.829756,494.972161 438.77756,497.804462 435.132532,499.649705 C439.878111,501.09661 444.051404,503.984561 447.077187,507.906434 Z M430.025972,532.366152 C432.177184,531.250219 433.985024,529.568998 435.249925,527.504083 C436.532434,525.427453 437.192765,523.028638 437.157548,520.588817 C437.178091,518.143138 436.506021,515.735535 435.220576,513.647189 C433.946871,511.552985 432.147836,509.82783 429.996624,508.638673 C427.795521,507.405583 425.303872,506.76707 422.777005,506.79636 L398.97574,506.79636 L398.97574,534.149886 L422.688961,534.149886 C425.24811,534.199678 427.774977,533.584598 430.025972,532.366152 Z M430.935762,473.259805 C429.650317,471.265186 427.857152,469.648402 425.741158,468.573474 C423.53125,467.393105 421.057209,466.786811 418.550886,466.8161 L398.97574,466.8161 L398.97574,494.055398 L418.462842,494.055398 C420.969165,494.072972 423.437336,493.437388 425.623765,492.210155 C427.774977,491.012212 429.576947,489.27534 430.847718,487.17235 C432.136097,485.054714 432.808167,482.620751 432.784689,480.142853 C432.84045,477.717677 432.200663,475.327649 430.935762,473.259805 Z M627.890205,453.341435 L627.890205,547.653841 L622.020596,547.653841 L566.99301,483.685427 L566.99301,547.653841 L552.495075,547.653841 L552.495075,453.341435 L558.159248,453.341435 L613.39227,516.929085 L613.39227,453.341435 L627.890205,453.341435 Z M809.085922,453.341435 L809.085922,547.653841 L803.216312,547.653841 L748.218074,483.685427 L748.218074,547.653841 L733.717205,547.653841 L733.717205,453.341435 L739.41366,453.341435 L794.587987,516.929085 L794.587987,453.341435 L809.085922,453.341435 Z M263.463485,566.855788 C182.647771,577.036842 145.434448,505.830975 152.034824,498.88349 C156.393009,494.296744 163.169473,494.021422 169.042017,493.863258 C196.062763,493.131019 234.309136,524.702243 242.065825,524.547009 C257.089089,524.239468 279.69002,500.345039 294.499044,480.647806 C300.697351,472.40865 339.419163,459.992803 335.125544,481.640722 C321.202831,551.847814 273.761714,565.558261 263.463485,566.855788 Z M150.993555,433.994212 C231.80927,423.813158 269.022592,495.019025 262.419282,501.96651 C258.061097,506.553256 251.287568,506.828578 245.415024,506.986742 C218.394278,507.718981 180.147904,476.144828 172.391216,476.302991 C157.367951,476.610532 134.767021,500.504961 119.955062,520.202194 C113.759689,528.44135 75.0378774,540.857197 79.3314965,519.212207 C93.2542095,449.002186 140.695326,435.291739 150.993555,433.994212 Z"></path>
            </g>
        </g>
    </g>
</svg>