<svg xmlns="http://www.w3.org/2000/svg" width="692" height="696"><defs><radialGradient cx="50%" cy="50%" fx="50%" fy="50%" r="50%" id="A"><stop stop-color="#fff" stop-opacity=".01" offset="0%"/><stop stop-color="#fff" stop-opacity="0" offset="100%"/></radialGradient></defs><path d="M-3-2h700v700H-3z" fill="url(#A)"/><path d="M403.135 414.854c-80.672 10.18-117.82-61.024-111.23-67.97 4.35-4.586 11.115-4.862 16.977-5.02 26.973-.732 65.15 30.838 72.894 30.683 14.996-.308 37.557-24.202 52.34-43.898 6.187-8.24 44.84-20.655 40.554.993-13.898 70.206-61.254 83.917-71.534 85.214zm-112.27-132.86c80.672-10.18 117.82 61.024 111.227 67.97-4.35 4.587-11.112 4.862-16.974 5.02-26.973.732-65.15-30.84-72.894-30.683-14.996.308-37.557 24.202-52.343 43.898-6.184 8.24-44.837 20.655-40.55-1 13.898-70.21 61.254-83.92 71.534-85.217z" fill="#FBDD11"/></svg>