<svg xmlns="http://www.w3.org/2000/svg" xmlns:xlink="http://www.w3.org/1999/xlink" width="692" height="696"><defs><radialGradient cx="50%" cy="50%" fx="50%" fy="50%" r="50%" id="A"><stop stop-color="#fff" stop-opacity=".01" offset="0%"/><stop stop-color="#fff" stop-opacity="0" offset="100%"/></radialGradient><radialGradient cx="15.8840638%" cy="10.8985871%" fx="15.8840638%" fy="10.8985871%" r="97.1594073%" id="B"><stop stop-color="#fff" stop-opacity=".15" offset="0%"/><stop stop-color="#fff" stop-opacity="0" offset="100%"/></radialGradient><path d="M127.312 92.314c-55.777 7.02-81.46-42.086-76.905-46.877 3.008-3.163 7.685-3.353 11.738-3.462 18.65-.505 45.046 21.268 50.4 21.16 10.37-.212 25.967-16.69 36.188-30.275 4.278-5.682 31.003-14.245 28.04.685-9.61 48.42-42.352 57.874-49.46 58.77zM49.688.686c55.777-7.02 81.46 42.086 76.903 46.877-3.008 3.163-7.683 3.353-11.736 3.462-18.65.505-45.046-21.27-50.4-21.16-10.37.212-25.967 16.69-36.2 30.275C24 65.822-2.735 74.384.23 59.457 9.838 11.036 42.58 1.58 49.688.686z" id="C"/><filter x="-12.7%" y="-17.7%" width="125.4%" height="148.4%" id="D"><feOffset dy="6" in="SourceAlpha"/><feGaussianBlur stdDeviation="6.5"/><feColorMatrix values="0 0 0 0 0 0 0 0 0 0 0 0 0 0 0 0 0 0 0.248131793 0"/></filter></defs><g fill="none"><g transform="translate(-153 -152)"><g transform="translate(150 150)"><path d="M0 0h700v700H0z" fill="url(#A)"/><g transform="translate(200 200)"><rect width="300" height="300" rx="150" fill="#FBDD11" x="0" y="0"/><path d="M300 150c0 82.843-67.157 150-150 150S0 232.843 0 150l.007-1.5C.812 230.652 67.658 297 150 297s149.188-66.348 149.993-148.5L300 150z" fill="#E8C900"/><path d="M299.993 151.5C299.188 69.348 232.342 3 150 3S.812 69.348.007 151.5L0 150C0 67.157 67.157 0 150 0s150 67.157 150 150l-.007 1.5z" fill="#FFEF7F"/><rect x="15" y="15" width="270" height="270" rx="135" fill="#2A2A2E"/><rect width="300" height="300" rx="150" fill="url(#B)" x="0" y="0"/><g transform="translate(61.8 103.8)"><use filter="url(#D)" xlink:href="#C" fill="#000"/><use xlink:href="#C" fill="#FBDD11"/><path d="M126.983 46.818c-1.978-11.96-27.777-49.966-77.295-43.732-7.108.895-39.85 10.35-49.46 58.77-.06.31-.1.61-.146.898-.142-.942-.104-2.036.146-3.298C9.838 11.036 42.58 1.58 49.688.686c53.628-6.75 79.437 38.386 77.295 46.132zM50.015 48.58c-.25-1.51-.12-2.607.392-3.144 3.008-3.163 7.685-3.353 11.738-3.462 18.65-.505 45.046 21.268 50.4 21.16 10.37-.212 25.967-16.69 36.188-30.275 4.19-5.564 29.904-13.89 28.186-.214-1.54-10.204-24.27-2.588-28.186 2.614-10.22 13.584-25.82 30.063-36.188 30.275-5.353.107-31.75-21.666-50.4-21.16-4.053.11-8.73.3-11.738 3.462-.175.184-.306.434-.392.744z" fill="#FFEF7F"/><path d="M126.983 44.418c.25 1.512.12 2.608-.392 3.145-3.008 3.163-7.683 3.353-11.736 3.462-18.65.505-45.046-21.27-50.4-21.16-10.37.212-25.967 16.69-36.2 30.275-4.187 5.564-29.902 13.89-28.184.216 1.542 10.202 24.27 2.586 28.184-2.616 10.223-13.584 25.82-30.063 36.2-30.275 5.353-.11 31.75 21.666 50.4 21.16 4.053-.11 8.728-.3 11.736-3.462.176-.185.306-.435.392-.745zM50.015 46.18c1.978 11.96 27.778 49.967 77.297 43.733 7.108-.895 39.85-10.35 49.46-58.77.06-.3.1-.61.147-.9.142.942.104 2.037-.147 3.3-9.61 48.42-42.352 57.874-49.46 58.77-53.63 6.75-79.44-38.4-77.297-46.133z" fill="#E8C900"/></g></g></g></g></g></svg>