<svg xmlns="http://www.w3.org/2000/svg" viewBox="0 0 843 135"><path fill="#FBDD11" d="M441.3 99.69h-41.67l-5.4 14.96h-15.85l37.47-94.3h9.22l37.6 94.3H446.7l-5.4-14.96Zm-4.6-12.71-16.18-44.52-16.2 44.52h32.37Zm185.8 12.7h-41.65l-5.55 14.97h-15.85l37.6-94.3h9.22l37.62 94.3h-16l-5.4-14.96Zm-4.61-12.7-16.17-44.52-16.2 44.52h32.37Zm152.2 22.26a48.27 48.27 0 0 1 0-83.6 48.66 48.66 0 0 1 48.6 0 48.27 48.27 0 0 1 0 83.6 48.66 48.66 0 0 1-48.6 0Zm41.61-12.16a33.82 33.82 0 0 0 16.94-29.61 34.36 34.36 0 0 0-34.56-34.17 34.44 34.44 0 0 0-16.92 4.53 33.76 33.76 0 0 0-16.96 29.61 34.36 34.36 0 0 0 34.53 34.19 34.43 34.43 0 0 0 16.97-4.55ZM368.08 74.91c3 4.21 4.53 9.3 4.34 14.47a24.6 24.6 0 0 1-3.52 13.18 24.36 24.36 0 0 1-9.63 8.79 29.17 29.17 0 0 1-13.53 3.3H305.9v-94.3h35.22a29.4 29.4 0 0 1 13.64 3.16 24.35 24.35 0 0 1 9.75 9.13A24.95 24.95 0 0 1 368.05 46a24 24 0 0 1-3.11 12.48 21.75 21.75 0 0 1-8.8 8.17 23.89 23.89 0 0 1 11.94 8.26Zm-17.05 24.46a13.32 13.32 0 0 0 5.22-4.87 12.8 12.8 0 0 0 1.9-6.91 12.9 12.9 0 0 0-1.93-6.94 14.44 14.44 0 0 0-12.44-6.85h-23.8v27.35h23.7a14.8 14.8 0 0 0 7.35-1.78Zm.9-59.11a13.4 13.4 0 0 0-5.19-4.69 14.9 14.9 0 0 0-7.19-1.75h-19.57v27.24h19.48a14.42 14.42 0 0 0 12.39-6.89 13.28 13.28 0 0 0 1.93-7.03c.06-2.42-.58-4.81-1.84-6.88ZM548.9 20.34v94.31h-5.87L488 50.7v63.96h-14.5v-94.3h5.67l55.23 63.58v-63.6h14.5Zm181.2 0v94.31h-5.87l-55-63.96v63.96h-14.5v-94.3h5.7l55.17 63.58V20.34h14.5ZM184.46 133.86C103.65 144.04 66.43 72.83 73.03 65.88c4.36-4.58 11.14-4.86 17.01-5.02 27.02-.73 65.27 30.84 73.03 30.69 15.02-.31 37.62-24.2 52.43-43.9 6.2-8.24 44.92-20.66 40.63 1-13.93 70.2-61.37 83.9-71.67 85.2ZM72 .99c80.82-10.18 118.03 61.03 111.43 67.98-4.36 4.58-11.13 4.86-17 5.02-27.03.73-65.27-30.85-73.03-30.69-15.02.31-37.62 24.2-52.43 43.9-6.2 8.24-44.92 20.66-40.63-.99C14.25 16.01 61.7 2.3 72 1Z"/></svg>