<svg xmlns="http://www.w3.org/2000/svg" width="993" height="995"><defs><radialGradient cx="50%" cy="50%" fx="50%" fy="50%" r="50%" id="A"><stop stop-color="#fff" stop-opacity=".01" offset="0%"/><stop stop-color="#fff" stop-opacity="0" offset="100%"/></radialGradient></defs><path d="M-5-2H995V998H-5z" fill="url(#A)"/><path d="M515.3 530.687h-41.67l-5.403 14.967h-15.848l37.477-94.312h9.215l37.598 94.313H520.7l-5.4-14.967zm-4.608-12.712l-16.17-44.52-16.197 44.52h32.368zm185.803 12.712H654.85l-5.547 14.967h-15.848l37.595-94.312h9.215l37.624 94.313h-15.995l-5.4-14.967zm-4.608-12.712l-16.17-44.52-16.197 44.52h32.368zm152.2 22.26c-7.302-4.23-13.368-10.287-17.61-17.574a48.27 48.27 0 0 1 0-48.445c4.235-7.29 10.304-13.35 17.61-17.574a48.66 48.66 0 0 1 48.6 0c7.305 4.224 13.374 10.283 17.61 17.574a48.27 48.27 0 0 1 0 48.445c-4.238 7.287-10.307 13.344-17.61 17.574a48.66 48.66 0 0 1-48.6 0zM885.7 528.08c10.58-6.104 17.05-17.416 16.937-29.612-.088-18.96-15.554-34.257-34.554-34.172a34.44 34.44 0 0 0-16.925 4.531c-10.6 6.086-17.086 17.407-16.963 29.61.08 18.96 15.537 34.266 34.534 34.2a34.43 34.43 0 0 0 16.972-4.549zm-443.624-22.174c3.008 4.215 4.534 9.303 4.344 14.472.09 4.637-1.127 9.203-3.522 13.18-2.348 3.746-5.676 6.784-9.626 8.787a29.17 29.17 0 0 1-13.529 3.31H379.89v-94.312h35.218a29.39 29.39 0 0 1 13.647 3.164c4.038 2.08 7.413 5.246 9.744 9.138 2.418 4.03 3.648 8.658 3.55 13.356.117 4.364-.957 8.676-3.11 12.478-2.107 3.494-5.16 6.327-8.804 8.172 4.746 1.447 8.92 4.334 11.945 8.256zm-17.05 24.46a13.32 13.32 0 0 0 5.224-4.862c1.283-2.077 1.943-4.475 1.908-6.915a13.04 13.04 0 0 0-1.937-6.941 14.08 14.08 0 0 0-5.224-5.009 14.44 14.44 0 0 0-7.22-1.842h-23.8v27.354h23.713a14.81 14.81 0 0 0 7.337-1.784zm.9-59.106a13.4 13.4 0 0 0-5.195-4.687 14.9 14.9 0 0 0-7.19-1.757h-19.575v27.24h19.487a14.42 14.42 0 0 0 7.161-1.845 14.14 14.14 0 0 0 5.224-5.038 13.28 13.28 0 0 0 1.937-7.029c.056-2.425-.584-4.815-1.85-6.883zM622.9 451.34v94.313h-5.87l-55.028-63.968v63.968h-14.498V451.34h5.664l55.233 63.588V451.34H622.9zm181.196 0v94.313h-5.87l-54.998-63.968v63.968h-14.5V451.34h5.696l55.174 63.588V451.34h14.498zM258.463 564.856c-80.816 10.18-118.03-61.025-111.43-67.973 4.358-4.586 11.135-4.862 17.007-5.02 27.02-.732 65.267 30.84 73.024 30.684 15.023-.308 37.624-24.202 52.433-43.9 6.198-8.24 44.92-20.655 40.626.993-13.923 70.207-61.364 83.917-71.662 85.215zm-112.47-132.862c80.816-10.18 118.03 61.025 111.426 67.972-4.358 4.587-11.132 4.862-17.004 5.02-27.02.732-65.267-30.842-73.024-30.684-15.023.308-37.624 24.202-52.436 43.9-6.195 8.24-44.917 20.655-40.624-1 13.923-70.2 61.364-83.92 71.662-85.218z" fill="#FBDD11" fill-rule="nonzero"/></svg>