<svg width="256" height="256" viewBox="0 0 256 256" fill="none" xmlns="http://www.w3.org/2000/svg">
<path d="M80.6177 118V106.72H91.3777V101.8H80.6177V94.92H93.0177V90H74.4177V118H80.6177ZM103.096 118V97.48H97.1361V118H103.096ZM96.4161 92.04C96.4161 94 98.0161 95.36 100.176 95.36C102.296 95.36 103.976 94 103.976 92.04C103.976 90.04 102.296 88.64 100.176 88.64C98.0161 88.64 96.4161 90.04 96.4161 92.04ZM114.346 118V89.08H108.386V118H114.346ZM117.956 113.2C119.356 117.48 123.516 118.44 126.556 118.44C131.076 118.44 134.956 116.28 134.956 112.08C134.956 110.72 134.516 107.56 129.676 106.16L126.596 104.96C125.556 104.56 124.676 104.08 124.676 103.2C124.676 102.16 125.836 101.52 126.956 101.52C127.876 101.52 129.356 101.84 129.876 103.48L134.476 101.36C132.556 97.68 129.436 97.04 127.076 97.04C122.676 97.04 119.036 99.2 119.036 103.32C119.036 104.24 119.276 107.48 124.156 109.2L127.756 110.72C128.876 111.12 129.276 111.6 129.276 112.28C129.276 113.32 127.916 113.84 126.596 113.84C124.956 113.84 122.876 113.12 122.276 110.76L117.956 113.2ZM137.534 107.72C137.534 114.16 142.854 118.44 148.814 118.44C154.814 118.44 160.094 114.12 160.094 107.72C160.094 101.36 154.814 97.04 148.814 97.04C142.854 97.04 137.534 101.32 137.534 107.72ZM143.334 107.72C143.334 104.52 145.894 102.16 148.814 102.16C151.774 102.16 154.294 104.56 154.294 107.72C154.294 110.92 151.774 113.32 148.814 113.32C145.894 113.32 143.334 110.96 143.334 107.72ZM163.931 118H169.891V107C169.891 104.16 171.051 101.96 173.811 101.96C176.571 101.96 177.611 104.12 177.611 106.96V118H183.571V106.84C183.571 101.64 182.011 97.04 176.251 97.04C173.771 97.04 171.611 97.88 169.891 100.28V97.48H163.931V118ZM104.797 158V148.12H110.877C116.637 148.12 119.877 144.08 119.877 139.16C119.877 134.24 116.677 130 110.877 130H98.5973V158H104.797ZM104.797 143.24V134.92H110.077C112.277 134.92 113.637 136.64 113.637 139.12C113.637 141.52 112.277 143.24 110.077 143.24H104.797ZM129.145 137.48H123.345V158H129.305V146.84C129.305 144.12 131.545 142.8 133.785 142.8C134.385 142.8 135.465 142.88 136.305 143.08V137.2C135.665 137.08 135.465 137.04 134.785 137.04C132.985 137.04 129.825 138.24 129.145 141.96V137.48ZM137.885 147.72C137.885 154.16 143.205 158.44 149.165 158.44C155.165 158.44 160.445 154.12 160.445 147.72C160.445 141.36 155.165 137.04 149.165 137.04C143.205 137.04 137.885 141.32 137.885 147.72ZM143.685 147.72C143.685 144.52 146.245 142.16 149.165 142.16C152.125 142.16 154.645 144.56 154.645 147.72C154.645 150.92 152.125 153.32 149.165 153.32C146.245 153.32 143.685 150.96 143.685 147.72Z" fill="black"/>
</svg>
