<svg fill="none" height="256" viewBox="0 0 256 256" width="256" xmlns="http://www.w3.org/2000/svg"><path d="m105.664 86v19.85l-14.7499-19.85h-6.8v30h6.6v-19.9l14.6999 19.9h6.8v-30zm22.263 30.4c6.7 0 11.1-4.4 11.1-10.4s-4.4-10.4-11.1-10.4-11.15 4.4-11.15 10.4 4.45 10.4 11.15 10.4zm0-5.65c-2.75-.05-4.75-2.05-4.75-4.75s2-4.7 4.75-4.75c2.7.05 4.75 2.05 4.75 4.75s-2.05 4.7-4.75 4.75zm39.99-14.75-3.4 13.3-4.3-13.3h-5l-4.25 13.25-3.35-13.25h-7.25l6.9 20h6.7l3.75-11.3 3.75 11.3h6.75l6.8-20zm-46.625 68h7.05l-10.8-30h-7.4l-10.7998 30h7.0498l1.85-5.65h11.2zm-11.3-11.15 3.85-11.9 3.85 11.9zm20.645 11.15h6.401v-34.25h-6.401zm24.355-15.05v-4.95h-4.75v-7.7h-6.35v7.7h-3.35v4.95h3.35v7.9c0 4.25 3.6 7.55 7.85 7.55 1.35 0 2.7-.3 3.2-.65v-4.95h-2.4c-1.35 0-2.3-1.05-2.3-2.7v-7.15z" fill="#000"/></svg>