<svg fill="none" height="256" viewBox="0 0 256 256" width="256" xmlns="http://www.w3.org/2000/svg"><path d="m50.3536 118.432c-2.16 0-3.984-.624-5.472-1.872-1.464-1.272-2.508-2.856-3.132-4.752s-.936-4.032-.936-6.408.312-4.512.936-6.408 1.668-3.468 3.132-4.716c1.488-1.272 3.312-1.908 5.472-1.908 1.32 0 2.52.24 3.6.72 1.08.456 1.98 1.092 2.7 1.908.744.816 1.356 1.788 1.836 2.916.504 1.104.864 2.28 1.08 3.528.24 1.248.36 2.568.36 3.96s-.12 2.712-.36 3.96c-.216 1.248-.576 2.436-1.08 3.564-.48 1.104-1.092 2.064-1.836 2.88-.72.816-1.62 1.464-2.7 1.944-1.08.456-2.28.684-3.6.684zm0-4.068c1.128 0 2.088-.444 2.88-1.332s1.356-1.98 1.692-3.276c.36-1.32.54-2.772.54-4.356 0-2.592-.432-4.728-1.296-6.408-.84-1.704-2.112-2.556-3.816-2.556-1.68 0-2.952.876-3.816 2.628-.864 1.728-1.296 3.84-1.296 6.336 0 2.568.42 4.704 1.26 6.408.864 1.704 2.148 2.556 3.852 2.556zm20.1676 3.636-7.164-18.396h4.428l4.248 11.664c.264.816.444 1.476.54 1.98.12-.648.3-1.308.54-1.98l4.212-11.664h4.392l-7.164 18.396zm32.5878-10.116c0 1.056-.048 1.896-.144 2.52h-12.5282c.264 1.344.792 2.412 1.584 3.204.816.768 1.86 1.152 3.132 1.152 1.608 0 2.964-.6 4.068-1.8l2.4842 2.628c-1.7282 1.896-3.9242 2.844-6.5882 2.844-2.712 0-4.86-.876-6.444-2.628-1.56-1.752-2.34-4.092-2.34-7.02 0-2.976.792-5.316 2.376-7.02 1.584-1.728 3.72-2.592 6.408-2.592 2.352 0 4.272.744 5.7602 2.232 1.488 1.464 2.232 3.624 2.232 6.48zm-12.7082-1.008h8.64c-.12-1.344-.552-2.352-1.296-3.024-.72-.696-1.596-1.044-2.628-1.044-1.32 0-2.388.36-3.204 1.08-.792.72-1.296 1.716-1.512 2.988zm31.2912-7.704c1.656 0 3.096.324 4.32.972v6.804h-4.032v-3.924h-.36c-1.896 0-3.36.444-4.392 1.332s-1.548 2.22-1.548 3.996v6.012h5.148v3.636h-13.176v-3.636h3.888v-11.124h-3.888v-3.636h7.74v2.952c.504-1.056 1.332-1.884 2.484-2.484s2.424-.9 3.816-.9zm9.476 26.064v-25.632h4.14v1.404c1.128-1.224 2.628-1.836 4.5-1.836 2.472 0 4.428.852 5.868 2.556 1.464 1.704 2.196 4.068 2.196 7.092 0 2.952-.756 5.292-2.268 7.02-1.488 1.728-3.408 2.592-5.76 2.592-1.92 0-3.432-.636-4.536-1.908v6.804zm8.064-10.764c1.416 0 2.508-.48 3.276-1.44.792-.984 1.188-2.388 1.188-4.212 0-1.752-.396-3.144-1.188-4.176-.768-1.032-1.872-1.548-3.312-1.548-1.728 0-3.024.612-3.888 1.836v7.704c.864 1.224 2.172 1.836 3.924 1.836zm20.636 3.96c-2.016 0-3.66-.528-4.932-1.584-1.248-1.056-1.872-2.568-1.872-4.536 0-1.992.72-3.504 2.16-4.536s3.168-1.548 5.184-1.548c1.752 0 3.276.324 4.572.972v-1.08c0-2.208-1.212-3.312-3.636-3.312-2.016 0-3.96.624-5.832 1.872l-1.26-3.384c2.232-1.416 4.716-2.124 7.452-2.124 4.872 0 7.308 2.304 7.308 6.912v11.916h-4.032v-1.44c-1.296 1.248-3 1.872-5.112 1.872zm.756-3.636c1.728 0 3.18-.612 4.356-1.836v-2.376c-1.104-.552-2.412-.828-3.924-.828-1.152 0-2.112.216-2.88.648-.744.432-1.116 1.068-1.116 1.908 0 .744.312 1.344.936 1.8s1.5.684 2.628.684zm22.939 3.636c-1.56 0-3-.288-4.32-.864-1.32-.6-2.376-1.404-3.168-2.412l2.7-2.448c1.512 1.464 3.18 2.196 5.004 2.196.888 0 1.62-.156 2.196-.468s.864-.78.864-1.404c0-.36-.18-.696-.54-1.008-.336-.336-.732-.612-1.188-.828s-1.128-.504-2.016-.864c-.096-.048-.18-.084-.252-.108-.048-.024-.12-.048-.216-.072-.096-.048-.18-.084-.252-.108-.888-.384-1.548-.672-1.98-.864-.432-.216-.96-.504-1.584-.864-.6-.384-1.044-.744-1.332-1.08-.264-.336-.504-.756-.72-1.26-.216-.528-.324-1.116-.324-1.764 0-1.56.672-2.784 2.016-3.672 1.344-.912 3.036-1.368 5.076-1.368 2.856 0 5.148.972 6.876 2.916l-2.772 2.268c-1.32-1.104-2.736-1.656-4.248-1.656-.936 0-1.692.144-2.268.432-.552.264-.828.648-.828 1.152 0 .24.096.48.288.72.192.216.528.456 1.008.72.48.24.876.432 1.188.576.312.12.84.324 1.584.612 2.208.888 3.672 1.608 4.392 2.16 1.272 1.008 1.92 2.316 1.944 3.924 0 1.704-.648 3.036-1.944 3.996-1.272.96-3 1.44-5.184 1.44zm22.184 0c-1.56 0-3-.288-4.32-.864-1.32-.6-2.376-1.404-3.168-2.412l2.7-2.448c1.512 1.464 3.18 2.196 5.004 2.196.888 0 1.62-.156 2.196-.468s.864-.78.864-1.404c0-.36-.18-.696-.54-1.008-.336-.336-.732-.612-1.188-.828s-1.128-.504-2.016-.864c-.096-.048-.18-.084-.252-.108-.048-.024-.12-.048-.216-.072-.096-.048-.18-.084-.252-.108-.888-.384-1.548-.672-1.98-.864-.432-.216-.96-.504-1.584-.864-.6-.384-1.044-.744-1.332-1.08-.264-.336-.504-.756-.72-1.26-.216-.528-.324-1.116-.324-1.764 0-1.56.672-2.784 2.016-3.672 1.344-.912 3.036-1.368 5.076-1.368 2.856 0 5.148.972 6.876 2.916l-2.772 2.268c-1.32-1.104-2.736-1.656-4.248-1.656-.936 0-1.692.144-2.268.432-.552.264-.828.648-.828 1.152 0 .24.096.48.288.72.192.216.528.456 1.008.72.48.24.876.432 1.188.576.312.12.84.324 1.584.612 2.208.888 3.672 1.608 4.392 2.16 1.272 1.008 1.92 2.316 1.944 3.924 0 1.704-.648 3.036-1.944 3.996-1.272.96-3 1.44-5.184 1.44zm-119.3782 44.568v-25.2h4.176l3.636 13.824c.336 1.248.54 2.076.612 2.484.096-.768.3-1.596.612-2.484l3.744-13.824h3.9242v25.2h-3.7082v-13.68c0-1.056.024-1.752.072-2.088l-.684 2.088-3.852 13.68h-.36l-3.852-13.68-.684-2.088c.048.672.072 1.368.072 2.088v13.68zm30.5352.432c-2.712 0-4.86-.852-6.444-2.556-1.584-1.728-2.376-4.08-2.376-7.056 0-2.952.792-5.292 2.376-7.02 1.584-1.752 3.732-2.628 6.444-2.628 2.736 0 4.884.876 6.444 2.628 1.584 1.728 2.376 4.068 2.376 7.02s-.792 5.292-2.376 7.02c-1.56 1.728-3.708 2.592-6.444 2.592zm0-3.96c1.488 0 2.628-.504 3.42-1.512.816-1.008 1.224-2.388 1.224-4.14s-.408-3.144-1.224-4.176c-.792-1.032-1.932-1.548-3.42-1.548-1.464 0-2.604.516-3.42 1.548s-1.224 2.424-1.224 4.176c0 1.728.408 3.108 1.224 4.14.816 1.008 1.956 1.512 3.42 1.512zm23.48-15.3c2.016 0 3.648.612 4.896 1.836 1.272 1.2 1.908 3.12 1.908 5.76v11.232h-4.14v-10.368c0-1.584-.348-2.736-1.044-3.456s-1.62-1.08-2.772-1.08c-2.712 0-4.068 1.488-4.068 4.464v10.44h-4.14v-18.396h3.816v2.268c.36-.72 1.056-1.344 2.088-1.872 1.056-.552 2.208-.828 3.456-.828zm20.888 19.26c-2.712 0-4.86-.852-6.444-2.556-1.584-1.728-2.376-4.08-2.376-7.056 0-2.952.792-5.292 2.376-7.02 1.584-1.752 3.732-2.628 6.444-2.628 2.736 0 4.884.876 6.444 2.628 1.584 1.728 2.376 4.068 2.376 7.02s-.792 5.292-2.376 7.02c-1.56 1.728-3.708 2.592-6.444 2.592zm0-3.96c1.488 0 2.628-.504 3.42-1.512.816-1.008 1.224-2.388 1.224-4.14s-.408-3.144-1.224-4.176c-.792-1.032-1.932-1.548-3.42-1.548-1.464 0-2.604.516-3.42 1.548s-1.224 2.424-1.224 4.176c0 1.728.408 3.108 1.224 4.14.816 1.008 1.956 1.512 3.42 1.512z" fill="#000"/></svg>