<svg xmlns="http://www.w3.org/2000/svg" viewBox="0 0 238.02 512"><style><![CDATA[.C{fill:#79c257}]]></style><path d="M2.32 222.15H1.4A1.36 1.36 0 0 1 0 220.76V190.6a1.38 1.38 0 0 1 1.39-1.39h.93v-30.16H1.4A1.4 1.4 0 0 1 0 157.66V89a1.4 1.4 0 0 1 1.39-1.4h.93V38.87c0-27.84 13-37.2 32.47-38 28.6-1.22 139.34-1 167 0 24.13.87 34.33 14.38 34.33 37.1v122.5h.47a1.4 1.4 0 0 1 1.39 1.39V192a1.37 1.37 0 0 1-1.39 1.38h-.47v279.55c0 23.2-11.13 36.86-31.54 37.82C175.4 512.1 62 512.6 33.4 511c-19.94-1.15-31.08-13.9-31.08-34.78z" fill="#040404"/><path d="M230.59,49.54V466.66a20,20,0,0,1-19.94,19.95H27.83A20,20,0,0,1,7.88,466.66V49.54A20.88,20.88,0,0,1,28.76,28.67h181a20.89,20.89,0,0,1,20.87,20.87Z" fill="#2c373d"/><path class="C" d="M144.36 236.2a3.71 3.71 0 1 0-7.42 0v15.46a3.71 3.71 0 0 0 7.42 0zm-43.28 0a3.71 3.71 0 1 0-7.42 0v15.46a3.71 3.71 0 1 0 7.42 0zm26.04-17.7l2.62-4.73a.5.5 0 0 0-.2-.71.66.66 0 0 0-.25-.07.5.5 0 0 0-.46.27l-2.65 4.8a17.78 17.78 0 0 0-14.34 0l-2.63-4.8a.53.53 0 0 0-.71-.2.51.51 0 0 0-.2.71l2.62 4.73a15.07 15.07 0 0 0-8.46 13.3h33.1a15.09 15.09 0 0 0-8.44-13.3zm-15.75 7.24a1.39 1.39 0 1 1 1.38-1.38 1.38 1.38 0 0 1-1.38 1.38zm15.28 0a1.39 1.39 0 1 1 1.38-1.38 1.38 1.38 0 0 1-1.38 1.38zm-24.2 7.38v24a4 4 0 0 0 4 4h2.66v8.18a3.71 3.71 0 0 0 7.42 0v-8.18h4.94v8.18a3.71 3.71 0 0 0 7.42 0v-8.18h2.66a4 4 0 0 0 4-4v-24z"/><path d="M230.6 49.54v417.12a20 20 0 0 1-19.94 19.95h-182.82a19.82 19.82 0 0 1-12.58-4.47L223.58 34a20.78 20.78 0 0 1 7.01 15.54z" opacity=".1"/></svg>