<svg viewBox="0 0 256.85 512" xmlns="http://www.w3.org/2000/svg"><g fill="#040404"><rect height="19.84" rx="1.95" width="5.44" y="68.76"/><rect height="38.64" rx="2.07" width="5.44" y="104.2"/><rect height="60.4" rx="1.29" width="5.44" x="251.41" y="119.31"/><rect height="38.64" rx="2.07" width="5.44" y="152.8"/><rect height="512" rx="37.83" width="253.15" x="1.98"/></g><path d="m242.87 37.3v438.87a23.9 23.9 0 0 1 -23.87 23.9h-180.85a23.9 23.9 0 0 1 -23.93-23.9v-438.87a23.92 23.92 0 0 1 23.93-23.9h180.85a23.95 23.95 0 0 1 23.91 23.91z" fill="#2c373d"/><path d="m178.27 29.85h-100.85a12.72 12.72 0 0 1 -12.42-10.22l-2.32-11.38h130.32l-2.28 11.38a12.71 12.71 0 0 1 -12.45 10.22z" fill="#040404"/><path d="m144.8 247.88c-.07-7.6 6.2-11.24 6.48-11.42a14 14 0 0 0 -11-6c-4.67-.47-9.12 2.75-11.5 2.75s-6-2.68-9.9-2.6a14.69 14.69 0 0 0 -12.41 7.52c-5.3 9.2-1.35 22.8 3.8 30.23 2.52 3.65 5.53 7.74 9.47 7.6s5.24-2.46 9.83-2.46 5.9 2.46 9.9 2.38 6.68-3.7 9.18-7.37a33.12 33.12 0 0 0 4.15-8.53 13.25 13.25 0 0 1 -8.02-12.09zm-7.55-22.3a13.21 13.21 0 0 0 3.12-9.58 13.47 13.47 0 0 0 -8.84 4.54c-1.94 2.25-3.64 5.84-3.18 9.3 3.36.26 6.8-1.7 8.9-4.25z" fill="#e2e2e2"/><path d="m242.87 37.3v438.87a23.9 23.9 0 0 1 -23.87 23.9h-180.85a24.07 24.07 0 0 1 -12.58-3.56l207.23-478.68a23.82 23.82 0 0 1 10.07 19.48z" opacity=".1"/></svg>