<svg fill="none" height="24" viewBox="0 0 24 24" width="24" xmlns="http://www.w3.org/2000/svg"><g fill="#fbdd11"><path d="m8.12611 11.6376c-.46326.489 2.14859 5.5013 7.82089 4.7846.7228-.0913 4.0525-1.0564 5.0297-5.9983.3014-1.52386-2.4164-.6499-2.8514-.0699-1.0394 1.3865-2.6257 3.0684-3.6802 3.0901-.5444.0109-3.2288-2.2114-5.1253-2.1599-.41218.0111-.8878.0305-1.19369.3534z"/><path d="m15.8737 11.8546c.4635-.489-2.1484-5.50127-7.82067-4.78462-.72281.09134-4.05257 1.05643-5.02976 5.99852-.30136 1.5236 2.41642.6497 2.85125.0697 1.03961-1.3865 2.62591-3.0684 3.68035-3.0901.54443-.0111 3.22883 2.2114 5.12533 2.1599.4122-.0112.8876-.0305 1.1935-.3534z"/></g></svg>