<svg width="430" height="250" viewBox="0 0 430 250" fill="none" xmlns="http://www.w3.org/2000/svg">
  <g clip-path="url(#a)">
    <g clip-path="url(#b)">
      <path d="M-55.682 0h681.818v250H-55.682V0Z" fill="#3A9139"/>
      <path d="M288.15 1.332c-.216-.284-.227-.757-.098-1.332h7.009c-2.454 1.636-6.159 2.348-6.909 1.332h-.002ZM299.007 0h7c.148.575.143 1.046-.052 1.332-.714 1.018-4.46.302-6.946-1.332h-.002Zm15.084 67.955c-.625 1.25-6.591-.166-9.114-2.691.539 3.072.807 4.75.591 4.736-.136.014-.723-1.577-1.541-4.5-1.575 2.377-6.563 3.666-7.743 2.455-1.668-1.673 2.386-10.13 6.646-6.648a209.085 209.085 0 0 1-.882-3.743c-1.841 2.181-6.473 3.311-7.568 2.15-1.273-1.319 1.102-6.853 4.204-7.455.78-.15 1.603.032 2.248.496l.104.072v-.052c-.215-1.06-.431-2.167-.65-3.318-1.022 1.068-2.704 1.868-4.234 2.232-.973.231-3.243.644-3.507-.81-.519-2.361 1.726-5.584 3.778-6.606a2.975 2.975 0 0 1 3.059.138l-.096-.575c-.144-.84-.283-1.699-.418-2.575-2.095 2.007-6.423 2.996-7.409 1.88-2.33-2.604 3.606-8.961 6.63-7.136-.137-.982-.269-1.978-.398-2.99-2.182 1.956-6.421 2.899-7.364 1.796-1.402-1.606 2.955-9.34 6.723-7.215-.103-.944-.202-1.899-.295-2.864-2.255 1.909-6.432 2.823-7.332 1.732-1.348-1.591 3.154-9.255 6.841-7.273l-.205-2.777c-2.318 1.877-6.45 2.766-7.314 1.681-1.302-1.59 3.36-9.197 6.987-7.306-.043-.91-.083-1.819-.121-2.728-2.372 1.86-6.488 2.728-7.318 1.653-1.254-1.591 3.591-9.178 7.164-7.323-.015-.792-.025-1.59-.03-2.393h2.834l.023 2.522c3.477-2.288 8.871 5.573 7.796 7.2-.757 1.114-5.228.148-7.687-1.836.03 1.023.068 2.038.114 3.046 3.432-2.36 9.063 5.538 8.029 7.17-.727 1.118-5.254.136-7.766-1.864.061 1.038.125 2.069.191 3.091 3.364-2.432 9.25 5.507 8.25 7.137-.704 1.122-5.304.125-7.863-1.896.086 1.06.177 2.114.272 3.16 3.285-2.54 9.448 5.454 8.494 7.09-.682 1.137-5.394.105-7.989-1.95.117 1.11.236 2.2.357 3.273 1.727-1.473 4.418.227 6.379 2.34 2.951 3.199 3.083 6.31-2.186 4.512a12.174 12.174 0 0 1-3.582-1.882l.314 2.403.141 1.05c1.841-1.803 5.061.454 7.143 2.895 1.382 1.625 2.273 3.332 1.909 3.993-.643 1.164-5.741.028-8.386-2.166.192 1.297.383 2.543.572 3.737 1.446-1.712 4.005-.455 6.096 1.436 2.091 1.896 3.718 4.427 3.291 5.266-.628 1.198-6.059-.045-8.682-2.364l.718 4.198c2.614-4.095 10.586 4.696 9.773 6.4l.009-.004Z" fill="#3A8C37"/>
      <path d="M403.659 102.257c2.744 49.026.652 98.649.818 147.741h-4.159c-.392-49.366-.851-98.797.027-148.159-6.506 1.935-13.213 1.967-19.931 2.227 1.159-4.114 10.909-7.932 13.204-8.555-4.654-3.69-11.677-10.927-13.204-15.738 8.863-.534 15.668 5.209 19.677 10.554-1.273-5.6-1.646-12.627 1.673-16.573.681 1.075 1.577 3.45 2.356 6.364a49.405 49.405 0 0 1 1.43 7.627c1.961-2.622 4.461-5.181 7.47-7.061 3.01-1.88 6.523-3.077 10.516-2.982-.354 1.591-1.109 3.364-2.159 5.205a39.349 39.349 0 0 1-4.043 5.74c3.88-.931 7.691-1.09 10.441.355-1.636 1.591-8.073 5.053-14.432 7.073 5.841.477 12.091 2.045 14.773 5.727-2.009.659-8.409.95-14.591.212 4.5 2.17 8.841 5.381 10 9.495-3.35-.141-15.118-3.986-19.868-9.259l.002.007ZM203.359 98c1.068-2.152-2.427-5.148-7.45-5.334v-.002c3.961.027 9.802-.24 9.177-3.512-.754-3.89-8.745-1.273-12.231 1.16 1.25-1.862 6.881-9.628 3.704-11.54-3.177-1.91-6.227 4.885-5.841 8.894-.313-2.789-1.473-10.755-5.563-9.318-4.091 1.436.681 9.943 2.727 11.902-2.198-1.787-10.318-6.425-12.009-1.962-1.691 4.464 9.113 4.182 10.063 4.214-2.575.323-13.291 2.839-9.234 6.327.982.844 12.303.953 12.698-2.834l9.255 153.991h1.606l-8.266-154.277c1.387 2.464 10.664 3.7 11.364 2.29Z" fill="#3A8C38"/>
      <path d="M626.136 34.461v2.287c-46.981 5.282-94.688 3.914-141.259-4.291A490.148 490.148 0 0 1 376.273 0h5.832a488.314 488.314 0 0 0 102.547 30.102c46.63 8.277 94.435 9.659 141.489 4.357l-.005.002ZM62.243 116.455c9.423 1.363 11.493 7.672 10.214 9.431-1.42 1.955-3.941 2.45-6.105 1.137-2.163-1.314-5.75-5.643-8.8-7.807 2.977 2.341 11.25 14.545 5.641 16.364-5 1.613-10.188-13.314-12.068-17.219V250h-2.227V119.848c-.969 5.759-3.955 18.691-10.582 15.082-7.687-4.182 2.598-11.944 4.454-14.035-5.268 2.178-8.409 8.473-12.954 3.01-5.25-6.312 10.773-8.557 14.745-8.805-1.454-.143-18.022-.745-15-7.416 3.023-6.67 15 1.205 18.205 4.15-2.955-3.193-9.441-16.677-3.052-18.486 6.388-1.81 7.416 10.5 7.63 14.795-.215-6.173 5.108-16.286 9.795-13.057 4.686 3.23-4.682 14.584-6.778 17.319 5.569-3.387 18.062-6.637 18.841-.603.653 5.068-5.886 5.075-11.954 4.655l-.005-.002Z" fill="#3A8C37"/>
      <path d="M401.591 250H385.4c-.909-1.527-1.364-3.027-.932-3.623.807-1.084 5.227 0 7.605 2.046.012-1.015.019-2.023.022-3.023-3.54 2.227-8.811-5.791-7.681-7.38.791-1.09 5.256.023 7.672 2.082 0-1.03-.009-2.053-.029-3.068-3.5 2.307-8.955-5.759-7.846-7.352.773-1.096 5.319.036 7.757 2.123-.023-1.061-.048-2.11-.075-3.148-3.454 2.427-9.118-5.712-8.034-7.309.764-1.107 5.414.059 7.871 2.182-.038-1.11-.08-2.2-.125-3.273-3.41 2.618-9.319-5.63-8.246-7.239.755-1.12 5.552.091 8.023 2.273-.061-1.182-.121-2.333-.182-3.455-3.323 2.903-9.545-5.509-8.491-7.136.75-1.136 5.761.145 8.218 2.414a484.77 484.77 0 0 0-.241-3.744c-3.218 3.328-9.811-5.322-8.777-6.97.75-1.175 6.068.227 8.477 2.614l-.304-4.205c-3.052 4-10.155-5.014-9.125-6.698.766-1.227 6.591.364 8.863 2.955-.211-3.08-.279-4.773-.077-4.75.152 0 .546 1.609 1.055 4.545 1.832-2.327 6.993-3.468 8.045-2.222 1.477 1.727-3.466 10.05-7.382 6.436l.512 3.768c2.063-2.12 6.818-3.109 7.811-1.918 1.409 1.691-3.425 9.705-7.241 6.675.121 1.083.241 2.21.359 3.38 1.322-1.218 6.025-3.635 7.671-1.753.468.573.204 1.873-.491 3.228-1.332 2.577-4.25 5.34-6.705 3.586.091 1.023.178 2.071.262 3.145 1.269-1.085 6.033-3.558 7.572-1.643.562.705 0 2.5-1.095 4.137-1.489 2.215-3.982 4.159-6.096 2.768.064.977.125 1.971.182 2.982 1.623-1.312 4.218-2.103 5.932-2.073.736 0 1.309.173 1.568.511.605.78-.172 2.887-1.545 4.655-1.523 1.954-3.773 3.491-5.682 2.318.041.939.079 1.892.114 2.859 1.552-1.198 3.904-1.948 5.579-2.009.887-.034 1.591.125 1.868.511.621.818-.306 3.096-1.836 4.909-1.53 1.814-3.652 3.155-5.441 2.114.023.909.042 1.833.057 2.773a10.976 10.976 0 0 1 5.404-1.955c.955-.059 1.714.096 2.01.5.613.825-.38 3.143-1.969 4.964-1.541 1.773-3.636 3.073-5.386 2.086v2.727a11.23 11.23 0 0 1 5.414-1.931c.954-.055 1.697.1 1.986.504.395.577.061 1.805-.686 3.102l.002.005Z" fill="#338233"/>
      <path d="M286.218 119.85c2.41 43.222 1.214 86.87 1.055 130.15h-5.296l.041-130.677c-6.182 6.477-20.575 11.166-24.713 11.329 1.459-5.182 6.922-9.227 12.59-11.959-7.538 1.75-15.193 2.33-17.654 1.523 2.573-7.886 10.114-10.909 17.464-11.705-5.864-4.652-10.875-10.931-12.803-16.995 11.182-.682 19.75 6.563 24.8 13.302-1.607-7.059-2.072-15.909 2.109-20.886 1.523 2.44 4.014 10.19 4.773 17.629 4.943-6.609 12.598-12.897 22.668-12.659-.909 4.046-3.886 9.118-7.813 13.796 4.886-1.171 9.693-1.378 13.159.454-2.064 2.007-10.173 6.364-18.182 8.909 7.364.607 15.243 2.584 18.636 7.219-2.532.829-10.604 1.195-18.386.265 5.682 2.728 11.136 6.78 12.604 11.966-4.222-.172-19.054-5.018-25.05-11.666l-.002.005ZM125.118 250h-17.163c-1.555-38.349-3.644-76.692-6.003-115C98.539 90.025 96.88 44.531 89.239 0h9.886c8.915 83.245 18.008 166.48 25.984 249.82l.016.182-.007-.002ZM221.955 212.6l-2.932-.555 2.659 1.019-2.932 5.018-10.727 1.536 7.763 3.546-4.561 7.818-8.364-1.614 6.939 4.052-4.582 7.853-4.832-.987 4.257 1.978-4.523 7.75h-17.847c-3.47-22.742 23.685-38.522 42.909-42.957l-3.227 5.543ZM56.039 0C53.025 36.499 41.706 86.182 5.955 103.525 3.9 152.33-2.677 201.455-7.902 249.991h-47.78V0h72.673c-2.118 21.782-4.492 43.542-6.745 65.311C33.371 55.141 39.709 21.85 43.355 0H56.04Z" fill="#3A8C37"/>
      <path d="M156.909 66.225c-1.079-.245-3.743-1.46-4.841-2.382-.944.536-1.928 1.525-2.252 2.564.849 4.313 4.528 9.145 7.886 11.904 4.654 57.111 6.647 114.441 8.75 171.689h16.73c0-4.432-2.616-42.002-2.616-42.002v-.046c-.102-1.048 5.579-5.75 7.079-9.284-.054-2.007-.515-3.307-2.136-4.091-1.384 1.064-3.375 1.864-5.989 3.05-6.66-65.868-13.209-131.749-19.906-197.613h-8.982c2.159 22.065 4.283 44.13 6.277 66.21ZM261.405 250h-23.482c-9.445-83.846-26.781-167.647-45.032-250.014h10.777c4.101 24.247 6.615 57.178 27.571 72.787l30.159 177.22.007.007ZM319.664 250h50.591c-.12-83.345-1.217-166.669.84-250l-37.106.014c-1.711 51.27 3.254 104.176-5.655 154.759-4.566-4.03-8.779-13.223-10.084-16.264-1.886 1.432-6.114 5.598-7.273 7.046.614 2.704 5.482 35.279 7.659 69.9.732 11.631 1.164 23.5 1.028 34.545Z" fill="#3A8C37"/>
      <path d="M441.607 0c-71.15 33.992-150.139 51.41-229.03 49.177C142.819 47.264 73.574 30.261 10.709 0h9.62c60.244 27.673 126.009 43.315 192.314 45.082C288.119 46.79 363.219 31.394 431.939 0h9.668Z" fill="#358734"/>
      <path d="M263.055 0c-42.863 26.075-90.883 43.517-140.53 50.76-59.747 8.63-121.29 2.173-178.207-17.75v-7.233C.893 45.974 62.06 52.623 121.557 44.02c44.881-6.498 88.6-21.647 128.034-44.02h13.464Z" fill="#358533"/>
      <path d="M626.136 5.868v7.636c-79.095 39.548-168.031 56.775-256.159 49.63C293.809 56.942 219.136 34.398 151.027 0h15.478c63.717 30.337 133.074 50.527 203.538 56.31 88.183 7.224 177.234-10.276 256.093-50.442Z" fill="#358533"/>
      <path d="m73.875 199.918-11.932 3.761 10.382 1.016c-2.868 7.996-7.386 16.887-13.34 25.546l-19.667-3.666 17.291 7.032c-4.327 5.887-9.175 11.415-14.523 16.395h-71.738c7.177-28.298 27.927-52.067 53.061-66.252l-2.545 9.598 7.545-12.234c7.617-3.78 15.62-6.572 24.06-7.739l-4.326 9.966 9.31-10.309c5.898-.063 13.703 1.346 16.924 6.984l-10.7 8.257 11.841-5.114c.903 4.159.3 10.023-1.645 16.757l.002.002Z" fill="#348730"/>
      <path d="M46.318 201.318-3.486 250h-10.81l60.614-48.682Z" fill="#3A9139"/>
      <path d="m39.614 180.573-16.107 8.359h.09l15-1.137c-2.378 13.753-6.87 27.155-12.679 39.83l-29.038-.318 26.461 5.727a177.683 177.683 0 0 1-9.636 16.973h-69.387v-61.598a169.847 169.847 0 0 1 19.155-18.339l-1.246 14.353 7.728-19.369c9.889-7.226 20.722-13.386 32.45-17.061l-3.696 15.327 10.727-17.052c8.394-1.561 19.94-1.51 25.928 5.752l-13.228 14.473 15.646-10.268c3.056 7.498 2.686 16.395 1.832 24.348Z" fill="#338233"/>
      <path d="M15.007 175.5-40.595 250h-12.216l67.818-74.5Z" fill="#3A9139"/>
      <path d="M340.318 250h-82.486c-1.691-10.51-2.323-21.274-1.523-31.9l12.355 4.125-11.689-10.364c1.214-8.682 3.505-15.663 6.65-19.95l10.909 11.864-8-14.864c6.55-4.794 16.143-2.44 22.852.657l5.369 16.493.136-13.568c7.823 4.727 15.943 11.966 23.5 21.068l2.368 17.791 1.977-12.243A148.067 148.067 0 0 1 340.314 250h.004Z" fill="#338233"/>
      <path d="M301.491 250h-4.896l-17.061-40.993L301.489 250h.002Z" fill="#3A9139"/>
      <path d="m456.959 250 16.648-19h.002c.494-.597-.158-1.544-.909-1.236l-11.591 5.097c-.621.275-1.318-.379-1.045-1.027l7.127-17.075c.31-.756-.707-1.468-1.302-.848l-9.4 9.909c-.494.529-1.452.116-1.364-.631l1.666-14.755c.087-.821-1.11-1.214-1.496-.434l-5.927 12.152c-.324.671-1.403.52-1.493-.252l-1.939-16.205c-.111-.863-1.468-.901-1.57.014l-1.591 15.827c-.071.716-1.077.97-1.461.328l-7.228-11.964c-.422-.705-1.608-.304-1.452.548l2.9 16.152c.113.716-.808 1.216-1.341.682l-10.348-10.5c-.582-.583-1.638.096-1.279.886l7.486 16.196c.286.614-.352 1.323-1.004 1.066l-15.896-6.228c-.757-.292-1.448.724-.829 1.312L433.58 250h23.379ZM187.261 122.789c.273-.875 1.948-4.234 7.455-3.757h.004c5.512.477 1.741 9.748-.629 11.868-2.371 2.12-12.132 1.48-17.046 2.559-5.863 1.296-10 12.368-15.295 15.614 2.409 2 6.505 3.92 9.284 3.682 2.109-2.273 4.777-1.923 6.836-.228 2.919 2.398-3.636 11.259-7.704 11.75-3.396.412-7.836-5.143-15.773-6.763-7.211-1.471-18.143-1.587-19.166-1.605-14.837-5.891-26.123-14.113-26.818-31.886-5.641-3.341-9.545-8.675-12.202-14.898-7.771-2.429-17.375-18.292-4.716-20.223-1.495-15.622.818-30.386 1.364-32.107-3.7.228-4.219-1.259-4.137-6.386.102-5.798 3-6.593 8.41-6.516 5.174.075 8.697.773 8.811 4.796.172 6.268-1.25 8.382-4.005 8.086-1.195 5.366-1.95 13.166-.718 22.696 7.652-15.676 26.925-16.187 27.595-17.687.807-1.813-5.193-.511-6.897-2.216-2.059-2.05 14.736-2.061 14.759 3.257 0 .417-.324 3.88-13.752 5.724 6.679-.908 14.93-.784 20.463 3.501-2.886-14.618-3.745-16.845-6.432-21.345-3.254 1.481-4.677-1.564-5.754-5.11-.971-3.213-.266-5.82 5.832-7.327 5.72-1.393 8.931.064 10.538 4.091 1.816 4.557.366 5.218-2.236 6.186 2.268 3.296 6.732 14.519 8.759 29.182 9.747 1.172 5.902 15.536.909 20.091a93.089 93.089 0 0 1-1.15 10.718c7.661 3.9 10.652 13.019 11.648 20.825 5.504-7.738 18.982-6.591 21.763-6.572Z" fill="#338233"/>
      <path d="M135.909 153.409c-5 5.682-13.12 12.768-22.727 6.364-9.546-6.364-7.907-12.955-10.682-19.546-3.062-7.273-13.636-10.454-18.864-4.545-6.751 7.632 2.782 20.668 9.773 16.591 3.41-1.989 2.954-5.682-1.364-8.637" stroke="#338233" stroke-width="5" stroke-linecap="round" stroke-linejoin="round"/>
      <path d="M447.761 21.291c-1.693-.357-2.204.327-2.47 1.345-.386 1.507 0 1.994.716 2.023a18.603 18.603 0 0 1-.712 6.137c-.295-1.53-1.568-2.653-3.181-3.357 2.711.602 3.081-.084 3.12-.178.55-1.306-3.568-3.056-3.277-2.34.241.595 1.845.909 1.459 1.26-.318.3-6.105-1.204-8.971 1.25.887-3.308 1.462-4.215 2.337-5.272.782.51 1.67-.44 2.091-1.318.379-.79.597-1.668-1.219-2.35-1.709-.643-2.559-.177-3.136.802-.65 1.107-.666 1.818-.029 2.17-1.182 1.698-1.994 2.873-2.814 6.79-2.565-.108-2.152 3.778-1.043 5.15a24.373 24.373 0 0 0-.125 2.82c-2.137.704-3.273 2.954-3.837 4.927-1.118-2.22-4.318-2.132-5.031-2.236-.037-.239-.337-1.416-1.78-1.269-1.443.148-.832 2.455-.302 3.1.529.646 3.082.864 4.318 1.337 1.466.568 1.757 3.273 3 4.318-.705.423-2.173.455-2.882.291-.454-.682-.964-1.016-1.736-.614-.878.455.125 2.728 1.159 3.014.864.24 2.909-.114 5.029-.227 1.923-.096 4.698.42 4.964.454 4.014-.26 7.5-3.329 8.264-7.293 1.591-.643 2.811-1.864 3.745-3.373 2.093-.299 5.235-4.199 2.021-5.036 1-3.982.988-7.895.909-8.364.947.205 1.077-.022 1.322-1.488.3-1.782-.3-2.146-1.909-2.484v.011Z" fill="#3A8C37"/>
      <path d="M232.273 97.727c-2.289 2.409-7.523 4.299-11.137 1.364-3.493-2.837-.226-8.84-2.5-11.364-2.452-2.721-6.426-2.136-8.353.755-2.65 3.975 2.899 9.7 4.944 4.7" stroke="#358734" stroke-width="2.65" stroke-linecap="round" stroke-linejoin="round"/>
      <path d="M256.591 99.332c-1.182-1.28-3.45-.95-4.359-.277-1.739-.505-3.536-2.796-4.921-4.6 2.546-4.85.455-12.241-.8-13.666 1.244-1.55 1.928-3.712 2.273-5.91 3.168-2.031 5.966-10.292.134-10.179.698-5.523-1.363-14.105-1.613-15.189 1.675-.09 1.409-1.716 1.238-3.068-.373-2.88-2.375-2.913-4.268-2.69-2.909.34-3.636 1.836-3.282 3.517.364 1.819.425 3.228 2.182 2.848.295.886 1.493 8.546 1.136 11.8-1.386-2.489-4.69-3.675-8.363-3.864 4.973-.484 5.227-1.87 5.243-2.045.227-2.573-7.898-3.295-6.993-2.218.75.898 3.704.53 3.238 1.364-.386.695-12.34 1.727-15.188 7.559-.955-4.114-.262-11.17-.137-12.046 1.591.227 2.432-1.739 2.35-3.582-.072-1.672-.977-3.075-3.681-3.072-1.539 0-4.219.163-4.332 3.204-.041 1.136.029 3.36 1.738 3.423-.068 1.227-1.3 8.968-.077 15.19-5.56.648-2.042 8.37 1.125 10.094.539 2.364 1.841 4.627 4.677 7.068-.681 5.962.778 12.393 4.728 15.291.452.77 2.309 2.482 2.309 2.482.945 4.682 5.204 8.663 7.222 9.032 3.182.577 6.237-1.264 6.178-2.682-.091-2.114-3.098-2.291-4.205-2.046-1.136-.972-3.159-2.738-3.863-5.325 1.363-.104 5.704-1.363 6.718-2.1 2.727 4.296 6.868 7.084 9.445 6.607 3.423-.62 5.114-3.879 4.146-4.925l.002.005Z" fill="#358734"/>
      <path d="M180.889 250h-55.146c-5.272-1.383-26.243-4.971-24.513-13.2.844-3.978 10.815-3.413 13.77-3.348-5.514-5.095-8.734-9.904-7.082-12.663 1.25-2.084 6.818-1.259 13.837 1.227-3.541-6.591-5-12.171-2.555-14.236 3.247-2.742 10.8 4.145 12.918 5.84-1.204-7.409-.782-13.181 2.218-14.34 2.514-.966 7 4.147 11.455 11.613 1.818-9.136 4.841-16.045 8.561-15.893 2.607.114 4.641 6.198 5.773 14.418 1.992-3.426 7.261-12.798 12.223-10.952 2.304.864 2.477 6.62 1.25 14.125 11.725-9.338 17.419-4.952 10.297 8.391 13.963-4.978 17.992 1.128 6.746 11.507 3.518-.075 12.796-.387 13.843 4.343 1.453 6.642-19.802 12.053-23.595 13.168Z" fill="#338233"/>
      <path d="M152.205 250h-1.123c-.198-11.668 1.545-45.266 2.477-45.227.705.029-.232 33.572-1.352 45.227h-.002Zm42.636-11.441c.077.35-8.409 2.532-18.273 4.836a122.2 122.2 0 0 0 3.58-2.454c8.15-1.655 14.602-2.78 14.691-2.38l.002-.002Zm-5.039-13.189c.187.305-7.045 5.082-15.554 10.439.873-1.136 1.727-2.3 2.554-3.466 7.114-4.188 12.787-7.318 13-6.973Zm-60.65 18.641c-9.945-2.204-18.527-4.336-18.431-4.802.063-.302 6.499.78 14.643 2.346a104.32 104.32 0 0 0 3.786 2.454l.002.002Zm-.318-11.056a105.007 105.007 0 0 0 2.75 3.522c-8.514-5.227-15.704-9.904-15.466-10.307.159-.263 5.7 2.739 12.714 6.782l.002.003Zm7.937-2.296c-6.478-7.859-11.925-14.827-11.562-15.136.227-.2 4.637 4.613 10.087 10.863.462 1.435.954 2.859 1.477 4.273h-.002Zm32.459-.8c.454-1.364.895-2.757 1.306-4.141 5.403-6.325 9.796-11.188 10.114-10.927.277.227-5.068 7.177-11.418 15.068h-.002Zm-25.078-6.086a111.66 111.66 0 0 0-.193 4.132c-3.773-10.055-6.932-19.16-6.468-19.341.309-.119 3.257 6.75 6.659 15.204l.002.005Zm16.882 6.188c.075-1.72.109-3.466.109-5.213 3.637-9.393 6.966-17.409 7.409-17.243.387.145-3.391 11.204-7.516 22.454l-.002.002Z" fill="#3A9139"/>
      <path d="M450.227 161.818c7.45-6.413 9.666-19.888 7.384-31.707 3.05-3.091 5.228-7.5 6.7-12.029 5.085-3.746 10.426-15.827 2.066-18.993 2.387-18.228-2.068-32.153-2.391-34.585 3.409-.395 3.205-4.863 2.941-7.118-.704-6.061-6.091-5.966-9.166-5.727-5.413.42-7 3.364-6.886 6.72.127 3.7 2.136 7.5 5.261 6.796.394 1.711 2.882 15.71 1.621 24.09-3.759-3.285-7.121-5.717-11.055-7.285 7.932-.098 8.698-2.423 8.773-2.76 1.17-5.186-15.198-8.94-13.655-6.484 1.282 2.046 7.419 2.12 6.228 3.705-.989 1.313-29.818.989-34.546 14.695-1.213-6.454-.013-21.966.432-23.78 3.577.485 3.471-2.363 3.923-6.036.418-3.42-1.25-6.295-7.114-6.522-3.818-.148-7.823.227-8.113 6.052-.137 2.727-.41 6.018 2.954 5.932-.329 2.209-3.109 19.704-.852 30.636-11.586 1.073-4.817 16.752 1.859 20.309 1.032 4.341 2.741 8.555 5.454 11.459-2.29 3.046-5.304 18.159.546 27.455-2.484 3.827-5.841 9.418-9.236 10.7-1.923-1.205-6.964-.818-8 1.836-1.037 2.655 3.113 9.35 10.054 10.08 5.227.552 11.552-7.841 16.314-16.859 2.141 1.329 10.586 3.152 13.311 3.147-.986 5.282-3.829 10.228-5.943 12.346-2.25-.302-7.973.454-7.941 5.159.023 2.852 6.514 6.052 12.773 4.398 3.982-1.053 10.818-10.493 13.079-20.682.97-4.368 3.225-4.948 3.225-4.948Z" fill="#338233"/>
    </g>
    <path d="M431 251v-57c-97-37-172.5 9-238.5 9S45.5 180.5-1 203v48h432Z" fill="#fff"/>
    <path d="M27.228 228h1.476l2.952-8.4H30.06l-2.088 6.444-2.088-6.444h-1.596c.972 2.796 1.968 5.604 2.94 8.4Zm7.046 0v-6.072h-1.476V228h1.476Zm-1.692-7.872c0 .528.408.924.96.924s.984-.396.984-.924-.432-.936-.984-.936-.96.408-.96.936Zm2.863 6.432c.348 1.164 1.464 1.572 2.448 1.572 1.26 0 2.376-.648 2.376-1.848 0-.528-.252-1.308-1.548-1.74l-.9-.324c-.336-.12-.636-.288-.636-.624 0-.42.408-.636.792-.636.324 0 .768.132.924.624l1.188-.432c-.396-1.092-1.356-1.356-2.124-1.356-1.26 0-2.22.708-2.22 1.836 0 .552.312 1.236 1.524 1.692l.888.336c.372.156.66.336.66.648 0 .48-.48.636-.912.636-.552 0-1.14-.276-1.296-.876l-1.164.492Zm7.57 1.44v-6.072H41.54V228h1.476Zm-1.691-7.872c0 .528.408.924.96.924s.984-.396.984-.924-.432-.936-.984-.936-.96.408-.96.936Zm5.215.18h-1.14l-.264 1.62h-1.02v1.128h.948v2.976c0 1.668.996 2.1 2.004 2.1 1.308 0 1.92-.792 1.92-1.68 0-.108-.024-.456-.132-.684h-1.212c.06.132.084.372.084.504 0 .372-.24.624-.6.624-.432 0-.588-.288-.588-.66v-3.18h1.812v-1.128h-1.812v-1.62Zm13.253 4.572c0-1.8-1.152-3.228-2.976-3.228-.828 0-1.512.384-1.896.96v-3.288h-2.064V228h2.064v-.852c.396.612 1.008.984 1.872.984 1.8 0 3-1.416 3-3.252Zm-2.076 0c0 .912-.54 1.632-1.416 1.632-.816 0-1.428-.588-1.428-1.572 0-.996.588-1.656 1.464-1.656s1.38.72 1.38 1.596Zm4.849 0c0-.876.516-1.596 1.392-1.596.876 0 1.464.66 1.464 1.656 0 .984-.624 1.572-1.44 1.572-.876 0-1.416-.72-1.416-1.632Zm2.808-3.096v.828c-.384-.576-1.08-.96-1.896-.96-1.824 0-2.988 1.428-2.988 3.228 0 1.836 1.212 3.252 3 3.252.876 0 1.488-.372 1.884-.984V228h2.064v-6.216h-2.064ZM68.829 228h2.064v-3.36c0-.708.252-1.332.996-1.332.756 0 .984.732.984 1.332V228h2.064v-3.48c0-1.356-.384-2.868-2.196-2.868-.792 0-1.404.288-1.848.948v-.816h-2.064V228Zm9.146-3.12c0-.876.516-1.596 1.392-1.596.876 0 1.464.66 1.464 1.656 0 .984-.624 1.572-1.44 1.572-.876 0-1.416-.72-1.416-1.632Zm2.808-3.096v.828c-.384-.576-1.08-.96-1.896-.96-1.824 0-2.988 1.428-2.988 3.228 0 1.836 1.212 3.252 3 3.252.876 0 1.488-.372 1.884-.984V228h2.064v-6.216h-2.064ZM84.239 228h2.064v-3.36c0-.708.252-1.332.996-1.332.756 0 .984.732.984 1.332V228h2.064v-3.48c0-1.356-.384-2.868-2.196-2.868-.792 0-1.404.288-1.848.948v-.816h-2.064V228Zm14.054-3.108c0-1.788-1.56-3.24-3.504-3.24-1.932 0-3.504 1.44-3.504 3.24 0 1.8 1.572 3.24 3.504 3.24 1.944 0 3.504-1.452 3.504-3.24Zm-5.016 0c0-.9.624-1.548 1.512-1.548s1.512.648 1.512 1.548-.624 1.536-1.512 1.536-1.512-.636-1.512-1.536Zm5.816 2.148c0 .624.516 1.092 1.224 1.092.696 0 1.248-.468 1.248-1.092 0-.648-.552-1.128-1.248-1.128-.708 0-1.224.48-1.224 1.128Zm3.266-2.148c0 1.824 1.44 3.24 3.564 3.24.756 0 1.668-.192 2.592-.936-.168-.252-.804-1.104-.972-1.356a2.3 2.3 0 0 1-1.5.576c-.948 0-1.608-.636-1.608-1.524s.66-1.512 1.608-1.512c.324 0 .948.084 1.5.576.168-.252.804-1.104.972-1.356-.924-.744-1.836-.948-2.592-.948-2.124 0-3.564 1.416-3.564 3.24Zm6.551 0c0 1.824 1.44 3.24 3.564 3.24.756 0 1.668-.192 2.592-.936-.168-.252-.804-1.104-.972-1.356a2.3 2.3 0 0 1-1.5.576c-.948 0-1.608-.636-1.608-1.524s.66-1.512 1.608-1.512c.324 0 .948.084 1.5.576.168-.252.804-1.104.972-1.356-.924-.744-1.836-.948-2.592-.948-2.124 0-3.564 1.416-3.564 3.24Zm12.067-4.584h-1.14l-.264 1.62h-1.02v1.128h.948v2.976c0 1.668.996 2.1 2.004 2.1 1.308 0 1.92-.792 1.92-1.68 0-.108-.024-.456-.132-.684h-1.212c.06.132.084.372.084.504 0 .372-.24.624-.6.624-.432 0-.588-.288-.588-.66v-3.18h1.812v-1.128h-1.812v-1.62Zm2.994 4.656c0 1.764 1.536 3.168 3.288 3.168 1.776 0 3.3-1.416 3.3-3.168 0-1.74-1.524-3.168-3.3-3.168-1.752 0-3.288 1.416-3.288 3.168Zm1.488 0c0-1.068.78-1.908 1.8-1.908 1.032 0 1.812.852 1.812 1.908 0 1.068-.78 1.908-1.812 1.908-1.02 0-1.8-.84-1.8-1.908Zm9.431 4.044c0 .384-.216.648-.588.648-.36 0-.576-.228-.576-.6 0-.06 0-.228.048-.348h-1.236c-.072.168-.084.444-.084.492 0 .888.6 1.68 1.908 1.68 1.02 0 2.004-.528 2.004-1.98v-6.972h-1.476v7.08Zm-.228-8.88c0 .528.408.924.96.924s.984-.396.984-.924-.432-.936-.984-.936-.96.408-.96.936Zm2.985 4.836c0 1.764 1.536 3.168 3.288 3.168 1.776 0 3.3-1.416 3.3-3.168 0-1.74-1.524-3.168-3.3-3.168-1.752 0-3.288 1.416-3.288 3.168Zm1.488 0c0-1.068.78-1.908 1.8-1.908 1.032 0 1.812.852 1.812 1.908 0 1.068-.78 1.908-1.812 1.908-1.02 0-1.8-.84-1.8-1.908Zm7.861 3.036v-6.072h-1.476V228h1.476Zm-1.692-7.872c0 .528.408.924.96.924s.984-.396.984-.924-.432-.936-.984-.936-.96.408-.96.936Zm3.391 7.872h1.476v-3.036c0-1.272.696-1.92 1.56-1.92.732 0 1.176.552 1.176 1.608V228h1.476v-3.36c0-1.752-.732-2.844-2.244-2.844-.864 0-1.584.36-1.968 1.152v-1.02h-1.476V228Zm15.94-6.072h-1.476v2.628c0 1.716-.876 2.28-1.56 2.28-.792 0-1.176-.576-1.176-1.56v-3.348h-1.476v3.36c0 1.752.744 2.844 2.256 2.844.864 0 1.572-.36 1.956-1.152V228h1.476v-6.072Zm1.157 4.632c.348 1.164 1.464 1.572 2.448 1.572 1.26 0 2.376-.648 2.376-1.848 0-.528-.252-1.308-1.548-1.74l-.9-.324c-.336-.12-.636-.288-.636-.624 0-.42.408-.636.792-.636.324 0 .768.132.924.624l1.188-.432c-.396-1.092-1.356-1.356-2.124-1.356-1.26 0-2.22.708-2.22 1.836 0 .552.312 1.236 1.524 1.692l.888.336c.372.156.66.336.66.648 0 .48-.48.636-.912.636-.552 0-1.14-.276-1.296-.876l-1.164.492Zm7.763-6.96h-1.776v.18l.372 5.508h1.032l.372-5.508v-.18Zm-1.884 7.584c0 .54.432.948 1.008.948.564 0 1.008-.408 1.008-.948 0-.552-.444-.972-1.008-.972-.576 0-1.008.42-1.008.972Z" fill="#136013"/>
    <path d="M89.447 32.784h-6.18l-.8 2.219h-2.352l5.558-13.985h1.367l5.576 13.985h-2.368l-.801-2.219Zm-.682-1.885-2.4-6.602-2.402 6.602h4.802Zm27.555 1.884h-6.177l-.823 2.22h-2.351l5.576-13.985h1.368l5.579 13.985h-2.373l-.801-2.219.002-.001Zm-.684-1.884-2.398-6.602-2.403 6.602h4.801Zm22.572 3.302a7.159 7.159 0 0 1 0-12.399 7.217 7.217 0 0 1 7.207 0 7.158 7.158 0 0 1 0 12.399 7.214 7.214 0 0 1-7.207 0Zm6.171-1.804a5.014 5.014 0 0 0 2.512-4.391 5.094 5.094 0 0 0-5.125-5.067 5.109 5.109 0 0 0-2.51.671 5.01 5.01 0 0 0-2.515 4.392 5.099 5.099 0 0 0 3.169 4.692 5.11 5.11 0 0 0 4.469-.297ZM78.588 29.11a3.48 3.48 0 0 1 .644 2.146 3.649 3.649 0 0 1-.522 1.955 3.612 3.612 0 0 1-1.429 1.304c-.62.322-1.308.49-2.006.489h-5.909V21.018h5.224a4.36 4.36 0 0 1 2.023.469 3.61 3.61 0 0 1 1.445 1.354 3.7 3.7 0 0 1 .525 1.98 3.56 3.56 0 0 1-.46 1.852 3.226 3.226 0 0 1-1.306 1.211 3.544 3.544 0 0 1 1.771 1.225Zm-2.529 3.628c.32-.166.587-.416.775-.722.19-.308.287-.664.281-1.025a1.913 1.913 0 0 0-.286-1.03 2.142 2.142 0 0 0-1.845-1.015h-3.53V33h3.515c.38.008.756-.083 1.09-.264Zm.134-8.766a1.987 1.987 0 0 0-.77-.696 2.21 2.21 0 0 0-1.066-.26h-2.903v4.04h2.89a2.138 2.138 0 0 0 1.837-1.021c.19-.314.29-.676.286-1.043a1.874 1.874 0 0 0-.273-1.02h-.001Zm29.211-2.954v13.986h-.87l-8.161-9.484v9.486h-2.15V21.018h.84l8.191 9.43v-9.433h2.15Zm26.873 0v13.986h-.87l-8.157-9.486v9.486h-2.151V21.018h.846l8.182 9.43v-9.431h2.15Zm-80.92 16.835c-11.985 1.51-17.505-9.051-16.526-10.082.646-.679 1.652-.72 2.522-.744 4.008-.108 9.68 4.573 10.831 4.551 2.228-.046 5.58-3.589 7.776-6.51.92-1.222 6.661-3.064 6.025.148-2.066 10.41-9.101 12.443-10.629 12.635v.002ZM34.677 18.147c11.986-1.51 17.504 9.05 16.526 10.082-.647.679-1.651.72-2.522.744-4.008.108-9.68-4.575-10.83-4.551-2.228.046-5.58 3.588-7.776 6.51-.92 1.222-6.662 3.064-6.025-.147 2.063-10.41 9.1-12.444 10.627-12.637v-.001ZM50.178 101v-3.322h3.311v-.902h-3.311v-2.574h3.795V93.3h-4.895v7.7h1.1Zm4.353-2.75a2.875 2.875 0 0 0 2.882 2.871c1.595 0 2.893-1.287 2.893-2.871 0-1.573-1.298-2.871-2.893-2.871a2.882 2.882 0 0 0-2.882 2.871Zm1.067.011c0-1.067.814-1.936 1.815-1.936 1.012 0 1.826.869 1.826 1.936 0 1.056-.814 1.914-1.826 1.914-1.001 0-1.815-.858-1.815-1.914Zm7.046-2.761h-1.067v5.5h1.067v-2.079c0-2.343 1.034-2.519 1.396-2.519.198 0 .407.044.584.143V95.5a1.224 1.224 0 0 0-.506-.121c-.682 0-1.287.495-1.474 1.364V95.5Zm6.913.836h1.749V95.5h-1.75v-1.584h-.824L68.49 95.5h-.902v.836h.902v2.926c0 1.408.847 1.859 1.716 1.859 1.067 0 1.628-.616 1.628-1.397 0 0 0-.374-.1-.594H70.8c.077.165.088.374.088.451 0 .407-.33.605-.671.605-.363 0-.66-.242-.66-.847v-3.003ZM76.794 101h1.067v-3.102c0-1.771-.924-2.519-2.112-2.519-.902 0-1.617.44-1.848 1.221v-3.553h-1.067V101h1.067v-2.552c0-1.738 1.2-2.123 1.771-2.123.583 0 1.122.407 1.122 1.573V101Zm7.167-1.518c-.55.473-1.144.693-1.804.693-1.22 0-2.079-.759-2.046-1.826h4.697c0-2.035-1.353-2.97-2.805-2.97-1.705 0-2.959 1.287-2.959 2.893 0 1.562 1.188 2.849 3.102 2.849.814 0 1.705-.231 2.41-1.023l-.595-.616Zm-1.936-3.168c.605 0 1.386.209 1.683 1.21H80.21c.363-.957 1.166-1.21 1.815-1.21Zm7.98 4.686h-1.067v-5.5h1.067v5.5Zm-1.276-7.271c0 .418.319.737.737.737a.733.733 0 0 0 .748-.737.742.742 0 0 0-.748-.748.733.733 0 0 0-.737.748Zm6.96 7.271h1.068v-3.102c0-1.771-.924-2.519-2.112-2.519-.902 0-1.617.44-1.848 1.221v-1.1H91.73v5.5h1.067v-2.552c0-1.738 1.199-2.123 1.77-2.123.584 0 1.123.407 1.123 1.573V101Zm6.1-4.312c-.308-.99-1.067-1.309-1.837-1.309-1.088 0-1.814.704-1.814 1.639 0 .759.472 1.232 1.352 1.496l.737.253c.385.132.693.319.693.693 0 .429-.396.748-.945.748-.561 0-1.056-.319-1.188-.759l-.947.231c.254.946 1.156 1.441 2.123 1.441 1.067 0 1.98-.605 1.98-1.65 0-.583-.275-1.232-1.32-1.551l-.791-.264c-.33-.11-.66-.297-.66-.66 0-.396.319-.704.814-.704.34 0 .681.11.857.605l.946-.209Zm2.766-.352h1.749V95.5h-1.749v-1.584h-.825l-.242 1.584h-.902v.836h.902v2.926c0 1.408.847 1.859 1.716 1.859 1.067 0 1.628-.616 1.628-1.397 0 0 0-.374-.099-.594h-.935c.077.165.088.374.088.451 0 .407-.33.605-.671.605-.363 0-.66-.242-.66-.847v-3.003Zm4.344-.836h-1.067v5.5h1.067v-2.079c0-2.343 1.034-2.519 1.397-2.519.198 0 .407.044.583.143V95.5a1.224 1.224 0 0 0-.506-.121c-.682 0-1.287.495-1.474 1.364V95.5Zm3.941 0h-1.067v3.102c0 1.771.924 2.519 2.112 2.519.902 0 1.617-.44 1.848-1.221v1.1h1.067v-5.5h-1.067v2.552c0 1.738-1.199 2.123-1.771 2.123-.583 0-1.122-.407-1.122-1.573V95.5Zm5.242 2.816c0 1.562 1.144 2.805 3.091 2.805.495 0 1.232-.121 1.969-.671l-.506-.726c-.583.44-1.276.451-1.419.451-1.188 0-2.068-.792-2.068-1.925s.88-1.925 2.068-1.925c.143 0 .836.011 1.419.451l.506-.726a3.276 3.276 0 0 0-1.969-.671c-2.002 0-3.091 1.32-3.091 2.937Zm7.549-1.98h1.749V95.5h-1.749v-1.584h-.825l-.242 1.584h-.902v.836h.902v2.926c0 1.408.847 1.859 1.716 1.859 1.067 0 1.628-.616 1.628-1.397 0 0 0-.374-.099-.594h-.935c.077.165.088.374.088.451 0 .407-.33.605-.671.605-.363 0-.66-.242-.66-.847v-3.003Zm4.378 4.664h-1.067v-5.5h1.067v5.5Zm-1.276-7.271c0 .418.319.737.737.737a.733.733 0 0 0 .748-.737.742.742 0 0 0-.748-.748.733.733 0 0 0-.737.748Zm2.583 4.521a2.875 2.875 0 0 0 2.882 2.871c1.595 0 2.893-1.287 2.893-2.871 0-1.573-1.298-2.871-2.893-2.871a2.882 2.882 0 0 0-2.882 2.871Zm1.067.011c0-1.067.814-1.936 1.815-1.936 1.012 0 1.826.869 1.826 1.936 0 1.056-.814 1.914-1.826 1.914-1.001 0-1.815-.858-1.815-1.914Zm9.939 2.739h1.067v-3.102c0-1.771-.924-2.519-2.112-2.519-.902 0-1.617.44-1.848 1.221v-1.1h-1.067v5.5h1.067v-2.552c0-1.738 1.199-2.123 1.771-2.123.583 0 1.122.407 1.122 1.573V101Zm6.099-4.312c-.308-.99-1.067-1.309-1.837-1.309-1.089 0-1.815.704-1.815 1.639 0 .759.473 1.232 1.353 1.496l.737.253c.385.132.693.319.693.693 0 .429-.396.748-.946.748-.561 0-1.056-.319-1.188-.759l-.946.231c.253.946 1.155 1.441 2.123 1.441 1.067 0 1.98-.605 1.98-1.65 0-.583-.275-1.232-1.32-1.551l-.792-.264c-.33-.11-.66-.297-.66-.66 0-.396.319-.704.814-.704.341 0 .682.11.858.605l.946-.209Zm3.917 1.562a2.875 2.875 0 0 0 2.882 2.871c1.595 0 2.893-1.287 2.893-2.871 0-1.573-1.298-2.871-2.893-2.871a2.882 2.882 0 0 0-2.882 2.871Zm1.067.011c0-1.067.814-1.936 1.815-1.936 1.012 0 1.826.869 1.826 1.936 0 1.056-.814 1.914-1.826 1.914-1.001 0-1.815-.858-1.815-1.914Zm9.939 2.739h1.067v-3.102c0-1.771-.924-2.519-2.112-2.519-.902 0-1.617.44-1.848 1.221v-1.1h-1.067v5.5h1.067v-2.552c0-1.738 1.199-2.123 1.771-2.123.583 0 1.122.407 1.122 1.573V101Zm9.539 0h1.067v-3.102c0-1.771-.924-2.519-2.112-2.519-.902 0-1.617.44-1.848 1.221v-3.553h-1.067V101h1.067v-2.552c0-1.738 1.199-2.123 1.771-2.123.583 0 1.122.407 1.122 1.573V101Zm2.25-2.75a2.875 2.875 0 0 0 2.882 2.871c1.595 0 2.893-1.287 2.893-2.871 0-1.573-1.298-2.871-2.893-2.871a2.882 2.882 0 0 0-2.882 2.871Zm1.067.011c0-1.067.814-1.936 1.815-1.936 1.012 0 1.826.869 1.826 1.936 0 1.056-.814 1.914-1.826 1.914-1.001 0-1.815-.858-1.815-1.914Zm7.765 1.309-1.43-4.07h-1.111l1.991 5.5h1.012l1.243-3.828 1.243 3.828h1.012l1.991-5.5h-1.111l-1.43 4.07-1.254-3.905h-.902l-1.254 3.905Zm11.007-3.234h1.749V95.5h-1.749v-1.584h-.825l-.242 1.584h-.902v.836h.902v2.926c0 1.408.847 1.859 1.716 1.859 1.067 0 1.628-.616 1.628-1.397 0 0 0-.374-.099-.594h-.935c.077.165.088.374.088.451 0 .407-.33.605-.671.605-.363 0-.66-.242-.66-.847v-3.003Zm2.859 1.914a2.875 2.875 0 0 0 2.882 2.871c1.595 0 2.893-1.287 2.893-2.871 0-1.573-1.298-2.871-2.893-2.871a2.882 2.882 0 0 0-2.882 2.871Zm1.067.011c0-1.067.814-1.936 1.815-1.936 1.012 0 1.826.869 1.826 1.936 0 1.056-.814 1.914-1.826 1.914-1.001 0-1.815-.858-1.815-1.914ZM49.914 109.5h-1.067v5.5h1.067v-2.079c0-2.343 1.034-2.519 1.397-2.519.198 0 .407.044.583.143V109.5a1.224 1.224 0 0 0-.506-.121c-.682 0-1.287.495-1.474 1.364V109.5Zm7.342 3.982c-.55.473-1.144.693-1.804.693-1.22 0-2.079-.759-2.046-1.826h4.697c0-2.035-1.353-2.97-2.805-2.97-1.705 0-2.959 1.287-2.959 2.893 0 1.562 1.188 2.849 3.102 2.849.814 0 1.705-.231 2.41-1.023l-.595-.616Zm-1.936-3.168c.605 0 1.386.209 1.683 1.21h-3.498c.363-.957 1.166-1.21 1.815-1.21Zm3.583 1.936c0 1.573 1.078 2.871 2.728 2.871.737 0 1.463-.253 1.991-1.001v.88h1.067v-7.953h-1.067v3.333c-.528-.748-1.254-1.001-1.99-1.001-1.65 0-2.729 1.298-2.729 2.871Zm4.741 0c-.01 1.111-.77 1.925-1.88 1.925-1.145 0-1.794-.88-1.794-1.925s.65-1.925 1.793-1.925c1.111 0 1.87.814 1.881 1.925Zm7.233 1.232c-.55.473-1.144.693-1.804.693-1.22 0-2.079-.759-2.046-1.826h4.697c0-2.035-1.353-2.97-2.805-2.97-1.705 0-2.959 1.287-2.959 2.893 0 1.562 1.188 2.849 3.102 2.849.814 0 1.705-.231 2.41-1.023l-.595-.616Zm-1.936-3.168c.605 0 1.386.209 1.683 1.21h-3.498c.363-.957 1.166-1.21 1.815-1.21Zm8.478 3.168c-.55.473-1.144.693-1.804.693-1.22 0-2.079-.759-2.046-1.826h4.697c0-2.035-1.353-2.97-2.805-2.97-1.705 0-2.959 1.287-2.959 2.893 0 1.562 1.188 2.849 3.102 2.849.814 0 1.705-.231 2.41-1.023l-.595-.616Zm-1.936-3.168c.605 0 1.386.209 1.683 1.21h-3.498c.363-.957 1.166-1.21 1.815-1.21Zm7.73 4.686h1.067v-2.673c.055-1.683 1.045-2.002 1.562-2.002.583 0 1.122.407 1.122 1.573V115h1.067v-3.102c0-1.771-.825-2.519-2.123-2.519-.66 0-1.419.198-1.87 1.155-.429-.979-1.22-1.155-1.749-1.155-.814 0-1.529.418-1.76 1.221v-1.1h-1.067v5.5h1.067v-2.552c0-1.738.99-2.123 1.562-2.123.583 0 1.122.407 1.122 1.573V115Zm11.266-1.397-1.683-4.103h-1.221l2.321 5.313-1.023 2.651h1.034l3.377-7.964h-1.243l-1.562 4.103Zm3.224-1.353a2.875 2.875 0 0 0 2.882 2.871c1.595 0 2.893-1.287 2.893-2.871 0-1.573-1.298-2.871-2.893-2.871a2.882 2.882 0 0 0-2.882 2.871Zm1.067.011c0-1.067.814-1.936 1.815-1.936 1.012 0 1.826.869 1.826 1.936 0 1.056-.814 1.914-1.826 1.914-1 0-1.815-.858-1.815-1.914Zm6.958-2.761h-1.067v3.102c0 1.771.924 2.519 2.112 2.519.902 0 1.617-.44 1.848-1.221v1.1h1.067v-5.5h-1.067v2.552c0 1.738-1.199 2.123-1.771 2.123-.583 0-1.122-.407-1.122-1.573V109.5Zm6.716 0h-1.067v5.5h1.067v-2.079c0-2.343 1.034-2.519 1.397-2.519.198 0 .407.044.583.143V109.5a1.224 1.224 0 0 0-.506-.121c-.682 0-1.287.495-1.474 1.364V109.5Zm11.094-.22c0-1.232-1.078-1.98-2.541-1.98h-2.739v7.7h3.091c1.529 0 2.563-.814 2.563-2.046 0-.957-.616-1.771-1.848-1.892 1.012-.253 1.474-.979 1.474-1.782Zm-2.75 2.277c1.408 0 1.991.66 1.991 1.364 0 .715-.605 1.177-1.43 1.177h-1.991v-2.541h1.43Zm-1.43-.858v-2.497h1.639c.748 0 1.408.396 1.408 1.155 0 .671-.506 1.342-1.848 1.342h-1.199Zm5.502 1.551c0 1.573 1.078 2.871 2.728 2.871.737 0 1.463-.253 1.991-1.001v.88h1.067v-5.5h-1.067v.88c-.528-.748-1.254-1.001-1.991-1.001-1.65 0-2.728 1.298-2.728 2.871Zm4.741 0c-.011 1.111-.77 1.925-1.881 1.925-1.144 0-1.793-.88-1.793-1.925s.649-1.925 1.793-1.925c1.111 0 1.87.814 1.881 1.925Zm6.694 2.75h1.067v-3.102c0-1.771-.924-2.519-2.112-2.519-.902 0-1.617.44-1.848 1.221v-1.1h-1.067v5.5h1.067v-2.552c0-1.738 1.199-2.123 1.771-2.123.583 0 1.122.407 1.122 1.573V115Zm2.272-2.75c0 1.573 1.078 2.871 2.728 2.871.737 0 1.463-.253 1.991-1.001v.88h1.067v-5.5h-1.067v.88c-.528-.748-1.254-1.001-1.991-1.001-1.65 0-2.728 1.298-2.728 2.871Zm4.741 0c-.011 1.111-.77 1.925-1.881 1.925-1.144 0-1.793-.88-1.793-1.925s.649-1.925 1.793-1.925c1.111 0 1.87.814 1.881 1.925Zm6.694 2.75h1.067v-3.102c0-1.771-.924-2.519-2.112-2.519-.902 0-1.617.44-1.848 1.221v-1.1h-1.067v5.5h1.067v-2.552c0-1.738 1.199-2.123 1.771-2.123.583 0 1.122.407 1.122 1.573V115Zm2.261-2.75a2.875 2.875 0 0 0 2.882 2.871c1.595 0 2.893-1.287 2.893-2.871 0-1.573-1.298-2.871-2.893-2.871a2.882 2.882 0 0 0-2.882 2.871Zm1.067.011c0-1.067.814-1.936 1.815-1.936 1.012 0 1.826.869 1.826 1.936 0 1.056-.814 1.914-1.826 1.914-1.001 0-1.815-.858-1.815-1.914Zm5.849 4.169c.88-.275 1.342-1.067 1.342-1.969 0-.297-.143-.902-.759-.902-.528 0-.781.33-.77.704.011.363.308.726.836.55 0 .418-.209 1.001-.858 1.221l.209.396Zm10.266-6.93h-1.122l-1.606 4.323-1.606-4.323h-1.122l2.123 5.5h1.21l2.123-5.5Zm2.2 5.5h-1.067v-5.5h1.067v5.5Zm-1.276-7.271c0 .418.319.737.737.737a.733.733 0 0 0 .748-.737.742.742 0 0 0-.748-.748.733.733 0 0 0-.737.748Zm6.422 2.959c-.308-.99-1.067-1.309-1.837-1.309-1.089 0-1.815.704-1.815 1.639 0 .759.473 1.232 1.353 1.496l.737.253c.385.132.693.319.693.693 0 .429-.396.748-.946.748-.561 0-1.056-.319-1.188-.759l-.946.231c.253.946 1.155 1.441 2.123 1.441 1.067 0 1.98-.605 1.98-1.65 0-.583-.275-1.232-1.32-1.551l-.792-.264c-.33-.11-.66-.297-.66-.66 0-.396.319-.704.814-.704.341 0 .682.11.858.605l.946-.209Zm2.535 4.312h-1.067v-5.5h1.067v5.5Zm-1.276-7.271c0 .418.319.737.737.737a.733.733 0 0 0 .748-.737.742.742 0 0 0-.748-.748.733.733 0 0 0-.737.748Zm4.332 2.607h1.749v-.836h-1.749v-1.584h-.825l-.242 1.584h-.902v.836h.902v2.926c0 1.408.847 1.859 1.716 1.859 1.067 0 1.628-.616 1.628-1.397 0 0 0-.374-.099-.594h-.935c.077.165.088.374.088.451 0 .407-.33.605-.671.605-.363 0-.66-.242-.66-.847v-3.003Zm3.168 3.982c0 .451.352.803.803.803a.803.803 0 0 0 .814-.803.812.812 0 0 0-.814-.814.803.803 0 0 0-.803.814Zm0-4.125c0 .451.352.803.803.803a.803.803 0 0 0 .814-.803.812.812 0 0 0-.814-.814.803.803 0 0 0-.803.814ZM58.176 133.84c0-2.4-1.536-4.304-3.968-4.304-1.104 0-2.016.512-2.528 1.28v-4.384h-2.752V138h2.752v-1.136c.528.816 1.344 1.312 2.496 1.312 2.4 0 4-1.888 4-4.336Zm-2.768 0c0 1.216-.72 2.176-1.888 2.176-1.088 0-1.904-.784-1.904-2.096 0-1.328.784-2.208 1.952-2.208s1.84.96 1.84 2.128Zm6.465 0c0-1.168.688-2.128 1.856-2.128 1.168 0 1.952.88 1.952 2.208 0 1.312-.832 2.096-1.92 2.096-1.168 0-1.888-.96-1.888-2.176Zm3.744-4.128v1.104c-.512-.768-1.44-1.28-2.528-1.28-2.432 0-3.984 1.904-3.984 4.304 0 2.448 1.616 4.336 4 4.336 1.168 0 1.984-.496 2.512-1.312V138h2.752v-8.288h-2.752ZM70.225 138h2.752v-4.48c0-.944.336-1.776 1.328-1.776 1.008 0 1.312.976 1.312 1.776V138h2.752v-4.64c0-1.808-.512-3.824-2.928-3.824-1.056 0-1.872.384-2.464 1.264v-1.088h-2.752V138Zm12.195-4.16c0-1.168.688-2.128 1.855-2.128 1.168 0 1.953.88 1.953 2.208 0 1.312-.832 2.096-1.92 2.096-1.169 0-1.889-.96-1.889-2.176Zm3.743-4.128v1.104c-.511-.768-1.44-1.28-2.528-1.28-2.431 0-3.984 1.904-3.984 4.304 0 2.448 1.617 4.336 4 4.336 1.169 0 1.984-.496 2.513-1.312V138h2.751v-8.288h-2.752ZM90.772 138h2.752v-4.48c0-.944.336-1.776 1.328-1.776 1.008 0 1.312.976 1.312 1.776V138h2.752v-4.64c0-1.808-.512-3.824-2.928-3.824-1.056 0-1.872.384-2.464 1.264v-1.088h-2.752V138Zm18.738-4.144c0-2.384-2.08-4.32-4.672-4.32-2.576 0-4.672 1.92-4.672 4.32 0 2.4 2.096 4.32 4.672 4.32 2.592 0 4.672-1.936 4.672-4.32Zm-6.688 0c0-1.2.832-2.064 2.016-2.064 1.184 0 2.016.864 2.016 2.064 0 1.2-.832 2.048-2.016 2.048-1.184 0-2.016-.848-2.016-2.048Zm7.756 2.864c0 .832.688 1.456 1.632 1.456.928 0 1.664-.624 1.664-1.456 0-.864-.736-1.504-1.664-1.504-.944 0-1.632.64-1.632 1.504Zm4.354-2.864c0 2.432 1.92 4.32 4.752 4.32 1.008 0 2.224-.256 3.456-1.248-.224-.336-1.072-1.472-1.296-1.808a3.067 3.067 0 0 1-2 .768c-1.264 0-2.144-.848-2.144-2.032 0-1.184.88-2.016 2.144-2.016a3.04 3.04 0 0 1 2 .768c.224-.336 1.072-1.472 1.296-1.808-1.232-.992-2.448-1.264-3.456-1.264-2.832 0-4.752 1.888-4.752 4.32Zm8.734 0c0 2.432 1.92 4.32 4.752 4.32 1.008 0 2.224-.256 3.456-1.248-.224-.336-1.072-1.472-1.296-1.808a3.067 3.067 0 0 1-2 .768c-1.264 0-2.144-.848-2.144-2.032 0-1.184.88-2.016 2.144-2.016a3.04 3.04 0 0 1 2 .768c.224-.336 1.072-1.472 1.296-1.808-1.232-.992-2.448-1.264-3.456-1.264-2.832 0-4.752 1.888-4.752 4.32Zm17.115-7.712h-2.112l-6.16 12.416h2.08l6.192-12.416Zm3.381 3.568h-2.656V138h2.752v-4.144c0-1.008.656-1.696 1.728-1.696.224 0 .672.016 1.04.112v-2.688c-.272-.048-.304-.048-.56-.048-.608 0-2.032.384-2.304 1.952v-1.776Zm8.275 8.464c1.344 0 2.768-.368 3.872-1.536-.224-.208-1.136-1.344-1.36-1.568-.72.608-1.472.896-2.272.896-1.568 0-2.432-.848-2.464-1.6h6.384c.016-.112.016-.24.016-.352 0-2.928-1.904-4.48-4.416-4.48-2.848 0-4.624 1.984-4.624 4.352 0 2.368 1.792 4.288 4.864 4.288Zm-.256-6.592c.816 0 1.744.368 1.84 1.312h-3.776c.16-.96 1.152-1.312 1.936-1.312Zm8.051 2.256c0-1.168.688-2.128 1.856-2.128 1.168 0 1.952.88 1.952 2.208 0 1.312-.832 2.096-1.92 2.096-1.168 0-1.888-.96-1.888-2.176Zm3.744-7.408v4.384c-.512-.768-1.44-1.28-2.528-1.28-2.432 0-3.984 1.904-3.984 4.304 0 2.448 1.616 4.336 4 4.336 1.168 0 1.984-.496 2.512-1.312V138h2.752v-11.568h-2.752Zm8.992 11.744c1.344 0 2.768-.368 3.872-1.536-.224-.208-1.136-1.344-1.36-1.568-.72.608-1.472.896-2.272.896-1.568 0-2.432-.848-2.464-1.6h6.384c.016-.112.016-.24.016-.352 0-2.928-1.904-4.48-4.416-4.48-2.848 0-4.624 1.984-4.624 4.352 0 2.368 1.792 4.288 4.864 4.288Zm-.256-6.592c.816 0 1.744.368 1.84 1.312h-3.776c.16-.96 1.152-1.312 1.936-1.312Zm10.131 6.592c1.344 0 2.768-.368 3.872-1.536-.224-.208-1.136-1.344-1.36-1.568-.72.608-1.472.896-2.272.896-1.568 0-2.432-.848-2.464-1.6h6.384c.016-.112.016-.24.016-.352 0-2.928-1.904-4.48-4.416-4.48-2.848 0-4.624 1.984-4.624 4.352 0 2.368 1.792 4.288 4.864 4.288Zm-.256-6.592c.816 0 1.744.368 1.84 1.312h-3.776c.16-.96 1.152-1.312 1.936-1.312Zm14.627.16c.864 0 1.136.88 1.136 1.728V138h2.752v-4.64c0-1.792-.624-3.824-2.944-3.824-.832 0-1.856.16-2.592 1.312-.416-.784-1.2-1.312-2.384-1.312-.896 0-1.664.48-2.096 1.28v-1.104h-2.752V138h2.752v-4.512c0-.928.256-1.744 1.136-1.744.848 0 1.12.864 1.12 1.728V138h2.752v-4.512c0-.928.24-1.744 1.12-1.744ZM295.95 39.4c.306 2.412 2.412 3.798 5.022 3.798 2.43 0 4.806-1.188 4.806-3.852-.036-1.404-.72-2.916-3.546-3.834l-1.35-.468c-1.08-.36-1.224-.846-1.224-1.188 0-.72.63-1.026 1.386-1.026.684 0 1.35.306 1.782 1.368l2.556-1.026c-.738-1.944-2.25-2.97-4.356-2.97-2.592 0-4.518 1.476-4.518 3.798.018 1.71 1.53 3.078 3.438 3.726l1.404.504c1.062.36 1.296.792 1.296 1.206 0 .792-.792 1.134-1.728 1.134-1.206 0-1.962-.612-2.268-1.746l-2.7.576Zm20.456 3.6v-2.628h-5.49v-2.358h4.77V35.53h-4.77v-2.502h5.49V30.4h-8.676V43h8.676Zm10.793 0v-2.628h-5.49v-2.358h4.77V35.53h-4.77v-2.502h5.49V30.4h-8.676V43h8.676Zm7.571 0c3.618 0 6.336-2.808 6.336-6.3 0-3.474-2.718-6.3-6.336-6.3h-5.454V43h5.454Zm-2.268-9.972h1.674c2.376 0 3.726 1.584 3.726 3.672s-1.35 3.672-3.726 3.672h-1.674v-7.344ZM260.863 57.42V54h-1v7h1v-3.11l1.36 1.88c.33.49.89 1.34 1.92 1.34.32 0 .93-.12 1.21-.43l-.36-.7c-.31.25-.59.26-.74.26-.43 0-.8-.41-1.11-.84l-1.31-1.77 2.58-3.52V54h-1.08l-2.47 3.42Zm9.14 2.2c-.5.43-1.04.63-1.64.63-1.11 0-1.89-.69-1.86-1.66h4.27c0-1.85-1.23-2.7-2.55-2.7-1.55 0-2.69 1.17-2.69 2.63 0 1.42 1.08 2.59 2.82 2.59.74 0 1.55-.21 2.19-.93l-.54-.56Zm-1.76-2.88c.55 0 1.26.19 1.53 1.1h-3.18c.33-.87 1.06-1.1 1.65-1.1Zm7.707 2.88c-.5.43-1.04.63-1.64.63-1.11 0-1.89-.69-1.86-1.66h4.27c0-1.85-1.23-2.7-2.55-2.7-1.55 0-2.69 1.17-2.69 2.63 0 1.42 1.08 2.59 2.82 2.59.74 0 1.55-.21 2.19-.93l-.54-.56Zm-1.76-2.88c.55 0 1.26.19 1.53 1.1h-3.18c.33-.87 1.06-1.1 1.65-1.1Zm8.877 1.76c0-1.43-.98-2.61-2.48-2.61-.67 0-1.33.23-1.81.91V56h-.97v7.24h.97V60.2c.48.68 1.14.91 1.81.91 1.5 0 2.48-1.18 2.48-2.61Zm-4.31 0c.01-1.01.7-1.75 1.71-1.75 1.04 0 1.63.8 1.63 1.75s-.59 1.75-1.63 1.75c-1.01 0-1.7-.74-1.71-1.75Zm9.323-1.74h1.59V56h-1.59v-1.44h-.75l-.22 1.44h-.82v.76h.82v2.66c0 1.28.77 1.69 1.56 1.69.97 0 1.48-.56 1.48-1.27 0 0 0-.34-.09-.54h-.85c.07.15.08.34.08.41 0 .37-.3.55-.61.55-.33 0-.6-.22-.6-.77v-2.73Zm6.579 4.24h.97v-2.82c0-1.61-.84-2.29-1.92-2.29-.82 0-1.47.4-1.68 1.11v-3.23h-.97V61h.97v-2.32c0-1.58 1.09-1.93 1.61-1.93.53 0 1.02.37 1.02 1.43V61Zm3.425 0h-.97v-5h.97v5Zm-1.16-6.61c0 .38.29.67.67.67.38 0 .68-.29.68-.67 0-.38-.3-.68-.68-.68-.38 0-.67.3-.67.68Zm5.839 2.69c-.28-.9-.97-1.19-1.67-1.19-.99 0-1.65.64-1.65 1.49 0 .69.43 1.12 1.23 1.36l.67.23c.35.12.63.29.63.63 0 .39-.36.68-.86.68-.51 0-.96-.29-1.08-.69l-.86.21c.23.86 1.05 1.31 1.93 1.31.97 0 1.8-.55 1.8-1.5 0-.53-.25-1.12-1.2-1.41l-.72-.24c-.3-.1-.6-.27-.6-.6 0-.36.29-.64.74-.64.31 0 .62.1.78.55l.86-.19Zm4.641.42c0-1.54 1.18-2.71 2.61-2.71s2.61 1.17 2.61 2.71-1.18 2.71-2.61 2.71-2.61-1.17-2.61-2.71Zm3.24 3.55c1.7-.29 3-1.77 3-3.55 0-1.99-1.63-3.61-3.63-3.61s-3.63 1.62-3.63 3.61a3.61 3.61 0 0 0 3.29 3.59c.2.84.71 1.79 2.17 1.79.34 0 .9-.07 1.36-.43l-.36-.72c-.19.16-.67.32-.95.32-.75 0-1.12-.39-1.25-1Zm5.433-.05v-2.65h1.43c.07.85.58 2.76 2.22 2.76.45 0 .9-.15 1.23-.49l-.35-.68c-.19.18-.47.32-.82.32-.78 0-1.26-1.19-1.33-1.95 1.05-.2 1.65-1.07 1.65-2.11 0-1.18-.77-2.2-2.11-2.2h-2.92v7h1Zm0-3.45v-2.73h1.71c.79 0 1.28.56 1.28 1.37 0 .8-.48 1.36-1.28 1.36h-1.71Zm7.913 1.01c0 1.42 1.04 2.55 2.81 2.55.45 0 1.12-.11 1.79-.61l-.46-.66c-.53.4-1.16.41-1.29.41-1.08 0-1.88-.72-1.88-1.75s.8-1.75 1.88-1.75c.13 0 .76.01 1.29.41l.46-.66c-.67-.5-1.34-.61-1.79-.61-1.82 0-2.81 1.2-2.81 2.67Zm5.166-.06c0 1.45 1.18 2.61 2.62 2.61 1.45 0 2.63-1.17 2.63-2.61 0-1.43-1.18-2.61-2.63-2.61a2.62 2.62 0 0 0-2.62 2.61Zm.97.01c0-.97.74-1.76 1.65-1.76.92 0 1.66.79 1.66 1.76 0 .96-.74 1.74-1.66 1.74-.91 0-1.65-.78-1.65-1.74Zm5.075-.01c0 1.43.98 2.61 2.48 2.61.67 0 1.33-.23 1.81-.91v.8h.97v-7.23h-.97v3.03c-.48-.68-1.14-.91-1.81-.91-1.5 0-2.48 1.18-2.48 2.61Zm4.31 0c-.01 1.01-.7 1.75-1.71 1.75-1.04 0-1.63-.8-1.63-1.75s.59-1.75 1.63-1.75c1.01 0 1.7.74 1.71 1.75Zm6.576 1.12c-.5.43-1.04.63-1.64.63-1.11 0-1.89-.69-1.86-1.66h4.27c0-1.85-1.23-2.7-2.55-2.7-1.55 0-2.69 1.17-2.69 2.63 0 1.42 1.08 2.59 2.82 2.59.74 0 1.55-.21 2.19-.93l-.54-.56Zm-1.76-2.88c.55 0 1.26.19 1.53 1.1h-3.18c.33-.87 1.06-1.1 1.65-1.1Zm9.364.34c-.28-.9-.97-1.19-1.67-1.19-.99 0-1.65.64-1.65 1.49 0 .69.43 1.12 1.23 1.36l.67.23c.35.12.63.29.63.63 0 .39-.36.68-.86.68-.51 0-.96-.29-1.08-.69l-.86.21c.23.86 1.05 1.31 1.93 1.31.97 0 1.8-.55 1.8-1.5 0-.53-.25-1.12-1.2-1.41l-.72-.24c-.3-.1-.6-.27-.6-.6 0-.36.29-.64.74-.64.31 0 .62.1.78.55l.86-.19Zm5.394 2.54c-.5.43-1.04.63-1.64.63-1.11 0-1.89-.69-1.86-1.66h4.27c0-1.85-1.23-2.7-2.55-2.7-1.55 0-2.69 1.17-2.69 2.63 0 1.42 1.08 2.59 2.82 2.59.74 0 1.55-.21 2.19-.93l-.54-.56Zm-1.76-2.88c.55 0 1.26.19 1.53 1.1h-3.18c.33-.87 1.06-1.1 1.65-1.1Zm3.247 1.82c0 1.42 1.04 2.55 2.81 2.55.45 0 1.12-.11 1.79-.61l-.46-.66c-.53.4-1.16.41-1.29.41-1.08 0-1.88-.72-1.88-1.75s.8-1.75 1.88-1.75c.13 0 .76.01 1.29.41l.46-.66c-.67-.5-1.34-.61-1.79-.61-1.82 0-2.81 1.2-2.81 2.67Zm6.623-2.56h-.97v5h.97v-1.89c0-2.13.94-2.29 1.27-2.29.18 0 .37.04.53.13V56c-.14-.06-.28-.11-.46-.11-.62 0-1.17.45-1.34 1.24V56Zm6.675 3.62c-.5.43-1.04.63-1.64.63-1.11 0-1.89-.69-1.86-1.66h4.27c0-1.85-1.23-2.7-2.55-2.7-1.55 0-2.69 1.17-2.69 2.63 0 1.42 1.08 2.59 2.82 2.59.74 0 1.55-.21 2.19-.93l-.54-.56Zm-1.76-2.88c.55 0 1.26.19 1.53 1.1h-3.18c.33-.87 1.06-1.1 1.65-1.1Zm4.788.02h1.59V56h-1.59v-1.44h-.75l-.22 1.44h-.82v.76h.82v2.66c0 1.28.77 1.69 1.56 1.69.97 0 1.48-.56 1.48-1.27 0 0 0-.34-.09-.54h-.85c.07.15.08.34.08.41 0 .37-.3.55-.61.55-.33 0-.6-.22-.6-.77v-2.73ZM254.742 70h-.97v2.82c0 1.61.84 2.29 1.92 2.29.82 0 1.47-.4 1.68-1.11v1h.97v-5h-.97v2.32c0 1.58-1.09 1.93-1.61 1.93-.53 0-1.02-.37-1.02-1.43V70Zm8.735 5h.97v-2.82c0-1.61-.84-2.29-1.92-2.29-.82 0-1.47.4-1.68 1.11v-1h-.97v5h.97v-2.32c0-1.58 1.09-1.93 1.61-1.93.53 0 1.02.37 1.02 1.43V75Zm3.587-4.24h1.59V70h-1.59v-1.44h-.75l-.22 1.44h-.82v.76h.82v2.66c0 1.28.77 1.69 1.56 1.69.97 0 1.48-.56 1.48-1.27 0 0 0-.34-.09-.54h-.85c.07.15.08.34.08.41 0 .37-.3.55-.61.55-.33 0-.6-.22-.6-.77v-2.73Zm3.979 4.24h-.97v-5h.97v5Zm-1.16-6.61c0 .38.29.67.67.67.38 0 .68-.29.68-.67 0-.38-.3-.68-.68-.68-.38 0-.67.3-.67.68Zm3.729-.62h-.97V75h.97v-7.23Zm5.962 5.96-1.53-3.73h-1.11l2.11 4.83-.93 2.41h.94l3.07-7.24h-1.13l-1.42 3.73Zm2.931-1.23c0 1.45 1.18 2.61 2.62 2.61 1.45 0 2.63-1.17 2.63-2.61 0-1.43-1.18-2.61-2.63-2.61a2.62 2.62 0 0 0-2.62 2.61Zm.97.01c0-.97.74-1.76 1.65-1.76.92 0 1.66.79 1.66 1.76 0 .96-.74 1.74-1.66 1.74-.91 0-1.65-.78-1.65-1.74Zm6.326-2.51h-.97v2.82c0 1.61.84 2.29 1.92 2.29.82 0 1.47-.4 1.68-1.11v1h.97v-5h-.97v2.32c0 1.58-1.09 1.93-1.61 1.93-.53 0-1.02-.37-1.02-1.43V70Zm8.982.76h1.59V70h-1.59v-1.44h-.75l-.22 1.44h-.82v.76h.82v2.66c0 1.28.77 1.69 1.56 1.69.97 0 1.48-.56 1.48-1.27 0 0 0-.34-.09-.54h-.85c.07.15.08.34.08.41 0 .37-.3.55-.61.55-.33 0-.6-.22-.6-.77v-2.73Zm3.949-.76h-.97v5h.97v-1.89c0-2.13.94-2.29 1.27-2.29.18 0 .37.04.53.13V70c-.14-.06-.28-.11-.46-.11-.62 0-1.17.45-1.34 1.24V70Zm2.234 2.5c0 1.43.98 2.61 2.48 2.61.67 0 1.33-.23 1.81-.91v.8h.97v-5h-.97v.8c-.48-.68-1.14-.91-1.81-.91-1.5 0-2.48 1.18-2.48 2.61Zm4.31 0c-.01 1.01-.7 1.75-1.71 1.75-1.04 0-1.63-.8-1.63-1.75s.59-1.75 1.63-1.75c1.01 0 1.7.74 1.71 1.75Zm6.086 2.5h.97v-2.82c0-1.61-.84-2.29-1.92-2.29-.82 0-1.47.4-1.68 1.11v-1h-.97v5h.97v-2.32c0-1.58 1.09-1.93 1.61-1.93.53 0 1.02.37 1.02 1.43V75Zm5.545-3.92c-.28-.9-.97-1.19-1.67-1.19-.99 0-1.65.64-1.65 1.49 0 .69.43 1.12 1.23 1.36l.67.23c.35.12.63.29.63.63 0 .39-.36.68-.86.68-.51 0-.96-.29-1.08-.69l-.86.21c.23.86 1.05 1.31 1.93 1.31.97 0 1.8-.55 1.8-1.5 0-.53-.25-1.12-1.2-1.41l-.72-.24c-.3-.1-.6-.27-.6-.6 0-.36.29-.64.74-.64.31 0 .62.1.78.55l.86-.19Zm2.624-1.59c0-.75.34-.97.67-.97.31 0 .62.11.62.51 0 .07-.01.1-.02.17h.83c.05-.14.05-.27.05-.27 0-.71-.52-1.26-1.49-1.26-.79 0-1.66.34-1.66 1.95V70h-.79v.76h.79V75h1v-4.24h1.31V70h-1.31v-.51Zm6.237 4.13c-.5.43-1.04.63-1.64.63-1.11 0-1.89-.69-1.86-1.66h4.27c0-1.85-1.23-2.7-2.55-2.7-1.55 0-2.69 1.17-2.69 2.63 0 1.42 1.08 2.59 2.82 2.59.74 0 1.55-.21 2.19-.93l-.54-.56Zm-1.76-2.88c.55 0 1.26.19 1.53 1.1h-3.18c.33-.87 1.06-1.1 1.65-1.1Zm4.587-.74h-.97v5h.97v-1.89c0-2.13.94-2.29 1.27-2.29.18 0 .37.04.53.13V70c-.14-.06-.28-.11-.46-.11-.62 0-1.17.45-1.34 1.24V70Zm6.285.76h1.59V70h-1.59v-1.44h-.75l-.22 1.44h-.82v.76h.82v2.66c0 1.28.77 1.69 1.56 1.69.97 0 1.48-.56 1.48-1.27 0 0 0-.34-.09-.54h-.85c.07.15.08.34.08.41 0 .37-.3.55-.61.55-.33 0-.6-.22-.6-.77v-2.73Zm6.58 4.24h.97v-2.82c0-1.61-.84-2.29-1.92-2.29-.82 0-1.47.4-1.68 1.11v-3.23h-.97V75h.97v-2.32c0-1.58 1.09-1.93 1.61-1.93.53 0 1.02.37 1.02 1.43V75Zm6.515-1.38c-.5.43-1.04.63-1.64.63-1.11 0-1.89-.69-1.86-1.66h4.27c0-1.85-1.23-2.7-2.55-2.7-1.55 0-2.69 1.17-2.69 2.63 0 1.42 1.08 2.59 2.82 2.59.74 0 1.55-.21 2.19-.93l-.54-.56Zm-1.76-2.88c.55 0 1.26.19 1.53 1.1h-3.18c.33-.87 1.06-1.1 1.65-1.1Zm7.574-1.25c0-.75.34-.97.67-.97.31 0 .62.11.62.51 0 .07-.01.1-.02.17h.83c.05-.14.05-.27.05-.27 0-.71-.52-1.26-1.49-1.26-.79 0-1.66.34-1.66 1.95V70h-.79v.76h.79V75h1v-4.24h1.31V70h-1.31v-.51Zm3.291.51h-.97v2.82c0 1.61.84 2.29 1.92 2.29.82 0 1.47-.4 1.68-1.11v1h.97v-5h-.97v2.32c0 1.58-1.09 1.93-1.61 1.93-.53 0-1.02-.37-1.02-1.43V70Zm8.735 5h.97v-2.82c0-1.61-.84-2.29-1.92-2.29-.82 0-1.47.4-1.68 1.11v-1h-.97v5h.97v-2.32c0-1.58 1.09-1.93 1.61-1.93.53 0 1.02.37 1.02 1.43V75Zm2.075-2.5c0 1.43.98 2.61 2.48 2.61.67 0 1.33-.23 1.81-.91v.8h.97v-7.23h-.97v3.03c-.48-.68-1.14-.91-1.81-.91-1.5 0-2.48 1.18-2.48 2.61Zm4.31 0c-.01 1.01-.7 1.75-1.71 1.75-1.04 0-1.63-.8-1.63-1.75s.59-1.75 1.63-1.75c1.01 0 1.7.74 1.71 1.75Zm5.596-1.42c-.28-.9-.97-1.19-1.67-1.19-.99 0-1.65.64-1.65 1.49 0 .69.43 1.12 1.23 1.36l.67.23c.35.12.63.29.63.63 0 .39-.36.68-.86.68-.51 0-.96-.29-1.08-.69l-.86.21c.23.86 1.05 1.31 1.93 1.31.97 0 1.8-.55 1.8-1.5 0-.53-.25-1.12-1.2-1.41l-.72-.24c-.3-.1-.6-.27-.6-.6 0-.36.29-.64.74-.64.31 0 .62.1.78.55l.86-.19Zm1.094 3.3c0 .41.32.73.73.73s.74-.32.74-.73-.33-.74-.74-.74a.73.73 0 0 0-.73.74Z" fill="#fff"/>
    <g clip-path="url(#c)">
      <path fill-rule="evenodd" clip-rule="evenodd" d="M360.35 110.32c1.55-3.25-.08-6.47-1.94-8.74-1.97-2.39-4.84-4.59-7.65-6.32a36.463 36.463 0 0 0-8.02-3.8c-1.02-.3-2.3-.59-3.4-.4a3.1 3.1 0 0 0-2.19 1.43 3.132 3.132 0 0 0-.2 2.67c.55 1.58 1.82 2.73 2.88 3.53.51.38 1.06.74 1.6 1.08a95.792 95.792 0 0 0-22.6-1c-29.57 2.06-53.68 27.93-57.05 54.89-3.34.2-6.6 1.28-9.18 3.66-3.95 3.63-4.93 8.93-4.51 13.85a31.3 31.3 0 0 0 4.63 13.65c3.64 5.69 9.74 10.17 15.85 12.25 3.23 6.46 10.06 12.67 18.58 17.3a67.72 67.72 0 0 0 31.85 8.24c11.6 0 22.82-3.33 31.85-8.24 8.52-4.63 15.35-10.84 18.58-17.3 6.11-2.08 12.21-6.56 15.85-12.25a31.3 31.3 0 0 0 4.63-13.65c.42-4.92-.56-10.22-4.5-13.84a14.577 14.577 0 0 0-9.04-3.66c-1.1-12.68-5.7-22.75-12.73-30.56a54.566 54.566 0 0 0-10.9-9.23c.52-.03 1.02-.07 1.47-.13 4.02-.52 5.6-2.28 6.14-3.43Z" fill="#fff"/>
      <path d="M298.37 125.83h1.34v1.34h-1.34v-1.34Zm9.38 8.04h5.36v1.34h-5.36v-1.34Zm-22.78 2.68h2.68v2.68h-2.68v-2.68Zm14.73-4.02h2.69v4.02h-2.69v-4.02Zm-8.03 4.02h2.68v2.68h-2.68v-2.68Zm-4.02-2.68h2.68v2.68h-2.68v-2.68Zm-5.35 9.38h2.67v5.35h-2.67v-5.35Zm20.09-18.75h5.36v1.33h-5.36v-1.34.01Zm-1.34 5.35h1.34v1.34h-1.34v-1.34Zm2.68 1.34h1.34v1.34h-1.34v-1.34Zm1.34 1.34h1.34v1.34h-1.34v-1.34ZM309.09 132.53h1.34v1.34h-1.34v-1.34Zm-5.36 1.34h1.34v1.34h-1.34v-1.34Z" fill="#000"/>
      <path d="M302.39 135.2h1.34v1.35h-1.34v-1.35Zm-2.69 1.35h1.35v1.34h-1.35v-1.34Zm-1.33-5.36h1.34v2.68h-1.34v-2.68Zm-4.02-2.68h1.34v2.68h-1.34v-2.69.01Zm6.7 9.38h1.34v1.34h-1.34v-1.34Zm5.35 0h1.35v1.34h-1.35v-1.34Zm1.35-1.34h1.34v1.34h-1.34v-1.34Zm2.68 0h1.34v1.34h-1.34v-1.34Zm6.69-4.02h1.34v1.34h-1.34v-1.34Zm1.34-1.34h1.34v1.34h-1.34v-1.34Zm-2.68 6.7h1.34v1.34h-1.34v-1.34Zm-21.43-2.69h1.34v1.35h-1.34v-1.35Zm-5.35-2.67h1.33v1.34H289v-1.34Zm1.33 2.67h1.34v1.35h-1.34v-1.35Zm2.68-2.67h2.68v1.34h-2.68v-1.34Z" fill="#000"/>
      <path d="M291.67 133.87h6.7v1.34h-6.7v-1.34Zm22.78 0h1.33v1.34h-1.33v-1.34ZM289 137.89h1.33v1.34H289v-1.34Zm-5.37 2.68h1.34v1.34h-1.34v-1.34Zm10.72-2.68h1.34v1.34h-1.34v-1.34Zm4.02-9.38h1.34v1.34h-1.34v-1.35.01Zm-20.09 25.45h2.67v1.34h-2.67v-1.34Zm1.34-2.68h5.35v1.34h-5.35v-1.34Zm1.33-1.34h4.02v1.34h-4.02v-1.34Z" fill="#000"/>
      <path d="M280.95 148.6h1.34v1.34h-1.34v-1.34Zm1.35 5.36h1.33v1.34h-1.33v-1.34Zm-1.35-9.37h1.34v1.34h-1.34v-1.34Zm1.35-2.69h1.33v1.35h-1.33v-1.35Zm-4.03 10.72h1.34v1.34h-1.34v-1.34Zm22.78-26.79h2.68v1.34h-2.68v-1.34Zm-1.35 1.34h2.69v1.34h-2.69v-1.34Zm-8.03 4.02h2.68v1.34h-2.68v-1.34Zm16.08 0h2.68v1.34h-2.68v-1.34Zm-5.36-2.68h2.68v1.34h-2.68v-1.35.01Zm6.7-2.68h2.68v1.34h-2.68v-1.34Zm6.69 4.02h2.68v1.34h-2.68v-1.34Zm0 5.35h2.68v1.35h-2.68v-1.35Z" fill="#000"/>
      <path d="M314.45 131.19h2.67v1.34h-2.67v-1.34Zm-2.68-2.68h4.01v1.34h-4.01v-1.35.01Zm-4.02-2.68v2.68h-1.35v-2.68h1.35Z" fill="#000"/>
      <path d="M306.4 127.17v2.68h-1.33v-2.68h1.34-.01Zm5.37 1.34v2.68h-1.34v-2.69h1.34v.01Zm2.68 6.69v4.03h-1.35v-4.03h1.35Zm4.01 2.69v1.34h-1.33v-1.34h1.33Zm-4.01-8.04v4.02h-1.35v-4.02h1.35Zm-6.7 4.02v2.68h-1.35v-2.68h1.35Zm-2.68 2.68v2.68h-1.34v-2.68h1.34Zm-6.7 1.34v1.34h-1.34v-1.34h1.34Zm20.09-5.36h2.68v2.68h-2.68v-2.68Zm9.38 0h8.04v1.34h-8.04v-1.34Zm-2.68 2.67h9.38v1.35h-9.38v-1.35Zm-4.02 2.69h4.02v1.34h-4.02v-1.34Zm17.42-1.34h4.02v2.68h-4.02v-2.68Zm8.04 0h2.68v2.68h-2.68v-2.68Zm-4.02-2.68h2.68v2.68h-2.68v-2.68Zm13.39 13.39h2.68v4.02h-2.68v-4.02Zm-13.39-20.09h1.34v5.36h-1.34v-5.36Zm6.7 8.03h1.33v1.35h-1.33v-1.35Z" fill="#000"/>
      <path d="M343.92 132.53h1.34v1.34h-1.34v-1.34Zm1.34 2.67h1.34v1.35h-1.34v-1.35Zm2.68-2.67h1.34v1.34h-1.34v-1.34ZM346.6 133.87h4.02v1.34h-4.02v-1.34Zm-2.68 4.02h2.68v1.34h-2.68v-1.34Zm-6.7-5.36h2.68v1.34h-2.68v-1.34Zm1.34-1.34h1.34v1.34h-1.34v-1.34Zm10.72 6.7h1.33v1.34h-1.33v-1.34Zm-24.12-1.34h2.68v1.34h-2.68v-1.34Zm1.34-2.68h2.68v1.34h-2.68v-1.34Zm4.02 0h2.68v1.34h-2.68v-1.34ZM334.54 133.87h4.02v1.34h-4.02v-1.34Z" fill="#000"/>
      <path d="M337.22 135.2h4.02v1.35h-4.02v-1.35Zm-8.04 2.69h1.34v1.34h-1.34v-1.34Zm-6.7-2.69h1.34v1.35h-1.34v-1.35Zm21.44-5.35h1.34v1.34h-1.34v-1.34Zm12.05 22.77h2.68v1.34h-2.68v-1.34Zm-2.67 1.34h2.67v1.34h-2.67v-1.34ZM357.31 153.96h1.34v1.34h-1.34v-1.34Zm-2.68-8.03h1.34v1.33h-1.34v-1.33Zm-1.33 5.35h1.34v1.34h-1.34v-1.34Zm4.01 0H360v1.34h-2.68v-1.34h-.01Zm-2.68-2.68h1.34v2.68h-1.34v-2.68Zm-1.33-2.67h1.33v4.01h-1.33v-4.01Zm-21.44-8.04h2.68v1.34h-2.68v-1.34Zm-9.38-8.04h2.68v1.34h-2.68v-1.34Zm5.36 0h2.68v1.34h-2.68v-1.34Zm5.36 0h4.02v1.34h-4.02v-1.34Zm1.34-1.34h2.68v1.34h-2.68v-1.35.01Zm-6.7-1.34h2.68v1.34h-2.68v-1.34Zm0-1.34h1.34v1.34h-1.34v-1.34Zm5.36-1.33h4.02v1.33h-4.02v-1.34.01Zm0 2.67v2.68h-1.34v-2.68h1.34Z" fill="#000"/>
      <path d="M338.56 125.83v4.02h-1.34v-4.02h1.34Zm-8.04 0h5.36v1.34h-5.36v-1.34Zm16.08 5.36h1.34v1.34h-1.34v-1.34Zm8.04 12.06h1.33v1.34h-1.33v-1.34Zm0-4.02v5.36h-1.34v-5.36h1.34Zm-32.16-6.7v2.68h-1.34v-2.68h1.34Zm30.82 5.36v1.34h-1.34v-1.34h1.34Zm-69.67 18.75h1.34v1.34h-1.34v-1.34Zm-5.36-1.34h2.68v1.34h-2.68v-1.34Zm5.36 0h1.34v1.34h-1.34v-1.34Zm0 14.74h1.34v4.02h-1.34v-4.02Zm-1.33 6.7h2.67v5.36h-2.67v-5.36Zm0-10.72h2.67v1.34h-2.67v-1.34Z" fill="#000"/>
      <path d="M283.63 164.68h1.34v1.34h-1.34v-1.34Zm-5.36 16.08h1.34v1.34h-1.34v-1.34Zm-2.67 0h1.34v1.34h-1.34v-1.34Zm-2.68 2.67h1.34v1.34h-1.34v-1.34Zm5.35-4.01h2.68v1.34h-2.68v-1.34Zm1.34-12.06h4.02v1.34h-4.02v-1.34Zm2.69 1.34h2.67v1.34h-2.67v-1.34Zm-5.36 18.75h4.01v1.34h-4.01v-1.34Zm-2.68-2.68h10.71v1.34h-10.71v-1.34Z" fill="#000"/>
      <path d="M280.95 183.43h4.02v1.34h-4.02v-1.34Zm-9.37 4.02h4.02v1.34h-4.02v-1.34Zm0-1.34h2.68v1.34h-2.68v-1.34Zm6.69-2.68h1.34v1.34h-1.34v-1.34Z" fill="#000"/>
      <path d="M280.95 182.1h1.34v1.34h-1.34v-1.34Zm1.35 5.35h1.33v1.34h-1.33v-1.34Zm-2.68-9.37h2.67v1.34h-2.67v-1.34Zm-6.7 4.02h5.35v1.34h-5.35v-1.34Zm2.68 4.01h1.34v1.34h-1.34v-1.34Zm2.67 0h1.34v1.34h-1.34v-1.34Zm0-22.77h4.02v1.34h-4.02v-1.34Zm1.34-1.34h2.68v1.34h-2.68V162Zm4.02-4.02h1.34v1.34h-1.34v-1.34Zm-5.36 0h4.02v1.34h-4.02v-1.34ZM283.63 159.32v4.02h-1.33v-4.02h1.34-.01Zm-5.35 0h2.67v1.34h-2.67v-1.34Zm-6.7 29.48h5.36v1.33h-5.36v-1.33Zm1.34 1.33h1.34v1.34h-1.34v-1.34Zm10.71 0h1.34v1.34h-1.34v-1.34Zm-5.36-1.33h2.68v1.33h-2.68v-1.33Zm5.36 0h1.34v1.33h-1.34v-1.33Zm-8.03 10.71h5.35v1.34h-5.35v-1.34Zm8.03 4.02h1.61v4.02h-1.6v-4.02h-.01Zm9.38 5.36h2.68v2.68h-2.68v-2.68Zm-2.68-1.34h2.68v1.34h-2.68v-1.34Zm21.44 4.02h2.68v4.02h-2.68v-4.02Zm-16.08-4.02h1.34v1.34h-1.34v-1.34Zm13.4 2.68h1.34v1.34h-1.34v-1.34Zm-26.79-10.72h2.67v1.34h-2.67v-1.34Zm1.33-1.34h1.34v1.34h-1.34v-1.34Zm1.34 9.38H289v1.34h-4.02v-1.34h-.01Z" fill="#000"/>
      <path d="M283.63 207.55h1.34v1.34h-1.34v-1.34Zm5.37 1.34h1.33v1.34H289v-1.34Zm2.67 0h1.34v1.34h-1.34v-1.34Zm1.34 2.68h1.34v1.34h-1.34v-1.34Zm-2.68-1.34h1.34v1.34h-1.34v-1.34Zm-8.03-4.03h1.33v1.35h-1.33v-1.35Zm-5.36-5.35h1.34v1.34h-1.34v-1.34Zm2.67 0h4.02v1.34h-4.02v-1.34Zm2.69 1.34h2.67v1.34h-2.67v-1.34Zm37.5 9.38h1.34v1.34h-1.34v-1.34Zm0 5.36h1.34v1.34h-1.34v-1.34Zm-16.07-1.34h2.68v1.34h-2.68v-1.34Zm13.39 0h1.34v1.34h-1.34v-1.34Zm-8.03 0h1.34v1.34h-1.34v-1.34Zm4.01 0h1.35v1.34h-1.35v-1.34Zm1.35-4.02h1.33v1.34h-1.33v-1.34Zm-6.7 2.68h1.34v1.34h-1.34v-1.34Zm-8.05-1.35h1.35v1.35h-1.35v-1.35Zm-4.01-1.33h2.68v1.34h-2.68v-1.34Z" fill="#000"/>
      <path d="M295.7 212.9h1.33v1.35h-1.33v-1.35Zm14.73 4.03h6.7v1.34h-6.7v-1.34Zm-5.36-6.7h1.34v1.34h-1.34v-1.34Zm-2.68 2.67h1.34v1.35h-1.34v-1.35Z" fill="#000"/>
      <path d="M303.73 211.57h1.34v2.68h-1.34v-2.68Zm-5.36 1.33h1.34v1.35h-1.34v-1.35Zm9.38-4.01h1.34v1.34h-1.34v-1.34Zm-33.49-12.06h1.34v1.34h-1.34v-1.34Zm4.01 0h4.02v1.34h-4.02v-1.34Zm1.34-1.33h2.68v1.33h-2.68v-1.34.01Zm4.02-4.03h1.34v1.34h-1.34v-1.34Zm-10.71 2.68h2.68v1.34h-2.68v-1.34Zm-1.34-1.34h2.68v1.34h-2.68v-1.34Zm6.69-1.34h4.02v1.34h-4.02v-1.34Zm0 2.68v2.68h-1.33v-2.68h1.33Zm5.36-1.34v4.02h-1.33v-4.02h1.34-.01Zm-12.05-1.34h5.36v1.34h-5.36v-1.34Zm4.02 1.34h5.35v1.34h-5.35v-1.34Zm42.86 21.44h2.68v1.34h-2.68v-1.34Zm-2.68-4.02h2.68v1.34h-2.68v-1.34Zm-4.01-1.34h5.35v1.34h-5.35v-1.34Zm-2.68-1.34h4.02v1.34h-4.02v-1.34Zm-2.69 4.02h4.03v1.34h-4.03v-1.34Zm-1.33-4.02h2.68v1.34h-2.68v-1.34Zm-5.37 0h4.03v1.34h-4.03v-1.34ZM299.7 210.23h4.03v1.34h-4.03v-1.34Zm17.42 2.67v2.69h-1.34v-2.68h1.34v-.01Z" fill="#000"/>
      <path d="M299.7 208.89v2.68h-1.33v-2.68h1.34-.01Zm12.07 2.68v2.68h-1.34v-2.68h1.34Zm8.03-2.68v2.68h-1.34v-2.68h1.34Zm-1.34-1.34v1.34h-1.33v-1.34h1.33Zm34.84-50.91h1.34v1.34h-1.34v-1.34Zm5.35 0h2.68v1.34h-2.68v-1.34Zm-5.35-1.34h6.7v1.34h-6.7v-1.34Zm1.33 10.72h2.68v4.02h-2.68v-4.02Zm1.34 14.74h2.68v4.01h-2.68v-4.01Zm1.34-22.78H360v1.34h-2.68v-1.34h-.01Zm-1.34 5.36h1.34v1.34h-1.34v-1.34Zm2.68 1.34H360v1.34h-1.34v-1.34h-.01Zm1.35 1.34h1.33v1.34H360v-1.34Zm-1.35 1.34H360v1.34h-1.34v-1.34h-.01Zm-1.34 1.34h1.34v1.34h-1.34v-1.34Zm-2.68 1.34h1.34v1.34h-1.34v-1.34Zm-1.33-5.36h1.33v2.68h-1.33v-2.68Zm2.67 6.7h1.34v1.34h-1.34v-1.34Zm-1.34-13.4h1.34v1.34h-1.34v-1.34ZM353.3 162h1.33v1.34h-1.33V162Zm10.71 24.11h1.34v1.34h-1.34v-1.34Zm1.34-1.34h1.34v1.34h-1.34v-1.34Zm-5.35-1.34h4v1.34h-4v-1.34Z" fill="#000"/>
      <path d="M358.65 182.1h2.68v1.34h-2.68v-1.34Zm-2.68 4.01h2.68v1.34h-2.68v-1.34Zm-2.67 1.34h2.67v1.34h-2.67v-1.34Zm10.71-5.35h1.34v1.34h-1.34v-1.34Zm-1.34-1.34h1.34v1.34h-1.34v-1.34Zm-5.36 6.69h1.34v1.34h-1.34v-1.34Zm2.69 0h1.33v1.34H360v-1.34Zm-5.37-8.03h1.34v1.34h-1.34v-1.34Zm-1.33 5.35h1.34v1.34h-1.34v-1.34Zm4.01 0h5.36v1.34h-5.36v-1.34Zm6.7 2.68h2.68v1.34h-2.68v-1.34Zm-6.7-8.03h1.34v1.34h-1.34v-1.34Zm1.34 0H360v1.34h-1.34v-1.34h-.01Zm-4.02 2.68h1.34v2.67h-1.34v-2.67Zm-1.33-2.68h1.33v4.02h-1.33v-4.02Zm2.67-20.1h2.68v1.34h-2.68v-1.34Zm-1.34 1.34h2.68V162h-2.68v-1.34Zm2.68 1.34H360v1.34h-2.68V162h-.01Zm-4.01 10.72h2.67v1.34h-2.67v-1.34Zm1.33 2.68v2.68h-1.33v-2.68h1.33Zm-1.33 14.73h1.34v1.34h-1.34v-1.34Zm5.35 0h2.68v1.34h-2.68v-1.34Zm4.02 0h4.02v1.34h-4.02v-1.34Zm-9.37-1.33h9.37v1.33h-9.38v-1.33h.01Zm1.33 10.71h2.68v4.02h-2.68v-4.02Zm-9.37 8.04h2.68v1.34h-2.68v-1.34Zm-8.04 2.68h2.68v5.36h-2.68v-5.36Zm20.09-18.76h5.36v1.34h-5.36v-1.34Zm6.7 0h2.68v1.34h-2.68v-1.34Zm-8.04 5.36h1.34v1.34h-1.34v-1.34Zm2.68 1.34H360v1.34h-1.34v-1.34h-.01Zm1.35 1.34h1.33v1.34H360v-1.34Zm-1.35 1.34H360v1.34h-1.34v-1.34h-.01Zm-1.34 1.34h1.34v1.34h-1.34v-1.34Zm-2.68 1.34h1.34v1.34h-1.34v-1.34Zm-1.33-5.36h1.33v2.68h-1.33v-2.68Zm2.67 6.7h1.34v1.34h-1.34v-1.34Zm-5.35 2.68h2.67v1.34h-2.67v-1.34Zm-8.04 0h1.34v1.34h-1.34v-1.34Zm-4.02 0h1.34v1.34h-1.34v-1.34Zm1.34 5.35h1.34v1.35h-1.34v-1.35Zm4.02-4.01h1.34v1.34h-1.34v-1.34Zm2.68 0h4.02v1.34h-4.02v-1.34Zm-1.34 1.34h1.34v1.34h-1.34v-1.34Zm-2.68 1.34h1.34v1.34h-1.34v-1.34Zm-9.38 2.68h1.34v1.34h-1.34v-1.34Zm-2.68 0h1.34v1.34h-1.34v-1.34Zm-2.68 0h1.34v1.34h-1.34v-1.34Zm0 2.68h1.34v1.34h-1.34v-1.34Zm5.36-6.7h1.34v1.34h-1.34v-1.34Zm-2.68-1.34h1.34v2.68h-1.34v-2.68Zm1.34-1.34h1.34v1.34h-1.34v-1.34Zm-5.36 0h1.34v2.68h-1.34v-2.68Zm-2.68 0h1.34v1.34h-1.34v-1.34Zm-2.68 0h1.34v1.34h-1.34v-1.34Zm12.06 5.35h2.68v1.35h-2.68v-1.35Zm2.68-5.35h1.34v1.34h-1.34v-1.34Zm-10.72 0h1.34v1.34h-1.34v-1.34Zm2.68 1.34h1.34v1.34h-1.34v-1.34Zm1.34-1.34h1.34v1.34h-1.34v-1.34Zm25.45-16.08h1.34v1.34h-1.34v-1.34Zm-1.33 4.03h1.33v1.33h-1.33v-1.34.01Zm-32.16 14.73h1.34v1.34h-1.34v-1.34Z" fill="#000"/>
      <path d="M339.9 210.23h2.68v1.34h-2.68v-1.34Zm-9.38 1.34h6.7v1.34h-6.7v-1.34Zm-2.68 4.02h5.36v1.34h-5.36v-1.34Zm5.36-6.7h5.36v1.34h-5.36v-1.34ZM329.18 212.9h1.34v1.35h-1.34v-1.35Zm0-2.67h1.34v1.34h-1.34v-1.34Zm26.79-17.42h2.68v1.34h-2.68v-1.34Zm-1.34 1.34h2.68v1.34h-2.68v-1.34Zm8.04 4.02h1.34v1.34h-1.34v-1.34Zm-5.36-2.67H360v1.33h-2.68v-1.34l-.01.01Zm6.7-2.69h2.68v1.34h-2.68v-1.34ZM353.3 206.2h2.67v1.35h-2.67v-1.35Zm-29.48 5.37v2.68h-1.34v-2.68h1.34Zm1.34-1.34v2.68h-1.34v-2.68h1.34Zm2.68 1.34v2.68h-1.34v-2.68h1.34Zm-1.34 2.68v2.68h-2.68v-2.68h2.68Zm36.17-21.44v2.68h-1.34v-2.68h1.34Z" fill="#000"/>
      <path d="M361.33 194.15v2.68H360v-2.68h1.34-.01Z" fill="#000"/>
      <path fill-rule="evenodd" clip-rule="evenodd" d="M281.3 175.31c-7.57 2.64-11.62 6.7-12.62 11.5-1.05 5.01 1.3 10.5 5.72 15.52 8.83 10.01 26.4 18.67 44.87 18.67 18.46 0 36.04-8.65 44.87-18.67 4.41-5.01 6.76-10.51 5.72-15.52-1-4.8-5.05-8.86-12.62-11.5 7.98-8.66 6.79-21.66 1.69-32.45a45.646 45.646 0 0 0-10.58-14.42c-4.17-3.7-8.85-6.07-13.36-6.07-6.93 0-10.96 2.96-15.07 5.99l-.16.11-.5.37-.49-.37-.15-.11c-4.12-3.03-8.14-6-15.07-6-4.52 0-9.2 2.39-13.37 6.08a45.616 45.616 0 0 0-10.57 14.42c-5.1 10.79-6.3 23.79 1.69 32.45Zm2.2 2.66a2.41 2.41 0 0 0 .94-4.04c-7.49-7.2-6.99-18.99-1.93-29.7 2.5-5.26 5.99-10 9.8-13.38 3.87-3.43 7.82-5.27 11.24-5.27 5.87 0 9.15 2.42 13.32 5.48l.98.72c.84.62 2 .62 2.84 0l.98-.72c4.16-3.06 7.45-5.48 13.32-5.48 3.42 0 7.37 1.84 11.23 5.27a42.422 42.422 0 0 1 9.8 13.39c5.06 10.7 5.56 22.49-1.93 29.7a2.412 2.412 0 0 0 .95 4.03c7.82 2.45 10.95 6.06 11.67 9.5.75 3.57-.86 8.05-4.98 12.73-8.2 9.3-24.87 17.59-42.46 17.59-17.6 0-34.27-8.3-42.46-17.59-4.12-4.68-5.73-9.16-4.98-12.74.71-3.43 3.84-7.04 11.66-9.49h.01Z" fill="#fff"/>
      <path fill-rule="evenodd" clip-rule="evenodd" d="M269.99 195.75c-6-1.86-12.1-6.24-15.65-11.8a29.701 29.701 0 0 1-4.38-12.91c-.4-4.66.56-9.38 4-12.53 2.58-2.37 5.98-3.32 9.53-3.27 2.61-26.75 26.49-52.82 55.71-54.87a93.072 93.072 0 0 1 22.87 1.09c1.25.19 2.27.35 3.12.43.65.06 1.15.07 1.52.03.48-.05.9-.19.47-.6a14.198 14.198 0 0 0-2.53-1.68c-1.1-.63-2.38-1.35-3.46-2.14-1.06-.77-2.07-1.72-2.47-2.87-.13-.38-.2-.87.07-1.31a1.498 1.498 0 0 1 1.08-.68c.7-.11 1.66.06 2.67.37 2.08.62 4.9 1.94 7.64 3.62 2.73 1.68 5.44 3.78 7.24 5.97 1.77 2.16 2.86 4.68 1.74 7.04-.28.58-1.34 2.06-4.9 2.52-1.92.24-4.57.2-8.27-.44 6.86 3.45 12.91 7.92 17.7 13.6 6.48 7.67 10.63 17.5 11.44 29.91 3.52-.02 6.88.93 9.44 3.28 3.43 3.15 4.4 7.87 4 12.53a29.701 29.701 0 0 1-4.38 12.91 29.779 29.779 0 0 1-15.65 11.8 27.565 27.565 0 0 1-4.41 6.58C355.3 212.34 337.74 221 319.27 221s-36.04-8.65-44.87-18.67a27.545 27.545 0 0 1-4.41-6.58Zm70.96-100.58c-.39-.41-.06-.93.49-.8.2.05.41.1.65.18 1.9.57 4.6 1.81 7.25 3.45 2.66 1.64 5.2 3.62 6.85 5.62 1.67 2.04 2.23 3.85 1.53 5.32-.02.04-.57 1.23-3.66 1.62-3.16.4-8.9-.04-19.17-3.37l-.07-.02a.8.8 0 0 0-.5 1.52l.07.03c11.26 3.66 21.08 9.34 28.09 17.64 7 8.3 11.24 19.27 11.2 33.6-.02 6.79-1.94 14.8-5.65 22.6-2.03-2.94-5.58-5.43-10.8-7.25 8-8.67 6.8-21.67 1.7-32.45a45.646 45.646 0 0 0-10.58-14.42c-4.16-3.7-8.85-6.07-13.36-6.07-6.96 0-11.03 3-15.17 6.06l-.55.4-.56-.4c-4.13-3.05-8.2-6.06-15.16-6.06-4.52 0-9.2 2.38-13.37 6.07a45.616 45.616 0 0 0-10.57 14.42c-5.1 10.78-6.3 23.78 1.69 32.45-5.22 1.82-8.77 4.32-10.8 7.27-3.7-7.77-5.66-15.75-5.64-22.62.07-27.52 24.39-55.87 54.46-58 9.06-.63 15.65.08 20.23.74 2.26.33 4.12.66 5.5.79 1.36.13 4.25.08 4-2.03-.06-.54-.4-.98-.73-1.3-.9-.87-2.06-1.46-3.14-2.07-1.02-.6-2.07-1.18-3.03-1.88a8.61 8.61 0 0 1-1.2-1.04Zm-71.42 89.09c-4.1-8.24-6.3-16.85-6.28-24.3 0-1.04.04-2.08.1-3.12-3.2-.02-6.13.86-8.3 2.86-2.93 2.68-3.86 6.8-3.49 11.2a28.1 28.1 0 0 0 4.13 12.2c3.1 4.83 8.28 8.75 13.52 10.7-.78-2.37-1-4.72-.53-6.98.18-.88.46-1.73.85-2.55v-.01Zm99.8 9.53c5.23-1.95 10.42-5.87 13.51-10.7a28.103 28.103 0 0 0 4.13-12.19c.38-4.4-.56-8.52-3.47-11.2-2.17-2-5.08-2.87-8.27-2.86.04 1.02.06 2.06.06 3.12-.03 7.36-2.18 16-6.3 24.29.4.82.68 1.68.87 2.56.47 2.26.25 4.61-.53 6.98Zm-86-18.7c-8.24-7.92-7.44-20.6-2.27-31.54a44.034 44.034 0 0 1 10.2-13.9c4-3.56 8.32-5.67 12.29-5.67 6.41 0 10.09 2.7 14.24 5.76l1 .74c.29.2.67.2.95 0l1-.74c4.15-3.05 7.83-5.76 14.25-5.76 3.97 0 8.28 2.1 12.3 5.67a43.989 43.989 0 0 1 10.19 13.9c5.17 10.94 5.97 23.62-2.27 31.54a.793.793 0 0 0-.234.764.801.801 0 0 0 .544.586c8.1 2.53 11.88 6.45 12.76 10.7.9 4.29-1.08 9.28-5.35 14.12-8.5 9.66-25.63 18.14-43.66 18.14-18.03 0-35.16-8.48-43.67-18.14-4.26-4.84-6.24-9.83-5.35-14.13.89-4.24 4.67-8.16 12.76-10.69a.804.804 0 0 0 .551-.582.8.8 0 0 0-.231-.768Z" fill="#000"/>
    </g>
    <g clip-path="url(#d)">
      <path fill-rule="evenodd" clip-rule="evenodd" d="M360.35 110.32c1.55-3.25-.08-6.47-1.94-8.74-1.97-2.39-4.84-4.59-7.65-6.32a36.463 36.463 0 0 0-8.02-3.8c-1.02-.3-2.3-.59-3.4-.4a3.1 3.1 0 0 0-2.19 1.43 3.132 3.132 0 0 0-.2 2.67c.55 1.58 1.82 2.73 2.88 3.53.51.38 1.06.74 1.6 1.08a95.792 95.792 0 0 0-22.6-1c-29.57 2.06-53.68 27.93-57.05 54.89-3.34.2-6.6 1.28-9.18 3.66-3.95 3.63-4.93 8.93-4.51 13.85a31.3 31.3 0 0 0 4.63 13.65c3.64 5.69 9.74 10.17 15.85 12.25 3.23 6.46 10.06 12.67 18.58 17.3a67.72 67.72 0 0 0 31.85 8.24c11.6 0 22.82-3.33 31.85-8.24 8.52-4.63 15.35-10.84 18.58-17.3 6.11-2.08 12.21-6.56 15.85-12.25a31.3 31.3 0 0 0 4.63-13.65c.42-4.92-.56-10.22-4.5-13.84a14.577 14.577 0 0 0-9.04-3.66c-1.1-12.68-5.7-22.75-12.73-30.56a54.566 54.566 0 0 0-10.9-9.23c.52-.03 1.02-.07 1.47-.13 4.02-.52 5.6-2.28 6.14-3.43Z" fill="#fff"/>
      <path d="M298.37 125.83h1.34v1.34h-1.34v-1.34Zm9.38 8.04h5.36v1.34h-5.36v-1.34Zm-22.78 2.68h2.68v2.68h-2.68v-2.68Zm14.73-4.02h2.69v4.02h-2.69v-4.02Zm-8.03 4.02h2.68v2.68h-2.68v-2.68Zm-4.02-2.68h2.68v2.68h-2.68v-2.68Zm-5.35 9.38h2.67v5.35h-2.67v-5.35Zm20.09-18.75h5.36v1.33h-5.36v-1.34.01Zm-1.34 5.35h1.34v1.34h-1.34v-1.34Zm2.68 1.34h1.34v1.34h-1.34v-1.34Zm1.34 1.34h1.34v1.34h-1.34v-1.34ZM309.09 132.53h1.34v1.34h-1.34v-1.34Zm-5.36 1.34h1.34v1.34h-1.34v-1.34Z" fill="#000"/>
      <path d="M302.39 135.2h1.34v1.35h-1.34v-1.35Zm-2.69 1.35h1.35v1.34h-1.35v-1.34Zm-1.33-5.36h1.34v2.68h-1.34v-2.68Zm-4.02-2.68h1.34v2.68h-1.34v-2.69.01Zm6.7 9.38h1.34v1.34h-1.34v-1.34Zm5.35 0h1.35v1.34h-1.35v-1.34Zm1.35-1.34h1.34v1.34h-1.34v-1.34Zm2.68 0h1.34v1.34h-1.34v-1.34Zm6.69-4.02h1.34v1.34h-1.34v-1.34Zm1.34-1.34h1.34v1.34h-1.34v-1.34Zm-2.68 6.7h1.34v1.34h-1.34v-1.34Zm-21.43-2.69h1.34v1.35h-1.34v-1.35Zm-5.35-2.67h1.33v1.34H289v-1.34Zm1.33 2.67h1.34v1.35h-1.34v-1.35Zm2.68-2.67h2.68v1.34h-2.68v-1.34Z" fill="#000"/>
      <path d="M291.67 133.87h6.7v1.34h-6.7v-1.34Zm22.78 0h1.33v1.34h-1.33v-1.34ZM289 137.89h1.33v1.34H289v-1.34Zm-5.37 2.68h1.34v1.34h-1.34v-1.34Zm10.72-2.68h1.34v1.34h-1.34v-1.34Zm4.02-9.38h1.34v1.34h-1.34v-1.35.01Zm-20.09 25.45h2.67v1.34h-2.67v-1.34Zm1.34-2.68h5.35v1.34h-5.35v-1.34Zm1.33-1.34h4.02v1.34h-4.02v-1.34Z" fill="#000"/>
      <path d="M280.95 148.6h1.34v1.34h-1.34v-1.34Zm1.35 5.36h1.33v1.34h-1.33v-1.34Zm-1.35-9.37h1.34v1.34h-1.34v-1.34Zm1.35-2.69h1.33v1.35h-1.33v-1.35Zm-4.03 10.72h1.34v1.34h-1.34v-1.34Zm22.78-26.79h2.68v1.34h-2.68v-1.34Zm-1.35 1.34h2.69v1.34h-2.69v-1.34Zm-8.03 4.02h2.68v1.34h-2.68v-1.34Zm16.08 0h2.68v1.34h-2.68v-1.34Zm-5.36-2.68h2.68v1.34h-2.68v-1.35.01Zm6.7-2.68h2.68v1.34h-2.68v-1.34Zm6.69 4.02h2.68v1.34h-2.68v-1.34Zm0 5.35h2.68v1.35h-2.68v-1.35Z" fill="#000"/>
      <path d="M314.45 131.19h2.67v1.34h-2.67v-1.34Zm-2.68-2.68h4.01v1.34h-4.01v-1.35.01Zm-4.02-2.68v2.68h-1.35v-2.68h1.35Z" fill="#000"/>
      <path d="M306.4 127.17v2.68h-1.33v-2.68h1.34-.01Zm5.37 1.34v2.68h-1.34v-2.69h1.34v.01Zm2.68 6.69v4.03h-1.35v-4.03h1.35Zm4.01 2.69v1.34h-1.33v-1.34h1.33Zm-4.01-8.04v4.02h-1.35v-4.02h1.35Zm-6.7 4.02v2.68h-1.35v-2.68h1.35Zm-2.68 2.68v2.68h-1.34v-2.68h1.34Zm-6.7 1.34v1.34h-1.34v-1.34h1.34Zm20.09-5.36h2.68v2.68h-2.68v-2.68Zm9.38 0h8.04v1.34h-8.04v-1.34Zm-2.68 2.67h9.38v1.35h-9.38v-1.35Zm-4.02 2.69h4.02v1.34h-4.02v-1.34Zm17.42-1.34h4.02v2.68h-4.02v-2.68Zm8.04 0h2.68v2.68h-2.68v-2.68Zm-4.02-2.68h2.68v2.68h-2.68v-2.68Zm13.39 13.39h2.68v4.02h-2.68v-4.02Zm-13.39-20.09h1.34v5.36h-1.34v-5.36Zm6.7 8.03h1.33v1.35h-1.33v-1.35Z" fill="#000"/>
      <path d="M343.92 132.53h1.34v1.34h-1.34v-1.34Zm1.34 2.67h1.34v1.35h-1.34v-1.35Zm2.68-2.67h1.34v1.34h-1.34v-1.34ZM346.6 133.87h4.02v1.34h-4.02v-1.34Zm-2.68 4.02h2.68v1.34h-2.68v-1.34Zm-6.7-5.36h2.68v1.34h-2.68v-1.34Zm1.34-1.34h1.34v1.34h-1.34v-1.34Zm10.72 6.7h1.33v1.34h-1.33v-1.34Zm-24.12-1.34h2.68v1.34h-2.68v-1.34Zm1.34-2.68h2.68v1.34h-2.68v-1.34Zm4.02 0h2.68v1.34h-2.68v-1.34ZM334.54 133.87h4.02v1.34h-4.02v-1.34Z" fill="#000"/>
      <path d="M337.22 135.2h4.02v1.35h-4.02v-1.35Zm-8.04 2.69h1.34v1.34h-1.34v-1.34Zm-6.7-2.69h1.34v1.35h-1.34v-1.35Zm21.44-5.35h1.34v1.34h-1.34v-1.34Zm12.05 22.77h2.68v1.34h-2.68v-1.34Zm-2.67 1.34h2.67v1.34h-2.67v-1.34ZM357.31 153.96h1.34v1.34h-1.34v-1.34Zm-2.68-8.03h1.34v1.33h-1.34v-1.33Zm-1.33 5.35h1.34v1.34h-1.34v-1.34Zm4.01 0H360v1.34h-2.68v-1.34h-.01Zm-2.68-2.68h1.34v2.68h-1.34v-2.68Zm-1.33-2.67h1.33v4.01h-1.33v-4.01Zm-21.44-8.04h2.68v1.34h-2.68v-1.34Zm-9.38-8.04h2.68v1.34h-2.68v-1.34Zm5.36 0h2.68v1.34h-2.68v-1.34Zm5.36 0h4.02v1.34h-4.02v-1.34Zm1.34-1.34h2.68v1.34h-2.68v-1.35.01Zm-6.7-1.34h2.68v1.34h-2.68v-1.34Zm0-1.34h1.34v1.34h-1.34v-1.34Zm5.36-1.33h4.02v1.33h-4.02v-1.34.01Zm0 2.67v2.68h-1.34v-2.68h1.34Z" fill="#000"/>
      <path d="M338.56 125.83v4.02h-1.34v-4.02h1.34Zm-8.04 0h5.36v1.34h-5.36v-1.34Zm16.08 5.36h1.34v1.34h-1.34v-1.34Zm8.04 12.06h1.33v1.34h-1.33v-1.34Zm0-4.02v5.36h-1.34v-5.36h1.34Zm-32.16-6.7v2.68h-1.34v-2.68h1.34Zm30.82 5.36v1.34h-1.34v-1.34h1.34Zm-69.67 18.75h1.34v1.34h-1.34v-1.34Zm-5.36-1.34h2.68v1.34h-2.68v-1.34Zm5.36 0h1.34v1.34h-1.34v-1.34Zm0 14.74h1.34v4.02h-1.34v-4.02Zm-1.33 6.7h2.67v5.36h-2.67v-5.36Zm0-10.72h2.67v1.34h-2.67v-1.34Z" fill="#000"/>
      <path d="M283.63 164.68h1.34v1.34h-1.34v-1.34Zm-5.36 16.08h1.34v1.34h-1.34v-1.34Zm-2.67 0h1.34v1.34h-1.34v-1.34Zm-2.68 2.67h1.34v1.34h-1.34v-1.34Zm5.35-4.01h2.68v1.34h-2.68v-1.34Zm1.34-12.06h4.02v1.34h-4.02v-1.34Zm2.69 1.34h2.67v1.34h-2.67v-1.34Zm-5.36 18.75h4.01v1.34h-4.01v-1.34Zm-2.68-2.68h10.71v1.34h-10.71v-1.34Z" fill="#000"/>
      <path d="M280.95 183.43h4.02v1.34h-4.02v-1.34Zm-9.37 4.02h4.02v1.34h-4.02v-1.34Zm0-1.34h2.68v1.34h-2.68v-1.34Zm6.69-2.68h1.34v1.34h-1.34v-1.34Z" fill="#000"/>
      <path d="M280.95 182.1h1.34v1.34h-1.34v-1.34Zm1.35 5.35h1.33v1.34h-1.33v-1.34Zm-2.68-9.37h2.67v1.34h-2.67v-1.34Zm-6.7 4.02h5.35v1.34h-5.35v-1.34Zm2.68 4.01h1.34v1.34h-1.34v-1.34Zm2.67 0h1.34v1.34h-1.34v-1.34Zm0-22.77h4.02v1.34h-4.02v-1.34Zm1.34-1.34h2.68v1.34h-2.68V162Zm4.02-4.02h1.34v1.34h-1.34v-1.34Zm-5.36 0h4.02v1.34h-4.02v-1.34ZM283.63 159.32v4.02h-1.33v-4.02h1.34-.01Zm-5.35 0h2.67v1.34h-2.67v-1.34Zm-6.7 29.48h5.36v1.33h-5.36v-1.33Zm1.34 1.33h1.34v1.34h-1.34v-1.34Zm10.71 0h1.34v1.34h-1.34v-1.34Zm-5.36-1.33h2.68v1.33h-2.68v-1.33Zm5.36 0h1.34v1.33h-1.34v-1.33Zm-8.03 10.71h5.35v1.34h-5.35v-1.34Zm8.03 4.02h1.61v4.02h-1.6v-4.02h-.01Zm9.38 5.36h2.68v2.68h-2.68v-2.68Zm-2.68-1.34h2.68v1.34h-2.68v-1.34Zm21.44 4.02h2.68v4.02h-2.68v-4.02Zm-16.08-4.02h1.34v1.34h-1.34v-1.34Zm13.4 2.68h1.34v1.34h-1.34v-1.34Zm-26.79-10.72h2.67v1.34h-2.67v-1.34Zm1.33-1.34h1.34v1.34h-1.34v-1.34Zm1.34 9.38H289v1.34h-4.02v-1.34h-.01Z" fill="#000"/>
      <path d="M283.63 207.55h1.34v1.34h-1.34v-1.34Zm5.37 1.34h1.33v1.34H289v-1.34Zm2.67 0h1.34v1.34h-1.34v-1.34Zm1.34 2.68h1.34v1.34h-1.34v-1.34Zm-2.68-1.34h1.34v1.34h-1.34v-1.34Zm-8.03-4.03h1.33v1.35h-1.33v-1.35Zm-5.36-5.35h1.34v1.34h-1.34v-1.34Zm2.67 0h4.02v1.34h-4.02v-1.34Zm2.69 1.34h2.67v1.34h-2.67v-1.34Zm37.5 9.38h1.34v1.34h-1.34v-1.34Zm0 5.36h1.34v1.34h-1.34v-1.34Zm-16.07-1.34h2.68v1.34h-2.68v-1.34Zm13.39 0h1.34v1.34h-1.34v-1.34Zm-8.03 0h1.34v1.34h-1.34v-1.34Zm4.01 0h1.35v1.34h-1.35v-1.34Zm1.35-4.02h1.33v1.34h-1.33v-1.34Zm-6.7 2.68h1.34v1.34h-1.34v-1.34Zm-8.05-1.35h1.35v1.35h-1.35v-1.35Zm-4.01-1.33h2.68v1.34h-2.68v-1.34Z" fill="#000"/>
      <path d="M295.7 212.9h1.33v1.35h-1.33v-1.35Zm14.73 4.03h6.7v1.34h-6.7v-1.34Zm-5.36-6.7h1.34v1.34h-1.34v-1.34Zm-2.68 2.67h1.34v1.35h-1.34v-1.35Z" fill="#000"/>
      <path d="M303.73 211.57h1.34v2.68h-1.34v-2.68Zm-5.36 1.33h1.34v1.35h-1.34v-1.35Zm9.38-4.01h1.34v1.34h-1.34v-1.34Zm-33.49-12.06h1.34v1.34h-1.34v-1.34Zm4.01 0h4.02v1.34h-4.02v-1.34Zm1.34-1.33h2.68v1.33h-2.68v-1.34.01Zm4.02-4.03h1.34v1.34h-1.34v-1.34Zm-10.71 2.68h2.68v1.34h-2.68v-1.34Zm-1.34-1.34h2.68v1.34h-2.68v-1.34Zm6.69-1.34h4.02v1.34h-4.02v-1.34Zm0 2.68v2.68h-1.33v-2.68h1.33Zm5.36-1.34v4.02h-1.33v-4.02h1.34-.01Zm-12.05-1.34h5.36v1.34h-5.36v-1.34Zm4.02 1.34h5.35v1.34h-5.35v-1.34Zm42.86 21.44h2.68v1.34h-2.68v-1.34Zm-2.68-4.02h2.68v1.34h-2.68v-1.34Zm-4.01-1.34h5.35v1.34h-5.35v-1.34Zm-2.68-1.34h4.02v1.34h-4.02v-1.34Zm-2.69 4.02h4.03v1.34h-4.03v-1.34Zm-1.33-4.02h2.68v1.34h-2.68v-1.34Zm-5.37 0h4.03v1.34h-4.03v-1.34ZM299.7 210.23h4.03v1.34h-4.03v-1.34Zm17.42 2.67v2.69h-1.34v-2.68h1.34v-.01Z" fill="#000"/>
      <path d="M299.7 208.89v2.68h-1.33v-2.68h1.34-.01Zm12.07 2.68v2.68h-1.34v-2.68h1.34Zm8.03-2.68v2.68h-1.34v-2.68h1.34Zm-1.34-1.34v1.34h-1.33v-1.34h1.33Zm34.84-50.91h1.34v1.34h-1.34v-1.34Zm5.35 0h2.68v1.34h-2.68v-1.34Zm-5.35-1.34h6.7v1.34h-6.7v-1.34Zm1.33 10.72h2.68v4.02h-2.68v-4.02Zm1.34 14.74h2.68v4.01h-2.68v-4.01Zm1.34-22.78H360v1.34h-2.68v-1.34h-.01Zm-1.34 5.36h1.34v1.34h-1.34v-1.34Zm2.68 1.34H360v1.34h-1.34v-1.34h-.01Zm1.35 1.34h1.33v1.34H360v-1.34Zm-1.35 1.34H360v1.34h-1.34v-1.34h-.01Zm-1.34 1.34h1.34v1.34h-1.34v-1.34Zm-2.68 1.34h1.34v1.34h-1.34v-1.34Zm-1.33-5.36h1.33v2.68h-1.33v-2.68Zm2.67 6.7h1.34v1.34h-1.34v-1.34Zm-1.34-13.4h1.34v1.34h-1.34v-1.34ZM353.3 162h1.33v1.34h-1.33V162Zm10.71 24.11h1.34v1.34h-1.34v-1.34Zm1.34-1.34h1.34v1.34h-1.34v-1.34Zm-5.35-1.34h4v1.34h-4v-1.34Z" fill="#000"/>
      <path d="M358.65 182.1h2.68v1.34h-2.68v-1.34Zm-2.68 4.01h2.68v1.34h-2.68v-1.34Zm-2.67 1.34h2.67v1.34h-2.67v-1.34Zm10.71-5.35h1.34v1.34h-1.34v-1.34Zm-1.34-1.34h1.34v1.34h-1.34v-1.34Zm-5.36 6.69h1.34v1.34h-1.34v-1.34Zm2.69 0h1.33v1.34H360v-1.34Zm-5.37-8.03h1.34v1.34h-1.34v-1.34Zm-1.33 5.35h1.34v1.34h-1.34v-1.34Zm4.01 0h5.36v1.34h-5.36v-1.34Zm6.7 2.68h2.68v1.34h-2.68v-1.34Zm-6.7-8.03h1.34v1.34h-1.34v-1.34Zm1.34 0H360v1.34h-1.34v-1.34h-.01Zm-4.02 2.68h1.34v2.67h-1.34v-2.67Zm-1.33-2.68h1.33v4.02h-1.33v-4.02Zm2.67-20.1h2.68v1.34h-2.68v-1.34Zm-1.34 1.34h2.68V162h-2.68v-1.34Zm2.68 1.34H360v1.34h-2.68V162h-.01Zm-4.01 10.72h2.67v1.34h-2.67v-1.34Zm1.33 2.68v2.68h-1.33v-2.68h1.33Zm-1.33 14.73h1.34v1.34h-1.34v-1.34Zm5.35 0h2.68v1.34h-2.68v-1.34Zm4.02 0h4.02v1.34h-4.02v-1.34Zm-9.37-1.33h9.37v1.33h-9.38v-1.33h.01Zm1.33 10.71h2.68v4.02h-2.68v-4.02Zm-9.37 8.04h2.68v1.34h-2.68v-1.34Zm-8.04 2.68h2.68v5.36h-2.68v-5.36Zm20.09-18.76h5.36v1.34h-5.36v-1.34Zm6.7 0h2.68v1.34h-2.68v-1.34Zm-8.04 5.36h1.34v1.34h-1.34v-1.34Zm2.68 1.34H360v1.34h-1.34v-1.34h-.01Zm1.35 1.34h1.33v1.34H360v-1.34Zm-1.35 1.34H360v1.34h-1.34v-1.34h-.01Zm-1.34 1.34h1.34v1.34h-1.34v-1.34Zm-2.68 1.34h1.34v1.34h-1.34v-1.34Zm-1.33-5.36h1.33v2.68h-1.33v-2.68Zm2.67 6.7h1.34v1.34h-1.34v-1.34Zm-5.35 2.68h2.67v1.34h-2.67v-1.34Zm-8.04 0h1.34v1.34h-1.34v-1.34Zm-4.02 0h1.34v1.34h-1.34v-1.34Zm1.34 5.35h1.34v1.35h-1.34v-1.35Zm4.02-4.01h1.34v1.34h-1.34v-1.34Zm2.68 0h4.02v1.34h-4.02v-1.34Zm-1.34 1.34h1.34v1.34h-1.34v-1.34Zm-2.68 1.34h1.34v1.34h-1.34v-1.34Zm-9.38 2.68h1.34v1.34h-1.34v-1.34Zm-2.68 0h1.34v1.34h-1.34v-1.34Zm-2.68 0h1.34v1.34h-1.34v-1.34Zm0 2.68h1.34v1.34h-1.34v-1.34Zm5.36-6.7h1.34v1.34h-1.34v-1.34Zm-2.68-1.34h1.34v2.68h-1.34v-2.68Zm1.34-1.34h1.34v1.34h-1.34v-1.34Zm-5.36 0h1.34v2.68h-1.34v-2.68Zm-2.68 0h1.34v1.34h-1.34v-1.34Zm-2.68 0h1.34v1.34h-1.34v-1.34Zm12.06 5.35h2.68v1.35h-2.68v-1.35Zm2.68-5.35h1.34v1.34h-1.34v-1.34Zm-10.72 0h1.34v1.34h-1.34v-1.34Zm2.68 1.34h1.34v1.34h-1.34v-1.34Zm1.34-1.34h1.34v1.34h-1.34v-1.34Zm25.45-16.08h1.34v1.34h-1.34v-1.34Zm-1.33 4.03h1.33v1.33h-1.33v-1.34.01Zm-32.16 14.73h1.34v1.34h-1.34v-1.34Z" fill="#000"/>
      <path d="M339.9 210.23h2.68v1.34h-2.68v-1.34Zm-9.38 1.34h6.7v1.34h-6.7v-1.34Zm-2.68 4.02h5.36v1.34h-5.36v-1.34Zm5.36-6.7h5.36v1.34h-5.36v-1.34ZM329.18 212.9h1.34v1.35h-1.34v-1.35Zm0-2.67h1.34v1.34h-1.34v-1.34Zm26.79-17.42h2.68v1.34h-2.68v-1.34Zm-1.34 1.34h2.68v1.34h-2.68v-1.34Zm8.04 4.02h1.34v1.34h-1.34v-1.34Zm-5.36-2.67H360v1.33h-2.68v-1.34l-.01.01Zm6.7-2.69h2.68v1.34h-2.68v-1.34ZM353.3 206.2h2.67v1.35h-2.67v-1.35Zm-29.48 5.37v2.68h-1.34v-2.68h1.34Zm1.34-1.34v2.68h-1.34v-2.68h1.34Zm2.68 1.34v2.68h-1.34v-2.68h1.34Zm-1.34 2.68v2.68h-2.68v-2.68h2.68Zm36.17-21.44v2.68h-1.34v-2.68h1.34Z" fill="#000"/>
      <path d="M361.33 194.15v2.68H360v-2.68h1.34-.01Z" fill="#000"/>
      <path fill-rule="evenodd" clip-rule="evenodd" d="M281.3 175.31c-7.57 2.64-11.62 6.7-12.62 11.5-1.05 5.01 1.3 10.5 5.72 15.52 8.83 10.01 26.4 18.67 44.87 18.67 18.46 0 36.04-8.65 44.87-18.67 4.41-5.01 6.76-10.51 5.72-15.52-1-4.8-5.05-8.86-12.62-11.5 7.98-8.66 6.79-21.66 1.69-32.45a45.646 45.646 0 0 0-10.58-14.42c-4.17-3.7-8.85-6.07-13.36-6.07-6.93 0-10.96 2.96-15.07 5.99l-.16.11-.5.37-.49-.37-.15-.11c-4.12-3.03-8.14-6-15.07-6-4.52 0-9.2 2.39-13.37 6.08a45.616 45.616 0 0 0-10.57 14.42c-5.1 10.79-6.3 23.79 1.69 32.45Zm2.2 2.66a2.41 2.41 0 0 0 .94-4.04c-7.49-7.2-6.99-18.99-1.93-29.7 2.5-5.26 5.99-10 9.8-13.38 3.87-3.43 7.82-5.27 11.24-5.27 5.87 0 9.15 2.42 13.32 5.48l.98.72c.84.62 2 .62 2.84 0l.98-.72c4.16-3.06 7.45-5.48 13.32-5.48 3.42 0 7.37 1.84 11.23 5.27a42.422 42.422 0 0 1 9.8 13.39c5.06 10.7 5.56 22.49-1.93 29.7a2.412 2.412 0 0 0 .95 4.03c7.82 2.45 10.95 6.06 11.67 9.5.75 3.57-.86 8.05-4.98 12.73-8.2 9.3-24.87 17.59-42.46 17.59-17.6 0-34.27-8.3-42.46-17.59-4.12-4.68-5.73-9.16-4.98-12.74.71-3.43 3.84-7.04 11.66-9.49h.01Z" fill="#fff"/>
      <path fill-rule="evenodd" clip-rule="evenodd" d="M269.99 195.75c-6-1.86-12.1-6.24-15.65-11.8a29.701 29.701 0 0 1-4.38-12.91c-.4-4.66.56-9.38 4-12.53 2.58-2.37 5.98-3.32 9.53-3.27 2.61-26.75 26.49-52.82 55.71-54.87a93.072 93.072 0 0 1 22.87 1.09c1.25.19 2.27.35 3.12.43.65.06 1.15.07 1.52.03.48-.05.9-.19.47-.6a14.198 14.198 0 0 0-2.53-1.68c-1.1-.63-2.38-1.35-3.46-2.14-1.06-.77-2.07-1.72-2.47-2.87-.13-.38-.2-.87.07-1.31a1.498 1.498 0 0 1 1.08-.68c.7-.11 1.66.06 2.67.37 2.08.62 4.9 1.94 7.64 3.62 2.73 1.68 5.44 3.78 7.24 5.97 1.77 2.16 2.86 4.68 1.74 7.04-.28.58-1.34 2.06-4.9 2.52-1.92.24-4.57.2-8.27-.44 6.86 3.45 12.91 7.92 17.7 13.6 6.48 7.67 10.63 17.5 11.44 29.91 3.52-.02 6.88.93 9.44 3.28 3.43 3.15 4.4 7.87 4 12.53a29.701 29.701 0 0 1-4.38 12.91 29.779 29.779 0 0 1-15.65 11.8 27.565 27.565 0 0 1-4.41 6.58C355.3 212.34 337.74 221 319.27 221s-36.04-8.65-44.87-18.67a27.545 27.545 0 0 1-4.41-6.58Zm70.96-100.58c-.39-.41-.06-.93.49-.8.2.05.41.1.65.18 1.9.57 4.6 1.81 7.25 3.45 2.66 1.64 5.2 3.62 6.85 5.62 1.67 2.04 2.23 3.85 1.53 5.32-.02.04-.57 1.23-3.66 1.62-3.16.4-8.9-.04-19.17-3.37l-.07-.02a.8.8 0 0 0-.5 1.52l.07.03c11.26 3.66 21.08 9.34 28.09 17.64 7 8.3 11.24 19.27 11.2 33.6-.02 6.79-1.94 14.8-5.65 22.6-2.03-2.94-5.58-5.43-10.8-7.25 8-8.67 6.8-21.67 1.7-32.45a45.646 45.646 0 0 0-10.58-14.42c-4.16-3.7-8.85-6.07-13.36-6.07-6.96 0-11.03 3-15.17 6.06l-.55.4-.56-.4c-4.13-3.05-8.2-6.06-15.16-6.06-4.52 0-9.2 2.38-13.37 6.07a45.616 45.616 0 0 0-10.57 14.42c-5.1 10.78-6.3 23.78 1.69 32.45-5.22 1.82-8.77 4.32-10.8 7.27-3.7-7.77-5.66-15.75-5.64-22.62.07-27.52 24.39-55.87 54.46-58 9.06-.63 15.65.08 20.23.74 2.26.33 4.12.66 5.5.79 1.36.13 4.25.08 4-2.03-.06-.54-.4-.98-.73-1.3-.9-.87-2.06-1.46-3.14-2.07-1.02-.6-2.07-1.18-3.03-1.88a8.61 8.61 0 0 1-1.2-1.04Zm-71.42 89.09c-4.1-8.24-6.3-16.85-6.28-24.3 0-1.04.04-2.08.1-3.12-3.2-.02-6.13.86-8.3 2.86-2.93 2.68-3.86 6.8-3.49 11.2a28.1 28.1 0 0 0 4.13 12.2c3.1 4.83 8.28 8.75 13.52 10.7-.78-2.37-1-4.72-.53-6.98.18-.88.46-1.73.85-2.55v-.01Zm99.8 9.53c5.23-1.95 10.42-5.87 13.51-10.7a28.103 28.103 0 0 0 4.13-12.19c.38-4.4-.56-8.52-3.47-11.2-2.17-2-5.08-2.87-8.27-2.86.04 1.02.06 2.06.06 3.12-.03 7.36-2.18 16-6.3 24.29.4.82.68 1.68.87 2.56.47 2.26.25 4.61-.53 6.98Zm-86-18.7c-8.24-7.92-7.44-20.6-2.27-31.54a44.034 44.034 0 0 1 10.2-13.9c4-3.56 8.32-5.67 12.29-5.67 6.41 0 10.09 2.7 14.24 5.76l1 .74c.29.2.67.2.95 0l1-.74c4.15-3.05 7.83-5.76 14.25-5.76 3.97 0 8.28 2.1 12.3 5.67a43.989 43.989 0 0 1 10.19 13.9c5.17 10.94 5.97 23.62-2.27 31.54a.793.793 0 0 0-.234.764.801.801 0 0 0 .544.586c8.1 2.53 11.88 6.45 12.76 10.7.9 4.29-1.08 9.28-5.35 14.12-8.5 9.66-25.63 18.14-43.66 18.14-18.03 0-35.16-8.48-43.67-18.14-4.26-4.84-6.24-9.83-5.35-14.13.89-4.24 4.67-8.16 12.76-10.69a.804.804 0 0 0 .551-.582.8.8 0 0 0-.231-.768Z" fill="#000"/>
    </g>
    <path fill="#338233" d="M0 201h3v49H0z"/>
    <path fill="#3A9139" d="M430 247v3H0v-3z"/>
    <path fill="#3A9139" d="M427 190h3v60h-3z"/>
  </g>
  <defs>
    <clipPath id="a">
      <path fill="#fff" d="M0 0h430v250H0z"/>
    </clipPath>
    <clipPath id="b">
      <path fill="#fff" transform="translate(-55.91)" d="M0 0h681.818v250H0z"/>
    </clipPath>
    <clipPath id="c">
      <path fill="#fff" transform="translate(248 91)" d="M0 0h142v132H0z"/>
    </clipPath>
    <clipPath id="d">
      <path fill="#fff" transform="translate(248 91)" d="M0 0h142v132H0z"/>
    </clipPath>
  </defs>
</svg>
