<svg width="430" height="250" viewBox="0 0 430 250" fill="none" xmlns="http://www.w3.org/2000/svg">
  <g clip-path="url(#a)">
    <path d="M430 0H0v250h430V0Z" fill="#212126"/>
    <path d="M89.447 32.784h-6.18l-.8 2.219h-2.352l5.557-13.985h1.368l5.576 13.985h-2.368l-.801-2.219Zm-.682-1.885-2.4-6.602-2.402 6.602h4.802Zm27.555 1.884h-6.177l-.823 2.22h-2.351l5.576-13.985h1.368l5.579 13.985h-2.373l-.801-2.219.002-.001Zm-.684-1.884-2.398-6.602-2.403 6.602h4.801Zm22.572 3.302a7.16 7.16 0 0 1 0-12.399 7.218 7.218 0 0 1 7.207 0 7.16 7.16 0 0 1 0 12.399 7.214 7.214 0 0 1-7.207 0Zm6.171-1.804a5.014 5.014 0 0 0 2.512-4.391 5.095 5.095 0 0 0-5.125-5.068 5.11 5.11 0 0 0-2.51.672 5.009 5.009 0 0 0-2.515 4.392 5.099 5.099 0 0 0 3.169 4.692 5.11 5.11 0 0 0 4.469-.297ZM78.588 29.11c.445.625.672 1.38.644 2.146a3.649 3.649 0 0 1-.522 1.955 3.613 3.613 0 0 1-1.429 1.304c-.62.322-1.308.49-2.006.489h-5.909V21.018h5.224a4.36 4.36 0 0 1 2.022.468c.6.308 1.1.777 1.447 1.355a3.7 3.7 0 0 1 .525 1.98 3.56 3.56 0 0 1-.462 1.852 3.225 3.225 0 0 1-1.305 1.211 3.542 3.542 0 0 1 1.77 1.225Zm-2.529 3.628c.32-.166.587-.416.775-.722.19-.308.287-.664.281-1.025a1.913 1.913 0 0 0-.286-1.03 2.141 2.141 0 0 0-1.845-1.015h-3.53V33h3.515c.38.008.756-.083 1.09-.264Zm.134-8.766a1.986 1.986 0 0 0-.77-.696 2.209 2.209 0 0 0-1.066-.26h-2.903v4.04h2.89a2.14 2.14 0 0 0 1.837-1.021c.19-.314.29-.676.286-1.043a1.874 1.874 0 0 0-.273-1.02h-.001Zm29.211-2.955v13.987h-.87l-8.161-9.484v9.486h-2.15V21.018h.84l8.191 9.43v-9.433h2.15Zm26.873 0v13.987h-.87l-8.157-9.486v9.486h-2.151V21.018h.846l8.182 9.43v-9.432h2.15Zm-80.92 16.836C39.371 39.362 33.851 28.8 34.83 27.77c.646-.679 1.652-.72 2.522-.744 4.008-.109 9.68 4.573 10.831 4.551 2.228-.046 5.58-3.589 7.776-6.51.92-1.222 6.661-3.064 6.025.148-2.066 10.41-9.101 12.443-10.629 12.635v.002ZM34.677 18.147c11.986-1.51 17.504 9.05 16.526 10.082-.647.679-1.651.72-2.522.744-4.008.108-9.68-4.575-10.83-4.551-2.228.046-5.58 3.588-7.776 6.51-.92 1.222-6.662 3.064-6.026-.147 2.063-10.41 9.1-12.444 10.628-12.637v-.001Z" fill="#68DD67"/>
    <g clip-path="url(#b)">
      <path d="M219.055-47H1203.6v361H219.055V-47Z" fill="#3A9139"/>
      <path d="M380.38-47c-4.352 52.704-20.697 124.447-72.322 149.49-2.966 70.475-12.464 141.411-20.009 211.497h-68.994V-47h104.94c-3.059 31.454-6.487 62.875-9.741 94.31C347.65 32.625 356.8-15.45 362.067-47h18.313Z" fill="#3A8C37"/>
      <path d="M558.311-48c-61.894 37.652-131.235 62.839-202.925 73.296-86.275 12.462-175.143 3.14-257.33-25.63v-10.444c81.693 29.164 170.019 38.766 255.932 26.343C418.797 6.183 481.926-15.692 538.869-48h19.442Z" fill="#358533"/>
      <path d="m342.135 225.682-17.229 5.431 14.991 1.467c-4.141 11.546-10.666 24.384-19.264 36.888l-28.398-5.294 24.969 10.154c-6.248 8.501-13.25 16.483-20.971 23.675H192.642c10.364-40.862 40.326-75.185 76.621-95.668l-3.676 13.859 10.896-17.666c10.999-5.458 22.555-9.489 34.741-11.175l-6.245 14.391 13.442-14.886c8.517-.091 19.789 1.943 24.44 10.085l-15.451 11.923 17.098-7.384c1.303 6.005.433 14.473-2.376 24.197l.003.003Z" fill="#348730"/>
      <path d="M302.344 227.703 230.426 298h-15.609l87.527-70.297Z" fill="#3A9139"/>
      <path d="m292.662 197.747-23.258 12.07h.131l21.66-1.64c-3.435 19.859-9.921 39.211-18.309 57.513l-41.932-.459 38.21 8.27a256.485 256.485 0 0 1-13.915 24.509H155.055v-88.947a245.17 245.17 0 0 1 27.66-26.481l-1.799 20.724 11.158-27.967c14.281-10.435 29.924-19.331 46.858-24.637l-5.336 22.133 15.49-24.624c12.121-2.254 28.792-2.18 37.439 8.306l-19.1 20.899 22.592-14.827c4.412 10.827 3.878 23.675 2.645 35.158Z" fill="#338233"/>
      <path d="M257.13 190.422 176.84 298H159.2l97.93-107.578Z" fill="#3A9139"/>
      <path d="M448.865 129.307c.394-1.264 2.813-6.114 10.765-5.425h.006c7.959.689 2.514 14.076-.909 17.138-3.423 3.062-17.518 2.136-24.613 3.695-8.467 1.871-14.44 17.86-22.087 22.546 3.479 2.888 9.393 5.661 13.406 5.317 3.046-3.282 6.899-2.777 9.872-.329 4.214 3.463-5.251 16.258-11.125 16.967-4.903.594-11.316-7.426-22.776-9.766-10.413-2.124-26.199-2.291-27.676-2.317-21.425-8.507-37.722-20.38-38.725-46.044-8.146-4.824-13.784-12.527-17.62-21.513-11.222-3.506-25.09-26.414-6.81-29.201-2.16-22.56 1.181-43.878 1.969-46.362-5.343.328-6.091-1.819-5.973-9.222.148-8.372 4.332-9.52 12.143-9.41 7.472.11 12.559 1.117 12.723 6.925.25 9.052-1.805 12.104-5.782 11.677-1.726 7.748-2.816 19.012-1.037 32.772 11.05-22.634 38.88-23.373 39.848-25.539 1.165-2.619-7.499-.738-9.961-3.2-2.973-2.96 21.28-2.976 21.312 4.703 0 .603-.467 5.603-19.857 8.266 9.644-1.311 21.558-1.133 29.549 5.055-4.168-21.108-5.409-24.325-9.288-30.823-4.699 2.14-6.754-2.258-8.309-7.377-1.402-4.64-.384-8.405 8.421-10.58 8.26-2.013 12.897.091 15.217 5.906 2.623 6.58.529 7.536-3.229 8.934 3.275 4.758 9.721 20.964 12.648 42.138 14.074 1.692 8.523 22.434 1.313 29.011a134.199 134.199 0 0 1-1.661 15.478c11.063 5.631 15.382 18.798 16.82 30.071 7.948-11.175 27.409-9.517 31.426-9.491Z" fill="#338233"/>
      <path d="M383.713 182.523c-7.22 8.204-18.946 18.437-32.819 9.189-13.783-9.189-11.417-18.707-15.424-28.224-4.422-10.502-19.691-15.096-27.239-6.563-9.75 11.021 4.017 29.845 14.112 23.957 4.922-2.872 4.266-8.205-1.97-12.471" stroke="#338233" stroke-width="7.22" stroke-linecap="round" stroke-linejoin="round"/>
      <path d="M484.663 280h-79.63c-7.613-1.998-37.895-7.177-35.398-19.061 1.22-5.744 15.617-4.928 19.885-4.834-7.962-7.358-12.612-14.302-10.226-18.286 1.805-3.01 9.845-1.818 19.98 1.772-5.114-9.517-7.22-17.574-3.689-20.557 4.688-3.959 15.595 5.986 18.654 8.434-1.74-10.699-1.129-19.035 3.203-20.708 3.629-1.395 10.108 5.989 16.54 16.77 2.625-13.193 6.99-23.17 12.363-22.95 3.764.164 6.701 8.95 8.335 20.82 2.877-4.948 10.485-18.48 17.65-15.815 3.328 1.247 3.577 9.56 1.805 20.396 16.932-13.483 25.153-7.151 14.87 12.117 20.162-7.188 25.98 1.628 9.74 16.616 5.08-.109 18.478-.559 19.99 6.271 2.098 9.592-28.594 17.405-34.072 19.015Z" fill="#338233"/>
      <path d="M443.243 280h-1.621c-.285-16.849 2.232-65.364 3.577-65.308 1.018.042-.334 48.479-1.952 65.308h-.004Zm61.567-16.521c.112.506-12.142 3.656-26.385 6.984a179.145 179.145 0 0 0 5.168-3.544c11.769-2.389 21.086-4.014 21.214-3.436l.003-.004Zm-7.275-19.044c.269.44-10.174 7.338-22.461 15.073a166.801 166.801 0 0 0 3.689-5.004c10.272-6.049 18.463-10.568 18.772-10.069Zm-87.579 26.917c-14.361-3.183-26.753-6.261-26.616-6.934.092-.437 9.386 1.126 21.145 3.387a150.356 150.356 0 0 0 5.468 3.544l.003.003Zm-.46-15.966a151.382 151.382 0 0 0 3.971 5.087c-12.293-7.548-22.677-14.302-22.332-14.883.229-.381 8.231 3.955 18.358 9.793l.003.003Zm11.461-3.314c-9.354-11.349-17.22-21.411-16.695-21.857.328-.289 6.695 6.662 14.565 15.687a153.357 153.357 0 0 0 2.133 6.17h-.003Zm46.871-1.155a193.18 193.18 0 0 0 1.887-5.98c7.8-9.133 14.144-16.156 14.604-15.779.4.328-7.319 10.364-16.488 21.759h-.003Zm-36.212-8.789c-.13 1.987-.223 3.976-.279 5.966-5.448-14.519-10.01-27.666-9.34-27.928.446-.171 4.703 9.747 9.616 21.955l.003.007Zm24.377 8.936c.109-2.484.158-5.005.158-7.528 5.251-13.564 10.059-25.139 10.699-24.899.557.21-4.897 16.179-10.853 32.424l-.004.003Z" fill="#3A9139"/>
    </g>
    <path d="M48.364 81.106h-2.816l-2.596 8.228L40.4 80.6h-4.004L41.258 96h3.036l2.64-8.602L49.574 96h3.036l4.862-15.4h-4.004l-2.552 8.734-2.552-8.228ZM70.104 96v-3.212h-6.71v-2.882h5.83V86.87h-5.83v-3.058h6.71V80.6H59.498V96h10.604Zm6.48-3.212V80.6H72.69V96h10.825v-3.212h-6.93Zm7.601-4.488c0 4.29 3.278 7.942 8.492 7.942 2.464 0 4.092-.858 5.676-2.156l-1.892-2.75c-1.078.99-2.31 1.496-3.784 1.496-2.816 0-4.576-2.002-4.576-4.532 0-2.53 1.76-4.532 4.576-4.532 1.474 0 2.706.506 3.784 1.496l1.892-2.75c-1.584-1.298-3.212-2.156-5.676-2.156-5.214 0-8.492 3.652-8.492 7.942Zm23.073 7.942c4.73 0 8.162-3.608 8.162-7.942s-3.432-7.942-8.162-7.942-8.162 3.608-8.162 7.942 3.432 7.942 8.162 7.942Zm0-3.454c-2.464 0-4.246-1.936-4.246-4.488 0-2.552 1.782-4.488 4.246-4.488 2.464 0 4.268 1.936 4.268 4.488 0 2.552-1.804 4.488-4.268 4.488Zm20.362 3.036 3.366-8.25.704 8.426h3.894l-1.43-15.4h-3.806l-4.004 9.724-3.982-9.724h-3.806l-1.43 15.4h3.894l.704-8.426 3.366 8.25h2.53Zm21.159.176v-3.212h-6.71v-2.882h5.83V86.87h-5.83v-3.058h6.71V80.6h-10.604V96h10.604Zm5.997-15.4v3.212h4.202V96h3.894V83.812h4.268V80.6h-12.364Zm21.275 15.642c4.73 0 8.162-3.608 8.162-7.942s-3.432-7.942-8.162-7.942-8.162 3.608-8.162 7.942 3.432 7.942 8.162 7.942Zm0-3.454c-2.464 0-4.246-1.936-4.246-4.488 0-2.552 1.782-4.488 4.246-4.488 2.464 0 4.268 1.936 4.268 4.488 0 2.552-1.804 4.488-4.268 4.488ZM36.462 106.6v3.212h4.202V122h3.894v-12.188h4.268V106.6H36.462ZM64.038 122v-15.4h-3.894v6.468h-5.302V106.6h-3.894V122h3.894v-5.808h5.302V122h3.894Zm13.864 0v-3.212h-6.71v-2.882h5.83v-3.036h-5.83v-3.058h6.71V106.6H67.298V122h10.604Zm6.04-5.126c0 2.332 1.519 5.368 6.117 5.368 4.047 0 6.38-2.244 6.38-6.974V106.6h-3.894v8.668c0 2.442-.749 3.674-2.552 3.674-1.694 0-2.288-1.342-2.288-2.486 0-.484.132-1.452.748-2.42h-3.609c-.593.814-.901 1.892-.901 2.838Zm24.449-10.274v9.526c0 1.87-1.21 2.816-2.596 2.816-1.386 0-2.574-.946-2.574-2.816V106.6h-3.894v9.526c0 3.982 2.948 6.116 6.468 6.116s6.49-2.134 6.49-6.116V106.6h-3.894ZM125.39 122h2.992v-15.4h-3.894v8.448l-6.116-8.448h-3.014V122h3.894v-8.558L125.39 122Zm5.352-7.7c0 4.334 3.454 7.942 8.36 7.942 1.87 0 4.07-.594 6.116-2.398v-6.446h-7.304v2.948h3.63v2.002c-.704.308-1.694.44-2.442.44-2.64 0-4.444-1.892-4.444-4.444 0-2.266 1.408-4.532 4.664-4.532 1.254 0 2.486.528 3.344 1.21l2.046-2.706c-1.562-1.188-3.19-1.958-5.522-1.958-5.17 0-8.448 3.652-8.448 7.942Zm20.952 4.488V106.6H147.8V122h10.824v-3.212h-6.93ZM171.273 122v-3.212h-6.71v-2.882h5.83v-3.036h-5.83v-3.058h6.71V106.6h-10.604V122h10.604Zm6.635-14.432v-.968h-4.576v.968l.968 9.152h2.64l.968-9.152Zm-4.576 12.672c0 1.144.946 2.002 2.244 2.002 1.276 0 2.288-.858 2.288-2.002 0-1.166-1.012-2.046-2.288-2.046-1.298 0-2.244.88-2.244 2.046Z" fill="#68DD67"/>
    <path d="M38.178 153v-3.322h3.311v-.902h-3.311v-2.574h3.795v-.902h-4.895v7.7h1.1Zm4.353-2.75a2.875 2.875 0 0 0 2.882 2.871c1.595 0 2.893-1.287 2.893-2.871 0-1.573-1.298-2.871-2.893-2.871a2.882 2.882 0 0 0-2.882 2.871Zm1.067.011c0-1.067.814-1.936 1.815-1.936 1.012 0 1.826.869 1.826 1.936 0 1.056-.814 1.914-1.826 1.914-1.001 0-1.815-.858-1.815-1.914Zm7.046-2.761h-1.067v5.5h1.067v-2.079c0-2.343 1.034-2.519 1.397-2.519.198 0 .407.044.583.143V147.5a1.224 1.224 0 0 0-.507-.121c-.681 0-1.286.495-1.473 1.364V147.5Zm6.913.836h1.749v-.836h-1.75v-1.584h-.824l-.242 1.584h-.902v.836h.902v2.926c0 1.408.847 1.859 1.716 1.859 1.067 0 1.628-.616 1.628-1.397 0 0 0-.374-.1-.594H58.8c.077.165.088.374.088.451 0 .407-.33.605-.671.605-.363 0-.66-.242-.66-.847v-3.003ZM64.794 153h1.067v-3.102c0-1.771-.924-2.519-2.112-2.519-.902 0-1.617.44-1.848 1.221v-3.553h-1.067V153h1.067v-2.552c0-1.738 1.2-2.123 1.771-2.123.583 0 1.122.407 1.122 1.573V153Zm7.167-1.518c-.55.473-1.144.693-1.804.693-1.22 0-2.079-.759-2.046-1.826h4.697c0-2.035-1.353-2.97-2.805-2.97-1.705 0-2.959 1.287-2.959 2.893 0 1.562 1.188 2.849 3.102 2.849.814 0 1.705-.231 2.41-1.023l-.595-.616Zm-1.936-3.168c.605 0 1.386.209 1.683 1.21H68.21c.363-.957 1.166-1.21 1.815-1.21Zm7.98 4.686h-1.067v-5.5h1.067v5.5Zm-1.276-7.271c0 .418.319.737.737.737a.733.733 0 0 0 .748-.737.742.742 0 0 0-.748-.748.733.733 0 0 0-.737.748Zm6.96 7.271h1.068v-3.102c0-1.771-.924-2.519-2.112-2.519-.902 0-1.617.44-1.848 1.221v-1.1H79.73v5.5h1.067v-2.552c0-1.738 1.199-2.123 1.77-2.123.584 0 1.123.407 1.123 1.573V153Zm6.1-4.312c-.308-.99-1.067-1.309-1.837-1.309-1.088 0-1.814.704-1.814 1.639 0 .759.472 1.232 1.352 1.496l.738.253c.385.132.693.319.693.693 0 .429-.397.748-.947.748-.56 0-1.056-.319-1.188-.759l-.945.231c.253.946 1.155 1.441 2.123 1.441 1.067 0 1.98-.605 1.98-1.65 0-.583-.276-1.232-1.32-1.551l-.792-.264c-.33-.11-.66-.297-.66-.66 0-.396.319-.704.814-.704.34 0 .681.11.858.605l.946-.209Zm2.766-.352h1.749v-.836h-1.749v-1.584h-.825l-.242 1.584h-.902v.836h.902v2.926c0 1.408.847 1.859 1.716 1.859 1.067 0 1.628-.616 1.628-1.397 0 0 0-.374-.099-.594h-.935c.077.165.088.374.088.451 0 .407-.33.605-.671.605-.363 0-.66-.242-.66-.847v-3.003Zm4.344-.836h-1.067v5.5H96.9v-2.079c0-2.343 1.034-2.519 1.397-2.519.198 0 .407.044.583.143V147.5a1.224 1.224 0 0 0-.506-.121c-.682 0-1.287.495-1.474 1.364V147.5Zm3.941 0h-1.067v3.102c0 1.771.924 2.519 2.112 2.519.902 0 1.617-.44 1.848-1.221v1.1h1.067v-5.5h-1.067v2.552c0 1.738-1.199 2.123-1.771 2.123-.583 0-1.122-.407-1.122-1.573V147.5Zm5.242 2.816c0 1.562 1.144 2.805 3.091 2.805.495 0 1.232-.121 1.969-.671l-.506-.726c-.583.44-1.276.451-1.419.451-1.188 0-2.068-.792-2.068-1.925s.88-1.925 2.068-1.925c.143 0 .836.011 1.419.451l.506-.726a3.276 3.276 0 0 0-1.969-.671c-2.002 0-3.091 1.32-3.091 2.937Zm7.549-1.98h1.749v-.836h-1.749v-1.584h-.825l-.242 1.584h-.902v.836h.902v2.926c0 1.408.847 1.859 1.716 1.859 1.067 0 1.628-.616 1.628-1.397 0 0 0-.374-.099-.594h-.935c.077.165.088.374.088.451 0 .407-.33.605-.671.605-.363 0-.66-.242-.66-.847v-3.003Zm4.378 4.664h-1.067v-5.5h1.067v5.5Zm-1.276-7.271c0 .418.319.737.737.737a.733.733 0 0 0 .748-.737.742.742 0 0 0-.748-.748.733.733 0 0 0-.737.748Zm2.583 4.521a2.875 2.875 0 0 0 2.882 2.871c1.595 0 2.893-1.287 2.893-2.871 0-1.573-1.298-2.871-2.893-2.871a2.882 2.882 0 0 0-2.882 2.871Zm1.067.011c0-1.067.814-1.936 1.815-1.936 1.012 0 1.826.869 1.826 1.936 0 1.056-.814 1.914-1.826 1.914-1.001 0-1.815-.858-1.815-1.914Zm9.939 2.739h1.067v-3.102c0-1.771-.924-2.519-2.112-2.519-.902 0-1.617.44-1.848 1.221v-1.1h-1.067v5.5h1.067v-2.552c0-1.738 1.199-2.123 1.771-2.123.583 0 1.122.407 1.122 1.573V153Zm6.099-4.312c-.308-.99-1.067-1.309-1.837-1.309-1.089 0-1.815.704-1.815 1.639 0 .759.473 1.232 1.353 1.496l.737.253c.385.132.693.319.693.693 0 .429-.396.748-.946.748-.561 0-1.056-.319-1.188-.759l-.946.231c.253.946 1.155 1.441 2.123 1.441 1.067 0 1.98-.605 1.98-1.65 0-.583-.275-1.232-1.32-1.551l-.792-.264c-.33-.11-.66-.297-.66-.66 0-.396.319-.704.814-.704.341 0 .682.11.858.605l.946-.209Zm3.917 1.562a2.875 2.875 0 0 0 2.882 2.871c1.595 0 2.893-1.287 2.893-2.871 0-1.573-1.298-2.871-2.893-2.871a2.882 2.882 0 0 0-2.882 2.871Zm1.067.011c0-1.067.814-1.936 1.815-1.936 1.012 0 1.826.869 1.826 1.936 0 1.056-.814 1.914-1.826 1.914-1.001 0-1.815-.858-1.815-1.914Zm9.939 2.739h1.067v-3.102c0-1.771-.924-2.519-2.112-2.519-.902 0-1.617.44-1.848 1.221v-1.1h-1.067v5.5h1.067v-2.552c0-1.738 1.199-2.123 1.771-2.123.583 0 1.122.407 1.122 1.573V153Zm9.539 0h1.067v-3.102c0-1.771-.924-2.519-2.112-2.519-.902 0-1.617.44-1.848 1.221v-3.553h-1.067V153h1.067v-2.552c0-1.738 1.199-2.123 1.771-2.123.583 0 1.122.407 1.122 1.573V153Zm2.25-2.75a2.875 2.875 0 0 0 2.882 2.871c1.595 0 2.893-1.287 2.893-2.871 0-1.573-1.298-2.871-2.893-2.871a2.882 2.882 0 0 0-2.882 2.871Zm1.067.011c0-1.067.814-1.936 1.815-1.936 1.012 0 1.826.869 1.826 1.936 0 1.056-.814 1.914-1.826 1.914-1.001 0-1.815-.858-1.815-1.914Zm7.765 1.309-1.43-4.07h-1.111l1.991 5.5h1.012l1.243-3.828 1.243 3.828h1.012l1.991-5.5h-1.111l-1.43 4.07-1.254-3.905h-.902l-1.254 3.905Zm11.007-3.234h1.749v-.836h-1.749v-1.584h-.825l-.242 1.584h-.902v.836h.902v2.926c0 1.408.847 1.859 1.716 1.859 1.067 0 1.628-.616 1.628-1.397 0 0 0-.374-.099-.594h-.935c.077.165.088.374.088.451 0 .407-.33.605-.671.605-.363 0-.66-.242-.66-.847v-3.003Zm2.859 1.914a2.875 2.875 0 0 0 2.882 2.871c1.595 0 2.893-1.287 2.893-2.871 0-1.573-1.298-2.871-2.893-2.871a2.882 2.882 0 0 0-2.882 2.871Zm1.067.011c0-1.067.814-1.936 1.815-1.936 1.012 0 1.826.869 1.826 1.936 0 1.056-.814 1.914-1.826 1.914-1.001 0-1.815-.858-1.815-1.914ZM37.914 161.5h-1.067v5.5h1.067v-2.079c0-2.343 1.034-2.519 1.397-2.519.198 0 .407.044.583.143V161.5a1.224 1.224 0 0 0-.506-.121c-.682 0-1.287.495-1.474 1.364V161.5Zm7.342 3.982c-.55.473-1.144.693-1.804.693-1.22 0-2.079-.759-2.046-1.826h4.697c0-2.035-1.353-2.97-2.805-2.97-1.705 0-2.959 1.287-2.959 2.893 0 1.562 1.188 2.849 3.102 2.849.814 0 1.705-.231 2.41-1.023l-.595-.616Zm-1.936-3.168c.605 0 1.386.209 1.683 1.21h-3.498c.363-.957 1.166-1.21 1.815-1.21Zm3.583 1.936c0 1.573 1.078 2.871 2.728 2.871.737 0 1.463-.253 1.991-1.001v.88h1.067v-7.953h-1.067v3.333c-.528-.748-1.254-1.001-1.99-1.001-1.65 0-2.729 1.298-2.729 2.871Zm4.741 0c-.01 1.111-.77 1.925-1.88 1.925-1.145 0-1.794-.88-1.794-1.925s.65-1.925 1.793-1.925c1.111 0 1.87.814 1.881 1.925Zm7.233 1.232c-.55.473-1.144.693-1.804.693-1.22 0-2.079-.759-2.046-1.826h4.697c0-2.035-1.353-2.97-2.805-2.97-1.705 0-2.959 1.287-2.959 2.893 0 1.562 1.188 2.849 3.102 2.849.814 0 1.705-.231 2.41-1.023l-.595-.616Zm-1.936-3.168c.605 0 1.386.209 1.683 1.21h-3.498c.363-.957 1.166-1.21 1.815-1.21Zm8.478 3.168c-.55.473-1.144.693-1.804.693-1.22 0-2.079-.759-2.046-1.826h4.697c0-2.035-1.353-2.97-2.805-2.97-1.705 0-2.959 1.287-2.959 2.893 0 1.562 1.188 2.849 3.102 2.849.814 0 1.705-.231 2.41-1.023l-.595-.616Zm-1.936-3.168c.605 0 1.386.209 1.683 1.21h-3.498c.363-.957 1.166-1.21 1.815-1.21Zm7.73 4.686h1.067v-2.673c.055-1.683 1.045-2.002 1.562-2.002.583 0 1.122.407 1.122 1.573V167h1.067v-3.102c0-1.771-.825-2.519-2.123-2.519-.66 0-1.419.198-1.87 1.155-.429-.979-1.22-1.155-1.749-1.155-.814 0-1.529.418-1.76 1.221v-1.1h-1.067v5.5h1.067v-2.552c0-1.738.99-2.123 1.562-2.123.583 0 1.122.407 1.122 1.573V167Zm11.266-1.397-1.683-4.103h-1.221l2.321 5.313-1.023 2.651h1.034l3.377-7.964h-1.243l-1.562 4.103Zm3.224-1.353a2.875 2.875 0 0 0 2.882 2.871c1.595 0 2.893-1.287 2.893-2.871 0-1.573-1.298-2.871-2.893-2.871a2.882 2.882 0 0 0-2.882 2.871Zm1.067.011c0-1.067.814-1.936 1.815-1.936 1.012 0 1.826.869 1.826 1.936 0 1.056-.814 1.914-1.826 1.914-1 0-1.815-.858-1.815-1.914Zm6.958-2.761h-1.067v3.102c0 1.771.924 2.519 2.112 2.519.902 0 1.617-.44 1.848-1.221v1.1h1.067v-5.5h-1.067v2.552c0 1.738-1.199 2.123-1.77 2.123-.584 0-1.123-.407-1.123-1.573V161.5Zm6.716 0h-1.067v5.5h1.067v-2.079c0-2.343 1.034-2.519 1.397-2.519.198 0 .407.044.583.143V161.5a1.224 1.224 0 0 0-.506-.121c-.682 0-1.287.495-1.474 1.364V161.5Zm11.094-.22c0-1.232-1.078-1.98-2.541-1.98h-2.739v7.7h3.091c1.529 0 2.563-.814 2.563-2.046 0-.957-.616-1.771-1.848-1.892 1.012-.253 1.474-.979 1.474-1.782Zm-2.75 2.277c1.408 0 1.991.66 1.991 1.364 0 .715-.605 1.177-1.43 1.177h-1.991v-2.541h1.43Zm-1.43-.858v-2.497h1.639c.748 0 1.408.396 1.408 1.155 0 .671-.506 1.342-1.848 1.342h-1.199Zm5.502 1.551c0 1.573 1.078 2.871 2.728 2.871.737 0 1.463-.253 1.991-1.001v.88h1.067v-5.5h-1.067v.88c-.528-.748-1.254-1.001-1.991-1.001-1.65 0-2.728 1.298-2.728 2.871Zm4.741 0c-.011 1.111-.77 1.925-1.881 1.925-1.144 0-1.793-.88-1.793-1.925s.649-1.925 1.793-1.925c1.111 0 1.87.814 1.881 1.925Zm6.694 2.75h1.067v-3.102c0-1.771-.924-2.519-2.112-2.519-.902 0-1.617.44-1.848 1.221v-1.1h-1.067v5.5h1.067v-2.552c0-1.738 1.199-2.123 1.771-2.123.583 0 1.122.407 1.122 1.573V167Zm2.272-2.75c0 1.573 1.078 2.871 2.728 2.871.737 0 1.463-.253 1.991-1.001v.88h1.067v-5.5h-1.067v.88c-.528-.748-1.254-1.001-1.991-1.001-1.65 0-2.728 1.298-2.728 2.871Zm4.741 0c-.011 1.111-.77 1.925-1.881 1.925-1.144 0-1.793-.88-1.793-1.925s.649-1.925 1.793-1.925c1.111 0 1.87.814 1.881 1.925Zm6.694 2.75h1.067v-3.102c0-1.771-.924-2.519-2.112-2.519-.902 0-1.617.44-1.848 1.221v-1.1h-1.067v5.5h1.067v-2.552c0-1.738 1.199-2.123 1.771-2.123.583 0 1.122.407 1.122 1.573V167Zm2.261-2.75a2.875 2.875 0 0 0 2.882 2.871c1.595 0 2.893-1.287 2.893-2.871 0-1.573-1.298-2.871-2.893-2.871a2.882 2.882 0 0 0-2.882 2.871Zm1.067.011c0-1.067.814-1.936 1.815-1.936 1.012 0 1.826.869 1.826 1.936 0 1.056-.814 1.914-1.826 1.914-1.001 0-1.815-.858-1.815-1.914Zm5.849 4.169c.88-.275 1.342-1.067 1.342-1.969 0-.297-.143-.902-.759-.902-.528 0-.781.33-.77.704.011.363.308.726.836.55 0 .418-.209 1.001-.858 1.221l.209.396Zm10.266-6.93h-1.122l-1.606 4.323-1.606-4.323h-1.122l2.123 5.5h1.21l2.123-5.5Zm2.2 5.5h-1.067v-5.5h1.067v5.5Zm-1.276-7.271c0 .418.319.737.737.737a.733.733 0 0 0 .748-.737.742.742 0 0 0-.748-.748.733.733 0 0 0-.737.748Zm6.422 2.959c-.308-.99-1.067-1.309-1.837-1.309-1.089 0-1.815.704-1.815 1.639 0 .759.473 1.232 1.353 1.496l.737.253c.385.132.693.319.693.693 0 .429-.396.748-.946.748-.561 0-1.056-.319-1.188-.759l-.946.231c.253.946 1.155 1.441 2.123 1.441 1.067 0 1.98-.605 1.98-1.65 0-.583-.275-1.232-1.32-1.551l-.792-.264c-.33-.11-.66-.297-.66-.66 0-.396.319-.704.814-.704.341 0 .682.11.858.605l.946-.209Zm2.535 4.312h-1.067v-5.5h1.067v5.5Zm-1.276-7.271c0 .418.319.737.737.737a.733.733 0 0 0 .748-.737.742.742 0 0 0-.748-.748.733.733 0 0 0-.737.748Zm4.332 2.607h1.749v-.836h-1.749v-1.584h-.825l-.242 1.584h-.902v.836h.902v2.926c0 1.408.847 1.859 1.716 1.859 1.067 0 1.628-.616 1.628-1.397 0 0 0-.374-.099-.594h-.935c.077.165.088.374.088.451 0 .407-.33.605-.671.605-.363 0-.66-.242-.66-.847v-3.003Zm3.168 3.982c0 .451.352.803.803.803a.803.803 0 0 0 .814-.803.812.812 0 0 0-.814-.814.803.803 0 0 0-.803.814Zm0-4.125c0 .451.352.803.803.803a.803.803 0 0 0 .814-.803.812.812 0 0 0-.814-.814.803.803 0 0 0-.803.814Z" fill="#fff"/>
    <path d="M46.176 185.84c0-2.4-1.536-4.304-3.968-4.304-1.104 0-2.016.512-2.528 1.28v-4.384h-2.752V190h2.752v-1.136c.528.816 1.344 1.312 2.496 1.312 2.4 0 4-1.888 4-4.336Zm-2.768 0c0 1.216-.72 2.176-1.888 2.176-1.088 0-1.904-.784-1.904-2.096 0-1.328.784-2.208 1.952-2.208s1.84.96 1.84 2.128Zm6.465 0c0-1.168.688-2.128 1.856-2.128 1.168 0 1.952.88 1.952 2.208 0 1.312-.832 2.096-1.92 2.096-1.168 0-1.888-.96-1.888-2.176Zm3.744-4.128v1.104c-.512-.768-1.44-1.28-2.528-1.28-2.432 0-3.984 1.904-3.984 4.304 0 2.448 1.616 4.336 4 4.336 1.168 0 1.984-.496 2.512-1.312V190h2.752v-8.288h-2.752ZM58.225 190h2.752v-4.48c0-.944.336-1.776 1.328-1.776 1.008 0 1.312.976 1.312 1.776V190h2.752v-4.64c0-1.808-.512-3.824-2.928-3.824-1.056 0-1.872.384-2.464 1.264v-1.088h-2.752V190Zm12.194-4.16c0-1.168.689-2.128 1.856-2.128 1.168 0 1.953.88 1.953 2.208 0 1.312-.832 2.096-1.92 2.096-1.169 0-1.889-.96-1.889-2.176Zm3.745-4.128v1.104c-.513-.768-1.44-1.28-2.529-1.28-2.431 0-3.984 1.904-3.984 4.304 0 2.448 1.617 4.336 4 4.336 1.169 0 1.984-.496 2.513-1.312V190h2.751v-8.288h-2.752ZM78.772 190h2.752v-4.48c0-.944.336-1.776 1.328-1.776 1.008 0 1.312.976 1.312 1.776V190h2.752v-4.64c0-1.808-.512-3.824-2.928-3.824-1.056 0-1.872.384-2.464 1.264v-1.088h-2.752V190Zm18.738-4.144c0-2.384-2.08-4.32-4.672-4.32-2.576 0-4.672 1.92-4.672 4.32 0 2.4 2.096 4.32 4.672 4.32 2.592 0 4.672-1.936 4.672-4.32Zm-6.688 0c0-1.2.832-2.064 2.016-2.064 1.184 0 2.016.864 2.016 2.064 0 1.2-.832 2.048-2.016 2.048-1.184 0-2.016-.848-2.016-2.048Zm7.755 2.864c0 .832.689 1.456 1.633 1.456.928 0 1.664-.624 1.664-1.456 0-.864-.736-1.504-1.664-1.504-.944 0-1.632.64-1.632 1.504Zm4.355-2.864c0 2.432 1.92 4.32 4.752 4.32 1.008 0 2.224-.256 3.456-1.248-.224-.336-1.072-1.472-1.296-1.808a3.067 3.067 0 0 1-2 .768c-1.264 0-2.144-.848-2.144-2.032 0-1.184.88-2.016 2.144-2.016a3.04 3.04 0 0 1 2 .768c.224-.336 1.072-1.472 1.296-1.808-1.232-.992-2.448-1.264-3.456-1.264-2.832 0-4.752 1.888-4.752 4.32Zm8.734 0c0 2.432 1.92 4.32 4.752 4.32 1.008 0 2.224-.256 3.456-1.248-.224-.336-1.072-1.472-1.296-1.808a3.067 3.067 0 0 1-2 .768c-1.264 0-2.144-.848-2.144-2.032 0-1.184.88-2.016 2.144-2.016a3.04 3.04 0 0 1 2 .768c.224-.336 1.072-1.472 1.296-1.808-1.232-.992-2.448-1.264-3.456-1.264-2.832 0-4.752 1.888-4.752 4.32Zm17.115-7.712h-2.112l-6.16 12.416h2.08l6.192-12.416Zm3.381 3.568h-2.656V190h2.752v-4.144c0-1.008.656-1.696 1.728-1.696.224 0 .672.016 1.04.112v-2.688c-.272-.048-.304-.048-.56-.048-.608 0-2.032.384-2.304 1.952v-1.776Zm8.275 8.464c1.344 0 2.768-.368 3.872-1.536-.224-.208-1.136-1.344-1.36-1.568-.72.608-1.472.896-2.272.896-1.568 0-2.432-.848-2.464-1.6h6.384c.016-.112.016-.24.016-.352 0-2.928-1.904-4.48-4.416-4.48-2.848 0-4.624 1.984-4.624 4.352 0 2.368 1.792 4.288 4.864 4.288Zm-.256-6.592c.816 0 1.744.368 1.84 1.312h-3.776c.16-.96 1.152-1.312 1.936-1.312Zm8.051 2.256c0-1.168.688-2.128 1.856-2.128 1.168 0 1.952.88 1.952 2.208 0 1.312-.832 2.096-1.92 2.096-1.168 0-1.888-.96-1.888-2.176Zm3.744-7.408v4.384c-.512-.768-1.44-1.28-2.528-1.28-2.432 0-3.984 1.904-3.984 4.304 0 2.448 1.616 4.336 4 4.336 1.168 0 1.984-.496 2.512-1.312V190h2.752v-11.568h-2.752Zm8.992 11.744c1.344 0 2.768-.368 3.872-1.536-.224-.208-1.136-1.344-1.36-1.568-.72.608-1.472.896-2.272.896-1.568 0-2.432-.848-2.464-1.6h6.384c.016-.112.016-.24.016-.352 0-2.928-1.904-4.48-4.416-4.48-2.848 0-4.624 1.984-4.624 4.352 0 2.368 1.792 4.288 4.864 4.288Zm-.256-6.592c.816 0 1.744.368 1.84 1.312h-3.776c.16-.96 1.152-1.312 1.936-1.312Zm10.131 6.592c1.344 0 2.768-.368 3.872-1.536-.224-.208-1.136-1.344-1.36-1.568-.72.608-1.472.896-2.272.896-1.568 0-2.432-.848-2.464-1.6h6.384c.016-.112.016-.24.016-.352 0-2.928-1.904-4.48-4.416-4.48-2.848 0-4.624 1.984-4.624 4.352 0 2.368 1.792 4.288 4.864 4.288Zm-.256-6.592c.816 0 1.744.368 1.84 1.312h-3.776c.16-.96 1.152-1.312 1.936-1.312Zm14.627.16c.864 0 1.136.88 1.136 1.728V190h2.752v-4.64c0-1.792-.624-3.824-2.944-3.824-.832 0-1.856.16-2.592 1.312-.416-.784-1.2-1.312-2.384-1.312-.896 0-1.664.48-2.096 1.28v-1.104h-2.752V190h2.752v-4.512c0-.928.256-1.744 1.136-1.744.848 0 1.12.864 1.12 1.728V190h2.752v-4.512c0-.928.24-1.744 1.12-1.744Z" fill="#68DD67"/>
    <path d="M303.95 39.4c.306 2.412 2.412 3.798 5.022 3.798 2.43 0 4.806-1.188 4.806-3.852-.036-1.404-.72-2.916-3.546-3.834l-1.35-.468c-1.08-.36-1.224-.846-1.224-1.188 0-.72.63-1.026 1.386-1.026.684 0 1.35.306 1.782 1.368l2.556-1.026c-.738-1.944-2.25-2.97-4.356-2.97-2.592 0-4.518 1.476-4.518 3.798.018 1.71 1.53 3.078 3.438 3.726l1.404.504c1.062.36 1.296.792 1.296 1.206 0 .792-.792 1.134-1.728 1.134-1.206 0-1.962-.612-2.268-1.746l-2.7.576Zm20.456 3.6v-2.628h-5.49v-2.358h4.77V35.53h-4.77v-2.502h5.49V30.4h-8.676V43h8.676Zm10.793 0v-2.628h-5.49v-2.358h4.77V35.53h-4.77v-2.502h5.49V30.4h-8.676V43h8.676Zm7.571 0c3.618 0 6.336-2.808 6.336-6.3 0-3.474-2.718-6.3-6.336-6.3h-5.454V43h5.454Zm-2.268-9.972h1.674c2.376 0 3.726 1.584 3.726 3.672s-1.35 3.672-3.726 3.672h-1.674v-7.344ZM268.076 58.84l1.21 1.89c.39.69 1 1.38 1.95 1.38.4 0 .91-.11 1.28-.4-.16-.3-.31-.6-.46-.9-.26.18-.49.21-.62.21-.41 0-.57-.18-1.04-.83l-1.1-1.66 2.38-3.37V55h-1.33l-2.27 3.32V55h-1.28v7h1.28v-3.16Zm9.038 1.61c-.43.39-.9.62-1.53.62-1.09 0-1.74-.63-1.74-1.43h4.2c0-1.95-1.29-2.81-2.66-2.81-1.6 0-2.77 1.18-2.77 2.66 0 1.44 1.09 2.62 2.91 2.62.78 0 1.61-.21 2.29-.97l-.7-.69Zm-1.73-2.64c.52 0 1.21.22 1.4 1h-2.88c.26-.78.94-1 1.48-1Zm7.784 2.64c-.43.39-.9.62-1.53.62-1.09 0-1.74-.63-1.74-1.43h4.2c0-1.95-1.29-2.81-2.66-2.81-1.6 0-2.77 1.18-2.77 2.66 0 1.44 1.09 2.62 2.91 2.62.78 0 1.61-.21 2.29-.97l-.7-.69Zm-1.73-2.64c.52 0 1.21.22 1.4 1h-2.88c.26-.78.94-1 1.48-1Zm4.865 6.48v-3.04c.41.58 1.04.86 1.72.86 1.55 0 2.49-1.19 2.49-2.62 0-1.48-.98-2.66-2.48-2.66-.74 0-1.37.32-1.73.87v-.76h-1.23v7.35h1.23Zm2.97-4.81c0 .87-.53 1.6-1.46 1.6-.91 0-1.54-.67-1.54-1.65 0-1 .67-1.57 1.51-1.57.92 0 1.49.72 1.49 1.62Zm6.373-3.89h-.95l-.22 1.35h-.85v.94h.79v2.48c0 1.39.83 1.75 1.67 1.75 1.09 0 1.6-.66 1.6-1.4 0-.09-.02-.38-.11-.57h-1.01c.05.11.07.31.07.42 0 .31-.2.52-.5.52-.36 0-.49-.24-.49-.55v-2.65h1.51v-.94h-1.51v-1.35Zm2.845 6.41h1.23v-2.53c0-1.15.69-1.6 1.29-1.6.61 0 .99.46.99 1.34V62h1.23v-2.8c0-1.46-.62-2.37-1.88-2.37-.72 0-1.31.3-1.63.96v-3.02h-1.23V62Zm7.324 0v-5.06h-1.23V62h1.23Zm-1.41-6.56c0 .44.34.77.8.77s.82-.33.82-.77-.36-.78-.82-.78c-.46 0-.8.34-.8.78Zm2.386 5.36c.29.97 1.22 1.31 2.04 1.31 1.05 0 1.98-.54 1.98-1.54 0-.44-.21-1.09-1.29-1.45l-.75-.27c-.28-.1-.53-.24-.53-.52 0-.35.34-.53.66-.53.27 0 .64.11.77.52l.99-.36c-.33-.91-1.13-1.13-1.77-1.13-1.05 0-1.85.59-1.85 1.53 0 .46.26 1.03 1.27 1.41l.74.28c.31.13.55.28.55.54 0 .4-.4.53-.76.53-.46 0-.95-.23-1.08-.73l-.97.41Zm8.618-2.3c0-1.41 1.07-2.45 2.36-2.45 1.29 0 2.36 1.04 2.36 2.45 0 1.41-1.07 2.45-2.36 2.45-1.29 0-2.36-1.04-2.36-2.45Zm3.1 3.53c1.62-.35 2.93-1.8 2.93-3.53 0-1.99-1.67-3.61-3.67-3.61s-3.67 1.62-3.67 3.61c0 1.83 1.43 3.34 3.19 3.58.12.96.84 1.89 2.25 1.89.58 0 1.15-.18 1.56-.49l-.42-.9c-.26.19-.76.34-1.05.34-.66 0-1.04-.32-1.12-.89Zm5.515-3.62v-2.35h1.54c.65 0 1.08.5 1.08 1.18 0 .69-.42 1.17-1.08 1.17h-1.54Zm3.92-1.16c0-1.2-.79-2.25-2.18-2.25h-3.02v7h1.28v-2.57h1.18c.07.8.58 2.68 2.23 2.68.59 0 1-.19 1.4-.54l-.45-.88c-.19.18-.47.31-.77.31-.74 0-1.12-.89-1.24-1.64.98-.25 1.57-1.09 1.57-2.11Zm3.752 2.25c0 1.47 1.09 2.61 2.85 2.61.49 0 1.17-.11 1.95-.69l-.57-.87c-.52.42-1.13.46-1.32.46-.98 0-1.67-.64-1.67-1.54 0-.91.69-1.54 1.67-1.54.19 0 .8.03 1.32.46l.57-.88c-.78-.57-1.46-.68-1.95-.68-1.79 0-2.85 1.17-2.85 2.67Zm5.283-.03c0 1.47 1.28 2.64 2.74 2.64 1.48 0 2.75-1.18 2.75-2.64 0-1.45-1.27-2.64-2.75-2.64-1.46 0-2.74 1.18-2.74 2.64Zm1.24 0c0-.89.65-1.59 1.5-1.59.86 0 1.51.71 1.51 1.59 0 .89-.65 1.59-1.51 1.59-.85 0-1.5-.7-1.5-1.59Zm6.211-.01c0-.87.52-1.6 1.45-1.6.92 0 1.54.67 1.54 1.65 0 1-.66 1.57-1.5 1.57-.92 0-1.49-.72-1.49-1.62Zm2.97-4.69v2.92c-.42-.58-1.05-.86-1.73-.86-1.55 0-2.48 1.19-2.48 2.62 0 1.48.98 2.66 2.47 2.66.74 0 1.37-.32 1.74-.87V62h1.23v-7.23h-1.23Zm6.784 5.68c-.43.39-.9.62-1.53.62-1.09 0-1.74-.63-1.74-1.43h4.2c0-1.95-1.29-2.81-2.66-2.81-1.6 0-2.77 1.18-2.77 2.66 0 1.44 1.09 2.62 2.91 2.62.78 0 1.61-.21 2.29-.97l-.7-.69Zm-1.73-2.64c.52 0 1.21.22 1.4 1h-2.88c.26-.78.94-1 1.48-1Zm5.734 2.99c.29.97 1.22 1.31 2.04 1.31 1.05 0 1.98-.54 1.98-1.54 0-.44-.21-1.09-1.29-1.45l-.75-.27c-.28-.1-.53-.24-.53-.52 0-.35.34-.53.66-.53.27 0 .64.11.77.52l.99-.36c-.33-.91-1.13-1.13-1.77-1.13-1.05 0-1.85.59-1.85 1.53 0 .46.26 1.03 1.27 1.41l.74.28c.31.13.55.28.55.54 0 .4-.4.53-.76.53-.46 0-.95-.23-1.08-.73l-.97.41Zm9.209-.35c-.43.39-.9.62-1.53.62-1.09 0-1.74-.63-1.74-1.43h4.2c0-1.95-1.29-2.81-2.66-2.81-1.6 0-2.77 1.18-2.77 2.66 0 1.44 1.09 2.62 2.91 2.62.78 0 1.61-.21 2.29-.97l-.7-.69Zm-1.73-2.64c.52 0 1.21.22 1.4 1h-2.88c.26-.78.94-1 1.48-1Zm3.285 1.69c0 1.47 1.09 2.61 2.85 2.61.49 0 1.17-.11 1.95-.69l-.57-.87c-.52.42-1.13.46-1.32.46-.98 0-1.67-.64-1.67-1.54 0-.91.69-1.54 1.67-1.54.19 0 .8.03 1.32.46l.57-.88c-.78-.57-1.46-.68-1.95-.68-1.79 0-2.85 1.17-2.85 2.67Zm6.94-2.56h-1.21V62h1.23v-2.34c0-1.4.75-1.65 1.2-1.65.16 0 .39.03.58.1V56.9c-.15-.04-.25-.07-.42-.07-.54 0-1.21.37-1.38 1.23v-1.12Zm6.681 3.51c-.43.39-.9.62-1.53.62-1.09 0-1.74-.63-1.74-1.43h4.2c0-1.95-1.29-2.81-2.66-2.81-1.6 0-2.77 1.18-2.77 2.66 0 1.44 1.09 2.62 2.91 2.62.78 0 1.61-.21 2.29-.97l-.7-.69Zm-1.73-2.64c.52 0 1.21.22 1.4 1h-2.88c.26-.78.94-1 1.48-1Zm5.106-2.22h-.95l-.22 1.35h-.85v.94h.79v2.48c0 1.39.83 1.75 1.67 1.75 1.09 0 1.6-.66 1.6-1.4 0-.09-.02-.38-.11-.57h-1.01c.05.11.07.31.07.42 0 .31-.2.52-.5.52-.36 0-.49-.24-.49-.55v-2.65h1.51v-.94h-1.51v-1.35ZM265.217 70.94h-1.23v2.19c0 1.43-.73 1.9-1.3 1.9-.66 0-.98-.48-.98-1.3v-2.79h-1.23v2.8c0 1.46.62 2.37 1.88 2.37.72 0 1.31-.3 1.63-.96V76h1.23v-5.06Zm1.404 5.06h1.23v-2.53c0-1.06.58-1.6 1.3-1.6.61 0 .98.46.98 1.34V76h1.23v-2.8c0-1.46-.61-2.37-1.87-2.37-.72 0-1.32.3-1.64.96v-.85h-1.23V76Zm7.536-6.41h-.95l-.22 1.35h-.85v.94h.79v2.48c0 1.39.83 1.75 1.67 1.75 1.09 0 1.6-.66 1.6-1.4 0-.09-.02-.38-.11-.57h-1.01c.05.11.07.31.07.42 0 .31-.2.52-.5.52-.36 0-.49-.24-.49-.55v-2.65h1.51v-.94h-1.51v-1.35Zm4.095 6.41v-5.06h-1.23V76h1.23Zm-1.41-6.56c0 .44.34.77.8.77s.82-.33.82-.77-.36-.78-.82-.78c-.46 0-.8.34-.8.78Zm4.076 6.56v-7.23h-1.23V76h1.23Zm5.862-1.59-1.38-3.47h-1.39l2.15 4.76-1.03 2.59h1.21l3.14-7.35h-1.38l-1.32 3.47Zm2.967-.94c0 1.47 1.28 2.64 2.74 2.64 1.48 0 2.75-1.18 2.75-2.64 0-1.45-1.27-2.64-2.75-2.64-1.46 0-2.74 1.18-2.74 2.64Zm1.24 0c0-.89.65-1.59 1.5-1.59.86 0 1.51.71 1.51 1.59 0 .89-.65 1.59-1.51 1.59-.85 0-1.5-.7-1.5-1.59Zm9.972-2.53h-1.23v2.19c0 1.43-.73 1.9-1.3 1.9-.66 0-.98-.48-.98-1.3v-2.79h-1.23v2.8c0 1.46.62 2.37 1.88 2.37.72 0 1.31-.3 1.63-.96V76h1.23v-5.06Zm5.463-1.35h-.95l-.22 1.35h-.85v.94h.79v2.48c0 1.39.83 1.75 1.67 1.75 1.09 0 1.6-.66 1.6-1.4 0-.09-.02-.38-.11-.57h-1.01c.05.11.07.31.07.42 0 .31-.2.52-.5.52-.36 0-.49-.24-.49-.55v-2.65h1.51v-.94h-1.51v-1.35Zm4.055 1.35h-1.21V76h1.23v-2.34c0-1.4.75-1.65 1.2-1.65.16 0 .39.03.58.1V70.9c-.15-.04-.25-.07-.42-.07-.54 0-1.21.37-1.38 1.23v-1.12Zm6.43 0v.75c-.41-.58-1.04-.86-1.72-.86-1.55 0-2.49 1.19-2.49 2.62 0 1.48.98 2.66 2.48 2.66.74 0 1.37-.32 1.73-.87V76h1.23v-5.06h-1.23Zm-2.97 2.52c0-.87.53-1.6 1.46-1.6.91 0 1.54.67 1.54 1.65 0 1-.67 1.57-1.51 1.57-.92 0-1.49-.72-1.49-1.62Zm5.604 2.54h1.23v-2.53c0-1.06.58-1.6 1.3-1.6.61 0 .98.46.98 1.34V76h1.23v-2.8c0-1.46-.61-2.37-1.87-2.37-.72 0-1.32.3-1.64.96v-.85h-1.23V76Zm5.634-1.2c.29.97 1.22 1.31 2.04 1.31 1.05 0 1.98-.54 1.98-1.54 0-.44-.21-1.09-1.29-1.45l-.75-.27c-.28-.1-.53-.24-.53-.52 0-.35.34-.53.66-.53.27 0 .64.11.77.52l.99-.36c-.33-.91-1.13-1.13-1.77-1.13-1.05 0-1.85.59-1.85 1.53 0 .46.26 1.03 1.27 1.41l.74.28c.31.13.55.28.55.54 0 .4-.4.53-.76.53-.46 0-.95-.23-1.08-.73l-.97.41Zm6.61-4.39c0-.48.25-.72.56-.72.3 0 .5.16.5.48 0 .05-.01.12-.03.17h.99c.04-.1.05-.25.05-.28 0-.73-.47-1.39-1.56-1.39-.85 0-1.76.38-1.76 1.93v.34h-.75v.94h.75V76h1.25v-4.12h1.23v-.94h-1.23v-.53Zm6.173 4.04c-.43.39-.9.62-1.53.62-1.09 0-1.74-.63-1.74-1.43h4.2c0-1.95-1.29-2.81-2.66-2.81-1.6 0-2.77 1.18-2.77 2.66 0 1.44 1.09 2.62 2.91 2.62.78 0 1.61-.21 2.29-.97l-.7-.69Zm-1.73-2.64c.52 0 1.21.22 1.4 1h-2.88c.26-.78.94-1 1.48-1Zm4.845-.87h-1.21V76h1.23v-2.34c0-1.4.75-1.65 1.2-1.65.16 0 .39.03.58.1V70.9c-.15-.04-.25-.07-.42-.07-.54 0-1.21.37-1.38 1.23v-1.12Zm6.453-1.35h-.95l-.22 1.35h-.85v.94h.79v2.48c0 1.39.83 1.75 1.67 1.75 1.09 0 1.6-.66 1.6-1.4 0-.09-.02-.38-.11-.57h-1.01c.05.11.07.31.07.42 0 .31-.2.52-.5.52-.36 0-.49-.24-.49-.55v-2.65h1.51v-.94h-1.51v-1.35Zm2.845 6.41h1.23v-2.53c0-1.15.69-1.6 1.29-1.6.61 0 .99.46.99 1.34V76h1.23v-2.8c0-1.46-.62-2.37-1.88-2.37-.72 0-1.31.3-1.63.96v-3.02h-1.23V76Zm10.224-1.55c-.43.39-.9.62-1.53.62-1.09 0-1.74-.63-1.74-1.43h4.2c0-1.95-1.29-2.81-2.66-2.81-1.6 0-2.77 1.18-2.77 2.66 0 1.44 1.09 2.62 2.91 2.62.78 0 1.61-.21 2.29-.97l-.7-.69Zm-1.73-2.64c.52 0 1.21.22 1.4 1h-2.88c.26-.78.94-1 1.48-1Zm7.764-1.4c0-.48.25-.72.56-.72.3 0 .5.16.5.48 0 .05-.01.12-.03.17h.99c.04-.1.05-.25.05-.28 0-.73-.47-1.39-1.56-1.39-.85 0-1.76.38-1.76 1.93v.34h-.75v.94h.75V76h1.25v-4.12h1.23v-.94h-1.23v-.53Zm6.937.53h-1.23v2.19c0 1.43-.73 1.9-1.3 1.9-.66 0-.98-.48-.98-1.3v-2.79h-1.23v2.8c0 1.46.62 2.37 1.88 2.37.72 0 1.31-.3 1.63-.96V76h1.23v-5.06Zm1.405 5.06h1.23v-2.53c0-1.06.58-1.6 1.3-1.6.61 0 .98.46.98 1.34V76h1.23v-2.8c0-1.46-.61-2.37-1.87-2.37-.72 0-1.32.3-1.64.96v-.85h-1.23V76Zm6.984-2.54c0-.87.52-1.6 1.45-1.6.92 0 1.54.67 1.54 1.65 0 1-.66 1.57-1.5 1.57-.92 0-1.49-.72-1.49-1.62Zm2.97-4.69v2.92c-.42-.58-1.05-.86-1.73-.86-1.55 0-2.48 1.19-2.48 2.62 0 1.48.98 2.66 2.47 2.66.74 0 1.37-.32 1.74-.87V76h1.23v-7.23h-1.23Zm2.193 6.03c.29.97 1.22 1.31 2.04 1.31 1.05 0 1.98-.54 1.98-1.54 0-.44-.21-1.09-1.29-1.45l-.75-.27c-.28-.1-.53-.24-.53-.52 0-.35.34-.53.66-.53.27 0 .64.11.77.52l.99-.36c-.33-.91-1.13-1.13-1.77-1.13-1.05 0-1.85.59-1.85 1.53 0 .46.26 1.03 1.27 1.41l.74.28c.31.13.55.28.55.54 0 .4-.4.53-.76.53-.46 0-.95-.23-1.08-.73l-.97.41Zm4.86.52c0 .45.36.79.84.79.47 0 .84-.34.84-.79 0-.46-.37-.81-.84-.81-.48 0-.84.35-.84.81Z" fill="#fff"/>
    <path fill-rule="evenodd" clip-rule="evenodd" d="M368.35 110.32c1.55-3.25-.08-6.47-1.94-8.74-1.97-2.39-4.84-4.59-7.65-6.32a36.472 36.472 0 0 0-8.02-3.8 7.97 7.97 0 0 0-3.4-.4 3.1 3.1 0 0 0-2.19 1.43 3.132 3.132 0 0 0-.2 2.67c.55 1.58 1.82 2.73 2.88 3.53.51.38 1.06.74 1.6 1.08a95.792 95.792 0 0 0-22.6-1c-29.57 2.06-53.68 27.93-57.05 54.89-3.34.2-6.6 1.28-9.18 3.66-3.95 3.63-4.93 8.93-4.51 13.85a31.3 31.3 0 0 0 4.63 13.65c3.64 5.69 9.74 10.17 15.85 12.25 3.23 6.46 10.06 12.67 18.58 17.3a67.72 67.72 0 0 0 31.85 8.24 67.796 67.796 0 0 0 31.85-8.24c8.52-4.63 15.35-10.84 18.58-17.3 6.11-2.08 12.21-6.56 15.85-12.25a31.3 31.3 0 0 0 4.63-13.65c.42-4.92-.56-10.22-4.5-13.84a14.577 14.577 0 0 0-9.04-3.66c-1.1-12.68-5.7-22.75-12.73-30.56a54.566 54.566 0 0 0-10.9-9.23c.52-.03 1.02-.07 1.47-.13 4.02-.52 5.6-2.28 6.14-3.43Z" fill="#fff"/>
    <path fill-rule="evenodd" clip-rule="evenodd" d="M366.65 155.3v-2.68h-2.68v1.34h-2.67v4.02h1.33v1.34h1.34v-1.34h-1.33v-1.34h4.01v1.34h-1.33v1.34H368v-1.34h1.33v-1.34H368v-1.34h-1.35Zm-2.68 0v-1.34h1.34v1.34h-1.34Zm0-9.37h-2.67v4.01h1.33v1.34h-1.33v1.34h1.34v-1.34h1.33v-2.68h-1.34v-1.34h1.34v-1.33Zm4.03 5.35h-1.35v-4.02h-2.68v4.02h1.35v1.34H368v-1.34Zm-25.46-12.05v-1.34h-2.68v1.34h2.68Zm-9.38-9.38h-2.68v1.34h2.68v-1.34Zm5.36 1.34v-1.34h-2.68v1.34h2.68Zm1.34-1.34h1.34v1.34h4.02v-2.68h-2.68v1.34h-1.34v-2.68h2.68v-1.34h-5.36v1.34h1.34v2.68Zm-1.34-2.68h-1.34v-1.34h-1.34v2.68h2.68v-1.34Zm6.7-2.67h-4.02v1.33h4.02v-1.33Zm-37.51 1.33h-1.34v1.34h1.34v-1.34Zm9.38 8.04h-2.68v-1.34h-1.34v-1.34h-1.34v1.34h1.34v1.34h1.33v2.68h1.35v-1.34h5.35v4.02h1.35v-4.02h1.33v1.34h2.68v-1.34h4.02v1.34h1.34v-1.35h-1.34v-2.67h-2.68v-1.34h-1.34v-1.34h-2.68v-1.34h-4.01v-.01h-1.34v2.69h1.34v-1.34h1.33v4.02h-2.67v-2.68h-2.68v1.34h1.34v1.34Zm8.03-1.34v-1.34h1.34v1.34h-1.34Zm0 0v1.34h1.34v1.33h-2.68v-1.33h-1.33v1.33h-1.34v-1.33h1.34v-1.34h2.67Zm-2.67-2.68h1.33v1.34h-1.33v-1.34Zm-26.8 6.7h-2.68v2.68h2.68v-2.68Zm0 0h2.68v-4.02H297v1.34h-1.35v2.68Zm14.74-4.02h-2.68v-1.34h-1.34v2.68h-2.68v-1.34h-1.34v-1.34h-2.68v1.34h1.34v1.34h-1.34v1.34h2.68v1.34h1.34v-1.34h2.68v-1.34h1.33v2.68h2.69v-4.02Zm-8.04 4.02h-2.68v-1.35h-1.34v1.35h1.34v2.68h2.68v-2.68Zm-9.38 6.7h-1.34v-1.35h-1.33v6.7h2.67v-5.35Zm22.78-18.75h-5.36v1.33h5.36v-1.33Zm-5.36 5.35h-1.34v1.34h1.34v-1.34Zm2.68 4.02h-1.34v1.33h-1.34v1.35h1.34v-1.34h1.34v-1.34Zm-4.02 2.68v1.34h-1.35v-1.34h1.35Zm0 2.68v-1.34h1.34v1.34h-1.34Zm-6.7-10.72h1.34v2.68h-1.34v-2.68Zm12.05 10.72v-1.34h1.35v1.34h-1.35Zm1.35-1.34v-1.34h1.34v1.34h-1.34Zm2.68-1.34h1.34v1.34h-1.34v-1.34Zm5.35 1.34h1.35v1.34h-1.35v-1.34Zm-25.45 0H297v1.34h1.33v-1.34Zm-5.36 2.68h-1.34v1.34h1.34v-1.34Zm10.72-2.68h-1.34v1.34h1.34v-1.34Zm4.01-9.38h-1.33v1.34h1.34v-1.34h2.68v1.34h2.68v-1.34h-2.68v-1.34h1.34v-1.34h-2.68v1.34h-1.35v1.34Zm-18.75 25.45h-1.34v-1.34h-1.34v1.34h.01v1.34h2.67v-1.34Zm0-2.68h-1.33v1.34h5.35v-2.68h-2.68v-1.34h-1.34v2.68Zm1.35 2.68h1.33v1.34h-1.33v-1.34Zm1.33 1.34h1.34v4.02h-1.34v-4.02Zm-2.68-10.71h1.34v1.34h-1.34v-1.34Zm28.14-18.76h2.68v1.34h-2.68v-1.34Zm-2.69 0v1.34h-1.33v2.68h1.33v-1.34h1.35v-2.68h-1.35Zm12.06 12.06v1.34h-1.33v-1.34h1.33Zm-13.39-1.34v2.68h-1.34v-2.68h1.34Zm-6.7 1.34v1.34h-1.34v-1.34h1.34Zm29.47-5.36h8.04v1.34h-8.04v-1.34Zm-2.68 2.67h1.34v-1.33h2.68v1.33h1.34v-1.33h2.68v1.33h1.34v-1.33h2.68v-1.34h1.34v-1.34h1.34v2.68h-1.34v1.33h2.68v1.35h1.34v2.68h-4.02v-2.68h-1.34v-1.34h-2.68v1.34h-9.38v-1.35Zm17.42 1.35v-2.68h1.34v-1.34h1.34v2.67h1.34v1.35h-4.02Zm-21.44 1.34h4.02v1.34h-4.02v-1.34Zm4.02 0h2.68v-1.34h-2.68v1.34Zm21.44-1.34h2.68v1.34h1.33v1.34h-6.69v-1.34h2.68v-1.34Zm0-1.34h2.68v1.34h1.33v-1.34h.01v-1.34h-1.34v-1.34h-1.34v-1.34h-1.34v1.34h1.34v1.34h-1.34v1.34Zm-4.02-8.04h1.34v2.68h1.34v1.34h-1.34v1.34h-1.34v-5.36Zm-13.4 10.72h1.34v1.34h-1.34v-1.34Zm9.38-12.06v4.02h-1.34v-4.02h1.34Zm16.08 17.42h1.33v1.34h-2.67v-5.36h1.34v4.02Zm-1.34-4.02h-1.34v-1.34h1.34v1.34Zm-72.35 16.07v1.34h-2.68v-1.34h2.68Zm2.68 18.76v-4.02h1.34v4.02h-1.34Zm-1.33 8.04-.01-2.68v-2.68h2.68v5.36h-2.67Zm0-14.74v-1.34h2.67v1.34h-1.34v1.34h1.34v1.34h-2.67v-1.34h-2.69v-1.34h2.69Zm2.67-2.68h-1.34v1.34h1.34v-1.34Zm-5.36 17.42v-1.34h1.34v-1.34h1.34v-1.34h-2.67v1.34h-1.35v2.68h1.34Zm-2.67-1.34h-1.34v1.34h1.34v-1.34Zm-2.68 4.01v-1.33h4.01v1.33h-4.01Zm-1.34 0h1.34v1.34h10.71v-2.68h-2.68v-1.33h-1.34v2.67h-1.34v-1.34h-1.34v-1.33h-5.35v2.67Zm8.03 4.02v-1.34h-1.34v-1.34h-1.34v1.34h-1.33v-1.34h-1.34v1.34h1.34v1.34h4.01Zm-6.69-1.34h1.34v1.35h-4.02v-2.69h2.68v1.34Zm9.37 0h-1.33v1.34h1.33v-1.34Zm-1.33-22.77V162h-2.69v1.34h-1.34v1.34h4.03Zm-.01-5.36v-1.34h-4.02v1.34h.01v1.34h2.67v-1.34h1.34Zm1.34 0v4.02h-1.33v-4.02h1.33Zm-6.69 29.48v1.33h-2.68v1.34h2.68v1.34h1.33v-1.34h4.02v1.34h-1.34v1.34h-2.68v2.68h-1.33v-2.68h-1.34v-1.34h-1.34v1.34h1.34v1.34h-2.68v-1.34h-1.34v-2.68h1.34v-1.34h-1.34v-1.33h5.36Zm1.33 8.03h1.34v-1.33h2.69v2.67h-4.03v-1.34Zm6.7-6.7v2.68h-1.34v-4.01h1.34v1.33Zm-1.34 2.68v4.02h-1.33v-4.02h1.33Zm-2.68-4.02v1.34h-2.68v-1.34h2.68Zm0 10.72v1.34h1.35v-1.34h1.33v-1.34h1.34v2.68h-1.34v1.34h1.34v1.34h.27v4.02H297v1.34h-4.02v-1.34h-.01v1.34h-1.34v-1.34h.01v-4.02h-1.34v-1.34h-2.69v-1.34h-1.33v1.34h-1.34v-1.34h-1.34v-1.34h5.35Zm2.68 8.04h-1.33v-1.35h1.33v1.35Zm6.7 2.68H297v-1.34h1.33v1.34Zm1.34 0v1.34h-1.34v-1.34h1.34Zm1.34-1.34v1.34h-1.34v-1.34h-1.34v-1.34h2.68v1.34Zm2.68 0h-2.68v4.02h1.34v-1.34h1.34v1.34h.01v1.34h1.33v-1.34h1.34v-1.34h-2.68v-2.68Zm0 0v-1.34h1.34v1.34h-1.34Zm16.08 6.7v-1.34h-1.34v-2.68h5.35v1.34h-1.33v4.02h2.67v-1.34h-1.34v-2.68h1.34v2.68h1.34v1.34h-1.33v1.34h-6.7v-1.34h2.67v-1.34h-1.33Zm-2.68-5.36h1.34v2.68h-4.03v-1.34h-1.33v-1.34h1.34v1.34h2.68v-1.34Zm-1.34-1.34v1.34h1.34v-1.34h2.68v1.34h4.01v1.34h2.68v-1.34h-1.34v-1.34h-4.01v-1.34h-4.02v1.34h-1.34Zm0 0h-2.68v-1.34h2.68v1.34Zm13.39 2.68h-1.34v1.34h1.34v-1.34Zm0 5.36h-1.34v1.34h1.34v-1.34Zm-14.73-1.34h-2.68v1.34h2.68v-1.34Zm4.02 0h-1.34v-1.34h-1.34v1.34h1.34v1.34h1.34v-1.34Zm-9.38-1.34v-1.35h-2.68v1.35h2.68Zm1.34-1.35h1.34v-1.33h1.34v2.68h-2.68v-1.35Zm1.34-1.33h-4.03v-1.34h4.03v1.34Zm-28.13-14.74h-1.34v1.34h1.34v-1.34Zm45.54 17.42h-2.68v1.34h2.68v-1.34Zm-17.41-6.7h-4.03v1.34h-1.33v2.68h1.33v-2.68h4.03v-1.34Zm14.73 4.02h1.34v-2.68h-1.34v-1.34h-1.33v1.34h1.33v2.68Zm38.85-45.55h-2.68v-1.34h-1.33v2.68h1.33v4.02h1.34v1.34h1.34v-1.34h-1.34v-1.34h2.68v-1.34h-1.34v-2.68Zm1.34 18.75v-5.35h-1.34v1.34h-1.34v-1.34h-2.67v4.02h1.33v1.33h-1.33v1.34h1.34v-1.34h4.01Zm-2.68-4.01v1.34h-1.34v-1.34h1.34Zm1.34-17.42h-1.34v1.34h1.34v-1.34Zm2.69 1.34h-1.34v1.34H368v1.34h-1.34v1.34H368v-1.34h1.33v-1.34H368v-1.34Zm-5.37-2.68h-1.33v1.34h1.33V162Zm10.72 24.11h-1.34v1.34h1.34v-1.34Zm0 0v-1.34h1.34v1.34h-1.34Zm-1.35-2.68h-2.67v-1.33h-2.68v1.34H368v1.33h4v-1.34Zm-8.03 2.68h1.34v-1.34h5.36v1.34h-4.02v2.686l-1.33-.002-.01-1.344h-1.34v-1.34Zm0 1.34v1.343l-2.67-.003v-1.34h2.67Zm8.04-5.35h1.34v1.34h-1.34v-1.34Zm0 0h-1.34v-1.34h1.34v1.34Zm-2.68 5.35v1.349l-1.33-.002v-1.347h1.33Zm2.68 0h2.68v1.34h-2.68v-1.34Zm-5.36-8.03H368v1.34h-1.35v-1.34Zm-2.68-20.1h2.68v1.34h-1.34V162h-2.68v-1.34h1.34v-1.34Zm1.35 2.68H368v1.34h-2.68V162Zm-4.02 10.72h2.67v1.34h-2.67v-1.34Zm1.33 2.68v2.68h-1.33v-2.68h1.33Zm.01 14.73v1.34h1.33v1.34h-1.34v-1.34h-1.33v-1.34h-.01l.01-1.34 9.37.01v1.33h-1.34v1.34h1.34v4.02h-1.34v1.34H368v-2.68h1.33v-1.34h-2.68v1.34h-1.34v1.34h-2.68v-1.34h1.34v-1.34h1.34v-1.34h1.34v-1.34h-4.01Zm8.03 1.34v-1.34h4.02v4.02h-2.68v-2.68h-1.34Zm-5.36 12.06h-1.34v1.34h-1.34v-4.02h-1.33v-2.68h1.33v1.34h2.68v2.68h1.34v1.34h-1.34Zm-1.34 1.34h1.34v1.34h-1.34v-1.34Zm-8.03 2.68v1.34h2.68v1.34h-4.02v-1.34h-1.34v-1.34h2.68Zm-2.68 2.68v-1.34h-1.34v-1.34h-1.34v1.34h1.34v1.34h1.34Zm0 0v1.34h1.34v-1.34h-1.34Zm5.36-1.34v-1.34h2.67v1.34h-2.67Zm-10.72 5.36v1.34h-2.68v-5.36h-4.02v-1.34h2.68v-1.34h1.34v1.34h1.34v1.34h4.02v1.34h-2.68v1.33h1.34v1.35h-1.34Zm-8.04-5.36v-1.34h1.34v1.34h-1.34Zm-2.68 5.36h1.34v-1.34h2.68v2.68h1.34v-1.34h1.34v-1.34h1.34v-1.34h-5.36v-2.68h-1.34v-1.34h-1.34v1.34h-1.34v-1.34h-4.02v1.34h2.68v1.34h2.68v1.34h1.34v-1.34h-1.34v-1.34h1.34v4.01h-1.34v1.35Zm0 0v1.34h1.34v-1.34h1.34v1.34h1.34v1.34h-4.02v1.34h-1.34v-4.02h1.34Zm26.79-17.42h1.34v1.34h-1.34v-1.34Zm2.69 1.34H368v1.34h-1.34v-1.34Zm1.34 2.68v-1.34h1.33v1.34H368Zm0 0v1.34h-1.34v-1.34H368Zm-21.44 6.7h1.34v1.34h-1.34v-1.34Zm4.02 4.02h1.34v1.34h-1.34v-1.34Zm-21.44-4.02h1.34v1.34h-1.34v-1.34Zm32.16-12.05h1.33v1.33h-1.33v-1.33Zm-32.16 14.73h1.34v1.34h-1.34v-1.34Zm2.68 4.02h-1.34v-2.68h1.34v-1.34h1.34v2.68h-1.34v1.34Zm2.68 0v2.68h-2.68v-2.68h2.68Zm0 0v-2.68h1.34v2.68h-1.34Zm36.17-16.08h1.34v1.34h-1.34v-1.34Zm-5.35-2.67H368v1.33h-2.68v-1.33Zm0 0h-.01l.01-.01v.01Zm-4.02 10.7h2.67v1.35h-2.67v-1.35Z" fill="#000"/>
    <path fill-rule="evenodd" clip-rule="evenodd" d="M289.3 175.31c-7.57 2.64-11.62 6.7-12.62 11.5-1.05 5.01 1.3 10.5 5.72 15.52 8.83 10.01 26.4 18.67 44.87 18.67 18.46 0 36.04-8.65 44.87-18.67 4.41-5.01 6.76-10.51 5.72-15.52-1-4.8-5.05-8.86-12.62-11.5 7.98-8.66 6.79-21.66 1.69-32.45a45.646 45.646 0 0 0-10.58-14.42c-4.17-3.7-8.85-6.07-13.36-6.07-6.93 0-10.96 2.96-15.07 5.99l-.16.11-.5.37-.49-.37-.15-.11c-4.12-3.03-8.14-6-15.07-6-4.52 0-9.2 2.39-13.37 6.08a45.616 45.616 0 0 0-10.57 14.42c-5.1 10.79-6.3 23.79 1.69 32.45Zm2.2 2.66a2.403 2.403 0 0 0 1.631-1.75 2.392 2.392 0 0 0-.691-2.29c-7.49-7.2-6.99-18.99-1.93-29.7 2.5-5.26 5.99-10 9.8-13.38 3.87-3.43 7.82-5.27 11.24-5.27 5.87 0 9.15 2.42 13.32 5.48l.98.72c.84.62 2 .62 2.84 0l.98-.72c4.16-3.06 7.45-5.48 13.32-5.48 3.42 0 7.37 1.84 11.23 5.27a42.422 42.422 0 0 1 9.8 13.39c5.06 10.7 5.56 22.49-1.93 29.7a2.427 2.427 0 0 0-.661 2.283 2.427 2.427 0 0 0 1.611 1.747c7.82 2.45 10.95 6.06 11.67 9.5.75 3.57-.86 8.05-4.98 12.73-8.2 9.3-24.87 17.59-42.46 17.59-17.6 0-34.27-8.3-42.46-17.59-4.12-4.68-5.73-9.16-4.98-12.74.71-3.43 3.84-7.04 11.66-9.49h.01Z" fill="#fff"/>
    <path fill-rule="evenodd" clip-rule="evenodd" d="M277.99 195.75c-6-1.86-12.1-6.24-15.65-11.8a29.701 29.701 0 0 1-4.38-12.91c-.4-4.66.56-9.38 4-12.53 2.58-2.37 5.98-3.32 9.53-3.27 2.61-26.75 26.49-52.82 55.71-54.87a93.072 93.072 0 0 1 22.87 1.09c1.25.19 2.27.35 3.12.43.65.06 1.15.07 1.52.03.48-.05.9-.19.47-.6a14.198 14.198 0 0 0-2.53-1.68c-1.1-.63-2.38-1.35-3.46-2.14-1.06-.77-2.07-1.72-2.47-2.87-.13-.38-.2-.87.07-1.31a1.498 1.498 0 0 1 1.08-.68c.7-.11 1.66.06 2.67.37a35.09 35.09 0 0 1 7.64 3.62c2.73 1.68 5.44 3.78 7.24 5.97 1.77 2.16 2.86 4.68 1.74 7.04-.28.58-1.34 2.06-4.9 2.52-1.92.24-4.57.2-8.27-.44 6.86 3.45 12.91 7.92 17.7 13.6 6.48 7.67 10.63 17.5 11.44 29.91 3.52-.02 6.88.93 9.44 3.28 3.43 3.15 4.4 7.87 4 12.53a29.701 29.701 0 0 1-4.38 12.91 29.779 29.779 0 0 1-15.65 11.8 27.594 27.594 0 0 1-4.41 6.58C363.3 212.34 345.74 221 327.27 221s-36.04-8.65-44.87-18.67a27.545 27.545 0 0 1-4.41-6.58Zm70.96-100.58c-.39-.41-.06-.93.49-.8.2.05.41.1.65.18 1.9.57 4.6 1.81 7.25 3.45 2.66 1.64 5.2 3.62 6.85 5.62 1.67 2.04 2.23 3.85 1.53 5.32-.02.04-.57 1.23-3.66 1.62-3.16.4-8.9-.04-19.17-3.37l-.07-.02a.8.8 0 0 0-.5 1.52l.07.03c11.26 3.66 21.08 9.34 28.09 17.64 7 8.3 11.24 19.27 11.2 33.6-.02 6.79-1.94 14.8-5.65 22.6-2.03-2.94-5.58-5.43-10.8-7.25 8-8.67 6.8-21.67 1.7-32.45a45.646 45.646 0 0 0-10.58-14.42c-4.16-3.7-8.85-6.07-13.36-6.07-6.96 0-11.03 3-15.17 6.06l-.55.4-.56-.4c-4.13-3.05-8.2-6.06-15.16-6.06-4.52 0-9.2 2.38-13.37 6.07a45.616 45.616 0 0 0-10.57 14.42c-5.1 10.78-6.3 23.78 1.69 32.45-5.22 1.82-8.77 4.32-10.8 7.27-3.7-7.77-5.66-15.75-5.64-22.62.07-27.52 24.39-55.87 54.46-58 9.06-.63 15.65.08 20.23.74 2.26.33 4.12.66 5.5.79 1.36.13 4.25.08 4-2.03-.06-.54-.4-.98-.73-1.3-.9-.87-2.06-1.46-3.14-2.07-1.02-.6-2.07-1.18-3.03-1.88-.43-.3-.83-.66-1.2-1.04Zm-71.42 89.09c-4.1-8.24-6.3-16.85-6.28-24.3 0-1.04.04-2.08.1-3.12-3.2-.02-6.13.86-8.3 2.86-2.93 2.68-3.86 6.8-3.49 11.2a28.1 28.1 0 0 0 4.13 12.2 28.303 28.303 0 0 0 13.52 10.7c-.78-2.37-1-4.72-.53-6.98.18-.88.46-1.73.85-2.55v-.01Zm99.8 9.53c5.23-1.95 10.42-5.87 13.51-10.7a28.103 28.103 0 0 0 4.13-12.19c.38-4.4-.56-8.52-3.47-11.2-2.17-2-5.08-2.87-8.27-2.86.04 1.02.06 2.06.06 3.12-.03 7.36-2.18 16-6.3 24.29.4.82.68 1.68.87 2.56.47 2.26.25 4.61-.53 6.98Zm-86-18.7c-8.24-7.92-7.44-20.6-2.27-31.54a44.034 44.034 0 0 1 10.2-13.9c4-3.56 8.32-5.67 12.29-5.67 6.41 0 10.09 2.7 14.24 5.76l1 .74c.29.2.67.2.95 0l1-.74c4.15-3.05 7.83-5.76 14.25-5.76 3.97 0 8.28 2.1 12.3 5.67a43.989 43.989 0 0 1 10.19 13.9c5.17 10.94 5.97 23.62-2.27 31.54a.8.8 0 0 0-.039 1.127.794.794 0 0 0 .349.223c8.1 2.53 11.88 6.45 12.76 10.7.9 4.29-1.08 9.28-5.35 14.12-8.5 9.66-25.63 18.14-43.66 18.14-18.03 0-35.16-8.48-43.67-18.14-4.26-4.84-6.24-9.83-5.35-14.13.89-4.24 4.67-8.16 12.76-10.69a.804.804 0 0 0 .551-.582.8.8 0 0 0-.231-.768Z" fill="#000"/>
  </g>
  <defs>
    <clipPath id="a">
      <path fill="#fff" d="M0 0h430v250H0z"/>
    </clipPath>
    <clipPath id="b">
      <rect x="218.727" y="-47" width="984.545" height="361" rx="180.5" fill="#fff"/>
    </clipPath>
  </defs>
</svg>
