<svg width="430" height="250" viewBox="0 0 430 250" fill="none" xmlns="http://www.w3.org/2000/svg">
  <path d="M430 0H0v250h430V0Z" fill="#B81C22"/>
  <path fill-rule="evenodd" clip-rule="evenodd" d="M239.16 41.55a27.715 27.715 0 0 1 10.5-6.52c5.86-1.74 7.07 3.37 6.17 3.48a32.483 32.483 0 0 0-15.82 6.38c2.7 10.72 3.08 20.78-1.54 25.47-7.32 7.36-13.9-.91-9.87-13.29a35.563 35.563 0 0 1 7.17-12.04c-1.9-5.1-4.06-10.11-6.48-15 2.35 7.47 3.58 14.38.91 16.48-2.85 2.26-6.28-.63-8.57-8.42-2.25-7.8-4.48-10.38-4.86-10.83l-.06-.07c2.53-2.87 6.54-2.12 9.33 7.41 2.002 6.648 2.371 9.827 3.61 8.84 1.8-1.33.64-8.48-3.83-19.98l-.8-1.45c-.15-.2-.28-.44-.37-.68.89-.93 5.22-3.21 5.84-1.97a127.4 127.4 0 0 1 8.66 22.19h.01ZM231 56.61c-3.34 11.2 3.65 15.79 8.06 11.43 2.68-2.54.99-10.9-2.3-20.32a21.204 21.204 0 0 0-5.76 8.9v-.01Zm-7.33-11.25c-.52-.64-.64-.43-.32 1.35.54 3 .5 3.64.29 4.68-.4 1.7-1.78-.85-3.41-3.95a55.756 55.756 0 0 1-4-9c-1.27-3.54-2.36-3.15-5.57-2.02a87.15 87.15 0 0 1-2.62.88 15.837 15.837 0 0 0-2.85-4.57c-.12-.06-5.02 4.9-3.2 6.42.95.85 2.48.86 4.27.56a27.922 27.922 0 0 1 4.23 10.98c.31 1.74.45 1.95.74 1.15.12-.63.1-1.29-.06-1.9a81.088 81.088 0 0 0-2.5-10.87c.33-.08.65-.19.96-.31.84-.25.88-.16 1.92 2.65.41 1.1.98 2.62 1.8 4.7 2.95 7.37 7.65 12 9.27 11.54 1.14-.32 1.8-1.76 1.98-4.22.18-2.09.06-4.2-.36-6.24a4.305 4.305 0 0 0-.57-1.83Zm-13.16 11.5c-.31-1.78-.2-2 .31-1.35.35.56.55 1.2.6 1.86.43 2.05.55 4.16.37 6.25-.05.85-.21 1.7-.48 2.52 1.77-.32 3.44-.23 2.91 1.29a35.786 35.786 0 0 1-10.03 14.85l-.04.03h.08c4.57.56 6.5 8.16 3.93 16.25a42.426 42.426 0 0 1-4.9 10.021c1.594 4.435 3.143 8.89 4.91 13.26-1.69-6.06-2.2-11.33.04-13.09 2.9-2.29 5.97 1.3 8.6 8.36 2.55 6.88 4.13 8.35 4.53 6.6.2-2.51 0-5.03-.58-7.47-.31-1.77-.21-2.03.29-1.38.36.57.59 1.22.65 1.9.48 2.52.68 5.1.6 7.68-.2 2.46-.85 3.9-1.98 4.22-1.47.4-5.3-1.36-7.89-8.06-.96-2.54-1.52-4.62-1.93-6.13-.6-2.25-.88-3.26-1.62-2.67-1.74 1.38-.65 8.31 3.67 19.47.52.97 1 1.98 1.4 3.01-2.13 2.41-5.2 2.38-8.27-4.62-1.72-3.87-2.65-6.2-3.91-9.34-.7-1.76-1.5-3.77-2.6-6.43a23.121 23.121 0 0 1-9.22 6.4l-.03.02a96.805 96.805 0 0 0 4.38 11.44c8 17.87 21.19 23.3 25.45-.49.1-.37 5.4-.27 4.6 2.77-4.3 14.9-23.16 27.45-34.25 1.3a59.202 59.202 0 0 1-4.32-14.63v-.03l-.07-.02c-2.68-.74-3.3-3.47-2.56-3.6l2.21-.4.08-.02c-.1-6.37 2.08-9.71 4.76-9.4 2.8.34 5.24 1.3 6.83 4.13.3-.22.58-.45.87-.68-2.78-7.61-4.66-17.75-1.4-23.65l-.04.01c-7.64 2.88-16.34.83-23.52-11.36a487.875 487.875 0 0 1-6.45-11.15c1.82 5.5 4 12.45 5.76 18.75 1.99 7.24 2.18 7.65 2.25 7.72.06.07-3.74 3.54-5.07 1.42-1.58-2.51-8.82-15.12-13.58-23.61 1.845 7.703 4.53 15.405 5.97 23.18 1.89 6.86 2.17 7.3 2.17 7.3-1.21 1.85-1.94 1.77-2.86-.78-.799-2.131-1.271-4.394-1.82-6.6-1.262-4.987-2.367-10.002-3.56-15A374.053 374.053 0 0 0 152 61.64c-.04-.1 5.33-4.38 6.28-2.24a244.504 244.504 0 0 0 11.32 23.01c-2.08-8.05-4.86-16.53-6.82-22.5a366.87 366.87 0 0 1-1.73-5.42c.861-1.148 5.636-4.133 6.22-2.21a75.337 75.337 0 0 0 5.1 11.45c1.25 2.3 2.28 4.07 3.22 5.69l.97 1.69c15.12 26.88 28.29 8.86 31.19-3.78a.556.556 0 0 1 .23-.17c-4.992-3.523-7.231-10.085-9.24-15.61-1.05-2.81-1.08-2.9-1.92-2.66-.32.12-.64.23-.96.3 1.07 3.58 1.9 7.21 2.47 10.9.17.61.2 1.27.07 1.9-.3.8-.43.59-.74-1.15a27.746 27.746 0 0 0-4.23-10.98c-1.79.3-3.33.28-4.27-.57-1.82-1.5 3.08-6.49 3.2-6.4 1.2 1.34 2.17 2.89 2.85 4.56.887-.24 1.744-.567 2.61-.87 3.22-1.13 4.32-1.52 5.58 2.03 1.07 3.1 2.4 6.11 4 8.99 1.64 3.1 3.02 5.64 3.4 3.95.23-1.05.26-1.67-.28-4.68l-.01-.01Zm-11.9 29.26c-2.79 2.37.07 10.1 3.32 18.881l.41 1.13a23.247 23.247 0 0 0 4.12-7.65c2.28-7.58-2-14.45-6.28-13.16l-1.57.8Zm-6.26 28.151c-.3-2.12-.84-5.59-1.52-5.47-2.05.41-2.68 2.85-2 6.95l.03-.01c1.19-.41 2.35-.9 3.48-1.47h.01Zm2.94-53.5c-.51-.63-.64-.37-.3 1.4.99 5.48-1.12 10.75-2.8 11.67-1.36.78-3.07-1.1-4.75-4.4 1.69-6.4 1.9-14.85.56-17.37-.74-1.38-3.03-1.27-4.43-1.2-6.852.342-3.301 15.402-1.88 19.03 2.28 5.9 7.33 9.42 10.5 6.91 2.95-2.33 4.49-8.93 3.72-14.15a4.264 4.264 0 0 0-.62-1.88v-.01Zm-11.91-8.43c1.52-.27 4.25 8.73 3.38 15.65-1.205-2.567-6.266-15.073-3.38-15.65Zm52.46 57.84c-.51-.64-.64-.44-.33 1.35.54 3 .51 3.64.3 4.68-.4 1.7-1.78-.85-3.42-3.95a56.657 56.657 0 0 1-3.98-9c-1.27-3.54-2.37-3.15-5.58-2.02-.867.304-1.735.598-2.61.88a15.835 15.835 0 0 0-2.85-4.57c-.13-.08-5.03 4.9-3.2 6.4.94.85 2.48.88 4.25.58a27.894 27.894 0 0 1 4.24 10.98c.32 1.74.45 1.95.74 1.15.12-.63.1-1.29-.07-1.9a79.558 79.558 0 0 0-2.47-10.9c.32-.07.64-.17.96-.3.85-.24.88-.15 1.93 2.68.41 1.1.98 2.6 1.8 4.67 2.95 7.39 7.64 12 9.27 11.55 1.13-.33 1.79-1.76 1.97-4.22.19-2.1.06-4.2-.37-6.25a4.36 4.36 0 0 0-.58-1.81Zm17.5-19.7c-.21-1.8-.21-2.02.29-1.38.37.56.57 1.21.59 1.88a5.85 5.85 0 0 1-1.33 3.95c2.02 5.9-2.23 12.51-4.84 12.21-2.62-.3-2.8-5.42.22-8.85a18.207 18.207 0 0 0-6.44-6.47l.4 2.91c.21 1.71.43 3.43.75 5.2.48 2.53.68 5.11.59 7.69-.19 2.46-.84 3.9-1.98 4.22-1.7.48-5.25-1.16-7.75-7.45-1.211-2.939-2.786-6.003-3.59-9.08.88-.96 5.18-3.1 5.67-1.82a62.51 62.51 0 0 0 4.74 12.2c1.2 2.18 1.62 2.2 1.85 1.32.23-2 .17-4.01-.17-6a40.91 40.91 0 0 0-3.03-10.62c-.98-.52-1.9-.95-2.68-1.32-.63-.28-1.247-.587-1.85-.92-.897 2.621-6.332 5.228-7.38 1.56-.74-2.574 2.734-5.224 5.144-4.809a3.35 3.35 0 0 1 1.836.969 14.738 14.738 0 0 1 3.56-4.03 13.335 13.335 0 0 1 2.93 5.67c3.74.79 8.6 2.16 10.44 4.5.449.566.834 1.18 1.15 1.83.66-.99.96-2.17.88-3.35v-.01Zm-4.68 8.56c-2.02 2.33-1.11 4.82.13 4.99 2.634.368.352-3.921-.13-4.98v-.01Zm13.97-17.05c-.5-.64-.6-.4-.3 1.38.64 3.2 1.03 6.19.77 7.26-.4 1.76-.52 1.97-2.2-1a121.209 121.209 0 0 1-8.13-20.12c2.15-2.11 2.86-3.48 2.94-5.28-.05-.26-.06-.34-.16-.28l-3.56 2.81c-.4-1.53-.64-2.65-.73-3.1a5.081 5.081 0 0 0-.05-.21c-.67-2.24-6.34 2.07-6.26 2.24l.86 1.9c.47 1.02.92 2.02 1.35 3l-1.28 1.01c-.957.892-.71 2.57.5 3.13a44.198 44.198 0 0 0 1.95-1.48c1.79 4.16 3.32 7.99 4.53 11v.01c1.06 2.65 1.87 4.67 2.39 5.77 1.85 4.1 4.82 6.25 6.56 5.75 1.13-.33 1.79-1.77 1.98-4.23.09-2.57-.11-5.15-.6-7.68a4.465 4.465 0 0 0-.57-1.9l.01.02Zm24.28-20.88c-3.43-8.86.3-16.9 3.07-16.37l.32.05c1.58.27 6.53 1.1 7.3 3.17.37 1.088 4.166 12.09 5.75 11.76.17-.03.26-.44.42-1.14l.02-.08c.31-1.28 0-4.23-.62-7.43-.3-1.78-.22-2.02.3-1.38.34.58.55 1.22.6 1.9.49 2.53.69 5.1.58 7.68l-.07.7c-.05.81-.2 1.62-.42 2.4-.252 1.124-1.434 1.862-2.51 1.24-1.56-.76-3.51-3.2-4.75-6.02l.2.55c1.15 3.17 2.85 7.85.38 9.81-2.3 1.82-6.22.12-8.86-3.64.52 3.31.78 6.66.77 10-.19 2.98-1.18 4.35-2.4 4.57-1.55.3-5.3-4.38-7.86-11.03-.83-2.18-1.39-3.97-1.82-5.33-.82-2.62-1.16-3.7-1.97-3.05-1.78 1.4-.36 8.32 4.3 20.2.28.63.6 1.26.94 1.86-2.94 3.29-6.63-.5-9.27-7.49a90.524 90.524 0 0 1-1.82-5.34c-.82-2.62-1.16-3.7-1.98-3.05-1.77 1.42-.4 8.2 4.15 19.86.3.76.68 1.48 1.13 2.17-2.16 2.4-5.13 2.43-8.29-4.55a208.17 208.17 0 0 1-3.25-7.78 161.898 161.898 0 0 0-3.54-8.35c-.08-.15 5.4-4.01 6.12-2.11a65.191 65.191 0 0 0 3.03 9.52c-1.5-5.67-1.88-10.53.3-12.24 2.39-1.84 5.03.36 7.34 5.4-1.33-5.4-1.61-9.93.45-11.57 2.88-2.27 5.99 1.29 8.61 8.4 2.56 6.84 4.8 10.95 5 9.17.01-3.43-.3-6.84-.9-10.21-.159-.844-.444-1.46-.75-2.25Zm10 3.84c-1.28 1-3.5-2.15-5.58-7.28-2.08-5.12-2.63-10.86-.56-11.3.695-.113 1.346 2.628 1.6 3.25l2.58 6.41c.62 1.652 3.957 7.325 1.95 8.91l.01.01Zm16.86-33.91c.64-1.67.74-1.9.9-1.05.03.65-.1 1.3-.39 1.9-.53 1.441-1.902 4.848-3 7.82a9.1 9.1 0 0 1 3.27 2.27 8.905 8.905 0 0 1 1.73 7.62 10.661 10.661 0 0 1-2.05 4.39 6.462 6.462 0 0 1-2.54 2.1c-.955.446-2.04-.008-2.61-.84-1.52-1.99-1.6-6.58-.42-10.72a23.255 23.255 0 0 0-3.66-2.8c.21 1.28.4 2.56.57 3.76.2 1.38.39 2.66.58 3.76.15.62.17 1.27.07 1.9-.3.81-.42.6-.73-1.14a37.685 37.685 0 0 0-2.89-9.64 48.708 48.708 0 0 1-4.91-2.48c-1.83-1.51 3.12-6.52 3.2-6.41 1.5 1.73 2.57 3.8 3.11 6.02 2.22.44 4.4 1.07 6.52 1.89l3.25-8.35Zm-.73 22.44c.11-.48.1-.99-.01-1.47a14.578 14.578 0 0 0-3.66-6.73c-.8 3.56.13 7.26 1.44 8.49.576.605 2.025.712 2.23-.29Z" fill="#fff"/>
  <path d="M89.447 32.784h-6.18l-.8 2.219h-2.352l5.558-13.985h1.367l5.576 13.985h-2.368l-.801-2.219Zm-.682-1.885-2.4-6.602-2.402 6.602h4.802Zm27.555 1.884h-6.177l-.823 2.22h-2.351l5.576-13.985h1.368l5.579 13.985h-2.373l-.801-2.219.002-.001Zm-.684-1.884-2.398-6.602-2.403 6.602h4.801Zm22.572 3.302a7.16 7.16 0 0 1 0-12.399 7.218 7.218 0 0 1 7.207 0 7.16 7.16 0 0 1 0 12.399 7.214 7.214 0 0 1-7.207 0Zm6.171-1.804a5.014 5.014 0 0 0 2.512-4.391 5.095 5.095 0 0 0-5.125-5.068 5.11 5.11 0 0 0-2.51.672 5.009 5.009 0 0 0-2.515 4.392 5.099 5.099 0 0 0 3.169 4.692 5.11 5.11 0 0 0 4.469-.297ZM78.588 29.11c.445.625.672 1.38.644 2.146a3.649 3.649 0 0 1-.522 1.955 3.613 3.613 0 0 1-1.429 1.304c-.62.322-1.308.49-2.006.489h-5.909V21.018h5.224a4.36 4.36 0 0 1 2.023.468c.598.308 1.1.777 1.445 1.355a3.7 3.7 0 0 1 .525 1.98 3.559 3.559 0 0 1-.46 1.852 3.225 3.225 0 0 1-1.306 1.211 3.542 3.542 0 0 1 1.771 1.225Zm-2.529 3.628c.32-.166.587-.416.775-.722.19-.308.287-.664.281-1.025a1.913 1.913 0 0 0-.286-1.03 2.141 2.141 0 0 0-1.845-1.015h-3.53V33h3.515c.38.008.756-.083 1.09-.264Zm.134-8.766a1.988 1.988 0 0 0-.77-.696 2.21 2.21 0 0 0-1.066-.26h-2.903v4.04h2.89a2.14 2.14 0 0 0 1.837-1.021c.19-.314.29-.676.286-1.043a1.874 1.874 0 0 0-.273-1.02h-.001Zm29.211-2.955v13.987h-.87l-8.161-9.484v9.486h-2.15V21.018h.84l8.191 9.43v-9.433h2.15Zm26.873 0v13.987h-.87l-8.157-9.486v9.486h-2.151V21.018h.846l8.182 9.43v-9.432h2.15Zm-80.92 16.836C39.371 39.362 33.851 28.8 34.83 27.77c.646-.679 1.652-.72 2.522-.744 4.008-.109 9.68 4.573 10.831 4.551 2.228-.046 5.58-3.589 7.776-6.51.92-1.222 6.661-3.064 6.025.148-2.066 10.41-9.101 12.443-10.629 12.635v.002ZM34.677 18.147c11.986-1.51 17.504 9.05 16.526 10.082-.647.679-1.651.72-2.522.744-4.008.108-9.68-4.575-10.83-4.551-2.228.046-5.58 3.588-7.776 6.51-.92 1.222-6.662 3.064-6.025-.147 2.063-10.41 9.1-12.444 10.627-12.637v-.001Z" fill="#fff"/>
  <path fill-rule="evenodd" clip-rule="evenodd" d="M372.35 58.32c1.55-3.25-.08-6.47-1.94-8.74-1.97-2.39-4.84-4.59-7.65-6.32a36.472 36.472 0 0 0-8.02-3.8 7.97 7.97 0 0 0-3.4-.4 3.1 3.1 0 0 0-2.19 1.43 3.132 3.132 0 0 0-.2 2.67c.55 1.58 1.82 2.73 2.88 3.53.51.38 1.06.74 1.6 1.08a95.792 95.792 0 0 0-22.6-1c-29.57 2.06-53.68 27.93-57.05 54.89-3.34.2-6.6 1.28-9.18 3.66-3.95 3.63-4.93 8.93-4.51 13.85a31.3 31.3 0 0 0 4.63 13.65c3.64 5.69 9.74 10.17 15.85 12.25 3.23 6.46 10.06 12.67 18.58 17.3a67.72 67.72 0 0 0 31.85 8.24 67.796 67.796 0 0 0 31.85-8.24c8.52-4.63 15.35-10.84 18.58-17.3 6.11-2.08 12.21-6.56 15.85-12.25a31.3 31.3 0 0 0 4.63-13.65c.42-4.92-.56-10.22-4.5-13.84a14.577 14.577 0 0 0-9.04-3.66c-1.1-12.68-5.7-22.75-12.73-30.56a54.55 54.55 0 0 0-10.9-9.23c.52-.03 1.02-.07 1.47-.13 4.02-.52 5.6-2.28 6.14-3.43Z" fill="#fff"/>
  <path fill-rule="evenodd" clip-rule="evenodd" d="M370.65 103.3v-2.68h-2.68v1.34h-2.67v4.02h1.33v1.34h1.34v-1.34h-1.33v-1.34h4.01v1.34h-1.33v1.34H372v-1.34h1.33v-1.34H372v-1.34h-1.35Zm-2.68 0v-1.34h1.34v1.34h-1.34Zm0-9.37h-2.67v4.01h1.33v1.34h-1.33v1.34h1.34v-1.34h1.33V96.6h-1.34v-1.34h1.34v-1.33Zm4.03 5.35h-1.35v-4.02h-2.68v4.02h1.35v1.34H372v-1.34Zm-25.46-12.05v-1.34h-2.68v1.34h2.68Zm-9.38-9.38h-2.68v1.34h2.68v-1.34Zm5.36 1.34v-1.34h-2.68v1.34h2.68Zm1.34-1.34h1.34v1.34h4.02v-2.68h-2.68v1.34h-1.34v-2.68h2.68v-1.34h-5.36v1.34h1.34v2.68Zm-1.34-2.68h-1.34v-1.34h-1.34v2.68h2.68v-1.34Zm6.7-2.67h-4.02v1.33h4.02V72.5Zm-37.51 1.33h-1.34v1.34h1.34v-1.34Zm9.38 8.04h-2.68v-1.34h-1.34v-1.34h-1.34v1.34h1.34v1.34h1.33v2.68h1.35v-1.34h5.35v4.02h1.35v-4.02h1.33v1.34h2.68v-1.34h4.02v1.34h1.34V83.2h-1.34v-2.67h-2.68v-1.34h-1.34v-1.34h-2.68v-1.34h-4.01v-.01h-1.34v2.69h1.34v-1.34h1.33v4.02h-2.67v-2.68h-2.68v1.34h1.34v1.34Zm8.03-1.34v-1.34h1.34v1.34h-1.34Zm0 0v1.34h1.34v1.33h-2.68v-1.33h-1.33v1.33h-1.34v-1.33h1.34v-1.34h2.67Zm-2.67-2.68h1.33v1.34h-1.33v-1.34Zm-26.8 6.7h-2.68v2.68h2.68v-2.68Zm0 0h2.68v-4.02H301v1.34h-1.35v2.68Zm14.74-4.02h-2.68v-1.34h-1.34v2.68h-2.68v-1.34h-1.34v-1.34h-2.68v1.34h1.34v1.34h-1.34v1.34h2.68v1.34h1.34v-1.34h2.68v-1.34h1.33v2.68h2.69v-4.02Zm-8.04 4.02h-2.68V83.2h-1.34v1.35h1.34v2.68h2.68v-2.68Zm-9.38 6.7h-1.34V89.9h-1.33v6.7h2.67v-5.35Zm22.78-18.75h-5.36v1.33h5.36V72.5Zm-5.36 5.35h-1.34v1.34h1.34v-1.34Zm2.68 4.02h-1.34v1.33h-1.34v1.35h1.34v-1.34h1.34v-1.34Zm-4.02 2.68v1.34h-1.35v-1.34h1.35Zm0 2.68v-1.34h1.34v1.34h-1.34Zm-6.7-10.72h1.34v2.68h-1.34v-2.68Zm12.05 10.72v-1.34h1.35v1.34h-1.35Zm1.35-1.34v-1.34h1.34v1.34h-1.34Zm2.68-1.34h1.34v1.34h-1.34v-1.34Zm5.35 1.34h1.35v1.34h-1.35v-1.34Zm-25.45 0H301v1.34h1.33v-1.34Zm-5.36 2.68h-1.34v1.34h1.34v-1.34Zm10.72-2.68h-1.34v1.34h1.34v-1.34Zm4.01-9.38h-1.33v1.34h1.34v-1.34h2.68v1.34h2.68v-1.34h-2.68v-1.34h1.34v-1.34h-2.68v1.34h-1.35v1.34Zm-18.75 25.45h-1.34v-1.34h-1.34v1.34h.01v1.34h2.67v-1.34Zm0-2.68h-1.33v1.34h5.35v-2.68h-2.68V96.6h-1.34v2.68Zm1.35 2.68h1.33v1.34h-1.33v-1.34Zm1.33 1.34h1.34v4.02h-1.34v-4.02Zm-2.68-10.71h1.34v1.34h-1.34v-1.34Zm28.14-18.76h2.68v1.34h-2.68v-1.34Zm-2.69 0v1.34h-1.33v2.68h1.33v-1.34h1.35v-2.68h-1.35Zm12.06 12.06v1.34h-1.33v-1.34h1.33Zm-13.39-1.34v2.68h-1.34v-2.68h1.34Zm-6.7 1.34v1.34h-1.34v-1.34h1.34Zm29.47-5.36h8.04v1.34h-8.04v-1.34Zm-2.68 2.67h1.34v-1.33h2.68v1.33h1.34v-1.33h2.68v1.33h1.34v-1.33h2.68v-1.34h1.34v-1.34h1.34v2.68h-1.34v1.33h2.68v1.35h1.34v2.68h-4.02v-2.68h-1.34v-1.34h-2.68v1.34h-9.38V83.2Zm17.42 1.35v-2.68h1.34v-1.34h1.34v2.67h1.34v1.35h-4.02Zm-21.44 1.34h4.02v1.34h-4.02v-1.34Zm4.02 0h2.68v-1.34h-2.68v1.34Zm21.44-1.34h2.68v1.34h1.33v1.34h-6.69v-1.34h2.68v-1.34Zm0-1.34h2.68v1.34h1.33v-1.34h.01v-1.34h-1.34v-1.34h-1.34v-1.34h-1.34v1.34h1.34v1.34h-1.34v1.34Zm-4.02-8.04h1.34v2.68h1.34v1.34h-1.34v1.34h-1.34v-5.36Zm-13.4 10.72h1.34v1.34h-1.34v-1.34Zm9.38-12.06v4.02h-1.34v-4.02h1.34Zm16.08 17.42h1.33v1.34h-2.67v-5.36h1.34v4.02Zm-1.34-4.02h-1.34v-1.34h1.34v1.34Zm-72.35 16.07v1.34h-2.68v-1.34h2.68Zm2.68 18.76v-4.02h1.34v4.02h-1.34Zm-1.33 8.04-.01-2.68v-2.68h2.68v5.36h-2.67Zm0-14.74v-1.34h2.67v1.34h-1.34v1.34h1.34v1.34h-2.67v-1.34h-2.69v-1.34h2.69Zm2.67-2.68h-1.34v1.34h1.34v-1.34Zm-5.36 17.42v-1.34h1.34v-1.34h1.34v-1.34h-2.67v1.34h-1.35v2.68h1.34Zm-2.67-1.34h-1.34v1.34h1.34v-1.34Zm-2.68 4.01v-1.33h4.01v1.33h-4.01Zm-1.34 0h1.34v1.34h10.71v-2.68h-2.68v-1.33h-1.34v2.67h-1.34v-1.34h-1.34v-1.33h-5.35v2.67Zm8.03 4.02v-1.34h-1.34v-1.34h-1.34v1.34h-1.33v-1.34h-1.34v1.34h1.34v1.34h4.01Zm-6.69-1.34h1.34v1.35h-4.02v-2.69h2.68v1.34Zm9.37 0h-1.33v1.34h1.33v-1.34Zm-1.33-22.77V110h-2.69v1.34h-1.34v1.34h4.03Zm-.01-5.36v-1.34h-4.02v1.34h.01v1.34h2.67v-1.34h1.34Zm1.34 0v4.02h-1.33v-4.02h1.33Zm-6.69 29.48v1.33h-2.68v1.34h2.68v1.34h1.33v-1.34h4.02v1.34h-1.34v1.34h-2.68v2.68h-1.33v-2.68h-1.34v-1.34h-1.34v1.34h1.34v1.34h-2.68v-1.34h-1.34v-2.68h1.34v-1.34h-1.34v-1.33h5.36Zm1.33 8.03h1.34v-1.33h2.69v2.67h-4.03v-1.34Zm6.7-6.7v2.68h-1.34v-4.01h1.34v1.33Zm-1.34 2.68v4.02h-1.33v-4.02h1.33Zm-2.68-4.02v1.34h-2.68v-1.34h2.68Zm0 10.72v1.34h1.35v-1.34h1.33v-1.34h1.34v2.68h-1.34v1.34h1.34v1.34h.27v4.02H301v1.34h-4.02v-1.34h-.01v1.34h-1.34v-1.34h.01v-4.02h-1.34v-1.34h-2.69v-1.34h-1.33v1.34h-1.34v-1.34h-1.34v-1.34h5.35Zm2.68 8.04h-1.33v-1.35h1.33v1.35Zm6.7 2.68H301v-1.34h1.33v1.34Zm1.34 0v1.34h-1.34v-1.34h1.34Zm1.34-1.34v1.34h-1.34v-1.34h-1.34v-1.34h2.68v1.34Zm2.68 0h-2.68v4.02h1.34v-1.34h1.34v1.34h.01v1.34h1.33v-1.34h1.34v-1.34h-2.68v-2.68Zm0 0v-1.34h1.34v1.34h-1.34Zm16.08 6.7v-1.34h-1.34v-2.68h5.35v1.34h-1.33v4.02h2.67v-1.34h-1.34v-2.68h1.34v2.68h1.34v1.34h-1.33v1.34h-6.7v-1.34h2.67v-1.34h-1.33Zm-2.68-5.36h1.34v2.68h-4.03v-1.34h-1.33v-1.34h1.34v1.34h2.68v-1.34Zm-1.34-1.34v1.34h1.34v-1.34h2.68v1.34h4.01v1.34h2.68v-1.34h-1.34v-1.34h-4.01v-1.34h-4.02v1.34h-1.34Zm0 0h-2.68v-1.34h2.68v1.34Zm13.39 2.68h-1.34v1.34h1.34v-1.34Zm0 5.36h-1.34v1.34h1.34v-1.34Zm-14.73-1.34h-2.68v1.34h2.68v-1.34Zm4.02 0h-1.34v-1.34h-1.34v1.34h1.34v1.34h1.34v-1.34Zm-9.38-1.34v-1.35h-2.68v1.35h2.68Zm1.34-1.35h1.34v-1.33h1.34v2.68h-2.68v-1.35Zm1.34-1.33h-4.03v-1.34h4.03v1.34Zm-28.13-14.74h-1.34v1.34h1.34v-1.34Zm45.54 17.42h-2.68v1.34h2.68v-1.34Zm-17.41-6.7h-4.03v1.34h-1.33v2.68h1.33v-2.68h4.03v-1.34Zm14.73 4.02h1.34v-2.68h-1.34v-1.34h-1.33v1.34h1.33v2.68Zm38.85-45.55h-2.68v-1.34h-1.33v2.68h1.33v4.02h1.34v1.34h1.34v-1.34h-1.34v-1.34h2.68v-1.34h-1.34v-2.68Zm1.34 18.75v-5.35h-1.34v1.34h-1.34v-1.34h-2.67v4.02h1.33v1.33h-1.33v1.34h1.34v-1.34h4.01Zm-2.68-4.01v1.34h-1.34v-1.34h1.34Zm1.34-17.42h-1.34v1.34h1.34v-1.34Zm2.69 1.34h-1.34v1.34H372v1.34h-1.34v1.34H372v-1.34h1.33v-1.34H372v-1.34Zm-5.37-2.68h-1.33v1.34h1.33V110Zm10.72 24.11h-1.34v1.34h1.34v-1.34Zm0 0v-1.34h1.34v1.34h-1.34Zm-1.35-2.68h-2.67v-1.33h-2.68v1.34H372v1.33h4v-1.34Zm-8.03 2.68h1.34v-1.34h5.36v1.34h-4.02v2.686l-1.33-.002-.01-1.344h-1.34v-1.34Zm0 1.34v1.343l-2.67-.003v-1.34h2.67Zm8.04-5.35h1.34v1.34h-1.34v-1.34Zm0 0h-1.34v-1.34h1.34v1.34Zm-2.68 5.35v1.349l-1.33-.002v-1.347h1.33Zm2.68 0h2.68v1.34h-2.68v-1.34Zm-5.36-8.03H372v1.34h-1.35v-1.34Zm-2.68-20.1h2.68v1.34h-1.34V110h-2.68v-1.34h1.34v-1.34Zm1.35 2.68H372v1.34h-2.68V110Zm-4.02 10.72h2.67v1.34h-2.67v-1.34Zm1.33 2.68v2.68h-1.33v-2.68h1.33Zm.01 14.73v1.34h1.33v1.34h-1.34v-1.34h-1.33v-1.34h-.01l.01-1.34 9.37.01v1.33h-1.34v1.34h1.34v4.02h-1.34v1.34H372v-2.68h1.33v-1.34h-2.68v1.34h-1.34v1.34h-2.68v-1.34h1.34v-1.34h1.34v-1.34h1.34v-1.34h-4.01Zm8.03 1.34v-1.34h4.02v4.02h-2.68v-2.68h-1.34Zm-5.36 12.06h-1.34v1.34h-1.34v-4.02h-1.33v-2.68h1.33v1.34h2.68v2.68h1.34v1.34h-1.34Zm-1.34 1.34h1.34v1.34h-1.34v-1.34Zm-8.03 2.68v1.34h2.68v1.34h-4.02v-1.34h-1.34v-1.34h2.68Zm-2.68 2.68v-1.34h-1.34v-1.34h-1.34v1.34h1.34v1.34h1.34Zm0 0v1.34h1.34v-1.34h-1.34Zm5.36-1.34v-1.34h2.67v1.34h-2.67Zm-10.72 5.36v1.34h-2.68v-5.36h-4.02v-1.34h2.68v-1.34h1.34v1.34h1.34v1.34h4.02v1.34h-2.68v1.33h1.34v1.35h-1.34Zm-8.04-5.36v-1.34h1.34v1.34h-1.34Zm-2.68 5.36h1.34v-1.34h2.68v2.68h1.34v-1.34h1.34v-1.34h1.34v-1.34h-5.36v-2.68h-1.34v-1.34h-1.34v1.34h-1.34v-1.34h-4.02v1.34h2.68v1.34h2.68v1.34h1.34v-1.34h-1.34v-1.34h1.34v4.01h-1.34v1.35Zm0 0v1.34h1.34v-1.34h1.34v1.34h1.34v1.34h-4.02v1.34h-1.34v-4.02h1.34Zm26.79-17.42h1.34v1.34h-1.34v-1.34Zm2.69 1.34H372v1.34h-1.34v-1.34Zm1.34 2.68v-1.34h1.33v1.34H372Zm0 0v1.34h-1.34v-1.34H372Zm-21.44 6.7h1.34v1.34h-1.34v-1.34Zm4.02 4.02h1.34v1.34h-1.34v-1.34Zm-21.44-4.02h1.34v1.34h-1.34v-1.34Zm32.16-12.05h1.33v1.33h-1.33v-1.33Zm-32.16 14.73h1.34v1.34h-1.34v-1.34Zm2.68 4.02h-1.34v-2.68h1.34v-1.34h1.34v2.68h-1.34v1.34Zm2.68 0v2.68h-2.68v-2.68h2.68Zm0 0v-2.68h1.34v2.68h-1.34Zm36.17-16.08h1.34v1.34h-1.34v-1.34Zm-5.35-2.67H372v1.33h-2.68v-1.33Zm0 0h-.01l.01-.01v.01Zm-4.02 10.7h2.67v1.35h-2.67v-1.35Z" fill="#000"/>
  <path fill-rule="evenodd" clip-rule="evenodd" d="M293.3 123.31c-7.57 2.64-11.62 6.7-12.62 11.5-1.05 5.01 1.3 10.5 5.72 15.52 8.83 10.01 26.4 18.67 44.87 18.67 18.46 0 36.04-8.65 44.87-18.67 4.41-5.01 6.76-10.51 5.72-15.52-1-4.8-5.05-8.86-12.62-11.5 7.98-8.66 6.79-21.66 1.69-32.45a45.64 45.64 0 0 0-10.58-14.42c-4.17-3.7-8.85-6.07-13.36-6.07-6.93 0-10.96 2.96-15.07 5.99l-.16.11-.5.37-.49-.37-.15-.11c-4.12-3.03-8.14-6-15.07-6-4.52 0-9.2 2.39-13.37 6.08a45.623 45.623 0 0 0-10.57 14.42c-5.1 10.79-6.3 23.79 1.69 32.45Zm2.2 2.66a2.403 2.403 0 0 0 1.631-1.75 2.392 2.392 0 0 0-.691-2.29c-7.49-7.2-6.99-18.99-1.93-29.7 2.5-5.26 5.99-10 9.8-13.38 3.87-3.43 7.82-5.27 11.24-5.27 5.87 0 9.15 2.42 13.32 5.48l.98.72c.84.62 2 .62 2.84 0l.98-.72c4.16-3.06 7.45-5.48 13.32-5.48 3.42 0 7.37 1.84 11.23 5.27a42.418 42.418 0 0 1 9.8 13.39c5.06 10.7 5.56 22.49-1.93 29.7a2.427 2.427 0 0 0-.661 2.283 2.427 2.427 0 0 0 1.611 1.747c7.82 2.45 10.95 6.06 11.67 9.5.75 3.57-.86 8.05-4.98 12.73-8.2 9.3-24.87 17.59-42.46 17.59-17.6 0-34.27-8.3-42.46-17.59-4.12-4.68-5.73-9.16-4.98-12.74.71-3.43 3.84-7.04 11.66-9.49h.01Z" fill="#fff"/>
  <path fill-rule="evenodd" clip-rule="evenodd" d="M281.99 143.75c-6-1.86-12.1-6.24-15.65-11.8a29.701 29.701 0 0 1-4.38-12.91c-.4-4.66.56-9.38 4-12.53 2.58-2.37 5.98-3.32 9.53-3.27 2.61-26.75 26.49-52.82 55.71-54.87a93.052 93.052 0 0 1 22.87 1.09c1.25.19 2.27.35 3.12.43.65.06 1.15.07 1.52.03.48-.05.9-.19.47-.6a14.209 14.209 0 0 0-2.53-1.68c-1.1-.63-2.38-1.35-3.46-2.14-1.06-.77-2.07-1.72-2.47-2.87-.13-.38-.2-.87.07-1.31a1.498 1.498 0 0 1 1.08-.68c.7-.11 1.66.06 2.67.37a35.09 35.09 0 0 1 7.64 3.62c2.73 1.68 5.44 3.78 7.24 5.97 1.77 2.16 2.86 4.68 1.74 7.04-.28.58-1.34 2.06-4.9 2.52-1.92.24-4.57.2-8.27-.44 6.86 3.45 12.91 7.92 17.7 13.6 6.48 7.67 10.63 17.5 11.44 29.91 3.52-.02 6.88.93 9.44 3.28 3.43 3.15 4.4 7.87 4 12.53a29.701 29.701 0 0 1-4.38 12.91 29.779 29.779 0 0 1-15.65 11.8 27.594 27.594 0 0 1-4.41 6.58C367.3 160.34 349.74 169 331.27 169s-36.04-8.65-44.87-18.67a27.545 27.545 0 0 1-4.41-6.58Zm70.96-100.58c-.39-.41-.06-.93.49-.8.2.05.41.1.65.18 1.9.57 4.6 1.81 7.25 3.45 2.66 1.64 5.2 3.62 6.85 5.62 1.67 2.04 2.23 3.85 1.53 5.32-.02.04-.57 1.23-3.66 1.62-3.16.4-8.9-.04-19.17-3.37l-.07-.02a.801.801 0 0 0-.5 1.52l.07.03c11.26 3.66 21.08 9.34 28.09 17.64 7 8.3 11.24 19.27 11.2 33.6-.02 6.79-1.94 14.8-5.65 22.6-2.03-2.94-5.58-5.43-10.8-7.25 8-8.67 6.8-21.67 1.7-32.45a45.64 45.64 0 0 0-10.58-14.42c-4.16-3.7-8.85-6.07-13.36-6.07-6.96 0-11.03 3-15.17 6.06l-.55.4-.56-.4c-4.13-3.05-8.2-6.06-15.16-6.06-4.52 0-9.2 2.38-13.37 6.07a45.623 45.623 0 0 0-10.57 14.42c-5.1 10.78-6.3 23.78 1.69 32.45-5.22 1.82-8.77 4.32-10.8 7.27-3.7-7.77-5.66-15.75-5.64-22.62.07-27.52 24.39-55.87 54.46-58 9.06-.63 15.65.08 20.23.74 2.26.33 4.12.66 5.5.79 1.36.13 4.25.08 4-2.03-.06-.54-.4-.98-.73-1.3-.9-.87-2.06-1.46-3.14-2.07-1.02-.6-2.07-1.18-3.03-1.88-.43-.3-.83-.66-1.2-1.04Zm-71.42 89.09c-4.1-8.24-6.3-16.85-6.28-24.3 0-1.04.04-2.08.1-3.12-3.2-.02-6.13.86-8.3 2.86-2.93 2.68-3.86 6.8-3.49 11.2a28.1 28.1 0 0 0 4.13 12.2 28.303 28.303 0 0 0 13.52 10.7c-.78-2.37-1-4.72-.53-6.98.18-.88.46-1.73.85-2.55v-.01Zm99.8 9.53c5.23-1.95 10.42-5.87 13.51-10.7a28.103 28.103 0 0 0 4.13-12.19c.38-4.4-.56-8.52-3.47-11.2-2.17-2-5.08-2.87-8.27-2.86.04 1.02.06 2.06.06 3.12-.03 7.36-2.18 16-6.3 24.29.4.82.68 1.68.87 2.56.47 2.26.25 4.61-.53 6.98Zm-86-18.7c-8.24-7.92-7.44-20.6-2.27-31.54a44.026 44.026 0 0 1 10.2-13.9c4-3.56 8.32-5.67 12.29-5.67 6.41 0 10.09 2.7 14.24 5.76l1 .74c.29.2.67.2.95 0l1-.74c4.15-3.05 7.83-5.76 14.25-5.76 3.97 0 8.28 2.1 12.3 5.67a43.995 43.995 0 0 1 10.19 13.9c5.17 10.94 5.97 23.62-2.27 31.54a.8.8 0 0 0-.039 1.127.794.794 0 0 0 .349.223c8.1 2.53 11.88 6.45 12.76 10.7.9 4.29-1.08 9.28-5.35 14.12-8.5 9.66-25.63 18.14-43.66 18.14-18.03 0-35.16-8.48-43.67-18.14-4.26-4.84-6.24-9.83-5.35-14.13.89-4.24 4.67-8.16 12.76-10.69a.804.804 0 0 0 .551-.582.8.8 0 0 0-.231-.768Z" fill="#000"/>
  <path d="M272.863 185.42V182h-1v7h1v-3.11l1.36 1.88c.33.49.89 1.34 1.92 1.34.32 0 .93-.12 1.21-.43l-.36-.7c-.31.25-.59.26-.74.26-.43 0-.8-.41-1.11-.84l-1.31-1.77 2.58-3.52V182h-1.08l-2.47 3.42Zm9.14 2.2c-.5.43-1.04.63-1.64.63-1.11 0-1.89-.69-1.86-1.66h4.27c0-1.85-1.23-2.7-2.55-2.7-1.55 0-2.69 1.17-2.69 2.63 0 1.42 1.08 2.59 2.82 2.59.74 0 1.55-.21 2.19-.93l-.54-.56Zm-1.76-2.88c.55 0 1.26.19 1.53 1.1h-3.18c.33-.87 1.06-1.1 1.65-1.1Zm7.707 2.88c-.5.43-1.04.63-1.64.63-1.11 0-1.89-.69-1.86-1.66h4.27c0-1.85-1.23-2.7-2.55-2.7-1.55 0-2.69 1.17-2.69 2.63 0 1.42 1.08 2.59 2.82 2.59.74 0 1.55-.21 2.19-.93l-.54-.56Zm-1.76-2.88c.55 0 1.26.19 1.53 1.1h-3.18c.33-.87 1.06-1.1 1.65-1.1Zm8.877 1.76c0-1.43-.98-2.61-2.48-2.61-.67 0-1.33.23-1.81.91v-.8h-.97v7.24h.97v-3.04c.48.68 1.14.91 1.81.91 1.5 0 2.48-1.18 2.48-2.61Zm-4.31 0c.01-1.01.7-1.75 1.71-1.75 1.04 0 1.63.8 1.63 1.75s-.59 1.75-1.63 1.75c-1.01 0-1.7-.74-1.71-1.75Zm9.323-1.74h1.59V184h-1.59v-1.44h-.75l-.22 1.44h-.82v.76h.82v2.66c0 1.28.77 1.69 1.56 1.69.97 0 1.48-.56 1.48-1.27 0 0 0-.34-.09-.54h-.85c.07.15.08.34.08.41 0 .37-.3.55-.61.55-.33 0-.6-.22-.6-.77v-2.73Zm6.579 4.24h.97v-2.82c0-1.61-.84-2.29-1.92-2.29-.82 0-1.47.4-1.68 1.11v-3.23h-.97V189h.97v-2.32c0-1.58 1.09-1.93 1.61-1.93.53 0 1.02.37 1.02 1.43V189Zm3.425 0h-.97v-5h.97v5Zm-1.16-6.61c0 .38.29.67.67.67.38 0 .68-.29.68-.67 0-.38-.3-.68-.68-.68-.38 0-.67.3-.67.68Zm5.839 2.69c-.28-.9-.97-1.19-1.67-1.19-.99 0-1.65.64-1.65 1.49 0 .69.43 1.12 1.23 1.36l.67.23c.35.12.63.29.63.63 0 .39-.36.68-.86.68-.51 0-.96-.29-1.08-.69l-.86.21c.23.86 1.05 1.31 1.93 1.31.97 0 1.8-.55 1.8-1.5 0-.53-.25-1.12-1.2-1.41l-.72-.24c-.3-.1-.6-.27-.6-.6 0-.36.29-.64.74-.64.31 0 .62.1.78.55l.86-.19Zm4.641.42c0-1.54 1.18-2.71 2.61-2.71s2.61 1.17 2.61 2.71-1.18 2.71-2.61 2.71-2.61-1.17-2.61-2.71Zm3.24 3.55c1.7-.29 3-1.77 3-3.55 0-1.99-1.63-3.61-3.63-3.61s-3.63 1.62-3.63 3.61a3.61 3.61 0 0 0 3.29 3.59c.2.84.71 1.79 2.17 1.79.34 0 .9-.07 1.36-.43l-.36-.72c-.19.16-.67.32-.95.32-.75 0-1.12-.39-1.25-1Zm5.433-.05v-2.65h1.43c.07.85.58 2.76 2.22 2.76.45 0 .9-.15 1.23-.49l-.35-.68c-.19.18-.47.32-.82.32-.78 0-1.26-1.19-1.33-1.95 1.05-.2 1.65-1.07 1.65-2.11 0-1.18-.77-2.2-2.11-2.2h-2.92v7h1Zm0-3.45v-2.73h1.71c.79 0 1.28.56 1.28 1.37 0 .8-.48 1.36-1.28 1.36h-1.71Zm7.913 1.01c0 1.42 1.04 2.55 2.81 2.55.45 0 1.12-.11 1.79-.61l-.46-.66c-.53.4-1.16.41-1.29.41-1.08 0-1.88-.72-1.88-1.75s.8-1.75 1.88-1.75c.13 0 .76.01 1.29.41l.46-.66c-.67-.5-1.34-.61-1.79-.61-1.82 0-2.81 1.2-2.81 2.67Zm5.166-.06c0 1.45 1.18 2.61 2.62 2.61 1.45 0 2.63-1.17 2.63-2.61 0-1.43-1.18-2.61-2.63-2.61a2.62 2.62 0 0 0-2.62 2.61Zm.97.01c0-.97.74-1.76 1.65-1.76.92 0 1.66.79 1.66 1.76 0 .96-.74 1.74-1.66 1.74-.91 0-1.65-.78-1.65-1.74Zm5.075-.01c0 1.43.98 2.61 2.48 2.61.67 0 1.33-.23 1.81-.91v.8h.97v-7.23h-.97v3.03c-.48-.68-1.14-.91-1.81-.91-1.5 0-2.48 1.18-2.48 2.61Zm4.31 0c-.01 1.01-.7 1.75-1.71 1.75-1.04 0-1.63-.8-1.63-1.75s.59-1.75 1.63-1.75c1.01 0 1.7.74 1.71 1.75Zm6.576 1.12c-.5.43-1.04.63-1.64.63-1.11 0-1.89-.69-1.86-1.66h4.27c0-1.85-1.23-2.7-2.55-2.7-1.55 0-2.69 1.17-2.69 2.63 0 1.42 1.08 2.59 2.82 2.59.74 0 1.55-.21 2.19-.93l-.54-.56Zm-1.76-2.88c.55 0 1.26.19 1.53 1.1h-3.18c.33-.87 1.06-1.1 1.65-1.1Zm9.364.34c-.28-.9-.97-1.19-1.67-1.19-.99 0-1.65.64-1.65 1.49 0 .69.43 1.12 1.23 1.36l.67.23c.35.12.63.29.63.63 0 .39-.36.68-.86.68-.51 0-.96-.29-1.08-.69l-.86.21c.23.86 1.05 1.31 1.93 1.31.97 0 1.8-.55 1.8-1.5 0-.53-.25-1.12-1.2-1.41l-.72-.24c-.3-.1-.6-.27-.6-.6 0-.36.29-.64.74-.64.31 0 .62.1.78.55l.86-.19Zm5.394 2.54c-.5.43-1.04.63-1.64.63-1.11 0-1.89-.69-1.86-1.66h4.27c0-1.85-1.23-2.7-2.55-2.7-1.55 0-2.69 1.17-2.69 2.63 0 1.42 1.08 2.59 2.82 2.59.74 0 1.55-.21 2.19-.93l-.54-.56Zm-1.76-2.88c.55 0 1.26.19 1.53 1.1h-3.18c.33-.87 1.06-1.1 1.65-1.1Zm3.247 1.82c0 1.42 1.04 2.55 2.81 2.55.45 0 1.12-.11 1.79-.61l-.46-.66c-.53.4-1.16.41-1.29.41-1.08 0-1.88-.72-1.88-1.75s.8-1.75 1.88-1.75c.13 0 .76.01 1.29.41l.46-.66c-.67-.5-1.34-.61-1.79-.61-1.82 0-2.81 1.2-2.81 2.67Zm6.623-2.56h-.97v5h.97v-1.89c0-2.13.94-2.29 1.27-2.29.18 0 .37.04.53.13V184c-.14-.06-.28-.11-.46-.11-.62 0-1.17.45-1.34 1.24V184Zm6.675 3.62c-.5.43-1.04.63-1.64.63-1.11 0-1.89-.69-1.86-1.66h4.27c0-1.85-1.23-2.7-2.55-2.7-1.55 0-2.69 1.17-2.69 2.63 0 1.42 1.08 2.59 2.82 2.59.74 0 1.55-.21 2.19-.93l-.54-.56Zm-1.76-2.88c.55 0 1.26.19 1.53 1.1h-3.18c.33-.87 1.06-1.1 1.65-1.1Zm4.788.02h1.59V184h-1.59v-1.44h-.75l-.22 1.44h-.82v.76h.82v2.66c0 1.28.77 1.69 1.56 1.69.97 0 1.48-.56 1.48-1.27 0 0 0-.34-.09-.54h-.85c.07.15.08.34.08.41 0 .37-.3.55-.61.55-.33 0-.6-.22-.6-.77v-2.73ZM266.742 198h-.97v2.82c0 1.61.84 2.29 1.92 2.29.82 0 1.47-.4 1.68-1.11v1h.97v-5h-.97v2.32c0 1.58-1.09 1.93-1.61 1.93-.53 0-1.02-.37-1.02-1.43V198Zm8.735 5h.97v-2.82c0-1.61-.84-2.29-1.92-2.29-.82 0-1.47.4-1.68 1.11v-1h-.97v5h.97v-2.32c0-1.58 1.09-1.93 1.61-1.93.53 0 1.02.37 1.02 1.43V203Zm3.587-4.24h1.59V198h-1.59v-1.44h-.75l-.22 1.44h-.82v.76h.82v2.66c0 1.28.77 1.69 1.56 1.69.97 0 1.48-.56 1.48-1.27 0 0 0-.34-.09-.54h-.85c.07.15.08.34.08.41 0 .37-.3.55-.61.55-.33 0-.6-.22-.6-.77v-2.73Zm3.979 4.24h-.97v-5h.97v5Zm-1.16-6.61c0 .38.29.67.67.67.38 0 .68-.29.68-.67 0-.38-.3-.68-.68-.68-.38 0-.67.3-.67.68Zm3.729-.62h-.97V203h.97v-7.23Zm5.962 5.96-1.53-3.73h-1.11l2.11 4.83-.93 2.41h.94l3.07-7.24h-1.13l-1.42 3.73Zm2.931-1.23c0 1.45 1.18 2.61 2.62 2.61 1.45 0 2.63-1.17 2.63-2.61 0-1.43-1.18-2.61-2.63-2.61a2.62 2.62 0 0 0-2.62 2.61Zm.97.01c0-.97.74-1.76 1.65-1.76.92 0 1.66.79 1.66 1.76 0 .96-.74 1.74-1.66 1.74-.91 0-1.65-.78-1.65-1.74Zm6.326-2.51h-.97v2.82c0 1.61.84 2.29 1.92 2.29.82 0 1.47-.4 1.68-1.11v1h.97v-5h-.97v2.32c0 1.58-1.09 1.93-1.61 1.93-.53 0-1.02-.37-1.02-1.43V198Zm8.982.76h1.59V198h-1.59v-1.44h-.75l-.22 1.44h-.82v.76h.82v2.66c0 1.28.77 1.69 1.56 1.69.97 0 1.48-.56 1.48-1.27 0 0 0-.34-.09-.54h-.85c.07.15.08.34.08.41 0 .37-.3.55-.61.55-.33 0-.6-.22-.6-.77v-2.73Zm3.949-.76h-.97v5h.97v-1.89c0-2.13.94-2.29 1.27-2.29.18 0 .37.04.53.13V198c-.14-.06-.28-.11-.46-.11-.62 0-1.17.45-1.34 1.24V198Zm2.234 2.5c0 1.43.98 2.61 2.48 2.61.67 0 1.33-.23 1.81-.91v.8h.97v-5h-.97v.8c-.48-.68-1.14-.91-1.81-.91-1.5 0-2.48 1.18-2.48 2.61Zm4.31 0c-.01 1.01-.7 1.75-1.71 1.75-1.04 0-1.63-.8-1.63-1.75s.59-1.75 1.63-1.75c1.01 0 1.7.74 1.71 1.75Zm6.086 2.5h.97v-2.82c0-1.61-.84-2.29-1.92-2.29-.82 0-1.47.4-1.68 1.11v-1h-.97v5h.97v-2.32c0-1.58 1.09-1.93 1.61-1.93.53 0 1.02.37 1.02 1.43V203Zm5.545-3.92c-.28-.9-.97-1.19-1.67-1.19-.99 0-1.65.64-1.65 1.49 0 .69.43 1.12 1.23 1.36l.67.23c.35.12.63.29.63.63 0 .39-.36.68-.86.68-.51 0-.96-.29-1.08-.69l-.86.21c.23.86 1.05 1.31 1.93 1.31.97 0 1.8-.55 1.8-1.5 0-.53-.25-1.12-1.2-1.41l-.72-.24c-.3-.1-.6-.27-.6-.6 0-.36.29-.64.74-.64.31 0 .62.1.78.55l.86-.19Zm2.624-1.59c0-.75.34-.97.67-.97.31 0 .62.11.62.51 0 .07-.01.1-.02.17h.83c.05-.14.05-.27.05-.27 0-.71-.52-1.26-1.49-1.26-.79 0-1.66.34-1.66 1.95v.38h-.79v.76h.79V203h1v-4.24h1.31V198h-1.31v-.51Zm6.237 4.13c-.5.43-1.04.63-1.64.63-1.11 0-1.89-.69-1.86-1.66h4.27c0-1.85-1.23-2.7-2.55-2.7-1.55 0-2.69 1.17-2.69 2.63 0 1.42 1.08 2.59 2.82 2.59.74 0 1.55-.21 2.19-.93l-.54-.56Zm-1.76-2.88c.55 0 1.26.19 1.53 1.1h-3.18c.33-.87 1.06-1.1 1.65-1.1Zm4.587-.74h-.97v5h.97v-1.89c0-2.13.94-2.29 1.27-2.29.18 0 .37.04.53.13V198c-.14-.06-.28-.11-.46-.11-.62 0-1.17.45-1.34 1.24V198Zm6.285.76h1.59V198h-1.59v-1.44h-.75l-.22 1.44h-.82v.76h.82v2.66c0 1.28.77 1.69 1.56 1.69.97 0 1.48-.56 1.48-1.27 0 0 0-.34-.09-.54h-.85c.07.15.08.34.08.41 0 .37-.3.55-.61.55-.33 0-.6-.22-.6-.77v-2.73Zm6.58 4.24h.97v-2.82c0-1.61-.84-2.29-1.92-2.29-.82 0-1.47.4-1.68 1.11v-3.23h-.97V203h.97v-2.32c0-1.58 1.09-1.93 1.61-1.93.53 0 1.02.37 1.02 1.43V203Zm6.515-1.38c-.5.43-1.04.63-1.64.63-1.11 0-1.89-.69-1.86-1.66h4.27c0-1.85-1.23-2.7-2.55-2.7-1.55 0-2.69 1.17-2.69 2.63 0 1.42 1.08 2.59 2.82 2.59.74 0 1.55-.21 2.19-.93l-.54-.56Zm-1.76-2.88c.55 0 1.26.19 1.53 1.1h-3.18c.33-.87 1.06-1.1 1.65-1.1Zm7.574-1.25c0-.75.34-.97.67-.97.31 0 .62.11.62.51 0 .07-.01.1-.02.17h.83c.05-.14.05-.27.05-.27 0-.71-.52-1.26-1.49-1.26-.79 0-1.66.34-1.66 1.95v.38h-.79v.76h.79V203h1v-4.24h1.31V198h-1.31v-.51Zm3.291.51h-.97v2.82c0 1.61.84 2.29 1.92 2.29.82 0 1.47-.4 1.68-1.11v1h.97v-5h-.97v2.32c0 1.58-1.09 1.93-1.61 1.93-.53 0-1.02-.37-1.02-1.43V198Zm8.735 5h.97v-2.82c0-1.61-.84-2.29-1.92-2.29-.82 0-1.47.4-1.68 1.11v-1h-.97v5h.97v-2.32c0-1.58 1.09-1.93 1.61-1.93.53 0 1.02.37 1.02 1.43V203Zm2.075-2.5c0 1.43.98 2.61 2.48 2.61.67 0 1.33-.23 1.81-.91v.8h.97v-7.23h-.97v3.03c-.48-.68-1.14-.91-1.81-.91-1.5 0-2.48 1.18-2.48 2.61Zm4.31 0c-.01 1.01-.7 1.75-1.71 1.75-1.04 0-1.63-.8-1.63-1.75s.59-1.75 1.63-1.75c1.01 0 1.7.74 1.71 1.75Zm5.596-1.42c-.28-.9-.97-1.19-1.67-1.19-.99 0-1.65.64-1.65 1.49 0 .69.43 1.12 1.23 1.36l.67.23c.35.12.63.29.63.63 0 .39-.36.68-.86.68-.51 0-.96-.29-1.08-.69l-.86.21c.23.86 1.05 1.31 1.93 1.31.97 0 1.8-.55 1.8-1.5 0-.53-.25-1.12-1.2-1.41l-.72-.24c-.3-.1-.6-.27-.6-.6 0-.36.29-.64.74-.64.31 0 .62.1.78.55l.86-.19Zm1.094 3.3c0 .41.32.73.73.73s.74-.32.74-.73-.33-.74-.74-.74a.73.73 0 0 0-.73.74ZM22.133 236v-3.02h3.01v-.82h-3.01v-2.34h3.45V229h-4.45v7h1Zm3.957-2.5c0 1.45 1.18 2.61 2.62 2.61 1.45 0 2.63-1.17 2.63-2.61 0-1.43-1.18-2.61-2.63-2.61a2.62 2.62 0 0 0-2.62 2.61Zm.97.01c0-.97.74-1.76 1.65-1.76.92 0 1.66.79 1.66 1.76 0 .96-.74 1.74-1.66 1.74-.91 0-1.65-.78-1.65-1.74Zm6.406-2.51h-.97v5h.97v-1.89c0-2.13.94-2.29 1.27-2.29.18 0 .37.04.53.13V231c-.14-.06-.28-.11-.46-.11-.62 0-1.17.45-1.34 1.24V231Zm6.285.76h1.59V231h-1.59v-1.44H39l-.22 1.44h-.82v.76h.82v2.66c0 1.28.77 1.69 1.56 1.69.97 0 1.48-.56 1.48-1.27 0 0 0-.34-.09-.54h-.85c.07.15.08.34.08.41 0 .37-.3.55-.61.55-.33 0-.6-.22-.6-.77v-2.73ZM46.33 236h.97v-2.82c0-1.61-.84-2.29-1.92-2.29-.82 0-1.47.4-1.68 1.11v-3.23h-.97V236h.97v-2.32c0-1.58 1.09-1.93 1.61-1.93.53 0 1.02.37 1.02 1.43V236Zm6.515-1.38c-.5.43-1.04.63-1.64.63-1.11 0-1.89-.69-1.86-1.66h4.27c0-1.85-1.23-2.7-2.55-2.7-1.55 0-2.69 1.17-2.69 2.63 0 1.42 1.08 2.59 2.82 2.59.74 0 1.55-.21 2.19-.93l-.54-.56Zm-1.76-2.88c.55 0 1.26.19 1.53 1.1h-3.18c.33-.87 1.06-1.1 1.65-1.1ZM58.34 236h-.97v-5h.97v5Zm-1.16-6.61c0 .38.29.67.67.67.38 0 .68-.29.68-.67 0-.38-.3-.68-.68-.68-.38 0-.67.3-.67.68Zm6.329 6.61h.97v-2.82c0-1.61-.84-2.29-1.92-2.29-.82 0-1.47.4-1.68 1.11v-1h-.97v5h.97v-2.32c0-1.58 1.09-1.93 1.61-1.93.53 0 1.02.37 1.02 1.43V236Zm5.545-3.92c-.28-.9-.97-1.19-1.67-1.19-.99 0-1.65.64-1.65 1.49 0 .69.43 1.12 1.23 1.36l.67.23c.35.12.63.29.63.63 0 .39-.36.68-.86.68-.51 0-.96-.29-1.08-.69l-.86.21c.23.86 1.05 1.31 1.93 1.31.97 0 1.8-.55 1.8-1.5 0-.53-.25-1.12-1.2-1.41l-.72-.24c-.3-.1-.6-.27-.6-.6 0-.36.29-.64.74-.64.31 0 .62.1.78.55l.86-.19Zm2.514-.32h1.59V231h-1.59v-1.44h-.75l-.22 1.44h-.82v.76h.82v2.66c0 1.28.77 1.69 1.56 1.69.97 0 1.48-.56 1.48-1.27 0 0 0-.34-.09-.54h-.85c.07.15.08.34.08.41 0 .37-.3.55-.61.55-.33 0-.6-.22-.6-.77v-2.73Zm3.95-.76h-.97v5h.97v-1.89c0-2.13.94-2.29 1.27-2.29.18 0 .37.04.53.13V231c-.14-.06-.28-.11-.46-.11-.62 0-1.17.45-1.34 1.24V231Zm3.582 0h-.97v2.82c0 1.61.84 2.29 1.92 2.29.82 0 1.47-.4 1.68-1.11v1h.97v-5h-.97v2.32c0 1.58-1.09 1.93-1.61 1.93-.53 0-1.02-.37-1.02-1.43V231Zm4.765 2.56c0 1.42 1.04 2.55 2.81 2.55.45 0 1.12-.11 1.79-.61l-.46-.66c-.53.4-1.16.41-1.29.41-1.08 0-1.88-.72-1.88-1.75s.8-1.75 1.88-1.75c.13 0 .76.01 1.29.41l.46-.66c-.67-.5-1.34-.61-1.79-.61-1.82 0-2.81 1.2-2.81 2.67Zm6.863-1.8h1.59V231h-1.59v-1.44h-.75l-.22 1.44h-.82v.76h.82v2.66c0 1.28.77 1.69 1.56 1.69.97 0 1.48-.56 1.48-1.27 0 0 0-.34-.09-.54h-.85c.07.15.08.34.08.41 0 .37-.3.55-.61.55-.33 0-.6-.22-.6-.77v-2.73Zm3.98 4.24h-.97v-5h.97v5Zm-1.16-6.61c0 .38.29.67.67.67.38 0 .68-.29.68-.67 0-.38-.3-.68-.68-.68-.38 0-.67.3-.67.68Zm2.348 4.11c0 1.45 1.18 2.61 2.62 2.61 1.45 0 2.63-1.17 2.63-2.61 0-1.43-1.18-2.61-2.63-2.61a2.62 2.62 0 0 0-2.62 2.61Zm.97.01c0-.97.74-1.76 1.65-1.76.92 0 1.66.79 1.66 1.76 0 .96-.74 1.74-1.66 1.74-.91 0-1.65-.78-1.65-1.74ZM105.9 236h.97v-2.82c0-1.61-.84-2.29-1.92-2.29-.82 0-1.47.4-1.68 1.11v-1h-.97v5h.97v-2.32c0-1.58 1.09-1.93 1.61-1.93.53 0 1.02.37 1.02 1.43V236Zm5.545-3.92c-.28-.9-.97-1.19-1.67-1.19-.99 0-1.65.64-1.65 1.49 0 .69.43 1.12 1.23 1.36l.67.23c.35.12.63.29.63.63 0 .39-.36.68-.86.68-.51 0-.96-.29-1.08-.69l-.86.21c.23.86 1.05 1.31 1.93 1.31.97 0 1.8-.55 1.8-1.5 0-.53-.25-1.12-1.2-1.41l-.72-.24c-.3-.1-.6-.27-.6-.6 0-.36.29-.64.74-.64.31 0 .62.1.78.55l.86-.19Zm3.561 1.42c0 1.45 1.18 2.61 2.62 2.61 1.45 0 2.63-1.17 2.63-2.61 0-1.43-1.18-2.61-2.63-2.61a2.62 2.62 0 0 0-2.62 2.61Zm.97.01c0-.97.74-1.76 1.65-1.76.92 0 1.66.79 1.66 1.76 0 .96-.74 1.74-1.66 1.74-.91 0-1.65-.78-1.65-1.74Zm9.036 2.49h.97v-2.82c0-1.61-.84-2.29-1.92-2.29-.82 0-1.47.4-1.68 1.11v-1h-.97v5h.97v-2.32c0-1.58 1.09-1.93 1.61-1.93.53 0 1.02.37 1.02 1.43V236Zm8.671 0h.97v-2.82c0-1.61-.84-2.29-1.92-2.29-.82 0-1.47.4-1.68 1.11v-3.23h-.97V236h.97v-2.32c0-1.58 1.09-1.93 1.61-1.93.53 0 1.02.37 1.02 1.43V236Zm2.046-2.5c0 1.45 1.18 2.61 2.62 2.61 1.45 0 2.63-1.17 2.63-2.61 0-1.43-1.18-2.61-2.63-2.61a2.62 2.62 0 0 0-2.62 2.61Zm.97.01c0-.97.74-1.76 1.65-1.76.92 0 1.66.79 1.66 1.76 0 .96-.74 1.74-1.66 1.74-.91 0-1.65-.78-1.65-1.74Zm7.059 1.19-1.3-3.7h-1.01l1.81 5h.92l1.13-3.48 1.13 3.48h.92l1.81-5h-1.01l-1.3 3.7-1.14-3.55h-.82l-1.14 3.55Zm10.006-2.94h1.59V231h-1.59v-1.44h-.75l-.22 1.44h-.82v.76h.82v2.66c0 1.28.77 1.69 1.56 1.69.97 0 1.48-.56 1.48-1.27 0 0 0-.34-.09-.54h-.85c.07.15.08.34.08.41 0 .37-.3.55-.61.55-.33 0-.6-.22-.6-.77v-2.73Zm2.6 1.74c0 1.45 1.18 2.61 2.62 2.61 1.45 0 2.63-1.17 2.63-2.61 0-1.43-1.18-2.61-2.63-2.61a2.62 2.62 0 0 0-2.62 2.61Zm.97.01c0-.97.74-1.76 1.65-1.76.92 0 1.66.79 1.66 1.76 0 .96-.74 1.74-1.66 1.74-.91 0-1.65-.78-1.65-1.74Zm9.042-2.51h-.97v5h.97v-1.89c0-2.13.94-2.29 1.27-2.29.18 0 .37.04.53.13V231c-.14-.06-.28-.11-.46-.11-.62 0-1.17.45-1.34 1.24V231Zm6.674 3.62c-.5.43-1.04.63-1.64.63-1.11 0-1.89-.69-1.86-1.66h4.27c0-1.85-1.23-2.7-2.55-2.7-1.55 0-2.69 1.17-2.69 2.63 0 1.42 1.08 2.59 2.82 2.59.74 0 1.55-.21 2.19-.93l-.54-.56Zm-1.76-2.88c.55 0 1.26.19 1.53 1.1h-3.18c.33-.87 1.06-1.1 1.65-1.1Zm3.258 1.76c0 1.43.98 2.61 2.48 2.61.67 0 1.33-.23 1.81-.91v.8h.97v-7.23h-.97v3.03c-.48-.68-1.14-.91-1.81-.91-1.5 0-2.48 1.18-2.48 2.61Zm4.31 0c-.01 1.01-.7 1.75-1.71 1.75-1.04 0-1.63-.8-1.63-1.75s.59-1.75 1.63-1.75c1.01 0 1.7.74 1.71 1.75Zm6.575 1.12c-.5.43-1.04.63-1.64.63-1.11 0-1.89-.69-1.86-1.66h4.27c0-1.85-1.23-2.7-2.55-2.7-1.55 0-2.69 1.17-2.69 2.63 0 1.42 1.08 2.59 2.82 2.59.74 0 1.55-.21 2.19-.93l-.54-.56Zm-1.76-2.88c.55 0 1.26.19 1.53 1.1h-3.18c.33-.87 1.06-1.1 1.65-1.1Zm7.708 2.88c-.5.43-1.04.63-1.64.63-1.11 0-1.89-.69-1.86-1.66h4.27c0-1.85-1.23-2.7-2.55-2.7-1.55 0-2.69 1.17-2.69 2.63 0 1.42 1.08 2.59 2.82 2.59.74 0 1.55-.21 2.19-.93l-.54-.56Zm-1.76-2.88c.55 0 1.26.19 1.53 1.1h-3.18c.33-.87 1.06-1.1 1.65-1.1Zm7.027 4.26h.97v-2.43c.05-1.53.95-1.82 1.42-1.82.53 0 1.02.37 1.02 1.43V236h.97v-2.82c0-1.61-.75-2.29-1.93-2.29-.6 0-1.29.18-1.7 1.05-.39-.89-1.11-1.05-1.59-1.05-.74 0-1.39.38-1.6 1.11v-1h-.97v5h.97v-2.32c0-1.58.9-1.93 1.42-1.93.53 0 1.02.37 1.02 1.43V236Zm10.241-1.27-1.53-3.73h-1.11l2.11 4.83-.93 2.41h.94l3.07-7.24h-1.13l-1.42 3.73Zm2.932-1.23c0 1.45 1.18 2.61 2.62 2.61 1.45 0 2.63-1.17 2.63-2.61 0-1.43-1.18-2.61-2.63-2.61a2.62 2.62 0 0 0-2.62 2.61Zm.97.01c0-.97.74-1.76 1.65-1.76.92 0 1.66.79 1.66 1.76 0 .96-.74 1.74-1.66 1.74-.91 0-1.65-.78-1.65-1.74Zm6.325-2.51h-.97v2.82c0 1.61.84 2.29 1.92 2.29.82 0 1.47-.4 1.68-1.11v1h.97v-5h-.97v2.32c0 1.58-1.09 1.93-1.61 1.93-.53 0-1.02-.37-1.02-1.43V231Zm6.105 0h-.97v5h.97v-1.89c0-2.13.94-2.29 1.27-2.29.18 0 .37.04.53.13V231c-.14-.06-.28-.11-.46-.11-.62 0-1.17.45-1.34 1.24V231Zm10.085-.2c0-1.12-.98-1.8-2.31-1.8h-2.49v7h2.81c1.39 0 2.33-.74 2.33-1.86 0-.87-.56-1.61-1.68-1.72.92-.23 1.34-.89 1.34-1.62Zm-2.5 2.07c1.28 0 1.81.6 1.81 1.24 0 .65-.55 1.07-1.3 1.07h-1.81v-2.31h1.3Zm-1.3-.78v-2.27h1.49c.68 0 1.28.36 1.28 1.05 0 .61-.46 1.22-1.68 1.22h-1.09Zm5.002 1.41c0 1.43.98 2.61 2.48 2.61.67 0 1.33-.23 1.81-.91v.8h.97v-5h-.97v.8c-.48-.68-1.14-.91-1.81-.91-1.5 0-2.48 1.18-2.48 2.61Zm4.31 0c-.01 1.01-.7 1.75-1.71 1.75-1.04 0-1.63-.8-1.63-1.75s.59-1.75 1.63-1.75c1.01 0 1.7.74 1.71 1.75Zm6.086 2.5h.97v-2.82c0-1.61-.84-2.29-1.92-2.29-.82 0-1.47.4-1.68 1.11v-1h-.97v5h.97v-2.32c0-1.58 1.09-1.93 1.61-1.93.53 0 1.02.37 1.02 1.43V236Zm2.065-2.5c0 1.43.98 2.61 2.48 2.61.67 0 1.33-.23 1.81-.91v.8h.97v-5h-.97v.8c-.48-.68-1.14-.91-1.81-.91-1.5 0-2.48 1.18-2.48 2.61Zm4.31 0c-.01 1.01-.7 1.75-1.71 1.75-1.04 0-1.63-.8-1.63-1.75s.59-1.75 1.63-1.75c1.01 0 1.7.74 1.71 1.75Zm6.086 2.5h.97v-2.82c0-1.61-.84-2.29-1.92-2.29-.82 0-1.47.4-1.68 1.11v-1h-.97v5h.97v-2.32c0-1.58 1.09-1.93 1.61-1.93.53 0 1.02.37 1.02 1.43V236Zm2.055-2.5c0 1.45 1.18 2.61 2.62 2.61 1.45 0 2.63-1.17 2.63-2.61 0-1.43-1.18-2.61-2.63-2.61a2.62 2.62 0 0 0-2.62 2.61Zm.97.01c0-.97.74-1.76 1.65-1.76.92 0 1.66.79 1.66 1.76 0 .96-.74 1.74-1.66 1.74-.91 0-1.65-.78-1.65-1.74Zm5.318 3.79c.8-.25 1.22-.97 1.22-1.79 0-.27-.13-.82-.69-.82-.48 0-.71.3-.7.64.01.33.28.66.76.5 0 .38-.19.91-.78 1.11l.19.36Zm9.333-6.3h-1.02l-1.46 3.93-1.46-3.93h-1.02l1.93 5h1.1l1.93-5Zm2 5h-.97v-5h.97v5Zm-1.16-6.61c0 .38.29.67.67.67.38 0 .68-.29.68-.67 0-.38-.3-.68-.68-.68-.38 0-.67.3-.67.68Zm5.838 2.69c-.28-.9-.97-1.19-1.67-1.19-.99 0-1.65.64-1.65 1.49 0 .69.43 1.12 1.23 1.36l.67.23c.35.12.63.29.63.63 0 .39-.36.68-.86.68-.51 0-.96-.29-1.08-.69l-.86.21c.23.86 1.05 1.31 1.93 1.31.97 0 1.8-.55 1.8-1.5 0-.53-.25-1.12-1.2-1.41l-.72-.24c-.3-.1-.6-.27-.6-.6 0-.36.29-.64.74-.64.31 0 .62.1.78.55l.86-.19Zm2.304 3.92h-.97v-5h.97v5Zm-1.16-6.61c0 .38.29.67.67.67.38 0 .68-.29.68-.67 0-.38-.3-.68-.68-.68-.38 0-.67.3-.67.68Zm3.938 2.37h1.59V231h-1.59v-1.44h-.75l-.22 1.44h-.82v.76h.82v2.66c0 1.28.77 1.69 1.56 1.69.97 0 1.48-.56 1.48-1.27 0 0 0-.34-.09-.54h-.85c.07.15.08.34.08.41 0 .37-.3.55-.61.55-.33 0-.6-.22-.6-.77v-2.73Zm2.88 3.62c0 .41.32.73.73.73s.74-.32.74-.73-.33-.74-.74-.74a.73.73 0 0 0-.73.74Zm0-3.75c0 .41.32.73.73.73s.74-.32.74-.73-.33-.74-.74-.74a.73.73 0 0 0-.73.74Zm12.267 1.262c0-1.728-1.044-3.18-2.964-3.18-.828 0-1.548.408-1.968.972v-3.36h-1.788V236h1.788v-.9c.444.636 1.032 1.032 1.932 1.032 1.872 0 3-1.44 3-3.24Zm-1.788.012c0 .984-.6 1.776-1.584 1.776-.876 0-1.608-.564-1.608-1.68 0-1.14.684-1.836 1.656-1.836.984 0 1.536.792 1.536 1.74Zm4.394 0c0-.948.552-1.74 1.536-1.74.972 0 1.656.696 1.656 1.836 0 1.116-.732 1.68-1.608 1.68-.984 0-1.584-.792-1.584-1.776Zm3.144-3.06v.84a2.465 2.465 0 0 0-1.968-.972c-1.92 0-2.964 1.452-2.964 3.18 0 1.8 1.128 3.24 3 3.24.9 0 1.488-.396 1.932-1.032v.9h1.788v-6.156h-1.788Zm3.327 6.156h1.788v-3.3c0-.852.348-1.512 1.176-1.512s1.14.648 1.14 1.5V236h1.788v-3.348c0-1.56-.468-2.94-2.196-2.94-.744 0-1.392.252-1.908.972v-.84h-1.788V236Zm8.787-3.096c0-.948.552-1.74 1.536-1.74.972 0 1.656.696 1.656 1.836 0 1.116-.732 1.68-1.608 1.68-.984 0-1.584-.792-1.584-1.776Zm3.144-3.06v.84a2.465 2.465 0 0 0-1.968-.972c-1.92 0-2.964 1.452-2.964 3.18 0 1.8 1.128 3.24 3 3.24.9 0 1.488-.396 1.932-1.032v.9h1.788v-6.156h-1.788Zm3.327 6.156h1.788v-3.3c0-.852.348-1.512 1.176-1.512s1.14.648 1.14 1.5V236h1.788v-3.348c0-1.56-.468-2.94-2.196-2.94-.744 0-1.392.252-1.908.972v-.84h-1.788V236Zm6.975-3.084c0 1.932 1.596 3.216 3.384 3.216 1.8 0 3.384-1.296 3.384-3.216 0-1.908-1.584-3.204-3.384-3.204-1.788 0-3.384 1.284-3.384 3.204Zm1.74 0c0-.96.768-1.668 1.644-1.668.888 0 1.644.72 1.644 1.668 0 .96-.756 1.68-1.644 1.68a1.654 1.654 0 0 1-1.644-1.68Zm5.951 2.184c0 .588.48 1.032 1.128 1.032.636 0 1.14-.444 1.14-1.032 0-.6-.504-1.056-1.14-1.056-.648 0-1.128.456-1.128 1.056Zm3.184-2.184c0 1.824 1.332 3.204 3.444 3.204.636 0 1.464-.132 2.52-.912l-.816-1.308c-.6.54-1.308.612-1.62.612-1.044 0-1.74-.66-1.74-1.596s.696-1.596 1.74-1.596c.312 0 1.02.072 1.62.612l.816-1.308c-1.056-.78-1.884-.912-2.52-.912-2.112 0-3.444 1.38-3.444 3.204Zm6.504 0c0 1.824 1.332 3.204 3.444 3.204.636 0 1.464-.132 2.52-.912l-.816-1.308c-.6.54-1.308.612-1.62.612-1.044 0-1.74-.66-1.74-1.596s.696-1.596 1.74-1.596c.312 0 1.02.072 1.62.612l.816-1.308c-1.056-.78-1.884-.912-2.52-.912-2.112 0-3.444 1.38-3.444 3.204Zm12.597-5.784h-1.464l-4.608 9.3h1.452l4.62-9.3Zm2.359 2.712h-1.74V236h1.788v-3.348c0-.816.672-1.212 1.344-1.212.18 0 .504.024.756.084v-1.764c-.192-.036-.252-.048-.456-.048-.54 0-1.488.36-1.692 1.476v-1.344Zm5.994 1.32c.6 0 1.404.3 1.524 1.092h-3.084c.216-.828.984-1.092 1.56-1.092Zm1.992 2.772c-.432.408-1.068.732-1.704.732-1.14 0-1.848-.564-1.884-1.332h4.956c0-2.448-1.632-3.624-3.336-3.624-1.98 0-3.396 1.428-3.396 3.24 0 1.752 1.248 3.18 3.528 3.18.828 0 1.992-.252 2.868-1.212l-1.032-.984Zm3.843-1.032c0-.948.552-1.74 1.536-1.74.972 0 1.656.696 1.656 1.836 0 1.116-.732 1.68-1.608 1.68-.984 0-1.584-.792-1.584-1.776Zm3.144-5.58v3.36a2.465 2.465 0 0 0-1.968-.972c-1.92 0-2.964 1.452-2.964 3.18 0 1.8 1.128 3.24 3 3.24.9 0 1.488-.396 1.932-1.032v.9h1.788v-8.676h-1.788Zm6.326 3.84c.6 0 1.404.3 1.524 1.092h-3.084c.216-.828.984-1.092 1.56-1.092Zm1.992 2.772c-.432.408-1.068.732-1.704.732-1.14 0-1.848-.564-1.884-1.332h4.956c0-2.448-1.632-3.624-3.336-3.624-1.98 0-3.396 1.428-3.396 3.24 0 1.752 1.248 3.18 3.528 3.18.828 0 1.992-.252 2.868-1.212l-1.032-.984Zm5.402-2.772c.6 0 1.404.3 1.524 1.092h-3.084c.216-.828.984-1.092 1.56-1.092Zm1.992 2.772c-.432.408-1.068.732-1.704.732-1.14 0-1.848-.564-1.884-1.332h4.956c0-2.448-1.632-3.624-3.336-3.624-1.98 0-3.396 1.428-3.396 3.24 0 1.752 1.248 3.18 3.528 3.18.828 0 1.992-.252 2.868-1.212l-1.032-.984Zm9.051-2.748c.792 0 1.032.66 1.032 1.5V236h1.788v-3.348c0-1.56-.468-2.94-2.196-2.94-.588 0-1.476.132-1.944 1.032-.312-.624-.948-1.032-1.884-1.032-.672 0-1.248.36-1.644.972v-.84h-1.788V236h1.788v-3.3c0-.828.24-1.512 1.02-1.512.792 0 1.032.66 1.032 1.5V236h1.776v-3.3c0-.828.24-1.512 1.02-1.512Z" fill="#fff"/>
  <path d="M398.365 0c-.914 2.752-2.438 5.166-4.365 7.316-1.907-2.146-3.452-4.581-4.365-7.316h-.907c.995 3.219 2.809 6.23 5.272 8.538 2.431-2.383 4.274-5.272 5.281-8.538h-.916Z" fill="#033333"/>
  <path d="m394 41.63-13.552 7.125 2.588-15.09-10.964-10.687 15.147-2.206L394 7.048l6.781 13.724 15.147 2.206-10.964 10.688 2.588 15.09L394 41.63Z" fill="#C32127"/>
  <path fill-rule="evenodd" clip-rule="evenodd" d="m394 41.63-13.552 7.125 2.588-15.09-10.964-10.687 15.147-2.206L394 7.048l6.781 13.724 15.147 2.206-10.964 10.688 2.588 15.09L394 41.63Zm12.039-7.615 2.841 16.568L394 42.76l-14.88 7.823 2.841-16.568-12.037-11.734 16.631-2.423L394 4.791l7.445 15.067 16.631 2.423-12.037 11.734Z" fill="#033333"/>
  <path d="m387.296 20.887-14.976 2.177L394 27.926V7.306l-6.704 13.58Z" fill="#B21F2F"/>
  <path d="M383.16 33.627 394 27.926l-21.68-4.862 10.84 10.563Z" fill="#A51E2D"/>
  <path d="M380.601 48.545 394 41.507l13.399 7.038L394 27.925l-13.399 20.62Z" fill="#A51E2D"/>
  <path d="M415.68 23.064 394 27.926l10.84 5.701 10.84-10.563Z" fill="#A51E2D"/>
  <g clip-path="url(#a)">
    <path d="M109.61 199.63a8.892 8.892 0 0 1-1.43-.11c-2.45-.36-5.55-1.55-9.49-3.66a1.206 1.206 0 0 1-.698-1.2 1.206 1.206 0 0 1 1.255-1.108c.206.009.407.07.583.178a29.294 29.294 0 0 0 8.7 3.41 3.72 3.72 0 0 0 3-.47c.66-.57.6-1.59.43-3.49a15.365 15.365 0 0 1 1-8.17 16.142 16.142 0 0 1 5.13-6.3 12.494 12.494 0 0 1 3.7-1.89 9.246 9.246 0 0 1 4.15-.33 10.11 10.11 0 0 1 4.71 2.11 8.257 8.257 0 0 1 3 4.67 9.41 9.41 0 0 1-.23 4.65 5.582 5.582 0 0 1-1.256 2.293A5.59 5.59 0 0 1 130 191.68a5.118 5.118 0 0 1-1.69.29 7.876 7.876 0 0 1-4.62-1.84 1.198 1.198 0 0 1-.269-1.5 1.198 1.198 0 0 1 1.189-.608c.236.027.459.124.64.278 0 0 2.11 1.76 3.93 1.11a3.273 3.273 0 0 0 1.84-2.21 7.1 7.1 0 0 0 .16-3.42 5.907 5.907 0 0 0-2.15-3.31 7.815 7.815 0 0 0-3.56-1.6 8.07 8.07 0 0 0-6.06 1.79 13.618 13.618 0 0 0-4.34 5.32 13.206 13.206 0 0 0-.76 7c.19 2.12.37 4.12-1.24 5.53a5.126 5.126 0 0 1-3.46 1.12ZM74.67 192.96a3.006 3.006 0 0 1-3-3 23.202 23.202 0 0 1 4.79-13.63 28.24 28.24 0 0 1 10.06-8.63 3.011 3.011 0 0 1 2.62 5.42 22.217 22.217 0 0 0-7.83 6.76 17.433 17.433 0 0 0-3.63 10.05 3.004 3.004 0 0 1-3 3l-.01.03Z" fill="#D12027" stroke="#333" stroke-width=".2"/>
    <path d="M78 188.17a7.741 7.741 0 0 1-.12 1.23 3.823 3.823 0 0 0-4.8-.8 4.435 4.435 0 0 0-1.45 1.78v-.33c0-.46-.08-1 0-1.42a.35.35 0 0 1 0-.17c1.08-2.31 4.91-2.38 6.29-.59a.47.47 0 0 1 .08.3Z" fill="#EDEDEE" stroke="#333" stroke-width=".2"/>
    <path d="M75.68 198.05a3.435 3.435 0 0 1-1.22-.22 4.557 4.557 0 0 1-2.46-2.34 7.283 7.283 0 0 1-.73-2.31 5.48 5.48 0 0 1 .11-2.11 4.407 4.407 0 0 1 1.72-2.57 3.497 3.497 0 0 1 4.116.024 3.49 3.49 0 0 1 1.234 3.926 3.464 3.464 0 0 1 .55 3.33 3.497 3.497 0 0 1-3.32 2.27Z" fill="#D12027" stroke="#333" stroke-width=".2"/>
    <path opacity=".08" d="M77.45 197.57a3.506 3.506 0 0 1-2.99.26 4.557 4.557 0 0 1-2.46-2.34 7.283 7.283 0 0 1-.73-2.31 5.48 5.48 0 0 1 .11-2.11c.065-.279.158-.55.28-.81a3.024 3.024 0 0 1 0-.31 22.924 22.924 0 0 1 4.32-13c.48.187.97.367 1.47.54-2.39 3.8-4.12 6.8-4.1 10.78-.82 1.05-.61 4 0 5.52 1.36 3.2 3.75 3.76 4.1 3.78Z" fill="#1E1E1E"/>
    <path d="M88.38 210.88h-.18a4.572 4.572 0 0 1-4.121-2.993 4.577 4.577 0 0 1-.279-1.767 38.833 38.833 0 0 1 2.64-12.35c.3-.84.56-1.58.75-2.23a4.584 4.584 0 0 1 8.81 2.54c-.27.93-.59 1.83-.93 2.78a29.584 29.584 0 0 0-2.07 9.62 4.577 4.577 0 0 1-4.62 4.4Z" fill="#D12027" stroke="#333" stroke-width=".2"/>
    <path d="M101.44 210.97a4.575 4.575 0 0 1-4.57-4.32 29.804 29.804 0 0 0-2.27-9.58c-.36-.95-.69-1.84-1-2.77a4.584 4.584 0 0 1 3.046-5.691 4.583 4.583 0 0 1 5.714 3.001c.2.65.47 1.38.79 2.22a38.577 38.577 0 0 1 2.85 12.3 4.563 4.563 0 0 1-1.153 3.309 4.56 4.56 0 0 1-3.157 1.521l-.25.01ZM114.75 192.13h-.3a2.999 2.999 0 0 1-2.7-3.31c.26-2.58-.9-5.89-3.18-9.08a22.018 22.018 0 0 0-7.83-6.9 3.011 3.011 0 0 1 .226-5.563 3.018 3.018 0 0 1 2.304.093 23.884 23.884 0 0 1 5.48 3.65 30.964 30.964 0 0 1 4.73 5.22c3.16 4.43 4.68 9.11 4.27 13.19a2.994 2.994 0 0 1-.978 1.93c-.554.5-1.276.774-2.022.77Z" fill="#D12027" stroke="#333" stroke-width=".2"/>
    <path d="M111.58 188.17c.007.413.047.824.12 1.23a3.823 3.823 0 0 1 4.8-.8 4.37 4.37 0 0 1 1.5 1.78v-.33c0-.46.07-1 .05-1.42a.539.539 0 0 0 0-.17c-1.08-2.31-4.91-2.38-6.29-.59a.472.472 0 0 0-.18.3Z" fill="#EDEDEE" stroke="#333" stroke-width=".2"/>
    <path d="M114.05 198.04a3.502 3.502 0 0 1-2.574-1.122 3.498 3.498 0 0 1-.256-4.438 3.49 3.49 0 0 1 .454-3.118 3.497 3.497 0 0 1 2.779-1.487 3.504 3.504 0 0 1 2.057.605 4.495 4.495 0 0 1 1.77 2.54c.179.689.227 1.405.14 2.11-.2 1.69-1.13 3.94-3.1 4.71a3.517 3.517 0 0 1-1.27.2Z" fill="#D12027" stroke="#333" stroke-width=".2"/>
    <path opacity=".08" d="M118.42 193.09c-.2 1.69-1.13 3.94-3.1 4.71a3.473 3.473 0 0 1-2.95-.19c.51-.06 2.74-.71 4-3.71.64-1.53.84-4.49 0-5.54 0-3.79-1.54-7.19-3.75-10.78l1.41-.53c2.78 4.18 4.1 8.54 3.71 12.37.005.09.005.18 0 .27.254.399.446.834.57 1.29.169.691.206 1.406.11 2.11Z" fill="#010101"/>
    <path d="M110.23 189.67a12.613 12.613 0 0 1-.47 3.39v.17a14.196 14.196 0 0 1-.55 1.55l-.22.51a16.002 16.002 0 0 1-14.15 9.17 15.785 15.785 0 0 1-14.33-9.58l-.13-.31c-.252-.652-.46-1.32-.62-2l-.09-.41a12.293 12.293 0 0 1-.25-2.49c0-3.51.61-7 3-14.09 2.32-6.88 4.46-9.66 6.07-11.34 1.81-1.9 4.34-4.55 7.66-4.35 2.66.16 4.5 2.1 6.13 3.87 1.9 2.06 3.86 5 5.74 11.83 1.88 6.83 2.21 10.61 2.21 14.08Z" fill="#D12027" stroke="#333" stroke-width=".2"/>
    <path d="M108.26 196.6c-11 5.42-18.93 3.62-27.22-.65.477.839 1.001 1.65 1.57 2.43 8.7 4.49 16.52 4.66 24.32.14.481-.612.926-1.253 1.33-1.92Z" fill="#EDEDEE" stroke="#333" stroke-width=".2"/>
    <path d="M109.76 193.06v.17a14.196 14.196 0 0 1-.55 1.55l-.22.51c-9 5-18.34 4.68-28.44-.45l-.13-.31c-.252-.652-.46-1.32-.62-2l-.09-.41c9.06 4.51 18.29 6.24 30.05.94Z" fill="#282828" stroke="#333" stroke-width=".2"/>
    <path d="M93.52 199.41a.925.925 0 0 1-.838-.58.878.878 0 0 1-.062-.34l.06-2a.91.91 0 0 1 .92-.87l2.71.06a.933.933 0 0 1 .838.58.885.885 0 0 1 .062.34v2a.92.92 0 0 1-.93.87l-2.76-.06Zm.08-2.93-.06 2 2.73.08v-.57h-.55a.4.4 0 1 1 0-.8h.58v-.66l-2.73-.08.03.03Z" fill="#F7C526" stroke="#333" stroke-width=".2"/>
    <path d="M40.13 129.42c-5.27 5-2.94 15 .8 20.58 5.32 8 17.27 12.91 23.27 8.49 6.26-4.61 5.19-18.75-2.35-26-5.62-5.36-16.27-8.25-21.72-3.07Z" fill="#F7C394" stroke="#333" stroke-width=".2"/>
    <path d="M46.48 135.1c-3.12 3.34-1.28 9.51 1.27 12.9 3.64 4.83 11.33 7.45 14.93 4.45 3.76-3.12 2.56-12-2.44-16.21-3.73-3.18-10.53-4.6-13.76-1.14Z" fill="#FCC9A2"/>
    <path d="M149.56 129.19c5.35 4.92 3.2 14.92-.44 20.6-5.18 8.1-17 13.2-23.12 8.89-6.34-4.5-5.52-18.66 1.89-26 5.53-5.49 16.11-8.57 21.67-3.49Z" fill="#F7C394" stroke="#333" stroke-width=".2"/>
    <path d="M143.3 134.98c3.18 3.29 1.45 9.49-1 12.92-3.56 4.89-11.2 7.65-14.85 4.72-3.82-3.06-2.77-11.92 2.16-16.26 3.64-3.24 10.39-4.78 13.69-1.38Z" fill="#FCC9A2"/>
    <path d="M119 81.3c2-1.72-6-3.66-7.06-6.72-1.3-3.69 19.07 6.13 16 12.59-.24.5-2.67 4.53-20.13-1.15 19.2 6.23 33.66 19.44 33.59 43.89 0 18.75-16.8 47.78-46.53 48-28.67.25-46.58-28.75-46.52-48 .08-23.55 20.86-47.78 46.65-49.59 15.35-1.09 22.35 2.41 24 .98Z" fill="#E2E2E2" stroke="#333" stroke-width=".2"/>
    <path d="M94.89 104.63c.08 0 .17-.03.26-.073.091-.044.196-.108.31-.186.23-.157.515-.379.849-.642l.083-.066c.658-.52 1.51-1.192 2.55-1.864C101.11 100.398 104.09 99 107.82 99c5.345 0 11.129 3.886 15.584 9.708 4.453 5.818 7.561 13.548 7.566 21.192 0 4.945-1.339 7.962-2.671 9.886-.654.944-1.309 1.627-1.808 2.148l-.028.03a8.827 8.827 0 0 0-.614.681c-.148.192-.251.376-.249.556.001.117.075.21.168.282.095.074.228.142.387.208.299.125.716.253 1.206.405l.098.03c1.071.331 2.49.778 3.908 1.537 1.417.759 2.829 1.826 3.887 3.395 1.058 1.568 1.766 3.643 1.766 6.422 0 2.491-1.252 5.273-3.462 8.061-2.209 2.787-5.368 5.569-9.162 8.057-7.588 4.975-17.705 8.763-27.819 9.052-11.101.324-22.057-3.52-30.239-8.52-4.09-2.5-7.483-5.286-9.852-7.981-2.373-2.698-3.706-5.289-3.706-7.399 0-5.562 2.832-8.674 5.668-10.525 1.42-.926 2.84-1.536 3.91-1.978l.244-.101c.427-.175.789-.324 1.055-.456.157-.079.288-.154.38-.228.087-.072.164-.162.163-.273a.566.566 0 0 0-.074-.253 1.802 1.802 0 0 0-.182-.272c-.142-.18-.34-.392-.573-.64l-.044-.048c-.505-.541-1.174-1.264-1.843-2.254-1.335-1.98-2.674-5.033-2.674-9.822 0-7.649 3.115-15.378 7.574-21.195C70.846 102.884 76.635 99 81.97 99c4.13-.01 7.068 1.391 9.11 2.794.955.655 1.714 1.311 2.31 1.826l.125.107c.305.264.569.488.79.645.11.078.214.142.31.187a.65.65 0 0 0 .276.071Zm0 0v-.1.1Z" fill="#FECD99" stroke="#333" stroke-width=".2"/>
    <path d="M83.26 108.5c7.47.87 12.85 10.07 12.06 18.17-.79 8.1-7.85 16.49-15.91 15.57-7.32-.83-12.07-9-12.22-15.82-.19-9.17 7.75-18.88 16.07-17.92Z" fill="#fff"/>
    <path d="M92.327 128.861c1.066-5.492-1.903-10.688-6.63-11.605-4.728-.917-9.425 2.791-10.49 8.284-1.066 5.492 1.903 10.688 6.63 11.605 4.728.917 9.425-2.792 10.49-8.284Z" fill="#6ACDE9" stroke="#333" stroke-width=".2"/>
    <path d="M84.3 134.47c2.822 0 5.11-2.556 5.11-5.71 0-3.153-2.288-5.71-5.11-5.71-2.822 0-5.11 2.557-5.11 5.71 0 3.154 2.288 5.71 5.11 5.71Z" fill="#010101"/>
    <path d="M88.82 124.771c.359-1.015-.215-2.144-1.283-2.522-1.067-.378-2.224.14-2.583 1.154-.36 1.016.215 2.145 1.282 2.523 1.067.377 2.224-.14 2.583-1.155h.001Z" fill="#fff" stroke="#333" stroke-width=".2"/>
    <path d="M106.2 108.3c-7.45 1-12.67 10.29-11.74 18.38.93 8.09 8.13 16.35 16.18 15.29 7.3-1 11.91-9.19 11.94-16 .05-9.2-8.08-18.78-16.38-17.67Z" fill="#fff"/>
    <path d="M108.11 136.928c4.712-1 7.59-6.247 6.428-11.72-1.161-5.472-5.922-9.098-10.633-8.099-4.71 1-7.589 6.247-6.427 11.72 1.161 5.473 5.922 9.099 10.633 8.099h-.001Z" fill="#6ACDE9" stroke="#333" stroke-width=".2"/>
    <path d="M105.612 134.284c2.822-.049 5.065-2.645 5.01-5.798-.055-3.153-2.388-5.67-5.21-5.62-2.821.05-5.064 2.645-5.009 5.799.055 3.152 2.387 5.669 5.209 5.62v-.001Z" fill="#010101"/>
    <path d="M108.813 125.931c1.06-.396 1.615-1.535 1.238-2.544-.377-1.009-1.543-1.505-2.603-1.11-1.06.397-1.615 1.536-1.238 2.545s1.543 1.505 2.603 1.11v-.001Z" fill="#fff" stroke="#333" stroke-width=".2"/>
    <path d="M84.5 141.21c0 3.63 4.76 8 10.4 8 5.21 0 10.28-4.4 10.28-8 0-2.87-6-5.41-10.28-5.37-3.98.04-10.4 1.97-10.4 5.37Z" fill="#785B43"/>
    <path opacity=".08" d="M53.18 159.22A24.428 24.428 0 0 1 40.93 150c-3.74-5.61-6.07-15.57-.8-20.58a11.085 11.085 0 0 1 8.37-2.7v.51a10.283 10.283 0 0 0-6.4 2.67c-5.27 5-2.94 15 .8 20.59a24.282 24.282 0 0 0 10.17 8.39c.04.13.07.23.11.34Zm95.94-9.43a24.478 24.478 0 0 1-12.93 9.7c0-.09.08-.17.11-.26a24.357 24.357 0 0 0 10.89-9c3.64-5.68 5.8-15.68.44-20.59a10.261 10.261 0 0 0-6.26-2.55v-.5a10.998 10.998 0 0 1 8.22 2.56c5.32 4.96 3.17 14.96-.47 20.64Z" fill="#010101"/>
    <path opacity=".1" d="M105.18 142.19c0 3.57-5.07 7.93-10.28 8-5.64.05-10.4-4.35-10.4-8a1.994 1.994 0 0 1 0-.43c.43 3.52 5 7.5 10.36 7.45 4.94 0 9.76-4 10.24-7.42.04.13.068.265.08.4Z" fill="#010101"/>
    <g opacity=".1" fill="#010101">
      <path d="M111 87h.09l-.56-.18.47.18Z"/>
      <path d="M122.17 82.38c-2.58 3-10.22-1.93-25.62-.84-25.74 1.81-45.42 25.64-45.48 49.19a45.886 45.886 0 0 0 3.79 17.06c2.84-3.56 7.31-4.8 8.61-5.5.39.41.63.7.63.91v.05l-.08.08c-.094.08-.198.147-.31.2h-.08l-.66.29h-.06l-.87.36-.15.06-.62.28-.17.07h-.08l-.25.12-.35.16h-.17l-.18.09-.45.24-.09.05-.36.21c-.067.031-.13.068-.19.11l-.46.28-.09.06-.28.19-.09.06-.46.33-.36.29-.27.22-.09.08-.09.07-.18.16-.08.08-.09.08-.17.16-.09.09-.17.18-.08.09a3.77 3.77 0 0 0-.33.36 1.466 1.466 0 0 0-.16.19l-.08.09-.19.24-.16.21v.06l-.08.12-.12.18v.05l-.05.08v.07l-.05.08-.15.25-.14.25-.07.13-.35.53c-3.68-7.12-5.64-14.59-5.62-21 .05-23.52 20.83-47.75 46.62-49.56 15.4-1.09 22.4 2.41 24.09 1 2-1.72-6-3.66-7.06-6.72-.42-1.18 1.39-1 3.93 0-1-.14-1.49.09-1.23.77.88 2.51 9.33 4.81 7.44 7.01Z"/>
    </g>
    <path opacity=".05" d="M65.54 142.53c0 .17-1.15.73-1.75 1 .2-.12.31-.22.31-.32 0-1-5.39-3.67-5.39-13.29v-.6c.5 8.56 6.82 12.26 6.83 13.21Zm60.46.95c-.62-.27-1.66-.79-1.66-.95 0-.92 5.87-4.38 6.75-12.26-.12 9.62-5.38 11.81-5.37 12.94-.02.09.08.18.28.27Z" fill="#010101"/>
    <path d="M93 206.39v.45a3.402 3.402 0 0 0-1.33-.84 17.888 17.888 0 0 0-5.07-.77 22.164 22.164 0 0 0-2.69.1v-.49c.884-.08 1.772-.11 2.66-.09 1.718.012 3.426.271 5.07.77.52.17.988.47 1.36.87Zm13-1.06a21.837 21.837 0 0 0-2.67-.1 17.889 17.889 0 0 0-5.07.77 3.39 3.39 0 0 0-1.34.85v-.44c.372-.41.844-.716 1.37-.89a17.889 17.889 0 0 1 5.07-.77c.874-.025 1.75.005 2.62.09-.04.16.02.32.02.49ZM84.49 200.4a15.41 15.41 0 0 0 8.63 4c0 .24-.05.48-.07.72a15.392 15.392 0 0 1-8.68-4.08l.12-.64Zm20.86.53a15.803 15.803 0 0 1-8.62 4.11c0-.24 0-.48-.09-.71a15.851 15.851 0 0 0 8.58-4c.04.2.08.4.13.6Z" fill="#010101" opacity=".08"/>
    <path opacity=".1" d="M110.23 189.67c0 7.41-6.78 14.71-15.43 14.79-8.46.07-15.38-7.38-15.38-14.79v-1.46a15.66 15.66 0 0 0 15.38 13.84c8.34-.07 14.94-6.86 15.4-14 .02.56.03 1.09.03 1.62Zm3.77-12.62c-1.69.66-3.42 1.25-5.19 1.75l-.8.23a49.94 49.94 0 0 1-11.47 1.73A50.587 50.587 0 0 1 82 178.97l-.63-.17c-1.85-.52-3.66-1.13-5.41-1.81-.35.51-.68 1-1 1.54a60.02 60.02 0 0 0 5.85 2v-.09.1a51.235 51.235 0 0 0 15.72 2.11 49.848 49.848 0 0 0 12.61-2.06h.06a54.83 54.83 0 0 0 5.75-2c-.25-.52-.57-1.03-.95-1.54Z" fill="#010101"/>
    <g opacity=".2" fill="#010101">
      <path d="M111.92 197.31c-1 .89-3.14.64-4.42.45.17-.23.33-.47.49-.72l.54.1a4.056 4.056 0 0 0 2.84-.35c.163.194.348.368.55.52Zm17.29-7.9.31-.14a2.56 2.56 0 0 1-1 .72c-1.83.65-3.91-1.1-3.93-1.12a1.247 1.247 0 0 0-1.12-.24c.043-.069.09-.135.14-.2a1.212 1.212 0 0 1 1.291-.363c.15.05.289.129.409.233 0 0 2.08 1.76 3.9 1.11Z"/>
      <path d="M133.34 187.88a5.89 5.89 0 0 1-2.34 3.3 6.345 6.345 0 0 0 1.6-2.68 9.41 9.41 0 0 0 .23-4.65 8.32 8.32 0 0 0-3-4.68 10.005 10.005 0 0 0-4.7-2.1 9.29 9.29 0 0 0-4.16.33 12.56 12.56 0 0 0-3.69 1.89l-.19.13c.3-.25.6-.49.91-.71a12.494 12.494 0 0 1 3.7-1.89 9.246 9.246 0 0 1 4.15-.33 10.012 10.012 0 0 1 4.7 2.11 8.21 8.21 0 0 1 3 4.67 9.401 9.401 0 0 1-.21 4.61Z"/>
    </g>
    <path opacity=".2" d="M105.18 141.22c0 3.58-5.07 7.93-10.28 8-5.64.05-10.4-4.36-10.4-8-.01-.15-.01-.3 0-.45a13.497 13.497 0 0 0 10.34 4.58 14.093 14.093 0 0 0 10.22-4.72c.064.192.104.39.12.59Z" fill="#010101"/>
    <path opacity=".05" d="M86.94 109.66a10.22 10.22 0 0 0-1.54-.3c-8.45-1-16.53 8.81-16.32 18 .12 5.18 2.86 11.08 7.36 14.07-5.61-2.36-9.12-9.18-9.25-15-.21-9.17 7.75-18.88 16.07-17.92 1.287.154 2.534.544 3.68 1.15Zm35.64 16.28c0 5.94-3.51 12.93-9.2 15.29 4.59-3 7.33-9.07 7.36-14.34.05-9.2-8.1-18.79-16.42-17.68-.748.1-1.483.285-2.19.55a10.76 10.76 0 0 1 4.07-1.46c8.3-1.11 16.43 8.47 16.38 17.64Z" fill="#010101"/>
    <path opacity=".1" d="M88.27 118.27c-.21-.06-.42-.11-.64-.15-4.77-.93-9.52 2.82-10.6 8.37a10.361 10.361 0 0 0 3.49 10.28c-4-1.54-6.28-6.26-5.32-11.23 1.07-5.49 5.77-9.2 10.5-8.28a7.596 7.596 0 0 1 2.57 1.01Zm20.87 18.36c2.94-2.1 4.47-6.22 3.57-10.48-1.17-5.49-5.94-9.12-10.67-8.12a8.08 8.08 0 0 0-.85.23 7.69 7.69 0 0 1 2.72-1.16c4.72-1 9.48 2.63 10.64 8.1 1.08 5.07-1.31 9.94-5.41 11.43Z" fill="#010101"/>
    <path opacity=".1" d="M131.05 127.55v.91c-.77-14.87-12.79-29.58-23.23-29.58-7.51 0-12 5.62-12.93 5.63-1.09.03-4.61-5.63-12.89-5.63-10.41 0-22.46 14.64-23.22 29.5v.17c-.005.06-.005.12 0 .18v.17-1.37c0-15.36 12.5-31 23.27-31 8.31 0 11.83 5.64 12.92 5.63.93 0 5.42-5.63 12.93-5.63 10.68 0 23.1 15.66 23.15 31.02Z" fill="#010101"/>
    <path opacity=".08" d="M137.12 155.49c0 10.09-20.27 24.69-40.54 25.27-22.25.65-43.9-15.41-43.9-24v-.67c1.88 8.79 22.6 23.43 43.87 22.79 19.59-.57 39.17-14.18 40.55-24.22.02.29.02.56.02.83Z" fill="#010101"/>
    <path opacity=".1" d="M141.42 129.88a47.37 47.37 0 0 1-5.33 20.43c-2.8-6.1-10.38-6.3-10.39-7.13a1 1 0 0 1 .3-.59c1.45.6 6.56 1 9.34 4.92a44.474 44.474 0 0 0 4.18-18.07c.07-24.6-15.08-37.83-34.4-44.1 1.7.55 1.68.31 2.71.65 19.17 6.26 33.66 19.47 33.59 43.89Z" fill="#010101"/>
    <path d="M56.92 147.25c-13.67 8.9-1.12 28 16.56 37.4 12.88 6.87 17.75 13 21.12 13.17 2.31.15 12.38-10.4 26.78-16.12 13.69-5.44 21.26-21.55 13.69-33.29-1.63 7.59-9.12 5.76-15.15 12.34-5 5.51-9.23 7.16-13.41 7.16-4.38 0-7.13-5-11.11-5-4.57 0-6.33 4.48-11.72 4.48-4.26 0-8.17-2.33-13.72-8.15-3.9-4.12-11.28-2.44-13.04-11.99Z" fill="#E2E2E2" stroke="#333" stroke-width=".2"/>
    <path opacity=".1" d="M137.64 162.88a26.658 26.658 0 0 1-16.26 18.85C107 187.42 96.9 197.97 94.6 197.82c-3.37-.21-8.24-6.3-21.12-13.17-14.74-7.85-25.92-22.42-21.3-32.21-1.16 9.53 9.14 21.85 22.26 28.84 12.89 6.86 17.76 12.76 21.12 13 2.31.14 12.39-10.22 26.79-15.93a27.079 27.079 0 0 0 15.29-15.47Z" fill="#010101"/>
    <path d="m100.11 151.88-.32.31.32-.31Z" fill="#48372B"/>
    <path d="M94.19 152.93c4.75.16 5-2.34 9.72-2.34 5.2 0 7.28 5.39 12.21 7.31 4.58 1.79 12.17-.87 12-.12-.17 1-8.47 6.14-12.23 5.86-13.54-1-13.73-5.63-21.75-5.41-6.77.19-8.25 5-16.15 5.87-8.07.85-15.43-6.19-15.41-7.54.02-1.35 5.82 4.63 12.93.64 3.39-1.9 4.75-6.13 8.57-6.4 4.23-.28 5.84 1.98 10.11 2.13Z" fill="#E2E2E2" stroke="#333" stroke-width=".2"/>
    <path d="M68.22 79.3c.91.276 1.803.61 2.67 1 .978.455 1.98.86 3 1.21 2.32.76 4.85.51 7.54.25a27.38 27.38 0 0 1 7.57 0c1.702.322 3.374.784 5 1.38a21.476 21.476 0 0 0 5.38 1.32c5.14.37 10 .71 15.32 2.55 3 1 5.84 2.33 8.6 3.59 2.37 1.08 4.83 2.19 7.29 3.09 1 .38 10.53 9.93 10.89 10.13 4.23-4.7 4.08-19.49 3.86-22.6.75 10.59 3.38 16.36 9.16 23.15a6.409 6.409 0 0 1 3.89-1.27c2.5-9.93-1.2-30.33-9.73-37.55-4.87-4.12-9-7.17-15.31-8.69-12.06-2.9-19.63-4.74-31.45.9C87.8 64.5 76 64.69 68.22 79.3Z" fill="#D12027" stroke="#333" stroke-width=".2"/>
    <path d="M93.12 207.21c-1.72-1.28-9.06-1.81-9.54-1.1 0-.585.04-1.17.12-1.75 3.78-.95 8.66.48 9.43 1.56.032.43.029.861-.01 1.29Z" fill="#EDEDEE" stroke="#333" stroke-width=".2"/>
    <path d="M90.58 212.35a3.334 3.334 0 0 1-1-.17 14.102 14.102 0 0 0-7.12 0 3.258 3.258 0 0 1-2.476-.271 3.27 3.27 0 0 1-1.67-3.209 3.257 3.257 0 0 1 1.199-2.184 3.24 3.24 0 0 1 1.127-.586 20.155 20.155 0 0 1 5.92-.71c1.718.012 3.426.271 5.07.77a3.265 3.265 0 0 1 2.042 4.152 3.262 3.262 0 0 1-3.042 2.198l-.05.01Z" fill="#3E3025" stroke="#333" stroke-width=".2"/>
    <path opacity=".3" d="M93.67 210.12a3.28 3.28 0 0 1-3.09 2.23 3.334 3.334 0 0 1-1-.17 14.102 14.102 0 0 0-7.12 0 3.27 3.27 0 0 1-4-2.21 3.329 3.329 0 0 1-.09-1.4c.02.146.05.289.09.43a3.258 3.258 0 0 0 4 2.22 14.013 14.013 0 0 1 7.12 0 3.253 3.253 0 0 0 4.22-2.61c.07.507.026 1.023-.13 1.51Z" fill="#010101"/>
    <path d="M96.66 207.19c1.73-1.28 9.07-1.82 9.54-1.1.004-.585-.036-1.17-.12-1.75-3.78-1-8.65.48-9.43 1.55-.032.433-.029.868.01 1.3Z" fill="#EDEDEE" stroke="#333" stroke-width=".2"/>
    <path d="M99.25 212.35a3.26 3.26 0 0 1-3.222-3.322A3.268 3.268 0 0 1 98.25 206a17.889 17.889 0 0 1 5.07-.77 20.152 20.152 0 0 1 5.92.71 3.255 3.255 0 0 1 1.975 4.627 3.25 3.25 0 0 1-3.795 1.623 14.102 14.102 0 0 0-7.12 0 3.34 3.34 0 0 1-1.05.16Z" fill="#3E3025" stroke="#333" stroke-width=".2"/>
    <path opacity=".3" d="M111.44 209.98a3.266 3.266 0 0 1-4.04 2.21 14.102 14.102 0 0 0-7.12 0c-.323.107-.66.165-1 .17a3.248 3.248 0 0 1-3.08-2.23 3.139 3.139 0 0 1-.13-1.51c.024.185.068.365.13.54a3.246 3.246 0 0 0 3.08 2.23c.34-.002.677-.056 1-.16a14.013 14.013 0 0 1 7.12 0c.296.087.602.131.91.13a3.276 3.276 0 0 0 3.13-2.35c.04-.14.07-.284.09-.43.075.468.044.946-.09 1.4Z" fill="#010101"/>
    <path opacity=".1" d="M141.41 128.29a3.561 3.561 0 0 1-1.31 0l-.34-.07c-1.95-.45-4.74-3.18-6.54-4.62-5.91-4.72-10.1-8.49-17-10.7a137.282 137.282 0 0 0-38.91-6.21c-5.21-.08-10.57.72-15.72 1.08-3.53.29-5.86.43-7.2-.2.53-1 1.08-1.89 1.66-2.82 1.4.33 3.51.18 6.46 0 5.15-.37 10.51-1.17 15.73-1.08a137.243 137.243 0 0 1 38.9 6.2c6.87 2.21 11.06 6 17 10.71 1.8 1.43 4.59 4.16 6.54 4.62l.34.06h.23c.08.99.13 2 .16 3.03Z" fill="#010101"/>
    <path opacity=".08" d="M137.34 60.19c-12.06-2.91-19.64-4.74-31.46.9-13.61 6.5-25.07 6.89-32.88 20.15-.76-.29-1.45-.59-2.12-.89-.867-.39-1.76-.724-2.67-1C76 64.69 87.8 64.5 101.87 57.78c11.82-5.64 19.39-3.8 31.45-.9 6.3 1.52 10.44 4.57 15.31 8.69l.58.52a30.47 30.47 0 0 0-11.87-5.9Z" fill="#010101"/>
    <g opacity=".1" fill="#010101">
      <path d="M144.53 80.45c-.69 5.94-1.74 14.46-4.42 17.82a22.37 22.37 0 0 1 3.2 2.19c1.72-4.8 2.18-12.07 2-18 .85 8.88 3.73 14.86 5.53 16.33 1.56-1 1.63-1.73 2.76-1.73-3.08-3.72-5.25-7.38-7.81-16.7a.66.66 0 0 0-1.26.09Z"/>
      <path d="M143.31 100.56h-.05l-.36-.27a19.682 19.682 0 0 0-2.83-1.92.078.078 0 0 1-.007-.03c0-.01.003-.02.007-.03a.08.08 0 0 1-.011-.04.08.08 0 0 1 .011-.04c2.72-3.42 3.77-12.4 4.4-17.77a.722.722 0 0 1 .69-.66.719.719 0 0 1 .78.55c2.51 9.12 4.67 12.89 7.8 16.66a.123.123 0 0 1 .011.05.123.123 0 0 1-.011.05.101.101 0 0 1-.036.043.101.101 0 0 1-.054.017 1.76 1.76 0 0 0-1.36.67 7.795 7.795 0 0 1-1.35 1 .09.09 0 0 1-.11 0c-1.67-1.36-4.3-6.65-5.35-14.48 0 4.12-.27 11.13-2.06 16.12a.097.097 0 0 1-.022.038.097.097 0 0 1-.038.022l-.05.02Zm-3.05-2.33c.963.551 1.88 1.18 2.74 1.88l.26.19c2-5.86 2.06-14.42 2-17.85 0-.025.009-.049.026-.067a.096.096 0 0 1 .064-.033.09.09 0 0 1 .064.027c.016.017.026.04.026.063.84 8.73 3.67 14.7 5.45 16.22a8.413 8.413 0 0 0 1.26-1 2.102 2.102 0 0 1 1.29-.72c-3.07-3.74-5.22-7.55-7.7-16.58a.551.551 0 0 0-.59-.41.532.532 0 0 0-.51.49c-.64 5.36-1.64 14.27-4.38 17.79Z"/>
    </g>
    <path d="M162.64 106.05a7.003 7.003 0 0 1-4.85 3.8c-5.63 1-12.23-5.66-8.43-13.29a7.265 7.265 0 0 1 2.097-2.487c7.326-5.505 15.253 4.543 11.183 11.977Z" fill="#EDEDEE" stroke="#333" stroke-width=".2"/>
    <path opacity=".08" d="M164.06 100.96a10.593 10.593 0 0 1-1.42 5.09 7.003 7.003 0 0 1-4.85 3.8c-5.63 1-12.23-5.66-8.43-13.29.266-.479.577-.93.93-1.35-.45 5.92 4.68 10.47 9.13 9.64a6.525 6.525 0 0 0 4.58-3.74l.06-.15Z" fill="#010101"/>
    <path d="M54.52 97.14c1.34-6 1.69-8.75 6.54-14.67a13.272 13.272 0 0 1 4.22-3.73c2.48-1.19 4.53-.21 8.3 0 5.31.35 10.75-2.81 16-2.58 3.84.18 7 1.74 11 1.88 5.32.2 9.88.65 14.86 2.81 5.44 2.38 10.38 6 15.57 9.26 4.5 2.72 11.65 6 13.91 11.76 1.59 3.92 1.47 14.69.71 18.51-.59 2.9-1.81 5.27-4.61 4.81l-.34-.06c-2-.46-4.74-3.19-6.54-4.62-5.91-4.73-10.1-8.5-17-10.71a137.274 137.274 0 0 0-38.91-6.2c-5.21-.09-10.57.71-15.72 1.08-7.95.67-9.79.61-7.99-7.54Z" fill="#EDEDEE" stroke="#333" stroke-width=".2"/>
    <path opacity=".08" d="M145.47 121.1c-.64 2.57-1.88 4.54-4.45 4.12l-.34-.06c-2-.46-4.74-3.19-6.54-4.62-5.91-4.73-10.1-8.5-17-10.71a137.243 137.243 0 0 0-38.9-6.2c-5.22-.09-10.58.71-15.73 1.08-8 .64-9.82.58-8-7.57 1.34-6 1.69-8.75 6.54-14.67a13.272 13.272 0 0 1 4.22-3.73c.295-.145.603-.262.92-.35l-.09.1c-4.85 5.91-5.2 8.69-6.53 14.67-1.8 8.14 0 8.21 8 7.56 5.16-.36 10.51-1.16 15.73-1.08 13.198.188 26.3 2.28 38.9 6.21 6.87 2.21 11.07 6 17 10.7 1.71 1.38 4.33 3.93 6.27 4.55Z" fill="#010101"/>
    <path opacity=".1" d="M128.17 157.78c-.17 1-8.47 6.14-12.23 5.87-13.54-1-13.73-5.64-21.75-5.42-6.77.19-8.25 5-16.15 5.87-8.07.85-15.43-6.19-15.41-7.54 0-.48.89.12 2.39.79 2.81 2.39 7.77 5.18 13 4.63 7.9-.83 9.38-5.68 16.15-5.87 8-.22 8.21 4.43 21.75 5.41 2.34.17 6.44-1.76 9.24-3.49 1.84-.29 3.06-.56 3.01-.25Z" fill="#010101"/>
  </g>
  <defs>
    <clipPath id="a">
      <path fill="#fff" transform="translate(36 54)" d="M0 0h129v159H0z"/>
    </clipPath>
  </defs>
</svg>
