<svg width="100" height="100" viewBox="0 0 100 100" fill="none" xmlns="http://www.w3.org/2000/svg">
<path d="M0.818726 65.4284C2.7977 62.1588 7.27189 60.4165 15.2953 60.2444C23.3188 60.0723 37.2791 57.3189 45.4316 50.0054C54.8102 41.6378 58.9833 29.0541 58.2519 20.2563C57.5636 11.9962 55.6921 7.93072 53.8637 5.86571C52.0354 3.8007 54.1004 1.84323 54.1004 1.84323C54.1004 1.84323 55.4555 2.14438 57.9938 0.552602C60.532 -1.03918 63.2639 1.5636 63.2639 1.5636C61.7581 4.14486 61.6075 7.82317 64.4039 10.9207C67.2003 14.0182 71.5024 14.1258 75.7615 20.7295C80.0206 27.3332 81.5263 47.6607 59.6501 67.2138C37.6018 86.9175 12.9937 79.5824 5.20688 73.2368C0.840236 69.666 0.818726 65.4284 0.818726 65.4284Z" fill="#FFEA6C"/>
<path d="M64.404 10.9422C61.6291 7.82316 61.7582 4.14486 63.2639 1.56359C63.2639 1.56359 61.2419 -0.372361 59.0478 0.100871C57.1549 7.32842 59.478 11.8456 65.0708 18.6215C70.8141 25.5694 69.588 45.3591 54.4661 58.8677C39.3442 72.3763 26.3518 73.1722 15.8762 72.5699C8.41199 72.1397 4.13139 69.7305 1.18445 67.4934C1.65768 69.0422 2.75472 71.2363 5.18541 73.2368C12.9722 79.5824 37.5588 86.9175 59.6286 67.2138C81.5049 47.6607 79.9776 27.3117 75.74 20.7295C71.5024 14.1473 67.1788 14.0397 64.404 10.9422Z" fill="#F7CD00"/>
<path d="M1.89428 69.1931C0.947819 67.7088 -0.0416668 67.3647 0.0013543 66.4827C0.0443754 65.6008 0.259481 64.6974 0.668182 64.052C1.07688 63.4067 2.19543 63.5788 3.12038 63.0195C2.02335 64.8049 1.18443 67.1711 1.98033 68.0745C1.74371 68.3541 1.89428 69.1931 1.89428 69.1931Z" fill="#794B35"/>
<path d="M57.9938 0.509588C55.4555 2.10137 54.1004 1.84324 54.1004 1.84324C53.9283 2.01532 53.7562 2.23043 53.6271 2.44553C54.8317 3.28444 56.0793 3.49955 57.3269 2.7897C58.9617 1.84324 61.1558 1.17641 63.1778 1.73569C63.1993 1.69266 63.2424 1.62813 63.2639 1.5636C63.2639 1.5636 60.532 -1.08219 57.9938 0.509588Z" fill="#794B35"/>
<path d="M56.0794 9.6302C57.4561 9.4151 58.8543 10.0174 59.7147 10.6197C58.8543 7.9954 58.1659 5.06997 58.6392 2.14453C58.4025 2.23057 58.1874 2.33813 57.9723 2.44568C57.7572 2.55323 57.5421 2.66078 57.3485 2.78985C56.1009 3.4997 54.8533 3.28459 53.6487 2.44568L53.6272 2.46719C53.6057 2.51021 53.5842 2.55323 53.5627 2.57474C53.5412 2.59625 53.4981 2.6823 53.4766 2.72532C53.4121 2.83287 53.3691 2.96193 53.326 3.06949C53.3045 3.13402 53.283 3.19855 53.2615 3.26308C53.24 3.3061 53.24 3.34912 53.2185 3.41365C53.2185 3.43516 53.197 3.47819 53.197 3.52121C53.197 3.56423 53.1755 3.62876 53.1755 3.69329C53.1755 3.75782 53.154 3.84386 53.154 3.9084C53.1325 4.25257 53.1755 4.57522 53.3045 4.89788L53.3476 5.00544C53.3906 5.11299 53.4551 5.24205 53.5196 5.32809C53.5412 5.39263 53.5842 5.43565 53.6272 5.50018C53.6702 5.56471 53.7132 5.62924 53.7563 5.69377C53.7993 5.7583 53.8638 5.82284 53.9068 5.88737C53.9499 5.9519 53.9929 5.99492 54.0574 6.05945C54.1219 6.12398 54.165 6.16701 54.208 6.23154L54.3155 6.3606C54.4876 6.57571 54.6382 6.79081 54.7888 7.02743C54.8748 7.15649 54.9608 7.30706 55.0469 7.43613C55.1544 7.60821 55.262 7.80181 55.3695 7.9954C55.4126 8.05993 55.4341 8.12447 55.4771 8.189C55.5201 8.25353 55.5631 8.36108 55.6277 8.46863C55.7137 8.64072 55.7998 8.8128 55.8858 9.0064C55.9718 9.19999 55.9934 9.4151 56.0794 9.6302Z" fill="#BCCB32"/>
<path d="M59.7147 10.6192C59.9208 9.05137 60.8135 7.61923 62.4035 7.17747C61.9733 5.39214 62.391 3.30914 63.1779 1.73534C61.871 1.17507 59.8967 1.66045 58.6392 2.14392C58.2051 4.89313 58.4598 8.08954 59.7147 10.6192Z" fill="#B5BC34"/>
</svg>
